<?xml version="1.0" encoding="UTF-8" standalone="no"?>
<!-- Created with Inkscape (http://www.inkscape.org/) -->

<svg
   xmlns:dc="http://purl.org/dc/elements/1.1/"
   xmlns:cc="http://creativecommons.org/ns#"
   xmlns:rdf="http://www.w3.org/1999/02/22-rdf-syntax-ns#"
   xmlns:svg="http://www.w3.org/2000/svg"
   xmlns="http://www.w3.org/2000/svg"
   xmlns:sodipodi="http://sodipodi.sourceforge.net/DTD/sodipodi-0.dtd"
   xmlns:inkscape="http://www.inkscape.org/namespaces/inkscape"
   width="196.04239mm"
   height="167.72343mm"
   viewBox="0 0 196.04239 167.72343"
   version="1.1"
   id="svg3845"
   inkscape:version="0.92.2 (5c3e80d, 2017-08-06)"
   sodipodi:docname="Latvia_road_sign_102.svg">
  <defs
     id="defs3839" />
  <sodipodi:namedview
     id="base"
     pagecolor="#ffffff"
     bordercolor="#666666"
     borderopacity="1.0"
     inkscape:pageopacity="0.0"
     inkscape:pageshadow="2"
     inkscape:zoom="0.49497475"
     inkscape:cx="15.9308"
     inkscape:cy="147.35862"
     inkscape:document-units="mm"
     inkscape:current-layer="layer1"
     showgrid="false"
     inkscape:window-width="1280"
     inkscape:window-height="658"
     inkscape:window-x="-8"
     inkscape:window-y="-8"
     inkscape:window-maximized="1"
     showguides="true"
     inkscape:guide-bbox="true">
    <sodipodi:guide
       position="175.07001,300.00097"
       orientation="0,1"
       id="guide3329"
       inkscape:locked="false" />
  </sodipodi:namedview>
  <metadata
     id="metadata3842">
    <rdf:RDF>
      <cc:Work
         rdf:about="">
        <dc:format>image/svg+xml</dc:format>
        <dc:type
           rdf:resource="http://purl.org/dc/dcmitype/StillImage" />
        <dc:title></dc:title>
      </cc:Work>
    </rdf:RDF>
  </metadata>
  <g
     inkscape:label="Layer 1"
     inkscape:groupmode="layer"
     id="layer1"
     transform="translate(502.42047,643.71226)">
    <path
       d="m -395.86807,-638.47734 87.31679,146.99624 c 4.17845,6.15063 -0.73339,14.57503 -6.75378,14.62116 l -176.83112,0.26511 c 4.00793,-0.0413 -13.50514,0.70449 -8.90513,-13.4503 l 87.32646,-147.70796 c 3.78374,-6.96447 14.00703,-7.05674 17.84678,-0.72391 z"
       style="fill:#ffffff;fill-opacity:1;stroke:#000000;stroke-width:1.21200001;stroke-linecap:butt;stroke-linejoin:miter;stroke-miterlimit:22.9260006;stroke-dasharray:none;stroke-opacity:1"
       id="path2646"
       inkscape:connector-curvature="0"
       sodipodi:nodetypes="cccccccc" />
    <path
       d="M -342.08142,-500.75811 H -466.6 l 62.26295,-106.94411 z m -57.46804,-134.20663 85.81589,144.36785 c 0.54353,0.68514 0.93554,1.89959 0.93554,3.08264 0,3.09718 -2.53141,5.62352 -5.63791,5.62352 -0.0691,0 -0.15816,0 -0.2217,0 H -490.1164 c 0.0276,0 -0.0691,0 -0.12915,0 -3.10644,0 -5.64033,-2.52634 -5.64033,-5.62352 0,-1.18305 0.39505,-2.39757 0.93803,-3.08264 l 85.58687,-144.07397 c 2.04657,-4.01051 7.47011,-4.25344 9.81152,-0.29402"
       style="fill:#ed1a3a;fill-opacity:1;fill-rule:evenodd;stroke:none;stroke-width:0.35277778"
       id="path2648"
       inkscape:connector-curvature="0" />
    <path
       d="m -431.76635,-507.26584 6.15438,-5.80813 c -1.88822,-1.77331 -3.00899,-3.57085 -4.54145,-5.67213 -1.14757,-1.82674 -2.07828,-4.00811 -2.92618,-5.94413 l -0.81862,-2.72555 c -0.90391,-3.57333 -1.09397,-7.03491 -0.76751,-10.55233 0.51868,-2.34414 1.14999,-5.80813 2.92618,-9.29883 l 9.38022,3.84539 c -0.51867,1.60812 -1.36685,3.35223 -1.63972,4.98948 l -0.54837,3.62676 c 0,2.26159 0.32875,4.52551 1.09391,6.62431 0.5753,1.82922 1.669,4.14665 3.31114,5.50935 l 1.88579,-6.68015 12.08954,22.08596 h -25.59951"
       style="fill:#000000;fill-opacity:1;fill-rule:evenodd;stroke:none;stroke-width:0.35277778"
       id="path2650"
       inkscape:connector-curvature="0" />
    <path
       d="m -401.71061,-507.9193 -1.06711,-10.52555 c 3.11859,0.29885 5.44294,-0.70931 8.20585,-1.88265 2.02227,-1.11737 4.18335,-2.72548 5.93275,-4.93363 1.42285,-1.55462 2.54363,-3.70933 3.25506,-5.45592 l -7.16554,1.74659 13.67566,-22.27787 11.65097,22.16859 -7.13874,-1.9628 -0.40955,1.49883 c -0.76751,2.34415 -1.91508,4.85348 -3.28186,7.3069 -3.93976,6.18954 -10.367,11.1523 -15.83681,12.70698 -2.51442,0.73603 -5.22373,1.44533 -7.82096,1.61053"
       style="fill:#000000;fill-opacity:1;fill-rule:evenodd;stroke:none;stroke-width:0.35277778"
       id="path2652"
       inkscape:connector-curvature="0" />
    <path
       d="m -389.89637,-548.35765 c -1.0111,-1.30935 -2.10507,-2.50934 -3.30865,-3.59999 -2.35115,-2.61627 -6.23483,-3.95226 -9.5727,-4.71748 -2.15867,-0.4882 -4.37583,-0.65346 -6.72698,-0.1625 l 4.6755,5.34416 c -8.20351,-0.0276 -16.92831,0 -25.15861,-0.0276 l 13.1811,-21.89405 1.74939,7.19763 c 4.10289,-0.79194 8.09625,-1.41869 12.2796,-1.00809 8.64199,1.0348 15.91713,5.53359 21.11407,12.45915 -2.76291,2.15472 -5.49661,4.28265 -8.23272,6.40816"
       style="fill:#000000;fill-opacity:1;fill-rule:evenodd;stroke:none;stroke-width:0.35277778"
       id="path2654"
       inkscape:connector-curvature="0" />
  </g>
</svg>
