<?xml version="1.0" encoding="UTF-8" standalone="no"?>
<!-- Created with Inkscape (http://www.inkscape.org/) -->

<svg
   xmlns:dc="http://purl.org/dc/elements/1.1/"
   xmlns:cc="http://creativecommons.org/ns#"
   xmlns:rdf="http://www.w3.org/1999/02/22-rdf-syntax-ns#"
   xmlns:svg="http://www.w3.org/2000/svg"
   xmlns="http://www.w3.org/2000/svg"
   xmlns:sodipodi="http://sodipodi.sourceforge.net/DTD/sodipodi-0.dtd"
   xmlns:inkscape="http://www.inkscape.org/namespaces/inkscape"
   width="195mm"
   height="167.32397mm"
   viewBox="0 0 195 167.32397"
   version="1.1"
   id="svg3845"
   inkscape:version="0.92.4 (5da689c313, 2019-01-14)"
   sodipodi:docname="Latvia_road_sign_131.svg">
  <defs
     id="defs3839" />
  <sodipodi:namedview
     id="base"
     pagecolor="#ffffff"
     bordercolor="#666666"
     borderopacity="1.0"
     inkscape:pageopacity="0.0"
     inkscape:pageshadow="2"
     inkscape:zoom="0.49497475"
     inkscape:cx="-516.71808"
     inkscape:cy="319.60143"
     inkscape:document-units="mm"
     inkscape:current-layer="layer1"
     showgrid="false"
     inkscape:window-width="1920"
     inkscape:window-height="1027"
     inkscape:window-x="-8"
     inkscape:window-y="-8"
     inkscape:window-maximized="1"
     showguides="false" />
  <metadata
     id="metadata3842">
    <rdf:RDF>
      <cc:Work
         rdf:about="">
        <dc:format>image/svg+xml</dc:format>
        <dc:type
           rdf:resource="http://purl.org/dc/dcmitype/StillImage" />
        <dc:title></dc:title>
      </cc:Work>
    </rdf:RDF>
  </metadata>
  <g
     inkscape:label="Layer 1"
     inkscape:groupmode="layer"
     id="layer1"
     transform="translate(363.62864,640.50337)">
    <path
       inkscape:connector-curvature="0"
       style="fill:#ffffff;fill-opacity:1;stroke:#000000;stroke-width:1.21166027;stroke-linecap:butt;stroke-linejoin:miter;stroke-miterlimit:22.9260006;stroke-opacity:1"
       d="m -257.64488,-635.27696 86.85143,146.63931 c 4.15562,6.13404 -0.7289,14.53994 -6.72095,14.58727 l -175.88008,0.26516 c 3.98527,-0.0481 -13.43234,0.70045 -8.86024,-13.42294 l 86.86092,-147.34924 c 3.76751,-6.94812 13.93408,-7.04278 17.74892,-0.71942 z m 0,0"
       id="path5366" />
    <path
       inkscape:connector-curvature="0"
       style="fill:#eb1938;fill-opacity:1;fill-rule:evenodd;stroke:none;stroke-width:2.42332053"
       d="m -261.37455,-631.77446 85.36527,144.02665 c 0.53993,0.68143 0.9277,1.89324 0.9277,3.07653 0,3.08595 -2.518,5.60387 -5.61342,5.60387 -0.055,0 -0.15113,0 -0.21776,0 h -170.54115 c 0.0275,0 -0.055,0 -0.12296,0 -3.09542,0 -5.61342,-2.51792 -5.61342,-5.60387 0,-1.18329 0.38811,-2.39496 0.93717,-3.07653 l 85.12856,-143.7332 c 2.03522,-4.00415 7.43095,-4.25021 9.75015,-0.29331 z m 57.16581,133.88852 h -123.85439 l 61.92716,-106.69238 61.92723,106.69238"
       id="path5362" />
    <path
       inkscape:connector-curvature="0"
       style="fill:#000000;fill-opacity:1;fill-rule:evenodd;stroke:none;stroke-width:2.42332053"
       d="m -230.1364,-510.30548 4.86556,-0.93718 -0.0206,-11.70954 -3.04809,-11.74738 h -20.27639 l -2.36646,-1.84591 h -30.41418 c -0.94658,0.48291 -1.71333,1.16434 -2.54637,1.81747 l -20.56036,0.0275 -0.0481,2.98181 h 0.57771 l -2.32861,8.6804 -0.007,11.84212 4.63839,0.88977 h 10.1382 l 1.20219,-3.15216 h 11.71909 l 1.2684,3.15216 h 23.21088 l 1.66606,-3.19949 11.72843,0.007 1.26848,3.19008 z m 3.23741,-13.61226 -1.98789,-7.80952 h -1.24004 l -0.007,7.80952 z m -33.70881,-13.14837 4.26924,-5.4241 -9.68379,-8.11246 -9.14429,8.10298 3.88113,5.43358 z m -0.65327,-0.91821 3.53087,-4.50589 -8.36806,-6.80613 -7.73382,6.80613 3.19956,4.5153 z m 29.62889,7.73375 h -2.47067 v 18.38316 h 2.47067 z m -3.61605,0 h -2.46118 v 18.38316 h 2.46118 z m -58.47206,0 h -2.46119 v 18.38316 h 2.46119 z m -3.65396,0 h -2.46119 v 18.38316 h 2.46119 z m -7.5634,6.33283 1.9879,-7.80952 h 1.24951 v 7.80952 z m 22.37784,-7.80952 h -9.08741 v 7.819 h 9.08741 z m 10.71569,0 h -9.08747 v 7.819 h 9.08747 z m 10.78185,0 h -9.08748 v 7.819 h 9.08748 z m 10.744,0 h -9.078 v 7.819 h 9.078 z m 10.75347,0 h -9.0874 v 7.819 h 9.0874 z m -41.68868,18.8943 c 1.43883,0 2.60317,1.1833 2.60317,2.62214 0,1.42935 -1.16434,2.60317 -2.60317,2.60317 -1.43884,0 -2.62207,-1.17382 -2.62207,-2.60317 0,-1.43884 1.18323,-2.62214 2.62207,-2.62214 z m -6.45587,0 c 1.42936,0 2.60317,1.1833 2.60317,2.62214 0,1.42935 -1.17381,2.60317 -2.60317,2.60317 -1.43883,0 -2.61265,-1.17382 -2.61265,-2.60317 0,-1.43884 1.17382,-2.62214 2.61265,-2.62214 z m 44.1972,0 c 1.42943,0 2.60318,1.1833 2.60318,2.62214 0,1.42935 -1.17375,2.60317 -2.60318,2.60317 -1.43883,0 -2.62213,-1.17382 -2.62213,-2.60317 0,-1.43884 1.1833,-2.62214 2.62213,-2.62214 z m -6.46534,0 c 1.43884,0 2.61265,1.1833 2.61265,2.62214 0,1.42935 -1.17381,2.60317 -2.61265,2.60317 -1.42935,0 -2.61265,-1.17382 -2.61265,-2.60317 0,-1.43884 1.1833,-2.62214 2.61265,-2.62214"
       id="path5364" />
  </g>
</svg>
