<?xml version="1.0" encoding="UTF-8" standalone="no"?>
<!-- Created with Inkscape (http://www.inkscape.org/) -->

<svg
   xmlns:dc="http://purl.org/dc/elements/1.1/"
   xmlns:cc="http://creativecommons.org/ns#"
   xmlns:rdf="http://www.w3.org/1999/02/22-rdf-syntax-ns#"
   xmlns:svg="http://www.w3.org/2000/svg"
   xmlns="http://www.w3.org/2000/svg"
   xmlns:sodipodi="http://sodipodi.sourceforge.net/DTD/sodipodi-0.dtd"
   xmlns:inkscape="http://www.inkscape.org/namespaces/inkscape"
   width="195mm"
   height="167.29347mm"
   viewBox="0 0 195 167.29347"
   version="1.1"
   id="svg6931"
   inkscape:version="0.92.3 (2405546, 2018-03-11)"
   sodipodi:docname="Latvia road sign 103.svg">
  <defs
     id="defs6925" />
  <sodipodi:namedview
     id="base"
     pagecolor="#ffffff"
     bordercolor="#666666"
     borderopacity="1.0"
     inkscape:pageopacity="0.0"
     inkscape:pageshadow="2"
     inkscape:zoom="0.35"
     inkscape:cx="92.148118"
     inkscape:cy="560.25015"
     inkscape:document-units="mm"
     inkscape:current-layer="layer1"
     showgrid="false"
     inkscape:window-width="1920"
     inkscape:window-height="1027"
     inkscape:window-x="-8"
     inkscape:window-y="-8"
     inkscape:window-maximized="1" />
  <metadata
     id="metadata6928">
    <rdf:RDF>
      <cc:Work
         rdf:about="">
        <dc:format>image/svg+xml</dc:format>
        <dc:type
           rdf:resource="http://purl.org/dc/dcmitype/StillImage" />
        <dc:title></dc:title>
      </cc:Work>
    </rdf:RDF>
  </metadata>
  <g
     inkscape:label="Layer 1"
     inkscape:groupmode="layer"
     id="layer1"
     transform="translate(41.389785,-129.77271)">
    <path
       d="m 64.607804,134.88096 86.958336,146.83046 c 4.1613,6.14369 -0.73038,14.55852 -6.72606,14.60467 l -176.105342,0.26481 c 3.99148,-0.0413 -13.44971,0.70363 -8.86858,-13.43513 L 46.834197,135.60438 c 3.768217,-6.95657 13.94954,-7.04878 17.773607,-0.72308 z"
       style="fill:#ffffff;fill-opacity:1;stroke:#000000;stroke-width:0.97057128;stroke-linecap:butt;stroke-linejoin:miter;stroke-miterlimit:22.9260006;stroke-dasharray:none;stroke-opacity:1"
       id="path6880"
       inkscape:connector-curvature="0" />
    <path
       d="m 38.397494,257.72376 -7.000219,7.02691 c 0.03439,-7.12643 0,-16.12115 0,-23.26458 0.03439,-8.31778 0.863748,-17.25431 11.382372,-24.08959 4.035154,-2.44584 8.111508,-3.08639 12.857647,-3.62749 h 18.960073 l 7.012393,7.03419 -6.976008,7.04149 H 56.115251 c -6.920158,0.27169 -10.68356,3.75611 -10.68356,10.89953 0,8.2814 0,17.73234 0,26.04283 l -7.034197,-7.06329"
       style="fill:#000000;fill-opacity:1;fill-rule:evenodd;stroke:none;stroke-width:2.42642808"
       id="path6882"
       inkscape:connector-curvature="0" />
    <path
       d="m 60.875903,138.38715 85.466077,144.2123 c 0.5413,0.68436 0.93424,1.89504 0.93424,3.07917 0,3.09128 -2.52349,5.61477 -5.61724,5.61477 -0.0619,0 -0.15545,0 -0.22079,0 H -29.321732 c 0.0275,0 -0.0688,0 -0.12862,0 -3.09368,0 -5.61717,-2.52349 -5.61717,-5.61477 0,-1.18413 0.39342,-2.39488 0.93418,-3.07917 L 51.10465,138.68074 c 2.038177,-4.00603 7.441859,-4.24867 9.771185,-0.29362 z M 118.11055,272.4497 H -5.9017809 L 56.10796,165.62139 118.11055,272.4497"
       style="fill:#ed1a3a;fill-opacity:1;fill-rule:evenodd;stroke:none;stroke-width:2.42642808"
       id="path6884"
       inkscape:connector-curvature="0" />
  </g>
</svg>
