<?xml version="1.0" encoding="UTF-8" standalone="no"?>
<!-- Created with Inkscape (http://www.inkscape.org/) -->

<svg
   xmlns:dc="http://purl.org/dc/elements/1.1/"
   xmlns:cc="http://creativecommons.org/ns#"
   xmlns:rdf="http://www.w3.org/1999/02/22-rdf-syntax-ns#"
   xmlns:svg="http://www.w3.org/2000/svg"
   xmlns="http://www.w3.org/2000/svg"
   xmlns:sodipodi="http://sodipodi.sourceforge.net/DTD/sodipodi-0.dtd"
   xmlns:inkscape="http://www.inkscape.org/namespaces/inkscape"
   width="195mm"
   height="167.32558mm"
   viewBox="0 0 195 167.32558"
   version="1.1"
   id="svg3845"
   inkscape:version="0.92.3 (2405546, 2018-03-11)"
   sodipodi:docname="Latvia_road_sign_119.svg">
  <defs
     id="defs3839" />
  <sodipodi:namedview
     id="base"
     pagecolor="#ffffff"
     bordercolor="#666666"
     borderopacity="1.0"
     inkscape:pageopacity="0.0"
     inkscape:pageshadow="2"
     inkscape:zoom="0.35"
     inkscape:cx="1187.9728"
     inkscape:cy="-370.67057"
     inkscape:document-units="mm"
     inkscape:current-layer="layer1"
     showgrid="false"
     inkscape:window-width="1920"
     inkscape:window-height="1027"
     inkscape:window-x="-8"
     inkscape:window-y="-8"
     inkscape:window-maximized="1" />
  <metadata
     id="metadata3842">
    <rdf:RDF>
      <cc:Work
         rdf:about="">
        <dc:format>image/svg+xml</dc:format>
        <dc:type
           rdf:resource="http://purl.org/dc/dcmitype/StillImage" />
        <dc:title></dc:title>
      </cc:Work>
    </rdf:RDF>
  </metadata>
  <g
     inkscape:label="Layer 1"
     inkscape:groupmode="layer"
     id="layer1"
     transform="translate(848.50293,758.99473)">
    <path
       d="m -742.51753,-753.77017 86.84958,146.64429 c 4.15609,6.136 -0.72947,14.54277 -6.71765,14.58639 l -175.88494,0.26448 c 3.98648,-0.0412 -13.43288,0.70274 -8.85748,-13.41832 l 86.85919,-147.35431 c 3.7635,-6.95031 13.93209,-7.04243 17.7513,-0.72218 z"
       style="fill:#ffffff;fill-opacity:1;stroke:#000000;stroke-width:1.21169567;stroke-linecap:butt;stroke-linejoin:miter;stroke-miterlimit:22.9260006;stroke-dasharray:none;stroke-opacity:1"
       id="path9836"
       inkscape:connector-curvature="0" />
    <path
       d="m -746.24469,-750.2708 85.35911,144.03183 c 0.54063,0.68351 0.93301,1.89267 0.93301,3.07532 0,3.08741 -2.52027,5.60774 -5.61015,5.60774 -0.0618,0 -0.15731,0 -0.22051,0 h -170.54621 c 0.0275,0 -0.0687,0 -0.12846,0 -3.08988,0 -5.61015,-2.52033 -5.61015,-5.60774 0,-1.18265 0.39225,-2.39188 0.93301,-3.07532 l 85.13132,-143.73864 c 2.03563,-4.00098 7.43255,-4.24333 9.75896,-0.29332 z m 57.16294,133.89478 h -123.85712 l 61.9322,-106.69461 61.92492,106.69461"
       style="fill:#ed1a3a;fill-opacity:1;fill-rule:evenodd;stroke:none;stroke-width:2.42339134"
       id="path9832"
       inkscape:connector-curvature="0" />
    <path
       d="m -718.08246,-621.83834 -0.11404,-0.46781 0.23975,-1.35225 0.19372,-0.1209 h 1.11718 l 0.89667,0.71731 -0.38263,1.09052 -0.45545,0.13327 z m 5.5229,-1.1099 -0.65397,-0.44101 -0.0852,-0.84577 0.19166,-0.52071 1.06147,-0.73187 h 1.03721 l 0.32218,0.45545 c 0,0.7173 -0.0776,1.50977 -0.97663,2.08412 z m -6.88965,-2.73115 -0.90395,-0.63474 -0.18685,-0.37095 0.18685,-1.52921 0.90395,-1.09774 h 0.13327 l 1.92901,0.20127 0.55024,0.33455 0.0996,0.19165 0.28371,1.11718 -0.28371,0.97423 -0.37095,0.10922 -0.46987,0.26173 z m -13.11297,-0.10923 -0.99607,-0.8966 0.29058,-1.89995 0.52551,-0.38538 1.11959,-0.34141 0.78277,0.20127 0.90395,0.52552 0.28371,0.63954 v 0.97663 c -0.1841,0.58391 -0.74637,0.84577 -1.07356,1.0445 z m -9.53123,-0.52551 c -0.69794,-0.19853 -1.19714,-0.3998 -1.73028,-0.84089 l -0.24936,-1.62126 c 0.70522,-1.09781 2.07203,-1.80303 3.09709,-2.15681 l 0.24936,-0.19371 0.73909,0.0776 0.43415,0.70522 c 0.22051,0.22051 0.41423,0.35652 0.53582,0.66428 l -0.45545,2.45493 -0.78999,0.73187 z m 17.27634,-1.15352 c -0.59833,-1.01785 -0.78999,-0.91123 -0.65466,-2.29983 0.27615,-0.71243 0.84577,-1.16561 1.27957,-1.35953 l 1.90964,-0.24936 0.62512,0.32698 c 0.27135,0.89908 0.1841,1.8224 -0.70522,2.83537 l -0.85304,0.46781 z m -13.11297,-1.75941 -0.63955,-0.54062 -0.055,-0.81184 0.98391,-1.11717 1.45887,-0.59627 0.66153,-0.11404 1.22379,0.89667 0.13601,0.86027 -0.85305,0.77549 -1.34737,0.56192 z m -4.5414,-2.51786 -1.55098,-1.11718 0.19852,-1.17536 1.53643,-1.36682 c 0.74884,-0.37782 1.45399,0.0845 2.21498,0.5475 l 0.59833,0.76821 -0.463,1.95086 -0.59833,0.39224 z m -52.55608,-1.03969 0.007,-8.29281 43.37388,-0.007 v 8.29288 z m 48.22791,-0.42179 -1.8224,-0.75364 -0.90395,-1.49528 0.98872,-2.02106 1.19721,-0.69794 c 0.83849,0.10648 1.70844,0.56948 2.27798,1.2238 0.33454,0.84089 0.1477,1.63094 0.24249,2.46455 l -0.88938,1.10269 z m 9.95769,-2.46215 -0.93789,-1.38859 0.60383,-3.99376 -33.67064,-5.84282 -0.73916,4.11494 -1.38131,1.059 -3.652,-0.56948 -0.95967,-1.47343 1.66482,-10.69925 46.07839,7.91719 -1.94358,10.57814 -1.26013,0.95238 z m -38.61672,-20.87023 c 0.94023,-6.89941 6.78304,-16.51541 12.42225,-20.53823 9.82201,0.87482 18.71343,2.31432 28.57426,4.93399 3.83618,5.5229 6.07782,16.77713 4.98976,23.39785 z m 5.21756,-9.60391 c 2.30704,-3.78775 4.31361,-6.49954 7.2459,-9.43183 7.14177,0.56947 20.75153,2.78446 27.52729,4.74741 2.25861,3.60117 3.29583,7.41798 3.92349,11.26151 -17.91856,-4.01554 -20.74425,-4.46391 -38.69668,-6.57709"
       style="fill:#000000;fill-opacity:1;fill-rule:evenodd;stroke:none;stroke-width:2.42339134"
       id="path9834"
       inkscape:connector-curvature="0" />
  </g>
</svg>
