<?xml version="1.0" encoding="UTF-8" standalone="no"?>
<!-- Created with Inkscape (http://www.inkscape.org/) -->

<svg
   xmlns:dc="http://purl.org/dc/elements/1.1/"
   xmlns:cc="http://creativecommons.org/ns#"
   xmlns:rdf="http://www.w3.org/1999/02/22-rdf-syntax-ns#"
   xmlns:svg="http://www.w3.org/2000/svg"
   xmlns="http://www.w3.org/2000/svg"
   xmlns:sodipodi="http://sodipodi.sourceforge.net/DTD/sodipodi-0.dtd"
   xmlns:inkscape="http://www.inkscape.org/namespaces/inkscape"
   width="195mm"
   height="167.326mm"
   viewBox="0 0 195 167.32601"
   version="1.1"
   id="svg3845"
   inkscape:version="0.92.3 (2405546, 2018-03-11)"
   sodipodi:docname="Latvia_road_sign_118.svg">
  <defs
     id="defs3839" />
  <sodipodi:namedview
     id="base"
     pagecolor="#ffffff"
     bordercolor="#666666"
     borderopacity="1.0"
     inkscape:pageopacity="0.0"
     inkscape:pageshadow="2"
     inkscape:zoom="0.35"
     inkscape:cx="-541.2405"
     inkscape:cy="-290.35402"
     inkscape:document-units="mm"
     inkscape:current-layer="layer1"
     showgrid="false"
     inkscape:window-width="1920"
     inkscape:window-height="1027"
     inkscape:window-x="-8"
     inkscape:window-y="-8"
     inkscape:window-maximized="1" />
  <metadata
     id="metadata3842">
    <rdf:RDF>
      <cc:Work
         rdf:about="">
        <dc:format>image/svg+xml</dc:format>
        <dc:type
           rdf:resource="http://purl.org/dc/dcmitype/StillImage" />
        <dc:title></dc:title>
      </cc:Work>
    </rdf:RDF>
  </metadata>
  <g
     inkscape:label="Layer 1"
     inkscape:groupmode="layer"
     id="layer1"
     transform="translate(390.98191,737.74473)">
    <path
       d="m -284.9965,-732.52216 86.84959,146.64671 c 4.15609,6.13607 -0.72947,14.54037 -6.71764,14.58639 l -175.88497,0.26448 c 3.98648,-0.0412 -13.43288,0.70274 -8.85748,-13.41839 l 86.8592,-147.35432 c 3.76351,-6.95025 13.93209,-7.04237 17.7513,-0.72459 z"
       style="fill:#ffffff;fill-opacity:1;stroke:#000000;stroke-width:1.21169591;stroke-linecap:butt;stroke-linejoin:miter;stroke-miterlimit:22.9260006;stroke-dasharray:none;stroke-opacity:1"
       id="path9830"
       inkscape:connector-curvature="0" />
    <path
       d="m -288.72366,-729.02032 85.35912,144.02945 c 0.54269,0.68351 0.93301,1.89507 0.93301,3.07525 0,3.08981 -2.52027,5.61014 -5.61015,5.61014 -0.0618,0 -0.15525,0 -0.22051,0 h -170.54623 c 0.0275,0 -0.0618,0 -0.12846,0 -3.08988,0 -5.60774,-2.52033 -5.60774,-5.61014 0,-1.18018 0.39018,-2.39188 0.9306,-3.07525 l 85.13133,-143.73626 c 2.03563,-4.00098 7.43255,-4.24333 9.75896,-0.29332 z m 57.16295,133.8948 h -123.85714 l 61.93221,-106.6947 61.92493,106.6947"
       style="fill:#ed1a3a;fill-opacity:1;fill-rule:evenodd;stroke:none;stroke-width:2.42339182"
       id="path9826"
       inkscape:connector-curvature="0" />
    <path
       d="m -323.09705,-607.52847 8.52067,-12.71309 1.70122,-16.32156 c -2.00176,0.94517 -3.60358,-0.38538 -3.97192,-1.97263 l -5.5181,-2.78207 1.11718,-1.80295 4.6917,2.3725 5.15457,-13.80369 c 6.29112,0 12.76881,0 19.07689,0 l 8.06509,9.85114 -0.0344,12.82212 5.50354,7.38893 c 0.61275,0.71009 0.75365,2.14959 0.0996,2.94686 l 6.92607,3.55027 1.0978,-3.11647 8.83323,-4.28455 3.50906,2.56877 3.83865,-0.38538 7.7234,16.09617 c 0.9451,0.87483 3.18187,2.56876 3.44359,3.63023 l 0.84824,1.46615 h -43.50963 l 1.36682,-2.52762 c 0.30019,-0.66152 0.64916,-0.93053 0.45544,-1.55819 l 2.84025,-0.71979 2.92742,-4.98248 c 1.17296,-1.03234 2.26348,-1.37403 3.32248,-2.01385 l 2.5349,-2.16409 -8.17898,-4.17306 c -1.50977,0.0948 -2.14953,-0.29813 -2.8838,-1.47343 l -9.48034,-4.77406 4.74742,5.85003 -2.45487,15.61881 c -0.62031,4.34026 -7.71852,4.04947 -7.06902,-1.30382 l 1.99929,-12.44897 -10.0595,-12.46594 -1.25779,12.8125 -9.88254,14.7003 c -3.18193,4.05188 -8.31466,-0.13602 -6.04155,-3.88715 z m 26.70096,-23.01247 -3.26917,-4.05195 9.60391,-5.52291 v 9.35428 l 3.65201,5.36786 z m -14.64458,-8.75574 3.53818,-9.68876 h 7.11264 z m 28.66143,-20.73697 c 2.96143,0 5.37996,2.421 5.37996,5.38236 0,2.96135 -2.41853,5.37995 -5.37996,5.37995 -2.96135,0 -5.38235,-2.4186 -5.38235,-5.37995 0,-2.96136 2.421,-5.38236 5.38235,-5.38236"
       style="fill:#000000;fill-opacity:1;fill-rule:evenodd;stroke:none;stroke-width:2.42339182"
       id="path9828"
       inkscape:connector-curvature="0" />
  </g>
</svg>
