<?xml version="1.0" encoding="UTF-8" standalone="no"?>
<!-- Created with Inkscape (http://www.inkscape.org/) -->

<svg
   xmlns:dc="http://purl.org/dc/elements/1.1/"
   xmlns:cc="http://creativecommons.org/ns#"
   xmlns:rdf="http://www.w3.org/1999/02/22-rdf-syntax-ns#"
   xmlns:svg="http://www.w3.org/2000/svg"
   xmlns="http://www.w3.org/2000/svg"
   xmlns:sodipodi="http://sodipodi.sourceforge.net/DTD/sodipodi-0.dtd"
   xmlns:inkscape="http://www.inkscape.org/namespaces/inkscape"
   width="195.00002mm"
   height="167.32628mm"
   viewBox="0 0 195.00002 167.32628"
   version="1.1"
   id="svg6931"
   inkscape:version="0.92.3 (2405546, 2018-03-11)"
   sodipodi:docname="Latvia road sign 108.svg">
  <defs
     id="defs6925" />
  <sodipodi:namedview
     id="base"
     pagecolor="#ffffff"
     bordercolor="#666666"
     borderopacity="1.0"
     inkscape:pageopacity="0.0"
     inkscape:pageshadow="2"
     inkscape:zoom="0.49497475"
     inkscape:cx="-660.48149"
     inkscape:cy="398.4005"
     inkscape:document-units="mm"
     inkscape:current-layer="layer1"
     showgrid="false"
     inkscape:window-width="1600"
     inkscape:window-height="838"
     inkscape:window-x="-8"
     inkscape:window-y="-8"
     inkscape:window-maximized="1" />
  <metadata
     id="metadata6928">
    <rdf:RDF>
      <cc:Work
         rdf:about="">
        <dc:format>image/svg+xml</dc:format>
        <dc:type
           rdf:resource="http://purl.org/dc/dcmitype/StillImage" />
        <dc:title></dc:title>
      </cc:Work>
    </rdf:RDF>
  </metadata>
  <g
     inkscape:label="Layer 1"
     inkscape:groupmode="layer"
     id="layer1"
     transform="translate(-251.51221,280.98685)">
    <path
       d="m 357.49767,-275.76331 86.84953,146.64671 c 4.15611,6.136 -0.72945,14.54037 -6.71764,14.5864 l -175.88496,0.26378 c 3.98648,-0.0412 -13.43286,0.70282 -8.8575,-13.41831 l 86.85922,-147.35674 c 3.76353,-6.94791 13.93208,-7.03996 17.75135,-0.72219 z"
       style="fill:#ffffff;fill-opacity:1;stroke:#000000;stroke-width:1.21169591;stroke-linecap:butt;stroke-linejoin:miter;stroke-miterlimit:22.9260006;stroke-dasharray:none;stroke-opacity:1"
       id="path4130"
       inkscape:connector-curvature="0" />
    <path
       d="m 333.92533,-148.56431 c 0,-21.29195 0,-42.74623 0,-64.03812 h 10.65808 v 64.06477 l -10.65808,-0.0275"
       style="fill:#000000;fill-opacity:1;fill-rule:evenodd;stroke:none;stroke-width:2.42339182"
       id="path4124"
       inkscape:connector-curvature="0" />
    <path
       d="m 363.31381,-148.5595 c 0,-10.55142 0,-21.02047 0,-31.59855 l -10.60476,-10.71388 v -21.75234 h 10.60476 v 17.24 l 10.68716,10.71381 v 36.11096 h -10.68716"
       style="fill:#000000;fill-opacity:1;fill-rule:evenodd;stroke:none;stroke-width:2.42339182"
       id="path4126"
       inkscape:connector-curvature="0" />
    <path
       d="m 344.23929,-272.26154 -85.35913,144.02945 c -0.54042,0.68351 -0.93301,1.89267 -0.93301,3.07532 0,3.08981 2.52032,5.61015 5.61015,5.61015 0.0632,0 0.15511,0 0.22051,0 h 170.54622 c -0.0289,0 0.0653,0 0.12853,0 3.08982,0 5.61014,-2.52034 5.61014,-5.61015 0,-1.18265 -0.39259,-2.39188 -0.933,-3.07532 l -85.13139,-143.7386 c -2.03565,-3.99864 -7.43254,-4.24092 -9.759,-0.29057 z m -57.16297,133.89246 h 123.85714 l -61.9322,-106.69229 -61.92494,106.69229"
       style="fill:#ed1a3a;fill-opacity:1;fill-rule:evenodd;stroke:none;stroke-width:2.42339182"
       id="path4128"
       inkscape:connector-curvature="0" />
  </g>
</svg>
