<?xml version="1.0" encoding="UTF-8" standalone="no"?>
<!-- Created with Inkscape (http://www.inkscape.org/) -->

<svg
   xmlns:dc="http://purl.org/dc/elements/1.1/"
   xmlns:cc="http://creativecommons.org/ns#"
   xmlns:rdf="http://www.w3.org/1999/02/22-rdf-syntax-ns#"
   xmlns:svg="http://www.w3.org/2000/svg"
   xmlns="http://www.w3.org/2000/svg"
   xmlns:sodipodi="http://sodipodi.sourceforge.net/DTD/sodipodi-0.dtd"
   xmlns:inkscape="http://www.inkscape.org/namespaces/inkscape"
   width="195mm"
   height="167.32498mm"
   viewBox="0 0 195 167.32498"
   version="1.1"
   id="svg3845"
   inkscape:version="0.92.3 (2405546, 2018-03-11)"
   sodipodi:docname="Latvia_road_sign_143.svg">
  <defs
     id="defs3839" />
  <sodipodi:namedview
     id="base"
     pagecolor="#ffffff"
     bordercolor="#666666"
     borderopacity="1.0"
     inkscape:pageopacity="0.0"
     inkscape:pageshadow="2"
     inkscape:zoom="0.35"
     inkscape:cx="261.47185"
     inkscape:cy="-25.272686"
     inkscape:document-units="mm"
     inkscape:current-layer="layer1"
     showgrid="false"
     inkscape:window-width="1920"
     inkscape:window-height="1027"
     inkscape:window-x="-8"
     inkscape:window-y="-8"
     inkscape:window-maximized="1" />
  <metadata
     id="metadata3842">
    <rdf:RDF>
      <cc:Work
         rdf:about="">
        <dc:format>image/svg+xml</dc:format>
        <dc:type
           rdf:resource="http://purl.org/dc/dcmitype/StillImage" />
        <dc:title></dc:title>
      </cc:Work>
    </rdf:RDF>
  </metadata>
  <g
     inkscape:label="Layer 1"
     inkscape:groupmode="layer"
     id="layer1"
     transform="translate(480.52395,667.60762)">
    <path
       d="m -374.53601,-662.38662 86.84675,146.64397 c 4.15606,6.13579 -0.72718,14.54259 -6.71748,14.58636 l -175.88473,0.26781 c 3.98682,-0.0432 -13.4328,0.70118 -8.85768,-13.4184 l 86.8618,-147.35372 c 3.76098,-6.95029 13.92967,-7.0423 17.75134,-0.72213 z"
       style="fill:#ffffff;fill-opacity:1;stroke:#000000;stroke-width:1.21169198;stroke-linecap:butt;stroke-linejoin:miter;stroke-miterlimit:22.9260006;stroke-dasharray:none;stroke-opacity:1"
       id="path72"
       inkscape:connector-curvature="0" />
    <path
       d="m -378.26323,-658.88495 85.3564,144.02885 c 0.54065,0.68247 0.93292,1.8927 0.93292,3.07586 0,3.08939 -2.52023,5.60739 -5.61026,5.60739 -0.0648,0 -0.15334,0 -0.22173,0 h -170.54551 c 0.0288,0 -0.0648,0 -0.12238,0 -3.08946,0 -5.60991,-2.518 -5.60991,-5.60739 0,-1.18316 0.39019,-2.39245 0.9304,-3.07586 l 85.13086,-143.73793 c 2.03848,-4.00086 7.43263,-4.24339 9.76173,-0.29084 z m 57.16036,133.89199 h -123.85439 l 61.9295,-106.69409 61.92489,106.69409"
       style="fill:#ed1a3a;fill-opacity:1;fill-rule:evenodd;stroke:none;stroke-width:2.42338395"
       id="path70"
       inkscape:connector-curvature="0" />
    <path
       d="m -407.57915,-563.88315 c -0.0648,-3.10688 1.96519,-7.50325 4.27002,-9.69355 4.58009,-0.34699 8.77251,-0.37723 13.49594,0.0432 2.15898,2.14704 3.9673,6.65953 3.94045,9.65461 h -21.70641"
       style="fill:#000000;fill-opacity:1;fill-rule:evenodd;stroke:none;stroke-width:2.42338395"
       id="path74"
       inkscape:connector-curvature="0" />
    <path
       d="m -388.27916,-557.17078 -0.53056,-0.55361 -0.0144,-1.84216 -15.912,-0.1123 -0.0432,1.90702 -0.55576,0.5788 -1.72079,0.0144 -0.54856,-0.59176 -0.0144,-4.93874 21.76955,0.11734 -0.11734,4.90534 -0.50538,0.52049 -1.79579,-0.007"
       style="fill:#000000;fill-opacity:1;fill-rule:evenodd;stroke:none;stroke-width:2.42338395"
       id="path76"
       inkscape:connector-curvature="0" />
    <path
       d="m -397.36914,-554.62089 c -0.0864,-4.16622 2.5974,-10.42828 5.69025,-13.36772 6.13817,-0.46865 11.75816,-0.50249 18.08523,0.0576 2.89631,2.8791 5.35607,9.29609 5.31957,13.31401 h -29.09505"
       style="fill:#000000;fill-opacity:1;fill-rule:evenodd;stroke:none;stroke-width:2.42338395"
       id="path78"
       inkscape:connector-curvature="0" />
    <path
       d="m -395.07417,-560.81298 c 1.06135,-2.46466 2.03761,-4.26751 3.5646,-6.29331 4.4567,-0.37723 13.05729,-0.43339 17.42422,0.0504 1.73518,1.90284 2.7434,4.05009 3.49678,6.25724 -11.43111,-0.57664 -13.21452,-0.55864 -24.4856,-0.0144"
       style="fill:#ffffff;fill-opacity:1;fill-rule:evenodd;stroke:none;stroke-width:2.42338395"
       id="path80"
       inkscape:connector-curvature="0" />
    <path
       d="m -371.53582,-545.99654 -0.71486,-0.74409 -0.0144,-2.46919 -21.33055,-0.15334 -0.0576,2.55421 -0.74669,0.78038 -2.30678,0.0216 -0.73703,-0.79262 -0.0216,-6.62065 29.17993,0.16054 -0.16054,6.57472 -0.6839,0.70119 -2.40599,-0.0144"
       style="fill:#000000;fill-opacity:1;fill-rule:evenodd;stroke:none;stroke-width:2.42338395"
       id="path82"
       inkscape:connector-curvature="0" />
    <path
       d="m -385.64525,-541.25634 c -0.10511,-5.52503 3.44891,-13.8304 7.54644,-17.72716 8.14296,-0.62199 15.59488,-0.67382 23.9893,0.0734 3.83852,3.81412 7.10306,12.32969 7.05432,17.65639 h -38.59006"
       style="fill:#000000;fill-opacity:1;fill-rule:evenodd;stroke:none;stroke-width:2.42338395"
       id="path84"
       inkscape:connector-curvature="0" />
    <path
       d="m -382.59877,-549.46682 c 1.40302,-3.27138 2.69985,-5.66067 4.7258,-8.34619 5.91061,-0.49745 17.31976,-0.57664 23.10936,0.0648 2.30455,2.52052 3.6373,5.37054 4.63832,8.29759 -15.15847,-0.76547 -17.52594,-0.74157 -32.47348,-0.0144"
       style="fill:#ffffff;fill-opacity:1;fill-rule:evenodd;stroke:none;stroke-width:2.42338395"
       id="path86"
       inkscape:connector-curvature="0" />
    <path
       d="m -351.38079,-529.81753 -0.94977,-0.98677 -0.0288,-3.2739 -28.2879,-0.20661 -0.0734,3.38779 -0.9913,1.03226 -3.06074,0.0288 -0.97662,-1.04976 -0.0288,-8.77928 38.70135,0.21669 -0.21669,8.71924 -0.90628,0.93112 -3.19169,-0.0216"
       style="fill:#000000;fill-opacity:1;fill-rule:evenodd;stroke:none;stroke-width:2.42338395"
       id="path88"
       inkscape:connector-curvature="0" />
    <path
       d="m -405.83886,-568.22373 c 0.78966,-1.83935 1.51935,-3.18434 2.65845,-4.69383 3.32465,-0.28652 9.74186,-0.3218 12.99891,0.036 1.29424,1.41741 2.04532,3.02193 2.60994,4.66777 -8.52782,-0.43338 -9.86057,-0.41827 -18.2673,-0.007"
       style="fill:#ffffff;fill-opacity:1;fill-rule:evenodd;stroke:none;stroke-width:2.42338395"
       id="path90"
       inkscape:connector-curvature="0" />
  </g>
</svg>
