<?xml version="1.0" encoding="UTF-8" standalone="no"?>
<!-- Created with Inkscape (http://www.inkscape.org/) -->

<svg
   xmlns:dc="http://purl.org/dc/elements/1.1/"
   xmlns:cc="http://creativecommons.org/ns#"
   xmlns:rdf="http://www.w3.org/1999/02/22-rdf-syntax-ns#"
   xmlns:svg="http://www.w3.org/2000/svg"
   xmlns="http://www.w3.org/2000/svg"
   xmlns:sodipodi="http://sodipodi.sourceforge.net/DTD/sodipodi-0.dtd"
   xmlns:inkscape="http://www.inkscape.org/namespaces/inkscape"
   width="195mm"
   height="167.32628mm"
   viewBox="0 0 195 167.32628"
   version="1.1"
   id="svg3845"
   inkscape:version="0.92.3 (2405546, 2018-03-11)"
   sodipodi:docname="Latvia_road_sign_122.svg">
  <defs
     id="defs3839" />
  <sodipodi:namedview
     id="base"
     pagecolor="#ffffff"
     bordercolor="#666666"
     borderopacity="1.0"
     inkscape:pageopacity="0.0"
     inkscape:pageshadow="2"
     inkscape:zoom="0.35"
     inkscape:cx="735.26044"
     inkscape:cy="-72.894699"
     inkscape:document-units="mm"
     inkscape:current-layer="layer1"
     showgrid="false"
     inkscape:window-width="1920"
     inkscape:window-height="1027"
     inkscape:window-x="-8"
     inkscape:window-y="-8"
     inkscape:window-maximized="1" />
  <metadata
     id="metadata3842">
    <rdf:RDF>
      <cc:Work
         rdf:about="">
        <dc:format>image/svg+xml</dc:format>
        <dc:type
           rdf:resource="http://purl.org/dc/dcmitype/StillImage" />
        <dc:title></dc:title>
      </cc:Work>
    </rdf:RDF>
  </metadata>
  <g
     inkscape:label="Layer 1"
     inkscape:groupmode="layer"
     id="layer1"
     transform="translate(728.72279,680.20889)">
    <path
       d="m -622.73738,-674.98604 86.84959,146.6467 c 4.15609,6.13601 -0.72947,14.54038 -6.71764,14.5864 l -175.88497,0.26448 c 3.98648,-0.0412 -13.43288,0.70281 -8.85748,-13.41832 l 86.8592,-147.35673 c 3.7635,-6.94791 13.93209,-7.03996 17.7513,-0.72219 z"
       style="fill:#ffffff;fill-opacity:1;stroke:#000000;stroke-width:1.21169591;stroke-linecap:butt;stroke-linejoin:miter;stroke-miterlimit:22.9260006;stroke-dasharray:none;stroke-opacity:1"
       id="path9854"
       inkscape:connector-curvature="0" />
    <path
       d="m -626.46454,-671.48426 85.35912,144.02944 c 0.54063,0.68351 0.93301,1.89514 0.93301,3.07531 0,3.08982 -2.52027,5.61015 -5.61015,5.61015 -0.0618,0 -0.15731,0 -0.22051,0 H -716.5493 c 0.0275,0 -0.0687,0 -0.12846,0 -3.08988,0 -5.61015,-2.52033 -5.61015,-5.61015 0,-1.18017 0.39294,-2.39187 0.93301,-3.07531 l 85.13133,-143.73859 c 2.03563,-4.00105 7.43255,-4.24093 9.75896,-0.29058 z m 57.16295,133.89245 h -123.85714 l 61.93221,-106.69229 61.92493,106.69229"
       style="fill:#ed1a3a;fill-opacity:1;fill-rule:evenodd;stroke:none;stroke-width:2.42339182"
       id="path9850"
       inkscape:connector-curvature="0" />
    <path
       d="m -646.08914,-545.70532 -14.86509,-25.25659 10.6581,2.59054 v -34.00499 h 8.44792 v 34.00499 l 10.62169,-2.59054 z m 33.05748,-56.67104 14.86509,25.25659 -10.64353,-2.59308 v 34.00753 h -8.4504 v -34.00753 l -10.62657,2.59308 14.85541,-25.25659"
       style="fill:#000000;fill-opacity:1;fill-rule:evenodd;stroke:none;stroke-width:2.42339182"
       id="path9852"
       inkscape:connector-curvature="0" />
  </g>
</svg>
