<?xml version="1.0" encoding="UTF-8" standalone="no"?>
<!-- Created with Inkscape (http://www.inkscape.org/) -->

<svg
   xmlns:dc="http://purl.org/dc/elements/1.1/"
   xmlns:cc="http://creativecommons.org/ns#"
   xmlns:rdf="http://www.w3.org/1999/02/22-rdf-syntax-ns#"
   xmlns:svg="http://www.w3.org/2000/svg"
   xmlns="http://www.w3.org/2000/svg"
   xmlns:sodipodi="http://sodipodi.sourceforge.net/DTD/sodipodi-0.dtd"
   xmlns:inkscape="http://www.inkscape.org/namespaces/inkscape"
   width="195mm"
   height="167.32631mm"
   viewBox="0 0 195 167.3263"
   version="1.1"
   id="svg6931"
   inkscape:version="0.92.3 (2405546, 2018-03-11)"
   sodipodi:docname="Latvia road sign 110.svg">
  <defs
     id="defs6925" />
  <sodipodi:namedview
     id="base"
     pagecolor="#ffffff"
     bordercolor="#666666"
     borderopacity="1.0"
     inkscape:pageopacity="0.0"
     inkscape:pageshadow="2"
     inkscape:zoom="0.49497475"
     inkscape:cx="1081.651"
     inkscape:cy="-213.0861"
     inkscape:document-units="mm"
     inkscape:current-layer="layer1"
     showgrid="false"
     inkscape:window-width="1920"
     inkscape:window-height="1027"
     inkscape:window-x="-8"
     inkscape:window-y="-8"
     inkscape:window-maximized="1" />
  <metadata
     id="metadata6928">
    <rdf:RDF>
      <cc:Work
         rdf:about="">
        <dc:format>image/svg+xml</dc:format>
        <dc:type
           rdf:resource="http://purl.org/dc/dcmitype/StillImage" />
        <dc:title></dc:title>
      </cc:Work>
    </rdf:RDF>
  </metadata>
  <g
     inkscape:label="Layer 1"
     inkscape:groupmode="layer"
     id="layer1"
     transform="translate(303.19577,74.87201)">
    <path
       d="m -197.21029,-69.648452 86.84952,146.646717 c 4.1561,6.136011 -0.72946,14.540371 -6.71764,14.586401 l -175.88499,0.26379 c 3.98649,-0.0412 -13.43281,0.70274 -8.85748,-13.418321 l 86.85922,-147.356786 c 3.7635,-6.947866 13.93209,-7.039951 17.75137,-0.722165 z"
       style="fill:#ffffff;fill-opacity:1;stroke:#000000;stroke-width:1.21169603;stroke-linecap:butt;stroke-linejoin:miter;stroke-miterlimit:22.9260006;stroke-dasharray:none;stroke-opacity:1"
       id="path7884"
       inkscape:connector-curvature="0" />
    <path
       d="m -261.86639,65.009756 28.84073,-49.744975 84.77269,49.744975 h -113.61342"
       style="fill:#000000;fill-opacity:1;fill-rule:evenodd;stroke:none;stroke-width:2.42339206"
       id="path7874"
       inkscape:connector-curvature="0" />
    <path
       d="m -200.93745,-66.146657 85.35913,144.029433 c 0.54062,0.683512 0.933,1.89515 0.933,3.07532 0,3.08981 -2.52033,5.61015 -5.61014,5.61015 -0.0618,0 -0.15525,0 -0.22051,0 h -170.54619 c 0.0275,0 -0.0687,0 -0.12846,0 -3.08981,0 -5.61015,-2.52034 -5.61015,-5.61015 0,-1.18017 0.39225,-2.391877 0.93301,-3.07532 l 85.13135,-143.736196 c 2.03562,-4.001027 7.43254,-4.243361 9.75896,-0.293257 z m 57.16295,133.89238 h -123.85715 l 61.93222,-106.692225 61.92493,106.692225"
       style="fill:#ed1a3a;fill-opacity:1;fill-rule:evenodd;stroke:none;stroke-width:2.42339206"
       id="path7876"
       inkscape:connector-curvature="0" />
    <path
       d="m -213.54394,3.1696297 1.62366,-2.77720499 3.76351,-0.431402 2.61726,1.52916199 -10.70172,18.3135913 -2.61727,-1.52921 9.07806,-15.5363313 -3.7635,0.431333"
       style="fill:#000000;fill-opacity:1;fill-rule:evenodd;stroke:none;stroke-width:2.42339206"
       id="path7878"
       inkscape:connector-curvature="0" />
    <path
       d="m -211.98815,22.287772 1.43222,-2.450061 12.63801,-4.912212 c 1.55339,-0.607947 2.3337,-2.365223 1.72788,-3.921018 -0.60795,-1.5606723 -2.36282,-2.3337613 -3.92109,-1.7278753 -0.63954,0.2473 -1.17529,0.70515 -1.51945,1.2940683 l -2.61727,-1.5291413 c 1.68913,-2.891149 5.40173,-3.865307 8.29288,-2.176244 2.89108,1.691535 3.86043,5.3993253 2.17137,8.2904053 -0.69553,1.187523 -1.77637,2.10597 -3.05835,2.600296 l -10.18068,3.923491 7.02787,4.105257 -1.52921,2.617263 -10.46418,-6.114229"
       style="fill:#000000;fill-opacity:1;fill-rule:evenodd;stroke:none;stroke-width:2.42339206"
       id="path7880"
       inkscape:connector-curvature="0" />
    <path
       d="m -196.61897,31.268832 19.36528,-13.251115 1.80062,1.051782 -19.36775,13.251116 z m 12.69854,-11.222702 c -0.73668,1.262606 -2.36282,1.689131 -3.62543,0.949977 -1.26741,-0.739153 -1.68906,-2.362818 -0.95238,-3.625425 l 1.33776,-2.290071 c 0.74156,-1.265011 2.36275,-1.69394 3.62776,-0.954855 1.26501,0.739154 1.68913,2.365223 0.94998,3.630234 z m -1.30864,-0.765807 1.33769,-2.287667 c 0.31737,-0.545435 0.13602,-1.240762 -0.40461,-1.558268 -0.54543,-0.317369 -1.23835,-0.133267 -1.55579,0.412168 l -1.33776,2.287735 c -0.31531,0.540627 -0.13601,1.235884 0.40736,1.553391 0.54063,0.315308 1.23836,0.133267 1.55339,-0.407359 z m -2.92501,11.011879 c 0.73908,-1.262538 2.36522,-1.689063 3.62783,-0.949909 1.26741,0.739085 1.68906,2.36275 0.94991,3.625356 l -1.33769,2.29014 c -0.73916,1.265011 -2.36035,1.69394 -3.62783,0.954786 -1.26254,-0.739153 -1.68906,-2.365223 -0.94998,-3.630234 z m 1.30863,0.765807 -1.33776,2.287667 c -0.31737,0.545435 -0.13326,1.243234 0.40461,1.558268 0.54544,0.317368 1.23836,0.133267 1.5582,-0.412168 l 1.33536,-2.287667 c 0.31737,-0.540626 0.13807,-1.235953 -0.40736,-1.55339 -0.54063,-0.317369 -1.23836,-0.133268 -1.55339,0.407358"
       style="fill:#000000;fill-opacity:1;fill-rule:evenodd;stroke:none;stroke-width:2.42339206"
       id="path7882"
       inkscape:connector-curvature="0" />
  </g>
</svg>
