<?xml version="1.0" encoding="UTF-8" standalone="no"?>
<!-- Created with Inkscape (http://www.inkscape.org/) -->

<svg
   xmlns:dc="http://purl.org/dc/elements/1.1/"
   xmlns:cc="http://creativecommons.org/ns#"
   xmlns:rdf="http://www.w3.org/1999/02/22-rdf-syntax-ns#"
   xmlns:svg="http://www.w3.org/2000/svg"
   xmlns="http://www.w3.org/2000/svg"
   xmlns:sodipodi="http://sodipodi.sourceforge.net/DTD/sodipodi-0.dtd"
   xmlns:inkscape="http://www.inkscape.org/namespaces/inkscape"
   width="447.84152mm"
   height="384.28403mm"
   viewBox="0 0 447.84152 384.28403"
   version="1.1"
   id="svg4438"
   inkscape:version="0.92.4 (5da689c313, 2019-01-14)"
   sodipodi:docname="Latvia_road_sign_112.svg">
  <defs
     id="defs4432" />
  <sodipodi:namedview
     id="base"
     pagecolor="#ffffff"
     bordercolor="#666666"
     borderopacity="1.0"
     inkscape:pageopacity="0.0"
     inkscape:pageshadow="2"
     inkscape:zoom="0.35"
     inkscape:cx="473.18045"
     inkscape:cy="749.6953"
     inkscape:document-units="mm"
     inkscape:current-layer="layer1"
     showgrid="false"
     inkscape:window-width="1920"
     inkscape:window-height="1027"
     inkscape:window-x="-8"
     inkscape:window-y="-8"
     inkscape:window-maximized="1" />
  <metadata
     id="metadata4435">
    <rdf:RDF>
      <cc:Work
         rdf:about="">
        <dc:format>image/svg+xml</dc:format>
        <dc:type
           rdf:resource="http://purl.org/dc/dcmitype/StillImage" />
        <dc:title></dc:title>
      </cc:Work>
    </rdf:RDF>
  </metadata>
  <g
     inkscape:label="Layer 1"
     inkscape:groupmode="layer"
     id="layer1"
     transform="translate(-120.50351,399.95093)">
    <path
       d="m 363.91183,-387.95522 199.4603,336.791697 c 9.54497,14.092221 -1.66962,33.393701 -15.42786,33.499403 l -403.94069,0.60582 c 9.15528,-0.09467 -30.85033,1.614096 -20.34246,-30.81678 l 199.48827,-338.41681 c 8.63781,-15.96222 31.99102,-16.17365 40.76244,-1.66411 z"
       style="fill:#ffffff;fill-opacity:1;stroke:#000000;stroke-width:2.78280425;stroke-linecap:butt;stroke-linejoin:miter;stroke-miterlimit:22.9260006;stroke-dasharray:none;stroke-opacity:1"
       id="path5569"
       inkscape:connector-curvature="0" />
    <path
       d="m 234.97343,-97.30247 v -24.37174 c 24.05446,-4.79748 27.27699,-34.41207 54.10876,-34.41207 12.87884,0 23.61493,5.87171 30.68329,17.04733 5.74927,8.96627 14.71541,13.63581 24.75022,13.51337 11.23699,0 19.13457,-5.49322 24.87833,-13.5746 7.57477,-10.48002 15.33873,-17.04733 29.16923,-17.04733 13.50786,0.44017 23.92667,6.06088 31.12298,17.17544 6.25019,9.65635 13.83049,13.50772 24.12136,17.29786 v 24.305023 l -218.83417,0.06316"
       style="fill:#000000;fill-opacity:1;fill-rule:evenodd;stroke:none;stroke-width:5.5656085"
       id="path5565"
       inkscape:connector-curvature="0" />
    <path
       d="m 355.35197,-379.91298 196.03742,330.781004 c 1.24162,1.569765 2.14277,4.352261 2.14277,7.062669 0,7.096126 -5.78825,12.884376 -12.88438,12.884376 -0.14193,0 -0.35655,0 -0.50643,0 h -391.6798 c 0.0632,0 -0.14193,0 -0.295,0 -7.09613,0 -12.8787,-5.78825 -12.8787,-12.884376 0,-2.710408 0.89609,-5.493226 2.14277,-7.062669 L 332.93921,-379.23947 c 4.67521,-9.18888 17.06972,-9.74533 22.41276,-0.67367 z M 486.63351,-72.412934 H 202.18631 L 344.41552,-317.44456 486.63351,-72.412934"
       style="fill:#ed1a3a;fill-opacity:1;fill-rule:evenodd;stroke:none;stroke-width:5.5656085"
       id="path5567"
       inkscape:connector-curvature="0" />
  </g>
</svg>
