<?xml version="1.0" encoding="UTF-8" standalone="no"?>
<!-- Created with Inkscape (http://www.inkscape.org/) -->

<svg
   xmlns:dc="http://purl.org/dc/elements/1.1/"
   xmlns:cc="http://creativecommons.org/ns#"
   xmlns:rdf="http://www.w3.org/1999/02/22-rdf-syntax-ns#"
   xmlns:svg="http://www.w3.org/2000/svg"
   xmlns="http://www.w3.org/2000/svg"
   xmlns:sodipodi="http://sodipodi.sourceforge.net/DTD/sodipodi-0.dtd"
   xmlns:inkscape="http://www.inkscape.org/namespaces/inkscape"
   width="195mm"
   height="167.32629mm"
   viewBox="0 0 195 167.3263"
   version="1.1"
   id="svg3845"
   inkscape:version="0.92.3 (2405546, 2018-03-11)"
   sodipodi:docname="Latvia_road_sign_123.svg">
  <defs
     id="defs3839" />
  <sodipodi:namedview
     id="base"
     pagecolor="#ffffff"
     bordercolor="#666666"
     borderopacity="1.0"
     inkscape:pageopacity="0.0"
     inkscape:pageshadow="2"
     inkscape:zoom="0.35"
     inkscape:cx="-456.81004"
     inkscape:cy="-349.721"
     inkscape:document-units="mm"
     inkscape:current-layer="layer1"
     showgrid="false"
     inkscape:window-width="1920"
     inkscape:window-height="1027"
     inkscape:window-x="-8"
     inkscape:window-y="-8"
     inkscape:window-maximized="1" />
  <metadata
     id="metadata3842">
    <rdf:RDF>
      <cc:Work
         rdf:about="">
        <dc:format>image/svg+xml</dc:format>
        <dc:type
           rdf:resource="http://purl.org/dc/dcmitype/StillImage" />
        <dc:title></dc:title>
      </cc:Work>
    </rdf:RDF>
  </metadata>
  <g
     inkscape:label="Layer 1"
     inkscape:groupmode="layer"
     id="layer1"
     transform="translate(413.32081,783.69062)">
    <path
       d="m -307.33538,-778.468 86.84956,146.64674 c 4.1561,6.13602 -0.72942,14.54038 -6.71763,14.58636 l -175.88496,0.26472 c 3.98645,-0.0414 -13.43292,0.7028 -8.85748,-13.41831 l 86.85921,-147.35678 c 3.76351,-6.94788 13.93209,-7.03991 17.7513,-0.72218 z"
       style="fill:#ffffff;fill-opacity:1;stroke:#000000;stroke-width:1.21169591;stroke-linecap:butt;stroke-linejoin:miter;stroke-miterlimit:22.9260006;stroke-dasharray:none;stroke-opacity:1"
       id="path9868"
       inkscape:connector-curvature="0" />
    <path
       d="m -315.82695,-671.52613 c 6.22329,0 11.27363,5.04799 11.27363,11.27363 0,6.2257 -5.05034,11.27363 -11.27363,11.27363 -6.22571,0 -11.27356,-5.04793 -11.27356,-11.27363 0,-6.22564 5.04785,-11.27363 11.27356,-11.27363"
       style="fill:#00a650;fill-opacity:1;fill-rule:evenodd;stroke:none;stroke-width:2.42339182"
       id="path9856"
       inkscape:connector-curvature="0" />
    <path
       d="m -315.82695,-671.52613 c 6.22329,0 11.27363,5.04799 11.27363,11.27363 0,6.2257 -5.05034,11.27363 -11.27363,11.27363 -6.22571,0 -11.27356,-5.04793 -11.27356,-11.27363 0,-6.22564 5.04785,-11.27363 11.27356,-11.27363"
       style="fill:#71bf44;fill-opacity:1;fill-rule:evenodd;stroke:none;stroke-width:2.42339182"
       id="path9858"
       inkscape:connector-curvature="0" />
    <path
       d="m -315.82695,-696.26412 c 6.22329,0 11.27363,5.04793 11.27363,11.27363 0,6.2257 -5.05034,11.27363 -11.27363,11.27363 -6.22571,0 -11.27356,-5.04793 -11.27356,-11.27363 0,-6.2257 5.04785,-11.27363 11.27356,-11.27363"
       style="fill:#ffdd2e;fill-opacity:1;fill-rule:evenodd;stroke:none;stroke-width:2.42339182"
       id="path9860"
       inkscape:connector-curvature="0" />
    <path
       d="m -315.82695,-721.52071 c 6.22329,0 11.27363,5.04792 11.27363,11.27363 0,6.2257 -5.05034,11.27363 -11.27363,11.27363 -6.22571,0 -11.27356,-5.04793 -11.27356,-11.27363 0,-6.22571 5.04785,-11.27363 11.27356,-11.27363"
       style="fill:#ec008c;fill-opacity:1;fill-rule:evenodd;stroke:none;stroke-width:2.42339182"
       id="path9862"
       inkscape:connector-curvature="0" />
    <path
       d="m -315.82695,-721.52071 c 6.22329,0 11.27363,5.04792 11.27363,11.27363 0,6.2257 -5.05034,11.27363 -11.27363,11.27363 -6.22571,0 -11.27356,-5.04793 -11.27356,-11.27363 0,-6.22571 5.04785,-11.27363 11.27356,-11.27363"
       style="fill:#ed1a3a;fill-opacity:1;fill-rule:evenodd;stroke:none;stroke-width:2.42339182"
       id="path9864"
       inkscape:connector-curvature="0" />
    <path
       d="m -311.02864,-775.4945 85.96014,145.04487 c 0.54529,0.69067 0.94029,1.90726 0.94029,3.0971 0,3.11164 -2.53968,5.64891 -5.64884,5.64891 -0.0689,0 -0.15718,0 -0.22336,0 H -401.7487 c 0.0276,0 -0.0689,0 -0.12822,0 -3.11165,0 -5.64898,-2.53727 -5.64898,-5.64891 0,-1.18984 0.39224,-2.40643 0.93787,-3.0971 l 85.7299,-144.7492 c 2.05265,-4.03009 7.48586,-4.27247 9.82928,-0.29505 z m 57.56522,134.83754 h -124.72955 l 62.36843,-107.44351 62.36112,107.44351"
       style="fill:#ed1a3a;fill-opacity:1;fill-rule:evenodd;stroke:none;stroke-width:2.42339182"
       id="path9866"
       inkscape:connector-curvature="0" />
  </g>
</svg>
