<?xml version="1.0" encoding="UTF-8" standalone="no"?>
<!-- Created with Inkscape (http://www.inkscape.org/) -->

<svg
   xmlns:dc="http://purl.org/dc/elements/1.1/"
   xmlns:cc="http://creativecommons.org/ns#"
   xmlns:rdf="http://www.w3.org/1999/02/22-rdf-syntax-ns#"
   xmlns:svg="http://www.w3.org/2000/svg"
   xmlns="http://www.w3.org/2000/svg"
   xmlns:sodipodi="http://sodipodi.sourceforge.net/DTD/sodipodi-0.dtd"
   xmlns:inkscape="http://www.inkscape.org/namespaces/inkscape"
   width="447mm"
   height="383.5571mm"
   viewBox="0 0 447 383.55711"
   version="1.1"
   id="svg4438"
   inkscape:version="0.92.4 (5da689c313, 2019-01-14)"
   sodipodi:docname="Latvia_road_sign_115.svg">
  <defs
     id="defs4432" />
  <sodipodi:namedview
     id="base"
     pagecolor="#ffffff"
     bordercolor="#666666"
     borderopacity="1.0"
     inkscape:pageopacity="0.0"
     inkscape:pageshadow="2"
     inkscape:zoom="0.0875"
     inkscape:cx="6317.0269"
     inkscape:cy="-310.57819"
     inkscape:document-units="mm"
     inkscape:current-layer="layer1"
     showgrid="false"
     inkscape:window-width="1920"
     inkscape:window-height="1027"
     inkscape:window-x="-8"
     inkscape:window-y="-8"
     inkscape:window-maximized="1" />
  <metadata
     id="metadata4435">
    <rdf:RDF>
      <cc:Work
         rdf:about="">
        <dc:format>image/svg+xml</dc:format>
        <dc:type
           rdf:resource="http://purl.org/dc/dcmitype/StillImage" />
        <dc:title></dc:title>
      </cc:Work>
    </rdf:RDF>
  </metadata>
  <g
     inkscape:label="Layer 1"
     inkscape:groupmode="layer"
     id="layer1"
     transform="translate(167.00491,619.71124)">
    <path
       d="m 75.945826,-607.73811 199.085624,336.15326 c 9.52702,14.06559 -1.66665,33.33647 -15.39888,33.44197 l -403.18174,0.59996 c 9.13823,-0.0945 -30.79225,1.61657 -20.30403,-30.75335 L 35.259977,-606.08264 c 8.621576,-15.92671 31.931055,-16.13771 40.685849,-1.65547 z"
       style="fill:#ffffff;fill-opacity:1;stroke:#000000;stroke-width:2.77757478;stroke-linecap:butt;stroke-linejoin:miter;stroke-miterlimit:22.9260006;stroke-dasharray:none;stroke-opacity:1"
       id="path5587"
       inkscape:connector-curvature="0" />
    <path
       d="m 67.40204,-599.71097 195.66902,330.1592 c 1.23928,1.56682 2.13875,4.33858 2.13875,7.04957 0,7.08279 -5.77722,12.86016 -12.86017,12.86016 -0.14172,0 -0.35588,0 -0.50547,0 h -390.94375 c 0.063,0 -0.14172,0 -0.29447,0 -7.08294,0 -12.85465,-5.77737 -12.85465,-12.86016 0,-2.71099 0.89443,-5.48291 2.13323,-7.04957 L 45.03139,-599.04425 c 4.666273,-9.1661 17.037654,-9.72717 22.370493,-0.66609 z m 131.03484,306.922 H -85.475619 L 56.486144,-537.35994 198.43688,-292.78897"
       style="fill:#ed1a3a;fill-opacity:1;fill-rule:evenodd;stroke:none;stroke-width:5.55514956"
       id="path5583"
       inkscape:connector-curvature="0" />
    <path
       d="m 114.332,-331.69164 c 2.01088,-5.03853 -1.93876,-5.7273 -5.39961,-6.86611 -18.065291,-6.02177 -32.080961,-8.81605 -48.363079,-14.55453 -5.027507,-2.49982 -6.85509,-4.50519 -3.510925,-8.89384 5.338508,-4.62187 10.804723,-8.07721 17.265354,-11.19918 3.39424,1.244 6.721714,2.4499 10.082571,3.6276 -3.183075,2.28315 -6.788324,4.4052 -8.910373,6.70503 -2.872074,3.21094 -3.099774,4.54974 4.160798,7.78274 13.004563,5.61628 38.691664,8.40489 51.662844,13.2658 2.72767,2.97191 2.28314,6.00507 0.86608,10.78803 -6.7551,10.24366 -12.59908,19.53196 -21.16523,27.70916 l -25.35925,-0.0158 c 8.032799,-8.81605 22.37616,-18.25977 28.67019,-28.34801 z m -131.895883,28.34801 c 14.7378215,-10.24933 34.741873,-18.63754 45.463295,-32.18096 2.772081,-3.65532 1.710899,-7.04956 -1.160545,-10.51041 -13.137939,-8.71055 -28.5201229,-11.58247 -42.652477,-18.74871 -4.194182,-4.45511 -0.749552,-6.18286 2.433208,-9.9714 5.0717559,-4.23859 9.5437129,-8.48269 15.6155531,-11.0603 3.394083,0.82829 6.2494651,1.79436 9.7048029,2.57761 -4.1607981,4.43857 -8.5327625,7.63834 -11.96022879,12.01015 -1.87214681,1.77766 -2.54422371,3.31094 2.20535079,5.57738 11.826853,6.22176 24.376016,11.26029 36.38632,17.15434 3.266376,1.91089 5.777216,3.83311 7.604957,5.62731 3.099774,3.52762 1.404622,7.34403 -1.01095,10.78819 -10.47703,13.77112 -21.703927,20.31521 -35.8806877,28.7368 z m 105.531194,-70.15047 -8.093898,-2.27212 -2.20535,-3.36086 2.216373,-8.17153 -61.434413,-17.34881 -2.333058,8.14382 -3.199766,1.81105 -9.4771038,-2.6943 -1.8442748,-3.18307 6.0050735,-20.67078 89.5156701,25.64821 -5.988382,20.36513 z m -78.89991,-51.58521 c 3.916407,-15.37101 15.176687,-31.33094 27.920167,-39.13037 19.026485,3.13866 37.597255,8.35498 56.379349,15.99332 6.427247,15.97647 10.032493,31.6421 4.96074,48.54637 z M 21.405398,-443.078 c 4.516363,-7.45489 9.888255,-12.6934 16.509976,-17.50974 18.243078,3.96632 35.508431,8.58819 52.612852,15.04882 3.521948,7.74951 5.205132,15.66563 6.099555,23.74283 -24.753784,-9.87156 -49.263176,-16.95435 -75.222383,-21.28191"
       style="fill:#000000;fill-opacity:1;fill-rule:evenodd;stroke:none;stroke-width:5.55514956"
       id="path5585"
       inkscape:connector-curvature="0" />
  </g>
</svg>
