<?xml version="1.0" encoding="UTF-8" standalone="no"?>
<!-- Created with Inkscape (http://www.inkscape.org/) -->

<svg
   xmlns:dc="http://purl.org/dc/elements/1.1/"
   xmlns:cc="http://creativecommons.org/ns#"
   xmlns:rdf="http://www.w3.org/1999/02/22-rdf-syntax-ns#"
   xmlns:svg="http://www.w3.org/2000/svg"
   xmlns="http://www.w3.org/2000/svg"
   xmlns:sodipodi="http://sodipodi.sourceforge.net/DTD/sodipodi-0.dtd"
   xmlns:inkscape="http://www.inkscape.org/namespaces/inkscape"
   width="195mm"
   height="167.32555mm"
   viewBox="0 0 195 167.32554"
   version="1.1"
   id="svg6931"
   inkscape:version="0.92.3 (2405546, 2018-03-11)"
   sodipodi:docname="Latvia road sign 107.svg">
  <defs
     id="defs6925" />
  <sodipodi:namedview
     id="base"
     pagecolor="#ffffff"
     bordercolor="#666666"
     borderopacity="1.0"
     inkscape:pageopacity="0.0"
     inkscape:pageshadow="2"
     inkscape:zoom="0.49497475"
     inkscape:cx="1241.4666"
     inkscape:cy="14.336048"
     inkscape:document-units="mm"
     inkscape:current-layer="layer1"
     showgrid="false"
     inkscape:window-width="1920"
     inkscape:window-height="1027"
     inkscape:window-x="-8"
     inkscape:window-y="-8"
     inkscape:window-maximized="1" />
  <metadata
     id="metadata6928">
    <rdf:RDF>
      <cc:Work
         rdf:about="">
        <dc:format>image/svg+xml</dc:format>
        <dc:type
           rdf:resource="http://purl.org/dc/dcmitype/StillImage" />
        <dc:title></dc:title>
      </cc:Work>
    </rdf:RDF>
  </metadata>
  <g
     inkscape:label="Layer 1"
     inkscape:groupmode="layer"
     id="layer1"
     transform="translate(345.48031,14.699145)">
    <path
       d="m -239.49485,-9.4746073 86.84952,146.6442973 c 4.15609,6.136 -0.72947,14.54278 -6.71765,14.5864 l -175.88496,0.26447 c 3.98648,-0.0412 -13.43281,0.70282 -8.85748,-13.41831 l 86.8592,-147.3543273 c 3.76357,-6.9503107 13.93209,-7.0423617 17.75137,-0.722186 z"
       style="fill:#ffffff;fill-opacity:1;stroke:#000000;stroke-width:1.21169579;stroke-linecap:butt;stroke-linejoin:miter;stroke-miterlimit:22.9260006;stroke-dasharray:none;stroke-opacity:1"
       id="path7856"
       inkscape:connector-curvature="0" />
    <path
       d="m -273.17271,117.83588 c 0.0275,-11.74863 0.0275,0.0824 0,-36.1352 l 10.63378,-10.774403 v -17.17701 h 10.6072 l -0.0275,21.798437 -10.57807,10.745276 v 31.5429 h -10.63385"
       style="fill:#000000;fill-opacity:1;fill-rule:evenodd;stroke:none;stroke-width:2.42339158"
       id="path7850"
       inkscape:connector-curvature="0" />
    <path
       d="M -233.41215,117.83588 V 86.37782 L -244.15262,75.547704 V 53.749267 h 10.74047 v 17.17701 l 10.68715,10.745343 -0.0275,36.16426 h -10.6605"
       style="fill:#000000;fill-opacity:1;fill-rule:evenodd;stroke:none;stroke-width:2.42339158"
       id="path7852"
       inkscape:connector-curvature="0" />
    <path
       d="m -243.22201,-5.9752373 85.35912,144.0319073 c 0.54062,0.68077 0.93301,1.89268 0.93301,3.07285 0,3.08981 -2.52034,5.61015 -5.61015,5.61015 -0.0618,0 -0.15731,0 -0.22051,0 h -170.54623 c 0.0275,0 -0.0687,0 -0.12846,0 -3.08981,0 -5.61015,-2.52034 -5.61015,-5.61015 0,-1.18017 0.39294,-2.39188 0.93301,-3.07285 l 85.13133,-143.7386493 c 2.03563,-4.001047 7.43255,-4.243333 9.75903,-0.293326 z M -186.05906,127.91722 H -309.9162 l 61.93221,-106.692291 61.92493,106.692291"
       style="fill:#ed1a3a;fill-opacity:1;fill-rule:evenodd;stroke:none;stroke-width:2.42339158"
       id="path7854"
       inkscape:connector-curvature="0" />
  </g>
</svg>
