<?xml version="1.0" encoding="UTF-8" standalone="no"?>
<!-- Created with Inkscape (http://www.inkscape.org/) -->

<svg
   xmlns:dc="http://purl.org/dc/elements/1.1/"
   xmlns:cc="http://creativecommons.org/ns#"
   xmlns:rdf="http://www.w3.org/1999/02/22-rdf-syntax-ns#"
   xmlns:svg="http://www.w3.org/2000/svg"
   xmlns="http://www.w3.org/2000/svg"
   xmlns:sodipodi="http://sodipodi.sourceforge.net/DTD/sodipodi-0.dtd"
   xmlns:inkscape="http://www.inkscape.org/namespaces/inkscape"
   width="226.77003mm"
   height="194.58777mm"
   viewBox="0 0 226.77003 194.58777"
   version="1.1"
   id="svg3845"
   inkscape:version="0.92.3 (2405546, 2018-03-11)"
   sodipodi:docname="Latvia_road_sign_120.svg">
  <defs
     id="defs3839" />
  <sodipodi:namedview
     id="base"
     pagecolor="#ffffff"
     bordercolor="#666666"
     borderopacity="1.0"
     inkscape:pageopacity="0.0"
     inkscape:pageshadow="2"
     inkscape:zoom="0.7"
     inkscape:cx="609.12488"
     inkscape:cy="280.27073"
     inkscape:document-units="mm"
     inkscape:current-layer="layer1"
     showgrid="false"
     inkscape:window-width="1600"
     inkscape:window-height="838"
     inkscape:window-x="-8"
     inkscape:window-y="-8"
     inkscape:window-maximized="1" />
  <metadata
     id="metadata3842">
    <rdf:RDF>
      <cc:Work
         rdf:about="">
        <dc:format>image/svg+xml</dc:format>
        <dc:type
           rdf:resource="http://purl.org/dc/dcmitype/StillImage" />
        <dc:title></dc:title>
      </cc:Work>
    </rdf:RDF>
  </metadata>
  <g
     inkscape:label="Layer 1"
     inkscape:groupmode="layer"
     id="layer1"
     transform="translate(-41.15391,449.89023)">
    <path
       d="m 164.40672,-443.81645 100.99949,170.53899 c 4.83321,7.13571 -0.84832,16.90935 -7.81211,16.96287 l -204.540701,0.30757 c 4.635974,-0.0479 -15.621421,0.81732 -10.300578,-15.60449 l 101.010489,-171.3647 c 4.37666,-8.07989 16.20196,-8.18693 20.64341,-0.83985 z"
       style="fill:#ffffff;fill-opacity:1;stroke:#000000;stroke-width:1.40911043;stroke-linecap:butt;stroke-linejoin:miter;stroke-miterlimit:22.9260006;stroke-dasharray:none;stroke-opacity:1"
       id="path9842"
       inkscape:connector-curvature="0" />
    <path
       d="m 160.07232,-439.74415 99.26618,167.49532 c 0.62871,0.79487 1.08502,2.20103 1.08502,3.57635 0,3.59322 -2.93088,6.52418 -6.52418,6.52418 -0.0719,0 -0.18294,0 -0.25644,0 H 55.310751 c 0.03198,0 -0.07989,0 -0.149389,0 -3.593296,0 -6.524179,-2.93096 -6.524179,-6.52418 0,-1.37532 0.456157,-2.78157 1.08502,-3.57635 l 99.001107,-167.15708 c 2.36728,-4.65012 8.64349,-4.93188 11.34893,-0.33792 z m 66.47617,155.70677 H 82.512132 l 72.022368,-124.07505 72.01399,124.07505"
       style="fill:#ed1a3a;fill-opacity:1;fill-rule:evenodd;stroke:none;stroke-width:2.81822085"
       id="path9838"
       inkscape:connector-curvature="0" />
    <path
       d="m 91.338751,-288.80582 15.900409,-27.88911 10.65568,0.032 -12.18598,27.85532 z m 26.116469,0 9.19016,-27.93146 6.72149,-0.024 -6.93001,16.50066 c 0.13262,3.56788 2.25177,7.42601 7.97277,6.03383 l -1.02582,5.4223 z m 28.46119,-0.0159 2.18689,-27.92859 h 11.37441 l 1.67963,27.8976 z m 28.11457,0.0159 -1.00889,-5.33211 c 5.50395,0.82859 7.40061,-3.70034 7.04272,-7.48241 l -6.15781,-15.14227 h 5.91824 l 8.66042,27.95679 z m 27.38464,0 -11.69844,-27.88911 h 11.67311 l 15.31418,27.88911 z m -31.44855,-9.60173 -12.24509,-30.67069 6.4311,-7.49367 13.9756,35.16582 c 0.61113,2.10517 -0.14939,4.1315 -2.44341,5.49837 -1.32452,0.61992 -4.58526,0.56319 -5.7182,-2.49983 z m -39.0746,2.49983 c -2.06859,-1.12737 -2.81537,-3.0043 -2.13618,-5.51251 l 9.18177,-21.49172 14.74211,-17.25318 -3.01269,-16.48092 -14.26302,16.74582 c -1.58104,1.58103 -3.57636,1.46552 -5.10947,0.23407 -1.19206,-0.92717 -1.54716,-3.20426 -0.48731,-4.66131 l 19.59515,-23.0305 10.89516,-1.86288 18.01978,11.93802 0.0159,14.60966 c -0.18294,1.829 -1.67122,3.13954 -3.30291,3.22965 -1.99532,0.0159 -3.29452,-1.15827 -3.57636,-3.15352 v -10.56277 l -6.28181,-4.10608 -1.90512,18.60869 -18.32687,21.59886 -8.13901,18.9638 c -0.8201,1.8234 -3.08034,3.40444 -5.90984,2.18697 z m 23.73222,-74.60401 c -3.59881,0.15817 -6.69609,-2.69138 -7.02578,-6.2254 -0.13502,-3.43544 2.68011,-7.30203 7.05118,-6.93847 4.28089,0.21729 6.31847,3.87506 6.16061,6.96946 -0.0479,3.09721 -2.8577,6.03664 -6.18601,6.19441"
       style="fill:#000000;fill-opacity:1;fill-rule:evenodd;stroke:none;stroke-width:2.81822085"
       id="path9840"
       inkscape:connector-curvature="0" />
  </g>
</svg>
