<?xml version="1.0" encoding="UTF-8" standalone="no"?>
<!-- Created with Inkscape (http://www.inkscape.org/) -->

<svg
   xmlns:dc="http://purl.org/dc/elements/1.1/"
   xmlns:cc="http://creativecommons.org/ns#"
   xmlns:rdf="http://www.w3.org/1999/02/22-rdf-syntax-ns#"
   xmlns:svg="http://www.w3.org/2000/svg"
   xmlns="http://www.w3.org/2000/svg"
   xmlns:sodipodi="http://sodipodi.sourceforge.net/DTD/sodipodi-0.dtd"
   xmlns:inkscape="http://www.inkscape.org/namespaces/inkscape"
   width="195mm"
   height="167.32632mm"
   viewBox="0 0 195 167.32632"
   version="1.1"
   id="svg6931"
   inkscape:version="0.92.3 (2405546, 2018-03-11)"
   sodipodi:docname="Latvia road sign 111.svg">
  <defs
     id="defs6925" />
  <sodipodi:namedview
     id="base"
     pagecolor="#ffffff"
     bordercolor="#666666"
     borderopacity="1.0"
     inkscape:pageopacity="0.0"
     inkscape:pageshadow="2"
     inkscape:zoom="0.49497475"
     inkscape:cx="18.277601"
     inkscape:cy="226.0322"
     inkscape:document-units="mm"
     inkscape:current-layer="layer1"
     showgrid="false"
     inkscape:window-width="1920"
     inkscape:window-height="1027"
     inkscape:window-x="-8"
     inkscape:window-y="-8"
     inkscape:window-maximized="1" />
  <metadata
     id="metadata6928">
    <rdf:RDF>
      <cc:Work
         rdf:about="">
        <dc:format>image/svg+xml</dc:format>
        <dc:type
           rdf:resource="http://purl.org/dc/dcmitype/StillImage" />
        <dc:title></dc:title>
      </cc:Work>
    </rdf:RDF>
  </metadata>
  <g
     inkscape:label="Layer 1"
     inkscape:groupmode="layer"
     id="layer1"
     transform="translate(21.844888,-62.692915)">
    <path
       d="m 84.14052,67.915809 86.84959,146.646711 c 4.15609,6.13607 -0.72947,14.54037 -6.71764,14.5864 l -175.884973,0.26447 c 3.9864836,-0.0412 -13.432881,0.70274 -8.857479,-13.41832 L 66.389223,68.63827 c 3.763501,-6.947838 13.932084,-7.039957 17.751297,-0.722186 z"
       style="fill:#ffffff;fill-opacity:1;stroke:#000000;stroke-width:1.21169591;stroke-linecap:butt;stroke-linejoin:miter;stroke-miterlimit:22.9260006;stroke-dasharray:none;stroke-opacity:1"
       id="path7896"
       inkscape:connector-curvature="0" />
    <path
       d="m 18.738066,203.13139 c 27.709055,-17.48716 56.763081,-33.35554 85.213694,-49.60923 l 28.2301,49.63829 -113.443794,-0.0275"
       style="fill:#000000;fill-opacity:1;fill-rule:evenodd;stroke:none;stroke-width:2.42339182"
       id="path7886"
       inkscape:connector-curvature="0" />
    <path
       d="M 80.413358,71.417653 165.77248,215.4495 c 0.54063,0.68351 0.93301,1.89267 0.93301,3.07285 0,3.08981 -2.52027,5.61014 -5.61015,5.61014 -0.0618,0 -0.15731,0 -0.22051,0 H -9.6714004 c 0.027478,0 -0.068695,0 -0.1284588,0 -3.0898818,0 -5.6101488,-2.52033 -5.6101488,-5.61014 0,-1.18018 0.392933,-2.38948 0.93301,-3.07285 L 70.654332,71.710841 c 2.035626,-4.000978 7.430074,-4.243332 9.758957,-0.293326 z M 137.57631,205.31004 H 13.719171 L 75.651382,98.617751 137.57631,205.31004"
       style="fill:#ed1a3a;fill-opacity:1;fill-rule:evenodd;stroke:none;stroke-width:2.42339182"
       id="path7888"
       inkscape:connector-curvature="0" />
    <path
       d="m 50.644429,159.73332 -1.650319,-2.82087 1.495206,-3.54299 2.656076,-1.55339 10.864045,18.59472 -2.656076,1.55092 -9.21613,-15.77138 -1.492802,3.54299"
       style="fill:#000000;fill-opacity:1;fill-rule:evenodd;stroke:none;stroke-width:2.42339182"
       id="path7890"
       inkscape:connector-curvature="0" />
    <path
       d="m 65.320473,162.7407 -4.851623,-8.30249 c -1.715782,-2.93477 -0.726995,-6.70315 2.210111,-8.41646 2.934769,-1.71579 6.69827,-0.72459 8.414055,2.21011 l 4.851623,8.30256 c 1.713311,2.9323 0.729467,6.70068 -2.205302,8.41646 -2.934701,1.71572 -6.705484,0.72212 -8.418864,-2.21018 z m 2.65848,-1.55092 c 0.857858,1.46856 2.740845,1.96048 4.209398,1.10503 1.466148,-0.85786 1.960543,-2.74325 1.102685,-4.2094 l -4.851623,-8.30497 c -0.857927,-1.46615 -2.740845,-1.96054 -4.209466,-1.10269 -1.466149,0.85793 -1.960543,2.74092 -1.105021,4.20947 l 4.854027,8.30256"
       style="fill:#000000;fill-opacity:1;fill-rule:evenodd;stroke:none;stroke-width:2.42339182"
       id="path7892"
       inkscape:connector-curvature="0" />
    <path
       d="m 83.929696,158.76878 -2.067157,-23.73226 1.827276,-1.06875 2.067157,23.73473 z m -3.596298,-16.82564 c 0.748839,1.28198 0.315308,2.93237 -0.966945,3.68114 -1.286787,0.75131 -2.932297,0.31737 -3.681136,-0.96447 l -1.357062,-2.32408 c -0.751244,-1.28678 -0.322177,-2.9347 0.962068,-3.68594 1.281978,-0.74884 2.932296,-0.31531 3.685945,0.96935 z m -1.330408,0.77797 -1.35713,-2.32407 c -0.322178,-0.55231 -1.029938,-0.73909 -1.57764,-0.41904 -0.552304,0.32218 -0.734276,1.02994 -0.412167,1.58252 l 1.357061,2.3216 c 0.320117,0.55024 1.025129,0.73668 1.57764,0.41423 0.547495,-0.32012 0.734276,-1.02754 0.412167,-1.57517 z m 8.283123,8.0747 c -0.74884,-1.28197 -0.315308,-2.93229 0.966945,-3.68113 1.284382,-0.75365 2.932297,-0.31737 3.681136,0.96454 l 1.357061,2.324 c 0.751244,1.28439 0.322178,2.9323 -0.962067,3.68602 -1.281978,0.74884 -2.932297,0.31531 -3.683541,-0.97182 z m 1.328004,-0.77789 1.359534,2.324 c 0.322177,0.55231 1.029938,0.73916 1.57764,0.41904 0.552304,-0.32493 0.734276,-1.02994 0.412167,-1.58245 l -1.357061,-2.324 c -0.320117,-0.5475 -1.02513,-0.73435 -1.57764,-0.41217 -0.547496,0.32011 -0.734276,1.02753 -0.414228,1.57523"
       style="fill:#000000;fill-opacity:1;fill-rule:evenodd;stroke:none;stroke-width:2.42339182"
       id="path7894"
       inkscape:connector-curvature="0" />
  </g>
</svg>
