<?xml version="1.0" encoding="UTF-8" standalone="no"?>
<!-- Created with Inkscape (http://www.inkscape.org/) -->

<svg
   xmlns:dc="http://purl.org/dc/elements/1.1/"
   xmlns:cc="http://creativecommons.org/ns#"
   xmlns:rdf="http://www.w3.org/1999/02/22-rdf-syntax-ns#"
   xmlns:svg="http://www.w3.org/2000/svg"
   xmlns="http://www.w3.org/2000/svg"
   xmlns:sodipodi="http://sodipodi.sourceforge.net/DTD/sodipodi-0.dtd"
   xmlns:inkscape="http://www.inkscape.org/namespaces/inkscape"
   width="195mm"
   height="167.32054mm"
   viewBox="0 0 195 167.32054"
   version="1.1"
   id="svg3845"
   inkscape:version="0.92.4 (5da689c313, 2019-01-14)"
   sodipodi:docname="Latvia_road_sign_133.svg">
  <defs
     id="defs3839" />
  <sodipodi:namedview
     id="base"
     pagecolor="#ffffff"
     bordercolor="#666666"
     borderopacity="1.0"
     inkscape:pageopacity="0.0"
     inkscape:pageshadow="2"
     inkscape:zoom="0.49497475"
     inkscape:cx="-403.36635"
     inkscape:cy="130.84123"
     inkscape:document-units="mm"
     inkscape:current-layer="layer1"
     showgrid="false"
     inkscape:window-width="1920"
     inkscape:window-height="1027"
     inkscape:window-x="-8"
     inkscape:window-y="-8"
     inkscape:window-maximized="1"
     showguides="false" />
  <metadata
     id="metadata3842">
    <rdf:RDF>
      <cc:Work
         rdf:about="">
        <dc:format>image/svg+xml</dc:format>
        <dc:type
           rdf:resource="http://purl.org/dc/dcmitype/StillImage" />
        <dc:title></dc:title>
      </cc:Work>
    </rdf:RDF>
  </metadata>
  <g
     inkscape:label="Layer 1"
     inkscape:groupmode="layer"
     id="layer1"
     transform="translate(393.61962,690.44274)">
    <path
       inkscape:connector-curvature="0"
       style="fill:#ffffff;fill-opacity:1;stroke:#000000;stroke-width:1.21166027;stroke-linecap:butt;stroke-linejoin:miter;stroke-miterlimit:22.9260006;stroke-opacity:1"
       d="m -287.63587,-685.21978 86.85144,146.63932 c 4.15563,6.13404 -0.7289,14.53994 -6.72095,14.58727 l -175.88008,0.26516 c 3.98526,-0.0412 -13.43235,0.70052 -8.86024,-13.41346 l 86.86091,-147.35873 c 3.76751,-6.94812 13.93408,-7.03329 17.74892,-0.71942 z m 0,0"
       id="path5378" />
    <path
       inkscape:connector-curvature="0"
       style="fill:#eb1938;fill-opacity:1;fill-rule:evenodd;stroke:none;stroke-width:2.42332053"
       d="m -291.35605,-681.71728 85.35579,144.02666 c 0.53924,0.68143 0.9277,1.89324 0.9277,3.07653 0,3.08595 -2.518,5.60394 -5.60394,5.60394 -0.0687,0 -0.16074,0 -0.22737,0 h -170.54117 c 0.0275,0 -0.055,0 -0.12296,0 -3.09542,0 -5.61341,-2.51799 -5.61341,-5.60394 0,-1.18329 0.38811,-2.39496 0.9371,-3.07653 l 85.12863,-143.7332 c 2.03522,-4.00416 7.43088,-4.25029 9.75956,-0.29332 z m 57.15626,133.88846 h -123.8544 l 61.93672,-106.69232 61.91768,106.69232"
       id="path5374" />
    <path
       inkscape:connector-curvature="0"
       style="fill:#000000;fill-opacity:1;fill-rule:evenodd;stroke:none;stroke-width:2.42332053"
       d="m -269.42306,-566.4107 v -5.12117 H -323.2 v 5.12117 h -10.2707 v -4.34495 h 2.76405 l 5.05495,-5.10227 5.78377,0.007 54.74241,-0.007 0.0275,9.47559 z m -55.94467,-10.99961 -3.05757,-6.9387 3.33207,-7.47822 h 4.31657 v -5.64179 h 0.90873 c 0,-6.07723 2.85878,-12.20179 8.71826,-11.88937 -2.65051,-3.55924 1.35365,-8.42487 6.03938,-7.19424 -0.47329,-4.26924 1.86479,-7.60131 5.97309,-8.53842 -6.58837,-13.56492 12.16394,-17.92883 14.43581,-7.5445 0.96554,3.44568 -0.45406,5.92576 -2.61265,8.44376 1.7134,0 3.93794,0.74785 5.36729,2.95343 2.66946,4.60055 -1.70392,9.90155 -4.8466,8.72774 -0.65327,4.66676 -6.11515,5.46195 -8.90764,2.28134 -0.95606,4.29762 -5.65127,6.1056 -9.32412,3.91898 -2.40438,6.81554 -9.60803,1.80799 -11.10367,8.84128 h 1.32521 v 5.64179 h 10.53579 c 1.4104,-4.042 7.80004,-3.85269 8.94542,0 h 11.20788 v 14.54943 h -41.09237 z m 42.8057,0.11335 0.0206,-19.83148 h 17.89098 v 2.66946 h -4.77098 v 17.18098 z m 2.65998,-12.04085 v -5.2253 h 7.79056 v 5.21582 z m 5.43352,30.0927 c 6.23817,-2.03522 5.09279,-11.52022 -1.57135,-11.52022 -6.65472,0 -8.11245,9.45663 -1.88375,11.52022 l -9.4093,0.0206 c 6.38009,-1.83643 5.01703,-11.53918 -1.73229,-11.53918 -6.6831,0 -8.12193,9.57024 -1.80806,11.52022 h -9.47552 c 6.25707,-2.00678 4.82765,-11.52022 -1.8459,-11.52022 -6.6263,0 -8.13142,9.37145 -1.9122,11.50133 -3.24682,0.0206 -5.92576,0.0206 -9.2105,0.0206 2.38548,-0.76675 4.01363,-3.06699 4.01363,-5.61335 0,-3.24689 -2.65998,-5.90688 -5.90687,-5.90688 -6.68303,0 -7.8947,9.51344 -1.58082,11.52023 l -10.59253,-0.007 c 4.02305,-0.852 3.38881,-6.89131 -0.73838,-6.89131 -4.08933,0 -4.76142,5.99198 -0.7857,6.88183 h -12.61828 v 2.53695 h 90.79879 v -2.53695 l -23.74097,0.0206"
       id="path5376" />
  </g>
</svg>
