<?xml version="1.0" encoding="UTF-8" standalone="no"?>
<!-- Created with Inkscape (http://www.inkscape.org/) -->

<svg
   xmlns:dc="http://purl.org/dc/elements/1.1/"
   xmlns:cc="http://creativecommons.org/ns#"
   xmlns:rdf="http://www.w3.org/1999/02/22-rdf-syntax-ns#"
   xmlns:svg="http://www.w3.org/2000/svg"
   xmlns="http://www.w3.org/2000/svg"
   xmlns:sodipodi="http://sodipodi.sourceforge.net/DTD/sodipodi-0.dtd"
   xmlns:inkscape="http://www.inkscape.org/namespaces/inkscape"
   width="446.99997mm"
   height="383.56183mm"
   viewBox="0 0 446.99997 383.56184"
   version="1.1"
   id="svg4438"
   inkscape:version="0.92.4 (5da689c313, 2019-01-14)"
   sodipodi:docname="Latvia_road_sign_117.svg">
  <defs
     id="defs4432" />
  <sodipodi:namedview
     id="base"
     pagecolor="#ffffff"
     bordercolor="#666666"
     borderopacity="1.0"
     inkscape:pageopacity="0.0"
     inkscape:pageshadow="2"
     inkscape:zoom="0.175"
     inkscape:cx="2824.315"
     inkscape:cy="227.19635"
     inkscape:document-units="mm"
     inkscape:current-layer="layer1"
     showgrid="false"
     inkscape:window-width="1920"
     inkscape:window-height="1027"
     inkscape:window-x="-8"
     inkscape:window-y="-8"
     inkscape:window-maximized="1" />
  <metadata
     id="metadata4435">
    <rdf:RDF>
      <cc:Work
         rdf:about="">
        <dc:format>image/svg+xml</dc:format>
        <dc:type
           rdf:resource="http://purl.org/dc/dcmitype/StillImage" />
        <dc:title></dc:title>
      </cc:Work>
    </rdf:RDF>
  </metadata>
  <g
     inkscape:label="Layer 1"
     inkscape:groupmode="layer"
     id="layer1"
     transform="translate(-757.1085,477.42979)">
    <path
       d="m 1000.0593,-465.4575 199.0858,336.15812 c 9.5269,14.06556 -1.6676,33.330886 -15.3988,33.43639 l -403.18237,0.606254 c 9.1395,-0.09448 -30.7914,1.61106 -20.304,-30.758794 l 199.1142,-337.78571 c 8.6214,-15.92668 31.9299,-16.13769 40.68517,-1.65547 z"
       style="fill:#ffffff;fill-opacity:1;stroke:#000000;stroke-width:2.77756929;stroke-linecap:butt;stroke-linejoin:miter;stroke-miterlimit:22.9260006;stroke-dasharray:none;stroke-opacity:1"
       id="path5599"
       inkscape:connector-curvature="0" />
    <path
       d="m 991.52133,-457.43038 195.66247,330.15856 c 1.244,1.56682 2.1384,4.34424 2.1384,7.04955 0,7.08278 -5.7759,12.86014 -12.8541,12.86014 -0.1575,0 -0.3622,0 -0.5039,0 H 785.02033 c 0,0 -0.1575,0 -0.2992,0 -7.0767,0 -12.8542,-5.77736 -12.8542,-12.86014 0,-2.70531 0.8976,-5.48289 2.1384,-7.04955 l 195.1413,-329.48633 c 4.6658,-9.1716 17.0381,-9.72714 22.3763,-0.67239 z m 131.02957,306.92141 H 838.63833 l 141.961,-244.57049 141.95157,244.57049"
       style="fill:#ed1a3a;fill-opacity:1;fill-rule:evenodd;stroke:none;stroke-width:5.55513859"
       id="path5595"
       inkscape:connector-curvature="0" />
    <path
       d="m 847.48803,-154.84739 8.3884,-14.93226 47.5177,-0.0787 c -7.5711,-2.7609 -13.7549,-3.02198 -20.7434,-8.45496 -1.6597,-2.12205 -2.477,-5.3996 -1.2912,-7.97721 l 2.3667,-8.09372 3.9997,-8.96043 9.8544,-2.08882 4.1273,-0.86608 c 2.9226,-0.79994 5.1775,-0.11022 7.7553,1.06134 7.2939,5.7106 14.6997,12.3712 22.5148,17.36531 -0.9763,0.45509 -1.7447,1.25503 -2.299,2.23322 l -3.9509,6.70501 c -1.9211,2.51651 -2.6266,6.31623 -5.694,7.47724 l -3.688,1.59988 h 54.7455 l 25.31,-25.99806 0.7873,-10.01594 c -0.4094,-14.99887 11.73297,-30.07554 18.60487,-45.31329 -0.4567,-9.46591 -7.2892,-27.79225 -9.8213,-38.23604 l -2.0565,-4.89396 1.6282,-6.00522 0.8976,-1.28809 3.2784,-8.07719 -1.055,-3.9997 4.0328,-15.84322 101.0097,174.6814 z m 112.2184,-42.88025 c -3.9163,-1.22826 -7.294,-2.49981 -11.0764,-6.27166 l -0.2047,-1.87214 2.1384,-10.87131 v -2.85538 l 6.8389,-5.90522 11.2606,-5.18843 2.4943,-0.17794 c 4.2107,4.53304 8.8938,8.27166 13.3486,7.43834 l 1.6156,0.26139 -0.4409,2.10536 -3.5556,7.45503 -1.633,4.19417 -2.8218,2.95537 -5.6106,3.53864 c -2.677,2.07197 -5.5161,3.96631 -8.1774,4.94403 z m 11.7503,-42.08567 c -3.8832,-1.04401 -6.3665,-2.59429 -9.256,-5.30511 -1.0078,-2.03874 -0.189,-4.11087 -0.189,-6.23292 v -4.12741 l 13.3659,-10.72155 c 1.6157,-0.73381 4.4879,-1.32274 6.1649,-1.04402 1.496,0.67239 2.5951,1.41722 3.1667,2.5776 l 1.244,3.32763 3.3336,6.26614 0.1575,2.8886 c -0.3622,2.51651 -0.3622,5.20528 -3.4942,7.06624 l -5.628,1.89419 -2.8879,1.69436 -3.1494,1.63327 z m 22.0141,-35.70283 -2.7101,-2.07213 -2.3667,-2.13874 -0.1575,-1.17786 -0.4094,-1.25503 6.2483,-9.00483 0.9606,-0.18267 6.88297,1.92758 1.7778,1.2062 1.0078,3.56084 -0.7086,4.38849 -1.1968,1.45029 c -3.13357,2.23872 -6.05467,3.29975 -8.94417,3.52745 z m -11.0984,-18.52082 c -3.9336,-3.10544 -8.0939,-8.14396 -11.6165,-12.51575 l -0.6771,-2.05544 c 6.0893,-7.34386 8.5994,-16.72646 16.2382,-21.91505 5.6436,-0.63932 11.3267,-3.16638 16.70897,-3.16638 0.4409,4.76075 1.244,9.61031 0.6928,14.16004 l -1.4802,1.94427 c -1.877,3.14984 -0.9133,6.26614 -1.3385,9.3826 -0.3306,2.2666 -1.38567,4.76642 -3.72247,6.594 l -5.8043,3.79971 -4.3776,2.13874 -2.3006,1.63326 h -2.3322"
       style="fill:#000000;fill-opacity:1;fill-rule:evenodd;stroke:none;stroke-width:5.55513859"
       id="path5597"
       inkscape:connector-curvature="0" />
  </g>
</svg>
