<?xml version="1.0" encoding="UTF-8" standalone="no"?>
<!-- Created with Inkscape (http://www.inkscape.org/) -->

<svg
   xmlns:dc="http://purl.org/dc/elements/1.1/"
   xmlns:cc="http://creativecommons.org/ns#"
   xmlns:rdf="http://www.w3.org/1999/02/22-rdf-syntax-ns#"
   xmlns:svg="http://www.w3.org/2000/svg"
   xmlns="http://www.w3.org/2000/svg"
   xmlns:sodipodi="http://sodipodi.sourceforge.net/DTD/sodipodi-0.dtd"
   xmlns:inkscape="http://www.inkscape.org/namespaces/inkscape"
   width="195mm"
   height="167.32568mm"
   viewBox="0 0 195 167.32568"
   version="1.1"
   id="svg3845"
   inkscape:version="0.92.4 (5da689c313, 2019-01-14)"
   sodipodi:docname="Latvia_road_sign_124.svg">
  <defs
     id="defs3839" />
  <sodipodi:namedview
     id="base"
     pagecolor="#ffffff"
     bordercolor="#666666"
     borderopacity="1.0"
     inkscape:pageopacity="0.0"
     inkscape:pageshadow="2"
     inkscape:zoom="0.49497475"
     inkscape:cx="709.87356"
     inkscape:cy="86.278514"
     inkscape:document-units="mm"
     inkscape:current-layer="layer1"
     showgrid="false"
     inkscape:window-width="1920"
     inkscape:window-height="1027"
     inkscape:window-x="-8"
     inkscape:window-y="-8"
     inkscape:window-maximized="1"
     showguides="false" />
  <metadata
     id="metadata3842">
    <rdf:RDF>
      <cc:Work
         rdf:about="">
        <dc:format>image/svg+xml</dc:format>
        <dc:type
           rdf:resource="http://purl.org/dc/dcmitype/StillImage" />
        <dc:title></dc:title>
      </cc:Work>
    </rdf:RDF>
  </metadata>
  <g
     inkscape:label="Layer 1"
     inkscape:groupmode="layer"
     id="layer1"
     transform="translate(686.02617,638.09374)">
    <path
       d="m -580.04092,-632.87123 86.84945,146.64648 c 4.15608,6.13606 -0.72706,14.54035 -6.71763,14.58637 l -175.8847,0.26448 c 3.98648,-0.0412 -13.43286,0.70281 -8.85746,-13.4183 l 86.86147,-147.3541 c 3.76109,-6.9503 13.92966,-7.04235 17.74887,-0.72459 z"
       style="fill:#ffffff;fill-opacity:1;stroke:#000000;stroke-width:1.211694;stroke-linecap:butt;stroke-linejoin:miter;stroke-miterlimit:22.9260006;stroke-dasharray:none;stroke-opacity:1"
       id="path3753"
       inkscape:connector-curvature="0" />
    <path
       d="m -583.76808,-629.36946 85.35899,144.02929 c 0.54062,0.68351 0.93301,1.89507 0.93301,3.07524 0,3.08981 -2.52027,5.61014 -5.61014,5.61014 -0.0618,0 -0.15525,0 -0.22051,0 H -673.8527 c 0.0275,0 -0.0618,0 -0.12846,0 -3.08988,0 -5.60773,-2.52033 -5.60773,-5.61014 0,-1.18017 0.39018,-2.39187 0.933,-3.07524 l 85.1288,-143.73603 c 2.03562,-4.00104 7.43253,-4.24333 9.75894,-0.29333 z m 57.16286,133.89465 h -123.85447 l 61.92964,-106.69453 61.92483,106.69453"
       style="fill:#ed1a3a;fill-opacity:1;fill-rule:evenodd;stroke:none;stroke-width:2.423388"
       id="path3749"
       inkscape:connector-curvature="0" />
    <path
       d="m -594.88655,-505.71365 1.13167,-1.99928 c 0.69072,-2.79174 -0.727,-5.65857 -1.53642,-8.23709 l -0.17174,-0.8312 4.69163,-0.28577 0.27134,8.02386 c -0.10167,1.12446 -0.27134,2.24885 -0.43621,3.32969 z m 17.43383,0 c 3.06075,-2.78927 4.11493,-5.16665 5.16665,-9.18946 2.71418,0.66908 3.46062,0.33454 5.78221,-0.32012 -2.21498,3.28854 -4.32088,6.32024 -6.66432,9.50938 z m 10.94886,0 c 2.44038,-2.89595 3.3176,-5.91548 1.6576,-9.7711 l -0.78998,-1.50977 c -3.04626,1.72066 -8.15713,1.99207 -9.99409,-2.06468 l -20.39525,1.05172 -4.04219,12.29383 h -4.28701 c 3.29582,-3.30303 3.21827,-7.13199 3.34672,-11.38748 l -1.93629,-0.45544 -0.62031,-0.45064 c -1.8272,-1.07356 -4.30639,-6.0706 -5.60773,-8.12078 l -2.26342,-5.26118 -7.48344,2.3701 c -0.31256,0 -0.62511,0 -0.9306,0 -0.87723,-0.37095 -1.6091,-1.23836 -1.84417,-1.94357 0.0996,-0.51109 0.23493,-1.0445 0.41217,-1.55099 1.53161,-2.74084 3.03409,-5.49624 4.51961,-8.26373 0.18685,-0.59833 -0.66153,-1.09053 -1.05899,-1.8878 0.56947,-0.23493 2.03562,0.19372 2.58332,0.27135 -0.0776,-0.69066 -1.14623,-1.58733 -1.56548,-2.30711 2.2707,0.49185 3.04619,0.59146 4.72556,2.26348 0.61276,0.19853 1.2747,0.44102 1.88058,0.63474 8.56181,2.12046 28.36574,2.24885 42.98117,1.1099 2.09381,0 4.0786,-0.63474 6.07307,0.44857 1.12439,0.761 1.72059,1.48799 2.37731,2.46222 0.996,2.7699 1.88539,5.6392 1.88539,8.66361 -0.10648,2.13495 -0.67595,4.44206 -0.26379,6.5722 1.8224,3.03891 0.79246,4.51962 -0.36133,7.65064 -0.10648,-1.78605 -1.39587,-2.1568 -1.63088,-3.82896 -0.67595,-1.80055 1.01778,-7.19018 0.94751,-9.79535 -0.0797,-2.656 -0.77062,-5.26117 -2.17865,-7.5173 -1.26741,1.25285 -1.28919,15.39821 -1.03234,17.63256 0.24249,1.38131 0.85305,2.42821 1.63095,3.40244 l -2.19314,9.2888 z m 23.96002,10.36483 0.42659,0.15731 z m -0.8457,0 0.463,0.15731 -0.463,-0.15731"
       style="fill:#000000;fill-opacity:1;fill-rule:evenodd;stroke:none;stroke-width:2.423388"
       id="path3751"
       inkscape:connector-curvature="0" />
  </g>
</svg>
