<?xml version="1.0" encoding="UTF-8" standalone="no"?>
<!-- Created with Inkscape (http://www.inkscape.org/) -->

<svg
   xmlns:dc="http://purl.org/dc/elements/1.1/"
   xmlns:cc="http://creativecommons.org/ns#"
   xmlns:rdf="http://www.w3.org/1999/02/22-rdf-syntax-ns#"
   xmlns:svg="http://www.w3.org/2000/svg"
   xmlns="http://www.w3.org/2000/svg"
   xmlns:sodipodi="http://sodipodi.sourceforge.net/DTD/sodipodi-0.dtd"
   xmlns:inkscape="http://www.inkscape.org/namespaces/inkscape"
   width="195mm"
   height="167.32381mm"
   viewBox="0 0 195 167.32381"
   version="1.1"
   id="svg6931"
   inkscape:version="0.92.3 (2405546, 2018-03-11)"
   sodipodi:docname="Latvia road sign 109.svg">
  <defs
     id="defs6925" />
  <sodipodi:namedview
     id="base"
     pagecolor="#ffffff"
     bordercolor="#666666"
     borderopacity="1.0"
     inkscape:pageopacity="0.0"
     inkscape:pageshadow="2"
     inkscape:zoom="0.24748738"
     inkscape:cx="154.81735"
     inkscape:cy="456.5524"
     inkscape:document-units="mm"
     inkscape:current-layer="layer1"
     showgrid="false"
     inkscape:window-width="1600"
     inkscape:window-height="838"
     inkscape:window-x="-8"
     inkscape:window-y="-8"
     inkscape:window-maximized="1" />
  <metadata
     id="metadata6928">
    <rdf:RDF>
      <cc:Work
         rdf:about="">
        <dc:format>image/svg+xml</dc:format>
        <dc:type
           rdf:resource="http://purl.org/dc/dcmitype/StillImage" />
        <dc:title></dc:title>
      </cc:Work>
    </rdf:RDF>
  </metadata>
  <g
     inkscape:label="Layer 1"
     inkscape:groupmode="layer"
     id="layer1"
     transform="translate(-35.797724,265.59835)">
    <path
       d="m 141.78311,-260.37516 86.84957,146.64426 c 4.15609,6.13598 -0.72947,14.542753 -6.71764,14.588778 l -175.884933,0.261726 c 3.986483,-0.04122 -13.432878,0.705219 -8.857477,-13.415884 l 86.85919,-147.3567 c 3.7635,-6.9479 13.93208,-7.03995 17.75129,-0.72218 z"
       style="fill:#ffffff;fill-opacity:1;stroke:#000000;stroke-width:1.21169555;stroke-linecap:butt;stroke-linejoin:miter;stroke-miterlimit:22.9260006;stroke-dasharray:none;stroke-opacity:1"
       id="path4138"
       inkscape:connector-curvature="0" />
    <path
       d="m 148.36989,-133.1762 c 0,-21.29194 0,-42.74621 0,-64.03809 h -10.65803 v 64.06475 l 10.65803,-0.0275"
       style="fill:#000000;fill-opacity:1;fill-rule:evenodd;stroke:none;stroke-width:2.4233911"
       id="path4132"
       inkscape:connector-curvature="0" />
    <path
       d="m 118.98146,-133.17139 c 0,-10.55141 0,-21.02046 0,-31.59853 l 10.60472,-10.71388 v -21.75234 h -10.60472 v 17.24 l -10.68475,10.71381 v 36.11094 h 10.68475"
       style="fill:#000000;fill-opacity:1;fill-rule:evenodd;stroke:none;stroke-width:2.4233911"
       id="path4134"
       inkscape:connector-curvature="0" />
    <path
       d="m 138.05595,-256.87339 85.35429,144.02941 c 0.54269,0.68351 0.93301,1.89267 0.93301,3.07529 0,3.08981 -2.52033,5.61015 -5.60774,5.61015 -0.0687,0 -0.15731,0 -0.22051,0 H 47.973682 c 0.02748,0 -0.06182,0 -0.125711,0 -3.089813,0 -5.610147,-2.52034 -5.610147,-5.61015 0,-1.18262 0.390185,-2.39185 0.933009,-3.07529 l 85.126507,-143.73856 c 2.03562,-3.99864 7.43254,-4.24092 9.75895,-0.29057 z m 57.16053,133.89243 H 71.366652 l 61.927318,-106.69227 61.92251,106.69227"
       style="fill:#ed1a3a;fill-opacity:1;fill-rule:evenodd;stroke:none;stroke-width:2.4233911"
       id="path4136"
       inkscape:connector-curvature="0" />
  </g>
</svg>
