<?xml version="1.0" encoding="UTF-8" standalone="no"?>
<!-- Created with Inkscape (http://www.inkscape.org/) -->

<svg
   xmlns:dc="http://purl.org/dc/elements/1.1/"
   xmlns:cc="http://creativecommons.org/ns#"
   xmlns:rdf="http://www.w3.org/1999/02/22-rdf-syntax-ns#"
   xmlns:svg="http://www.w3.org/2000/svg"
   xmlns="http://www.w3.org/2000/svg"
   xmlns:sodipodi="http://sodipodi.sourceforge.net/DTD/sodipodi-0.dtd"
   xmlns:inkscape="http://www.inkscape.org/namespaces/inkscape"
   width="195mm"
   height="167.3253mm"
   viewBox="0 0 195 167.3253"
   version="1.1"
   id="svg3845"
   inkscape:version="0.92.4 (5da689c313, 2019-01-14)"
   sodipodi:docname="Latvia_road_sign_125.svg">
  <defs
     id="defs3839" />
  <sodipodi:namedview
     id="base"
     pagecolor="#ffffff"
     bordercolor="#666666"
     borderopacity="1.0"
     inkscape:pageopacity="0.0"
     inkscape:pageshadow="2"
     inkscape:zoom="0.49497475"
     inkscape:cx="-129.45741"
     inkscape:cy="41.395349"
     inkscape:document-units="mm"
     inkscape:current-layer="layer1"
     showgrid="false"
     inkscape:window-width="1920"
     inkscape:window-height="1027"
     inkscape:window-x="-8"
     inkscape:window-y="-8"
     inkscape:window-maximized="1"
     showguides="false" />
  <metadata
     id="metadata3842">
    <rdf:RDF>
      <cc:Work
         rdf:about="">
        <dc:format>image/svg+xml</dc:format>
        <dc:type
           rdf:resource="http://purl.org/dc/dcmitype/StillImage" />
        <dc:title></dc:title>
      </cc:Work>
    </rdf:RDF>
  </metadata>
  <g
     inkscape:label="Layer 1"
     inkscape:groupmode="layer"
     id="layer1"
     transform="translate(463.95319,649.9687)">
    <path
       d="m -357.96796,-644.74407 86.84945,146.64405 c 4.15608,6.136 -0.72707,14.54269 -6.71763,14.58631 l -175.88468,0.26447 c 3.98648,-0.0412 -13.43286,0.70275 -8.85746,-13.41829 l 86.86146,-147.35415 c 3.76109,-6.95023 13.92966,-7.04235 17.74886,-0.72212 z"
       style="fill:#ffffff;fill-opacity:1;stroke:#000000;stroke-width:1.21169388;stroke-linecap:butt;stroke-linejoin:miter;stroke-miterlimit:22.9260006;stroke-dasharray:none;stroke-opacity:1"
       id="path3759"
       inkscape:connector-curvature="0" />
    <path
       d="m -361.69271,-641.24471 85.35658,144.03161 c 0.54268,0.68351 0.93301,1.89267 0.93301,3.07531 0,3.0874 -2.52027,5.60767 -5.60767,5.60767 -0.0687,0 -0.15731,0 -0.22326,0 H -451.78 c 0.0275,0 -0.0618,0 -0.12845,0 -3.08741,0 -5.60774,-2.52027 -5.60774,-5.60767 0,-1.18264 0.39019,-2.39187 0.93301,-3.07531 l 85.12878,-143.73842 c 2.03563,-4.00097 7.43254,-4.24332 9.76135,-0.29332 z m 57.16046,133.89457 h -123.85447 l 61.92964,-106.69445 61.92483,106.69445"
       style="fill:#ed1a3a;fill-opacity:1;fill-rule:evenodd;stroke:none;stroke-width:2.42338777"
       id="path3755"
       inkscape:connector-curvature="0" />
    <path
       d="m -329.01812,-513.00149 -6.58924,-10.7162 -6.17962,-2.96863 c -4.40084,-3.6981 -5.42597,-6.26446 -8.20802,-11.04099 -1.61879,-1.29647 -3.23764,-1.02506 -4.83225,-1.21651 -5.37019,0 -10.71619,-0.88939 -15.14369,-4.04706 l -0.51109,-0.0824 -0.70281,0.83601 -13.2535,-4.42509 7.71851,8.9884 3.16009,0.45819 2.69969,3.96951 -5.48175,-1.34985 -11.95696,-12.57981 1.70122,-2.88867 c 3.45334,0.62031 6.85578,1.67457 10.25574,2.13262 -2.61726,-10.50056 -1.69875,-13.38924 3.67144,-23.80977 l -2.83296,-1.34985 -2.99769,-2.51064 v -1.8878 h 8.01898 l 0.70034,-0.46025 c 2.484,-0.4314 4.94133,0.54063 7.45191,0.91845 l 0.4314,-0.40461 c -1.10749,-1.21418 -2.67304,-2.9687 -1.34985,-4.56324 1.86362,-1.32079 3.40244,-0.80943 5.53259,-0.34897 l 2.32407,0.99841 c -2.64639,0 -4.83224,-1.1608 -6.15544,0.0275 -2.10589,1.53889 2.21258,5.75068 3.6981,6.61342 3.45574,1.1608 6.93814,0.70281 10.39148,3.26676 l 0.89179,0.97175 v 0.2425 c -2.34825,-0.97183 -4.53411,-1.59221 -6.77574,-1.78118 l -2.6997,0.18891 c 0.89179,0.80942 1.80783,3.83383 2.37491,5.02129 1.75459,2.83296 5.67073,4.02281 8.80175,3.26669 l 0.70041,0.055 c -3.04866,1.56554 -3.83143,1.4298 -7.04482,1.05178 -0.80943,2.61966 0.72946,3.2667 3.13102,3.59148 -1.75452,1.53883 -3.64479,0.26929 -4.61654,-1.02512 -1.10509,-3.75381 -2.50824,-8.93502 -5.42597,-11.74373 -0.80943,-1.18746 -1.97023,-2.29495 -3.58901,-3.10438 l -1.40315,-0.45819 -0.91852,0.83601 c 1.10749,0.2425 2.26829,1.24083 3.15768,2.24164 l 1.08084,2.77965 -3.50905,-0.83608 -1.53883,-2.05259 c -2.64638,0.54063 -2.40403,7.34289 -2.51064,9.36642 0,2.80865 1.24076,4.34754 2.75293,6.5334 2.18593,1.8079 4.42756,2.88874 6.69585,3.59148 4.04947,1.72547 7.90749,2.26589 11.877,4.31848 l 4.8589,3.9138 0.72946,5.72403 -0.18891,4.23604 0.64711,3.53818 c 1.86361,2.37491 3.42909,2.67057 5.72163,3.4824 l 5.1303,10.9852 2.45734,1.08084 2.42821,4.58749 -4.77646,-2.15928"
       style="fill:#000000;fill-opacity:1;fill-rule:evenodd;stroke:none;stroke-width:2.42338777"
       id="path3757"
       inkscape:connector-curvature="0" />
  </g>
</svg>
