<?xml version="1.0" encoding="UTF-8" standalone="no"?>
<svg
   xmlns:dc="http://purl.org/dc/elements/1.1/"
   xmlns:cc="http://creativecommons.org/ns#"
   xmlns:rdf="http://www.w3.org/1999/02/22-rdf-syntax-ns#"
   xmlns:svg="http://www.w3.org/2000/svg"
   xmlns="http://www.w3.org/2000/svg"
   xmlns:sodipodi="http://sodipodi.sourceforge.net/DTD/sodipodi-0.dtd"
   xmlns:inkscape="http://www.inkscape.org/namespaces/inkscape"
   width="158.75mm"
   height="79.761513mm"
   viewBox="0 0 158.74999 79.761507"
   version="1.1"
   id="svg6774"
   inkscape:version="1.0 (4035a4fb49, 2020-05-01)"
   sodipodi:docname="Latvia_road_sign_834.svg">
  <defs
     id="defs6768" />
  <sodipodi:namedview
     id="base"
     pagecolor="#ffffff"
     bordercolor="#666666"
     borderopacity="1.0"
     inkscape:pageopacity="0.0"
     inkscape:pageshadow="2"
     inkscape:zoom="0.39362278"
     inkscape:cx="663.26921"
     inkscape:cy="-152.95059"
     inkscape:document-units="mm"
     inkscape:current-layer="layer1"
     inkscape:document-rotation="0"
     showgrid="false"
     fit-margin-top="0"
     fit-margin-left="0"
     fit-margin-right="0"
     fit-margin-bottom="0"
     inkscape:window-width="1920"
     inkscape:window-height="1001"
     inkscape:window-x="-9"
     inkscape:window-y="-9"
     inkscape:window-maximized="1" />
  <metadata
     id="metadata6771">
    <rdf:RDF>
      <cc:Work
         rdf:about="">
        <dc:format>image/svg+xml</dc:format>
        <dc:type
           rdf:resource="http://purl.org/dc/dcmitype/StillImage" />
        <dc:title></dc:title>
      </cc:Work>
    </rdf:RDF>
  </metadata>
  <g
     inkscape:label="Layer 1"
     inkscape:groupmode="layer"
     id="layer1"
     transform="translate(-64.510053,-519.14115)">
    <g
       id="g2362"
       style="opacity:1"
       inkscape:groupmode="layer" />
    <g
       id="g12133"
       transform="matrix(2.5700371,0,0,-2.5700371,-388.976,2220.1192)"
       style="opacity:1;stroke-width:0.137266">
      <path
         style="color:#000000;font-style:normal;font-variant:normal;font-weight:normal;font-stretch:normal;font-size:medium;line-height:normal;font-family:sans-serif;font-variant-ligatures:normal;font-variant-position:normal;font-variant-caps:normal;font-variant-numeric:normal;font-variant-alternates:normal;font-variant-east-asian:normal;font-feature-settings:normal;font-variation-settings:normal;text-indent:0;text-align:start;text-decoration:none;text-decoration-line:none;text-decoration-style:solid;text-decoration-color:#000000;letter-spacing:normal;word-spacing:normal;text-transform:none;writing-mode:lr-tb;direction:ltr;text-orientation:mixed;dominant-baseline:auto;baseline-shift:baseline;text-anchor:start;white-space:normal;shape-padding:0;shape-margin:0;inline-size:0;clip-rule:nonzero;display:inline;overflow:visible;visibility:visible;isolation:auto;mix-blend-mode:normal;color-interpolation:sRGB;color-interpolation-filters:linearRGB;solid-color:#000000;solid-opacity:1;vector-effect:none;fill:#ffffff;fill-opacity:1;fill-rule:nonzero;stroke:none;stroke-width:0.0411797;stroke-linecap:round;stroke-linejoin:round;stroke-miterlimit:22.926;stroke-dasharray:none;stroke-dashoffset:0;stroke-opacity:1;color-rendering:auto;image-rendering:auto;shape-rendering:auto;text-rendering:auto;enable-background:accumulate;stop-color:#000000;stop-opacity:1"
         d="m 176.60156,657.88281 c 0,2.125 1.69141,3.81641 3.82031,3.81641 h 53.83204 c 2.125,0 3.82031,-1.69141 3.8164,-3.81641 l -0.0156,-23.09765 c 0,-2.12891 -1.67578,-3.82032 -3.80078,-3.82032 h -53.83204 c -2.1289,0 -3.82031,1.69141 -3.82031,3.82032 z m 0,0"
         id="path12135" />
      <path
         style="color:#000000;font-style:normal;font-variant:normal;font-weight:normal;font-stretch:normal;font-size:medium;line-height:normal;font-family:sans-serif;font-variant-ligatures:normal;font-variant-position:normal;font-variant-caps:normal;font-variant-numeric:normal;font-variant-alternates:normal;font-variant-east-asian:normal;font-feature-settings:normal;font-variation-settings:normal;text-indent:0;text-align:start;text-decoration:none;text-decoration-line:none;text-decoration-style:solid;text-decoration-color:#000000;letter-spacing:normal;word-spacing:normal;text-transform:none;writing-mode:lr-tb;direction:ltr;text-orientation:mixed;dominant-baseline:auto;baseline-shift:baseline;text-anchor:start;white-space:normal;shape-padding:0;shape-margin:0;inline-size:0;clip-rule:nonzero;display:inline;overflow:visible;visibility:visible;isolation:auto;mix-blend-mode:normal;color-interpolation:sRGB;color-interpolation-filters:linearRGB;solid-color:#000000;solid-opacity:1;vector-effect:none;fill:#000000;fill-opacity:1;fill-rule:nonzero;stroke:none;stroke-width:0.0411797;stroke-linecap:round;stroke-linejoin:round;stroke-miterlimit:22.926;stroke-dasharray:none;stroke-dashoffset:0;stroke-opacity:1;color-rendering:auto;image-rendering:auto;shape-rendering:auto;text-rendering:auto;enable-background:accumulate;stop-color:#000000;stop-opacity:1"
         d="m 180.42188,630.81445 c -2.20835,0 -3.97071,1.76235 -3.97071,3.97071 v 23.09765 c 0,2.2046 1.76236,3.9668 3.97071,3.9668 h 53.83203 c 2.20459,0 3.97085,-1.76187 3.96679,-3.9668 l -0.0156,-23.09765 c 0,-2.20763 -1.74658,-3.97071 -3.95117,-3.97071 z m 0,0.30078 h 53.83203 c 2.0454,0 3.65039,1.61973 3.65039,3.66993 l 0.0156,23.09765 c 0.004,2.04508 -1.62061,3.66602 -3.66601,3.66602 h -53.83203 c -2.04946,0 -3.66993,-1.62061 -3.66993,-3.66602 v -23.09765 c 0,-2.04946 1.62047,-3.66993 3.66993,-3.66993 z"
         id="path12137" />
    </g>
    <path
       id="path9361"
       style="color:#000000;font-style:normal;font-variant:normal;font-weight:normal;font-stretch:normal;font-size:medium;line-height:normal;font-family:sans-serif;font-variant-ligatures:normal;font-variant-position:normal;font-variant-caps:normal;font-variant-numeric:normal;font-variant-alternates:normal;font-variant-east-asian:normal;font-feature-settings:normal;font-variation-settings:normal;text-indent:0;text-align:start;text-decoration:none;text-decoration-line:none;text-decoration-style:solid;text-decoration-color:#000000;letter-spacing:normal;word-spacing:normal;text-transform:none;writing-mode:lr-tb;direction:ltr;text-orientation:mixed;dominant-baseline:auto;baseline-shift:baseline;text-anchor:start;white-space:normal;shape-padding:0;shape-margin:0;inline-size:0;clip-rule:nonzero;display:inline;overflow:visible;visibility:visible;opacity:1;isolation:auto;mix-blend-mode:normal;color-interpolation:sRGB;color-interpolation-filters:linearRGB;solid-color:#000000;solid-opacity:1;vector-effect:none;fill:#000000;fill-opacity:1;fill-rule:nonzero;stroke:none;stroke-width:0.460023;stroke-linecap:round;stroke-linejoin:round;stroke-miterlimit:22.926;stroke-dasharray:none;stroke-dashoffset:0;stroke-opacity:1;color-rendering:auto;image-rendering:auto;shape-rendering:auto;text-rendering:auto;enable-background:accumulate;stop-color:#000000;stop-opacity:1"
       d="m 74.714933,522.19942 c -3.93733,0 -7.149204,3.19687 -7.149204,7.13784 v 59.36184 c 0,3.94104 3.208159,7.14541 7.149204,7.14541 H 213.06398 c 3.94097,0 7.13791,-3.20808 7.13791,-7.14541 v -59.36184 c 0,-3.93733 -3.20058,-7.13784 -7.13791,-7.13784 z m 0,3.35059 H 213.06398 c 2.18656,0 3.78726,1.60069 3.78726,3.78725 v 59.36184 c 0,2.18663 -1.60434,3.79483 -3.78726,3.79483 H 74.714933 c -2.182921,0 -3.794832,-1.61184 -3.794832,-3.79483 v -59.36184 c 0,-2.18292 1.608196,-3.78725 3.794832,-3.78725 z m -0.944956,8.11295 v 2.048 h 30.219293 l -30.358585,46.62201 h 1.746832 L 105.7361,535.71096 h 33.20846 l -30.34729,46.62201 h 1.74683 l 30.35851,-46.62201 h 33.21975 l -30.35859,46.62201 h 1.75813 l 30.34729,-46.62201 h 33.21975 l -30.34729,46.62201 h 1.73554 l 30.35858,-46.62201 h 3.01175 v -2.048 z m 37.948243,2.61646 c -0.34021,-0.0583 -0.70811,0.0787 -0.91108,0.39558 l -22.859325,35.90018 c -0.251337,0.39121 -0.170472,0.9537 0.271007,1.23483 l 13.108668,8.35387 c 0.51215,0.32128 1.024,0.0656 1.23484,-0.25206 l 23.58215,-35.43713 c 0.29141,-0.44148 0.13186,-0.99515 -0.26008,-1.24605 l -13.84279,-8.8245 c -0.10054,-0.0656 -0.21054,-0.10563 -0.32346,-0.12384 z m 34.96651,0 c -0.33803,-0.0583 -0.7001,0.0787 -0.91108,0.39558 l -22.85925,35.90018 c -0.25134,0.39121 -0.16028,0.9537 0.271,1.23483 l 13.10867,8.35387 c 0.52235,0.32128 1.024,0.0656 1.23484,-0.25206 l 23.58208,-35.43713 c 0.29141,-0.44148 0.14206,-0.99515 -0.26008,-1.24605 l -13.84286,-8.8245 c -0.10054,-0.0656 -0.21127,-0.10563 -0.32347,-0.12384 z m 34.96658,0 c -0.3373,-0.0583 -0.7001,0.0787 -0.9035,0.39558 l -22.86683,35.90018 c -0.25134,0.39121 -0.16028,0.9537 0.27101,1.23483 l 13.10867,8.35387 c 0.52234,0.32128 1.03529,0.0656 1.24612,-0.25206 l 23.57079,-35.43713 c 0.30088,-0.44148 0.14206,-0.99515 -0.26008,-1.24605 l -13.84279,-8.8245 c -0.10054,-0.0656 -0.21127,-0.10563 -0.32346,-0.12384 z m -73.7618,8.68892 c 0.10272,0.007 0.2069,0.0364 0.30525,0.0976 l 11.33554,7.22067 c 0.36134,0.23094 0.43274,0.78308 0.0729,1.08425 l -4.66074,3.89274 c -0.22074,0.18068 -0.5391,0.21346 -0.79059,0.051 l -8.335,-5.32333 c -0.25061,-0.16027 -0.37009,-0.45022 -0.28995,-0.74163 l 1.67529,-5.80137 c 0.0831,-0.30161 0.38029,-0.50268 0.68918,-0.48155 z m 34.97409,0 c 0.10345,0.007 0.20835,0.0364 0.30889,0.0976 l 11.32425,7.22067 c 0.37154,0.23094 0.43273,0.78308 0.0729,1.08425 l -4.64938,3.89274 c -0.22074,0.18068 -0.55367,0.21346 -0.79437,0.051 l -8.34259,-5.32333 c -0.25061,-0.16027 -0.36862,-0.45022 -0.27829,-0.74163 l 1.664,-5.80137 c 0.0903,-0.30161 0.38611,-0.50268 0.69646,-0.48155 z m 34.9703,0 c 0.10345,0.007 0.20689,0.0364 0.30524,0.0976 l 11.32418,7.22067 c 0.37154,0.23094 0.44075,0.78308 0.0794,1.08425 l -4.65696,3.89274 c -0.22074,0.18068 -0.54347,0.21346 -0.7943,0.051 l -8.34258,-5.32333 c -0.25134,-0.16027 -0.35916,-0.45022 -0.27829,-0.74163 l 1.664,-5.80137 c 0.0903,-0.30161 0.39121,-0.50268 0.7001,-0.48155 z m -73.43805,3.74209 c 0.14352,-0.0364 0.31618,0.0729 0.28631,0.25206 l -0.48155,2.86117 c -0.0219,0.1508 -0.0583,0.22074 -0.12021,0.33148 l -4.950544,7.81178 c -0.08014,0.13041 -0.150802,0.20034 -0.271007,0.27101 l -2.356744,1.55487 c -0.200342,0.1406 -0.431281,-0.10054 -0.300877,-0.30088 l 8.071502,-12.69087 c 0.0364,-0.051 0.0765,-0.0772 0.12458,-0.0903 z m 34.9703,0 c 0.14497,-0.0364 0.31253,0.0729 0.28266,0.25206 l -0.48155,2.86117 c -0.0219,0.1508 -0.051,0.22074 -0.1202,0.33148 l -4.95062,7.81178 c -0.0801,0.13041 -0.14935,0.20034 -0.26008,0.27101 l -2.36053,1.55487 c -0.20107,0.1406 -0.4393,-0.10054 -0.30889,-0.30088 l 8.0715,-12.69087 c 0.0364,-0.051 0.0794,-0.0772 0.12822,-0.0903 z m 34.97029,0 c 0.14061,-0.0364 0.30889,0.0729 0.2783,0.25206 l -0.47062,2.86117 c -0.0291,0.1508 -0.0583,0.22074 -0.13187,0.33148 l -4.95054,7.81178 c -0.0801,0.13041 -0.14935,0.20034 -0.26008,0.27101 l -2.36046,1.55487 c -0.20107,0.1406 -0.4393,-0.10054 -0.30889,-0.30088 l 8.07908,-12.69087 c 0.0291,-0.051 0.0772,-0.0772 0.12385,-0.0903 z m -56.88838,8.42541 c 0.14498,0.0219 0.26372,0.18796 0.16537,0.33876 l -8.32378,12.52892 c -0.13041,0.20107 -0.45023,0.0903 -0.41016,-0.1508 l 0.47062,-2.7897 c 0.0219,-0.14061 0.051,-0.24114 0.13186,-0.36135 l 5.1388,-7.67999 c 0.0729,-0.10054 0.12166,-0.17193 0.25207,-0.25207 l 2.42828,-1.60375 c 0.051,-0.0291 0.0983,-0.0364 0.14716,-0.0291 z m 34.9703,0 c 0.14643,0.0219 0.26008,0.18796 0.16173,0.33876 l -8.32379,12.52892 c -0.1304,0.20107 -0.44075,0.0903 -0.41015,-0.1508 l 0.47062,-2.7897 c 0.0219,-0.14061 0.0583,-0.24114 0.13914,-0.36135 l 5.14259,-7.67999 c 0.0728,-0.10054 0.11073,-0.17193 0.24114,-0.25207 l 2.42821,-1.60375 c 0.051,-0.0291 0.10199,-0.0364 0.1508,-0.0291 z m 34.97037,0 c 0.14861,0.0219 0.26372,0.18796 0.15809,0.33876 l -8.32372,12.52892 c -0.1304,0.20107 -0.44294,0.0903 -0.40287,-0.1508 l 0.46334,-2.7897 c 0.0219,-0.14061 0.0583,-0.24114 0.13914,-0.36135 l 5.14251,-7.67999 c 0.0729,-0.10054 0.12021,-0.17193 0.24114,-0.25207 l 2.42821,-1.60375 c 0.051,-0.0291 0.10491,-0.0364 0.15445,-0.0291 z m -88.316208,4.70592 c 0.140604,-0.0146 0.284849,0.0218 0.410154,0.10126 l 8.342584,5.31196 c 0.25134,0.16027 0.35916,0.45969 0.27829,0.73041 l -1.55479,5.87292 c -0.12021,0.45168 -0.6411,0.62215 -1.01271,0.39121 l -11.324249,-7.21688 c -0.391941,-0.25134 -0.404326,-0.7919 -0.08305,-1.07296 l 4.547752,-3.9567 c 0.115834,-0.0954 0.25498,-0.15008 0.395583,-0.16173 z m 34.966578,0 c 0.13915,-0.0146 0.28485,0.0218 0.41016,0.10126 l 8.34258,5.31196 c 0.25134,0.16027 0.36062,0.45969 0.28995,0.73041 l -1.56616,5.87292 c -0.12021,0.45168 -0.64401,0.62215 -1.00513,0.39121 l -11.32425,-7.21688 c -0.39121,-0.25134 -0.40068,-0.7919 -0.0787,-1.07296 l 4.54775,-3.9567 c 0.11074,-0.0954 0.24478,-0.15008 0.38393,-0.16173 z m 34.96659,0 c 0.13914,-0.0146 0.28484,0.0218 0.41015,0.10126 l 8.34258,5.31196 c 0.25134,0.16027 0.35989,0.45969 0.28995,0.73041 l -1.56616,5.87292 c -0.1202,0.45168 -0.64401,0.62215 -1.0052,0.39121 l -11.32418,-7.21688 c -0.39121,-0.25134 -0.40068,-0.7919 -0.0787,-1.07296 l 4.54775,-3.9567 c 0.11074,-0.0954 0.24478,-0.15008 0.38393,-0.16173 z" />
  </g>
</svg>
