<?xml version="1.0" encoding="UTF-8" standalone="no"?>
<svg
   xmlns:dc="http://purl.org/dc/elements/1.1/"
   xmlns:cc="http://creativecommons.org/ns#"
   xmlns:rdf="http://www.w3.org/1999/02/22-rdf-syntax-ns#"
   xmlns:svg="http://www.w3.org/2000/svg"
   xmlns="http://www.w3.org/2000/svg"
   xmlns:sodipodi="http://sodipodi.sourceforge.net/DTD/sodipodi-0.dtd"
   xmlns:inkscape="http://www.inkscape.org/namespaces/inkscape"
   width="158.75mm"
   height="79.761513mm"
   viewBox="0 0 158.74999 79.761507"
   version="1.1"
   id="svg6774"
   inkscape:version="1.0 (4035a4fb49, 2020-05-01)"
   sodipodi:docname="Latvia_road_sign_836.svg">
  <defs
     id="defs6768" />
  <sodipodi:namedview
     id="base"
     pagecolor="#ffffff"
     bordercolor="#666666"
     borderopacity="1.0"
     inkscape:pageopacity="0.0"
     inkscape:pageshadow="2"
     inkscape:zoom="0.55666667"
     inkscape:cx="-598.71697"
     inkscape:cy="530.18062"
     inkscape:document-units="mm"
     inkscape:current-layer="layer1"
     inkscape:document-rotation="0"
     showgrid="false"
     fit-margin-top="0"
     fit-margin-left="0"
     fit-margin-right="0"
     fit-margin-bottom="0"
     inkscape:window-width="1920"
     inkscape:window-height="1001"
     inkscape:window-x="-9"
     inkscape:window-y="-9"
     inkscape:window-maximized="1" />
  <metadata
     id="metadata6771">
    <rdf:RDF>
      <cc:Work
         rdf:about="">
        <dc:format>image/svg+xml</dc:format>
        <dc:type
           rdf:resource="http://purl.org/dc/dcmitype/StillImage" />
        <dc:title></dc:title>
      </cc:Work>
    </rdf:RDF>
  </metadata>
  <g
     inkscape:label="Layer 1"
     inkscape:groupmode="layer"
     id="layer1"
     transform="translate(-690.04953,-315.00583)">
    <g
       id="g2362"
       style="opacity:1"
       inkscape:groupmode="layer" />
    <g
       id="g12145"
       transform="matrix(2.5700371,0,0,-2.5700371,237.70794,1730.0773)"
       style="opacity:1;stroke-width:0.137266">
      <path
         style="color:#000000;font-style:normal;font-variant:normal;font-weight:normal;font-stretch:normal;font-size:medium;line-height:normal;font-family:sans-serif;font-variant-ligatures:normal;font-variant-position:normal;font-variant-caps:normal;font-variant-numeric:normal;font-variant-alternates:normal;font-variant-east-asian:normal;font-feature-settings:normal;font-variation-settings:normal;text-indent:0;text-align:start;text-decoration:none;text-decoration-line:none;text-decoration-style:solid;text-decoration-color:#000000;letter-spacing:normal;word-spacing:normal;text-transform:none;writing-mode:lr-tb;direction:ltr;text-orientation:mixed;dominant-baseline:auto;baseline-shift:baseline;text-anchor:start;white-space:normal;shape-padding:0;shape-margin:0;inline-size:0;clip-rule:nonzero;display:inline;overflow:visible;visibility:visible;isolation:auto;mix-blend-mode:normal;color-interpolation:sRGB;color-interpolation-filters:linearRGB;solid-color:#000000;solid-opacity:1;vector-effect:none;fill:#ffffff;fill-opacity:1;fill-rule:nonzero;stroke:none;stroke-width:0.0411797;stroke-linecap:round;stroke-linejoin:round;stroke-miterlimit:22.926;stroke-dasharray:none;stroke-dashoffset:0;stroke-opacity:1;color-rendering:auto;image-rendering:auto;shape-rendering:auto;text-rendering:auto;enable-background:accumulate;stop-color:#000000;stop-opacity:1"
         d="m 176.15625,546.63281 c 0,2.12891 1.69141,3.82031 3.82031,3.82031 h 53.83203 c 2.125,0 3.82032,-1.6914 3.81641,-3.82031 l -0.0156,-23.09765 c 0,-2.125 -1.67578,-3.81641 -3.80078,-3.81641 h -53.83203 c -2.1289,0 -3.82031,1.69141 -3.82031,3.81641 z m 0,0"
         id="path12147" />
      <path
         style="color:#000000;font-style:normal;font-variant:normal;font-weight:normal;font-stretch:normal;font-size:medium;line-height:normal;font-family:sans-serif;font-variant-ligatures:normal;font-variant-position:normal;font-variant-caps:normal;font-variant-numeric:normal;font-variant-alternates:normal;font-variant-east-asian:normal;font-feature-settings:normal;font-variation-settings:normal;text-indent:0;text-align:start;text-decoration:none;text-decoration-line:none;text-decoration-style:solid;text-decoration-color:#000000;letter-spacing:normal;word-spacing:normal;text-transform:none;writing-mode:lr-tb;direction:ltr;text-orientation:mixed;dominant-baseline:auto;baseline-shift:baseline;text-anchor:start;white-space:normal;shape-padding:0;shape-margin:0;inline-size:0;clip-rule:nonzero;display:inline;overflow:visible;visibility:visible;isolation:auto;mix-blend-mode:normal;color-interpolation:sRGB;color-interpolation-filters:linearRGB;solid-color:#000000;solid-opacity:1;vector-effect:none;fill:#000000;fill-opacity:1;fill-rule:nonzero;stroke:none;stroke-width:0.0411797;stroke-linecap:round;stroke-linejoin:round;stroke-miterlimit:22.926;stroke-dasharray:none;stroke-dashoffset:0;stroke-opacity:1;color-rendering:auto;image-rendering:auto;shape-rendering:auto;text-rendering:auto;enable-background:accumulate;stop-color:#000000;stop-opacity:1"
         d="m 179.97656,519.56836 c -2.20835,0 -3.9707,1.7622 -3.9707,3.9668 v 23.09765 c 0,2.20836 1.76235,3.97071 3.9707,3.97071 h 53.83203 c 2.2046,0 3.97086,-1.76202 3.9668,-3.97071 l -0.0156,-23.09765 c 0,-2.20386 -1.74658,-3.9668 -3.95118,-3.9668 z m 0,0.30078 h 53.83203 c 2.04541,0 3.65039,1.61988 3.65039,3.66602 l 0.0156,23.09765 c 0.004,2.04913 -1.62061,3.66992 -3.66602,3.66992 h -53.83203 c -2.04945,0 -3.66992,-1.62046 -3.66992,-3.66992 v -23.09765 c 0,-2.04541 1.62047,-3.66602 3.66992,-3.66602 z"
         id="path12149" />
    </g>
    <path
       id="path7467"
       style="fill:#000000;fill-opacity:1;fill-rule:evenodd;stroke:none;stroke-width:0.352777"
       d="m 700.25432,318.06413 c -3.94097,0 -7.1492,3.20437 -7.1492,7.14541 v 59.36184 c 0,3.94097 3.21187,7.13783 7.1492,7.13783 h 138.34905 c 3.93383,0 7.13791,-3.204 7.13791,-7.13783 v -59.36184 c 0,-3.94104 -3.20408,-7.14541 -7.13791,-7.14541 z m 0,3.35058 h 138.34905 c 2.17002,0 3.78725,1.61191 3.78725,3.79483 v 50.62768 l -73.03517,-0.0364 v 6.17416 h -28.27671 c 3.80918,-1.08294 6.38973,-4.7827 5.89929,-8.8245 -0.55221,-4.46739 -4.64064,-7.67118 -9.11809,-7.11904 -4.46746,0.55222 -7.65741,4.6469 -7.11532,9.11437 0.41088,3.32188 2.77535,5.93251 5.79766,6.82917 h -40.08279 v -56.76417 c 0,-2.18299 1.61191,-3.79483 3.79483,-3.79483 z m 83.73829,18.59387 -30.26824,3.7233 -10.08942,13.93691 -23.21316,6.69367 -0.71176,2.46208 99.03797,-12.19766 -2.97409,-5.71476 -19.93784,2.49218 z m -3.26403,2.63154 9.11437,9.40418 -19.36566,2.40191 -1.26492,-10.34163 z m -13.65455,1.68659 1.26492,10.43946 -21.93317,2.6993 c 2.58011,-3.99561 5.49147,-7.68998 8.16184,-11.56517 z m 51.89267,11.70446 -22.80658,2.84987 c 4.05578,1.50584 5.34962,3.28407 6.43387,8.02255 l 11.72704,-2.59009 z m -25.11058,3.38817 c -0.54056,-0.0437 -1.09431,-0.0364 -1.65271,0.0364 -4.46747,0.54201 -7.66113,4.6394 -7.11905,9.10679 0.55222,4.46747 4.6394,7.67126 9.1068,7.11912 4.46747,-0.55222 7.68124,-4.6394 7.11904,-9.10687 -0.47426,-3.90899 -3.66982,-6.84876 -7.45408,-7.15292 z m -6.00092,0.45532 -45.37596,5.54167 c 3.80481,2.048 5.36966,3.98679 5.83146,8.08279 l 35.58021,-4.38587 c -0.99384,-4.18634 1.42432,-7.75278 3.96429,-9.23859 z m 5.69596,3.35816 c 2.00997,0.16392 3.71826,1.72928 3.96421,3.80234 0.30088,2.37933 -1.408,4.5578 -3.78725,4.84892 -2.36928,0.2914 -4.54652,-1.408 -4.83763,-3.78726 -0.29141,-2.37933 1.40421,-4.5578 3.78354,-4.84899 0.2965,-0.0364 0.59009,-0.0364 0.87713,-0.0146 z m -60.0583,3.35809 -14.35479,1.72804 0.39121,3.3543 2.81221,3.12095 7.18687,0.53109 c -0.0903,-3.78485 0.12895,-6.09388 3.96421,-8.73416 z m 5.71105,3.21508 c 2.01682,0.16246 3.72453,1.72046 3.97929,3.80234 0.29141,2.37925 -1.4155,4.5578 -3.79483,4.84892 -2.37926,0.2914 -4.55023,-1.41427 -4.84142,-3.78347 -0.30087,-2.37933 1.40676,-4.55788 3.77604,-4.84899 0.29723,-0.0364 0.59301,-0.0437 0.88092,-0.0219 z" />
  </g>
</svg>
