<?xml version="1.0" encoding="UTF-8" standalone="no"?>
<svg
   xmlns:dc="http://purl.org/dc/elements/1.1/"
   xmlns:cc="http://creativecommons.org/ns#"
   xmlns:rdf="http://www.w3.org/1999/02/22-rdf-syntax-ns#"
   xmlns:svg="http://www.w3.org/2000/svg"
   xmlns="http://www.w3.org/2000/svg"
   xmlns:sodipodi="http://sodipodi.sourceforge.net/DTD/sodipodi-0.dtd"
   xmlns:inkscape="http://www.inkscape.org/namespaces/inkscape"
   sodipodi:docname="Latvia_road_sign 856.svg"
   inkscape:version="1.0 (4035a4fb49, 2020-05-01)"
   id="svg8"
   version="1.1"
   viewBox="0 0 158.75 79.758987"
   height="79.758987mm"
   width="158.75mm">
  <defs
     id="defs2" />
  <sodipodi:namedview
     inkscape:window-maximized="0"
     inkscape:window-y="0"
     inkscape:window-x="160"
     inkscape:window-height="1030"
     inkscape:window-width="1424"
     showgrid="false"
     inkscape:document-rotation="0"
     inkscape:current-layer="layer1"
     inkscape:document-units="mm"
     inkscape:cy="587.34833"
     inkscape:cx="-84.085998"
     inkscape:zoom="0.49497475"
     inkscape:pageshadow="2"
     inkscape:pageopacity="0.0"
     borderopacity="1.0"
     bordercolor="#666666"
     pagecolor="#ffffff"
     id="base" />
  <metadata
     id="metadata5">
    <rdf:RDF>
      <cc:Work
         rdf:about="">
        <dc:format>image/svg+xml</dc:format>
        <dc:type
           rdf:resource="http://purl.org/dc/dcmitype/StillImage" />
        <dc:title></dc:title>
      </cc:Work>
    </rdf:RDF>
  </metadata>
  <g
     transform="translate(-164.48514,-64.829321)"
     id="layer1"
     inkscape:groupmode="layer"
     inkscape:label="Layer 1">
    <g
       transform="matrix(2.5699557,0,0,-2.5699557,-289.40818,1904.8624)"
       id="g5627"
       style="opacity:1;stroke-width:0.13727">
      <path
         style="color:#000000;font-style:normal;font-variant:normal;font-weight:normal;font-stretch:normal;font-size:medium;line-height:normal;font-family:sans-serif;font-variant-ligatures:normal;font-variant-position:normal;font-variant-caps:normal;font-variant-numeric:normal;font-variant-alternates:normal;font-variant-east-asian:normal;font-feature-settings:normal;font-variation-settings:normal;text-indent:0;text-align:start;text-decoration:none;text-decoration-line:none;text-decoration-style:solid;text-decoration-color:#000000;letter-spacing:normal;word-spacing:normal;text-transform:none;writing-mode:lr-tb;direction:ltr;text-orientation:mixed;dominant-baseline:auto;baseline-shift:baseline;text-anchor:start;white-space:normal;shape-padding:0;shape-margin:0;inline-size:0;clip-rule:nonzero;display:inline;overflow:visible;visibility:visible;isolation:auto;mix-blend-mode:normal;color-interpolation:sRGB;color-interpolation-filters:linearRGB;solid-color:#000000;solid-opacity:1;vector-effect:none;fill:#ffffff;fill-opacity:1;fill-rule:nonzero;stroke:none;stroke-width:0.041181;stroke-linecap:round;stroke-linejoin:round;stroke-miterlimit:22.926;stroke-dasharray:none;stroke-dashoffset:0;stroke-opacity:1;color-rendering:auto;image-rendering:auto;shape-rendering:auto;text-rendering:auto;enable-background:accumulate;stop-color:#000000;stop-opacity:1"
         d="m 176.766,712.01 c 0,2.127 1.692,3.819 3.82,3.819 h 53.831 c 2.127,0 3.821,-1.692 3.819,-3.819 l -0.015,-23.096 c -0.002,-2.128 -1.677,-3.82 -3.804,-3.82 h -53.831 c -2.128,0 -3.82,1.692 -3.82,3.82 z"
         id="path5629" />
      <path
         style="color:#000000;font-style:normal;font-variant:normal;font-weight:normal;font-stretch:normal;font-size:medium;line-height:normal;font-family:sans-serif;font-variant-ligatures:normal;font-variant-position:normal;font-variant-caps:normal;font-variant-numeric:normal;font-variant-alternates:normal;font-variant-east-asian:normal;font-feature-settings:normal;font-variation-settings:normal;text-indent:0;text-align:start;text-decoration:none;text-decoration-line:none;text-decoration-style:solid;text-decoration-color:#000000;letter-spacing:normal;word-spacing:normal;text-transform:none;writing-mode:lr-tb;direction:ltr;text-orientation:mixed;dominant-baseline:auto;baseline-shift:baseline;text-anchor:start;white-space:normal;shape-padding:0;shape-margin:0;inline-size:0;clip-rule:nonzero;display:inline;overflow:visible;visibility:visible;isolation:auto;mix-blend-mode:normal;color-interpolation:sRGB;color-interpolation-filters:linearRGB;solid-color:#000000;solid-opacity:1;vector-effect:none;fill:#000000;fill-opacity:1;fill-rule:nonzero;stroke:none;stroke-width:0.041181;stroke-linecap:round;stroke-linejoin:round;stroke-miterlimit:22.926;stroke-dasharray:none;stroke-dashoffset:0;stroke-opacity:1;color-rendering:auto;image-rendering:auto;shape-rendering:auto;text-rendering:auto;enable-background:accumulate;stop-color:#000000;stop-opacity:1"
         d="m 180.58594,684.94336 c -2.20751,0 -3.97071,1.76319 -3.97071,3.9707 v 23.09571 c 0,2.20654 1.7632,3.96875 3.97071,3.96875 h 53.83203 c 2.20655,0 3.97082,-1.76204 3.96875,-3.96875 l -0.0156,-23.09571 c -0.002,-2.20664 -1.74657,-3.9707 -3.95312,-3.9707 z m 0,0.30078 h 53.83203 c 2.04745,0 3.65042,1.62056 3.65234,3.66992 l 0.0156,23.09571 c 0.002,2.04728 -1.62052,3.66992 -3.66797,3.66992 h -53.83203 c -2.04849,0 -3.66992,-1.62247 -3.66992,-3.66992 v -23.09571 c 0,-2.04849 1.62143,-3.66992 3.66992,-3.66992 z"
         id="path5631" />
    </g>
    <path
       id="path12558"
       style="fill:#000000;fill-opacity:1;fill-rule:evenodd;stroke:none;stroke-width:0.352777"
       d="m 301.112,82.121245 -7.80403,13.571336 5.53019,-1.60373 0.007,35.044509 4.55139,0.008 0.0583,-35.036973 5.58666,1.471953 z m -73.831,1.547235 c -0.12093,-0.0019 -0.24331,-3.49e-4 -0.36133,0.0153 -0.71174,0.07766 -1.36395,0.426968 -1.73548,0.843265 -0.55511,0.624026 -1.00634,1.319473 -0.71903,2.785787 0.22802,0.70314 0.80091,1.437066 1.68275,1.833351 l 3.55001,1.904852 -4.57019,9.482985 c -1.64654,-0.856124 -3.51301,-1.340192 -5.49254,-1.340192 -6.59037,0 -11.95636,5.365972 -11.95636,11.956332 0,6.59032 5.36599,11.9563 11.95636,11.9563 6.5903,0 11.9563,-5.36598 11.9563,-11.9563 0,-3.90703 -1.88702,-7.38592 -4.7961,-9.56958 l 1.05784,-1.972634 13.86873,10.224594 c -0.15808,0.91158 -0.15881,1.77343 0.34603,2.55615 0.82232,1.21864 1.52583,1.70492 3.04182,1.86348 l 7.19414,-0.74161 c 1.10075,5.46355 5.94114,9.5959 11.72289,9.5959 6.59037,0 11.95629,-5.36598 11.95629,-11.9563 0,-6.59036 -5.36592,-11.956332 -11.95629,-11.956332 -1.83311,0 -3.56895,0.414512 -5.12356,1.155732 l -4.12224,-7.013415 0.92985,-1.931223 h 0.90347 c 0.95112,-0.644205 1.85285,-0.804204 2.36797,-1.735478 0.51577,-0.871888 0.35404,-1.465295 -0.47789,-1.52466 h -8.4779 c -0.63378,0 -1.02229,0.209369 -1.359,0.575946 l -0.67385,1.483237 5.57915,1.17832 -0.74539,1.468195 h -21.80448 l 1.35521,-2.733089 -5.62424,-3.015444 c -0.26736,-0.09929 -0.62286,-0.494427 -0.44438,-1.069127 0.14861,-0.41626 0.55948,-0.591098 0.92606,-0.511984 l 5.2742,0.971269 c 0.61412,0.05755 0.89969,-0.177169 1.08793,-0.613609 0.0583,-0.584541 -0.051,-0.954578 -0.68551,-1.212202 l -5.26663,-0.959955 c -0.12166,-0.0204 -0.24404,-0.03351 -0.36497,-0.03788 z m -38.25199,1.69783 -4.5589,0.008 -0.007,35.04451 -5.52641,-1.59995 7.80396,13.56756 7.92446,-13.45461 -5.58287,1.46819 z m 62.80077,9.531938 -6.11365,12.276302 c -1.01063,-0.18831 -2.03249,0.10257 -2.75566,0.69644 l -14.25651,-10.454252 1.34771,-2.499687 z m 1.79952,0.673855 3.43702,5.865207 c -2.20777,1.58806 -3.85459,3.9056 -4.58148,6.59932 l -4.76973,-0.60611 z m -33.99418,5.887797 h 0.004 c 1.62811,6.4e-4 3.15787,0.40133 4.50244,1.10679 -1.4e-4,1.3e-4 0,0.008 0,0.008 l -0.0656,0.10542 -1.68653,3.36553 c -0.54491,1.01057 -1.30174,3.07105 -2.37175,3.3881 -0.41597,0.14898 -0.66948,-0.11124 -1.23479,0.14686 -0.81234,0.41626 -1.13033,1.1604 -0.92235,1.89361 0.18868,0.59459 0.56531,1.05093 1.42683,1.1896 1.01063,0.008 1.8103,-0.93335 1.59241,-1.95383 1.36716,-0.46587 2.67771,-2.792 3.70809,-4.58527 l 1.26116,-2.4206 c 2.12742,1.7745 3.47848,4.44556 3.47848,7.44256 0,5.36356 -4.32272,9.68628 -9.68632,9.68628 -5.36351,0 -9.68624,-4.32272 -9.68624,-9.68628 0,-5.36226 4.32076,-9.68423 9.68253,-9.68627 z m 44.39194,0 c 5.36359,0 9.69002,4.32273 9.69002,9.68627 0,5.36356 -4.32643,9.68627 -9.69002,9.68627 -4.61274,0 -8.45218,-3.19604 -9.43783,-7.5028 l 9.66373,-0.78303 c 0.88184,-0.0503 1.45757,-0.67174 1.51708,-1.43431 0.051,-0.75298 -0.43563,-1.58645 -1.4757,-1.70536 l -4.25024,-7.09247 c 1.21454,-0.54652 2.56109,-0.85456 3.98296,-0.85457 z m -5.80499,1.92371 3.35427,5.71087 -6.80637,-0.81314 c 0.60902,-1.98047 1.8331,-3.68708 3.4521,-4.89773 z" />
    <path
       id="path851"
       d="m 290.37193,97.090541 -2.17688,2.176944 11.08385,11.083885 -11.08385,11.0981 2.17688,2.17695 11.09813,-11.08389 11.08392,11.08389 2.17695,-2.17695 -11.09813,-11.0981 11.09813,-11.083885 -2.17695,-2.176944 -11.08392,11.098119 z"
       style="color:#000000;font-style:normal;font-variant:normal;font-weight:normal;font-stretch:normal;font-size:medium;line-height:normal;font-family:sans-serif;font-variant-ligatures:normal;font-variant-position:normal;font-variant-caps:normal;font-variant-numeric:normal;font-variant-alternates:normal;font-variant-east-asian:normal;font-feature-settings:normal;font-variation-settings:normal;text-indent:0;text-align:start;text-decoration:none;text-decoration-line:none;text-decoration-style:solid;text-decoration-color:#000000;letter-spacing:normal;word-spacing:normal;text-transform:none;writing-mode:lr-tb;direction:ltr;text-orientation:mixed;dominant-baseline:auto;baseline-shift:baseline;text-anchor:start;white-space:normal;shape-padding:0;shape-margin:0;inline-size:0;clip-rule:nonzero;display:inline;overflow:visible;visibility:visible;opacity:1;isolation:auto;mix-blend-mode:normal;color-interpolation:sRGB;color-interpolation-filters:linearRGB;solid-color:#000000;solid-opacity:1;vector-effect:none;fill:#ed1c24;fill-opacity:1;fill-rule:nonzero;stroke:none;stroke-width:0.423333;stroke-linecap:butt;stroke-linejoin:miter;stroke-miterlimit:22.926;stroke-dasharray:none;stroke-dashoffset:0;stroke-opacity:1;color-rendering:auto;image-rendering:auto;shape-rendering:auto;text-rendering:auto;enable-background:accumulate;stop-color:#000000;stop-opacity:1" />
    <path
       id="path3727"
       d="m 174.68975,141.52648 c -3.94063,0 -7.14271,-3.20212 -7.14271,-7.14266 V 75.028871 c 0,-3.93872 3.20208,-7.142654 7.14271,-7.142654 h 138.34591 c 3.93873,0 7.13761,3.203934 7.13761,7.142654 v 59.354949 c 0,3.94054 -3.19888,7.14266 -7.13761,7.14266 z m 0,-3.34797 h 138.34591 c 2.18292,0 3.78969,-1.60848 3.78969,-3.79469 V 75.028871 c 0,-2.182895 -1.60677,-3.789656 -3.78969,-3.789685 H 174.68975 c -2.18628,0 -3.79471,1.60679 -3.79471,3.789685 v 59.354949 c 0,2.18621 1.60843,3.79469 3.79471,3.79469 z"
       style="color:#000000;font-style:normal;font-variant:normal;font-weight:normal;font-stretch:normal;font-size:medium;line-height:normal;font-family:sans-serif;font-variant-ligatures:normal;font-variant-position:normal;font-variant-caps:normal;font-variant-numeric:normal;font-variant-alternates:normal;font-variant-east-asian:normal;font-feature-settings:normal;font-variation-settings:normal;text-indent:0;text-align:start;text-decoration:none;text-decoration-line:none;text-decoration-style:solid;text-decoration-color:#000000;letter-spacing:normal;word-spacing:normal;text-transform:none;writing-mode:lr-tb;direction:ltr;text-orientation:mixed;dominant-baseline:auto;baseline-shift:baseline;text-anchor:start;white-space:normal;shape-padding:0;shape-margin:0;inline-size:0;clip-rule:nonzero;display:inline;overflow:visible;visibility:visible;opacity:1;isolation:auto;mix-blend-mode:normal;color-interpolation:sRGB;color-interpolation-filters:linearRGB;solid-color:#000000;solid-opacity:1;vector-effect:none;fill:#231f20;fill-opacity:1;fill-rule:nonzero;stroke:none;stroke-width:0.460023;stroke-linecap:round;stroke-linejoin:round;stroke-miterlimit:22.926;stroke-dasharray:none;stroke-dashoffset:0;stroke-opacity:1;color-rendering:auto;image-rendering:auto;shape-rendering:auto;text-rendering:auto;enable-background:accumulate;stop-color:#000000;stop-opacity:1" />
  </g>
</svg>
