<?xml version="1.0" encoding="UTF-8" standalone="no"?>
<svg
   xmlns:dc="http://purl.org/dc/elements/1.1/"
   xmlns:cc="http://creativecommons.org/ns#"
   xmlns:rdf="http://www.w3.org/1999/02/22-rdf-syntax-ns#"
   xmlns:svg="http://www.w3.org/2000/svg"
   xmlns="http://www.w3.org/2000/svg"
   xmlns:sodipodi="http://sodipodi.sourceforge.net/DTD/sodipodi-0.dtd"
   xmlns:inkscape="http://www.inkscape.org/namespaces/inkscape"
   sodipodi:docname="Latvia_road_sign 854.svg"
   inkscape:version="1.0 (4035a4fb49, 2020-05-01)"
   id="svg1473"
   version="1.1"
   viewBox="0 0 158.75 79.756473"
   height="79.75647mm"
   width="158.75mm">
  <defs
     id="defs1467" />
  <sodipodi:namedview
     inkscape:window-maximized="1"
     inkscape:window-y="-9"
     inkscape:window-x="-9"
     inkscape:window-height="1001"
     inkscape:window-width="1920"
     showgrid="false"
     inkscape:document-rotation="0"
     inkscape:current-layer="layer1"
     inkscape:document-units="mm"
     inkscape:cy="267.04188"
     inkscape:cx="343.76585"
     inkscape:zoom="0.7"
     inkscape:pageshadow="2"
     inkscape:pageopacity="0.0"
     borderopacity="1.0"
     bordercolor="#666666"
     pagecolor="#ffffff"
     id="base" />
  <metadata
     id="metadata1470">
    <rdf:RDF>
      <cc:Work
         rdf:about="">
        <dc:format>image/svg+xml</dc:format>
        <dc:type
           rdf:resource="http://purl.org/dc/dcmitype/StillImage" />
        <dc:title />
      </cc:Work>
    </rdf:RDF>
  </metadata>
  <g
     transform="translate(-277.80513,-192.82927)"
     id="layer1"
     inkscape:groupmode="layer"
     inkscape:label="Layer 1">
    <g
       style="opacity:1;stroke-width:0.137274"
       transform="matrix(2.5698747,0,0,-2.5698747,-210.92781,684.47341)"
       id="g2102">
      <path
         id="path2104"
         d="m 190.32812,187.33984 c 0,2.12891 1.69141,3.82032 3.82032,3.82032 h 53.83203 c 2.125,0 3.82031,-1.69141 3.82031,-3.82032 l -0.0156,-23.09375 c -0.004,-2.1289 -1.67969,-3.82031 -3.80469,-3.82031 h -53.83203 c -2.12891,0 -3.82032,1.69141 -3.82032,3.82031 z m 0,0"
         style="color:#000000;font-style:normal;font-variant:normal;font-weight:normal;font-stretch:normal;font-size:medium;line-height:normal;font-family:sans-serif;font-variant-ligatures:normal;font-variant-position:normal;font-variant-caps:normal;font-variant-numeric:normal;font-variant-alternates:normal;font-variant-east-asian:normal;font-feature-settings:normal;font-variation-settings:normal;text-indent:0;text-align:start;text-decoration:none;text-decoration-line:none;text-decoration-style:solid;text-decoration-color:#000000;letter-spacing:normal;word-spacing:normal;text-transform:none;writing-mode:lr-tb;direction:ltr;text-orientation:mixed;dominant-baseline:auto;baseline-shift:baseline;text-anchor:start;white-space:normal;shape-padding:0;shape-margin:0;inline-size:0;clip-rule:nonzero;display:inline;overflow:visible;visibility:visible;isolation:auto;mix-blend-mode:normal;color-interpolation:sRGB;color-interpolation-filters:linearRGB;solid-color:#000000;solid-opacity:1;vector-effect:none;fill:#ffffff;fill-opacity:1;fill-rule:nonzero;stroke:none;stroke-width:0.0411823;stroke-linecap:round;stroke-linejoin:round;stroke-miterlimit:22.926;stroke-dasharray:none;stroke-dashoffset:0;stroke-opacity:1;color-rendering:auto;image-rendering:auto;shape-rendering:auto;text-rendering:auto;enable-background:accumulate;stop-color:#000000;stop-opacity:1" />
      <path
         id="path2106"
         d="m 194.14844,160.27539 c -2.20836,0 -3.97071,1.76235 -3.97071,3.9707 v 23.09375 c 0,2.20836 1.76235,3.97071 3.97071,3.97071 h 53.83203 c 2.20459,0 3.9707,-1.76216 3.9707,-3.97071 l -0.0156,-23.09375 c -0.004,-2.20746 -1.75049,-3.9707 -3.95508,-3.9707 z m 0,0.30078 h 53.83203 c 2.0454,0 3.65044,1.61959 3.6543,3.66992 l 0.0156,23.09375 c 0,2.04928 -1.62452,3.66993 -3.66992,3.66993 h -53.83203 c -2.04946,0 -3.66992,-1.62047 -3.66992,-3.66993 v -23.09375 c 0,-2.04945 1.62046,-3.66992 3.66992,-3.66992 z"
         style="color:#000000;font-style:normal;font-variant:normal;font-weight:normal;font-stretch:normal;font-size:medium;line-height:normal;font-family:sans-serif;font-variant-ligatures:normal;font-variant-position:normal;font-variant-caps:normal;font-variant-numeric:normal;font-variant-alternates:normal;font-variant-east-asian:normal;font-feature-settings:normal;font-variation-settings:normal;text-indent:0;text-align:start;text-decoration:none;text-decoration-line:none;text-decoration-style:solid;text-decoration-color:#000000;letter-spacing:normal;word-spacing:normal;text-transform:none;writing-mode:lr-tb;direction:ltr;text-orientation:mixed;dominant-baseline:auto;baseline-shift:baseline;text-anchor:start;white-space:normal;shape-padding:0;shape-margin:0;inline-size:0;clip-rule:nonzero;display:inline;overflow:visible;visibility:visible;isolation:auto;mix-blend-mode:normal;color-interpolation:sRGB;color-interpolation-filters:linearRGB;solid-color:#000000;solid-opacity:1;vector-effect:none;fill:#000000;fill-opacity:1;fill-rule:nonzero;stroke:none;stroke-width:0.0411823;stroke-linecap:round;stroke-linejoin:round;stroke-miterlimit:22.926;stroke-dasharray:none;stroke-dashoffset:0;stroke-opacity:1;color-rendering:auto;image-rendering:auto;shape-rendering:auto;text-rendering:auto;enable-background:accumulate;stop-color:#000000;stop-opacity:1" />
    </g>
    <path
       transform="matrix(0.26458333,0,0,0.26458333,277.80513,192.82927)"
       d="m 38.564453,11.552734 c -14.894098,0 -27.003906,12.125472 -27.003906,27.019532 V 262.875 c 0,14.89406 12.109808,27.01758 27.003906,27.01758 H 561.43945 c 14.89433,0 26.97657,-12.13728 26.97657,-27.01758 V 38.572266 c 0,-14.880303 -12.08224,-27.019532 -26.97657,-27.019532 z m 0,12.677735 H 561.43945 c 8.25014,0 14.29883,6.078124 14.29883,14.341797 V 262.875 c 0,8.26363 -6.04869,14.3418 -14.29883,14.3418 H 38.564453 c -8.249915,0 -14.341797,-6.09192 -14.341797,-14.3418 V 38.572266 c 0,-8.249878 6.091882,-14.341797 14.341797,-14.341797 z m 214.806637,6.964843 c -0.38653,-0.0038 -0.77479,-0.0015 -1.15429,0.04688 -2.27445,0.249069 -4.35943,1.364843 -5.54688,2.695312 -1.77399,1.995061 -3.21481,4.216372 -2.29687,8.902344 0.72865,2.246513 2.55893,4.591053 5.37695,5.857422 l 11.34375,6.08789 -14.60352,30.304688 c -5.26144,-2.735811 -11.22667,-4.283203 -17.55273,-4.283203 -21.06013,0 -38.20703,17.146674 -38.20703,38.207029 0,21.06017 17.1469,38.20899 38.20703,38.20899 21.06032,0 38.20898,-17.14882 38.20898,-38.20899 0,-12.48544 -6.02981,-23.601897 -15.32617,-30.580076 l 3.37891,-6.304688 44.32031,32.673824 c -0.50517,2.913 -0.50782,5.66875 1.10547,8.16993 2.62787,3.89423 4.87618,5.4485 9.7207,5.95507 l 22.99024,-2.37109 c 3.5176,17.45945 18.98437,30.66602 37.46094,30.66602 21.06031,0 38.20898,-17.14882 38.20898,-38.20899 0,-21.060355 -17.14867,-38.207029 -38.20898,-38.207029 -5.85793,0 -11.40486,1.324616 -16.37305,3.693359 L 341.25,62.087891 l 2.97266,-6.171875 h 2.88672 c 3.03944,-2.057953 5.92053,-2.570762 7.5664,-5.546875 1.64822,-2.786117 1.13317,-4.681362 -1.52539,-4.871094 h -27.09375 c -2.02537,0 -3.2658,0.66848 -4.3418,1.841797 l -2.15429,4.738281 17.83007,3.765625 -2.38281,4.693359 h -69.67969 l 4.33204,-8.734375 -17.97266,-9.636718 c -0.8544,-0.316725 -1.99033,-1.580148 -1.41992,-3.416016 0.4749,-1.331603 1.78733,-1.888133 2.95898,-1.636719 l 16.85352,3.103516 c 1.96244,0.186331 2.87475,-0.566481 3.47656,-1.960938 0.18633,-1.867048 -0.16209,-3.049865 -2.1875,-3.873047 l -16.83008,-3.068359 c -0.38876,-0.06992 -0.77956,-0.115234 -1.16601,-0.115234 z m 78.44922,35.884766 -19.53711,39.230472 c -3.22934,-0.60061 -6.49538,0.32943 -8.80664,2.22656 l -45.55859,-33.408204 4.30664,-7.988281 z m 5.75,2.154297 10.98438,18.742187 c -7.05544,5.074772 -12.31784,12.481858 -14.64063,21.089848 l -15.24218,-1.9375 z M 228.9375,88.048828 h 0.0156 c 5.20279,0.0019 10.09188,1.282886 14.38868,3.53711 -2.7e-4,4.14e-4 0,0.02344 0,0.02344 l -0.21094,0.337891 -5.38867,10.753904 c -1.74134,3.22961 -4.16074,9.81495 -7.58008,10.82813 -1.33164,0.4772 -2.13881,-0.35611 -3.94531,0.4707 -2.59593,1.3316 -3.61209,3.7077 -2.94727,6.05078 0.60064,1.89963 1.80548,3.35775 4.55859,3.80078 3.22935,0.0227 5.78615,-2.98312 5.08985,-6.24414 4.36887,-1.48996 8.55662,-8.92175 11.84961,-14.65234 l 4.0293,-7.734377 c 6.79815,5.670537 11.11718,14.205847 11.11718,23.783207 0,17.13974 -13.81507,30.95312 -30.95508,30.95312 -17.13978,0 -30.95312,-13.81338 -30.95312,-30.95312 0,-17.13585 13.80718,-30.94659 30.94141,-30.953129 z m 141.86133,0 c 17.14,0 30.96484,13.815302 30.96484,30.955082 0,17.14 -13.82484,30.95312 -30.96484,30.95312 -14.74061,0 -27.0106,-10.2139 -30.16016,-23.97656 l 30.88086,-2.50195 c 2.81824,-0.1629 4.65721,-2.1468 4.84766,-4.58399 0.1629,-2.4062 -1.39117,-5.0693 -4.71485,-5.44922 L 358.07031,90.779297 c 3.88101,-1.745953 8.18477,-2.730469 12.72852,-2.730469 z m -18.55078,6.148438 10.71875,18.250004 -21.75196,-2.59961 c 1.94616,-6.32886 5.85945,-11.781557 11.03321,-15.650394 z m -89.25391,64.820314 -46.63867,26.83398 46.25586,27.23047 -5.08008,-19.19141 120.38281,-0.19335 v -15.63672 l -120.42578,-0.0547 z m 80.20313,55.01953 5.50585,19.00781 H 228.2793 v 15.66406 l 120.33984,0.19336 -5.03711,19.19336 46.24024,-27.24609 z"
       style="fill:#000000;fill-opacity:1;fill-rule:evenodd;stroke:none;stroke-width:1.33333"
       id="path14214" />
  </g>
</svg>
