<?xml version="1.0" encoding="UTF-8" standalone="no"?>
<svg
   xmlns:dc="http://purl.org/dc/elements/1.1/"
   xmlns:cc="http://creativecommons.org/ns#"
   xmlns:rdf="http://www.w3.org/1999/02/22-rdf-syntax-ns#"
   xmlns:svg="http://www.w3.org/2000/svg"
   xmlns="http://www.w3.org/2000/svg"
   xmlns:sodipodi="http://sodipodi.sourceforge.net/DTD/sodipodi-0.dtd"
   xmlns:inkscape="http://www.inkscape.org/namespaces/inkscape"
   width="158.75mm"
   height="79.771545mm"
   viewBox="0 0 158.74999 79.77154"
   version="1.1"
   id="svg6774"
   inkscape:version="1.0 (4035a4fb49, 2020-05-01)"
   sodipodi:docname="Latvia_road_sign_817.svg">
  <defs
     id="defs6768" />
  <sodipodi:namedview
     id="base"
     pagecolor="#ffffff"
     bordercolor="#666666"
     borderopacity="1.0"
     inkscape:pageopacity="0.0"
     inkscape:pageshadow="2"
     inkscape:zoom="0.55666667"
     inkscape:cx="139.42837"
     inkscape:cy="484.74088"
     inkscape:document-units="mm"
     inkscape:current-layer="layer1"
     inkscape:document-rotation="0"
     showgrid="false"
     fit-margin-top="0"
     fit-margin-left="0"
     fit-margin-right="0"
     fit-margin-bottom="0"
     inkscape:window-width="1920"
     inkscape:window-height="1001"
     inkscape:window-x="-9"
     inkscape:window-y="-9"
     inkscape:window-maximized="1" />
  <metadata
     id="metadata6771">
    <rdf:RDF>
      <cc:Work
         rdf:about="">
        <dc:format>image/svg+xml</dc:format>
        <dc:type
           rdf:resource="http://purl.org/dc/dcmitype/StillImage" />
        <dc:title></dc:title>
      </cc:Work>
    </rdf:RDF>
  </metadata>
  <g
     inkscape:label="Layer 1"
     inkscape:groupmode="layer"
     id="layer1"
     transform="translate(75.49313,-221.00557)">
    <g
       id="g2362"
       style="opacity:1"
       inkscape:groupmode="layer" />
    <g
       id="g4096"
       transform="matrix(2.5700374,0,0,-2.5700374,-534.12936,996.8105)"
       style="opacity:1;stroke-width:0.137266">
      <path
         style="color:#000000;font-style:normal;font-variant:normal;font-weight:normal;font-stretch:normal;font-size:medium;line-height:normal;font-family:sans-serif;font-variant-ligatures:normal;font-variant-position:normal;font-variant-caps:normal;font-variant-numeric:normal;font-variant-alternates:normal;font-variant-east-asian:normal;font-feature-settings:normal;font-variation-settings:normal;text-indent:0;text-align:start;text-decoration:none;text-decoration-line:none;text-decoration-style:solid;text-decoration-color:#000000;letter-spacing:normal;word-spacing:normal;text-transform:none;writing-mode:lr-tb;direction:ltr;text-orientation:mixed;dominant-baseline:auto;baseline-shift:baseline;text-anchor:start;white-space:normal;shape-padding:0;shape-margin:0;inline-size:0;clip-rule:nonzero;display:inline;overflow:visible;visibility:visible;isolation:auto;mix-blend-mode:normal;color-interpolation:sRGB;color-interpolation-filters:linearRGB;solid-color:#000000;solid-opacity:1;vector-effect:none;fill:#ffffff;fill-opacity:1;fill-rule:nonzero;stroke:none;stroke-width:0.0411797;stroke-linecap:round;stroke-linejoin:round;stroke-miterlimit:22.926;stroke-dasharray:none;stroke-dashoffset:0;stroke-opacity:1;color-rendering:auto;image-rendering:auto;shape-rendering:auto;text-rendering:auto;enable-background:accumulate;stop-color:#000000;stop-opacity:1"
         d="m 178.60547,297.89453 c 0,2.125 1.6914,3.82031 3.82031,3.82031 h 53.82813 c 2.1289,0 3.82031,-1.69531 3.82031,-3.82031 l -0.0156,-23.09766 c 0,-2.125 -1.67578,-3.82031 -3.80468,-3.82031 h -53.82813 c -2.12891,0 -3.82031,1.69531 -3.82031,3.82031 z m 0,0"
         id="path4098" />
      <path
         style="color:#000000;font-style:normal;font-variant:normal;font-weight:normal;font-stretch:normal;font-size:medium;line-height:normal;font-family:sans-serif;font-variant-ligatures:normal;font-variant-position:normal;font-variant-caps:normal;font-variant-numeric:normal;font-variant-alternates:normal;font-variant-east-asian:normal;font-feature-settings:normal;font-variation-settings:normal;text-indent:0;text-align:start;text-decoration:none;text-decoration-line:none;text-decoration-style:solid;text-decoration-color:#000000;letter-spacing:normal;word-spacing:normal;text-transform:none;writing-mode:lr-tb;direction:ltr;text-orientation:mixed;dominant-baseline:auto;baseline-shift:baseline;text-anchor:start;white-space:normal;shape-padding:0;shape-margin:0;inline-size:0;clip-rule:nonzero;display:inline;overflow:visible;visibility:visible;isolation:auto;mix-blend-mode:normal;color-interpolation:sRGB;color-interpolation-filters:linearRGB;solid-color:#000000;solid-opacity:1;vector-effect:none;fill:#000000;fill-opacity:1;fill-rule:nonzero;stroke:none;stroke-width:0.0411797;stroke-linecap:round;stroke-linejoin:round;stroke-miterlimit:22.926;stroke-dasharray:none;stroke-dashoffset:0;stroke-opacity:1;color-rendering:auto;image-rendering:auto;shape-rendering:auto;text-rendering:auto;enable-background:accumulate;stop-color:#000000;stop-opacity:1"
         d="m 182.42578,270.82617 c -2.20854,0 -3.9707,1.76611 -3.9707,3.97071 v 23.09765 c 0,2.2046 1.76216,3.9707 3.9707,3.9707 h 53.82813 c 2.20853,0 3.9707,-1.7661 3.9707,-3.9707 l -0.0156,-23.09765 c 0,-2.20387 -1.74654,-3.97071 -3.95507,-3.97071 z m 0,0.30078 h 53.82813 c 2.04926,0 3.65429,1.62379 3.65429,3.66993 l 0.0156,23.09765 c 0,2.04541 -1.62066,3.66992 -3.66992,3.66992 h -53.82813 c -2.04928,0 -3.66992,-1.62451 -3.66992,-3.66992 v -23.09765 c 0,-2.04541 1.62064,-3.66993 3.66992,-3.66993 z"
         id="path4100" />
    </g>
    <path
       id="path3006"
       style="fill:#000000;fill-opacity:1;fill-rule:evenodd;stroke:none;stroke-width:0.352777"
       d="m -65.288293,224.07394 c -3.93733,0 -7.149205,3.19687 -7.149205,7.13784 v 59.36184 c 0,3.94098 3.211803,7.13792 7.149205,7.13792 H 73.053231 c 3.937322,0 7.145409,-3.19694 7.145409,-7.13792 v -59.36184 c 0,-3.94097 -3.208102,-7.13784 -7.145409,-7.13784 z m 0,3.35059 H 73.053231 c 2.18657,0 3.794825,1.60433 3.794825,3.78725 v 59.36184 c 0,2.18292 -1.608291,3.78354 -3.794825,3.78354 H -65.288293 c -2.186636,0 -3.794832,-1.60062 -3.794832,-3.78354 v -59.36184 c 0,-2.18292 1.608196,-3.78725 3.794832,-3.78725 z m 59.2225133,3.13224 -0.060467,24.20701 -31.5933803,-6.656 41.5924318,41.81076 41.6827972,-41.7618 -31.623512,6.55437 -0.06047,-24.07158 z" />
  </g>
</svg>
