<?xml version="1.0" encoding="UTF-8" standalone="no"?>
<svg
   xmlns:dc="http://purl.org/dc/elements/1.1/"
   xmlns:cc="http://creativecommons.org/ns#"
   xmlns:rdf="http://www.w3.org/1999/02/22-rdf-syntax-ns#"
   xmlns:svg="http://www.w3.org/2000/svg"
   xmlns="http://www.w3.org/2000/svg"
   xmlns:sodipodi="http://sodipodi.sourceforge.net/DTD/sodipodi-0.dtd"
   xmlns:inkscape="http://www.inkscape.org/namespaces/inkscape"
   width="158.75mm"
   height="79.766518mm"
   viewBox="0 0 158.75 79.766518"
   version="1.1"
   id="svg1473"
   inkscape:version="1.0 (4035a4fb49, 2020-05-01)"
   sodipodi:docname="Latvia_road_sign 846.svg">
  <defs
     id="defs1467" />
  <sodipodi:namedview
     id="base"
     pagecolor="#ffffff"
     bordercolor="#666666"
     borderopacity="1.0"
     inkscape:pageopacity="0.0"
     inkscape:pageshadow="2"
     inkscape:zoom="0.35"
     inkscape:cx="405.22175"
     inkscape:cy="-247.2069"
     inkscape:document-units="mm"
     inkscape:current-layer="layer1"
     inkscape:document-rotation="0"
     showgrid="false"
     inkscape:window-width="1424"
     inkscape:window-height="1030"
     inkscape:window-x="160"
     inkscape:window-y="0"
     inkscape:window-maximized="0" />
  <metadata
     id="metadata1470">
    <rdf:RDF>
      <cc:Work
         rdf:about="">
        <dc:format>image/svg+xml</dc:format>
        <dc:type
           rdf:resource="http://purl.org/dc/dcmitype/StillImage" />
        <dc:title></dc:title>
      </cc:Work>
    </rdf:RDF>
  </metadata>
  <g
     inkscape:label="Layer 1"
     inkscape:groupmode="layer"
     id="layer1"
     transform="translate(1.3815832,-213.57349)">
    <g
       id="g2060"
       transform="matrix(2.5698747,0,0,-2.5698747,-490.11452,1912.6572)"
       style="opacity:1;stroke-width:0.137274">
      <path
         style="color:#000000;font-style:normal;font-variant:normal;font-weight:normal;font-stretch:normal;font-size:medium;line-height:normal;font-family:sans-serif;font-variant-ligatures:normal;font-variant-position:normal;font-variant-caps:normal;font-variant-numeric:normal;font-variant-alternates:normal;font-variant-east-asian:normal;font-feature-settings:normal;font-variation-settings:normal;text-indent:0;text-align:start;text-decoration:none;text-decoration-line:none;text-decoration-style:solid;text-decoration-color:#000000;letter-spacing:normal;word-spacing:normal;text-transform:none;writing-mode:lr-tb;direction:ltr;text-orientation:mixed;dominant-baseline:auto;baseline-shift:baseline;text-anchor:start;white-space:normal;shape-padding:0;shape-margin:0;inline-size:0;clip-rule:nonzero;display:inline;overflow:visible;visibility:visible;isolation:auto;mix-blend-mode:normal;color-interpolation:sRGB;color-interpolation-filters:linearRGB;solid-color:#000000;solid-opacity:1;vector-effect:none;fill:#ffffff;fill-opacity:1;fill-rule:nonzero;stroke:none;stroke-width:0.0411823;stroke-linecap:round;stroke-linejoin:round;stroke-miterlimit:22.926;stroke-dasharray:none;stroke-dashoffset:0;stroke-opacity:1;color-rendering:auto;image-rendering:auto;shape-rendering:auto;text-rendering:auto;enable-background:accumulate;stop-color:#000000;stop-opacity:1"
         d="m 190.32812,657.18359 c 0,2.125 1.69141,3.82032 3.82032,3.82032 h 53.83203 c 2.125,0 3.82031,-1.69532 3.82031,-3.82032 l -0.0156,-23.09765 c -0.004,-2.125 -1.67969,-3.82032 -3.80469,-3.82032 h -53.83203 c -2.12891,0 -3.82032,1.69532 -3.82032,3.82032 z m 0,0"
         id="path2062" />
      <path
         style="color:#000000;font-style:normal;font-variant:normal;font-weight:normal;font-stretch:normal;font-size:medium;line-height:normal;font-family:sans-serif;font-variant-ligatures:normal;font-variant-position:normal;font-variant-caps:normal;font-variant-numeric:normal;font-variant-alternates:normal;font-variant-east-asian:normal;font-feature-settings:normal;font-variation-settings:normal;text-indent:0;text-align:start;text-decoration:none;text-decoration-line:none;text-decoration-style:solid;text-decoration-color:#000000;letter-spacing:normal;word-spacing:normal;text-transform:none;writing-mode:lr-tb;direction:ltr;text-orientation:mixed;dominant-baseline:auto;baseline-shift:baseline;text-anchor:start;white-space:normal;shape-padding:0;shape-margin:0;inline-size:0;clip-rule:nonzero;display:inline;overflow:visible;visibility:visible;isolation:auto;mix-blend-mode:normal;color-interpolation:sRGB;color-interpolation-filters:linearRGB;solid-color:#000000;solid-opacity:1;vector-effect:none;fill:#000000;fill-opacity:1;fill-rule:nonzero;stroke:none;stroke-width:0.0411823;stroke-linecap:round;stroke-linejoin:round;stroke-miterlimit:22.926;stroke-dasharray:none;stroke-dashoffset:0;stroke-opacity:1;color-rendering:auto;image-rendering:auto;shape-rendering:auto;text-rendering:auto;enable-background:accumulate;stop-color:#000000;stop-opacity:1"
         d="m 194.14844,630.11523 c -2.20855,0 -3.97071,1.76611 -3.97071,3.97071 v 23.09765 c 0,2.2046 1.76216,3.97071 3.97071,3.97071 h 53.83203 c 2.20478,0 3.9707,-1.76593 3.9707,-3.97071 l -0.0156,-23.09765 c -0.004,-2.20371 -1.7503,-3.97071 -3.95508,-3.97071 z m 0,0.30079 h 53.83203 c 2.04522,0 3.65044,1.62362 3.6543,3.66992 l 0.0156,23.09765 c 0,2.04522 -1.6247,3.66993 -3.66992,3.66993 h -53.83203 c -2.04928,0 -3.66992,-1.62452 -3.66992,-3.66993 v -23.09765 c 0,-2.04541 1.62064,-3.66992 3.66992,-3.66992 z"
         id="path2064" />
    </g>
    <path
       id="path13884"
       style="fill:#000000;fill-opacity:1;fill-rule:evenodd;stroke:none;stroke-width:0.352777"
       d="m 8.8218482,216.64032 c -3.937153,0 -7.1449634,3.19666 -7.1449634,7.13739 v 59.35808 c 0,3.94079 3.2078104,7.13746 7.1449634,7.13746 H 147.16586 c 3.93708,0 7.13738,-3.20031 7.13738,-7.13746 v -59.35808 c 0,-3.93708 -3.2003,-7.13739 -7.13738,-7.13739 z m 0,3.35416 H 147.16586 c 2.18642,0 3.7833,1.5968 3.7833,3.78323 v 59.35808 c 0,2.18649 -1.59688,3.7833 -3.7833,3.7833 H 8.8218482 c -2.1864978,0 -3.7945917,-1.60052 -3.7945917,-3.7833 v -59.35808 c 0,-2.18279 1.6080939,-3.78323 3.7945917,-3.78323 z m 67.5193298,3.4407 -0.02914,6.34685 -5.390739,-3.20351 -1.814469,2.7405 7.235294,4.1259 -0.02914,3.41433 h -5.390812 v 3.69297 h 5.420825 v 3.38417 l -5.307839,2.81961 -9.11751,-5.25896 0.54198,-8.11237 h -3.711765 l -0.354036,6.05321 -5.127251,-2.90236 -1.788099,3.14334 5.100881,2.95132 -5.070722,3.31271 1.837051,3.20358 6.7572,-4.44963 9.083564,5.2025 -0.350394,6.75349 -2.962608,1.70906 -2.710412,-4.7207 -3.173427,1.86721 2.691545,4.66796 -3.011561,1.7693 -6.7572,-4.47972 -1.837051,3.17343 5.070722,3.30142 -5.100881,2.99277 1.818257,3.14334 5.08959,-2.93252 0.361321,6.05328 3.655235,-0.0291 -0.463306,-8.08236 2.992767,-1.73536 2.729207,4.68675 3.173499,-1.83705 -2.680326,-4.66795 2.951317,-1.70528 5.258886,3.20352 -0.02185,10.51792 -7.250373,3.63644 1.848415,3.16971 5.401958,-2.71041 v 5.85375 l 3.681679,-0.0219 v -5.83488 l 5.371941,2.71041 1.836979,-3.1998 -7.20892,-3.60635 v -10.48783 l 6.154826,-3.12448 2.932522,1.70906 -2.680253,4.69804 3.162135,1.86714 2.717989,-4.69054 3.011633,1.72793 -0.48953,8.08986 3.651447,-0.0291 0.383903,-6.05328 5.066928,2.93252 1.81833,-3.14334 -5.07086,-2.92873 5.07086,-3.39554 -1.86728,-3.13963 -6.727037,4.50609 -3.000197,-1.73543 2.710339,-4.69804 -3.203585,-1.83705 -2.710267,4.65666 -2.928953,-1.65639 -0.138409,-6.505 9.087352,-5.28154 6.813797,4.54746 1.91966,-3.22238 -5.17992,-3.36166 5.09724,-2.93253 -1.83698,-3.19979 -5.067149,2.95889 -0.36132,-6.07208 -3.685394,0.0219 0.481517,8.11244 -9.053404,5.2288 -5.661727,-3.16964 v -3.38424 h 5.390591 l 0.02914,-3.69297 -5.420821,-0.0219 v -3.45199 l 7.265376,-4.06566 -1.814469,-2.71041 -5.450907,3.20359 v -6.37701 z" />
  </g>
</svg>
