<?xml version="1.0" encoding="UTF-8" standalone="no"?>
<svg
   xmlns:dc="http://purl.org/dc/elements/1.1/"
   xmlns:cc="http://creativecommons.org/ns#"
   xmlns:rdf="http://www.w3.org/1999/02/22-rdf-syntax-ns#"
   xmlns:svg="http://www.w3.org/2000/svg"
   xmlns="http://www.w3.org/2000/svg"
   xmlns:sodipodi="http://sodipodi.sourceforge.net/DTD/sodipodi-0.dtd"
   xmlns:inkscape="http://www.inkscape.org/namespaces/inkscape"
   width="158.75mm"
   height="79.76149mm"
   viewBox="0 0 158.74999 79.761484"
   version="1.1"
   id="svg6774"
   inkscape:version="1.0 (4035a4fb49, 2020-05-01)"
   sodipodi:docname="Latvia_road_sign_835.svg">
  <defs
     id="defs6768" />
  <sodipodi:namedview
     id="base"
     pagecolor="#ffffff"
     bordercolor="#666666"
     borderopacity="1.0"
     inkscape:pageopacity="0.0"
     inkscape:pageshadow="2"
     inkscape:zoom="0.39362278"
     inkscape:cx="-822.39367"
     inkscape:cy="520.64887"
     inkscape:document-units="mm"
     inkscape:current-layer="layer1"
     inkscape:document-rotation="0"
     showgrid="false"
     fit-margin-top="0"
     fit-margin-left="0"
     fit-margin-right="0"
     fit-margin-bottom="0"
     inkscape:window-width="1920"
     inkscape:window-height="1001"
     inkscape:window-x="-9"
     inkscape:window-y="-9"
     inkscape:window-maximized="1" />
  <metadata
     id="metadata6771">
    <rdf:RDF>
      <cc:Work
         rdf:about="">
        <dc:format>image/svg+xml</dc:format>
        <dc:type
           rdf:resource="http://purl.org/dc/dcmitype/StillImage" />
        <dc:title></dc:title>
      </cc:Work>
    </rdf:RDF>
  </metadata>
  <g
     inkscape:label="Layer 1"
     inkscape:groupmode="layer"
     id="layer1"
     transform="translate(-457.59169,-340.91796)">
    <g
       id="g2362"
       style="opacity:1"
       inkscape:groupmode="layer" />
    <g
       id="g12139"
       transform="matrix(2.5700371,0,0,-2.5700371,5.2500996,1898.0442)"
       style="opacity:1;stroke-width:0.137266">
      <path
         style="color:#000000;font-style:normal;font-variant:normal;font-weight:normal;font-stretch:normal;font-size:medium;line-height:normal;font-family:sans-serif;font-variant-ligatures:normal;font-variant-position:normal;font-variant-caps:normal;font-variant-numeric:normal;font-variant-alternates:normal;font-variant-east-asian:normal;font-feature-settings:normal;font-variation-settings:normal;text-indent:0;text-align:start;text-decoration:none;text-decoration-line:none;text-decoration-style:solid;text-decoration-color:#000000;letter-spacing:normal;word-spacing:normal;text-transform:none;writing-mode:lr-tb;direction:ltr;text-orientation:mixed;dominant-baseline:auto;baseline-shift:baseline;text-anchor:start;white-space:normal;shape-padding:0;shape-margin:0;inline-size:0;clip-rule:nonzero;display:inline;overflow:visible;visibility:visible;isolation:auto;mix-blend-mode:normal;color-interpolation:sRGB;color-interpolation-filters:linearRGB;solid-color:#000000;solid-opacity:1;vector-effect:none;fill:#ffffff;fill-opacity:1;fill-rule:nonzero;stroke:none;stroke-width:0.0411797;stroke-linecap:round;stroke-linejoin:round;stroke-miterlimit:22.926;stroke-dasharray:none;stroke-dashoffset:0;stroke-opacity:1;color-rendering:auto;image-rendering:auto;shape-rendering:auto;text-rendering:auto;enable-background:accumulate;stop-color:#000000;stop-opacity:1"
         d="m 176.15625,601.91016 c 0,2.125 1.69141,3.8164 3.82031,3.8164 h 53.83203 c 2.125,0 3.82032,-1.6914 3.81641,-3.8164 l -0.0156,-23.09766 c 0,-2.12891 -1.67578,-3.82031 -3.80078,-3.82031 h -53.83203 c -2.1289,0 -3.82031,1.6914 -3.82031,3.82031 z m 0,0"
         id="path12141" />
      <path
         style="color:#000000;font-style:normal;font-variant:normal;font-weight:normal;font-stretch:normal;font-size:medium;line-height:normal;font-family:sans-serif;font-variant-ligatures:normal;font-variant-position:normal;font-variant-caps:normal;font-variant-numeric:normal;font-variant-alternates:normal;font-variant-east-asian:normal;font-feature-settings:normal;font-variation-settings:normal;text-indent:0;text-align:start;text-decoration:none;text-decoration-line:none;text-decoration-style:solid;text-decoration-color:#000000;letter-spacing:normal;word-spacing:normal;text-transform:none;writing-mode:lr-tb;direction:ltr;text-orientation:mixed;dominant-baseline:auto;baseline-shift:baseline;text-anchor:start;white-space:normal;shape-padding:0;shape-margin:0;inline-size:0;clip-rule:nonzero;display:inline;overflow:visible;visibility:visible;isolation:auto;mix-blend-mode:normal;color-interpolation:sRGB;color-interpolation-filters:linearRGB;solid-color:#000000;solid-opacity:1;vector-effect:none;fill:#000000;fill-opacity:1;fill-rule:nonzero;stroke:none;stroke-width:0.0411797;stroke-linecap:round;stroke-linejoin:round;stroke-miterlimit:22.926;stroke-dasharray:none;stroke-dashoffset:0;stroke-opacity:1;color-rendering:auto;image-rendering:auto;shape-rendering:auto;text-rendering:auto;enable-background:accumulate;stop-color:#000000;stop-opacity:1"
         d="m 179.97656,574.8418 c -2.20835,0 -3.9707,1.76234 -3.9707,3.9707 v 23.09766 c 0,2.20459 1.76235,3.96679 3.9707,3.96679 h 53.83203 c 2.2046,0 3.97086,-1.76187 3.9668,-3.96679 l -0.0156,-23.09766 c 0,-2.20763 -1.74658,-3.9707 -3.95118,-3.9707 z m 0,0.30078 h 53.83203 c 2.04541,0 3.65039,1.61973 3.65039,3.66992 l 0.0156,23.09766 c 0.004,2.04507 -1.62061,3.66601 -3.66602,3.66601 h -53.83203 c -2.04945,0 -3.66992,-1.62061 -3.66992,-3.66601 V 578.8125 c 0,-2.04946 1.62047,-3.66992 3.66992,-3.66992 z"
         id="path12143" />
    </g>
    <path
       id="path9365"
       style="color:#000000;font-style:normal;font-variant:normal;font-weight:normal;font-stretch:normal;font-size:medium;line-height:normal;font-family:sans-serif;font-variant-ligatures:normal;font-variant-position:normal;font-variant-caps:normal;font-variant-numeric:normal;font-variant-alternates:normal;font-variant-east-asian:normal;font-feature-settings:normal;font-variation-settings:normal;text-indent:0;text-align:start;text-decoration:none;text-decoration-line:none;text-decoration-style:solid;text-decoration-color:#000000;letter-spacing:normal;word-spacing:normal;text-transform:none;writing-mode:lr-tb;direction:ltr;text-orientation:mixed;dominant-baseline:auto;baseline-shift:baseline;text-anchor:start;white-space:normal;shape-padding:0;shape-margin:0;inline-size:0;clip-rule:nonzero;display:inline;overflow:visible;visibility:visible;opacity:1;isolation:auto;mix-blend-mode:normal;color-interpolation:sRGB;color-interpolation-filters:linearRGB;solid-color:#000000;solid-opacity:1;vector-effect:none;fill:#000000;fill-opacity:1;fill-rule:nonzero;stroke:none;stroke-width:0.460023;stroke-linecap:round;stroke-linejoin:round;stroke-miterlimit:22.926;stroke-dasharray:none;stroke-dashoffset:0;stroke-opacity:1;color-rendering:auto;image-rendering:auto;shape-rendering:auto;text-rendering:auto;enable-background:accumulate;stop-color:#000000;stop-opacity:1"
       d="m 467.79654,343.97369 c -3.93733,0 -7.1492,3.19694 -7.1492,7.13791 v 59.36184 c 0,3.94097 3.20823,7.14913 7.1492,7.14913 h 138.34905 c 3.93383,0 7.13791,-3.20816 7.13791,-7.14913 V 351.1116 c 0,-3.94097 -3.20772,-7.13791 -7.13791,-7.13791 z m 0,3.35437 h 138.34905 c 2.17367,0 3.78726,1.60062 3.78726,3.78354 v 59.36184 c 0,2.18292 -1.61723,3.79483 -3.78726,3.79483 H 467.79654 c -2.18292,0 -3.79483,-1.61191 -3.79483,-3.79483 V 351.1116 c 0,-2.18292 1.60827,-3.78354 3.79483,-3.78354 z m 3.23388,9.59621 v 1.92758 H 493.837 v 43.80229 h 1.63763 v -43.80229 h 5.47012 c -0.44148,0 -0.83204,0.35406 -0.83204,0.83575 v 39.98488 c 0,0.43201 0.35115,0.83196 0.84333,0.83196 h 14.59572 c 0.58208,0 0.85586,-0.45896 0.86591,-0.82067 l 0.79058,-39.97737 c 0.007,-0.48738 -0.37008,-0.83444 -0.80566,-0.85455 h 5.26308 v 43.80229 h 1.72796 v -43.80229 h 5.47013 c -0.45168,0 -0.84326,0.35406 -0.84326,0.83575 v 39.98488 c 0,0.43201 0.36134,0.83196 0.84326,0.83196 h 14.60708 c 0.57261,0 0.85462,-0.45896 0.85462,-0.82067 l 0.79429,-39.97737 c 0.007,-0.48738 -0.37154,-0.83423 -0.79808,-0.85455 h 5.2555 v 43.80229 h 1.73554 v -43.80229 h 5.46255 c -0.44148,0 -0.83575,0.35406 -0.83575,0.83575 v 39.98488 c 0,0.43201 0.35114,0.83196 0.84332,0.83196 h 14.59951 c 0.58208,0 0.85207,-0.45896 0.86212,-0.82067 l 0.79437,-39.97737 c 0.007,-0.48738 -0.37008,-0.83444 -0.80566,-0.85455 h 5.26301 v 43.80229 h 1.72424 v -43.80229 h 22.82167 v -1.92758 z m 43.87005,10.72191 c 0.41161,0 0.73288,0.40287 0.60248,0.82446 l -1.72797,5.43997 c -0.0801,0.25061 -0.31981,0.43273 -0.59082,0.43273 h -9.29505 c -0.2812,0 -0.52234,-0.18067 -0.60248,-0.45167 l -1.60754,-5.43246 c -0.11073,-0.38175 0.16028,-0.80195 0.60248,-0.80195 z m 27.90778,0 c 0.41161,0 0.74411,0.40287 0.61341,0.82446 l -1.72804,5.43997 c -0.0801,0.25061 -0.32127,0.43273 -0.60248,0.43273 h -9.29504 c -0.27101,0 -0.52235,-0.18067 -0.60248,-0.45167 l -1.59625,-5.43246 c -0.1202,-0.38175 0.16027,-0.80195 0.60248,-0.80195 z m 27.91901,0 c 0.41161,0 0.73288,0.40287 0.60248,0.82446 l -1.71667,5.43997 c -0.0903,0.25061 -0.32856,0.43273 -0.60977,0.43273 h -9.28754 c -0.28121,0 -0.52234,-0.18067 -0.60248,-0.45167 l -1.60754,-5.43246 c -0.11074,-0.38175 0.16027,-0.80195 0.60248,-0.80195 z m -69.50393,4.74351 c 0.0889,-0.0219 0.18796,0.0146 0.23313,0.11656 l 1.06545,2.51855 c 0.0583,0.1304 0.0729,0.20325 0.0729,0.32346 l 0.0219,8.68141 c 0,0.14061 -0.0219,0.24333 -0.0729,0.35406 l -1.08425,2.42821 c -0.10054,0.20034 -0.39923,0.13041 -0.39923,-0.0903 v -14.12517 c 0,-0.11511 0.0765,-0.18796 0.16538,-0.2069 z m 27.91151,0 c 0.0903,-0.0219 0.19305,0.0146 0.23312,0.11656 l 1.07296,2.51855 c 0.051,0.1304 0.0583,0.20325 0.0583,0.32346 l 0.0218,8.68141 c 0.007,0.14061 -0.007,0.24333 -0.0656,0.35406 l -1.08425,2.42821 c -0.0903,0.20034 -0.39121,0.13041 -0.39121,-0.0903 l -0.0146,-14.12517 c 0,-0.11511 0.0794,-0.18796 0.16974,-0.2069 z m 27.91529,0 c 0.0889,-0.0219 0.1916,0.0146 0.23749,0.11656 l 1.06167,2.51855 c 0.0583,0.1304 0.0729,0.20325 0.0729,0.32346 l 0.0218,8.68141 c 0,0.14061 -0.0146,0.24333 -0.0656,0.35406 l -1.08425,2.42821 c -0.0903,0.20034 -0.40287,0.13041 -0.40287,-0.0903 v -14.12517 c 0,-0.11511 0.0765,-0.18796 0.16537,-0.2069 z m -41.21979,0.13914 c 0.0903,0.0219 0.1712,0.0918 0.16537,0.2069 l -0.26372,14.12517 c -0.007,0.22074 -0.30889,0.29359 -0.39922,0.083 l -1.04659,-2.45087 c -0.051,-0.11073 -0.0656,-0.212 -0.0656,-0.3424 l 0.18795,-8.68142 c 0.007,-0.1202 0.0146,-0.20107 0.0728,-0.33147 l 1.11434,-2.49218 c 0.0437,-0.10126 0.14643,-0.13623 0.2375,-0.11656 z m 27.91529,0 c 0.0889,0.0219 0.16974,0.0918 0.16974,0.2069 l -0.271,14.12517 c 0,0.22074 -0.31254,0.29359 -0.40287,0.083 l -1.03529,-2.45087 c -0.051,-0.11073 -0.0772,-0.212 -0.0656,-0.3424 l 0.18869,-8.68142 c 0,-0.1202 0.0146,-0.20107 0.0729,-0.33147 l 1.11433,-2.49218 c 0.0437,-0.10126 0.14425,-0.13623 0.23313,-0.11656 z m 27.91908,0 c 0.0889,0.0219 0.16391,0.0918 0.15809,0.2069 l -0.26008,14.12517 c -0.007,0.22074 -0.31254,0.29359 -0.40287,0.083 l -1.04287,-2.45087 c -0.051,-0.11073 -0.0729,-0.212 -0.0729,-0.3424 l 0.19961,-8.68142 c 0,-0.1202 0.007,-0.20107 0.0583,-0.33147 l 1.11441,-2.49218 c 0.051,-0.10126 0.1559,-0.13623 0.24478,-0.11656 z m -67.77596,12.88655 h 9.29504 c 0.27101,0 0.51069,0.18286 0.59083,0.44439 l 1.72796,5.43997 c 0.14061,0.42181 -0.19087,0.81324 -0.60248,0.81316 h -12.61925 c -0.43201,0 -0.71249,-0.42035 -0.60249,-0.80187 l 1.60754,-5.44375 c 0.0801,-0.26081 0.32128,-0.45168 0.60249,-0.45168 z m 27.91901,0 h 9.28375 c 0.2812,0 0.52234,0.18286 0.60248,0.44439 l 1.72803,5.43997 c 0.13041,0.42181 -0.20107,0.81324 -0.60248,0.81316 h -12.61925 c -0.44148,0 -0.72269,-0.42035 -0.60248,-0.80187 l 1.60746,-5.44375 c 0.0801,-0.26081 0.32128,-0.45168 0.60249,-0.45168 z m 27.90778,0 h 9.29505 c 0.271,0 0.51214,0.18286 0.60248,0.44439 l 1.71667,5.43997 c 0.1406,0.42181 -0.19087,0.81324 -0.60248,0.81316 H 558.108 c -0.43201,0 -0.71249,-0.42035 -0.60248,-0.80187 l 1.60754,-5.44375 c 0.0801,-0.26081 0.32128,-0.45168 0.60248,-0.45168 z" />
  </g>
</svg>
