<?xml version="1.0" encoding="UTF-8" standalone="no"?>
<svg
   xmlns:dc="http://purl.org/dc/elements/1.1/"
   xmlns:cc="http://creativecommons.org/ns#"
   xmlns:rdf="http://www.w3.org/1999/02/22-rdf-syntax-ns#"
   xmlns:svg="http://www.w3.org/2000/svg"
   xmlns="http://www.w3.org/2000/svg"
   xmlns:sodipodi="http://sodipodi.sourceforge.net/DTD/sodipodi-0.dtd"
   xmlns:inkscape="http://www.inkscape.org/namespaces/inkscape"
   width="158.75mm"
   height="79.76149mm"
   viewBox="0 0 158.74999 79.761484"
   version="1.1"
   id="svg6774"
   inkscape:version="1.0 (4035a4fb49, 2020-05-01)"
   sodipodi:docname="Latvia_road_sign_844.svg">
  <defs
     id="defs6768" />
  <sodipodi:namedview
     id="base"
     pagecolor="#ffffff"
     bordercolor="#666666"
     borderopacity="1.0"
     inkscape:pageopacity="0.0"
     inkscape:pageshadow="2"
     inkscape:zoom="0.55666667"
     inkscape:cx="-421.97418"
     inkscape:cy="43.611184"
     inkscape:document-units="mm"
     inkscape:current-layer="layer1"
     inkscape:document-rotation="0"
     showgrid="false"
     fit-margin-top="0"
     fit-margin-left="0"
     fit-margin-right="0"
     fit-margin-bottom="0"
     inkscape:window-width="1920"
     inkscape:window-height="1001"
     inkscape:window-x="-9"
     inkscape:window-y="-9"
     inkscape:window-maximized="1" />
  <metadata
     id="metadata6771">
    <rdf:RDF>
      <cc:Work
         rdf:about="">
        <dc:format>image/svg+xml</dc:format>
        <dc:type
           rdf:resource="http://purl.org/dc/dcmitype/StillImage" />
        <dc:title></dc:title>
      </cc:Work>
    </rdf:RDF>
  </metadata>
  <g
     inkscape:label="Layer 1"
     inkscape:groupmode="layer"
     id="layer1"
     transform="translate(-805.83873,-443.74398)">
    <g
       id="g2362"
       style="opacity:1"
       inkscape:groupmode="layer" />
    <g
       id="g12193"
       transform="matrix(2.5700371,0,0,-2.5700371,353.49714,722.32696)"
       style="opacity:1;stroke-width:0.137266">
      <path
         style="color:#000000;font-style:normal;font-variant:normal;font-weight:normal;font-stretch:normal;font-size:medium;line-height:normal;font-family:sans-serif;font-variant-ligatures:normal;font-variant-position:normal;font-variant-caps:normal;font-variant-numeric:normal;font-variant-alternates:normal;font-variant-east-asian:normal;font-feature-settings:normal;font-variation-settings:normal;text-indent:0;text-align:start;text-decoration:none;text-decoration-line:none;text-decoration-style:solid;text-decoration-color:#000000;letter-spacing:normal;word-spacing:normal;text-transform:none;writing-mode:lr-tb;direction:ltr;text-orientation:mixed;dominant-baseline:auto;baseline-shift:baseline;text-anchor:start;white-space:normal;shape-padding:0;shape-margin:0;inline-size:0;clip-rule:nonzero;display:inline;overflow:visible;visibility:visible;isolation:auto;mix-blend-mode:normal;color-interpolation:sRGB;color-interpolation-filters:linearRGB;solid-color:#000000;solid-opacity:1;vector-effect:none;fill:#ffffff;fill-opacity:1;fill-rule:nonzero;stroke:none;stroke-width:0.0411797;stroke-linecap:round;stroke-linejoin:round;stroke-miterlimit:22.926;stroke-dasharray:none;stroke-dashoffset:0;stroke-opacity:1;color-rendering:auto;image-rendering:auto;shape-rendering:auto;text-rendering:auto;enable-background:accumulate;stop-color:#000000;stop-opacity:1"
         d="m 176.15625,104.42969 c 0,2.125 1.69141,3.8164 3.82031,3.8164 h 53.83203 c 2.125,0 3.82032,-1.6914 3.81641,-3.8164 l -0.0156,-23.097659 c 0,-2.128906 -1.67578,-3.820312 -3.80078,-3.820312 h -53.83203 c -2.1289,0 -3.82031,1.691406 -3.82031,3.820312 z m 0,0"
         id="path12195" />
      <path
         style="color:#000000;font-style:normal;font-variant:normal;font-weight:normal;font-stretch:normal;font-size:medium;line-height:normal;font-family:sans-serif;font-variant-ligatures:normal;font-variant-position:normal;font-variant-caps:normal;font-variant-numeric:normal;font-variant-alternates:normal;font-variant-east-asian:normal;font-feature-settings:normal;font-variation-settings:normal;text-indent:0;text-align:start;text-decoration:none;text-decoration-line:none;text-decoration-style:solid;text-decoration-color:#000000;letter-spacing:normal;word-spacing:normal;text-transform:none;writing-mode:lr-tb;direction:ltr;text-orientation:mixed;dominant-baseline:auto;baseline-shift:baseline;text-anchor:start;white-space:normal;shape-padding:0;shape-margin:0;inline-size:0;clip-rule:nonzero;display:inline;overflow:visible;visibility:visible;isolation:auto;mix-blend-mode:normal;color-interpolation:sRGB;color-interpolation-filters:linearRGB;solid-color:#000000;solid-opacity:1;vector-effect:none;fill:#000000;fill-opacity:1;fill-rule:nonzero;stroke:none;stroke-width:0.0411797;stroke-linecap:round;stroke-linejoin:round;stroke-miterlimit:22.926;stroke-dasharray:none;stroke-dashoffset:0;stroke-opacity:1;color-rendering:auto;image-rendering:auto;shape-rendering:auto;text-rendering:auto;enable-background:accumulate;stop-color:#000000;stop-opacity:1"
         d="m 179.97656,77.361328 c -2.20835,0 -3.9707,1.762348 -3.9707,3.970703 v 23.097659 c 0,2.20459 1.76235,3.96679 3.9707,3.96679 h 53.83203 c 2.2046,0 3.97086,-1.76187 3.9668,-3.96679 l -0.0156,-23.097659 c 0,-2.207621 -1.74658,-3.970703 -3.95118,-3.970703 z m 0,0.300781 h 53.83203 c 2.04541,0 3.65039,1.619732 3.65039,3.669922 l 0.0156,23.097659 c 0.004,2.04507 -1.62061,3.66601 -3.66602,3.66601 h -53.83203 c -2.04945,0 -3.66992,-1.62061 -3.66992,-3.66601 V 81.332031 c 0,-2.049456 1.62047,-3.669922 3.66992,-3.669922 z"
         id="path12197" />
    </g>
    <path
       id="path8575"
       style="fill:#000000;fill-opacity:1;fill-rule:evenodd;stroke:none;stroke-width:0.352777"
       d="m 816.04358,446.80224 c -3.93732,0 -7.1492,3.19686 -7.1492,7.13784 v 59.36183 c 0,3.94105 3.20823,7.14534 7.1492,7.14534 h 138.34905 c 3.93384,0 7.13791,-3.20429 7.13791,-7.14534 v -59.36183 c 0,-3.94098 -3.20772,-7.13784 -7.13791,-7.13784 z m 0,3.35058 h 138.34905 c 2.17367,0 3.78726,1.60441 3.78726,3.78726 v 59.36183 c 0,2.18292 -1.61723,3.79491 -3.78726,3.79491 H 816.04358 c -2.18292,0 -3.79483,-1.61199 -3.79483,-3.79491 v -59.36183 c 0,-2.18285 1.60827,-3.78726 3.79483,-3.78726 z m 77.05971,4.6005 c -2.91143,0 -5.65961,2.22867 -5.51908,5.57175 -0.0291,3.32297 3.10209,5.632 5.54167,5.36092 l -0.65494,12.01692 h -15.19812 v 3.89274 h 14.81791 l -0.21054,5.19161 -18.08945,-0.11 -5.68467,16.24092 -6.06117,-1.71668 -1.03529,3.70435 9.64895,2.9628 c 0,0 5.50145,-16.10163 5.93317,-17.4869 l 18.58259,-0.0583 1.62633,-26.11192 c 0.9537,-0.86337 1.6063,-2.17098 1.68658,-3.72708 0.19088,-3.23264 -2.47214,-5.72984 -5.3835,-5.72984 z m 5.11243,22.51663 -0.24114,3.34308 c 5.71228,2.39936 9.51717,8.13299 9.24609,13.92555 0.51214,8.38287 -6.71749,15.50811 -15.10021,15.66867 -7.75023,-0.68261 -12.53898,-3.29026 -15.39009,-11.69309 l -1.41558,4.26538 c 1.79703,7.64998 10.38935,10.6629 16.67388,10.64287 8.94499,-0.0291 18.65536,-7.31866 18.27391,-19.93777 -0.40141,-6.91717 -5.07986,-13.63458 -12.04708,-16.21469 z" />
  </g>
</svg>
