<?xml version="1.0" encoding="UTF-8" standalone="no"?>
<svg
   xmlns:dc="http://purl.org/dc/elements/1.1/"
   xmlns:cc="http://creativecommons.org/ns#"
   xmlns:rdf="http://www.w3.org/1999/02/22-rdf-syntax-ns#"
   xmlns:svg="http://www.w3.org/2000/svg"
   xmlns="http://www.w3.org/2000/svg"
   xmlns:sodipodi="http://sodipodi.sourceforge.net/DTD/sodipodi-0.dtd"
   xmlns:inkscape="http://www.inkscape.org/namespaces/inkscape"
   width="158.75mm"
   height="79.761513mm"
   viewBox="0 0 158.74999 79.761507"
   version="1.1"
   id="svg6774"
   inkscape:version="1.0 (4035a4fb49, 2020-05-01)"
   sodipodi:docname="Latvia_road_sign_841.svg">
  <defs
     id="defs6768" />
  <sodipodi:namedview
     id="base"
     pagecolor="#ffffff"
     bordercolor="#666666"
     borderopacity="1.0"
     inkscape:pageopacity="0.0"
     inkscape:pageshadow="2"
     inkscape:zoom="0.55666667"
     inkscape:cx="246.10354"
     inkscape:cy="339.02591"
     inkscape:document-units="mm"
     inkscape:current-layer="layer1"
     inkscape:document-rotation="0"
     showgrid="false"
     fit-margin-top="0"
     fit-margin-left="0"
     fit-margin-right="0"
     fit-margin-bottom="0"
     inkscape:window-width="1920"
     inkscape:window-height="1001"
     inkscape:window-x="-9"
     inkscape:window-y="-9"
     inkscape:window-maximized="1" />
  <metadata
     id="metadata6771">
    <rdf:RDF>
      <cc:Work
         rdf:about="">
        <dc:format>image/svg+xml</dc:format>
        <dc:type
           rdf:resource="http://purl.org/dc/dcmitype/StillImage" />
        <dc:title></dc:title>
      </cc:Work>
    </rdf:RDF>
  </metadata>
  <g
     inkscape:label="Layer 1"
     inkscape:groupmode="layer"
     id="layer1"
     transform="translate(-586.14112,-365.58218)">
    <g
       id="g2362"
       style="opacity:1"
       inkscape:groupmode="layer" />
    <g
       id="g12175"
       transform="matrix(2.5700371,0,0,-2.5700371,133.79953,1070.3496)"
       style="opacity:1;stroke-width:0.137266">
      <path
         style="color:#000000;font-style:normal;font-variant:normal;font-weight:normal;font-stretch:normal;font-size:medium;line-height:normal;font-family:sans-serif;font-variant-ligatures:normal;font-variant-position:normal;font-variant-caps:normal;font-variant-numeric:normal;font-variant-alternates:normal;font-variant-east-asian:normal;font-feature-settings:normal;font-variation-settings:normal;text-indent:0;text-align:start;text-decoration:none;text-decoration-line:none;text-decoration-style:solid;text-decoration-color:#000000;letter-spacing:normal;word-spacing:normal;text-transform:none;writing-mode:lr-tb;direction:ltr;text-orientation:mixed;dominant-baseline:auto;baseline-shift:baseline;text-anchor:start;white-space:normal;shape-padding:0;shape-margin:0;inline-size:0;clip-rule:nonzero;display:inline;overflow:visible;visibility:visible;isolation:auto;mix-blend-mode:normal;color-interpolation:sRGB;color-interpolation-filters:linearRGB;solid-color:#000000;solid-opacity:1;vector-effect:none;fill:#ffffff;fill-opacity:1;fill-rule:nonzero;stroke:none;stroke-width:0.0411797;stroke-linecap:round;stroke-linejoin:round;stroke-miterlimit:22.926;stroke-dasharray:none;stroke-dashoffset:0;stroke-opacity:1;color-rendering:auto;image-rendering:auto;shape-rendering:auto;text-rendering:auto;enable-background:accumulate;stop-color:#000000;stop-opacity:1"
         d="m 176.15625,270.25391 c 0,2.1289 1.69141,3.82031 3.82031,3.82031 h 53.83203 c 2.125,0 3.82032,-1.69141 3.81641,-3.82031 l -0.0156,-23.09375 c 0,-2.12891 -1.67578,-3.82032 -3.80078,-3.82032 h -53.83203 c -2.1289,0 -3.82031,1.69141 -3.82031,3.82032 z m 0,0"
         id="path12177" />
      <path
         style="color:#000000;font-style:normal;font-variant:normal;font-weight:normal;font-stretch:normal;font-size:medium;line-height:normal;font-family:sans-serif;font-variant-ligatures:normal;font-variant-position:normal;font-variant-caps:normal;font-variant-numeric:normal;font-variant-alternates:normal;font-variant-east-asian:normal;font-feature-settings:normal;font-variation-settings:normal;text-indent:0;text-align:start;text-decoration:none;text-decoration-line:none;text-decoration-style:solid;text-decoration-color:#000000;letter-spacing:normal;word-spacing:normal;text-transform:none;writing-mode:lr-tb;direction:ltr;text-orientation:mixed;dominant-baseline:auto;baseline-shift:baseline;text-anchor:start;white-space:normal;shape-padding:0;shape-margin:0;inline-size:0;clip-rule:nonzero;display:inline;overflow:visible;visibility:visible;isolation:auto;mix-blend-mode:normal;color-interpolation:sRGB;color-interpolation-filters:linearRGB;solid-color:#000000;solid-opacity:1;vector-effect:none;fill:#000000;fill-opacity:1;fill-rule:nonzero;stroke:none;stroke-width:0.0411797;stroke-linecap:round;stroke-linejoin:round;stroke-miterlimit:22.926;stroke-dasharray:none;stroke-dashoffset:0;stroke-opacity:1;color-rendering:auto;image-rendering:auto;shape-rendering:auto;text-rendering:auto;enable-background:accumulate;stop-color:#000000;stop-opacity:1"
         d="m 179.97656,243.18945 c -2.20835,0 -3.9707,1.76235 -3.9707,3.97071 v 23.09375 c 0,2.20835 1.76235,3.9707 3.9707,3.9707 h 53.83203 c 2.2046,0 3.97086,-1.76202 3.9668,-3.9707 l -0.0156,-23.09375 c 0,-2.20763 -1.74658,-3.97071 -3.95118,-3.97071 z m 0,0.30078 h 53.83203 c 2.04541,0 3.65039,1.61973 3.65039,3.66993 l 0.0156,23.09375 c 0.004,2.04912 -1.62061,3.66992 -3.66602,3.66992 h -53.83203 c -2.04945,0 -3.66992,-1.62047 -3.66992,-3.66992 v -23.09375 c 0,-2.04946 1.62047,-3.66993 3.66992,-3.66993 z"
         id="path12179" />
    </g>
    <path
       id="path8479"
       style="fill:#000000;fill-opacity:1;fill-rule:evenodd;stroke:none;stroke-width:0.352777"
       d="m 596.34593,368.63809 c -3.94097,0 -7.14921,3.20816 -7.14921,7.14913 v 59.35054 c 0,3.94105 3.20824,7.14921 7.14921,7.14913 h 138.34905 c 3.93383,8e-5 7.13791,-3.20808 7.13791,-7.14913 v -59.35054 c 0,-3.94097 -3.20408,-7.14913 -7.13791,-7.14913 z m 0,3.3543 h 138.34905 c 2.17002,0 3.78725,1.61198 3.78725,3.79483 v 45.06729 l -32.48934,-14.60708 -80.64371,0.007 -32.79808,14.32827 v -44.79621 c 0,-2.18284 1.61191,-3.79483 3.79483,-3.79483 z m 59.37312,6.6372 -8.82449,9.49459 -17.97267,2.87246 -0.75292,1.76562 75.15472,-0.0219 -1.69788,-4.54783 -15.12658,0.0291 -7.81172,-9.59621 z m 9.92754,1.664 -0.0218,7.93221 h -16.6475 c 2.29897,-2.75072 4.81125,-5.24173 7.16042,-7.90212 z m 10.36043,0 5.95203,7.87197 -14.69741,0.0146 v -7.85317 z m -30.68984,13.52283 c 2.66039,1.87731 3.64549,3.46343 3.62538,6.56559 l 26.99292,-0.0146 c -0.34896,-3.21056 1.79032,-5.65866 3.81741,-6.53171 z m 58.04796,0 -17.31009,0.0291 c 2.89126,1.50592 3.69561,2.95151 4.07713,6.59576 l 8.99388,-0.86206 z m -75.76842,0.0219 -0.007,2.53742 1.81458,2.60145 5.32333,1.05408 c 0.2812,-2.84113 0.64983,-4.54651 3.77217,-6.16286 z m 14.2155,0.007 c -3.39327,0 -6.16279,2.76202 -6.16279,6.1553 0,3.3932 2.76952,6.15529 6.16279,6.15529 3.38322,0 6.15529,-2.76209 6.15529,-6.15529 0,-3.39328 -2.77207,-6.1553 -6.15529,-6.1553 z m 41.23101,0.0729 c -3.39328,0 -6.15151,2.76201 -6.15151,6.15521 0,3.39328 2.75823,6.15158 6.15151,6.15158 3.38322,0 6.15529,-2.7583 6.15529,-6.15158 0,-3.3932 -2.77207,-6.15529 -6.15529,-6.15521 z m -41.23101,2.81221 c 1.79703,0 3.27533,1.47451 3.27533,3.27146 0,1.80708 -1.4783,3.27154 -3.27533,3.27154 -1.80708,0 -3.28283,-1.46446 -3.28283,-3.27154 0,-1.79695 1.47575,-3.27146 3.28283,-3.27146 z m 41.23101,0.0583 c 1.79702,0 3.28283,1.4858 3.28283,3.28283 0,1.80708 -1.48581,3.27154 -3.28283,3.27154 -1.80708,0 -3.27154,-1.46446 -3.27154,-3.27154 0,-1.79703 1.46446,-3.28283 3.27154,-3.28283 z m 20.49129,18.08945 34.94771,15.40138 v 4.85642 c 0,2.18299 -1.61723,3.79483 -3.78725,3.79483 h -31.10021 z m -69.71097,0.1202 63.41638,0.0437 -0.0218,23.89083 H 634.005 Z m -6.41508,0.22949 0.16538,23.70258 h -31.22821 c -2.18292,0 -3.79484,-1.61184 -3.79484,-3.79483 v -4.71713 z" />
  </g>
</svg>
