<?xml version="1.0" encoding="UTF-8" standalone="no"?>
<svg
   xmlns:dc="http://purl.org/dc/elements/1.1/"
   xmlns:cc="http://creativecommons.org/ns#"
   xmlns:rdf="http://www.w3.org/1999/02/22-rdf-syntax-ns#"
   xmlns:svg="http://www.w3.org/2000/svg"
   xmlns="http://www.w3.org/2000/svg"
   xmlns:sodipodi="http://sodipodi.sourceforge.net/DTD/sodipodi-0.dtd"
   xmlns:inkscape="http://www.inkscape.org/namespaces/inkscape"
   width="158.75mm"
   height="79.761497mm"
   viewBox="0 0 158.74999 79.761492"
   version="1.1"
   id="svg6774"
   inkscape:version="1.0 (4035a4fb49, 2020-05-01)"
   sodipodi:docname="Latvia_road_sign_812.svg">
  <defs
     id="defs6768" />
  <sodipodi:namedview
     id="base"
     pagecolor="#ffffff"
     bordercolor="#666666"
     borderopacity="1.0"
     inkscape:pageopacity="0.0"
     inkscape:pageshadow="2"
     inkscape:zoom="0.40983509"
     inkscape:cx="-802.03057"
     inkscape:cy="-518.22882"
     inkscape:document-units="mm"
     inkscape:current-layer="layer1"
     inkscape:document-rotation="0"
     showgrid="false"
     fit-margin-top="0"
     fit-margin-left="0"
     fit-margin-right="0"
     fit-margin-bottom="0"
     inkscape:window-width="1920"
     inkscape:window-height="1001"
     inkscape:window-x="-9"
     inkscape:window-y="-9"
     inkscape:window-maximized="1" />
  <metadata
     id="metadata6771">
    <rdf:RDF>
      <cc:Work
         rdf:about="">
        <dc:format>image/svg+xml</dc:format>
        <dc:type
           rdf:resource="http://purl.org/dc/dcmitype/StillImage" />
        <dc:title></dc:title>
      </cc:Work>
    </rdf:RDF>
  </metadata>
  <g
     inkscape:label="Layer 1"
     inkscape:groupmode="layer"
     id="layer1"
     transform="translate(116.39126,-180.51518)">
    <g
       id="g2362"
       style="opacity:1"
       inkscape:groupmode="layer" />
    <g
       id="g3974"
       transform="matrix(2.5700374,0,0,-2.5700374,-575.02749,1666.6142)"
       style="opacity:1;stroke-width:0.137266">
      <path
         style="color:#000000;font-style:normal;font-variant:normal;font-weight:normal;font-stretch:normal;font-size:medium;line-height:normal;font-family:sans-serif;font-variant-ligatures:normal;font-variant-position:normal;font-variant-caps:normal;font-variant-numeric:normal;font-variant-alternates:normal;font-variant-east-asian:normal;font-feature-settings:normal;font-variation-settings:normal;text-indent:0;text-align:start;text-decoration:none;text-decoration-line:none;text-decoration-style:solid;text-decoration-color:#000000;letter-spacing:normal;word-spacing:normal;text-transform:none;writing-mode:lr-tb;direction:ltr;text-orientation:mixed;dominant-baseline:auto;baseline-shift:baseline;text-anchor:start;white-space:normal;shape-padding:0;shape-margin:0;inline-size:0;clip-rule:nonzero;display:inline;overflow:visible;visibility:visible;isolation:auto;mix-blend-mode:normal;color-interpolation:sRGB;color-interpolation-filters:linearRGB;solid-color:#000000;solid-opacity:1;vector-effect:none;fill:#ffffff;fill-opacity:1;fill-rule:nonzero;stroke:none;stroke-width:0.0411798;stroke-linecap:round;stroke-linejoin:round;stroke-miterlimit:22.926;stroke-dasharray:none;stroke-dashoffset:0;stroke-opacity:1;color-rendering:auto;image-rendering:auto;shape-rendering:auto;text-rendering:auto;enable-background:accumulate;stop-color:#000000;stop-opacity:1"
         d="m 178.60547,574.27344 c 0,2.125 1.6914,3.8164 3.82031,3.8164 h 53.82813 c 2.1289,0 3.82031,-1.6914 3.82031,-3.8164 l -0.0156,-23.09766 c 0,-2.12891 -1.67578,-3.82031 -3.80468,-3.82031 h -53.82813 c -2.12891,0 -3.82031,1.6914 -3.82031,3.82031 z m 0,0"
         id="path3976" />
      <path
         style="color:#000000;font-style:normal;font-variant:normal;font-weight:normal;font-stretch:normal;font-size:medium;line-height:normal;font-family:sans-serif;font-variant-ligatures:normal;font-variant-position:normal;font-variant-caps:normal;font-variant-numeric:normal;font-variant-alternates:normal;font-variant-east-asian:normal;font-feature-settings:normal;font-variation-settings:normal;text-indent:0;text-align:start;text-decoration:none;text-decoration-line:none;text-decoration-style:solid;text-decoration-color:#000000;letter-spacing:normal;word-spacing:normal;text-transform:none;writing-mode:lr-tb;direction:ltr;text-orientation:mixed;dominant-baseline:auto;baseline-shift:baseline;text-anchor:start;white-space:normal;shape-padding:0;shape-margin:0;inline-size:0;clip-rule:nonzero;display:inline;overflow:visible;visibility:visible;isolation:auto;mix-blend-mode:normal;color-interpolation:sRGB;color-interpolation-filters:linearRGB;solid-color:#000000;solid-opacity:1;vector-effect:none;fill:#000000;fill-opacity:1;fill-rule:nonzero;stroke:none;stroke-width:0.0411798;stroke-linecap:round;stroke-linejoin:round;stroke-miterlimit:22.926;stroke-dasharray:none;stroke-dashoffset:0;stroke-opacity:1;color-rendering:auto;image-rendering:auto;shape-rendering:auto;text-rendering:auto;enable-background:accumulate;stop-color:#000000;stop-opacity:1"
         d="m 182.42578,547.20508 c -2.20836,0 -3.9707,1.76234 -3.9707,3.9707 v 23.09766 c 0,2.20459 1.76234,3.96679 3.9707,3.96679 h 53.82813 c 2.20835,0 3.9707,-1.7622 3.9707,-3.96679 l -0.0156,-23.09766 c 0,-2.20762 -1.74672,-3.9707 -3.95507,-3.9707 z m 0,0.30078 h 53.82813 c 2.04945,0 3.65429,1.61973 3.65429,3.66992 l 0.0156,23.09766 c 0,2.0454 -1.62047,3.66601 -3.66992,3.66601 h -53.82813 c -2.04946,0 -3.66992,-1.62061 -3.66992,-3.66601 v -23.09766 c 0,-2.04946 1.62046,-3.66992 3.66992,-3.66992 z"
         id="path3978" />
    </g>
    <path
       id="path3078"
       style="fill:#000000;fill-opacity:1;fill-rule:evenodd;stroke:none;stroke-width:0.352777"
       d="m -106.1864,183.57219 c -3.93741,0 -7.14921,3.19694 -7.14921,7.13791 v 59.36185 c 0,3.94097 3.20816,7.1492 7.14921,7.1492 H 32.155134 c 3.9409,0 7.145345,-3.20823 7.145345,-7.1492 V 190.7101 c 0,-3.94097 -3.208089,-7.13784 -7.145345,-7.13791 z m 0,3.35437 H 32.155134 c 2.186492,0 3.79476,1.60069 3.79476,3.78354 v 59.36185 c 0,2.18292 -1.611911,3.79483 -3.79476,3.79483 H -106.1864 c -2.183,0 -3.79483,-1.61191 -3.79483,-3.79483 V 190.7101 c 0,-2.18285 1.60819,-3.78354 3.79483,-3.78354 z m 87.009767,6.3925 -25.087929,25.05034 -8.112956,-14.72751 -11.904,44.15243 44.17122,-11.41459 -14.576919,-8.50446 24.9374153,-25.16704 z" />
  </g>
</svg>
