<?xml version="1.0" encoding="UTF-8" standalone="no"?>
<svg
   xmlns:dc="http://purl.org/dc/elements/1.1/"
   xmlns:cc="http://creativecommons.org/ns#"
   xmlns:rdf="http://www.w3.org/1999/02/22-rdf-syntax-ns#"
   xmlns:svg="http://www.w3.org/2000/svg"
   xmlns="http://www.w3.org/2000/svg"
   xmlns:sodipodi="http://sodipodi.sourceforge.net/DTD/sodipodi-0.dtd"
   xmlns:inkscape="http://www.inkscape.org/namespaces/inkscape"
   width="158.75mm"
   height="79.76149mm"
   viewBox="0 0 158.74999 79.761484"
   version="1.1"
   id="svg6774"
   inkscape:version="1.0 (4035a4fb49, 2020-05-01)"
   sodipodi:docname="Latvia_road_sign_825.svg">
  <defs
     id="defs6768" />
  <sodipodi:namedview
     id="base"
     pagecolor="#ffffff"
     bordercolor="#666666"
     borderopacity="1.0"
     inkscape:pageopacity="0.0"
     inkscape:pageshadow="2"
     inkscape:zoom="0.27833333"
     inkscape:cx="-707.79172"
     inkscape:cy="1349.6502"
     inkscape:document-units="mm"
     inkscape:current-layer="layer1"
     inkscape:document-rotation="0"
     showgrid="false"
     fit-margin-top="0"
     fit-margin-left="0"
     fit-margin-right="0"
     fit-margin-bottom="0"
     inkscape:window-width="1920"
     inkscape:window-height="1001"
     inkscape:window-x="-9"
     inkscape:window-y="-9"
     inkscape:window-maximized="1" />
  <metadata
     id="metadata6771">
    <rdf:RDF>
      <cc:Work
         rdf:about="">
        <dc:format>image/svg+xml</dc:format>
        <dc:type
           rdf:resource="http://purl.org/dc/dcmitype/StillImage" />
        <dc:title></dc:title>
      </cc:Work>
    </rdf:RDF>
  </metadata>
  <g
     inkscape:label="Layer 1"
     inkscape:groupmode="layer"
     id="layer1"
     transform="translate(-375.38117,-197.64937)">
    <g
       id="g2362"
       style="opacity:1"
       inkscape:groupmode="layer" />
    <g
       transform="matrix(2.5700373,0,0,-2.5700373,-113.46804,1470.6561)"
       id="g6905"
       style="opacity:1;stroke-width:0.137266">
      <path
         style="color:#000000;font-style:normal;font-variant:normal;font-weight:normal;font-stretch:normal;font-size:medium;line-height:normal;font-family:sans-serif;font-variant-ligatures:normal;font-variant-position:normal;font-variant-caps:normal;font-variant-numeric:normal;font-variant-alternates:normal;font-variant-east-asian:normal;font-feature-settings:normal;font-variation-settings:normal;text-indent:0;text-align:start;text-decoration:none;text-decoration-line:none;text-decoration-style:solid;text-decoration-color:#000000;letter-spacing:normal;word-spacing:normal;text-transform:none;writing-mode:lr-tb;direction:ltr;text-orientation:mixed;dominant-baseline:auto;baseline-shift:baseline;text-anchor:start;white-space:normal;shape-padding:0;shape-margin:0;inline-size:0;clip-rule:nonzero;display:inline;overflow:visible;visibility:visible;isolation:auto;mix-blend-mode:normal;color-interpolation:sRGB;color-interpolation-filters:linearRGB;solid-color:#000000;solid-opacity:1;vector-effect:none;fill:#ffffff;fill-opacity:1;fill-rule:nonzero;stroke:none;stroke-width:0.0411798;stroke-linecap:round;stroke-linejoin:round;stroke-miterlimit:22.926;stroke-dasharray:none;stroke-dashoffset:0;stroke-opacity:1;color-rendering:auto;image-rendering:auto;shape-rendering:auto;text-rendering:auto;enable-background:accumulate;stop-color:#000000;stop-opacity:1"
         d="m 190.36,491.356 c 0,2.128 1.692,3.82 3.82,3.82 h 53.831 c 2.127,0 3.821,-1.693 3.819,-3.82 l -0.015,-23.096 c -0.002,-2.127 -1.677,-3.819 -3.804,-3.819 H 194.18 c -2.128,0 -3.82,1.692 -3.82,3.819 z"
         id="path6907" />
      <path
         style="color:#000000;font-style:normal;font-variant:normal;font-weight:normal;font-stretch:normal;font-size:medium;line-height:normal;font-family:sans-serif;font-variant-ligatures:normal;font-variant-position:normal;font-variant-caps:normal;font-variant-numeric:normal;font-variant-alternates:normal;font-variant-east-asian:normal;font-feature-settings:normal;font-variation-settings:normal;text-indent:0;text-align:start;text-decoration:none;text-decoration-line:none;text-decoration-style:solid;text-decoration-color:#000000;letter-spacing:normal;word-spacing:normal;text-transform:none;writing-mode:lr-tb;direction:ltr;text-orientation:mixed;dominant-baseline:auto;baseline-shift:baseline;text-anchor:start;white-space:normal;shape-padding:0;shape-margin:0;inline-size:0;clip-rule:nonzero;display:inline;overflow:visible;visibility:visible;isolation:auto;mix-blend-mode:normal;color-interpolation:sRGB;color-interpolation-filters:linearRGB;solid-color:#000000;solid-opacity:1;vector-effect:none;fill:#000000;fill-opacity:1;fill-rule:nonzero;stroke:none;stroke-width:0.0411798;stroke-linecap:round;stroke-linejoin:round;stroke-miterlimit:22.926;stroke-dasharray:none;stroke-dashoffset:0;stroke-opacity:1;color-rendering:auto;image-rendering:auto;shape-rendering:auto;text-rendering:auto;enable-background:accumulate;stop-color:#000000;stop-opacity:1"
         d="m 194.17969,464.29102 c -2.20751,0 -3.96875,1.7622 -3.96875,3.96875 v 23.0957 c 0,2.20751 1.76124,3.9707 3.96875,3.9707 h 53.83203 c 2.20659,0 3.97082,-1.76398 3.96875,-3.9707 l -0.0156,-23.0957 c -0.002,-2.20568 -1.74657,-3.96875 -3.95312,-3.96875 z m 0,0.30078 h 53.83203 c 2.04745,0 3.65042,1.61964 3.65234,3.66797 l 0.0156,23.0957 c 0.002,2.04728 -1.62057,3.66992 -3.66797,3.66992 h -53.83203 c -2.04849,0 -3.66992,-1.62143 -3.66992,-3.66992 v -23.0957 c 0,-2.04746 1.62143,-3.66797 3.66992,-3.66797 z"
         id="path6909" />
    </g>
    <path
       id="path6084"
       style="fill:#000000;fill-opacity:1;fill-rule:evenodd;stroke:none;stroke-width:0.352777"
       d="m 385.58099,200.70748 c -3.94068,0 -7.14163,3.20473 -7.14163,7.14541 v 59.35805 c 0,3.93886 3.20095,7.14163 7.14163,7.14163 h 138.34906 c 3.93886,0 7.13791,-3.20277 7.13791,-7.14163 v -59.35805 c 0,-3.94068 -3.19905,-7.14541 -7.13791,-7.14541 z m 0,3.35058 h 138.34906 c 2.18299,0 3.79104,1.60856 3.79104,3.79483 v 59.35805 c 0,2.183 -1.60805,3.79105 -3.79104,3.79105 H 385.58099 c -2.18627,0 -3.79483,-1.60805 -3.79483,-3.79105 v -59.35805 c 0,-2.18627 1.60856,-3.79483 3.79483,-3.79483 z m 78.40368,6.82545 -7.02871,7.0588 6.13271,6.11012 -8.33501,8.36138 -8.36145,-8.33508 6.05366,-6.05359 -7.03242,-7.08517 -15.44662,15.42018 0.70739,13.44 10.4772,-10.53738 8.41784,8.335 -18.54492,18.51862 5.07483,5.1313 18.51855,-18.54121 18.62404,18.62025 5.15759,-5.21034 -18.59388,-18.62403 8.36145,-8.33501 10.61264,10.58633 0.59884,-13.46637 z" />
  </g>
</svg>
