<?xml version="1.0" encoding="UTF-8" standalone="no"?>
<svg
   xmlns:dc="http://purl.org/dc/elements/1.1/"
   xmlns:cc="http://creativecommons.org/ns#"
   xmlns:rdf="http://www.w3.org/1999/02/22-rdf-syntax-ns#"
   xmlns:svg="http://www.w3.org/2000/svg"
   xmlns="http://www.w3.org/2000/svg"
   xmlns:sodipodi="http://sodipodi.sourceforge.net/DTD/sodipodi-0.dtd"
   xmlns:inkscape="http://www.inkscape.org/namespaces/inkscape"
   width="158.75mm"
   height="79.771538mm"
   viewBox="0 0 158.74999 79.771532"
   version="1.1"
   id="svg6774"
   inkscape:version="1.0 (4035a4fb49, 2020-05-01)"
   sodipodi:docname="Latvia_road_sign_840.svg">
  <defs
     id="defs6768" />
  <sodipodi:namedview
     id="base"
     pagecolor="#ffffff"
     bordercolor="#666666"
     borderopacity="1.0"
     inkscape:pageopacity="0.0"
     inkscape:pageshadow="2"
     inkscape:zoom="0.55666667"
     inkscape:cx="-652.56116"
     inkscape:cy="3.964436"
     inkscape:document-units="mm"
     inkscape:current-layer="layer1"
     inkscape:document-rotation="0"
     showgrid="false"
     fit-margin-top="0"
     fit-margin-left="0"
     fit-margin-right="0"
     fit-margin-bottom="0"
     inkscape:window-width="1920"
     inkscape:window-height="1001"
     inkscape:window-x="-9"
     inkscape:window-y="-9"
     inkscape:window-maximized="1" />
  <metadata
     id="metadata6771">
    <rdf:RDF>
      <cc:Work
         rdf:about="">
        <dc:format>image/svg+xml</dc:format>
        <dc:type
           rdf:resource="http://purl.org/dc/dcmitype/StillImage" />
        <dc:title></dc:title>
      </cc:Work>
    </rdf:RDF>
  </metadata>
  <g
     inkscape:label="Layer 1"
     inkscape:groupmode="layer"
     id="layer1"
     transform="translate(-760.06427,-454.23386)">
    <g
       id="g2362"
       style="opacity:1"
       inkscape:groupmode="layer" />
    <g
       id="g12169"
       transform="matrix(2.5700371,0,0,-2.5700371,307.72268,1301.0661)"
       style="opacity:1;stroke-width:0.137266">
      <path
         style="color:#000000;font-style:normal;font-variant:normal;font-weight:normal;font-stretch:normal;font-size:medium;line-height:normal;font-family:sans-serif;font-variant-ligatures:normal;font-variant-position:normal;font-variant-caps:normal;font-variant-numeric:normal;font-variant-alternates:normal;font-variant-east-asian:normal;font-feature-settings:normal;font-variation-settings:normal;text-indent:0;text-align:start;text-decoration:none;text-decoration-line:none;text-decoration-style:solid;text-decoration-color:#000000;letter-spacing:normal;word-spacing:normal;text-transform:none;writing-mode:lr-tb;direction:ltr;text-orientation:mixed;dominant-baseline:auto;baseline-shift:baseline;text-anchor:start;white-space:normal;shape-padding:0;shape-margin:0;inline-size:0;clip-rule:nonzero;display:inline;overflow:visible;visibility:visible;isolation:auto;mix-blend-mode:normal;color-interpolation:sRGB;color-interpolation-filters:linearRGB;solid-color:#000000;solid-opacity:1;vector-effect:none;fill:#ffffff;fill-opacity:1;fill-rule:nonzero;stroke:none;stroke-width:0.0411797;stroke-linecap:round;stroke-linejoin:round;stroke-miterlimit:22.926;stroke-dasharray:none;stroke-dashoffset:0;stroke-opacity:1;color-rendering:auto;image-rendering:auto;shape-rendering:auto;text-rendering:auto;enable-background:accumulate;stop-color:#000000;stop-opacity:1"
         d="m 176.15625,325.53125 c 0,2.125 1.69141,3.82031 3.82031,3.82031 h 53.83203 c 2.125,0 3.82032,-1.69531 3.81641,-3.82031 l -0.0156,-23.09766 c 0,-2.125 -1.67578,-3.82031 -3.80078,-3.82031 h -53.83203 c -2.1289,0 -3.82031,1.69531 -3.82031,3.82031 z m 0,0"
         id="path12171" />
      <path
         style="color:#000000;font-style:normal;font-variant:normal;font-weight:normal;font-stretch:normal;font-size:medium;line-height:normal;font-family:sans-serif;font-variant-ligatures:normal;font-variant-position:normal;font-variant-caps:normal;font-variant-numeric:normal;font-variant-alternates:normal;font-variant-east-asian:normal;font-feature-settings:normal;font-variation-settings:normal;text-indent:0;text-align:start;text-decoration:none;text-decoration-line:none;text-decoration-style:solid;text-decoration-color:#000000;letter-spacing:normal;word-spacing:normal;text-transform:none;writing-mode:lr-tb;direction:ltr;text-orientation:mixed;dominant-baseline:auto;baseline-shift:baseline;text-anchor:start;white-space:normal;shape-padding:0;shape-margin:0;inline-size:0;clip-rule:nonzero;display:inline;overflow:visible;visibility:visible;isolation:auto;mix-blend-mode:normal;color-interpolation:sRGB;color-interpolation-filters:linearRGB;solid-color:#000000;solid-opacity:1;vector-effect:none;fill:#000000;fill-opacity:1;fill-rule:nonzero;stroke:none;stroke-width:0.0411797;stroke-linecap:round;stroke-linejoin:round;stroke-miterlimit:22.926;stroke-dasharray:none;stroke-dashoffset:0;stroke-opacity:1;color-rendering:auto;image-rendering:auto;shape-rendering:auto;text-rendering:auto;enable-background:accumulate;stop-color:#000000;stop-opacity:1"
         d="m 179.97656,298.46289 c -2.20853,0 -3.9707,1.76611 -3.9707,3.9707 v 23.09766 c 0,2.2046 1.76217,3.9707 3.9707,3.9707 h 53.83203 c 2.20478,0 3.97086,-1.76577 3.9668,-3.9707 l -0.0156,-23.09766 c 0,-2.20386 -1.7464,-3.9707 -3.95118,-3.9707 z m 0,0.30078 h 53.83203 c 2.04522,0 3.65039,1.62378 3.65039,3.66992 l 0.0156,23.09766 c 0.004,2.04507 -1.6208,3.66992 -3.66602,3.66992 h -53.83203 c -2.04926,0 -3.66992,-1.62452 -3.66992,-3.66992 v -23.09766 c 0,-2.0454 1.62066,-3.66992 3.66992,-3.66992 z"
         id="path12173" />
    </g>
    <path
       id="path8481"
       style="fill:#000000;fill-opacity:1;fill-rule:evenodd;stroke:none;stroke-width:0.352777"
       d="m 770.26912,457.30104 c -3.93733,0 -7.1492,3.19686 -7.1492,7.13783 v 59.36184 c 0,3.94097 3.21187,7.13784 7.1492,7.13784 h 138.34905 c 3.93019,0 7.13791,-3.19687 7.13791,-7.13784 v -59.36184 c 0,-3.94097 -3.20772,-7.13783 -7.13791,-7.13783 z m 0,3.35429 h 138.34905 c 2.17367,0 3.78726,1.60062 3.78726,3.78354 v 59.36184 c 0,2.18285 -1.61359,3.78354 -3.78726,3.78354 H 770.26912 c -2.18656,0 -3.79483,-1.60069 -3.79483,-3.78354 v -59.36184 c 0,-2.18292 1.60827,-3.78354 3.79483,-3.78354 z m 5.22914,2.77084 c -2.40942,0 -4.37459,1.97646 -4.37459,4.38587 v 52.64559 c 0,2.40942 1.96517,4.38588 4.37459,4.38588 h 34.39433 c 2.40941,0 4.37837,-1.97646 4.37837,-4.38588 v -52.64559 c 0,-2.40941 -1.96896,-4.38587 -4.37837,-4.38587 z m 20.87157,5.71104 -4.04333,10.25887 -4.03575,-10.24758 z m 55.74768,10.37929 c -4.48751,0 -8.13176,3.64549 -8.13176,8.14304 v 12.70967 c 0,4.4875 3.64425,8.14304 8.13176,8.14304 4.4875,0 8.13175,-3.65554 8.13175,-8.14304 v -12.70967 c 0,-4.49755 -3.64425,-8.14304 -8.13175,-8.14304 z m -20.84892,0.0437 c -4.46747,-0.42181 -8.44421,2.85993 -8.86588,7.33738 H 826.51 c 0.37155,-1.91745 2.04676,-3.31292 3.99438,-3.31292 2.24877,0 4.06583,1.82843 4.06583,4.07721 0,2.2487 -1.81706,4.06583 -4.06583,4.06583 h -1.777 v 3.56521 h 1.777 c 2.3893,0 4.32562,1.92503 4.32562,4.31433 v 0.51215 c 0,1.99781 -1.36407,3.73589 -3.30162,4.19763 -2.32914,0.56241 -4.65951,-0.86213 -5.22163,-3.18113 h -4.13367 c 0.52235,4.21649 4.09469,7.37875 8.3313,7.37875 4.63808,0 8.39153,-3.75716 8.39153,-8.39525 v -0.51215 c 0,-2.45961 -1.22361,-4.75734 -3.27153,-6.1327 1.88736,-1.32517 3.02304,-3.49367 3.02304,-5.81267 0,-4.20645 -3.20255,-7.71016 -7.37883,-8.10167 z m -45.35717,0.67388 c 2.6805,6.11391 10.34039,5.85288 12.73975,0 l 9.08429,6.23433 c -2.26889,4.31689 -7.74907,9.41423 -15.40896,9.25367 -7.30853,0.0583 -13.14131,-4.70839 -15.42024,-9.24609 z m 66.20609,3.35058 c 2.23872,0 4.05833,1.82843 4.05833,4.07721 v 12.70959 c 0,2.24877 -1.81961,4.0772 -4.05833,4.0772 -2.24878,0 -4.06584,-1.82843 -4.06584,-4.0772 v -12.70959 c 0,-2.24878 1.81706,-4.07721 4.06584,-4.07721 z m 38.24183,3.85508 v 3.05313 h 3.04942 v -3.05313 z m -18.42821,5.92567 c -1.64673,-0.13915 -3.33674,0.51724 -4.45363,1.89734 v -1.71667 h -3.04191 v 15.2395 h 3.04191 v -9.33642 c 0,-1.68659 1.36662,-3.05321 3.05321,-3.05321 1.68651,0 3.05313,1.36662 3.05313,3.05321 v 9.33642 h 3.04942 v -9.33642 c 0,-1.68659 1.36662,-3.05321 3.0532,-3.05321 1.67646,0 3.05313,1.36662 3.05313,3.05321 v 9.33642 h 3.04191 v -9.72042 c 0,-1.71675 -0.76552,-3.34308 -2.10074,-4.42733 -2.43951,-1.99781 -6.04354,-1.63639 -8.04142,0.81317 -0.271,-0.36135 -0.57115,-0.68262 -0.9223,-0.96376 -0.82446,-0.67023 -1.79782,-1.03835 -2.78591,-1.12183 z m 33.55108,0 c -1.64338,-0.13915 -3.32552,0.51724 -4.44241,1.89734 v -1.71667 h -3.05313 v 15.2395 h 3.05313 v -9.33642 c 0,-1.68659 1.36538,-3.05321 3.04191,-3.05321 1.68659,0 3.05313,1.36662 3.05313,3.05321 v 9.33642 h 3.04942 v -10.29267 c 0,-1.55611 -0.70156,-3.02181 -1.91621,-4.00567 -0.82825,-0.67023 -1.79987,-1.03835 -2.78584,-1.12183 z m -15.12287,0.18067 v 15.2395 h 3.04942 v -15.2395 z m -106.32646,7.296 h 16.69645 c 1.37537,0 2.49976,1.12431 2.49976,2.49975 v 16.6663 c 0,1.38541 -1.12439,2.51104 -2.49976,2.51104 h -16.69645 c -1.37537,0 -2.49976,-1.12563 -2.49976,-2.51104 v -16.6663 c 0,-1.37544 1.12439,-2.49975 2.49976,-2.49975 z m -0.0583,1.295 c -0.64255,0 -1.16329,0.51361 -1.16329,1.15579 v 16.90729 c 0,0.64255 0.52089,1.152 1.16329,1.152 h 16.94489 c 0.63235,0 1.15578,-0.50923 1.15578,-1.152 v -16.90729 c 0,-0.64255 -0.52307,-1.15579 -1.15578,-1.15579 z m 3.11338,1.92758 h 6.2645 c 2.6805,0 4.84892,2.17097 4.84892,4.84142 0,2.67037 -2.16842,4.83762 -4.84892,4.83762 h -3.8475 v 6.27572 h -2.417 z m 2.417,2.28134 v 5.12 h 3.70442 c 1.4155,0 2.57129,-1.14442 2.57129,-2.55992 7e-5,-1.41558 -1.15579,-2.56008 -2.57129,-2.56008 z" />
  </g>
</svg>
