<?xml version="1.0" encoding="UTF-8" standalone="no"?>
<svg
   xmlns:dc="http://purl.org/dc/elements/1.1/"
   xmlns:cc="http://creativecommons.org/ns#"
   xmlns:rdf="http://www.w3.org/1999/02/22-rdf-syntax-ns#"
   xmlns:svg="http://www.w3.org/2000/svg"
   xmlns="http://www.w3.org/2000/svg"
   xmlns:sodipodi="http://sodipodi.sourceforge.net/DTD/sodipodi-0.dtd"
   xmlns:inkscape="http://www.inkscape.org/namespaces/inkscape"
   width="158.75mm"
   height="79.75647mm"
   viewBox="0 0 158.75 79.756473"
   version="1.1"
   id="svg1473"
   inkscape:version="1.0 (4035a4fb49, 2020-05-01)"
   sodipodi:docname="Latvia_road_sign 850.svg">
  <defs
     id="defs1467" />
  <sodipodi:namedview
     id="base"
     pagecolor="#ffffff"
     bordercolor="#666666"
     borderopacity="1.0"
     inkscape:pageopacity="0.0"
     inkscape:pageshadow="2"
     inkscape:zoom="0.35"
     inkscape:cx="236.72734"
     inkscape:cy="-317.28071"
     inkscape:document-units="mm"
     inkscape:current-layer="layer1"
     inkscape:document-rotation="0"
     showgrid="false"
     inkscape:window-width="1424"
     inkscape:window-height="1030"
     inkscape:window-x="160"
     inkscape:window-y="0"
     inkscape:window-maximized="0" />
  <metadata
     id="metadata1470">
    <rdf:RDF>
      <cc:Work
         rdf:about="">
        <dc:format>image/svg+xml</dc:format>
        <dc:type
           rdf:resource="http://purl.org/dc/dcmitype/StillImage" />
        <dc:title></dc:title>
      </cc:Work>
    </rdf:RDF>
  </metadata>
  <g
     inkscape:label="Layer 1"
     inkscape:groupmode="layer"
     id="layer1"
     transform="translate(-43.199237,-232.11385)">
    <g
       id="g2078"
       transform="matrix(2.5698747,0,0,-2.5698747,-445.5337,1291.9613)"
       style="opacity:1;stroke-width:0.137274">
      <path
         style="color:#000000;font-style:normal;font-variant:normal;font-weight:normal;font-stretch:normal;font-size:medium;line-height:normal;font-family:sans-serif;font-variant-ligatures:normal;font-variant-position:normal;font-variant-caps:normal;font-variant-numeric:normal;font-variant-alternates:normal;font-variant-east-asian:normal;font-feature-settings:normal;font-variation-settings:normal;text-indent:0;text-align:start;text-decoration:none;text-decoration-line:none;text-decoration-style:solid;text-decoration-color:#000000;letter-spacing:normal;word-spacing:normal;text-transform:none;writing-mode:lr-tb;direction:ltr;text-orientation:mixed;dominant-baseline:auto;baseline-shift:baseline;text-anchor:start;white-space:normal;shape-padding:0;shape-margin:0;inline-size:0;clip-rule:nonzero;display:inline;overflow:visible;visibility:visible;isolation:auto;mix-blend-mode:normal;color-interpolation:sRGB;color-interpolation-filters:linearRGB;solid-color:#000000;solid-opacity:1;vector-effect:none;fill:#ffffff;fill-opacity:1;fill-rule:nonzero;stroke:none;stroke-width:0.0411823;stroke-linecap:round;stroke-linejoin:round;stroke-miterlimit:22.926;stroke-dasharray:none;stroke-dashoffset:0;stroke-opacity:1;color-rendering:auto;image-rendering:auto;shape-rendering:auto;text-rendering:auto;enable-background:accumulate;stop-color:#000000;stop-opacity:1"
         d="m 190.32812,408.44531 c 0,2.125 1.69141,3.81641 3.82032,3.81641 h 53.83203 c 2.125,0 3.82031,-1.69141 3.82031,-3.81641 l -0.0156,-23.09765 c -0.004,-2.125 -1.67969,-3.82032 -3.80469,-3.82032 h -53.83203 c -2.12891,0 -3.82032,1.69141 -3.82032,3.82032 z m 0,0"
         id="path2080" />
      <path
         style="color:#000000;font-style:normal;font-variant:normal;font-weight:normal;font-stretch:normal;font-size:medium;line-height:normal;font-family:sans-serif;font-variant-ligatures:normal;font-variant-position:normal;font-variant-caps:normal;font-variant-numeric:normal;font-variant-alternates:normal;font-variant-east-asian:normal;font-feature-settings:normal;font-variation-settings:normal;text-indent:0;text-align:start;text-decoration:none;text-decoration-line:none;text-decoration-style:solid;text-decoration-color:#000000;letter-spacing:normal;word-spacing:normal;text-transform:none;writing-mode:lr-tb;direction:ltr;text-orientation:mixed;dominant-baseline:auto;baseline-shift:baseline;text-anchor:start;white-space:normal;shape-padding:0;shape-margin:0;inline-size:0;clip-rule:nonzero;display:inline;overflow:visible;visibility:visible;isolation:auto;mix-blend-mode:normal;color-interpolation:sRGB;color-interpolation-filters:linearRGB;solid-color:#000000;solid-opacity:1;vector-effect:none;fill:#000000;fill-opacity:1;fill-rule:nonzero;stroke:none;stroke-width:0.0411823;stroke-linecap:round;stroke-linejoin:round;stroke-miterlimit:22.926;stroke-dasharray:none;stroke-dashoffset:0;stroke-opacity:1;color-rendering:auto;image-rendering:auto;shape-rendering:auto;text-rendering:auto;enable-background:accumulate;stop-color:#000000;stop-opacity:1"
         d="m 194.14844,381.37695 c -2.20836,0 -3.97071,1.76235 -3.97071,3.97071 v 23.09765 c 0,2.2046 1.76235,3.9668 3.97071,3.9668 h 53.83203 c 2.20459,0 3.9707,-1.76202 3.9707,-3.9668 l -0.0156,-23.09765 c -0.004,-2.20371 -1.7503,-3.97071 -3.95508,-3.97071 z m 0,0.30078 h 53.83203 c 2.04522,0 3.65044,1.62363 3.6543,3.66993 l 0.0156,23.09765 c 0,2.04522 -1.62452,3.66602 -3.66992,3.66602 h -53.83203 c -2.04946,0 -3.66992,-1.62061 -3.66992,-3.66602 v -23.09765 c 0,-2.04946 1.62046,-3.66993 3.66992,-3.66993 z"
         id="path2082" />
    </g>
    <path
       id="path13612"
       style="fill:#000000;fill-opacity:1;fill-rule:evenodd;stroke:none;stroke-width:0.352777"
       d="m 53.402665,235.16939 c -3.937153,0 -7.144964,3.19659 -7.144964,7.13738 v 59.35808 c 0,3.9408 3.204168,7.14868 7.144964,7.14868 H 191.74668 c 3.94079,0 7.13738,-3.2116 7.13738,-7.14868 v -59.35808 c 0,-3.93708 -3.2003,-7.13738 -7.13738,-7.13738 z m 0,3.35408 H 191.74668 c 2.18642,0 3.7833,1.59688 3.7833,3.7833 v 59.35808 c 0,2.18643 -1.60052,3.79459 -3.7833,3.79459 H 53.402665 c -2.182856,0 -3.794592,-1.6118 -3.794592,-3.79459 v -59.35808 c 0,-2.18278 1.608094,-3.7833 3.794592,-3.7833 z m 69.258615,21.24287 c -7.24796,0.0903 -11.06375,3.96272 -14.91859,9.25308 -2.99146,4.28645 -8.62441,5.89513 -13.713927,5.89513 H 70.839648 v 13.28107 l 104.923262,0.0291 v -13.31109 l -24.47289,0.0583 c -4.59758,-0.17046 -9.65709,-0.77429 -13.8833,-6.03449 -3.3932,-5.41077 -7.9293,-9.17396 -14.74544,-9.17396 z" />
  </g>
</svg>
