<?xml version="1.0" encoding="UTF-8" standalone="no"?>
<svg
   xmlns:dc="http://purl.org/dc/elements/1.1/"
   xmlns:cc="http://creativecommons.org/ns#"
   xmlns:rdf="http://www.w3.org/1999/02/22-rdf-syntax-ns#"
   xmlns:svg="http://www.w3.org/2000/svg"
   xmlns="http://www.w3.org/2000/svg"
   xmlns:sodipodi="http://sodipodi.sourceforge.net/DTD/sodipodi-0.dtd"
   xmlns:inkscape="http://www.inkscape.org/namespaces/inkscape"
   width="158.75mm"
   height="79.761513mm"
   viewBox="0 0 158.74999 79.761507"
   version="1.1"
   id="svg6774"
   inkscape:version="1.0 (4035a4fb49, 2020-05-01)"
   sodipodi:docname="Latvia_road_sign_843.svg">
  <defs
     id="defs6768" />
  <sodipodi:namedview
     id="base"
     pagecolor="#ffffff"
     bordercolor="#666666"
     borderopacity="1.0"
     inkscape:pageopacity="0.0"
     inkscape:pageshadow="2"
     inkscape:zoom="0.55666667"
     inkscape:cx="38.04376"
     inkscape:cy="400.16658"
     inkscape:document-units="mm"
     inkscape:current-layer="layer1"
     inkscape:document-rotation="0"
     showgrid="false"
     fit-margin-top="0"
     fit-margin-left="0"
     fit-margin-right="0"
     fit-margin-bottom="0"
     inkscape:window-width="1920"
     inkscape:window-height="1001"
     inkscape:window-x="-9"
     inkscape:window-y="-9"
     inkscape:window-maximized="1" />
  <metadata
     id="metadata6771">
    <rdf:RDF>
      <cc:Work
         rdf:about="">
        <dc:format>image/svg+xml</dc:format>
        <dc:type
           rdf:resource="http://purl.org/dc/dcmitype/StillImage" />
        <dc:title></dc:title>
      </cc:Work>
    </rdf:RDF>
  </metadata>
  <g
     inkscape:label="Layer 1"
     inkscape:groupmode="layer"
     id="layer1"
     transform="translate(-684.12565,-349.40537)">
    <g
       id="g2362"
       style="opacity:1"
       inkscape:groupmode="layer" />
    <g
       id="g12187"
       transform="matrix(2.5700371,0,0,-2.5700371,231.78406,770.05319)"
       style="opacity:1;stroke-width:0.137266">
      <path
         style="color:#000000;font-style:normal;font-variant:normal;font-weight:normal;font-stretch:normal;font-size:medium;line-height:normal;font-family:sans-serif;font-variant-ligatures:normal;font-variant-position:normal;font-variant-caps:normal;font-variant-numeric:normal;font-variant-alternates:normal;font-variant-east-asian:normal;font-feature-settings:normal;font-variation-settings:normal;text-indent:0;text-align:start;text-decoration:none;text-decoration-line:none;text-decoration-style:solid;text-decoration-color:#000000;letter-spacing:normal;word-spacing:normal;text-transform:none;writing-mode:lr-tb;direction:ltr;text-orientation:mixed;dominant-baseline:auto;baseline-shift:baseline;text-anchor:start;white-space:normal;shape-padding:0;shape-margin:0;inline-size:0;clip-rule:nonzero;display:inline;overflow:visible;visibility:visible;isolation:auto;mix-blend-mode:normal;color-interpolation:sRGB;color-interpolation-filters:linearRGB;solid-color:#000000;solid-opacity:1;vector-effect:none;fill:#ffffff;fill-opacity:1;fill-rule:nonzero;stroke:none;stroke-width:0.0411797;stroke-linecap:round;stroke-linejoin:round;stroke-miterlimit:22.926;stroke-dasharray:none;stroke-dashoffset:0;stroke-opacity:1;color-rendering:auto;image-rendering:auto;shape-rendering:auto;text-rendering:auto;enable-background:accumulate;stop-color:#000000;stop-opacity:1"
         d="m 176.15625,159.70312 c 0,2.12891 1.69141,3.82032 3.82031,3.82032 h 53.83203 c 2.125,0 3.82032,-1.69141 3.81641,-3.82032 l -0.0156,-23.09375 c 0,-2.1289 -1.67578,-3.82031 -3.80078,-3.82031 h -53.83203 c -2.1289,0 -3.82031,1.69141 -3.82031,3.82031 z m 0,0"
         id="path12189" />
      <path
         style="color:#000000;font-style:normal;font-variant:normal;font-weight:normal;font-stretch:normal;font-size:medium;line-height:normal;font-family:sans-serif;font-variant-ligatures:normal;font-variant-position:normal;font-variant-caps:normal;font-variant-numeric:normal;font-variant-alternates:normal;font-variant-east-asian:normal;font-feature-settings:normal;font-variation-settings:normal;text-indent:0;text-align:start;text-decoration:none;text-decoration-line:none;text-decoration-style:solid;text-decoration-color:#000000;letter-spacing:normal;word-spacing:normal;text-transform:none;writing-mode:lr-tb;direction:ltr;text-orientation:mixed;dominant-baseline:auto;baseline-shift:baseline;text-anchor:start;white-space:normal;shape-padding:0;shape-margin:0;inline-size:0;clip-rule:nonzero;display:inline;overflow:visible;visibility:visible;isolation:auto;mix-blend-mode:normal;color-interpolation:sRGB;color-interpolation-filters:linearRGB;solid-color:#000000;solid-opacity:1;vector-effect:none;fill:#000000;fill-opacity:1;fill-rule:nonzero;stroke:none;stroke-width:0.0411797;stroke-linecap:round;stroke-linejoin:round;stroke-miterlimit:22.926;stroke-dasharray:none;stroke-dashoffset:0;stroke-opacity:1;color-rendering:auto;image-rendering:auto;shape-rendering:auto;text-rendering:auto;enable-background:accumulate;stop-color:#000000;stop-opacity:1"
         d="m 179.97656,132.63867 c -2.20835,0 -3.9707,1.76236 -3.9707,3.97071 v 23.09374 c 0,2.20836 1.76235,3.97071 3.9707,3.97071 h 53.83203 c 2.2046,0 3.97086,-1.76202 3.9668,-3.97071 l -0.0156,-23.09374 c 0,-2.20762 -1.74658,-3.97071 -3.95118,-3.97071 z m 0,0.30078 h 53.83203 c 2.04541,0 3.65039,1.61974 3.65039,3.66993 l 0.0156,23.09374 c 0.004,2.04914 -1.62061,3.66993 -3.66602,3.66993 h -53.83203 c -2.04945,0 -3.66992,-1.62046 -3.66992,-3.66993 v -23.09374 c 0,-2.04946 1.62047,-3.66993 3.66992,-3.66993 z"
         id="path12191" />
    </g>
    <path
       id="path8579"
       style="fill:#000000;fill-opacity:1;fill-rule:evenodd;stroke:none;stroke-width:0.352777"
       d="m 694.3305,352.46362 c -3.94098,0 -7.14921,3.20437 -7.14921,7.14542 v 59.35433 c 0,3.94811 3.21188,7.14541 7.14921,7.14541 h 138.34905 c 3.93019,0 7.13791,-3.1973 7.13791,-7.14541 v -59.35433 c 0,-3.94105 -3.20408,-7.14535 -7.13791,-7.14542 z m 0,3.35058 h 138.34905 c 2.17002,0 3.78725,1.61192 3.78725,3.79484 v 59.35433 c 0,2.19581 -1.61359,3.79476 -3.78725,3.79476 H 694.3305 c -2.18657,0 -3.79484,-1.59895 -3.79484,-3.79476 v -59.35433 c 0,-2.18292 1.61192,-3.79484 3.79484,-3.79484 z m 41.81454,7.5445 c -0.78184,0.0364 -1.50591,0.11438 -2.10825,0.2375 -5.83277,1.53592 -13.20279,7.25702 -15.67246,10.40938 1.56616,0.0583 3.37193,0.19305 4.38588,0.38392 3.67434,-3.45352 7.06761,-5.94453 11.50492,-7.48046 2.32913,-0.57188 4.6595,-0.65275 7.17929,0.27101 2.43958,1.45572 3.31175,3.372 3.36188,6.16287 1.39547,1.9777 3.31539,0.44294 3.12474,-1.28379 -0.35114,-3.47356 -2.65041,-6.38616 -5.05982,-7.69129 -1.52092,-0.80567 -4.3708,-1.11244 -6.71618,-1.00892 z m 87.23946,2.35296 c -1.72148,0.0437 -3.38074,0.36498 -4.75858,0.81688 -10.98287,4.29678 -20.93306,13.15136 -28.95437,22.43766 0.49175,1.80701 0.63526,3.86259 0.35406,5.91059 3.91525,-5.7525 19.17238,-19.69692 27.1435,-23.31108 5.67214,-2.32906 9.31639,-2.79087 13.04092,1.20474 0.82322,1.26492 0.66367,2.71182 0.55367,4.16754 0.33147,1.61628 3.75542,1.77692 3.77596,-2.07816 0,-2.11823 -1.01395,-5.14885 -3.01175,-6.49412 -2.22743,-2.05798 -5.27394,-2.7323 -8.14304,-2.65405 z m -104.51946,9.64138 c -10.1195,0 -18.319,8.20074 -18.319,18.33029 0,10.10953 8.1995,18.32287 18.319,18.32287 10.12956,0 18.33409,-8.21334 18.33409,-18.32287 0,-10.12955 -8.20453,-18.33029 -18.33409,-18.33029 z m 50.60888,0 c -10.12948,0 -18.3303,8.20074 -18.3303,18.33029 0,10.10953 8.20082,18.32287 18.3303,18.32287 10.11951,0 18.3228,-8.21334 18.3228,-18.32287 0,-10.12955 -8.20329,-18.33029 -18.3228,-18.33029 z m -25.36651,10.93267 c -0.45823,0.001 -0.92237,0.10417 -1.35911,0.31981 -2.24878,1.04404 -3.29034,2.13958 -4.82634,3.8663 -0.21054,0.38174 0.0583,0.85076 0.60977,0.79059 1.09423,-0.52162 2.21111,-1.09299 3.39575,-1.58489 1.536,-0.52161 2.90007,-0.52088 4.29554,-0.0794 1.23483,0.40141 2.46835,0.92361 3.72329,1.74683 0.74287,0.25061 0.9035,-0.46188 0.60248,-0.90358 -1.52594,-1.55603 -3.17239,-2.82226 -5.12,-3.8663 -0.41161,-0.19087 -0.86336,-0.2914 -1.32138,-0.28995 z" />
  </g>
</svg>
