<?xml version="1.0" encoding="UTF-8" standalone="no"?>
<svg
   xmlns:dc="http://purl.org/dc/elements/1.1/"
   xmlns:cc="http://creativecommons.org/ns#"
   xmlns:rdf="http://www.w3.org/1999/02/22-rdf-syntax-ns#"
   xmlns:svg="http://www.w3.org/2000/svg"
   xmlns="http://www.w3.org/2000/svg"
   xmlns:sodipodi="http://sodipodi.sourceforge.net/DTD/sodipodi-0.dtd"
   xmlns:inkscape="http://www.inkscape.org/namespaces/inkscape"
   width="158.75mm"
   height="79.75647mm"
   viewBox="0 0 158.75 79.75647"
   version="1.1"
   id="svg1473"
   inkscape:version="1.0 (4035a4fb49, 2020-05-01)"
   sodipodi:docname="Latvia_road_sign 848.svg">
  <defs
     id="defs1467" />
  <sodipodi:namedview
     id="base"
     pagecolor="#ffffff"
     bordercolor="#666666"
     borderopacity="1.0"
     inkscape:pageopacity="0.0"
     inkscape:pageshadow="2"
     inkscape:zoom="0.35"
     inkscape:cx="-182.16741"
     inkscape:cy="907.76906"
     inkscape:document-units="mm"
     inkscape:current-layer="layer1"
     inkscape:document-rotation="0"
     showgrid="false"
     inkscape:window-width="1424"
     inkscape:window-height="1030"
     inkscape:window-x="160"
     inkscape:window-y="0"
     inkscape:window-maximized="0" />
  <metadata
     id="metadata1470">
    <rdf:RDF>
      <cc:Work
         rdf:about="">
        <dc:format>image/svg+xml</dc:format>
        <dc:type
           rdf:resource="http://purl.org/dc/dcmitype/StillImage" />
        <dc:title></dc:title>
      </cc:Work>
    </rdf:RDF>
  </metadata>
  <g
     inkscape:label="Layer 1"
     inkscape:groupmode="layer"
     id="layer1"
     transform="translate(-154.0318,92.0139)">
    <g
       id="g2066"
       transform="matrix(2.5698747,0,0,-2.5698747,-334.70114,1251.9352)"
       style="opacity:1;stroke-width:0.137274">
      <path
         style="color:#000000;font-style:normal;font-variant:normal;font-weight:normal;font-stretch:normal;font-size:medium;line-height:normal;font-family:sans-serif;font-variant-ligatures:normal;font-variant-position:normal;font-variant-caps:normal;font-variant-numeric:normal;font-variant-alternates:normal;font-variant-east-asian:normal;font-feature-settings:normal;font-variation-settings:normal;text-indent:0;text-align:start;text-decoration:none;text-decoration-line:none;text-decoration-style:solid;text-decoration-color:#000000;letter-spacing:normal;word-spacing:normal;text-transform:none;writing-mode:lr-tb;direction:ltr;text-orientation:mixed;dominant-baseline:auto;baseline-shift:baseline;text-anchor:start;white-space:normal;shape-padding:0;shape-margin:0;inline-size:0;clip-rule:nonzero;display:inline;overflow:visible;visibility:visible;isolation:auto;mix-blend-mode:normal;color-interpolation:sRGB;color-interpolation-filters:linearRGB;solid-color:#000000;solid-opacity:1;vector-effect:none;fill:#ffffff;fill-opacity:1;fill-rule:nonzero;stroke:none;stroke-width:0.0411823;stroke-linecap:round;stroke-linejoin:round;stroke-miterlimit:22.926;stroke-dasharray:none;stroke-dashoffset:0;stroke-opacity:1;color-rendering:auto;image-rendering:auto;shape-rendering:auto;text-rendering:auto;enable-background:accumulate;stop-color:#000000;stop-opacity:1"
         d="m 190.32812,518.99219 c 0,2.1289 1.69141,3.82031 3.82032,3.82031 h 53.83203 c 2.125,0 3.82031,-1.69141 3.82031,-3.82031 l -0.0156,-23.09375 c -0.004,-2.12891 -1.67969,-3.82032 -3.80469,-3.82032 h -53.83203 c -2.12891,0 -3.82032,1.69141 -3.82032,3.82032 z m 0,0"
         id="path2068" />
      <path
         style="color:#000000;font-style:normal;font-variant:normal;font-weight:normal;font-stretch:normal;font-size:medium;line-height:normal;font-family:sans-serif;font-variant-ligatures:normal;font-variant-position:normal;font-variant-caps:normal;font-variant-numeric:normal;font-variant-alternates:normal;font-variant-east-asian:normal;font-feature-settings:normal;font-variation-settings:normal;text-indent:0;text-align:start;text-decoration:none;text-decoration-line:none;text-decoration-style:solid;text-decoration-color:#000000;letter-spacing:normal;word-spacing:normal;text-transform:none;writing-mode:lr-tb;direction:ltr;text-orientation:mixed;dominant-baseline:auto;baseline-shift:baseline;text-anchor:start;white-space:normal;shape-padding:0;shape-margin:0;inline-size:0;clip-rule:nonzero;display:inline;overflow:visible;visibility:visible;isolation:auto;mix-blend-mode:normal;color-interpolation:sRGB;color-interpolation-filters:linearRGB;solid-color:#000000;solid-opacity:1;vector-effect:none;fill:#000000;fill-opacity:1;fill-rule:nonzero;stroke:none;stroke-width:0.0411823;stroke-linecap:round;stroke-linejoin:round;stroke-miterlimit:22.926;stroke-dasharray:none;stroke-dashoffset:0;stroke-opacity:1;color-rendering:auto;image-rendering:auto;shape-rendering:auto;text-rendering:auto;enable-background:accumulate;stop-color:#000000;stop-opacity:1"
         d="m 194.14844,491.92773 c -2.20836,0 -3.97071,1.76235 -3.97071,3.97071 v 23.09375 c 0,2.20835 1.76235,3.9707 3.97071,3.9707 h 53.83203 c 2.20459,0 3.9707,-1.76217 3.9707,-3.9707 l -0.0156,-23.09375 c -0.004,-2.20747 -1.75049,-3.97071 -3.95508,-3.97071 z m 0,0.30079 h 53.83203 c 2.0454,0 3.65044,1.61957 3.6543,3.66992 l 0.0156,23.09375 c 0,2.04926 -1.62452,3.66992 -3.66992,3.66992 h -53.83203 c -2.04946,0 -3.66992,-1.62047 -3.66992,-3.66992 v -23.09375 c 0,-2.04946 1.62046,-3.66992 3.66992,-3.66992 z"
         id="path2070" />
    </g>
    <path
       id="path13540"
       style="fill:#000000;fill-opacity:1;fill-rule:evenodd;stroke:none;stroke-width:0.352777"
       d="m 164.23522,-88.957229 c -3.93716,0 -7.14497,3.20089 -7.14497,7.148751 v 59.346789 c 0,3.940722 3.20417,7.148678 7.14497,7.148678 h 138.34401 c 3.94079,0 7.13739,-3.211598 7.13739,-7.148678 v -59.346789 c 0,-3.93708 -3.1966,-7.148751 -7.13739,-7.148751 z m 0,3.35416 h 138.34401 c 2.18278,0 3.7833,1.608166 3.7833,3.794591 v 59.346789 c 0,2.186425 -1.60052,3.794591 -3.7833,3.794591 H 164.23522 c -2.18278,0 -3.79459,-1.611809 -3.79459,-3.794591 v -59.346789 c 0,-2.195676 1.60809,-3.794591 3.79459,-3.794591 z m 54.35131,11.481608 -22.35713,26.091552 3.82468,-0.01457 15.1595,-17.485936 -5.69189,17.448274 h 2.97019 l 7.54773,-23.068626 13.92475,28.056522 h 1.68647 L 220.401,-74.124739 Z m 42.58357,19.093375 -8.45497,6.384515 -14.84698,-0.241123 -0.86215,1.306289 60.42339,10.630831 -0.73393,-3.884922 -12.15558,-2.119406 -4.9313,-8.823937 z m -87.62914,0.323439 -5.71068,8.902977 v 10.009738 c 0,0.782958 0.65125,1.325084 1.31379,1.325084 h 1.62624 c 0,-3.342869 2.5197,-6.004401 5.84246,-6.034486 3.37295,0 5.98291,2.510884 6.08337,6.034486 h 21.02075 c 0,-2.660221 1.6376,-4.83113 3.92637,-5.62414 h -23.3096 v -13.529479 c 0.0291,-0.431982 -0.43198,-1.08418 -1.11427,-1.08418 z m 87.71954,1.103047 7.63807,1.306217 -1.13314,6.384515 -13.38254,-2.36031 c 2.23851,-1.887243 4.60887,-3.533582 6.87761,-5.330422 z m -86.84618,0.493173 h 7.25038 l 0.007,6.44476 h -11.41386 z m 95.77932,1.072889 7.02826,1.215886 3.66281,7.175122 -11.80534,-2.078029 z m -33.78993,5.240164 -0.37298,2.036506 1.0954,2.349092 4.12597,1.607366 c 0.63231,-2.228531 1.1732,-3.552376 3.90379,-4.415684 z m -50.06356,0.741581 0.0831,4.246315 34.27167,0.01457 0.007,-4.197435 z m 60.46477,1.208383 c -2.32869,0.05828 -4.37809,1.773019 -4.79958,4.144621 -0.48225,2.730518 1.35509,5.348123 4.06565,5.819879 2.74035,0.481518 5.34929,-1.345189 5.83117,-4.065582 0.47132,-2.720465 -1.354,-5.337997 -4.08459,-5.819879 -0.3402,-0.05828 -0.67966,-0.08742 -1.01265,-0.0794 z m 3.85484,0.549265 c 1.85723,1.88717 2.42674,3.303896 1.96519,5.793509 l 21.69444,3.802095 c 0.18139,-2.630135 2.23735,-4.286526 3.99419,-4.698038 z m -3.79081,1.79939 c 0.17702,-0.0058 0.35768,0.0058 0.53834,0.03642 1.45556,0.260792 2.42675,1.655081 2.17579,3.0906 -0.26079,1.445573 -1.65617,2.419244 -3.10174,2.168359 -1.45556,-0.251321 -2.41932,-1.6451 -2.16836,-3.090672 0.22874,-1.26484 1.31896,-2.167922 2.55597,-2.205948 z m -35.14124,2.416767 c 2.22853,0.823169 3.88493,2.892383 3.91501,5.612848 l 4.78844,-2.541043 v -3.071805 z m -35.08485,0.752945 c -2.66015,0 -4.83733,2.1771 -4.83733,4.837321 0,2.660221 2.17718,4.829818 4.83733,4.829818 2.65024,0 4.82981,-2.169597 4.82981,-4.829818 0,-2.660221 -2.17957,-4.837321 -4.82981,-4.837321 z m 33.01812,0.05099 c -2.66023,0 -4.82982,2.180816 -4.82982,4.841037 0,2.660294 2.16959,4.826103 4.82982,4.826103 2.66022,0 4.82981,-2.165809 4.82981,-4.826103 0,-2.660221 -2.16959,-4.841037 -4.82981,-4.841037 z m 70.27126,0.327811 c -2.33044,0.06556 -4.38676,1.771854 -4.79966,4.152197 -0.48152,2.720465 1.35655,5.33807 4.07687,5.819879 2.72054,0.481518 5.33815,-1.355169 5.81996,-4.065582 0.49171,-2.730517 -1.35401,-5.359341 -4.08453,-5.83117 -0.34019,-0.05828 -0.67966,-0.0845 -1.01264,-0.07576 z m 3.44077,0.448008 c 2.11803,1.626233 2.54979,2.901125 2.34895,5.872548 l 7.34821,0.590788 4.22759,-4.035496 z m -106.73015,1.464367 c 1.40543,0 2.55233,1.143186 2.55233,2.548547 0,1.405434 -1.1469,2.552334 -2.55233,2.552334 -1.40537,0 -2.54855,-1.1469 -2.54855,-2.552334 0,-1.405361 1.14318,-2.548547 2.54855,-2.548547 z m 33.01812,0.04371 c 1.40543,0 2.54854,1.143113 2.54854,2.548547 0,1.405361 -1.14311,2.548547 -2.54854,2.548547 -1.40544,0 -2.54097,-1.143186 -2.54097,-2.548547 0,-1.405434 1.13553,-2.548547 2.54097,-2.548547 z m 70.3503,0.399201 c 0.17702,-0.0039 0.36059,0.0073 0.54198,0.04371 1.4455,0.250593 2.41793,1.6451 2.15692,3.090673 -0.26079,1.4455 -1.64503,2.429296 -3.0906,2.168286 -1.44557,-0.250593 -2.4293,-1.645027 -2.16836,-3.0906 0.22,-1.273654 1.3143,-2.178339 2.55984,-2.209736 z" />
  </g>
</svg>
