<?xml version="1.0" encoding="UTF-8" standalone="no"?>
<svg
   xmlns:dc="http://purl.org/dc/elements/1.1/"
   xmlns:cc="http://creativecommons.org/ns#"
   xmlns:rdf="http://www.w3.org/1999/02/22-rdf-syntax-ns#"
   xmlns:svg="http://www.w3.org/2000/svg"
   xmlns="http://www.w3.org/2000/svg"
   xmlns:sodipodi="http://sodipodi.sourceforge.net/DTD/sodipodi-0.dtd"
   xmlns:inkscape="http://www.inkscape.org/namespaces/inkscape"
   width="158.75mm"
   height="79.756447mm"
   viewBox="0 0 158.75 79.756447"
   version="1.1"
   id="svg1473"
   inkscape:version="1.0 (4035a4fb49, 2020-05-01)"
   sodipodi:docname="Latvia_road_sign 845.svg">
  <defs
     id="defs1467" />
  <sodipodi:namedview
     id="base"
     pagecolor="#ffffff"
     bordercolor="#666666"
     borderopacity="1.0"
     inkscape:pageopacity="0.0"
     inkscape:pageshadow="2"
     inkscape:zoom="0.35"
     inkscape:cx="-433.10341"
     inkscape:cy="292.10027"
     inkscape:document-units="mm"
     inkscape:current-layer="layer1"
     inkscape:document-rotation="0"
     showgrid="false"
     inkscape:window-width="1424"
     inkscape:window-height="1030"
     inkscape:window-x="160"
     inkscape:window-y="0"
     inkscape:window-maximized="0" />
  <metadata
     id="metadata1470">
    <rdf:RDF>
      <cc:Work
         rdf:about="">
        <dc:format>image/svg+xml</dc:format>
        <dc:type
           rdf:resource="http://purl.org/dc/dcmitype/StillImage" />
        <dc:title></dc:title>
      </cc:Work>
    </rdf:RDF>
  </metadata>
  <g
     inkscape:label="Layer 1"
     inkscape:groupmode="layer"
     id="layer1"
     transform="translate(-220.42528,-70.881802)">
    <g
       id="g2054"
       transform="matrix(2.5698747,0,0,-2.5698747,-268.30766,1912.0113)"
       style="opacity:1;stroke-width:0.137274">
      <path
         style="color:#000000;font-style:normal;font-variant:normal;font-weight:normal;font-stretch:normal;font-size:medium;line-height:normal;font-family:sans-serif;font-variant-ligatures:normal;font-variant-position:normal;font-variant-caps:normal;font-variant-numeric:normal;font-variant-alternates:normal;font-variant-east-asian:normal;font-feature-settings:normal;font-variation-settings:normal;text-indent:0;text-align:start;text-decoration:none;text-decoration-line:none;text-decoration-style:solid;text-decoration-color:#000000;letter-spacing:normal;word-spacing:normal;text-transform:none;writing-mode:lr-tb;direction:ltr;text-orientation:mixed;dominant-baseline:auto;baseline-shift:baseline;text-anchor:start;white-space:normal;shape-padding:0;shape-margin:0;inline-size:0;clip-rule:nonzero;display:inline;overflow:visible;visibility:visible;isolation:auto;mix-blend-mode:normal;color-interpolation:sRGB;color-interpolation-filters:linearRGB;solid-color:#000000;solid-opacity:1;vector-effect:none;fill:#ffffff;fill-opacity:1;fill-rule:nonzero;stroke:none;stroke-width:0.0411823;stroke-linecap:round;stroke-linejoin:round;stroke-miterlimit:22.926;stroke-dasharray:none;stroke-dashoffset:0;stroke-opacity:1;color-rendering:auto;image-rendering:auto;shape-rendering:auto;text-rendering:auto;enable-background:accumulate;stop-color:#000000;stop-opacity:1"
         d="m 190.32812,712.45703 c 0,2.12891 1.69141,3.82031 3.82032,3.82031 h 53.83203 c 2.125,0 3.82031,-1.6914 3.82031,-3.82031 l -0.0156,-23.09375 c -0.004,-2.12891 -1.67969,-3.82031 -3.80469,-3.82031 h -53.83203 c -2.12891,0 -3.82032,1.6914 -3.82032,3.82031 z m 0,0"
         id="path2056" />
      <path
         style="color:#000000;font-style:normal;font-variant:normal;font-weight:normal;font-stretch:normal;font-size:medium;line-height:normal;font-family:sans-serif;font-variant-ligatures:normal;font-variant-position:normal;font-variant-caps:normal;font-variant-numeric:normal;font-variant-alternates:normal;font-variant-east-asian:normal;font-feature-settings:normal;font-variation-settings:normal;text-indent:0;text-align:start;text-decoration:none;text-decoration-line:none;text-decoration-style:solid;text-decoration-color:#000000;letter-spacing:normal;word-spacing:normal;text-transform:none;writing-mode:lr-tb;direction:ltr;text-orientation:mixed;dominant-baseline:auto;baseline-shift:baseline;text-anchor:start;white-space:normal;shape-padding:0;shape-margin:0;inline-size:0;clip-rule:nonzero;display:inline;overflow:visible;visibility:visible;isolation:auto;mix-blend-mode:normal;color-interpolation:sRGB;color-interpolation-filters:linearRGB;solid-color:#000000;solid-opacity:1;vector-effect:none;fill:#000000;fill-opacity:1;fill-rule:nonzero;stroke:none;stroke-width:0.0411823;stroke-linecap:round;stroke-linejoin:round;stroke-miterlimit:22.926;stroke-dasharray:none;stroke-dashoffset:0;stroke-opacity:1;color-rendering:auto;image-rendering:auto;shape-rendering:auto;text-rendering:auto;enable-background:accumulate;stop-color:#000000;stop-opacity:1"
         d="m 194.14844,685.39258 c -2.20836,0 -3.97071,1.76234 -3.97071,3.9707 v 23.09375 c 0,2.20836 1.76235,3.9707 3.97071,3.9707 h 53.83203 c 2.20459,0 3.9707,-1.76216 3.9707,-3.9707 l -0.0156,-23.09375 c -0.004,-2.20747 -1.75049,-3.9707 -3.95508,-3.9707 z m 0,0.30078 h 53.83203 c 2.0454,0 3.65044,1.61957 3.6543,3.66992 l 0.0156,23.09375 c 0,2.04928 -1.62452,3.66992 -3.66992,3.66992 h -53.83203 c -2.04946,0 -3.66992,-1.62046 -3.66992,-3.66992 v -23.09375 c 0,-2.04946 1.62046,-3.66992 3.66992,-3.66992 z"
         id="path2058" />
    </g>
    <path
       id="path13778"
       style="fill:#000000;fill-opacity:1;fill-rule:evenodd;stroke:none;stroke-width:0.352777"
       d="m 230.62871,73.93855 c -3.9408,0 -7.14496,3.207949 -7.14496,7.14873 v 59.34677 c 0,3.94076 3.20416,7.14871 7.14496,7.14873 h 138.34401 c 3.9408,0 7.13739,-3.21164 7.13739,-7.14873 V 81.08728 c 0,-3.937131 -3.19659,-7.14873 -7.13739,-7.14873 z m 0,3.354123 h 138.34401 c 2.18278,0 3.7833,1.608116 3.7833,3.794607 v 59.34677 c 0,2.18645 -1.60052,3.79458 -3.7833,3.79458 H 230.62871 c -2.18286,0 -3.79459,-1.61177 -3.79459,-3.79458 V 81.08728 c 0,-2.182827 1.61173,-3.794585 3.79459,-3.794607 z m 49.59303,1.374052 c -0.30085,10.048609 4.4873,16.243635 6.80616,19.797308 7.59916,8.803827 19.71585,13.268617 31.10953,13.348787 4.26649,9.22544 9.69599,14.04648 20.07586,14.89976 8.39225,-0.80309 12.46912,-3.55366 17.80974,-9.90808 2.42937,6.85636 8.01956,12.65615 15.6188,14.67389 V 78.666725 Z m -12.16673,17.256294 c -1.62631,1.596125 -3.85731,2.016495 -5.92529,2.367857 -1.87719,-0.08035 -3.52353,1.626233 -3.52353,3.222374 0.051,2.67025 1.34512,3.55367 3.52353,3.91504 2.00773,-0.0299 3.7444,-1.73541 3.58377,-3.69292 0.10053,-1.977599 0.85581,-3.553677 2.34152,-5.812351 z m -13.91345,14.745411 c -1.62624,1.59612 -3.85739,2.02027 -5.92529,2.37161 -1.86721,-0.0804 -3.52353,1.62622 -3.52353,3.22239 0.0583,2.67025 1.35517,3.55364 3.52353,3.91503 2.01771,-0.0299 3.75445,-1.7392 3.58377,-3.69669 0.11073,-1.97763 0.8558,-3.55367 2.34152,-5.81234 z m 45.57254,2.72171 c -1.62616,1.59612 -3.85229,2.00645 -5.91021,2.36786 -1.87712,-0.0803 -3.53475,1.62624 -3.53475,3.22237 0.0583,2.67024 1.35641,3.55613 3.53475,3.90752 2.0078,-0.0204 3.74324,-1.7279 3.57248,-3.68541 0.11,-1.98766 0.85209,-3.55365 2.33773,-5.81234 z m -22.01453,3.87364 c -1.62624,1.59614 -3.8536,2.01776 -5.9215,2.37913 -1.86721,-0.0904 -3.52353,1.61873 -3.52353,3.21486 0.0583,2.67028 1.35517,3.55367 3.52353,3.91504 2.01771,-0.0299 3.7444,-1.73918 3.58377,-3.69671 0.11073,-1.97759 0.85202,-3.55363 2.33773,-5.81232 z m 31.29019,11.26328 c -1.62616,1.58606 -3.85352,2.00899 -5.92143,2.36032 -1.86728,-0.0804 -3.52367,1.62625 -3.52367,3.22237 0.0583,2.67025 1.35539,3.55363 3.52367,3.91504 2.00759,-0.0299 3.7444,-1.73542 3.58363,-3.69293 0.11,-1.97763 0.85216,-3.55618 2.3378,-5.8048 z m -51.36605,1.54718 c -1.62631,1.59613 -3.8536,2.0165 -5.92158,2.36786 -1.87719,-0.0804 -3.52352,1.62625 -3.52352,3.22237 0.051,2.67025 1.34518,3.55364 3.52352,3.91505 2.00774,-0.0299 3.74317,-1.73542 3.57249,-3.69293 0.11072,-1.9776 0.85332,-3.55368 2.34909,-5.81235 z" />
  </g>
</svg>
