<?xml version="1.0" encoding="UTF-8" standalone="no"?>
<svg
   xmlns:dc="http://purl.org/dc/elements/1.1/"
   xmlns:cc="http://creativecommons.org/ns#"
   xmlns:rdf="http://www.w3.org/1999/02/22-rdf-syntax-ns#"
   xmlns:svg="http://www.w3.org/2000/svg"
   xmlns="http://www.w3.org/2000/svg"
   xmlns:sodipodi="http://sodipodi.sourceforge.net/DTD/sodipodi-0.dtd"
   xmlns:inkscape="http://www.inkscape.org/namespaces/inkscape"
   width="158.75mm"
   height="79.76149mm"
   viewBox="0 0 158.74999 79.761484"
   version="1.1"
   id="svg6774"
   inkscape:version="1.0 (4035a4fb49, 2020-05-01)"
   sodipodi:docname="Latvia_road_sign_824.svg">
  <defs
     id="defs6768" />
  <sodipodi:namedview
     id="base"
     pagecolor="#ffffff"
     bordercolor="#666666"
     borderopacity="1.0"
     inkscape:pageopacity="0.0"
     inkscape:pageshadow="2"
     inkscape:zoom="0.27833333"
     inkscape:cx="630.66954"
     inkscape:cy="-158.46513"
     inkscape:document-units="mm"
     inkscape:current-layer="layer1"
     inkscape:document-rotation="0"
     showgrid="false"
     fit-margin-top="0"
     fit-margin-left="0"
     fit-margin-right="0"
     fit-margin-bottom="0"
     inkscape:window-width="1920"
     inkscape:window-height="1001"
     inkscape:window-x="-9"
     inkscape:window-y="-9"
     inkscape:window-maximized="1" />
  <metadata
     id="metadata6771">
    <rdf:RDF>
      <cc:Work
         rdf:about="">
        <dc:format>image/svg+xml</dc:format>
        <dc:type
           rdf:resource="http://purl.org/dc/dcmitype/StillImage" />
        <dc:title></dc:title>
      </cc:Work>
    </rdf:RDF>
  </metadata>
  <g
     inkscape:label="Layer 1"
     inkscape:groupmode="layer"
     id="layer1"
     transform="translate(-21.246631,-596.67155)">
    <g
       id="g2362"
       style="opacity:1"
       inkscape:groupmode="layer" />
    <g
       transform="matrix(2.5700373,0,0,-2.5700373,-467.60258,2011.7381)"
       id="g6899"
       style="opacity:1;stroke-width:0.137266">
      <path
         style="color:#000000;font-style:normal;font-variant:normal;font-weight:normal;font-stretch:normal;font-size:medium;line-height:normal;font-family:sans-serif;font-variant-ligatures:normal;font-variant-position:normal;font-variant-caps:normal;font-variant-numeric:normal;font-variant-alternates:normal;font-variant-east-asian:normal;font-feature-settings:normal;font-variation-settings:normal;text-indent:0;text-align:start;text-decoration:none;text-decoration-line:none;text-decoration-style:solid;text-decoration-color:#000000;letter-spacing:normal;word-spacing:normal;text-transform:none;writing-mode:lr-tb;direction:ltr;text-orientation:mixed;dominant-baseline:auto;baseline-shift:baseline;text-anchor:start;white-space:normal;shape-padding:0;shape-margin:0;inline-size:0;clip-rule:nonzero;display:inline;overflow:visible;visibility:visible;isolation:auto;mix-blend-mode:normal;color-interpolation:sRGB;color-interpolation-filters:linearRGB;solid-color:#000000;solid-opacity:1;vector-effect:none;fill:#ffffff;fill-opacity:1;fill-rule:nonzero;stroke:none;stroke-width:0.0411797;stroke-linecap:round;stroke-linejoin:round;stroke-miterlimit:22.926;stroke-dasharray:none;stroke-dashoffset:0;stroke-opacity:1;color-rendering:auto;image-rendering:auto;shape-rendering:auto;text-rendering:auto;enable-background:accumulate;stop-color:#000000;stop-opacity:1"
         d="m 190.36,546.631 c 0,2.128 1.692,3.82 3.82,3.82 h 53.831 c 2.127,0 3.821,-1.693 3.819,-3.82 l -0.015,-23.096 c -0.002,-2.127 -1.677,-3.819 -3.804,-3.819 H 194.18 c -2.128,0 -3.82,1.692 -3.82,3.819 z"
         id="path6901" />
      <path
         style="color:#000000;font-style:normal;font-variant:normal;font-weight:normal;font-stretch:normal;font-size:medium;line-height:normal;font-family:sans-serif;font-variant-ligatures:normal;font-variant-position:normal;font-variant-caps:normal;font-variant-numeric:normal;font-variant-alternates:normal;font-variant-east-asian:normal;font-feature-settings:normal;font-variation-settings:normal;text-indent:0;text-align:start;text-decoration:none;text-decoration-line:none;text-decoration-style:solid;text-decoration-color:#000000;letter-spacing:normal;word-spacing:normal;text-transform:none;writing-mode:lr-tb;direction:ltr;text-orientation:mixed;dominant-baseline:auto;baseline-shift:baseline;text-anchor:start;white-space:normal;shape-padding:0;shape-margin:0;inline-size:0;clip-rule:nonzero;display:inline;overflow:visible;visibility:visible;isolation:auto;mix-blend-mode:normal;color-interpolation:sRGB;color-interpolation-filters:linearRGB;solid-color:#000000;solid-opacity:1;vector-effect:none;fill:#000000;fill-opacity:1;fill-rule:nonzero;stroke:none;stroke-width:0.0411797;stroke-linecap:round;stroke-linejoin:round;stroke-miterlimit:22.926;stroke-dasharray:none;stroke-dashoffset:0;stroke-opacity:1;color-rendering:auto;image-rendering:auto;shape-rendering:auto;text-rendering:auto;enable-background:accumulate;stop-color:#000000;stop-opacity:1"
         d="m 194.17969,519.56641 c -2.20751,0 -3.96875,1.7622 -3.96875,3.96875 v 23.0957 c 0,2.20751 1.76124,3.9707 3.96875,3.9707 h 53.83203 c 2.20659,0 3.97082,-1.76398 3.96875,-3.9707 l -0.0156,-23.0957 c -0.002,-2.20568 -1.74657,-3.96875 -3.95312,-3.96875 z m 0,0.29882 h 53.83203 c 2.04745,0 3.65042,1.6216 3.65234,3.66993 l 0.0156,23.0957 c 0.002,2.04728 -1.62057,3.66992 -3.66797,3.66992 h -53.83203 c -2.04849,0 -3.66992,-1.62143 -3.66992,-3.66992 v -23.0957 c 0,-2.04746 1.62143,-3.66993 3.66992,-3.66993 z"
         id="path6903" />
    </g>
    <path
       id="path6086"
       style="fill:#000000;fill-opacity:1;fill-rule:evenodd;stroke:none;stroke-width:0.352777"
       d="m 31.446473,599.73202 c -3.940681,0 -7.141628,3.20481 -7.141628,7.14542 v 59.35433 c 0,3.93886 3.200947,7.14542 7.141628,7.14542 H 169.79553 c 3.93886,0 7.13791,-3.20656 7.13791,-7.14542 v -59.35433 c 0,-3.94061 -3.19905,-7.14542 -7.13791,-7.14542 z m 0,3.35059 H 169.79553 c 2.183,0 3.79105,1.60856 3.79105,3.79483 v 59.35433 c 0,2.183 -1.60805,3.79105 -3.79105,3.79105 H 31.446473 c -2.186345,0 -3.794833,-1.60805 -3.794833,-3.79105 v -59.35433 c 0,-2.18627 1.608488,-3.79483 3.794833,-3.79483 z m 46.829131,4.52895 c -1.028371,0.12094 -1.967572,0.63672 -2.507328,1.25363 -0.783809,0.91239 -1.44326,1.91891 -1.00892,4.05462 0.341674,1.01256 1.188207,2.07124 2.480956,2.63154 l 5.180249,2.69929 -6.528,12.99575 c -2.559782,-1.2722 -6.343905,-2.34931 -9.916249,-1.80708 -5.541008,1.08199 -8.635155,2.91967 -11.410795,6.528 -3.048105,3.77284 -4.058263,7.83511 -3.742161,12.46117 0.47062,4.13265 2.699802,8.57826 5.891788,11.32046 2.976128,2.61114 7.961061,4.62993 12.032,4.17505 4.37677,-0.23896 8.976611,-2.03052 12.122336,-5.50772 2.385011,-2.82707 4.183204,-6.12593 4.532672,-9.78825 0.411611,-6.24519 -1.735977,-11.90611 -7.017416,-15.83054 l 1.174657,-2.38684 20.592917,14.93076 c -0.208353,1.33129 -0.19961,2.57348 0.54566,3.712 1.20788,1.75281 2.24871,2.44614 4.44605,2.64662 l 10.62779,-1.19338 c 1.09998,4.202 2.28972,6.27973 5.68474,9.53597 3.41295,2.46726 5.63842,3.60155 9.80705,4.0847 5.30453,0.11584 8.51954,-0.76974 12.74725,-4.17504 3.21771,-2.31048 5.72329,-7.30314 5.95204,-11.60283 0.26227,-4.22517 -0.44148,-7.59608 -2.97037,-11.23013 -1.7759,-3.07629 -6.05512,-6.18887 -10.65037,-7.21695 -3.94761,-0.82497 -7.68736,-0.32201 -11.38822,1.41557 l -6.09504,-10.12329 1.32517,-2.816 1.31387,-0.0146 c 1.36983,-0.95093 2.66586,-1.96487 3.39576,-3.31671 0.73762,-1.27475 0.50777,-2.13673 -0.70739,-2.20608 l -12.31809,0.12822 c -0.91749,0.007 -1.4783,0.32273 -1.96145,0.85454 l -0.95246,2.00662 8.12796,2.5525 -1.27242,2.27384 H 84.49129 l 1.807008,-3.79104 -8.2183,-4.29176 c -0.383198,-0.13623 -0.91312,-0.70957 -0.666591,-1.54729 0.210541,-0.61195 0.819725,-0.87101 1.343964,-0.76049 l 7.672496,1.32895 c 0.896948,0.0743 1.310307,-0.26736 1.569876,-0.90729 0.08742,-0.85324 -0.09252,-1.37952 -1.012708,-1.73933 l -7.664919,-1.32138 c -0.350416,-0.0583 -0.703746,-0.0583 -1.046584,-0.0219 z m 36.393376,16.03388 -8.75667,17.77692 c -1.46752,-0.25207 -2.94218,0.17776 -3.98308,1.06166 l -20.863998,-15.11529 1.840956,-3.67812 z m 2.55622,0.82074 5.11249,8.51947 c -3.467,2.74737 -5.30162,5.27051 -6.38871,9.61129 l -7.12654,-0.82067 z m 14.49787,8.05271 c 0.59228,-0.0291 1.18806,-0.0146 1.792,0.0219 3.61351,0.31107 5.98825,1.64913 8.51204,3.73087 2.9915,2.88353 4.17038,6.14341 4.47621,9.91617 -0.0364,3.51326 -0.6003,5.9449 -2.67671,8.92612 -3.51071,4.01696 -6.85503,5.89901 -12.928,5.7525 -3.59034,-0.54201 -6.0981,-1.85895 -8.05642,-3.60658 -1.73481,-1.51633 -3.34665,-3.73706 -4.31813,-7.00613 l 14.37738,-1.31387 c 1.27731,-0.0772 2.10403,-0.99661 2.176,-2.11204 0.0729,-1.08454 -0.65712,-2.29045 -2.16092,-2.4395 l -6.48283,-10.58255 c 1.77714,-0.82118 3.5137,-1.21021 5.28938,-1.28758 z m -63.736422,0.10126 c 2.09885,0.0146 4.29911,0.35042 6.475329,1.61133 l -2.443292,4.99193 c -0.768438,1.48034 -1.837168,4.47913 -3.392037,4.94683 -0.603938,0.22366 -0.970745,-0.1355 -1.795715,0.2375 -1.164239,0.61705 -1.617375,1.70421 -1.306373,2.77083 0.290678,0.85069 0.840196,1.51283 2.096957,1.69788 1.464897,0.002 2.619228,-1.37194 2.285131,-2.85746 1.978937,-0.69646 3.833225,-4.09731 5.300745,-6.71617 l 1.765627,-3.49367 c 1.477792,1.26449 3.619552,3.90885 4.084709,5.79009 1.081989,2.84762 1.131601,4.69943 0.715401,7.5445 -0.657849,3.82674 -3.0076,7.0993 -5.647008,8.96 -3.860252,2.3464 -7.985903,3.69109 -13.835292,1.37033 -4.464191,-2.01492 -7.356758,-5.80363 -8.297416,-10.7407 -0.295777,-4.40249 0.297234,-7.90351 3.463504,-11.32418 2.107447,-2.63176 5.312036,-4.11822 8.470584,-4.72478 0.672419,-0.0437 1.359699,-0.0728 2.059292,-0.0656 z m 55.770332,2.6993 5.21413,8.66254 -10.33034,-1.13313 c 0.63745,-2.80645 2.82118,-5.97709 5.11621,-7.52941 z" />
  </g>
</svg>
