<?xml version="1.0" encoding="UTF-8" standalone="no"?>
<svg
   xmlns:dc="http://purl.org/dc/elements/1.1/"
   xmlns:cc="http://creativecommons.org/ns#"
   xmlns:rdf="http://www.w3.org/1999/02/22-rdf-syntax-ns#"
   xmlns:svg="http://www.w3.org/2000/svg"
   xmlns="http://www.w3.org/2000/svg"
   xmlns:sodipodi="http://sodipodi.sourceforge.net/DTD/sodipodi-0.dtd"
   xmlns:inkscape="http://www.inkscape.org/namespaces/inkscape"
   width="158.75mm"
   height="79.76149mm"
   viewBox="0 0 158.74999 79.761484"
   version="1.1"
   id="svg6774"
   inkscape:version="1.0 (4035a4fb49, 2020-05-01)"
   sodipodi:docname="Latvia_road_sign_833.svg">
  <defs
     id="defs6768" />
  <sodipodi:namedview
     id="base"
     pagecolor="#ffffff"
     bordercolor="#666666"
     borderopacity="1.0"
     inkscape:pageopacity="0.0"
     inkscape:pageshadow="2"
     inkscape:zoom="0.39362278"
     inkscape:cx="35.233252"
     inkscape:cy="-28.832046"
     inkscape:document-units="mm"
     inkscape:current-layer="layer1"
     inkscape:document-rotation="0"
     showgrid="false"
     fit-margin-top="0"
     fit-margin-left="0"
     fit-margin-right="0"
     fit-margin-bottom="0"
     inkscape:window-width="1920"
     inkscape:window-height="1001"
     inkscape:window-x="-9"
     inkscape:window-y="-9"
     inkscape:window-maximized="1" />
  <metadata
     id="metadata6771">
    <rdf:RDF>
      <cc:Work
         rdf:about="">
        <dc:format>image/svg+xml</dc:format>
        <dc:type
           rdf:resource="http://purl.org/dc/dcmitype/StillImage" />
        <dc:title></dc:title>
      </cc:Work>
    </rdf:RDF>
  </metadata>
  <g
     inkscape:label="Layer 1"
     inkscape:groupmode="layer"
     id="layer1"
     transform="translate(-230.6779,-486.30145)">
    <g
       id="g2362"
       style="opacity:1"
       inkscape:groupmode="layer" />
    <g
       id="g12127"
       transform="matrix(2.5700371,0,0,-2.5700371,-221.66369,2327.5473)"
       style="opacity:1;stroke-width:0.137266">
      <path
         style="color:#000000;font-style:normal;font-variant:normal;font-weight:normal;font-stretch:normal;font-size:medium;line-height:normal;font-family:sans-serif;font-variant-ligatures:normal;font-variant-position:normal;font-variant-caps:normal;font-variant-numeric:normal;font-variant-alternates:normal;font-variant-east-asian:normal;font-feature-settings:normal;font-variation-settings:normal;text-indent:0;text-align:start;text-decoration:none;text-decoration-line:none;text-decoration-style:solid;text-decoration-color:#000000;letter-spacing:normal;word-spacing:normal;text-transform:none;writing-mode:lr-tb;direction:ltr;text-orientation:mixed;dominant-baseline:auto;baseline-shift:baseline;text-anchor:start;white-space:normal;shape-padding:0;shape-margin:0;inline-size:0;clip-rule:nonzero;display:inline;overflow:visible;visibility:visible;isolation:auto;mix-blend-mode:normal;color-interpolation:sRGB;color-interpolation-filters:linearRGB;solid-color:#000000;solid-opacity:1;vector-effect:none;fill:#ffffff;fill-opacity:1;fill-rule:nonzero;stroke:none;stroke-width:0.0411797;stroke-linecap:round;stroke-linejoin:round;stroke-miterlimit:22.926;stroke-dasharray:none;stroke-dashoffset:0;stroke-opacity:1;color-rendering:auto;image-rendering:auto;shape-rendering:auto;text-rendering:auto;enable-background:accumulate;stop-color:#000000;stop-opacity:1"
         d="m 176.15625,712.46094 c 0,2.125 1.69141,3.8164 3.82031,3.8164 h 53.83203 c 2.125,0 3.82032,-1.6914 3.81641,-3.8164 l -0.0156,-23.09766 c 0,-2.125 -1.67578,-3.82031 -3.80078,-3.82031 h -53.83203 c -2.1289,0 -3.82031,1.6914 -3.82031,3.82031 z m 0,0"
         id="path12129" />
      <path
         style="color:#000000;font-style:normal;font-variant:normal;font-weight:normal;font-stretch:normal;font-size:medium;line-height:normal;font-family:sans-serif;font-variant-ligatures:normal;font-variant-position:normal;font-variant-caps:normal;font-variant-numeric:normal;font-variant-alternates:normal;font-variant-east-asian:normal;font-feature-settings:normal;font-variation-settings:normal;text-indent:0;text-align:start;text-decoration:none;text-decoration-line:none;text-decoration-style:solid;text-decoration-color:#000000;letter-spacing:normal;word-spacing:normal;text-transform:none;writing-mode:lr-tb;direction:ltr;text-orientation:mixed;dominant-baseline:auto;baseline-shift:baseline;text-anchor:start;white-space:normal;shape-padding:0;shape-margin:0;inline-size:0;clip-rule:nonzero;display:inline;overflow:visible;visibility:visible;isolation:auto;mix-blend-mode:normal;color-interpolation:sRGB;color-interpolation-filters:linearRGB;solid-color:#000000;solid-opacity:1;vector-effect:none;fill:#000000;fill-opacity:1;fill-rule:nonzero;stroke:none;stroke-width:0.0411797;stroke-linecap:round;stroke-linejoin:round;stroke-miterlimit:22.926;stroke-dasharray:none;stroke-dashoffset:0;stroke-opacity:1;color-rendering:auto;image-rendering:auto;shape-rendering:auto;text-rendering:auto;enable-background:accumulate;stop-color:#000000;stop-opacity:1"
         d="m 179.97656,685.39258 c -2.20835,0 -3.9707,1.76234 -3.9707,3.9707 v 23.09766 c 0,2.20459 1.76235,3.96679 3.9707,3.96679 h 53.83203 c 2.2046,0 3.97086,-1.76187 3.9668,-3.96679 l -0.0156,-23.09766 c 0,-2.20386 -1.7464,-3.9707 -3.95118,-3.9707 z m 0,0.30078 h 53.83203 c 2.04522,0 3.65039,1.62378 3.65039,3.66992 l 0.0156,23.09766 c 0.004,2.04507 -1.62061,3.66601 -3.66602,3.66601 h -53.83203 c -2.04945,0 -3.66992,-1.62061 -3.66992,-3.66601 v -23.09766 c 0,-2.04946 1.62047,-3.66992 3.66992,-3.66992 z"
         id="path12131" />
    </g>
    <path
       id="path7469"
       style="fill:#000000;fill-opacity:1;fill-rule:evenodd;stroke:none;stroke-width:0.352777"
       d="m 240.88277,489.35839 c -3.93733,0 -7.1492,3.19694 -7.1492,7.13791 v 59.36184 c 0,3.94097 3.20823,7.14913 7.1492,7.14913 h 138.34905 c 3.93383,0 7.13791,-3.20816 7.13791,-7.14913 V 496.4963 c 0,-3.94097 -3.20772,-7.13791 -7.13791,-7.13791 z m 0,3.35437 h 138.34905 c 2.17367,0 3.78725,1.60062 3.78725,3.78354 v 49.08039 l -39.38626,-0.0291 v 7.71008 h -14.7087 c 3.70267,-0.772 6.49784,-4.06168 6.49784,-7.98874 0,-4.50754 -3.66429,-8.17313 -8.16184,-8.17313 -4.50761,0 -8.18071,3.66559 -8.18071,8.17313 0,3.92706 2.80157,7.21681 6.51292,7.98874 h -51.10209 c 3.55537,-0.88252 6.21933,-4.07764 6.21933,-7.89833 0,-4.49756 -3.67564,-8.17321 -8.1732,-8.17321 -4.50761,0 -8.18071,3.67565 -8.18071,8.17321 0,3.81967 2.65922,7.01486 6.21933,7.89833 h -33.48704 v -56.76045 c 0,-2.18285 1.60827,-3.78354 3.79483,-3.78354 z m 37.43617,24.18443 -10.37929,12.72845 -20.08092,-0.0291 -2.24754,6.0348 99.76088,0.0291 -1.0165,-2.34917 -23.8418,-3.80612 -11.71582,-12.60804 z m 3.55391,2.20616 11.59526,0.0437 v 10.43196 l -19.49738,-0.0219 z m 13.74489,0 12.61932,0.0437 c 3.11214,3.5338 6.44262,6.83667 9.49459,10.48092 H 295.6366 Z m -50.0555,17.94258 5.6207,7.65741 11.94546,1.14443 c 0.50194,-4.83894 1.56739,-6.75384 5.40229,-8.74167 z m 77.02962,0 -45.69971,0.0291 c 2.70053,1.1646 5.5429,4.41727 5.07104,8.67391 l 35.82871,0.0219 c -0.0291,-4.11604 1.27621,-6.22305 4.79996,-8.7228 z m 23.52184,0.0291 -14.45643,0.0364 c 4.12609,2.14839 4.62804,4.41976 4.99951,8.1845 l 7.07016,-1.408 2.40934,-3.44099 z m -18.85359,3.8325 c 2.38931,0 4.33692,1.96014 4.33692,4.3595 0,2.38938 -1.94761,4.33699 -4.33692,4.33699 -2.39944,0 -4.35579,-1.94761 -4.35579,-4.33699 0,-2.39936 1.95635,-4.3595 4.35579,-4.3595 z m -54.73504,0.0903 c 2.39943,0 4.34821,1.96014 4.34821,4.3595 7e-5,2.38939 -1.94878,4.3445 -4.34821,4.3445 -2.38931,0 -4.34443,-1.95511 -4.34443,-4.3445 0,-2.39936 1.95512,-4.3595 4.34443,-4.3595 z" />
  </g>
</svg>
