<?xml version="1.0" encoding="UTF-8" standalone="no"?>
<svg
   xmlns:dc="http://purl.org/dc/elements/1.1/"
   xmlns:cc="http://creativecommons.org/ns#"
   xmlns:rdf="http://www.w3.org/1999/02/22-rdf-syntax-ns#"
   xmlns:svg="http://www.w3.org/2000/svg"
   xmlns="http://www.w3.org/2000/svg"
   xmlns:sodipodi="http://sodipodi.sourceforge.net/DTD/sodipodi-0.dtd"
   xmlns:inkscape="http://www.inkscape.org/namespaces/inkscape"
   width="158.75mm"
   height="79.758965mm"
   viewBox="0 0 158.74999 79.758959"
   version="1.1"
   id="svg6774"
   inkscape:version="1.0 (4035a4fb49, 2020-05-01)"
   sodipodi:docname="Latvia_road_sign_823.svg">
  <defs
     id="defs6768" />
  <sodipodi:namedview
     id="base"
     pagecolor="#ffffff"
     bordercolor="#666666"
     borderopacity="1.0"
     inkscape:pageopacity="0.0"
     inkscape:pageshadow="2"
     inkscape:zoom="0.55666667"
     inkscape:cx="-851.37082"
     inkscape:cy="635.22893"
     inkscape:document-units="mm"
     inkscape:current-layer="layer1"
     inkscape:document-rotation="0"
     showgrid="false"
     fit-margin-top="0"
     fit-margin-left="0"
     fit-margin-right="0"
     fit-margin-bottom="0"
     inkscape:window-width="1920"
     inkscape:window-height="1001"
     inkscape:window-x="-9"
     inkscape:window-y="-9"
     inkscape:window-maximized="1" />
  <metadata
     id="metadata6771">
    <rdf:RDF>
      <cc:Work
         rdf:about="">
        <dc:format>image/svg+xml</dc:format>
        <dc:type
           rdf:resource="http://purl.org/dc/dcmitype/StillImage" />
        <dc:title></dc:title>
      </cc:Work>
    </rdf:RDF>
  </metadata>
  <g
     inkscape:label="Layer 1"
     inkscape:groupmode="layer"
     id="layer1"
     transform="translate(-438.99837,-250.89952)">
    <g
       id="g2362"
       style="opacity:1"
       inkscape:groupmode="layer" />
    <g
       transform="matrix(2.5699558,0,0,-2.5699558,-49.78011,1807.9765)"
       id="g6893"
       style="opacity:1;stroke-width:0.13727">
      <path
         style="color:#000000;font-style:normal;font-variant:normal;font-weight:normal;font-stretch:normal;font-size:medium;line-height:normal;font-family:sans-serif;font-variant-ligatures:normal;font-variant-position:normal;font-variant-caps:normal;font-variant-numeric:normal;font-variant-alternates:normal;font-variant-east-asian:normal;font-feature-settings:normal;font-variation-settings:normal;text-indent:0;text-align:start;text-decoration:none;text-decoration-line:none;text-decoration-style:solid;text-decoration-color:#000000;letter-spacing:normal;word-spacing:normal;text-transform:none;writing-mode:lr-tb;direction:ltr;text-orientation:mixed;dominant-baseline:auto;baseline-shift:baseline;text-anchor:start;white-space:normal;shape-padding:0;shape-margin:0;inline-size:0;clip-rule:nonzero;display:inline;overflow:visible;visibility:visible;isolation:auto;mix-blend-mode:normal;color-interpolation:sRGB;color-interpolation-filters:linearRGB;solid-color:#000000;solid-opacity:1;vector-effect:none;fill:#ffffff;fill-opacity:1;fill-rule:nonzero;stroke:none;stroke-width:0.041181;stroke-linecap:round;stroke-linejoin:round;stroke-miterlimit:22.926;stroke-dasharray:none;stroke-dashoffset:0;stroke-opacity:1;color-rendering:auto;image-rendering:auto;shape-rendering:auto;text-rendering:auto;enable-background:accumulate;stop-color:#000000;stop-opacity:1"
         d="m 190.34,601.906 c 0,2.128 1.693,3.82 3.82,3.82 h 53.831 c 2.127,0 3.821,-1.692 3.82,-3.82 l -0.016,-23.096 c -10e-4,-2.127 -1.677,-3.819 -3.804,-3.819 H 194.16 c -2.127,0 -3.82,1.692 -3.82,3.819 z"
         id="path6895" />
      <path
         style="color:#000000;font-style:normal;font-variant:normal;font-weight:normal;font-stretch:normal;font-size:medium;line-height:normal;font-family:sans-serif;font-variant-ligatures:normal;font-variant-position:normal;font-variant-caps:normal;font-variant-numeric:normal;font-variant-alternates:normal;font-variant-east-asian:normal;font-feature-settings:normal;font-variation-settings:normal;text-indent:0;text-align:start;text-decoration:none;text-decoration-line:none;text-decoration-style:solid;text-decoration-color:#000000;letter-spacing:normal;word-spacing:normal;text-transform:none;writing-mode:lr-tb;direction:ltr;text-orientation:mixed;dominant-baseline:auto;baseline-shift:baseline;text-anchor:start;white-space:normal;shape-padding:0;shape-margin:0;inline-size:0;clip-rule:nonzero;display:inline;overflow:visible;visibility:visible;isolation:auto;mix-blend-mode:normal;color-interpolation:sRGB;color-interpolation-filters:linearRGB;solid-color:#000000;solid-opacity:1;vector-effect:none;fill:#000000;fill-opacity:1;fill-rule:nonzero;stroke:none;stroke-width:0.041181;stroke-linecap:round;stroke-linejoin:round;stroke-miterlimit:22.926;stroke-dasharray:none;stroke-dashoffset:0;stroke-opacity:1;color-rendering:auto;image-rendering:auto;shape-rendering:auto;text-rendering:auto;enable-background:accumulate;stop-color:#000000;stop-opacity:1"
         d="m 194.16016,574.8418 c -2.20655,0 -3.97071,1.76215 -3.97071,3.96875 v 23.0957 c 0,2.20756 1.76416,3.9707 3.97071,3.9707 h 53.83007 c 2.20655,0 3.97174,-1.76306 3.97071,-3.9707 l -0.0156,-23.0957 c -10e-4,-2.20576 -1.74853,-3.96875 -3.95508,-3.96875 z m 0,0.29882 h 53.83007 c 2.04746,0 3.65334,1.62169 3.6543,3.66993 l 0.0156,23.0957 c 9.6e-4,2.04836 -1.62247,3.66992 -3.66993,3.66992 h -53.83007 c -2.04746,0 -3.66993,-1.62148 -3.66993,-3.66992 v -23.0957 c 0,-2.04741 1.62247,-3.66993 3.66993,-3.66993 z"
         id="path6897" />
    </g>
    <path
       id="path6040"
       style="fill:#000000;fill-opacity:1;fill-rule:evenodd;stroke:none;stroke-width:0.352777"
       d="m 449.20416,253.96254 c -3.94056,0 -7.14519,3.20179 -7.14519,7.1414 v 59.35617 c 0,3.93779 3.20463,7.14147 7.14519,7.14147 h 138.34096 c 3.93873,0 7.1414,-3.20274 7.1414,-7.14147 v -59.35617 c 0,-3.93961 -3.20085,-7.1414 -7.1414,-7.1414 z m 0,3.34669 h 138.34096 c 2.1862,0 3.79471,1.60756 3.79471,3.79471 v 59.35617 c 0,2.18292 -1.61179,3.78721 -3.79471,3.78721 H 449.20416 c -2.1862,0 -3.79092,-1.60334 -3.79092,-3.78721 v -59.35617 c 0,-2.18715 1.60472,-3.79471 3.79092,-3.79471 z m 50.10659,5.16879 c -0.3861,-0.0146 -0.77264,-0.007 -1.21593,0.0364 l -13.46966,11.89605 c -1.08195,1.71931 -1.26138,3.64027 -1.35907,5.78619 -0.21855,1.30553 -0.23895,1.62541 0.75297,2.62767 l 8.61331,0.57186 0.60975,-6.42238 c 1.12049,-4.24557 3.59817,-9.41058 7.27319,-14.37321 -0.43273,-0.0656 -0.81854,-0.1049 -1.20471,-0.1202 z m -1.66767,8.83172 c -1.74502,3.36665 -2.89116,7.30043 -2.78582,11.11678 l -9.61849,16.90304 c -1.28754,-0.29577 -3.97465,0.2914 -4.96926,2.19851 -1.31325,1.78867 -1.06615,4.51731 0.62505,6.2906 2.62395,2.21017 5.32039,1.57857 7.09623,-0.0794 1.51628,-1.41604 1.93189,-4.37036 0.45968,-6.41859 l 2.27005,-3.76834 c 3.05056,2.48773 4.12487,8.14519 1.54724,11.84338 -3.28185,4.66445 -8.99584,5.68099 -13.66547,2.19101 -5.24784,-4.23021 -3.91215,-12.44599 1.09929,-15.16756 1.83755,-1.01515 3.94616,-1.53646 5.6732,-1.24608 l 2.37168,-4.14854 c -4.67218,-1.09478 -8.97422,0.38756 -12.15583,2.9552 -2.96831,2.54935 -4.60866,6.19669 -4.78852,10.57849 0.75559,8.18271 5.54316,12.48635 12.43061,13.48096 7.94376,0.68113 14.79938,-5.11569 15.14119,-13.43208 0.12311,-4.3689 -1.97014,-8.15181 -5.23655,-11.03016 l 4.82619,-7.39367 10.26604,16.23668 c 1.32353,2.23327 2.61026,4.84884 5.17251,5.0596 l 22.97903,0.62868 0.1843,-4.00553 c 0.21564,-3.80098 1.454,-7.80338 3.934,-10.66883 1.9737,-2.23334 6.02026,-4.73418 9.63357,-5.28929 5.93408,-0.97909 12.56663,-1.1438 18.43892,4.02441 l 1.8484,-1.78444 -8.72251,-9.81431 c -8.40891,5.17338 -24.71867,10.25271 -34.17864,7.07365 -3.36665,-0.68114 -4.70139,-4.14628 -6.2793,-6.91928 -1.45465,-5.95717 -10.75297,-7.63955 -15.25039,-8.17666 z m 61.11424,4.36315 c -14.29154,4.93174 -23.33474,4.82138 -36.58797,1.65266 2.17673,3.59532 3.73534,7.9254 8.67735,8.52677 l 0.18067,0.22583 c 9.33154,0.81475 21.33868,-2.87666 29.32615,-7.24302 z m -56.32193,9.15168 9.18184,2.00655 -4.50245,5.74095 z m 50.57719,5.86151 c -1.4824,0.0437 -3.03059,0.33584 -4.61914,0.90719 -6.72558,2.75246 -9.82174,9.12654 -8.37998,16.03716 1.09477,5.38151 6.5012,10.09915 12.08057,10.42034 7.27042,0.22364 10.32119,-2.67495 13.42828,-7.2957 5.00787,-8.88468 -2.13324,-20.39382 -12.50973,-20.06899 z m -0.24477,4.14854 c 2.18227,-0.12676 4.41189,0.50922 6.22664,2.02907 2.43629,2.08428 3.31369,3.77198 3.54243,7.47272 0.0291,3.71101 -3.49122,9.89437 -10.71021,8.94092 -3.90894,-0.64982 -6.23654,-3.00765 -7.3673,-6.28688 l 4.72077,0.0291 c 3.04793,3.59532 8.93779,1.88956 8.9635,-3.29402 -0.39047,-3.23043 -2.5409,-4.53778 -4.63801,-4.74343 -1.85809,-0.17192 -3.7612,0.92089 -4.54761,2.27005 h -4.6115 c 1.2721,-3.8822 4.78415,-6.20784 8.42136,-6.41859 z" />
  </g>
</svg>
