<?xml version="1.0" encoding="UTF-8" standalone="no"?>
<svg
   xmlns:dc="http://purl.org/dc/elements/1.1/"
   xmlns:cc="http://creativecommons.org/ns#"
   xmlns:rdf="http://www.w3.org/1999/02/22-rdf-syntax-ns#"
   xmlns:svg="http://www.w3.org/2000/svg"
   xmlns="http://www.w3.org/2000/svg"
   xmlns:sodipodi="http://sodipodi.sourceforge.net/DTD/sodipodi-0.dtd"
   xmlns:inkscape="http://www.inkscape.org/namespaces/inkscape"
   width="158.75mm"
   height="79.758987mm"
   viewBox="0 0 158.74999 79.758982"
   version="1.1"
   id="svg6774"
   inkscape:version="1.0 (4035a4fb49, 2020-05-01)"
   sodipodi:docname="Latvia_road_sign_826.svg">
  <defs
     id="defs6768" />
  <sodipodi:namedview
     id="base"
     pagecolor="#ffffff"
     bordercolor="#666666"
     borderopacity="1.0"
     inkscape:pageopacity="0.0"
     inkscape:pageshadow="2"
     inkscape:zoom="0.27833333"
     inkscape:cx="253.14976"
     inkscape:cy="1133.2145"
     inkscape:document-units="mm"
     inkscape:current-layer="layer1"
     inkscape:document-rotation="0"
     showgrid="false"
     fit-margin-top="0"
     fit-margin-left="0"
     fit-margin-right="0"
     fit-margin-bottom="0"
     inkscape:window-width="1920"
     inkscape:window-height="1001"
     inkscape:window-x="-9"
     inkscape:window-y="-9"
     inkscape:window-maximized="1" />
  <metadata
     id="metadata6771">
    <rdf:RDF>
      <cc:Work
         rdf:about="">
        <dc:format>image/svg+xml</dc:format>
        <dc:type
           rdf:resource="http://purl.org/dc/dcmitype/StillImage" />
        <dc:title></dc:title>
      </cc:Work>
    </rdf:RDF>
  </metadata>
  <g
     inkscape:label="Layer 1"
     inkscape:groupmode="layer"
     id="layer1"
     transform="translate(-121.13207,-254.91466)">
    <g
       id="g2362"
       style="opacity:1"
       inkscape:groupmode="layer" />
    <g
       transform="matrix(2.5699558,0,0,-2.5699558,-367.64641,1385.8207)"
       id="g6911"
       style="opacity:1;stroke-width:0.13727">
      <path
         style="color:#000000;font-style:normal;font-variant:normal;font-weight:normal;font-stretch:normal;font-size:medium;line-height:normal;font-family:sans-serif;font-variant-ligatures:normal;font-variant-position:normal;font-variant-caps:normal;font-variant-numeric:normal;font-variant-alternates:normal;font-variant-east-asian:normal;font-feature-settings:normal;font-variation-settings:normal;text-indent:0;text-align:start;text-decoration:none;text-decoration-line:none;text-decoration-style:solid;text-decoration-color:#000000;letter-spacing:normal;word-spacing:normal;text-transform:none;writing-mode:lr-tb;direction:ltr;text-orientation:mixed;dominant-baseline:auto;baseline-shift:baseline;text-anchor:start;white-space:normal;shape-padding:0;shape-margin:0;inline-size:0;clip-rule:nonzero;display:inline;overflow:visible;visibility:visible;isolation:auto;mix-blend-mode:normal;color-interpolation:sRGB;color-interpolation-filters:linearRGB;solid-color:#000000;solid-opacity:1;vector-effect:none;fill:#ffffff;fill-opacity:1;fill-rule:nonzero;stroke:none;stroke-width:0.041181;stroke-linecap:round;stroke-linejoin:round;stroke-miterlimit:22.926;stroke-dasharray:none;stroke-dashoffset:0;stroke-opacity:1;color-rendering:auto;image-rendering:auto;shape-rendering:auto;text-rendering:auto;enable-background:accumulate;stop-color:#000000;stop-opacity:1"
         d="m 190.34,436.08 c 0,2.127 1.693,3.819 3.82,3.819 h 53.831 c 2.127,0 3.821,-1.692 3.82,-3.819 l -0.016,-23.097 c -10e-4,-2.127 -1.677,-3.819 -3.804,-3.819 H 194.16 c -2.127,0 -3.82,1.692 -3.82,3.819 z"
         id="path6913" />
      <path
         style="color:#000000;font-style:normal;font-variant:normal;font-weight:normal;font-stretch:normal;font-size:medium;line-height:normal;font-family:sans-serif;font-variant-ligatures:normal;font-variant-position:normal;font-variant-caps:normal;font-variant-numeric:normal;font-variant-alternates:normal;font-variant-east-asian:normal;font-feature-settings:normal;font-variation-settings:normal;text-indent:0;text-align:start;text-decoration:none;text-decoration-line:none;text-decoration-style:solid;text-decoration-color:#000000;letter-spacing:normal;word-spacing:normal;text-transform:none;writing-mode:lr-tb;direction:ltr;text-orientation:mixed;dominant-baseline:auto;baseline-shift:baseline;text-anchor:start;white-space:normal;shape-padding:0;shape-margin:0;inline-size:0;clip-rule:nonzero;display:inline;overflow:visible;visibility:visible;isolation:auto;mix-blend-mode:normal;color-interpolation:sRGB;color-interpolation-filters:linearRGB;solid-color:#000000;solid-opacity:1;vector-effect:none;fill:#000000;fill-opacity:1;fill-rule:nonzero;stroke:none;stroke-width:0.041181;stroke-linecap:round;stroke-linejoin:round;stroke-miterlimit:22.926;stroke-dasharray:none;stroke-dashoffset:0;stroke-opacity:1;color-rendering:auto;image-rendering:auto;shape-rendering:auto;text-rendering:auto;enable-background:accumulate;stop-color:#000000;stop-opacity:1"
         d="m 194.16016,409.01367 c -2.20655,0 -3.97071,1.76216 -3.97071,3.96875 v 23.09766 c 0,2.20659 1.76416,3.96875 3.97071,3.96875 h 53.83007 c 2.20655,0 3.97174,-1.76207 3.97071,-3.96875 l -0.0156,-23.09766 c -10e-4,-2.20576 -1.74853,-3.96875 -3.95508,-3.96875 z m 0,0.30078 h 53.83007 c 2.04746,0 3.65334,1.61973 3.6543,3.66797 l 0.0156,23.09766 c 9.6e-4,2.04732 -1.62247,3.66797 -3.66993,3.66797 h -53.83007 c -2.04746,0 -3.66993,-1.62057 -3.66993,-3.66797 v -23.09766 c 0,-2.0474 1.62247,-3.66797 3.66993,-3.66797 z"
         id="path6915" />
    </g>
    <path
       d="m 207.28608,279.72715 c 0.0291,2.33096 -1.22073,4.20187 -2.35922,5.12195 -1.30036,1.57282 -3.09164,3.47199 -3.4977,5.4226 -0.19014,0.94828 -0.13332,1.92489 0.051,2.87317 0.86865,-0.27245 1.62679,-0.75814 2.30524,-1.41087 1.87091,-1.38267 3.46944,-4.49741 3.41546,-6.09849 0.56822,-1.76047 1.35441,-3.30502 3.03511,-4.28156 3.30757,-2.03286 7.29104,-1.11022 9.35208,2.30524 1.6268,3.63131 0.94835,7.15473 -2.65732,9.16187 -1.89662,1.05624 -3.73927,1.00233 -5.42004,0.4604 -1.51884,-0.48809 -4.28412,-0.64981 -6.3966,-0.0583 -0.81467,0.38028 -1.62679,0.62432 -2.65731,1.57282 0.92256,0.81212 1.51883,1.32869 2.57507,1.73468 2.5468,0.542 4.20186,0.5165 6.69476,-0.26954 1.35434,-0.43418 3.74182,-0.48809 5.31209,0.59663 3.0094,1.57282 4.20186,5.50223 2.84752,8.61959 -1.87098,3.41553 -5.66678,5.09623 -9.73242,2.79099 -1.59853,-0.94827 -2.73702,-3.06338 -2.98121,-4.60792 -0.45968,-2.24871 -1.78866,-4.69018 -3.19698,-5.99061 -0.92264,-0.7864 -1.41094,-0.89429 -2.46718,-1.13848 -0.21855,1.11284 -0.27246,1.35696 -0.0823,2.33095 0.26954,1.87099 1.57281,4.93437 3.68536,6.01887 1.32862,1.57281 2.06105,2.52109 2.1433,4.57966 0.32417,4.25585 -3.19961,7.21127 -6.56109,7.183 -4.55394,-0.0291 -6.85663,-3.71356 -6.64078,-7.29096 0.051,-2.11503 0.48809,-2.62905 2.03285,-4.20187 1.95316,-1.57281 3.06338,-4.14533 3.55169,-6.34261 0.19014,-0.97661 0.13623,-1.32869 0.0291,-2.35667 -1.13849,0.21564 -1.5471,0.432 -2.19735,0.75814 -1.7604,1.49057 -2.89888,2.95287 -3.41546,5.74642 -0.21563,1.84264 -1.27209,4.28156 -2.76528,5.01399 -3.46944,2.76528 -8.56305,1.0845 -10.08188,-2.57515 -1.22073,-2.41313 -0.38027,-6.74867 2.46711,-8.29577 1.27216,-0.75814 3.73934,-1.54455 5.39433,-0.92008 1.97887,0.81467 5.77213,0.57041 7.72529,-0.13623 0.81212,-0.27027 1.11022,-0.542 1.84272,-1.24645 -0.5165,-0.48809 -1.0306,-0.84039 -1.6268,-1.11022 -3.76754,-1.46492 -6.69476,-0.40868 -9.5962,0.0291 -4.1454,-0.19014 -6.61251,-3.06345 -6.77446,-6.74875 0.13623,-4.11961 3.3872,-6.74867 6.69477,-6.64078 3.65957,-0.0291 6.2887,2.98121 6.55853,5.52801 0.27246,2.25126 1.6807,4.23014 3.17134,5.61274 0.65055,0.78641 1.51884,1.30043 2.60334,1.62679 0.16173,-0.97654 0.16173,-1.81693 -0.051,-2.76528 -0.81468,-2.52109 -1.79122,-4.23013 -3.55169,-5.80039 -1.05624,-0.81467 -2.19473,-3.09165 -2.14075,-4.6901 0,-3.95775 3.06338,-6.83099 6.91062,-6.80273 3.3075,0 6.42486,2.81926 6.45312,6.69477"
       style="fill:#ed1a3a;fill-opacity:1;fill-rule:evenodd;stroke:none;stroke-width:0.352777"
       id="path6082" />
    <path
       style="color:#000000;font-style:normal;font-variant:normal;font-weight:normal;font-stretch:normal;font-size:medium;line-height:normal;font-family:sans-serif;font-variant-ligatures:normal;font-variant-position:normal;font-variant-caps:normal;font-variant-numeric:normal;font-variant-alternates:normal;font-variant-east-asian:normal;font-feature-settings:normal;font-variation-settings:normal;text-indent:0;text-align:start;text-decoration:none;text-decoration-line:none;text-decoration-style:solid;text-decoration-color:#000000;letter-spacing:normal;word-spacing:normal;text-transform:none;writing-mode:lr-tb;direction:ltr;text-orientation:mixed;dominant-baseline:auto;baseline-shift:baseline;text-anchor:start;white-space:normal;shape-padding:0;shape-margin:0;inline-size:0;clip-rule:nonzero;display:inline;overflow:visible;visibility:visible;opacity:1;isolation:auto;mix-blend-mode:normal;color-interpolation:sRGB;color-interpolation-filters:linearRGB;solid-color:#000000;solid-opacity:1;vector-effect:none;fill:#000000;fill-opacity:1;fill-rule:nonzero;stroke:none;stroke-width:0.460023;stroke-linecap:round;stroke-linejoin:round;stroke-miterlimit:22.926;stroke-dasharray:none;stroke-dashoffset:0;stroke-opacity:1;color-rendering:auto;image-rendering:auto;shape-rendering:auto;text-rendering:auto;enable-background:accumulate;stop-color:#000000;stop-opacity:1"
       d="m 131.33663,331.6168 c -3.94056,0 -7.14272,-3.20486 -7.14272,-7.14264 V 265.1142 c 0,-3.93779 3.20216,-7.14264 7.14272,-7.14271 h 138.34088 c 3.94056,0 7.14271,3.20492 7.14271,7.14271 v 59.35996 c 0,3.93866 -3.20398,7.14264 -7.14271,7.14264 z m 0,-3.35296 h 138.34088 c 2.18292,0 3.79471,-1.60676 3.79471,-3.78968 V 265.1142 c 0,-2.18387 -1.60851,-3.78969 -3.79471,-3.78969 H 131.33663 c -2.18628,0 -3.78969,1.60582 -3.78969,3.78969 v 59.35996 c 0,2.18379 1.60341,3.78968 3.78969,3.78968 z"
       id="path6833" />
  </g>
</svg>
