<?xml version="1.0" encoding="UTF-8" standalone="no"?>
<svg
   xmlns:dc="http://purl.org/dc/elements/1.1/"
   xmlns:cc="http://creativecommons.org/ns#"
   xmlns:rdf="http://www.w3.org/1999/02/22-rdf-syntax-ns#"
   xmlns:svg="http://www.w3.org/2000/svg"
   xmlns="http://www.w3.org/2000/svg"
   xmlns:sodipodi="http://sodipodi.sourceforge.net/DTD/sodipodi-0.dtd"
   xmlns:inkscape="http://www.inkscape.org/namespaces/inkscape"
   width="158.75mm"
   height="79.761513mm"
   viewBox="0 0 158.74999 79.761507"
   version="1.1"
   id="svg6774"
   inkscape:version="1.0 (4035a4fb49, 2020-05-01)"
   sodipodi:docname="Latvia_road_sign_839.svg">
  <defs
     id="defs6768" />
  <sodipodi:namedview
     id="base"
     pagecolor="#ffffff"
     bordercolor="#666666"
     borderopacity="1.0"
     inkscape:pageopacity="0.0"
     inkscape:pageshadow="2"
     inkscape:zoom="0.55666667"
     inkscape:cx="429.01366"
     inkscape:cy="335.36737"
     inkscape:document-units="mm"
     inkscape:current-layer="layer1"
     inkscape:document-rotation="0"
     showgrid="false"
     fit-margin-top="0"
     fit-margin-left="0"
     fit-margin-right="0"
     fit-margin-bottom="0"
     inkscape:window-width="1920"
     inkscape:window-height="1001"
     inkscape:window-x="-9"
     inkscape:window-y="-9"
     inkscape:window-maximized="1" />
  <metadata
     id="metadata6771">
    <rdf:RDF>
      <cc:Work
         rdf:about="">
        <dc:format>image/svg+xml</dc:format>
        <dc:type
           rdf:resource="http://purl.org/dc/dcmitype/StillImage" />
        <dc:title></dc:title>
      </cc:Work>
    </rdf:RDF>
  </metadata>
  <g
     inkscape:label="Layer 1"
     inkscape:groupmode="layer"
     id="layer1"
     transform="translate(-473.8976,-366.55017)">
    <g
       id="g2362"
       style="opacity:1"
       inkscape:groupmode="layer" />
    <g
       id="g12163"
       transform="matrix(2.5700371,0,0,-2.5700371,21.556006,1355.4372)"
       style="opacity:1;stroke-width:0.137266">
      <path
         style="color:#000000;font-style:normal;font-variant:normal;font-weight:normal;font-stretch:normal;font-size:medium;line-height:normal;font-family:sans-serif;font-variant-ligatures:normal;font-variant-position:normal;font-variant-caps:normal;font-variant-numeric:normal;font-variant-alternates:normal;font-variant-east-asian:normal;font-feature-settings:normal;font-variation-settings:normal;text-indent:0;text-align:start;text-decoration:none;text-decoration-line:none;text-decoration-style:solid;text-decoration-color:#000000;letter-spacing:normal;word-spacing:normal;text-transform:none;writing-mode:lr-tb;direction:ltr;text-orientation:mixed;dominant-baseline:auto;baseline-shift:baseline;text-anchor:start;white-space:normal;shape-padding:0;shape-margin:0;inline-size:0;clip-rule:nonzero;display:inline;overflow:visible;visibility:visible;isolation:auto;mix-blend-mode:normal;color-interpolation:sRGB;color-interpolation-filters:linearRGB;solid-color:#000000;solid-opacity:1;vector-effect:none;fill:#ffffff;fill-opacity:1;fill-rule:nonzero;stroke:none;stroke-width:0.0411798;stroke-linecap:round;stroke-linejoin:round;stroke-miterlimit:22.926;stroke-dasharray:none;stroke-dashoffset:0;stroke-opacity:1;color-rendering:auto;image-rendering:auto;shape-rendering:auto;text-rendering:auto;enable-background:accumulate;stop-color:#000000;stop-opacity:1"
         d="m 176.15625,380.80469 c 0,2.1289 1.69141,3.82031 3.82031,3.82031 h 53.83203 c 2.125,0 3.82032,-1.69141 3.81641,-3.82031 l -0.0156,-23.09375 c 0,-2.12891 -1.67578,-3.82032 -3.80078,-3.82032 h -53.83203 c -2.1289,0 -3.82031,1.69141 -3.82031,3.82032 z m 0,0"
         id="path12165" />
      <path
         style="color:#000000;font-style:normal;font-variant:normal;font-weight:normal;font-stretch:normal;font-size:medium;line-height:normal;font-family:sans-serif;font-variant-ligatures:normal;font-variant-position:normal;font-variant-caps:normal;font-variant-numeric:normal;font-variant-alternates:normal;font-variant-east-asian:normal;font-feature-settings:normal;font-variation-settings:normal;text-indent:0;text-align:start;text-decoration:none;text-decoration-line:none;text-decoration-style:solid;text-decoration-color:#000000;letter-spacing:normal;word-spacing:normal;text-transform:none;writing-mode:lr-tb;direction:ltr;text-orientation:mixed;dominant-baseline:auto;baseline-shift:baseline;text-anchor:start;white-space:normal;shape-padding:0;shape-margin:0;inline-size:0;clip-rule:nonzero;display:inline;overflow:visible;visibility:visible;isolation:auto;mix-blend-mode:normal;color-interpolation:sRGB;color-interpolation-filters:linearRGB;solid-color:#000000;solid-opacity:1;vector-effect:none;fill:#000000;fill-opacity:1;fill-rule:nonzero;stroke:none;stroke-width:0.0411798;stroke-linecap:round;stroke-linejoin:round;stroke-miterlimit:22.926;stroke-dasharray:none;stroke-dashoffset:0;stroke-opacity:1;color-rendering:auto;image-rendering:auto;shape-rendering:auto;text-rendering:auto;enable-background:accumulate;stop-color:#000000;stop-opacity:1"
         d="m 179.97656,353.74023 c -2.20835,0 -3.9707,1.76235 -3.9707,3.97071 v 23.09375 c 0,2.20835 1.76235,3.9707 3.9707,3.9707 h 53.83203 c 2.2046,0 3.97086,-1.76202 3.9668,-3.9707 l -0.0156,-23.09375 c 0,-2.20763 -1.74658,-3.97071 -3.95118,-3.97071 z m 0,0.30079 h 53.83203 c 2.04541,0 3.65039,1.61972 3.65039,3.66992 l 0.0156,23.09375 c 0.004,2.04912 -1.62061,3.66992 -3.66602,3.66992 h -53.83203 c -2.04945,0 -3.66992,-1.62047 -3.66992,-3.66992 v -23.09375 c 0,-2.04946 1.62047,-3.66992 3.66992,-3.66992 z"
         id="path12167" />
    </g>
    <path
       id="path8307"
       style="fill:#000000;fill-opacity:1;fill-rule:evenodd;stroke:none;stroke-width:0.352777"
       d="m 484.10199,369.60729 c -3.94097,0 -7.14905,3.20807 -7.14905,7.14904 v 59.35054 c 0,3.94097 3.20808,7.1493 7.14905,7.1493 h 138.3493 c 3.93382,0 7.13766,-3.20833 7.13766,-7.1493 v -59.35054 c 0,-3.94097 -3.20384,-7.14904 -7.13766,-7.14904 z m 0,3.35412 h 138.3493 c 2.16958,0 3.78724,1.61131 3.78724,3.79492 v 49.08047 l -103.59707,-0.0529 v 7.70996 h -42.33413 v -56.74889 c 0,-2.18281 1.61131,-3.79492 3.79466,-3.79492 z m 70.17411,15.46939 -10.57116,12.98073 -20.4687,-0.0265 -2.29923,6.14415 101.68837,0.0529 -1.02394,-2.40242 -24.30489,-3.88514 -11.94937,-12.84896 z m 3.62558,2.25955 11.82476,0.0529 v 10.62038 l -19.87761,-0.022 z m 14.01207,0 12.85267,0.0529 c 3.19246,3.5941 6.58442,6.9559 9.68666,10.68044 h -22.51657 z m -51.02674,18.29276 5.7224,7.80044 12.18618,1.16417 c 0.51329,-4.92919 1.59544,-6.88684 5.51154,-8.91461 z m 78.52409,0 -46.5918,0.0265 c 2.76067,1.17475 5.65441,4.48495 5.17261,8.83205 l 36.53261,0.0217 c -0.0265,-4.19656 1.29381,-6.34471 4.88658,-8.88471 z m 23.97364,0.0265 -14.73491,0.0264 c 4.20634,2.18811 4.71593,4.50004 5.09746,8.33517 l 7.20936,-1.4261 2.45005,-3.51234 z m -19.2151,0.007 c -4.59793,0 -8.34258,3.74597 -8.34258,8.32379 0,4.58788 3.74465,8.3312 8.34258,8.3312 4.58814,0 8.32379,-3.74332 8.32379,-8.3312 0,-4.57782 -3.73565,-8.32379 -8.32379,-8.32379 z m -55.78528,0.0794 c -4.58788,0 -8.33491,3.74703 -8.33491,8.33491 0,4.58787 3.74703,8.32009 8.33491,8.32009 4.58787,0 8.32008,-3.73222 8.32008,-8.32009 0,-4.58788 -3.73221,-8.33491 -8.32008,-8.33491 z m 55.78528,3.80604 c 2.43945,0 4.41986,1.98702 4.41986,4.42727 0,2.45004 -1.97908,4.43865 -4.41986,4.43865 -2.45005,0 -4.43469,-1.98967 -4.43469,-4.43865 0,-2.43946 1.98438,-4.42727 4.43469,-4.42727 z m -55.78528,0.0794 c 2.43946,0 4.42727,1.98967 4.42727,4.43865 0,2.43946 -1.98702,4.42727 -4.42727,4.42727 -2.43946,0 -4.43865,-1.98702 -4.43865,-4.42727 0,-2.45004 2.00025,-4.43865 4.43865,-4.43865 z" />
  </g>
</svg>
