<?xml version="1.0" encoding="UTF-8" standalone="no"?>
<svg
   xmlns:dc="http://purl.org/dc/elements/1.1/"
   xmlns:cc="http://creativecommons.org/ns#"
   xmlns:rdf="http://www.w3.org/1999/02/22-rdf-syntax-ns#"
   xmlns:svg="http://www.w3.org/2000/svg"
   xmlns="http://www.w3.org/2000/svg"
   xmlns:sodipodi="http://sodipodi.sourceforge.net/DTD/sodipodi-0.dtd"
   xmlns:inkscape="http://www.inkscape.org/namespaces/inkscape"
   width="158.75mm"
   height="79.75647mm"
   viewBox="0 0 158.75 79.756473"
   version="1.1"
   id="svg1473"
   inkscape:version="1.0 (4035a4fb49, 2020-05-01)"
   sodipodi:docname="Latvia_road_sign 852.svg">
  <defs
     id="defs1467" />
  <sodipodi:namedview
     id="base"
     pagecolor="#ffffff"
     bordercolor="#666666"
     borderopacity="1.0"
     inkscape:pageopacity="0.0"
     inkscape:pageshadow="2"
     inkscape:zoom="0.35"
     inkscape:cx="310.52047"
     inkscape:cy="-1133.9959"
     inkscape:document-units="mm"
     inkscape:current-layer="layer1"
     inkscape:document-rotation="0"
     showgrid="false"
     inkscape:window-width="1424"
     inkscape:window-height="1030"
     inkscape:window-x="160"
     inkscape:window-y="0"
     inkscape:window-maximized="0" />
  <metadata
     id="metadata1470">
    <rdf:RDF>
      <cc:Work
         rdf:about="">
        <dc:format>image/svg+xml</dc:format>
        <dc:type
           rdf:resource="http://purl.org/dc/dcmitype/StillImage" />
        <dc:title></dc:title>
      </cc:Work>
    </rdf:RDF>
  </metadata>
  <g
     inkscape:label="Layer 1"
     inkscape:groupmode="layer"
     id="layer1"
     transform="translate(-23.674807,-485.74871)">
    <g
       id="g2090"
       transform="matrix(2.5698747,0,0,-2.5698747,-465.05813,1261.4945)"
       style="opacity:1;stroke-width:0.137274">
      <path
         style="color:#000000;font-style:normal;font-variant:normal;font-weight:normal;font-stretch:normal;font-size:medium;line-height:normal;font-family:sans-serif;font-variant-ligatures:normal;font-variant-position:normal;font-variant-caps:normal;font-variant-numeric:normal;font-variant-alternates:normal;font-variant-east-asian:normal;font-feature-settings:normal;font-variation-settings:normal;text-indent:0;text-align:start;text-decoration:none;text-decoration-line:none;text-decoration-style:solid;text-decoration-color:#000000;letter-spacing:normal;word-spacing:normal;text-transform:none;writing-mode:lr-tb;direction:ltr;text-orientation:mixed;dominant-baseline:auto;baseline-shift:baseline;text-anchor:start;white-space:normal;shape-padding:0;shape-margin:0;inline-size:0;clip-rule:nonzero;display:inline;overflow:visible;visibility:visible;isolation:auto;mix-blend-mode:normal;color-interpolation:sRGB;color-interpolation-filters:linearRGB;solid-color:#000000;solid-opacity:1;vector-effect:none;fill:#ffffff;fill-opacity:1;fill-rule:nonzero;stroke:none;stroke-width:0.0411823;stroke-linecap:round;stroke-linejoin:round;stroke-miterlimit:22.926;stroke-dasharray:none;stroke-dashoffset:0;stroke-opacity:1;color-rendering:auto;image-rendering:auto;shape-rendering:auto;text-rendering:auto;enable-background:accumulate;stop-color:#000000;stop-opacity:1"
         d="m 190.32812,297.89062 c 0,2.12891 1.69141,3.82032 3.82032,3.82032 h 53.83203 c 2.125,0 3.82031,-1.69141 3.82031,-3.82032 l -0.0156,-23.09375 c -0.004,-2.1289 -1.67969,-3.82031 -3.80469,-3.82031 h -53.83203 c -2.12891,0 -3.82032,1.69141 -3.82032,3.82031 z m 0,0"
         id="path2092" />
      <path
         style="color:#000000;font-style:normal;font-variant:normal;font-weight:normal;font-stretch:normal;font-size:medium;line-height:normal;font-family:sans-serif;font-variant-ligatures:normal;font-variant-position:normal;font-variant-caps:normal;font-variant-numeric:normal;font-variant-alternates:normal;font-variant-east-asian:normal;font-feature-settings:normal;font-variation-settings:normal;text-indent:0;text-align:start;text-decoration:none;text-decoration-line:none;text-decoration-style:solid;text-decoration-color:#000000;letter-spacing:normal;word-spacing:normal;text-transform:none;writing-mode:lr-tb;direction:ltr;text-orientation:mixed;dominant-baseline:auto;baseline-shift:baseline;text-anchor:start;white-space:normal;shape-padding:0;shape-margin:0;inline-size:0;clip-rule:nonzero;display:inline;overflow:visible;visibility:visible;isolation:auto;mix-blend-mode:normal;color-interpolation:sRGB;color-interpolation-filters:linearRGB;solid-color:#000000;solid-opacity:1;vector-effect:none;fill:#000000;fill-opacity:1;fill-rule:nonzero;stroke:none;stroke-width:0.0411823;stroke-linecap:round;stroke-linejoin:round;stroke-miterlimit:22.926;stroke-dasharray:none;stroke-dashoffset:0;stroke-opacity:1;color-rendering:auto;image-rendering:auto;shape-rendering:auto;text-rendering:auto;enable-background:accumulate;stop-color:#000000;stop-opacity:1"
         d="m 194.14844,270.82617 c -2.20836,0 -3.97071,1.76236 -3.97071,3.97071 v 23.09374 c 0,2.20836 1.76235,3.97071 3.97071,3.97071 h 53.83203 c 2.20459,0 3.9707,-1.76216 3.9707,-3.97071 l -0.0156,-23.09374 c -0.004,-2.20747 -1.75049,-3.97071 -3.95508,-3.97071 z m 0,0.30078 h 53.83203 c 2.0454,0 3.65044,1.61959 3.6543,3.66993 l 0.0156,23.09374 c 0,2.04928 -1.62452,3.66993 -3.66992,3.66993 h -53.83203 c -2.04946,0 -3.66992,-1.62046 -3.66992,-3.66993 v -23.09374 c 0,-2.04946 1.62046,-3.66993 3.66992,-3.66993 z"
         id="path2094" />
    </g>
    <path
       id="path14180"
       style="fill:#000000;fill-opacity:1;fill-rule:evenodd;stroke:none;stroke-width:0.352777"
       d="m 141.53064,501.74129 c 0.051,-0.0146 0.0219,-0.0218 -0.1996,0.004 l -0.0437,0.0583 c 0.0983,-0.0218 0.20688,-0.051 0.24476,-0.0583 z m -0.24477,0.0583 c -0.28265,0.0728 -0.61483,0.16099 -0.14642,0.18066 z m -0.14642,0.18066 -2.55612,3.19601 c 0.72264,-0.15079 0.86461,-0.18721 1.01628,-0.19596 0.15225,-0.007 0.31106,0.0146 1.06918,-0.0364 11.76527,-0.77298 21.52274,9.82653 20.93042,20.91913 -0.11145,2.07986 -0.52085,4.07134 -1.18573,5.9328 -0.22145,0.62065 -0.46913,1.22419 -0.74529,1.81447 -3.31767,7.08552 -10.47545,11.89195 -18.63801,11.86937 -5.86242,-0.007 -12.09527,-3.38549 -15.6789,-8.00325 -2.58002,4.37686 -8.41235,7.52137 -14.0641,7.52137 -3.44333,0 -4.67662,-0.2608 -7.24666,-2.01772 l -1.53597,2.08554 c 3.26273,1.85708 4.99802,2.17957 8.78263,2.14949 5.2803,-0.0291 10.49031,-1.8659 13.8232,-5.6806 3.93496,3.78454 9.22532,6.02065 14.72649,6.42218 13.1104,0.94358 24.203,-8.96322 24.48404,-22.09365 0.0219,-0.82069 0,-1.63111 -0.0656,-2.42805 -0.9194,-11.95453 -10.51981,-21.04902 -23.10264,-21.45369 -0.0219,-3.6e-4 -9.5e-4,-0.004 -0.0219,-0.004 z m -114.006904,5.05193 v 23.1213 l 54.678836,-0.0219 -2.77816,-7.43854 -24.755104,0.0437 -12.799189,-15.70162 z m 9.968288,2.7217 9.738675,12.87823 -18.543745,0.0291 V 509.8018 Z m 75.003176,1.84456 c -7.4024,0.051 -15.506323,5.14524 -17.263753,12.70886 0.05828,0.006 0.13331,0.006 0.185031,0.0146 l -0.229467,0.14278 c -0.08305,0.36642 -0.07722,0.26953 -0.05828,0.13549 l -0.02914,0.0656 c 0.09033,-0.48807 0.05099,-0.23748 0.02914,-0.0656 l 0.05828,-0.13549 c 0.02185,-0.051 0.02914,-0.10199 0.04371,-0.15444 -0.33801,-0.0364 -0.748283,-0.0656 -1.091756,-0.0656 -5.611537,0 -10.197901,4.57631 -10.197901,10.1979 0,0.75295 0.119468,1.58857 0.349664,2.28127 -1.304978,-0.48151 -1.795601,-0.61482 -3.241174,-0.44436 l -1.193304,1.71656 c 2.740498,-0.42178 6.755961,1.2762 8.070992,2.05916 -1.124318,-1.45555 -1.878501,-3.45323 -1.878501,-5.42082 0,-4.61776 3.763268,-8.39101 8.391009,-8.39101 0.913572,7e-5 1.899772,0.16827 2.642592,0.33874 0.485888,-4.94084 4.102728,-8.74687 8.439958,-10.86424 0.48225,-0.23529 0.97178,-0.45092 1.46808,-0.64396 2.48197,-0.96391 5.10285,-1.38693 7.45005,-1.17451 0.46913,0.0437 0.92974,0.11291 1.37404,0.20688 l 1.63366,-1.68647 c -1.5547,-0.56675 -3.23382,-0.82783 -4.95402,-0.81691 z m -30.221093,20.27917 -28.338876,0.0728 c 4.728124,2.4494 6.044466,4.81853 6.666869,10.78148 l 14.734147,-1.41549 z m -54.750371,0.0219 v 10.72123 h 9.847872 c -0.572576,-5.2602 2.91992,-9.2769 6.252736,-10.70236 z m 21.472479,0.15079 c -5.54124,0 -10.069909,4.52619 -10.069909,10.07749 0,5.54131 4.528669,10.06991 10.069909,10.06998 5.551366,0 10.088777,-4.52867 10.088777,-10.06998 0,-5.5513 -4.537411,-10.07749 -10.088777,-10.07749 z m 0.01457,4.70562 c 2.951389,0 5.36058,2.42055 5.36058,5.37187 0,2.95139 -2.409191,5.36058 -5.36058,5.36058 -2.951317,0 -5.360581,-2.40919 -5.360581,-5.36058 0,-2.95132 2.409264,-5.37187 5.360581,-5.37187 z" />
    <path
       id="path14186"
       d="m 88.097335,560.56118 63.594415,-69.4368 -15.00769,-0.16026 -63.604392,69.4368 15.017667,0.16099"
       style="fill:#eb1923;fill-opacity:1;fill-rule:evenodd;stroke:none;stroke-width:0.352777" />
    <path
       style="color:#000000;font-style:normal;font-variant:normal;font-weight:normal;font-stretch:normal;font-size:medium;line-height:normal;font-family:sans-serif;font-variant-ligatures:normal;font-variant-position:normal;font-variant-caps:normal;font-variant-numeric:normal;font-variant-alternates:normal;font-variant-east-asian:normal;font-feature-settings:normal;font-variation-settings:normal;text-indent:0;text-align:start;text-decoration:none;text-decoration-line:none;text-decoration-style:solid;text-decoration-color:#000000;letter-spacing:normal;word-spacing:normal;text-transform:none;writing-mode:lr-tb;direction:ltr;text-orientation:mixed;dominant-baseline:auto;baseline-shift:baseline;text-anchor:start;white-space:normal;shape-padding:0;shape-margin:0;inline-size:0;clip-rule:nonzero;display:inline;overflow:visible;visibility:visible;opacity:1;isolation:auto;mix-blend-mode:normal;color-interpolation:sRGB;color-interpolation-filters:linearRGB;solid-color:#000000;solid-opacity:1;vector-effect:none;fill:#000000;fill-opacity:1;fill-rule:nonzero;stroke:none;stroke-width:0.460023;stroke-linecap:round;stroke-linejoin:round;stroke-miterlimit:22.926;stroke-dasharray:none;stroke-dashoffset:0;stroke-opacity:1;color-rendering:auto;image-rendering:auto;shape-rendering:auto;text-rendering:auto;enable-background:accumulate;stop-color:#000000;stop-opacity:1"
       d="m 33.879037,562.44842 c -3.940795,0 -7.14744,-3.20679 -7.14744,-7.14751 v -59.34802 c 0,-3.94794 3.21036,-7.14745 7.14744,-7.14745 H 172.22057 c 3.93708,0 7.13746,3.20315 7.13746,7.14745 v 59.34802 c 0,3.93708 -3.19674,7.14751 -7.13746,7.14751 z m 0,-3.35292 H 172.22057 c 2.18278,0 3.78461,-1.60816 3.78454,-3.79459 v -59.34802 c 0,-2.1994 -1.59811,-3.7946 -3.78454,-3.7946 H 33.879037 c -2.186498,0 -3.794592,1.59885 -3.794592,3.7946 v 59.34802 c 0,2.18278 1.61181,3.79459 3.794592,3.79459 z"
       id="path1389" />
  </g>
</svg>
