<?xml version="1.0" encoding="UTF-8" standalone="no"?>
<svg
   xmlns:dc="http://purl.org/dc/elements/1.1/"
   xmlns:cc="http://creativecommons.org/ns#"
   xmlns:rdf="http://www.w3.org/1999/02/22-rdf-syntax-ns#"
   xmlns:svg="http://www.w3.org/2000/svg"
   xmlns="http://www.w3.org/2000/svg"
   xmlns:sodipodi="http://sodipodi.sourceforge.net/DTD/sodipodi-0.dtd"
   xmlns:inkscape="http://www.inkscape.org/namespaces/inkscape"
   width="158.75mm"
   height="79.761497mm"
   viewBox="0 0 158.74999 79.761492"
   version="1.1"
   id="svg6774"
   inkscape:version="1.0 (4035a4fb49, 2020-05-01)"
   sodipodi:docname="Latvia_road_sign_819.svg">
  <defs
     id="defs6768" />
  <sodipodi:namedview
     id="base"
     pagecolor="#ffffff"
     bordercolor="#666666"
     borderopacity="1.0"
     inkscape:pageopacity="0.0"
     inkscape:pageshadow="2"
     inkscape:zoom="0.55666667"
     inkscape:cx="416.24188"
     inkscape:cy="-100.82495"
     inkscape:document-units="mm"
     inkscape:current-layer="layer1"
     inkscape:document-rotation="0"
     showgrid="false"
     fit-margin-top="0"
     fit-margin-left="0"
     fit-margin-right="0"
     fit-margin-bottom="0"
     inkscape:window-width="1920"
     inkscape:window-height="1001"
     inkscape:window-x="-9"
     inkscape:window-y="-9"
     inkscape:window-maximized="1" />
  <metadata
     id="metadata6771">
    <rdf:RDF>
      <cc:Work
         rdf:about="">
        <dc:format>image/svg+xml</dc:format>
        <dc:type
           rdf:resource="http://purl.org/dc/dcmitype/StillImage" />
        <dc:title></dc:title>
      </cc:Work>
    </rdf:RDF>
  </metadata>
  <g
     inkscape:label="Layer 1"
     inkscape:groupmode="layer"
     id="layer1"
     transform="translate(55.45769,-375.93653)">
    <g
       id="g2362"
       style="opacity:1"
       inkscape:groupmode="layer" />
    <g
       id="g4084"
       transform="matrix(2.5700374,0,0,-2.5700374,-514.09392,867.62182)"
       style="opacity:1;stroke-width:0.137266">
      <path
         style="color:#000000;font-style:normal;font-variant:normal;font-weight:normal;font-stretch:normal;font-size:medium;line-height:normal;font-family:sans-serif;font-variant-ligatures:normal;font-variant-position:normal;font-variant-caps:normal;font-variant-numeric:normal;font-variant-alternates:normal;font-variant-east-asian:normal;font-feature-settings:normal;font-variation-settings:normal;text-indent:0;text-align:start;text-decoration:none;text-decoration-line:none;text-decoration-style:solid;text-decoration-color:#000000;letter-spacing:normal;word-spacing:normal;text-transform:none;writing-mode:lr-tb;direction:ltr;text-orientation:mixed;dominant-baseline:auto;baseline-shift:baseline;text-anchor:start;white-space:normal;shape-padding:0;shape-margin:0;inline-size:0;clip-rule:nonzero;display:inline;overflow:visible;visibility:visible;isolation:auto;mix-blend-mode:normal;color-interpolation:sRGB;color-interpolation-filters:linearRGB;solid-color:#000000;solid-opacity:1;vector-effect:none;fill:#ffffff;fill-opacity:1;fill-rule:nonzero;stroke:none;stroke-width:0.0411797;stroke-linecap:round;stroke-linejoin:round;stroke-miterlimit:22.926;stroke-dasharray:none;stroke-dashoffset:0;stroke-opacity:1;color-rendering:auto;image-rendering:auto;shape-rendering:auto;text-rendering:auto;enable-background:accumulate;stop-color:#000000;stop-opacity:1"
         d="m 178.60547,187.34375 c 0,2.12891 1.6914,3.82031 3.82031,3.82031 h 53.82813 c 2.1289,0 3.82031,-1.6914 3.82031,-3.82031 l -0.0156,-23.09766 c 0,-2.125 -1.67578,-3.8164 -3.80468,-3.8164 h -53.82813 c -2.12891,0 -3.82031,1.6914 -3.82031,3.8164 z m 0,0"
         id="path4086" />
      <path
         style="color:#000000;font-style:normal;font-variant:normal;font-weight:normal;font-stretch:normal;font-size:medium;line-height:normal;font-family:sans-serif;font-variant-ligatures:normal;font-variant-position:normal;font-variant-caps:normal;font-variant-numeric:normal;font-variant-alternates:normal;font-variant-east-asian:normal;font-feature-settings:normal;font-variation-settings:normal;text-indent:0;text-align:start;text-decoration:none;text-decoration-line:none;text-decoration-style:solid;text-decoration-color:#000000;letter-spacing:normal;word-spacing:normal;text-transform:none;writing-mode:lr-tb;direction:ltr;text-orientation:mixed;dominant-baseline:auto;baseline-shift:baseline;text-anchor:start;white-space:normal;shape-padding:0;shape-margin:0;inline-size:0;clip-rule:nonzero;display:inline;overflow:visible;visibility:visible;isolation:auto;mix-blend-mode:normal;color-interpolation:sRGB;color-interpolation-filters:linearRGB;solid-color:#000000;solid-opacity:1;vector-effect:none;fill:#000000;fill-opacity:1;fill-rule:nonzero;stroke:none;stroke-width:0.0411797;stroke-linecap:round;stroke-linejoin:round;stroke-miterlimit:22.926;stroke-dasharray:none;stroke-dashoffset:0;stroke-opacity:1;color-rendering:auto;image-rendering:auto;shape-rendering:auto;text-rendering:auto;enable-background:accumulate;stop-color:#000000;stop-opacity:1"
         d="m 182.42578,160.2793 c -2.20836,0 -3.9707,1.7622 -3.9707,3.96679 v 23.09766 c 0,2.20836 1.76234,3.9707 3.9707,3.9707 h 53.82813 c 2.20835,0 3.9707,-1.76234 3.9707,-3.9707 l -0.0156,-23.09766 c 0,-2.20386 -1.74672,-3.96679 -3.95507,-3.96679 z m 0,0.30078 h 53.82813 c 2.04945,0 3.65429,1.61987 3.65429,3.66601 l 0.0156,23.09766 c 0,2.04946 -1.62047,3.66992 -3.66992,3.66992 h -53.82813 c -2.04946,0 -3.66992,-1.62046 -3.66992,-3.66992 v -23.09766 c 0,-2.0454 1.62046,-3.66601 3.66992,-3.66601 z"
         id="path4088" />
    </g>
    <path
       id="path3312"
       style="fill:#000000;fill-opacity:1;fill-rule:evenodd;stroke:none;stroke-width:0.352777"
       d="m -45.25282,378.99231 c -3.941045,0 -7.149205,3.20816 -7.149205,7.14913 v 59.36184 c 0,3.94097 3.211802,7.13792 7.149205,7.13792 H 93.08874 c 3.937257,0 7.14534,-3.19695 7.14534,-7.13792 v -59.36184 c 0,-3.94097 -3.204441,-7.14913 -7.14534,-7.14913 z m 0,3.3543 H 93.08874 c 2.182848,0 3.794759,1.61191 3.794759,3.79483 v 59.36184 c 0,2.18285 -1.608269,3.78354 -3.794759,3.78354 H -45.25282 c -2.186637,0 -3.794832,-1.60069 -3.794832,-3.78354 v -59.36184 c 0,-2.18292 1.611838,-3.79483 3.794832,-3.79483 z m 75.685594,10.49979 -43.038089,0.083 c -1.947611,0 -3.123579,0.43055 -3.173701,2.12704 l -0.03643,26.36421 h 48.899645 l -0.02186,-26.47341 c 0,-1.14443 -0.252066,-2.10067 -2.631467,-2.10067 z m -50.736958,9.89738 -12.751044,0.0218 c -0.512146,0 -1.065453,0.30015 -1.276212,0.71176 l -8.500672,11.3845 -0.08305,14.69741 c 0.512146,2.47958 2.211115,2.08815 4.239008,2.25884 -0.180672,-1.99781 0.872177,-4.28549 2.127117,-5.74121 2.740671,-2.70053 5.359681,-3.1109 8.180635,-2.69929 3.945416,0.46188 7.299716,5.61947 7.088956,8.832 l 30.0385491,-0.0218 c 0.2411383,-4.01565 2.3278949,-6.91696 6.2231169,-8.40276 l -33.792001,-0.0291 -0.02186,-19.50868 c 0.09034,-0.64255 -0.602481,-1.54598 -1.475752,-1.50591 z m -12.29922,2.65412 h 10.108212 v 8.37267 l -14.976,-0.0219 c -0.622152,-0.0437 -0.764212,-0.45022 -0.463335,-0.86213 z m 75.33547,1.18216 v 15.56326 l 49.742973,0.0364 0.02186,-15.58962 z m 6.535504,17.13692 -28.822585,0.0146 c 4.005665,1.1445 6.092567,5.04977 5.921876,8.37275 l 6.486621,-4.66825 h 7.307292 l 2.499752,2.12704 c 0.773027,-3.10208 4.047044,-5.69225 6.607044,-5.84283 z m 3.290336,0 c 2.760779,0.40141 5.762477,3.16482 6.595752,5.86535 l 15.262088,0.13914 c 0.712488,-3.04184 3.653064,-5.79271 6.885629,-5.99341 z m 31.314833,0 c 3.443397,0.46188 6.184142,2.73317 7.047504,5.89551 l 1.554796,-2.37176 v -3.52375 z m -113.897347,1.26492 c -3.915328,0 -7.107752,3.19243 -7.107752,7.10775 0,3.92531 3.192424,7.11905 7.107752,7.11905 3.915256,0 7.107752,-3.19374 7.107752,-7.11905 0,-3.91532 -3.192496,-7.10775 -7.107752,-7.10775 z m 47.826761,0.10127 c -3.915256,0 -7.107752,3.19249 -7.107752,7.10775 0,3.91533 3.192496,7.10782 7.107752,7.10775 3.915329,0 7.107752,-3.19242 7.107752,-7.10775 0,-3.91526 -3.192423,-7.10775 -7.107752,-7.10775 z m 33.069169,0.0903 c -3.935363,0 -7.156708,3.21129 -7.156708,7.15671 0,3.93536 3.221345,7.1492 7.156708,7.1492 3.935363,0 7.149205,-3.21384 7.149205,-7.1492 0,-3.94542 -3.213842,-7.15671 -7.149205,-7.15671 z m 31.744001,0.2222 c -3.935362,0 -7.145416,3.22134 -7.145416,7.15671 0,3.93536 3.210054,7.14913 7.145416,7.14913 3.935363,0 7.160424,-3.21377 7.160424,-7.14913 0,-3.93537 -3.225061,-7.15671 -7.160424,-7.15671 z m -112.628639,3.28283 c 1.997805,0 3.62538,1.5749 3.62538,3.51246 0,1.9275 -1.627575,3.50496 -3.62538,3.50496 -1.987752,0 -3.62538,-1.57746 -3.62538,-3.50496 0,-1.93756 1.637628,-3.51246 3.62538,-3.51246 z m 47.826761,0.0903 c 1.987825,0 3.614161,1.5749 3.614161,3.51246 0,1.9275 -1.626336,3.51246 -3.614161,3.51246 -1.997733,0 -3.62538,-1.58496 -3.62538,-3.51246 0,-1.93756 1.627647,-3.51246 3.62538,-3.51246 z m 64.74163,0.007 c 1.977699,0 3.614088,1.62881 3.614088,3.60651 0,1.96772 -1.636389,3.60287 -3.614088,3.60287 -1.967718,0 -3.602868,-1.63515 -3.602796,-3.60287 0,-1.9777 1.635078,-3.60651 3.602796,-3.60651 z m -31.642373,0.10127 c 1.987825,0 3.61416,1.62509 3.61416,3.60279 0,1.98775 -1.626335,3.60659 -3.61416,3.60659 -1.987752,0 -3.595219,-1.61884 -3.595219,-3.60659 0,-1.9777 1.607467,-3.60279 3.595219,-3.60279 z" />
  </g>
</svg>
