<?xml version="1.0" encoding="UTF-8" standalone="no"?>
<svg
   xmlns:dc="http://purl.org/dc/elements/1.1/"
   xmlns:cc="http://creativecommons.org/ns#"
   xmlns:rdf="http://www.w3.org/1999/02/22-rdf-syntax-ns#"
   xmlns:svg="http://www.w3.org/2000/svg"
   xmlns="http://www.w3.org/2000/svg"
   xmlns:sodipodi="http://sodipodi.sourceforge.net/DTD/sodipodi-0.dtd"
   xmlns:inkscape="http://www.inkscape.org/namespaces/inkscape"
   width="158.75mm"
   height="79.75647mm"
   viewBox="0 0 158.74999 79.756464"
   version="1.1"
   id="svg6774"
   inkscape:version="1.0 (4035a4fb49, 2020-05-01)"
   sodipodi:docname="Latvia_road_sign_808.svg">
  <defs
     id="defs6768" />
  <sodipodi:namedview
     id="base"
     pagecolor="#ffffff"
     bordercolor="#666666"
     borderopacity="1.0"
     inkscape:pageopacity="0.0"
     inkscape:pageshadow="2"
     inkscape:zoom="0.40983509"
     inkscape:cx="-681.77226"
     inkscape:cy="-395.53079"
     inkscape:document-units="mm"
     inkscape:current-layer="layer1"
     inkscape:document-rotation="0"
     showgrid="false"
     fit-margin-top="0"
     fit-margin-left="0"
     fit-margin-right="0"
     fit-margin-bottom="0"
     inkscape:window-width="1920"
     inkscape:window-height="1001"
     inkscape:window-x="-9"
     inkscape:window-y="-9"
     inkscape:window-maximized="1" />
  <metadata
     id="metadata6771">
    <rdf:RDF>
      <cc:Work
         rdf:about="">
        <dc:format>image/svg+xml</dc:format>
        <dc:type
           rdf:resource="http://purl.org/dc/dcmitype/StillImage" />
        <dc:title></dc:title>
      </cc:Work>
    </rdf:RDF>
  </metadata>
  <g
     inkscape:label="Layer 1"
     inkscape:groupmode="layer"
     id="layer1"
     transform="translate(148.2096,-148.05133)">
    <g
       id="g2362"
       style="opacity:1"
       inkscape:groupmode="layer" />
    <g
       id="g2444"
       transform="matrix(2.5698747,0,0,-2.5698747,-636.94254,639.69547)"
       style="opacity:1;stroke-width:0.137274">
      <path
         style="color:#000000;font-style:normal;font-variant:normal;font-weight:normal;font-stretch:normal;font-size:medium;line-height:normal;font-family:sans-serif;font-variant-ligatures:normal;font-variant-position:normal;font-variant-caps:normal;font-variant-numeric:normal;font-variant-alternates:normal;font-variant-east-asian:normal;font-feature-settings:normal;font-variation-settings:normal;text-indent:0;text-align:start;text-decoration:none;text-decoration-line:none;text-decoration-style:solid;text-decoration-color:#000000;letter-spacing:normal;word-spacing:normal;text-transform:none;writing-mode:lr-tb;direction:ltr;text-orientation:mixed;dominant-baseline:auto;baseline-shift:baseline;text-anchor:start;white-space:normal;shape-padding:0;shape-margin:0;inline-size:0;clip-rule:nonzero;display:inline;overflow:visible;visibility:visible;isolation:auto;mix-blend-mode:normal;color-interpolation:sRGB;color-interpolation-filters:linearRGB;solid-color:#000000;solid-opacity:1;vector-effect:none;fill:#ffffff;fill-opacity:1;fill-rule:nonzero;stroke:none;stroke-width:0.0411821;stroke-linecap:round;stroke-linejoin:round;stroke-miterlimit:22.926;stroke-dasharray:none;stroke-dashoffset:0;stroke-opacity:1;color-rendering:auto;image-rendering:auto;shape-rendering:auto;text-rendering:auto;enable-background:accumulate;stop-color:#000000;stop-opacity:1"
         d="m 190.32812,187.33984 c 0,2.12891 1.69141,3.82032 3.82032,3.82032 h 53.83203 c 2.125,0 3.82031,-1.69141 3.82031,-3.82032 l -0.0156,-23.09375 c -0.004,-2.1289 -1.67969,-3.82031 -3.80469,-3.82031 h -53.83203 c -2.12891,0 -3.82032,1.69141 -3.82032,3.82031 z m 0,0"
         id="path2446" />
      <path
         style="color:#000000;font-style:normal;font-variant:normal;font-weight:normal;font-stretch:normal;font-size:medium;line-height:normal;font-family:sans-serif;font-variant-ligatures:normal;font-variant-position:normal;font-variant-caps:normal;font-variant-numeric:normal;font-variant-alternates:normal;font-variant-east-asian:normal;font-feature-settings:normal;font-variation-settings:normal;text-indent:0;text-align:start;text-decoration:none;text-decoration-line:none;text-decoration-style:solid;text-decoration-color:#000000;letter-spacing:normal;word-spacing:normal;text-transform:none;writing-mode:lr-tb;direction:ltr;text-orientation:mixed;dominant-baseline:auto;baseline-shift:baseline;text-anchor:start;white-space:normal;shape-padding:0;shape-margin:0;inline-size:0;clip-rule:nonzero;display:inline;overflow:visible;visibility:visible;isolation:auto;mix-blend-mode:normal;color-interpolation:sRGB;color-interpolation-filters:linearRGB;solid-color:#000000;solid-opacity:1;vector-effect:none;fill:#000000;fill-opacity:1;fill-rule:nonzero;stroke:none;stroke-width:0.0411821;stroke-linecap:round;stroke-linejoin:round;stroke-miterlimit:22.926;stroke-dasharray:none;stroke-dashoffset:0;stroke-opacity:1;color-rendering:auto;image-rendering:auto;shape-rendering:auto;text-rendering:auto;enable-background:accumulate;stop-color:#000000;stop-opacity:1"
         d="m 194.14844,160.27539 c -2.20836,0 -3.97071,1.76235 -3.97071,3.9707 v 23.09375 c 0,2.20836 1.76235,3.97071 3.97071,3.97071 h 53.83203 c 2.20459,0 3.9707,-1.76216 3.9707,-3.97071 l -0.0156,-23.09375 c -0.004,-2.20746 -1.75049,-3.9707 -3.95508,-3.9707 z m 0,0.30078 h 53.83203 c 2.0454,0 3.65044,1.61959 3.6543,3.66992 l 0.0156,23.09375 c 0,2.04928 -1.62452,3.66993 -3.66992,3.66993 h -53.83203 c -2.04946,0 -3.66992,-1.62047 -3.66992,-3.66993 v -23.09375 c 0,-2.04945 1.62046,-3.66992 3.66992,-3.66992 z"
         id="path2448" />
    </g>
    <path
       id="path7334"
       style="fill:#000000;fill-opacity:1;fill-rule:evenodd;stroke:none;stroke-width:0.352777"
       d="m -138.00409,151.10819 c -3.94072,0 -7.14868,3.20796 -7.14868,7.14876 v 59.34679 c 0,3.94065 3.20796,7.14868 7.14868,7.14868 H 0.3362185 c 3.9407226,0 7.1374608,-3.21167 7.1374608,-7.14868 v -59.34679 c 0,-3.93708 -3.1967382,-7.14876 -7.1374608,-7.14876 z m 0,3.35416 H 0.3362185 c 2.1827834,0 3.7833008,1.6081 3.7833008,3.7946 v 59.34679 c 0,2.18635 -1.6005174,3.79452 -3.7833008,3.79452 H -138.00409 c -2.18278,7e-5 -3.79459,-1.61181 -3.79459,-3.79452 v -59.34679 c 0,-2.18286 1.61181,-3.7946 3.79459,-3.7946 z m 63.051058,7.8188 c -4.005336,0 -7.246585,3.25247 -7.246585,7.25788 v 11.33482 c 0,3.99529 3.241249,7.24658 7.246585,7.24658 4.005411,0 7.246586,-3.25129 7.246586,-7.24658 v -11.33482 c 0,-4.00541 -3.241175,-7.25788 -7.246586,-7.25788 z m -16.774442,0.22947 -3.625223,2.7217 v 3.84348 l 3.625223,-2.71042 v 21.52522 h 3.632654 v -25.37998 z m 16.774442,3.40304 c 2.007659,0 3.632655,1.61749 3.632655,3.62522 v 11.33475 c 0,1.99768 -1.624996,3.62144 -3.632655,3.62144 -1.997678,0 -3.625223,-1.62376 -3.625223,-3.62144 v -11.33475 c 0,-2.00773 1.627545,-3.62522 3.625223,-3.62522 z m 20.576537,8.86531 c -1.428308,-0.12311 -2.889832,0.44073 -3.86234,1.6451 v -1.49452 h -2.638874 v 13.23212 h 2.638874 v -8.10116 c 0,-1.4656 1.184564,-2.65016 2.65017,-2.65016 1.455627,0 2.638878,1.18456 2.638878,2.65016 v 8.10116 h 2.650238 v -8.10116 c 0,-1.4656 1.184564,-2.65016 2.65017,-2.65016 1.455552,0 2.642664,1.18456 2.642664,2.65016 v 8.10116 h 2.65017 v -8.43239 c 0,-1.49576 -0.675291,-2.90367 -1.829549,-3.84733 -2.128147,-1.73667 -5.248908,-1.41411 -6.975523,0.7037 -0.230925,-0.31106 -0.503372,-0.59152 -0.794321,-0.83191 -0.719,-0.57986 -1.563513,-0.90134 -2.420557,-0.97499 z m 19.970454,16.27377 2.386753,9.64456 -99.701902,-0.0583 v 8.12374 l 99.641656,0.0583 -2.29635,9.01218 22.605613,-13.1305 z" />
  </g>
</svg>
