<?xml version="1.0" encoding="UTF-8" standalone="no"?>
<svg
   xmlns:dc="http://purl.org/dc/elements/1.1/"
   xmlns:cc="http://creativecommons.org/ns#"
   xmlns:rdf="http://www.w3.org/1999/02/22-rdf-syntax-ns#"
   xmlns:svg="http://www.w3.org/2000/svg"
   xmlns="http://www.w3.org/2000/svg"
   xmlns:sodipodi="http://sodipodi.sourceforge.net/DTD/sodipodi-0.dtd"
   xmlns:inkscape="http://www.inkscape.org/namespaces/inkscape"
   width="158.75mm"
   height="79.761497mm"
   viewBox="0 0 158.74999 79.761492"
   version="1.1"
   id="svg6774"
   inkscape:version="1.0 (4035a4fb49, 2020-05-01)"
   sodipodi:docname="Latvia_road_sign_832.svg">
  <defs
     id="defs6768" />
  <sodipodi:namedview
     id="base"
     pagecolor="#ffffff"
     bordercolor="#666666"
     borderopacity="1.0"
     inkscape:pageopacity="0.0"
     inkscape:pageshadow="2"
     inkscape:zoom="0.39362278"
     inkscape:cx="-13.567942"
     inkscape:cy="641.49485"
     inkscape:document-units="mm"
     inkscape:current-layer="layer1"
     inkscape:document-rotation="0"
     showgrid="false"
     fit-margin-top="0"
     fit-margin-left="0"
     fit-margin-right="0"
     fit-margin-bottom="0"
     inkscape:window-width="1920"
     inkscape:window-height="1001"
     inkscape:window-x="-9"
     inkscape:window-y="-9"
     inkscape:window-maximized="1" />
  <metadata
     id="metadata6771">
    <rdf:RDF>
      <cc:Work
         rdf:about="">
        <dc:format>image/svg+xml</dc:format>
        <dc:type
           rdf:resource="http://purl.org/dc/dcmitype/StillImage" />
        <dc:title></dc:title>
      </cc:Work>
    </rdf:RDF>
  </metadata>
  <g
     inkscape:label="Layer 1"
     inkscape:groupmode="layer"
     id="layer1"
     transform="translate(-255.68903,-308.94413)">
    <g
       id="g2362"
       style="opacity:1"
       inkscape:groupmode="layer" />
    <g
       transform="matrix(2.5700373,0,0,-2.5700373,-233.07987,587.52713)"
       id="g6947"
       style="opacity:1;stroke-width:0.137266">
      <path
         style="color:#000000;font-style:normal;font-variant:normal;font-weight:normal;font-stretch:normal;font-size:medium;line-height:normal;font-family:sans-serif;font-variant-ligatures:normal;font-variant-position:normal;font-variant-caps:normal;font-variant-numeric:normal;font-variant-alternates:normal;font-variant-east-asian:normal;font-feature-settings:normal;font-variation-settings:normal;text-indent:0;text-align:start;text-decoration:none;text-decoration-line:none;text-decoration-style:solid;text-decoration-color:#000000;letter-spacing:normal;word-spacing:normal;text-transform:none;writing-mode:lr-tb;direction:ltr;text-orientation:mixed;dominant-baseline:auto;baseline-shift:baseline;text-anchor:start;white-space:normal;shape-padding:0;shape-margin:0;inline-size:0;clip-rule:nonzero;display:inline;overflow:visible;visibility:visible;isolation:auto;mix-blend-mode:normal;color-interpolation:sRGB;color-interpolation-filters:linearRGB;solid-color:#000000;solid-opacity:1;vector-effect:none;fill:#ffffff;fill-opacity:1;fill-rule:nonzero;stroke:none;stroke-width:0.0411797;stroke-linecap:round;stroke-linejoin:round;stroke-miterlimit:22.926;stroke-dasharray:none;stroke-dashoffset:0;stroke-opacity:1;color-rendering:auto;image-rendering:auto;shape-rendering:auto;text-rendering:auto;enable-background:accumulate;stop-color:#000000;stop-opacity:1"
         d="m 190.329,104.426 c 0,2.128 1.692,3.82 3.82,3.82 h 53.831 c 2.127,0 3.821,-1.693 3.82,-3.82 L 251.784,81.33 c -0.001,-2.127 -1.677,-3.819 -3.804,-3.819 h -53.831 c -2.128,0 -3.82,1.692 -3.82,3.819 z"
         id="path6949" />
      <path
         style="color:#000000;font-style:normal;font-variant:normal;font-weight:normal;font-stretch:normal;font-size:medium;line-height:normal;font-family:sans-serif;font-variant-ligatures:normal;font-variant-position:normal;font-variant-caps:normal;font-variant-numeric:normal;font-variant-alternates:normal;font-variant-east-asian:normal;font-feature-settings:normal;font-variation-settings:normal;text-indent:0;text-align:start;text-decoration:none;text-decoration-line:none;text-decoration-style:solid;text-decoration-color:#000000;letter-spacing:normal;word-spacing:normal;text-transform:none;writing-mode:lr-tb;direction:ltr;text-orientation:mixed;dominant-baseline:auto;baseline-shift:baseline;text-anchor:start;white-space:normal;shape-padding:0;shape-margin:0;inline-size:0;clip-rule:nonzero;display:inline;overflow:visible;visibility:visible;isolation:auto;mix-blend-mode:normal;color-interpolation:sRGB;color-interpolation-filters:linearRGB;solid-color:#000000;solid-opacity:1;vector-effect:none;fill:#000000;fill-opacity:1;fill-rule:nonzero;stroke:none;stroke-width:0.0411797;stroke-linecap:round;stroke-linejoin:round;stroke-miterlimit:22.926;stroke-dasharray:none;stroke-dashoffset:0;stroke-opacity:1;color-rendering:auto;image-rendering:auto;shape-rendering:auto;text-rendering:auto;enable-background:accumulate;stop-color:#000000;stop-opacity:1"
         d="m 194.14844,77.361328 c -2.20751,0 -3.96875,1.762201 -3.96875,3.96875 v 23.095702 c 0,2.20751 1.76124,3.9707 3.96875,3.9707 h 53.83203 c 2.20659,0 3.96979,-1.76402 3.96875,-3.9707 l -0.0156,-23.095702 c -0.001,-2.205759 -1.74657,-3.96875 -3.95312,-3.96875 z m 0,0.298828 h 53.83203 c 2.04745,0 3.65333,1.621681 3.6543,3.669922 l 0.0156,23.095702 c 9.6e-4,2.04732 -1.62252,3.66992 -3.66992,3.66992 h -53.83203 c -2.04849,0 -3.66992,-1.62143 -3.66992,-3.66992 V 81.330078 c 0,-2.047451 1.62143,-3.669922 3.66992,-3.669922 z"
         id="path6951" />
    </g>
    <path
       id="path6218"
       style="fill:#000000;fill-opacity:1;fill-rule:evenodd;stroke:none;stroke-width:0.352777"
       d="m 265.89006,312.00598 c -3.94068,0 -7.14542,3.20095 -7.14542,7.14163 v 59.3582 c 0,3.93864 3.20474,7.14148 7.14542,7.14148 h 138.34906 c 3.93886,0 7.14163,-3.20284 7.14163,-7.14148 v -59.3582 c 0,-3.93973 -3.20095,-7.14163 -7.14163,-7.14163 z m 0,3.3468 h 138.34906 c 2.18627,0 3.79105,1.60761 3.79105,3.79483 V 368.228 l -39.38627,-0.0364 v 7.71373 h -22.52428 c 3.55784,-0.88529 6.22311,-4.08456 6.22311,-7.90205 0,-4.50273 -3.67805,-8.17699 -8.18071,-8.17699 -4.495,0 -8.16941,3.67426 -8.16941,8.17699 0,3.81844 2.66214,7.01793 6.21547,7.90205 h -51.1096 c 3.7155,-0.76807 6.51671,-4.06278 6.51671,-7.9961 0,-4.50273 -3.6653,-8.17335 -8.17313,-8.17335 -4.50273,0 -8.16942,3.67062 -8.16942,8.17335 0,3.93332 2.80085,7.22803 6.51292,7.9961 h -25.68655 v -56.76039 c 0,-2.18627 1.60478,-3.79483 3.79105,-3.79483 z m 42.01409,24.192 -11.71575,12.60417 -23.84567,3.81363 -1.00892,2.34924 99.7571,-0.0364 -2.25883,-6.03101 -20.07714,0.0364 -10.37178,-12.7321 z m 13.17649,2.20987 -0.0291,10.5223 h -22.09125 c 3.05058,-3.64672 6.38208,-6.95221 9.50209,-10.48084 z m 13.75239,0 7.89462,10.44712 -19.50117,0.0219 v -10.42432 z m -40.7303,17.94266 c 3.52871,2.49021 4.83734,4.60545 4.79625,8.72265 l 35.83993,-0.0219 c -0.47281,-4.2664 2.36621,-7.5174 5.06733,-8.67392 z m 77.03714,0 -22.97597,0.051 c 3.83964,1.99168 4.90356,3.90476 5.40988,8.74152 l 11.94538,-1.14435 z m -100.55526,0.0291 -0.0146,3.36931 2.40184,3.44471 7.07016,1.40414 c 0.37518,-3.76504 0.87574,-6.03079 5.00329,-8.17671 z m 18.85745,3.8325 c 2.39528,0 4.352,1.95664 4.352,4.35193 0,2.39266 -1.95672,4.34813 -4.352,4.34813 -2.39528,0 -4.3445,-1.95547 -4.3445,-4.34813 0,-2.39529 1.94922,-4.35193 4.3445,-4.35193 z m 54.72747,0.0903 c 2.39273,0 4.34821,1.96051 4.34821,4.35587 0,2.39266 -1.95548,4.34442 -4.34821,4.34442 -2.39528,0 -4.34821,-1.95176 -4.34821,-4.34442 0,-2.39536 1.95293,-4.35587 4.34821,-4.35587 z" />
  </g>
</svg>
