<?xml version="1.0" encoding="UTF-8" standalone="no"?>
<svg
   xmlns:dc="http://purl.org/dc/elements/1.1/"
   xmlns:cc="http://creativecommons.org/ns#"
   xmlns:rdf="http://www.w3.org/1999/02/22-rdf-syntax-ns#"
   xmlns:svg="http://www.w3.org/2000/svg"
   xmlns="http://www.w3.org/2000/svg"
   xmlns:sodipodi="http://sodipodi.sourceforge.net/DTD/sodipodi-0.dtd"
   xmlns:inkscape="http://www.inkscape.org/namespaces/inkscape"
   width="158.75mm"
   height="79.76152mm"
   viewBox="0 0 158.74999 79.761515"
   version="1.1"
   id="svg6774"
   inkscape:version="1.0 (4035a4fb49, 2020-05-01)"
   sodipodi:docname="Latvia_road_sign_820.svg">
  <defs
     id="defs6768" />
  <sodipodi:namedview
     id="base"
     pagecolor="#ffffff"
     bordercolor="#666666"
     borderopacity="1.0"
     inkscape:pageopacity="0.0"
     inkscape:pageshadow="2"
     inkscape:zoom="0.55666667"
     inkscape:cx="-676.11139"
     inkscape:cy="437.23045"
     inkscape:document-units="mm"
     inkscape:current-layer="layer1"
     inkscape:document-rotation="0"
     showgrid="false"
     fit-margin-top="0"
     fit-margin-left="0"
     fit-margin-right="0"
     fit-margin-bottom="0"
     inkscape:window-width="1920"
     inkscape:window-height="1001"
     inkscape:window-x="-9"
     inkscape:window-y="-9"
     inkscape:window-maximized="1" />
  <metadata
     id="metadata6771">
    <rdf:RDF>
      <cc:Work
         rdf:about="">
        <dc:format>image/svg+xml</dc:format>
        <dc:type
           rdf:resource="http://purl.org/dc/dcmitype/StillImage" />
        <dc:title></dc:title>
      </cc:Work>
    </rdf:RDF>
  </metadata>
  <g
     inkscape:label="Layer 1"
     inkscape:groupmode="layer"
     id="layer1"
     transform="translate(-233.56078,-233.57604)">
    <g
       id="g2362"
       style="opacity:1"
       inkscape:groupmode="layer" />
    <g
       id="g4078"
       transform="matrix(2.5700374,0,0,-2.5700374,-225.07545,583.1965)"
       style="opacity:1;stroke-width:0.137266">
      <path
         style="color:#000000;font-style:normal;font-variant:normal;font-weight:normal;font-stretch:normal;font-size:medium;line-height:normal;font-family:sans-serif;font-variant-ligatures:normal;font-variant-position:normal;font-variant-caps:normal;font-variant-numeric:normal;font-variant-alternates:normal;font-variant-east-asian:normal;font-feature-settings:normal;font-variation-settings:normal;text-indent:0;text-align:start;text-decoration:none;text-decoration-line:none;text-decoration-style:solid;text-decoration-color:#000000;letter-spacing:normal;word-spacing:normal;text-transform:none;writing-mode:lr-tb;direction:ltr;text-orientation:mixed;dominant-baseline:auto;baseline-shift:baseline;text-anchor:start;white-space:normal;shape-padding:0;shape-margin:0;inline-size:0;clip-rule:nonzero;display:inline;overflow:visible;visibility:visible;isolation:auto;mix-blend-mode:normal;color-interpolation:sRGB;color-interpolation-filters:linearRGB;solid-color:#000000;solid-opacity:1;vector-effect:none;fill:#ffffff;fill-opacity:1;fill-rule:nonzero;stroke:none;stroke-width:0.0411797;stroke-linecap:round;stroke-linejoin:round;stroke-miterlimit:22.926;stroke-dasharray:none;stroke-dashoffset:0;stroke-opacity:1;color-rendering:auto;image-rendering:auto;shape-rendering:auto;text-rendering:auto;enable-background:accumulate;stop-color:#000000;stop-opacity:1"
         d="m 178.60547,132.06641 c 0,2.1289 1.6914,3.82031 3.82031,3.82031 h 53.82813 c 2.1289,0 3.82031,-1.69141 3.82031,-3.82031 l -0.0156,-23.09375 c 0,-2.12891 -1.67578,-3.82032 -3.80468,-3.82032 h -53.82813 c -2.12891,0 -3.82031,1.69141 -3.82031,3.82032 z m 0,0"
         id="path4080" />
      <path
         style="color:#000000;font-style:normal;font-variant:normal;font-weight:normal;font-stretch:normal;font-size:medium;line-height:normal;font-family:sans-serif;font-variant-ligatures:normal;font-variant-position:normal;font-variant-caps:normal;font-variant-numeric:normal;font-variant-alternates:normal;font-variant-east-asian:normal;font-feature-settings:normal;font-variation-settings:normal;text-indent:0;text-align:start;text-decoration:none;text-decoration-line:none;text-decoration-style:solid;text-decoration-color:#000000;letter-spacing:normal;word-spacing:normal;text-transform:none;writing-mode:lr-tb;direction:ltr;text-orientation:mixed;dominant-baseline:auto;baseline-shift:baseline;text-anchor:start;white-space:normal;shape-padding:0;shape-margin:0;inline-size:0;clip-rule:nonzero;display:inline;overflow:visible;visibility:visible;isolation:auto;mix-blend-mode:normal;color-interpolation:sRGB;color-interpolation-filters:linearRGB;solid-color:#000000;solid-opacity:1;vector-effect:none;fill:#000000;fill-opacity:1;fill-rule:nonzero;stroke:none;stroke-width:0.0411797;stroke-linecap:round;stroke-linejoin:round;stroke-miterlimit:22.926;stroke-dasharray:none;stroke-dashoffset:0;stroke-opacity:1;color-rendering:auto;image-rendering:auto;shape-rendering:auto;text-rendering:auto;enable-background:accumulate;stop-color:#000000;stop-opacity:1"
         d="m 182.42578,105.00195 c -2.20836,0 -3.9707,1.76235 -3.9707,3.97071 v 23.09375 c 0,2.20835 1.76234,3.9707 3.9707,3.9707 h 53.82813 c 2.20835,0 3.9707,-1.76235 3.9707,-3.9707 l -0.0156,-23.09375 c 0,-2.20763 -1.74672,-3.97071 -3.95507,-3.97071 z m 0,0.30078 h 53.82813 c 2.04945,0 3.65429,1.61973 3.65429,3.66993 l 0.0156,23.09375 c 0,2.04945 -1.62047,3.66992 -3.66992,3.66992 h -53.82813 c -2.04946,0 -3.66992,-1.62047 -3.66992,-3.66992 v -23.09375 c 0,-2.04946 1.62046,-3.66993 3.66992,-3.66993 z"
         id="path4082" />
    </g>
    <path
       id="path3314"
       style="fill:#000000;fill-opacity:1;fill-rule:evenodd;stroke:none;stroke-width:0.352777"
       d="m 243.76566,236.63184 c -3.93733,0 -7.14921,3.20102 -7.14921,7.14913 v 59.35055 c 0,3.94105 3.20816,7.14921 7.14921,7.14921 h 138.34148 c 3.94097,0 7.14542,-3.20816 7.14542,-7.14921 v -59.35055 c 0,-3.94811 -3.20809,-7.14913 -7.14542,-7.14913 z m 0,3.35437 h 138.34148 c 2.18657,-7e-5 3.79483,1.59902 3.79483,3.79476 v 59.35055 c 0,2.183 -1.61191,3.79483 -3.79483,3.79483 H 243.76566 c -2.183,0 -3.79484,-1.61183 -3.79484,-3.79483 v -59.35055 c 0,-2.19574 1.6082,-3.79476 3.79484,-3.79476 z m 53.10863,13.35338 -14.35858,15.45034 -29.22167,4.66825 -1.23476,2.87996 122.24744,-0.0437 -2.76333,-7.38634 -24.61359,0.0364 -12.70209,-15.6085 z m 16.14308,2.71059 -0.0219,12.89784 h -27.07576 c 3.73459,-4.47745 7.82301,-8.53207 11.64793,-12.84889 z m 16.85455,0 9.67905,12.8 -23.90584,0.0218 V 256.10219 Z M 279.967,278.03602 c 4.31689,3.05189 5.92319,5.64205 5.87292,10.69175 l 43.9228,-0.0291 c -0.58209,-5.22039 2.89133,-9.216 6.20425,-10.63151 z m 94.39997,0 -28.16,0.0583 c 4.70839,2.4395 6.01097,4.78743 6.63341,10.71055 l 14.63717,-1.39671 z m -123.22256,0.0291 -0.0291,4.13366 2.95151,4.21643 8.66262,1.72803 c 0.45168,-4.61805 1.07674,-7.38888 6.1365,-10.02917 z m 23.10025,0.0219 c -5.51157,0 -10.01037,4.49632 -10.01037,10.01795 0,5.51151 4.4988,10.0103 10.01037,10.0103 5.52156,0 10.01788,-4.49879 10.01788,-10.0103 0,-5.52163 -4.49632,-10.01795 -10.01788,-10.01795 z m 67.06064,0.10928 c -5.51158,0 -10.00658,4.51009 -10.00658,10.02167 0,5.5115 4.495,10.00658 10.00658,10.00658 5.51151,0 10.02167,-4.49508 10.02167,-10.00658 0,-5.51158 -4.51016,-10.02167 -10.02167,-10.02167 z m -66.98159,4.67954 c 2.93147,0 5.33083,2.39936 5.33083,5.33083 0,2.9314 -2.39936,5.31954 -5.33083,5.31954 -2.93147,0 -5.33083,-2.38814 -5.33083,-5.31954 0,-2.93147 2.39936,-5.33083 5.33083,-5.33083 z m 67.06442,0.10928 c 2.93147,0 5.33084,2.39936 5.33084,5.33083 0,2.93147 -2.39937,5.33083 -5.33084,5.33083 -2.93147,0 -5.33083,-2.39936 -5.33083,-5.33083 0,-2.93147 2.39936,-5.33083 5.33083,-5.33083 z" />
  </g>
</svg>
