<?xml version="1.0" encoding="UTF-8" standalone="no"?>
<svg
   xmlns:dc="http://purl.org/dc/elements/1.1/"
   xmlns:cc="http://creativecommons.org/ns#"
   xmlns:rdf="http://www.w3.org/1999/02/22-rdf-syntax-ns#"
   xmlns:svg="http://www.w3.org/2000/svg"
   xmlns="http://www.w3.org/2000/svg"
   xmlns:sodipodi="http://sodipodi.sourceforge.net/DTD/sodipodi-0.dtd"
   xmlns:inkscape="http://www.inkscape.org/namespaces/inkscape"
   sodipodi:docname="Latvia_road_sign_803.svg"
   inkscape:version="1.0 (4035a4fb49, 2020-05-01)"
   id="svg6774"
   version="1.1"
   viewBox="0 0 158.74999 79.756442"
   height="79.756447mm"
   width="158.75mm">
  <defs
     id="defs6768" />
  <sodipodi:namedview
     inkscape:window-maximized="1"
     inkscape:window-y="-9"
     inkscape:window-x="-9"
     inkscape:window-height="1001"
     inkscape:window-width="1920"
     fit-margin-bottom="0"
     fit-margin-right="0"
     fit-margin-left="0"
     fit-margin-top="0"
     showgrid="false"
     inkscape:document-rotation="0"
     inkscape:current-layer="layer1"
     inkscape:document-units="mm"
     inkscape:cy="-95.677264"
     inkscape:cx="-514.90076"
     inkscape:zoom="0.40983509"
     inkscape:pageshadow="2"
     inkscape:pageopacity="0.0"
     borderopacity="1.0"
     bordercolor="#666666"
     pagecolor="#ffffff"
     id="base" />
  <metadata
     id="metadata6771">
    <rdf:RDF>
      <cc:Work
         rdf:about="">
        <dc:format>image/svg+xml</dc:format>
        <dc:type
           rdf:resource="http://purl.org/dc/dcmitype/StillImage" />
        <dc:title></dc:title>
      </cc:Work>
    </rdf:RDF>
  </metadata>
  <g
     transform="translate(299.67095,146.10509)"
     id="layer1"
     inkscape:groupmode="layer"
     inkscape:label="Layer 1">
    <g
       inkscape:groupmode="layer"
       style="opacity:1"
       id="g2362" />
    <g
       id="g8663"
       transform="matrix(2.5698747,0,0,-2.5698747,-788.40389,1055.7982)"
       style="opacity:1;stroke-width:0.137274">
      <path
         style="color:#000000;font-style:normal;font-variant:normal;font-weight:normal;font-stretch:normal;font-size:medium;line-height:normal;font-family:sans-serif;font-variant-ligatures:normal;font-variant-position:normal;font-variant-caps:normal;font-variant-numeric:normal;font-variant-alternates:normal;font-variant-east-asian:normal;font-feature-settings:normal;font-variation-settings:normal;text-indent:0;text-align:start;text-decoration:none;text-decoration-line:none;text-decoration-style:solid;text-decoration-color:#000000;letter-spacing:normal;word-spacing:normal;text-transform:none;writing-mode:lr-tb;direction:ltr;text-orientation:mixed;dominant-baseline:auto;baseline-shift:baseline;text-anchor:start;white-space:normal;shape-padding:0;shape-margin:0;inline-size:0;clip-rule:nonzero;display:inline;overflow:visible;visibility:visible;isolation:auto;mix-blend-mode:normal;color-interpolation:sRGB;color-interpolation-filters:linearRGB;solid-color:#000000;solid-opacity:1;vector-effect:none;fill:#ffffff;fill-opacity:1;fill-rule:nonzero;stroke:none;stroke-width:0.0411823;stroke-linecap:round;stroke-linejoin:round;stroke-miterlimit:22.926;stroke-dasharray:none;stroke-dashoffset:0;stroke-opacity:1;color-rendering:auto;image-rendering:auto;shape-rendering:auto;text-rendering:auto;enable-background:accumulate;stop-color:#000000;stop-opacity:1"
         d="m 190.32812,463.71875 c 0,2.12891 1.69141,3.82031 3.82032,3.82031 h 53.83203 c 2.125,0 3.82031,-1.6914 3.82031,-3.82031 l -0.0156,-23.09766 c -0.004,-2.125 -1.67969,-3.8164 -3.80469,-3.8164 h -53.83203 c -2.12891,0 -3.82032,1.6914 -3.82032,3.8164 z m 0,0"
         id="path8665" />
      <path
         style="color:#000000;font-style:normal;font-variant:normal;font-weight:normal;font-stretch:normal;font-size:medium;line-height:normal;font-family:sans-serif;font-variant-ligatures:normal;font-variant-position:normal;font-variant-caps:normal;font-variant-numeric:normal;font-variant-alternates:normal;font-variant-east-asian:normal;font-feature-settings:normal;font-variation-settings:normal;text-indent:0;text-align:start;text-decoration:none;text-decoration-line:none;text-decoration-style:solid;text-decoration-color:#000000;letter-spacing:normal;word-spacing:normal;text-transform:none;writing-mode:lr-tb;direction:ltr;text-orientation:mixed;dominant-baseline:auto;baseline-shift:baseline;text-anchor:start;white-space:normal;shape-padding:0;shape-margin:0;inline-size:0;clip-rule:nonzero;display:inline;overflow:visible;visibility:visible;isolation:auto;mix-blend-mode:normal;color-interpolation:sRGB;color-interpolation-filters:linearRGB;solid-color:#000000;solid-opacity:1;vector-effect:none;fill:#000000;fill-opacity:1;fill-rule:nonzero;stroke:none;stroke-width:0.0411823;stroke-linecap:round;stroke-linejoin:round;stroke-miterlimit:22.926;stroke-dasharray:none;stroke-dashoffset:0;stroke-opacity:1;color-rendering:auto;image-rendering:auto;shape-rendering:auto;text-rendering:auto;enable-background:accumulate;stop-color:#000000;stop-opacity:1"
         d="m 194.14844,436.6543 c -2.20836,0 -3.97071,1.7622 -3.97071,3.96679 v 23.09766 c 0,2.20836 1.76235,3.9707 3.97071,3.9707 h 53.83203 c 2.20459,0 3.9707,-1.76216 3.9707,-3.9707 l -0.0156,-23.09766 c -0.004,-2.2037 -1.75049,-3.96679 -3.95508,-3.96679 z m 0,0.30078 h 53.83203 c 2.0454,0 3.65044,1.61972 3.6543,3.66601 l 0.0156,23.09766 c 0,2.04928 -1.62452,3.66992 -3.66992,3.66992 h -53.83203 c -2.04946,0 -3.66992,-1.62046 -3.66992,-3.66992 v -23.09766 c 0,-2.0454 1.62046,-3.66601 3.66992,-3.66601 z"
         id="path8667" />
    </g>
    <path
       id="path6952"
       style="fill:#000000;fill-opacity:1;fill-rule:evenodd;stroke:none;stroke-width:0.352777"
       d="m -289.46549,-143.04955 c -3.94072,0 -7.14868,3.20795 -7.14868,7.14875 v 59.358082 c 0,3.940723 3.2116,7.137388 7.14868,7.137388 h 138.34031 c 3.93708,0 7.13746,-3.20038 7.13746,-7.137388 V -135.9008 c 0,-3.93708 -3.19674,-7.14875 -7.13746,-7.14875 z m 0,3.35416 h 138.34031 c 2.18278,0 3.7833,1.60809 3.7833,3.79459 v 59.358082 c 0,2.186352 -1.59687,3.783301 -3.7833,3.783301 h -138.34031 c -2.18642,0 -3.79459,-1.600591 -3.79459,-3.783301 V -135.9008 c 0,-2.18286 1.61181,-3.79459 3.79459,-3.79459 z m 124.3779,3.55368 -12.58079,22.68837 9.0046,-2.71041 -0.051,41.657611 7.36708,0.05828 v -41.747871 l 8.97444,2.77066 z m -110.55477,0.0146 -12.56958,22.68466 8.99331,-2.71042 -0.051,41.661404 7.36707,0.05099 v -41.740434 l 8.97451,2.76315 z m 40.60352,27.85707 c -3.71424,0 -6.72333,3.01033 -6.72333,6.73462 v 10.521707 c 0,3.704189 3.00909,6.723326 6.72333,6.723326 3.72429,0 6.72711,-3.019137 6.72711,-6.723326 v -10.521707 c 0,-3.72429 -3.00282,-6.73462 -6.72711,-6.73462 z m 18.08073,0 c -3.71424,0 -6.72711,3.01033 -6.72711,6.73462 v 10.521707 c 0,3.704189 3.01287,6.723326 6.72711,6.723326 3.71424,0 6.72712,-3.019137 6.72712,-6.723326 v -10.521707 c 0,-3.72429 -3.01288,-6.73462 -6.72712,-6.73462 z m -33.63929,0.21854 -3.36166,2.52218 v 3.57248 l 3.36166,-2.51839 v 19.974243 h 3.36167 V -108.0515 Z m 15.55856,3.15464 c 1.86721,0 3.37295,1.50457 3.37295,3.36166 v 10.521705 c 0,1.857158 -1.50574,3.361664 -3.37295,3.361664 -1.85716,0 -3.36166,-1.504506 -3.36166,-3.361664 V -101.5352 c 0,-1.85709 1.5045,-3.36166 3.36166,-3.36166 z m 18.08073,0 c 1.85709,0 3.37296,1.50457 3.37296,3.36166 v 10.521705 c 0,1.857158 -1.51587,3.361664 -3.37296,3.361664 -1.85716,0 -3.36166,-1.504506 -3.36166,-3.361664 V -101.5352 c 0,-1.85709 1.5045,-3.36166 3.36166,-3.36166 z m 23.58817,7.788416 c -1.34643,-0.116555 -2.72425,0.418141 -3.6403,1.547194 v -1.407911 h -2.49202 v 12.467883 h 2.49202 v -7.638065 c 0,-1.375275 1.12432,-2.488302 2.49959,-2.488302 1.37528,0 2.48838,1.113027 2.48838,2.488302 v 7.638065 h 2.4883 v -7.638065 c 0,-1.375275 1.12432,-2.488302 2.4996,-2.488302 1.37527,0 2.49209,1.113027 2.49209,2.488302 v 7.638065 h 2.49959 v -7.950505 c 0,-1.395381 -0.63231,-2.730518 -1.71664,-3.613932 -1.9976,-1.636285 -4.95147,-1.335137 -6.58775,0.662907 -0.21053,-0.291388 -0.4604,-0.562378 -0.74166,-0.782958 -0.67747,-0.549265 -1.4734,-0.852381 -2.2812,-0.922314 z" />
  </g>
</svg>
