<?xml version="1.0" encoding="UTF-8" standalone="no"?>
<svg
   xmlns:dc="http://purl.org/dc/elements/1.1/"
   xmlns:cc="http://creativecommons.org/ns#"
   xmlns:rdf="http://www.w3.org/1999/02/22-rdf-syntax-ns#"
   xmlns:svg="http://www.w3.org/2000/svg"
   xmlns="http://www.w3.org/2000/svg"
   xmlns:sodipodi="http://sodipodi.sourceforge.net/DTD/sodipodi-0.dtd"
   xmlns:inkscape="http://www.inkscape.org/namespaces/inkscape"
   width="158.75mm"
   height="79.76149mm"
   viewBox="0 0 158.74999 79.761484"
   version="1.1"
   id="svg6774"
   inkscape:version="1.0 (4035a4fb49, 2020-05-01)"
   sodipodi:docname="Latvia_road_sign_837.svg">
  <defs
     id="defs6768" />
  <sodipodi:namedview
     id="base"
     pagecolor="#ffffff"
     bordercolor="#666666"
     borderopacity="1.0"
     inkscape:pageopacity="0.0"
     inkscape:pageshadow="2"
     inkscape:zoom="0.55666667"
     inkscape:cx="287.37286"
     inkscape:cy="435.90054"
     inkscape:document-units="mm"
     inkscape:current-layer="layer1"
     inkscape:document-rotation="0"
     showgrid="false"
     fit-margin-top="0"
     fit-margin-left="0"
     fit-margin-right="0"
     fit-margin-bottom="0"
     inkscape:window-width="1920"
     inkscape:window-height="1001"
     inkscape:window-x="-9"
     inkscape:window-y="-9"
     inkscape:window-maximized="1" />
  <metadata
     id="metadata6771">
    <rdf:RDF>
      <cc:Work
         rdf:about="">
        <dc:format>image/svg+xml</dc:format>
        <dc:type
           rdf:resource="http://purl.org/dc/dcmitype/StillImage" />
        <dc:title></dc:title>
      </cc:Work>
    </rdf:RDF>
  </metadata>
  <g
     inkscape:label="Layer 1"
     inkscape:groupmode="layer"
     id="layer1"
     transform="translate(-511.37339,-339.95077)">
    <g
       id="g2362"
       style="opacity:1"
       inkscape:groupmode="layer" />
    <g
       id="g12151"
       transform="matrix(2.5700371,0,0,-2.5700371,59.031802,1612.9574)"
       style="opacity:1;stroke-width:0.137266">
      <path
         style="color:#000000;font-style:normal;font-variant:normal;font-weight:normal;font-stretch:normal;font-size:medium;line-height:normal;font-family:sans-serif;font-variant-ligatures:normal;font-variant-position:normal;font-variant-caps:normal;font-variant-numeric:normal;font-variant-alternates:normal;font-variant-east-asian:normal;font-feature-settings:normal;font-variation-settings:normal;text-indent:0;text-align:start;text-decoration:none;text-decoration-line:none;text-decoration-style:solid;text-decoration-color:#000000;letter-spacing:normal;word-spacing:normal;text-transform:none;writing-mode:lr-tb;direction:ltr;text-orientation:mixed;dominant-baseline:auto;baseline-shift:baseline;text-anchor:start;white-space:normal;shape-padding:0;shape-margin:0;inline-size:0;clip-rule:nonzero;display:inline;overflow:visible;visibility:visible;isolation:auto;mix-blend-mode:normal;color-interpolation:sRGB;color-interpolation-filters:linearRGB;solid-color:#000000;solid-opacity:1;vector-effect:none;fill:#ffffff;fill-opacity:1;fill-rule:nonzero;stroke:none;stroke-width:0.0411797;stroke-linecap:round;stroke-linejoin:round;stroke-miterlimit:22.926;stroke-dasharray:none;stroke-dashoffset:0;stroke-opacity:1;color-rendering:auto;image-rendering:auto;shape-rendering:auto;text-rendering:auto;enable-background:accumulate;stop-color:#000000;stop-opacity:1"
         d="m 176.15625,491.35547 c 0,2.1289 1.69141,3.82031 3.82031,3.82031 h 53.83203 c 2.125,0 3.82032,-1.69141 3.81641,-3.82031 l -0.0156,-23.09375 c 0,-2.12891 -1.67578,-3.82031 -3.80078,-3.82031 h -53.83203 c -2.1289,0 -3.82031,1.6914 -3.82031,3.82031 z m 0,0"
         id="path12153" />
      <path
         style="color:#000000;font-style:normal;font-variant:normal;font-weight:normal;font-stretch:normal;font-size:medium;line-height:normal;font-family:sans-serif;font-variant-ligatures:normal;font-variant-position:normal;font-variant-caps:normal;font-variant-numeric:normal;font-variant-alternates:normal;font-variant-east-asian:normal;font-feature-settings:normal;font-variation-settings:normal;text-indent:0;text-align:start;text-decoration:none;text-decoration-line:none;text-decoration-style:solid;text-decoration-color:#000000;letter-spacing:normal;word-spacing:normal;text-transform:none;writing-mode:lr-tb;direction:ltr;text-orientation:mixed;dominant-baseline:auto;baseline-shift:baseline;text-anchor:start;white-space:normal;shape-padding:0;shape-margin:0;inline-size:0;clip-rule:nonzero;display:inline;overflow:visible;visibility:visible;isolation:auto;mix-blend-mode:normal;color-interpolation:sRGB;color-interpolation-filters:linearRGB;solid-color:#000000;solid-opacity:1;vector-effect:none;fill:#000000;fill-opacity:1;fill-rule:nonzero;stroke:none;stroke-width:0.0411797;stroke-linecap:round;stroke-linejoin:round;stroke-miterlimit:22.926;stroke-dasharray:none;stroke-dashoffset:0;stroke-opacity:1;color-rendering:auto;image-rendering:auto;shape-rendering:auto;text-rendering:auto;enable-background:accumulate;stop-color:#000000;stop-opacity:1"
         d="m 179.97656,464.29102 c -2.20835,0 -3.9707,1.76234 -3.9707,3.9707 v 23.09375 c 0,2.20835 1.76235,3.9707 3.9707,3.9707 h 53.83203 c 2.2046,0 3.97086,-1.76202 3.9668,-3.9707 l -0.0156,-23.09375 c 0,-2.20763 -1.74658,-3.9707 -3.95118,-3.9707 z m 0,0.30078 h 53.83203 c 2.04541,0 3.65039,1.61972 3.65039,3.66992 l 0.0156,23.09375 c 0.004,2.04912 -1.62061,3.66992 -3.66602,3.66992 h -53.83203 c -2.04945,0 -3.66992,-1.62047 -3.66992,-3.66992 v -23.09375 c 0,-2.04946 1.62047,-3.66992 3.66992,-3.66992 z"
         id="path12155" />
    </g>
    <path
       id="path7471"
       style="fill:#000000;fill-opacity:1;fill-rule:evenodd;stroke:none;stroke-width:0.352776"
       d="m 521.57832,343.00911 c -3.9374,0 -7.14925,3.19727 -7.14925,7.14538 v 59.35426 c 0,3.94111 3.20821,7.14546 7.14925,7.14546 h 138.34902 c 3.93381,0 7.13794,-3.20435 7.13794,-7.14546 v -59.35426 c 0,-3.94097 -3.20413,-7.14538 -7.13794,-7.14538 z m 0,3.35059 h 138.34902 c 2.17004,0 3.78728,1.61191 3.78728,3.79479 v 50.62768 l -73.02773,-0.0365 v 6.16287 h -23.26578 c 0.34209,0.002 0.68272,0.0219 1.03145,-0.0219 4.46752,-0.55216 7.65742,-4.64936 7.11533,-9.10675 -0.55216,-4.46745 -4.63558,-7.66865 -9.10303,-7.12656 -4.47759,0.55216 -7.68128,4.64688 -7.11905,9.11426 0.47119,3.88648 3.63454,6.80067 7.39002,7.13794 h -48.95238 v -56.75291 c 0,-2.1958 1.60826,-3.7948 3.79487,-3.7948 z m 78.41495,19.73831 -30.2682,3.7158 -8.74168,13.90302 -19.93781,2.42067 -1.50592,6.25325 99.04555,-12.12612 -1.28375,-2.19864 -24.14683,-0.88469 z m -0.2903,2.30018 c 3.52382,3.12221 7.237,5.99095 10.71056,9.25365 l -21.93316,2.69179 -1.29498,-10.45082 z m -14.6559,1.79579 1.27237,10.34921 -19.36559,2.3605 6.56573,-11.33559 z m 54.45259,11.38453 -14.34722,1.80695 c 4.36701,1.62642 5.12997,3.81624 5.96324,7.51067 l 6.848,-2.25882 1.96516,-3.70442 z m -17.06162,2.27763 c -0.54049,-0.0438 -1.09432,-0.0365 -1.65268,0.0292 -4.47745,0.55216 -7.67121,4.6506 -7.11905,9.11812 0.54194,4.46746 4.63929,7.66742 9.10682,7.11534 4.46745,-0.55216 7.66114,-4.63566 7.11898,-9.10311 -0.48287,-3.90901 -3.6716,-6.8496 -7.45407,-7.1604 z m -6.29081,0.56456 -45.3759,5.60189 c 2.83096,0.82328 6.04106,3.70333 6.09125,8.0001 l 35.59146,-4.35585 c -0.54195,-4.08598 0.49089,-6.33473 3.69319,-9.24614 z m 5.97833,3.25277 c 2.01491,0.16412 3.71704,1.7292 3.97182,3.80231 0.29104,2.37924 -1.40804,4.55783 -3.78735,4.849 -2.37931,0.29104 -4.55527,-1.40424 -4.85644,-3.78363 -0.28155,-2.37924 1.42562,-4.55768 3.79479,-4.84893 0.2976,-0.0365 0.58936,-0.0438 0.87718,-0.0219 z m -59.64799,3.39195 -22.81778,2.75204 6.51292,6.90446 11.9981,-0.31948 c -0.0802,-4.85899 0.7429,-6.88695 4.30676,-9.33651 z m 5.32713,3.36569 c 2.01483,0.16411 3.71325,1.73175 3.96803,3.81361 0.29103,2.37931 -1.40432,4.55782 -3.78356,4.84893 -2.37932,0.28082 -4.55907,-1.41548 -4.86031,-3.7948 -0.29103,-2.36925 1.41562,-4.55775 3.79487,-4.84893 0.29759,-0.0365 0.593,-0.0438 0.88097,-0.0219 z" />
  </g>
</svg>
