<?xml version="1.0" encoding="UTF-8" standalone="no"?>
<svg
   xmlns:dc="http://purl.org/dc/elements/1.1/"
   xmlns:cc="http://creativecommons.org/ns#"
   xmlns:rdf="http://www.w3.org/1999/02/22-rdf-syntax-ns#"
   xmlns:svg="http://www.w3.org/2000/svg"
   xmlns="http://www.w3.org/2000/svg"
   xmlns:sodipodi="http://sodipodi.sourceforge.net/DTD/sodipodi-0.dtd"
   xmlns:inkscape="http://www.inkscape.org/namespaces/inkscape"
   sodipodi:docname="Latvia_road_sign_802.svg"
   inkscape:version="1.0 (4035a4fb49, 2020-05-01)"
   id="svg6774"
   version="1.1"
   viewBox="0 0 158.74999 158.74021"
   height="158.74022mm"
   width="158.75mm">
  <defs
     id="defs6768" />
  <sodipodi:namedview
     inkscape:window-maximized="1"
     inkscape:window-y="-9"
     inkscape:window-x="-9"
     inkscape:window-height="1001"
     inkscape:window-width="1920"
     fit-margin-bottom="0"
     fit-margin-right="0"
     fit-margin-left="0"
     fit-margin-top="0"
     showgrid="false"
     inkscape:document-rotation="0"
     inkscape:current-layer="layer1"
     inkscape:document-units="mm"
     inkscape:cy="740.07468"
     inkscape:cx="417.47928"
     inkscape:zoom="0.40983509"
     inkscape:pageshadow="2"
     inkscape:pageopacity="0.0"
     borderopacity="1.0"
     bordercolor="#666666"
     pagecolor="#ffffff"
     id="base" />
  <metadata
     id="metadata6771">
    <rdf:RDF>
      <cc:Work
         rdf:about="">
        <dc:format>image/svg+xml</dc:format>
        <dc:type
           rdf:resource="http://purl.org/dc/dcmitype/StillImage" />
        <dc:title></dc:title>
      </cc:Work>
    </rdf:RDF>
  </metadata>
  <g
     transform="translate(546.36317,367.23112)"
     id="layer1"
     inkscape:groupmode="layer"
     inkscape:label="Layer 1">
    <g
       inkscape:groupmode="layer"
       style="opacity:1"
       id="g2362" />
    <g
       id="g8631"
       transform="matrix(2.5024631,0,0,-2.5024631,-1020.1938,1051.1718)"
       style="opacity:1;stroke-width:0.140972">
      <path
         style="color:#000000;font-style:normal;font-variant:normal;font-weight:normal;font-stretch:normal;font-size:medium;line-height:normal;font-family:sans-serif;font-variant-ligatures:normal;font-variant-position:normal;font-variant-caps:normal;font-variant-numeric:normal;font-variant-alternates:normal;font-variant-east-asian:normal;font-feature-settings:normal;font-variation-settings:normal;text-indent:0;text-align:start;text-decoration:none;text-decoration-line:none;text-decoration-style:solid;text-decoration-color:#000000;letter-spacing:normal;word-spacing:normal;text-transform:none;writing-mode:lr-tb;direction:ltr;text-orientation:mixed;dominant-baseline:auto;baseline-shift:baseline;text-anchor:start;white-space:normal;shape-padding:0;shape-margin:0;inline-size:0;clip-rule:nonzero;display:inline;overflow:visible;visibility:visible;isolation:auto;mix-blend-mode:normal;color-interpolation:sRGB;color-interpolation-filters:linearRGB;solid-color:#000000;solid-opacity:1;vector-effect:none;fill:#ffffff;fill-opacity:1;fill-rule:nonzero;stroke:none;stroke-width:0.0422917;stroke-linecap:round;stroke-linejoin:round;stroke-miterlimit:22.926;stroke-dasharray:none;stroke-dashoffset:0;stroke-opacity:1;color-rendering:auto;image-rendering:auto;shape-rendering:auto;text-rendering:auto;enable-background:accumulate;stop-color:#000000;stop-opacity:1"
         d="m 194.07031,566.65234 h 53.98828 c 2.51563,0 4.57422,-2.05859 4.57422,-4.57422 v -53.98828 c 0,-2.51562 -2.05859,-4.57031 -4.57422,-4.57031 h -53.98828 c -2.51562,0 -4.57422,2.05469 -4.57422,4.57031 v 53.98828 c 0,2.51563 2.0586,4.57422 4.57422,4.57422 z m 0,0"
         id="path8633" />
      <path
         style="color:#000000;font-style:normal;font-variant:normal;font-weight:normal;font-stretch:normal;font-size:medium;line-height:normal;font-family:sans-serif;font-variant-ligatures:normal;font-variant-position:normal;font-variant-caps:normal;font-variant-numeric:normal;font-variant-alternates:normal;font-variant-east-asian:normal;font-feature-settings:normal;font-variation-settings:normal;text-indent:0;text-align:start;text-decoration:none;text-decoration-line:none;text-decoration-style:solid;text-decoration-color:#000000;letter-spacing:normal;word-spacing:normal;text-transform:none;writing-mode:lr-tb;direction:ltr;text-orientation:mixed;dominant-baseline:auto;baseline-shift:baseline;text-anchor:start;white-space:normal;shape-padding:0;shape-margin:0;inline-size:0;clip-rule:nonzero;display:inline;overflow:visible;visibility:visible;isolation:auto;mix-blend-mode:normal;color-interpolation:sRGB;color-interpolation-filters:linearRGB;solid-color:#000000;solid-opacity:1;vector-effect:none;fill:#000000;fill-opacity:1;fill-rule:nonzero;stroke:none;stroke-width:0.0422917;stroke-linecap:round;stroke-linejoin:round;stroke-miterlimit:22.926;stroke-dasharray:none;stroke-dashoffset:0;stroke-opacity:1;color-rendering:auto;image-rendering:auto;shape-rendering:auto;text-rendering:auto;enable-background:accumulate;stop-color:#000000;stop-opacity:1"
         d="m 194.07031,503.36914 c -2.59729,0 -4.72461,2.12325 -4.72461,4.7207 v 53.98828 c 0,2.59747 2.12716,4.72461 4.72461,4.72461 h 53.98828 c 2.59747,0 4.72461,-2.12714 4.72461,-4.72461 v -53.98828 c 0,-2.59745 -2.1273,-4.7207 -4.72461,-4.7207 z m 0,0.30078 h 53.98828 c 2.43396,0 4.42383,1.98614 4.42383,4.41992 v 53.98828 c 0,2.4338 -1.99003,4.42383 -4.42383,4.42383 h -53.98828 c -2.43379,0 -4.42383,-1.99003 -4.42383,-4.42383 v -53.98828 c 0,-2.43378 1.98989,-4.41992 4.42383,-4.41992 z"
         id="path8635" />
    </g>
    <path
       id="path6926"
       style="fill:#000000;fill-opacity:1;fill-rule:evenodd;stroke:none;stroke-width:0.352777"
       d="m -533.87047,-361.90462 c -3.96432,0 -7.19588,3.23149 -7.19581,7.19582 l 0.007,133.73635 c 7e-5,3.96447 3.23177,7.18482 7.1922,7.18482 h 133.80601 c 3.96056,0 7.18482,-3.22425 7.18475,-7.18482 V -354.7088 c 0,-3.96043 -3.22035,-7.19582 -7.18475,-7.19582 z m 0,3.80501 h 133.80963 c 1.97294,0 3.37981,1.41347 3.37981,3.39081 v 133.73635 c 0,1.97762 -1.40219,3.37613 -3.37981,3.37613 h -133.80601 c -1.97727,0 -3.39074,-1.40312 -3.39074,-3.37613 V -354.7088 c -7e-5,-1.97266 1.41439,-3.39081 3.38712,-3.39081 z m 21.15119,26.41513 c -0.6519,0.0213 -1.30501,0.0639 -1.95755,0.14684 -4.7996,0.58664 -8.58389,4.33291 -9.21926,9.11293 -0.76249,5.79675 3.30526,11.10467 9.10201,11.87695 l 6.00075,0.79179 c 2.01373,0.27381 3.66817,1.73878 4.15692,3.71335 0.66467,2.64911 -0.9482,5.34709 -3.60709,6.01183 -4.94623,1.24138 -10.19797,0.007 -14.09831,-3.28448 l -3.63639,4.28155 c 5.28841,4.46748 12.38648,6.12908 19.10206,4.45748 4.20338,-1.06546 7.35095,-4.5736 7.91794,-8.87466 0.76249,-5.79674 -3.30526,-11.10474 -9.102,-11.87695 l -6.00076,-0.79179 c -2.23853,-0.30289 -3.99682,-2.07367 -4.27056,-4.32191 -0.33269,-2.71749 1.61046,-5.19074 4.31823,-5.51322 3.86118,-0.46888 7.77132,0.48733 10.96783,2.68699 l 3.18914,-4.62247 c -3.78911,-2.60875 -8.2983,-3.93007 -12.86296,-3.79401 z m 58.4645,0.0709 c -7.30215,0 -13.22594,5.91407 -13.22594,13.22587 v 11.23178 c 0,7.29236 5.92379,13.22587 13.22594,13.22594 7.29236,0 13.21487,-5.93358 13.21487,-13.22594 v -11.23178 c 0,-7.3118 -5.92251,-13.22587 -13.21487,-13.22587 z m -41.96515,0.3334 v 4.95608 h 10.23471 v 32.05305 h 5.61955 v -32.05305 h 10.24564 v -4.95608 z m 62.4528,0 v 37.00913 h 5.61224 v -14.53825 h 8.9224 c 6.20725,0 11.24271,-5.02198 11.24271,-11.23909 0,-6.19747 -5.03546,-11.23179 -11.24271,-11.23179 z m -20.48765,5.286 c 4.19359,0 7.59533,3.40309 7.59533,7.60633 v 11.23178 c 0,4.20338 -3.40174,7.59533 -7.59533,7.5954 -4.20331,0 -7.60632,-3.39202 -7.60632,-7.5954 v -11.23178 c -7e-5,-4.20324 3.40301,-7.60633 7.60632,-7.60633 z m 26.09989,0 h 8.59978 c 3.27469,0 5.94578,2.66131 5.94578,5.94579 0,3.29426 -2.67109,5.95315 -5.94578,5.95315 h -8.59978 z m -53.83472,51.71225 c -4.82896,7e-5 -8.73902,3.91134 -8.73902,8.75009 v 13.67312 c 0,4.82897 3.91006,8.76109 8.73902,8.76109 4.82897,0 8.7501,-3.93212 8.7501,-8.76109 v -13.67312 c 0,-4.83875 -3.92113,-8.75002 -8.7501,-8.75009 z m 23.51925,0 c -4.82897,7e-5 -8.74641,3.91134 -8.74641,8.75009 v 13.67312 c 0,4.82897 3.91744,8.76109 8.74641,8.76109 4.82896,0 8.75009,-3.93212 8.75009,-8.76109 v -13.67312 c 0,-4.83875 -3.92113,-8.75002 -8.75009,-8.75009 z m -45.94246,0.0426 c -4.7996,-0.44973 -9.07023,3.07926 -9.51982,7.88865 h 4.40619 c 0.39086,-2.06261 2.20185,-3.54843 4.30354,-3.54843 2.41445,0 4.36952,1.95506 4.36952,4.36951 0,2.41452 -1.95507,4.37689 -4.36952,4.37689 h -1.91718 v 3.82338 h 1.91718 c 2.57086,0 4.64077,2.08083 4.64077,4.65177 v 0.54975 c 0,2.15057 -1.46624,4.01767 -3.54843,4.51621 -2.5024,0.60579 -5.00247,-0.93111 -5.60848,-3.4238 h -4.45023 c 0.55755,4.52593 4.41108,7.93994 8.96637,7.93994 4.98538,0 9.02135,-4.04697 9.02135,-9.03235 v -0.54975 c 0,-2.64911 -1.32089,-5.12222 -3.53012,-6.59832 2.04302,-1.42716 3.25518,-3.76103 3.25518,-6.25372 0,-4.51614 -3.43969,-8.28936 -7.93632,-8.70973 z m 22.42321,4.34022 c 2.41452,0 4.36952,1.95506 4.36952,4.36951 v 13.67312 c 0,2.42431 -1.955,4.38051 -4.36952,4.38058 -2.41444,0 -4.36951,-1.95627 -4.36951,-4.38058 v -13.67312 c 0,-2.41445 1.95507,-4.36951 4.36951,-4.36951 z m 23.51925,0 c 2.41451,0 4.38051,1.95506 4.38051,4.36951 v 13.67312 c 0,2.42431 -1.966,4.38051 -4.38051,4.38058 -2.41445,0 -4.37689,-1.95627 -4.37689,-4.38058 v -13.67312 c 0,-2.41445 1.96244,-4.36951 4.37689,-4.36951 z m 25.48041,9.60054 c -1.75652,-0.1518 -3.55574,0.54124 -4.74711,2.01976 v -1.83653 h -3.26249 v 16.27583 h 3.26249 v -9.97076 c 0,-1.79865 1.45653,-3.25518 3.25518,-3.25518 1.79865,0 3.25511,1.45653 3.25511,3.25518 v 9.97076 h 3.25518 v -9.97076 c 0,-1.79865 1.45653,-3.25518 3.25518,-3.25518 1.79858,0 3.25511,1.45653 3.25511,3.25518 v 9.97076 h 3.25518 v -10.38134 c 0,-1.82787 -0.82974,-3.56793 -2.24704,-4.72142 -2.61001,-2.13099 -6.45049,-1.74857 -8.58147,0.86144 -0.28375,-0.38092 -0.61715,-0.72581 -0.97878,-1.01906 -0.88336,-0.71482 -1.92265,-1.10781 -2.97654,-1.19868 z" />
  </g>
</svg>
