<?xml version="1.0" encoding="UTF-8" standalone="no"?>
<svg
   xmlns:dc="http://purl.org/dc/elements/1.1/"
   xmlns:cc="http://creativecommons.org/ns#"
   xmlns:rdf="http://www.w3.org/1999/02/22-rdf-syntax-ns#"
   xmlns:svg="http://www.w3.org/2000/svg"
   xmlns="http://www.w3.org/2000/svg"
   xmlns:sodipodi="http://sodipodi.sourceforge.net/DTD/sodipodi-0.dtd"
   xmlns:inkscape="http://www.inkscape.org/namespaces/inkscape"
   width="158.75mm"
   height="79.771538mm"
   viewBox="0 0 158.74999 79.771532"
   version="1.1"
   id="svg6774"
   inkscape:version="1.0 (4035a4fb49, 2020-05-01)"
   sodipodi:docname="Latvia_road_sign_838.svg">
  <defs
     id="defs6768" />
  <sodipodi:namedview
     id="base"
     pagecolor="#ffffff"
     bordercolor="#666666"
     borderopacity="1.0"
     inkscape:pageopacity="0.0"
     inkscape:pageshadow="2"
     inkscape:zoom="0.55666667"
     inkscape:cx="-393.60314"
     inkscape:cy="300.30588"
     inkscape:document-units="mm"
     inkscape:current-layer="layer1"
     inkscape:document-rotation="0"
     showgrid="false"
     fit-margin-top="0"
     fit-margin-left="0"
     fit-margin-right="0"
     fit-margin-bottom="0"
     inkscape:window-width="1920"
     inkscape:window-height="1001"
     inkscape:window-x="-9"
     inkscape:window-y="-9"
     inkscape:window-maximized="1" />
  <metadata
     id="metadata6771">
    <rdf:RDF>
      <cc:Work
         rdf:about="">
        <dc:format>image/svg+xml</dc:format>
        <dc:type
           rdf:resource="http://purl.org/dc/dcmitype/StillImage" />
        <dc:title></dc:title>
      </cc:Work>
    </rdf:RDF>
  </metadata>
  <g
     inkscape:label="Layer 1"
     inkscape:groupmode="layer"
     id="layer1"
     transform="translate(-691.54829,-375.82686)">
    <g
       id="g2362"
       style="opacity:1"
       inkscape:groupmode="layer" />
    <g
       id="g12157"
       transform="matrix(2.5700371,0,0,-2.5700371,239.2067,1506.7787)"
       style="opacity:1;stroke-width:0.137266">
      <path
         style="color:#000000;font-style:normal;font-variant:normal;font-weight:normal;font-stretch:normal;font-size:medium;line-height:normal;font-family:sans-serif;font-variant-ligatures:normal;font-variant-position:normal;font-variant-caps:normal;font-variant-numeric:normal;font-variant-alternates:normal;font-variant-east-asian:normal;font-feature-settings:normal;font-variation-settings:normal;text-indent:0;text-align:start;text-decoration:none;text-decoration-line:none;text-decoration-style:solid;text-decoration-color:#000000;letter-spacing:normal;word-spacing:normal;text-transform:none;writing-mode:lr-tb;direction:ltr;text-orientation:mixed;dominant-baseline:auto;baseline-shift:baseline;text-anchor:start;white-space:normal;shape-padding:0;shape-margin:0;inline-size:0;clip-rule:nonzero;display:inline;overflow:visible;visibility:visible;isolation:auto;mix-blend-mode:normal;color-interpolation:sRGB;color-interpolation-filters:linearRGB;solid-color:#000000;solid-opacity:1;vector-effect:none;fill:#ffffff;fill-opacity:1;fill-rule:nonzero;stroke:none;stroke-width:0.0411797;stroke-linecap:round;stroke-linejoin:round;stroke-miterlimit:22.926;stroke-dasharray:none;stroke-dashoffset:0;stroke-opacity:1;color-rendering:auto;image-rendering:auto;shape-rendering:auto;text-rendering:auto;enable-background:accumulate;stop-color:#000000;stop-opacity:1"
         d="m 176.15625,436.08203 c 0,2.12891 1.69141,3.82031 3.82031,3.82031 h 53.83203 c 2.125,0 3.82032,-1.69531 3.81641,-3.82031 l -0.0156,-23.09766 c 0,-2.125 -1.67578,-3.82031 -3.80078,-3.82031 h -53.83203 c -2.1289,0 -3.82031,1.69531 -3.82031,3.82031 z m 0,0"
         id="path12159" />
      <path
         style="color:#000000;font-style:normal;font-variant:normal;font-weight:normal;font-stretch:normal;font-size:medium;line-height:normal;font-family:sans-serif;font-variant-ligatures:normal;font-variant-position:normal;font-variant-caps:normal;font-variant-numeric:normal;font-variant-alternates:normal;font-variant-east-asian:normal;font-feature-settings:normal;font-variation-settings:normal;text-indent:0;text-align:start;text-decoration:none;text-decoration-line:none;text-decoration-style:solid;text-decoration-color:#000000;letter-spacing:normal;word-spacing:normal;text-transform:none;writing-mode:lr-tb;direction:ltr;text-orientation:mixed;dominant-baseline:auto;baseline-shift:baseline;text-anchor:start;white-space:normal;shape-padding:0;shape-margin:0;inline-size:0;clip-rule:nonzero;display:inline;overflow:visible;visibility:visible;isolation:auto;mix-blend-mode:normal;color-interpolation:sRGB;color-interpolation-filters:linearRGB;solid-color:#000000;solid-opacity:1;vector-effect:none;fill:#000000;fill-opacity:1;fill-rule:nonzero;stroke:none;stroke-width:0.0411797;stroke-linecap:round;stroke-linejoin:round;stroke-miterlimit:22.926;stroke-dasharray:none;stroke-dashoffset:0;stroke-opacity:1;color-rendering:auto;image-rendering:auto;shape-rendering:auto;text-rendering:auto;enable-background:accumulate;stop-color:#000000;stop-opacity:1"
         d="m 179.97656,409.01367 c -2.20853,0 -3.9707,1.76611 -3.9707,3.97071 v 23.09765 c 0,2.20836 1.76235,3.9707 3.9707,3.9707 h 53.83203 c 2.20478,0 3.97086,-1.76577 3.9668,-3.9707 l -0.0156,-23.09765 c 0,-2.20387 -1.7464,-3.97071 -3.95118,-3.97071 z m 0,0.30078 h 53.83203 c 2.04522,0 3.65039,1.62379 3.65039,3.66993 l 0.0156,23.09765 c 0.004,2.04508 -1.6208,3.66992 -3.66602,3.66992 h -53.83203 c -2.04945,0 -3.66992,-1.62046 -3.66992,-3.66992 v -23.09765 c 0,-2.04541 1.62066,-3.66993 3.66992,-3.66993 z"
         id="path12161" />
    </g>
    <path
       id="path8201"
       style="fill:#000000;fill-opacity:1;fill-rule:evenodd;stroke:none;stroke-width:0.352777"
       d="m 701.7531,378.88388 c -3.94097,0 -7.1492,3.20824 -7.1492,7.14921 v 59.36183 c 0,3.94098 3.21187,7.13792 7.1492,7.13792 h 138.34905 c 3.93019,0 7.13791,-3.19694 7.13791,-7.13792 v -59.36183 c 0,-3.94097 -3.20408,-7.14921 -7.13791,-7.14921 z m 0,3.35438 h 138.34905 c 2.17003,0 3.78726,1.61191 3.78726,3.79483 v 49.08045 l -103.59709,-0.0437 v 7.72138 h -42.33405 v -56.76038 c 0,-2.18299 1.61191,-3.79483 3.79483,-3.79483 z m 74.84226,15.48049 -11.94538,12.84888 -24.30492,3.88517 -1.024,2.39062 101.68459,-0.0291 -2.29642,-6.15529 -20.47249,0.0437 -10.57126,-12.98067 z m 13.4325,2.24747 -0.0219,10.7332 h -22.52042 c 3.10209,-3.72453 6.50665,-7.10017 9.67904,-10.68424 z m 14.01596,0 8.04892,10.65037 -19.87759,0.0146 v -10.61271 z m -41.51338,18.29271 c 3.59405,2.53996 4.93051,4.68835 4.89037,8.88474 l 36.53267,-0.0146 c -0.48155,-4.35703 2.40811,-7.66871 5.16896,-8.84329 z m 78.52796,0 -23.424,0.051 c 3.91526,2.02797 4.9995,3.98563 5.5115,8.91483 l 12.1788,-1.16329 z m -102.50155,0.0291 -0.0219,3.43341 2.44708,3.51246 7.20938,1.4268 c 0.38174,-3.83498 0.8847,-6.13643 5.1012,-8.33501 z m 19.21501,0.007 c -4.58789,0 -8.32379,3.75717 -8.32379,8.33508 0,4.58789 3.7359,8.32 8.32379,8.32 4.59794,0 8.34258,-3.73211 8.34258,-8.32 0,-4.57791 -3.74464,-8.33508 -8.34258,-8.33508 z m 55.78913,0.0903 c -4.5879,0 -8.32379,3.75716 -8.32379,8.335 0,4.58797 3.73589,8.3313 8.32379,8.3313 4.58789,0 8.33129,-3.74333 8.33129,-8.3313 0,-4.57784 -3.7434,-8.335 -8.33129,-8.335 z m -55.78913,3.80612 c 2.4395,0 4.43854,1.99904 4.43854,4.43855 0,2.43957 -1.99904,4.42725 -4.43854,4.42725 -2.43951,0 -4.42733,-1.98768 -4.42726,-4.42725 0,-2.43951 1.98775,-4.43862 4.42726,-4.43855 z m 55.78913,0.10126 c 2.43957,0 4.43483,1.98528 4.43483,4.43484 0,2.4395 -1.99526,4.42725 -4.43483,4.42725 -2.43951,0 -4.42733,-1.98775 -4.42733,-4.42725 0,-2.44956 1.98782,-4.43484 4.42733,-4.43484 z" />
  </g>
</svg>
