<?xml version="1.0" encoding="UTF-8" standalone="no"?>
<svg
   xmlns:dc="http://purl.org/dc/elements/1.1/"
   xmlns:cc="http://creativecommons.org/ns#"
   xmlns:rdf="http://www.w3.org/1999/02/22-rdf-syntax-ns#"
   xmlns:svg="http://www.w3.org/2000/svg"
   xmlns="http://www.w3.org/2000/svg"
   xmlns:sodipodi="http://sodipodi.sourceforge.net/DTD/sodipodi-0.dtd"
   xmlns:inkscape="http://www.inkscape.org/namespaces/inkscape"
   width="158.75mm"
   height="79.758965mm"
   viewBox="0 0 158.74999 79.758959"
   version="1.1"
   id="svg6774"
   inkscape:version="1.0 (4035a4fb49, 2020-05-01)"
   sodipodi:docname="Latvia_road_sign_821.svg">
  <defs
     id="defs6768" />
  <sodipodi:namedview
     id="base"
     pagecolor="#ffffff"
     bordercolor="#666666"
     borderopacity="1.0"
     inkscape:pageopacity="0.0"
     inkscape:pageshadow="2"
     inkscape:zoom="0.55666667"
     inkscape:cx="480.03965"
     inkscape:cy="-368.42672"
     inkscape:document-units="mm"
     inkscape:current-layer="layer1"
     inkscape:document-rotation="0"
     showgrid="false"
     fit-margin-top="0"
     fit-margin-left="0"
     fit-margin-right="0"
     fit-margin-bottom="0"
     inkscape:window-width="1920"
     inkscape:window-height="1001"
     inkscape:window-x="-9"
     inkscape:window-y="-9"
     inkscape:window-maximized="1" />
  <metadata
     id="metadata6771">
    <rdf:RDF>
      <cc:Work
         rdf:about="">
        <dc:format>image/svg+xml</dc:format>
        <dc:type
           rdf:resource="http://purl.org/dc/dcmitype/StillImage" />
        <dc:title></dc:title>
      </cc:Work>
    </rdf:RDF>
  </metadata>
  <g
     inkscape:label="Layer 1"
     inkscape:groupmode="layer"
     id="layer1"
     transform="translate(-86.72935,-446.7395)">
    <g
       id="g2362"
       style="opacity:1"
       inkscape:groupmode="layer" />
    <g
       transform="matrix(2.5699558,0,0,-2.5699558,-402.04913,2287.9271)"
       id="g6881"
       style="opacity:1;stroke-width:0.13727">
      <path
         style="color:#000000;font-style:normal;font-variant:normal;font-weight:normal;font-stretch:normal;font-size:medium;line-height:normal;font-family:sans-serif;font-variant-ligatures:normal;font-variant-position:normal;font-variant-caps:normal;font-variant-numeric:normal;font-variant-alternates:normal;font-variant-east-asian:normal;font-feature-settings:normal;font-variation-settings:normal;text-indent:0;text-align:start;text-decoration:none;text-decoration-line:none;text-decoration-style:solid;text-decoration-color:#000000;letter-spacing:normal;word-spacing:normal;text-transform:none;writing-mode:lr-tb;direction:ltr;text-orientation:mixed;dominant-baseline:auto;baseline-shift:baseline;text-anchor:start;white-space:normal;shape-padding:0;shape-margin:0;inline-size:0;clip-rule:nonzero;display:inline;overflow:visible;visibility:visible;isolation:auto;mix-blend-mode:normal;color-interpolation:sRGB;color-interpolation-filters:linearRGB;solid-color:#000000;solid-opacity:1;vector-effect:none;fill:#ffffff;fill-opacity:1;fill-rule:nonzero;stroke:none;stroke-width:0.041181;stroke-linecap:round;stroke-linejoin:round;stroke-miterlimit:22.926;stroke-dasharray:none;stroke-dashoffset:0;stroke-opacity:1;color-rendering:auto;image-rendering:auto;shape-rendering:auto;text-rendering:auto;enable-background:accumulate;stop-color:#000000;stop-opacity:1"
         d="m 190.34,712.458 c 0,2.127 1.693,3.819 3.82,3.819 h 53.831 c 2.127,0 3.821,-1.692 3.82,-3.819 l -0.016,-23.097 c -10e-4,-2.127 -1.677,-3.819 -3.804,-3.819 H 194.16 c -2.127,0 -3.82,1.692 -3.82,3.819 z"
         id="path6883" />
      <path
         style="color:#000000;font-style:normal;font-variant:normal;font-weight:normal;font-stretch:normal;font-size:medium;line-height:normal;font-family:sans-serif;font-variant-ligatures:normal;font-variant-position:normal;font-variant-caps:normal;font-variant-numeric:normal;font-variant-alternates:normal;font-variant-east-asian:normal;font-feature-settings:normal;font-variation-settings:normal;text-indent:0;text-align:start;text-decoration:none;text-decoration-line:none;text-decoration-style:solid;text-decoration-color:#000000;letter-spacing:normal;word-spacing:normal;text-transform:none;writing-mode:lr-tb;direction:ltr;text-orientation:mixed;dominant-baseline:auto;baseline-shift:baseline;text-anchor:start;white-space:normal;shape-padding:0;shape-margin:0;inline-size:0;clip-rule:nonzero;display:inline;overflow:visible;visibility:visible;isolation:auto;mix-blend-mode:normal;color-interpolation:sRGB;color-interpolation-filters:linearRGB;solid-color:#000000;solid-opacity:1;vector-effect:none;fill:#000000;fill-opacity:1;fill-rule:nonzero;stroke:none;stroke-width:0.041181;stroke-linecap:round;stroke-linejoin:round;stroke-miterlimit:22.926;stroke-dasharray:none;stroke-dashoffset:0;stroke-opacity:1;color-rendering:auto;image-rendering:auto;shape-rendering:auto;text-rendering:auto;enable-background:accumulate;stop-color:#000000;stop-opacity:1"
         d="m 194.16016,685.39258 c -2.20655,0 -3.97071,1.76215 -3.97071,3.96875 v 23.0957 c 0,2.2066 1.76416,3.9707 3.97071,3.9707 h 53.83007 c 2.20655,0 3.97174,-1.76402 3.97071,-3.9707 l -0.0156,-23.0957 c -10e-4,-2.20576 -1.74853,-3.96875 -3.95508,-3.96875 z m 0,0.29883 h 53.83007 c 2.04746,0 3.65334,1.62168 3.6543,3.66992 l 0.0156,23.09765 c 9.6e-4,2.04732 -1.62247,3.66797 -3.66993,3.66797 h -53.83007 c -2.04746,0 -3.66993,-1.62251 -3.66993,-3.66992 v -23.0957 c 0,-2.04741 1.62247,-3.66992 3.66993,-3.66992 z"
         id="path6885" />
    </g>
    <path
       id="path6026"
       style="fill:#000000;fill-opacity:1;fill-rule:evenodd;stroke:none;stroke-width:0.352777"
       d="m 96.935142,449.79997 c -3.940556,0 -7.145189,3.2074 -7.145189,7.14518 v 59.35246 c 0,3.93779 3.204633,7.14519 7.145189,7.14519 H 235.27612 c 3.93874,0 7.1414,-3.20653 7.1414,-7.14519 v -59.35246 c 0,-3.93778 -3.20084,-7.14518 -7.1414,-7.14518 z m 0,3.35047 H 235.27612 c 2.1862,0 3.79471,1.61092 3.79471,3.79471 v 59.35246 c 0,2.18292 -1.61178,3.79092 -3.79471,3.79092 H 96.935142 c -2.186203,0 -3.790924,-1.60712 -3.790924,-3.79092 v -59.35246 c 0,-2.18379 1.604721,-3.79471 3.790924,-3.79471 z m 24.051948,8.70373 c -2.69848,0.0583 -3.79828,2.03205 -4.50244,3.24506 l -9.48299,16.32324 0.051,18.77774 c 0,2.71392 2.43775,4.74342 4.75843,4.74342 l 5.49254,-0.0218 c 0.007,-5.85183 4.70365,-10.85649 11.16194,-11.04153 6.51228,0.0823 11.07351,5.25847 11.10177,11.01516 l 42.98777,-0.007 c 0.37809,-6.19611 4.62951,-11.01603 11.20342,-11.13936 7.03657,0.0437 11.49144,6.09245 11.09048,11.17324 l 7.57435,-0.0291 10.83448,-3.97166 v -34.70927 c 0.0437,-2.68558 -2.57652,-4.44161 -4.22386,-4.35937 z m 15.26539,3.24506 18.03235,0.0437 v 16.23669 l -18.00598,0.051 z m 42.24616,0 17.30956,0.0146 v 16.31945 l -17.30956,-0.007 z m -58.16661,0.0146 h 12.60763 v 16.31945 l -22.15087,-0.0219 z m 37.06987,0 18.06622,0.0146 -0.0291,16.27049 -18.03992,0.0364 z m 41.15447,0.0146 18.326,0.0219 0.0146,16.25169 -18.29206,0.0364 z m -70.11922,31.08036 c -4.978,0 -9.03497,3.99264 -9.03497,8.88067 0,4.90865 4.05697,8.90326 9.03497,8.90326 4.99862,0 9.06892,-3.99461 9.06892,-8.90326 0,-4.88803 -4.0703,-8.88067 -9.06892,-8.88067 z m 65.18762,0.007 c -4.92919,0 -8.956,3.95091 -8.956,8.79785 0,4.85977 4.02681,8.81292 8.956,8.81292 4.96511,0 8.98601,-3.95315 8.98601,-8.81292 0,-4.84694 -4.0209,-8.79785 -8.98601,-8.79785 z m 0.0903,4.53632 c 2.38239,0 4.32557,1.90165 4.32557,4.23516 0,2.3335 -1.94318,4.24645 -4.32557,4.24645 -2.37459,0 -4.31041,-1.91295 -4.31041,-4.24645 0,-2.33351 1.93582,-4.23516 4.31041,-4.23516 z m -65.43596,0.007 c 2.4234,0 4.39703,1.92605 4.39703,4.28782 0,2.38239 -1.97363,4.31799 -4.39703,4.31799 -2.41837,0 -4.35944,-1.9356 -4.35944,-4.31799 0,-2.36177 1.94107,-4.28782 4.35944,-4.28782 z" />
  </g>
</svg>
