<?xml version="1.0" encoding="UTF-8" standalone="no"?>
<svg
   xmlns:dc="http://purl.org/dc/elements/1.1/"
   xmlns:cc="http://creativecommons.org/ns#"
   xmlns:rdf="http://www.w3.org/1999/02/22-rdf-syntax-ns#"
   xmlns:svg="http://www.w3.org/2000/svg"
   xmlns="http://www.w3.org/2000/svg"
   xmlns:sodipodi="http://sodipodi.sourceforge.net/DTD/sodipodi-0.dtd"
   xmlns:inkscape="http://www.inkscape.org/namespaces/inkscape"
   width="158.75mm"
   height="79.76152mm"
   viewBox="0 0 158.74999 79.761515"
   version="1.1"
   id="svg6774"
   inkscape:version="1.0 (4035a4fb49, 2020-05-01)"
   sodipodi:docname="Latvia_road_sign_830.svg">
  <defs
     id="defs6768" />
  <sodipodi:namedview
     id="base"
     pagecolor="#ffffff"
     bordercolor="#666666"
     borderopacity="1.0"
     inkscape:pageopacity="0.0"
     inkscape:pageshadow="2"
     inkscape:zoom="0.39362278"
     inkscape:cx="183.52804"
     inkscape:cy="-411.00574"
     inkscape:document-units="mm"
     inkscape:current-layer="layer1"
     inkscape:document-rotation="0"
     showgrid="false"
     fit-margin-top="0"
     fit-margin-left="0"
     fit-margin-right="0"
     fit-margin-bottom="0"
     inkscape:window-width="1920"
     inkscape:window-height="1001"
     inkscape:window-x="-9"
     inkscape:window-y="-9"
     inkscape:window-maximized="1" />
  <metadata
     id="metadata6771">
    <rdf:RDF>
      <cc:Work
         rdf:about="">
        <dc:format>image/svg+xml</dc:format>
        <dc:type
           rdf:resource="http://purl.org/dc/dcmitype/StillImage" />
        <dc:title></dc:title>
      </cc:Work>
    </rdf:RDF>
  </metadata>
  <g
     inkscape:label="Layer 1"
     inkscape:groupmode="layer"
     id="layer1"
     transform="translate(-203.54072,-587.41825)">
    <g
       id="g2362"
       style="opacity:1"
       inkscape:groupmode="layer" />
    <g
       transform="matrix(2.5700373,0,0,-2.5700373,-286.69389,1150.1209)"
       id="g6935"
       style="opacity:1;stroke-width:0.137266">
      <path
         style="color:#000000;font-style:normal;font-variant:normal;font-weight:normal;font-stretch:normal;font-size:medium;line-height:normal;font-family:sans-serif;font-variant-ligatures:normal;font-variant-position:normal;font-variant-caps:normal;font-variant-numeric:normal;font-variant-alternates:normal;font-variant-east-asian:normal;font-feature-settings:normal;font-variation-settings:normal;text-indent:0;text-align:start;text-decoration:none;text-decoration-line:none;text-decoration-style:solid;text-decoration-color:#000000;letter-spacing:normal;word-spacing:normal;text-transform:none;writing-mode:lr-tb;direction:ltr;text-orientation:mixed;dominant-baseline:auto;baseline-shift:baseline;text-anchor:start;white-space:normal;shape-padding:0;shape-margin:0;inline-size:0;clip-rule:nonzero;display:inline;overflow:visible;visibility:visible;isolation:auto;mix-blend-mode:normal;color-interpolation:sRGB;color-interpolation-filters:linearRGB;solid-color:#000000;solid-opacity:1;vector-effect:none;fill:#ffffff;fill-opacity:1;fill-rule:nonzero;stroke:none;stroke-width:0.0411797;stroke-linecap:round;stroke-linejoin:round;stroke-miterlimit:22.926;stroke-dasharray:none;stroke-dashoffset:0;stroke-opacity:1;color-rendering:auto;image-rendering:auto;shape-rendering:auto;text-rendering:auto;enable-background:accumulate;stop-color:#000000;stop-opacity:1"
         d="m 190.9,214.978 c 0,2.127 1.692,3.819 3.82,3.819 h 53.831 c 2.127,0 3.821,-1.692 3.819,-3.819 l -0.015,-23.097 c -10e-4,-2.127 -1.677,-3.819 -3.804,-3.819 H 194.72 c -2.128,0 -3.82,1.692 -3.82,3.819 z"
         id="path6937" />
      <path
         style="color:#000000;font-style:normal;font-variant:normal;font-weight:normal;font-stretch:normal;font-size:medium;line-height:normal;font-family:sans-serif;font-variant-ligatures:normal;font-variant-position:normal;font-variant-caps:normal;font-variant-numeric:normal;font-variant-alternates:normal;font-variant-east-asian:normal;font-feature-settings:normal;font-variation-settings:normal;text-indent:0;text-align:start;text-decoration:none;text-decoration-line:none;text-decoration-style:solid;text-decoration-color:#000000;letter-spacing:normal;word-spacing:normal;text-transform:none;writing-mode:lr-tb;direction:ltr;text-orientation:mixed;dominant-baseline:auto;baseline-shift:baseline;text-anchor:start;white-space:normal;shape-padding:0;shape-margin:0;inline-size:0;clip-rule:nonzero;display:inline;overflow:visible;visibility:visible;isolation:auto;mix-blend-mode:normal;color-interpolation:sRGB;color-interpolation-filters:linearRGB;solid-color:#000000;solid-opacity:1;vector-effect:none;fill:#000000;fill-opacity:1;fill-rule:nonzero;stroke:none;stroke-width:0.0411797;stroke-linecap:round;stroke-linejoin:round;stroke-miterlimit:22.926;stroke-dasharray:none;stroke-dashoffset:0;stroke-opacity:1;color-rendering:auto;image-rendering:auto;shape-rendering:auto;text-rendering:auto;enable-background:accumulate;stop-color:#000000;stop-opacity:1"
         d="m 194.7207,187.91211 c -2.20751,0 -3.9707,1.7622 -3.9707,3.96875 v 23.09766 c 0,2.20654 1.76319,3.96875 3.9707,3.96875 h 53.83008 c 2.20655,0 3.97083,-1.76204 3.96875,-3.96875 l -0.0137,-23.09766 c -0.001,-2.20576 -1.74853,-3.96875 -3.95508,-3.96875 z m 0,0.30078 h 53.83008 c 2.04745,0 3.65334,1.61973 3.6543,3.66797 l 0.0156,23.09766 c 0.002,2.04728 -1.62247,3.66796 -3.66992,3.66796 H 194.7207 c -2.04849,0 -3.66992,-1.62051 -3.66992,-3.66796 v -23.09766 c 0,-2.04745 1.62143,-3.66797 3.66992,-3.66797 z"
         id="path6939" />
    </g>
    <path
       id="path6154"
       style="fill:#000000;fill-opacity:1;fill-rule:evenodd;stroke:none;stroke-width:0.352777"
       d="m 213.74427,590.4739 c -3.9406,0 -7.14534,3.20656 -7.14534,7.14541 v 59.36184 c 0,3.93886 3.20474,7.14163 7.14534,7.14163 h 138.34535 c 3.93886,0 7.14541,-3.20277 7.14541,-7.14163 v -59.36184 c 0,-3.93791 -3.20473,-7.14541 -7.14541,-7.14541 z m 0,3.35437 h 138.34535 c 2.18627,0 3.79104,1.6071 3.79104,3.79104 v 49.59997 l -67.63667,-0.0437 v 8.62117 l -78.29448,0.004 v -58.18354 c 0,-2.183 1.60849,-3.79105 3.79476,-3.79105 z m 78.66726,10.40188 c -11.59853,0.58354 -22.81132,2.31492 -34.11947,5.91808 -3.03783,4.43331 -5.25266,11.47294 -5.91058,18.78213 l 10.09313,-1.85975 0.61705,2.9703 -11.31288,2.06686 0.16974,0.92609 11.29788,-2.04421 0.51943,2.75954 -11.24513,2.04421 0.52307,2.99296 54.57688,-10.24 -0.67023,-3.02305 -10.3492,2.01034 -0.56096,-2.71816 10.39809,-1.99147 -0.24478,-0.93745 -10.3868,2.01791 -0.56824,-2.91012 9.40039,-1.73926 c -2.1819,-4.66205 -8.03858,-12.39327 -12.22775,-15.02495 z m -0.47062,1.83716 c 3.86273,3.43102 6.59735,6.97597 9.31384,11.42209 -15.43307,1.31847 -31.27425,4.42128 -46.38867,8.05271 0.33147,-4.98333 3.40005,-11.67576 4.76987,-13.7035 10.72476,-3.12518 21.04562,-5.03367 32.30496,-5.7713 z m 16.22205,25.11809 -54.52042,10.30397 2.54871,12.56286 1.44945,1.35147 6.0423,-1.10304 0.66659,-2.02163 -1.04659,-5.05596 38.4188,-7.18308 1.02779,5.09362 1.55858,1.36662 5.20655,-0.87341 1.1332,-1.96517 z" />
  </g>
</svg>
