<?xml version="1.0" encoding="UTF-8" standalone="no"?>
<svg
   xmlns:dc="http://purl.org/dc/elements/1.1/"
   xmlns:cc="http://creativecommons.org/ns#"
   xmlns:rdf="http://www.w3.org/1999/02/22-rdf-syntax-ns#"
   xmlns:svg="http://www.w3.org/2000/svg"
   xmlns="http://www.w3.org/2000/svg"
   xmlns:sodipodi="http://sodipodi.sourceforge.net/DTD/sodipodi-0.dtd"
   xmlns:inkscape="http://www.inkscape.org/namespaces/inkscape"
   width="158.75mm"
   height="79.758987mm"
   viewBox="0 0 158.74999 79.758982"
   version="1.1"
   id="svg6774"
   inkscape:version="1.0 (4035a4fb49, 2020-05-01)"
   sodipodi:docname="Latvia_road_sign_827.svg">
  <defs
     id="defs6768" />
  <sodipodi:namedview
     id="base"
     pagecolor="#ffffff"
     bordercolor="#666666"
     borderopacity="1.0"
     inkscape:pageopacity="0.0"
     inkscape:pageshadow="2"
     inkscape:zoom="0.27833333"
     inkscape:cx="82.354689"
     inkscape:cy="535.94062"
     inkscape:document-units="mm"
     inkscape:current-layer="layer1"
     inkscape:document-rotation="0"
     showgrid="false"
     fit-margin-top="0"
     fit-margin-left="0"
     fit-margin-right="0"
     fit-margin-bottom="0"
     inkscape:window-width="1920"
     inkscape:window-height="1001"
     inkscape:window-x="-9"
     inkscape:window-y="-9"
     inkscape:window-maximized="1" />
  <metadata
     id="metadata6771">
    <rdf:RDF>
      <cc:Work
         rdf:about="">
        <dc:format>image/svg+xml</dc:format>
        <dc:type
           rdf:resource="http://purl.org/dc/dcmitype/StillImage" />
        <dc:title></dc:title>
      </cc:Work>
    </rdf:RDF>
  </metadata>
  <g
     inkscape:label="Layer 1"
     inkscape:groupmode="layer"
     id="layer1"
     transform="translate(-166.3216,-412.94337)">
    <g
       id="g2362"
       style="opacity:1"
       inkscape:groupmode="layer" />
    <g
       transform="matrix(2.5699558,0,0,-2.5699558,-322.45688,1401.7941)"
       id="g6917"
       style="opacity:1;stroke-width:0.13727">
      <path
         style="color:#000000;font-style:normal;font-variant:normal;font-weight:normal;font-stretch:normal;font-size:medium;line-height:normal;font-family:sans-serif;font-variant-ligatures:normal;font-variant-position:normal;font-variant-caps:normal;font-variant-numeric:normal;font-variant-alternates:normal;font-variant-east-asian:normal;font-feature-settings:normal;font-variation-settings:normal;text-indent:0;text-align:start;text-decoration:none;text-decoration-line:none;text-decoration-style:solid;text-decoration-color:#000000;letter-spacing:normal;word-spacing:normal;text-transform:none;writing-mode:lr-tb;direction:ltr;text-orientation:mixed;dominant-baseline:auto;baseline-shift:baseline;text-anchor:start;white-space:normal;shape-padding:0;shape-margin:0;inline-size:0;clip-rule:nonzero;display:inline;overflow:visible;visibility:visible;isolation:auto;mix-blend-mode:normal;color-interpolation:sRGB;color-interpolation-filters:linearRGB;solid-color:#000000;solid-opacity:1;vector-effect:none;fill:#ffffff;fill-opacity:1;fill-rule:nonzero;stroke:none;stroke-width:0.041181;stroke-linecap:round;stroke-linejoin:round;stroke-miterlimit:22.926;stroke-dasharray:none;stroke-dashoffset:0;stroke-opacity:1;color-rendering:auto;image-rendering:auto;shape-rendering:auto;text-rendering:auto;enable-background:accumulate;stop-color:#000000;stop-opacity:1"
         d="m 190.34,380.804 c 0,2.127 1.693,3.819 3.82,3.819 h 53.831 c 2.127,0 3.821,-1.692 3.82,-3.819 l -0.016,-23.096 c -10e-4,-2.127 -1.677,-3.819 -3.804,-3.819 H 194.16 c -2.127,0 -3.82,1.692 -3.82,3.819 z"
         id="path6919" />
      <path
         style="color:#000000;font-style:normal;font-variant:normal;font-weight:normal;font-stretch:normal;font-size:medium;line-height:normal;font-family:sans-serif;font-variant-ligatures:normal;font-variant-position:normal;font-variant-caps:normal;font-variant-numeric:normal;font-variant-alternates:normal;font-variant-east-asian:normal;font-feature-settings:normal;font-variation-settings:normal;text-indent:0;text-align:start;text-decoration:none;text-decoration-line:none;text-decoration-style:solid;text-decoration-color:#000000;letter-spacing:normal;word-spacing:normal;text-transform:none;writing-mode:lr-tb;direction:ltr;text-orientation:mixed;dominant-baseline:auto;baseline-shift:baseline;text-anchor:start;white-space:normal;shape-padding:0;shape-margin:0;inline-size:0;clip-rule:nonzero;display:inline;overflow:visible;visibility:visible;isolation:auto;mix-blend-mode:normal;color-interpolation:sRGB;color-interpolation-filters:linearRGB;solid-color:#000000;solid-opacity:1;vector-effect:none;fill:#000000;fill-opacity:1;fill-rule:nonzero;stroke:none;stroke-width:0.041181;stroke-linecap:round;stroke-linejoin:round;stroke-miterlimit:22.926;stroke-dasharray:none;stroke-dashoffset:0;stroke-opacity:1;color-rendering:auto;image-rendering:auto;shape-rendering:auto;text-rendering:auto;enable-background:accumulate;stop-color:#000000;stop-opacity:1"
         d="m 194.16016,353.73828 c -2.20655,0 -3.97071,1.76216 -3.97071,3.96875 v 23.09766 c 0,2.20659 1.76416,3.96875 3.97071,3.96875 h 53.83007 c 2.20655,0 3.97174,-1.76207 3.97071,-3.96875 l -0.0156,-23.09766 c -10e-4,-2.20576 -1.74853,-3.96875 -3.95508,-3.96875 z m 0,0.30078 h 53.83007 c 2.04746,0 3.65334,1.62168 3.6543,3.66992 l 0.0156,23.09571 c 9.6e-4,2.04732 -1.62247,3.66797 -3.66993,3.66797 h -53.83007 c -2.04746,0 -3.66993,-1.62057 -3.66993,-3.66797 v -23.09766 c 0,-2.0474 1.62247,-3.66797 3.66993,-3.66797 z"
         id="path6921" />
    </g>
    <path
       id="path6062"
       style="fill:#000000;fill-opacity:1;fill-rule:evenodd;stroke:none;stroke-width:0.352777"
       d="m 176.52739,416.00638 c -3.93961,0 -7.14519,3.19808 -7.14519,7.13769 v 59.35995 c 0,3.93961 3.20558,7.13762 7.14519,7.13762 h 138.34095 c 3.93874,0 7.14141,-3.19888 7.14141,-7.13762 v -59.35995 c 0,-3.93779 -3.20085,-7.13769 -7.14141,-7.13769 z m 0,3.34676 h 138.34095 c 2.18621,0 3.79472,1.60706 3.79472,3.79093 v 59.35995 c 0,2.18293 -1.61179,3.78714 -3.79472,3.78714 H 176.52739 c -2.18715,0 -3.79093,-1.59999 -3.79093,-3.78714 v -59.35995 c 0,-2.18715 1.60378,-3.79093 3.79093,-3.79093 z m 12.76572,19.51935 c -4.43062,0 -8.02237,3.59168 -8.02237,8.02229 0,2.22307 1.01821,4.32076 2.76324,5.70336 -2.05085,1.4572 -3.26393,3.81489 -3.26393,6.32826 0,4.70562 3.81744,8.52306 8.52306,8.52306 4.70554,0 8.52298,-3.81744 8.52298,-8.52306 0,-2.51337 -1.21308,-4.87106 -3.26386,-6.32826 1.74503,-1.3826 2.76317,-3.48029 2.76317,-5.70336 0,-4.43061 -3.59168,-8.02229 -8.02229,-8.02229 z m 66.92672,0.13185 -4.03183,3.02667 v 4.28411 l 4.03183,-3.03045 v 23.94653 h 4.03191 v -28.22686 z m 10.58979,0 v 8.06368 h 4.03191 v -4.02812 h 7.55547 l -9.57332,24.19116 H 273.36 l 9.57339,-24.44344 v -3.78335 z m -77.51651,3.88126 c 2.21527,0 4.00925,1.79398 4.00925,4.00925 0,2.21535 -1.79398,4.00933 -4.00925,4.00933 -2.21535,0 -4.01305,-1.79398 -4.01305,-4.00933 0,-2.21527 1.7977,-4.00925 4.01305,-4.00925 z m 120.00737,5.24033 c -2.9914,0 -5.42099,2.42442 -5.42099,5.421 v 8.47782 c 0,2.9914 2.42959,5.42099 5.42099,5.42099 2.99148,0 5.421,-2.42959 5.421,-5.42099 v -8.47782 c 0,-2.99658 -2.42952,-5.421 -5.421,-5.421 z m -13.8951,0.0291 c -2.97851,-0.28047 -5.62271,1.90646 -5.90282,4.89022 h 2.7293 c 0.24696,-1.27989 1.36497,-2.20609 2.66533,-2.20609 1.49829,0 2.7105,1.21483 2.7105,2.7105 0,1.49836 -1.21221,2.71049 -2.7105,2.71049 h -1.18584 v 2.37175 h 1.18584 c 1.59336,0 2.87994,1.29286 2.87994,2.88366 v 0.33875 c 0,1.33125 -0.90842,2.48729 -2.19858,2.80083 -1.54965,0.37518 -3.10323,-0.57623 -3.4784,-2.12318 h -2.75574 c 0.34676,2.80891 2.72842,4.91651 5.55278,4.91651 3.09164,0 5.59416,-2.50251 5.59416,-5.59416 v -0.33875 c 0,-1.64223 -0.82254,-3.176 -2.18723,-4.08836 1.2619,-0.88665 2.01785,-2.33037 2.01785,-3.87754 0,-2.7961 -2.13331,-5.13252 -4.91659,-5.39463 z m -69.44526,0.0364 c -2.96059,0 -5.36075,2.40511 -5.36075,5.36825 v 8.38749 c 0,2.96058 2.40016,5.36461 5.36075,5.36461 2.96059,0 5.36075,-2.40403 5.36075,-5.36461 v -8.38749 c 0,-2.96314 -2.40016,-5.36825 -5.36075,-5.36825 z m -13.58637,0.051 c -2.97086,0 -5.38333,2.41233 -5.38333,5.39091 v 8.41757 c 0,2.97349 2.41247,5.39091 5.38333,5.39091 2.97341,0 5.38712,-2.41742 5.38712,-5.39091 v -8.41757 c 0,-2.97858 -2.41371,-5.39091 -5.38712,-5.39091 z m 96.92673,2.59379 c 1.49319,0 2.70671,1.21484 2.70671,2.7105 v 8.47789 c 0,1.49829 -1.21352,2.7105 -2.70671,2.7105 -1.49828,0 -2.70671,-1.21221 -2.70671,-2.7105 v -8.47789 c 0,-1.49566 1.20843,-2.7105 2.70671,-2.7105 z m -83.34036,0.0364 c 1.47774,0 2.68041,1.20128 2.68041,2.6842 v 8.38748 c 0,1.48285 -1.20267,2.68413 -2.68041,2.68413 -1.48285,0 -2.68034,-1.20128 -2.68034,-2.68413 v -8.38748 c 0,-1.48292 1.19749,-2.6842 2.68034,-2.6842 z m -13.58637,0.0656 c 1.48547,0 2.69171,1.2074 2.69171,2.69542 v 8.41757 c 0,1.48802 -1.20624,2.69549 -2.69171,2.69549 -1.48801,0 -2.68791,-1.20747 -2.68791,-2.69549 v -8.41757 c 0,-1.48802 1.1999,-2.69542 2.68791,-2.69542 z m 23.18606,3.44832 v 3.98674 l 12.40432,0.0291 v -3.99417 z m -46.2667,0.0291 c 2.49027,0 4.51373,2.026 4.51373,4.51373 0,2.49027 -2.02346,4.51373 -4.51373,4.51373 -2.49028,0 -4.51374,-2.02346 -4.51374,-4.51373 0,-2.48773 2.02346,-4.51373 4.51374,-4.51373 z m 93.64028,8.78648 v 4.03191 h 4.03184 v -4.03191 z m -82.26373,0.11291 v 4.00926 h 4.00554 v -4.00926 z" />
  </g>
</svg>
