<?xml version="1.0" encoding="UTF-8" standalone="no"?>
<svg
   xmlns:dc="http://purl.org/dc/elements/1.1/"
   xmlns:cc="http://creativecommons.org/ns#"
   xmlns:rdf="http://www.w3.org/1999/02/22-rdf-syntax-ns#"
   xmlns:svg="http://www.w3.org/2000/svg"
   xmlns="http://www.w3.org/2000/svg"
   xmlns:sodipodi="http://sodipodi.sourceforge.net/DTD/sodipodi-0.dtd"
   xmlns:inkscape="http://www.inkscape.org/namespaces/inkscape"
   width="158.75mm"
   height="79.76149mm"
   viewBox="0 0 158.75 79.761489"
   version="1.1"
   id="svg8"
   inkscape:version="1.0 (4035a4fb49, 2020-05-01)"
   sodipodi:docname="Latvia_road_sign 859.svg">
  <defs
     id="defs2" />
  <sodipodi:namedview
     id="base"
     pagecolor="#ffffff"
     bordercolor="#666666"
     borderopacity="1.0"
     inkscape:pageopacity="0.0"
     inkscape:pageshadow="2"
     inkscape:zoom="0.49497475"
     inkscape:cx="425.80445"
     inkscape:cy="684.81008"
     inkscape:document-units="mm"
     inkscape:current-layer="layer1"
     inkscape:document-rotation="0"
     showgrid="false"
     inkscape:window-width="1424"
     inkscape:window-height="1030"
     inkscape:window-x="160"
     inkscape:window-y="0"
     inkscape:window-maximized="0" />
  <metadata
     id="metadata5">
    <rdf:RDF>
      <cc:Work
         rdf:about="">
        <dc:format>image/svg+xml</dc:format>
        <dc:type
           rdf:resource="http://purl.org/dc/dcmitype/StillImage" />
        <dc:title></dc:title>
      </cc:Work>
    </rdf:RDF>
  </metadata>
  <g
     inkscape:label="Layer 1"
     inkscape:groupmode="layer"
     id="layer1"
     transform="translate(-29.576625,-39.042567)">
    <g
       transform="matrix(2.5700373,0,0,-2.5700373,-422.765,1312.0493)"
       id="g5615"
       style="opacity:1;stroke-width:0.137266">
      <path
         style="color:#000000;font-style:normal;font-variant:normal;font-weight:normal;font-stretch:normal;font-size:medium;line-height:normal;font-family:sans-serif;font-variant-ligatures:normal;font-variant-position:normal;font-variant-caps:normal;font-variant-numeric:normal;font-variant-alternates:normal;font-variant-east-asian:normal;font-feature-settings:normal;font-variation-settings:normal;text-indent:0;text-align:start;text-decoration:none;text-decoration-line:none;text-decoration-style:solid;text-decoration-color:#000000;letter-spacing:normal;word-spacing:normal;text-transform:none;writing-mode:lr-tb;direction:ltr;text-orientation:mixed;dominant-baseline:auto;baseline-shift:baseline;text-anchor:start;white-space:normal;shape-padding:0;shape-margin:0;inline-size:0;clip-rule:nonzero;display:inline;overflow:visible;visibility:visible;isolation:auto;mix-blend-mode:normal;color-interpolation:sRGB;color-interpolation-filters:linearRGB;solid-color:#000000;solid-opacity:1;vector-effect:none;fill:#ffffff;fill-opacity:1;fill-rule:nonzero;stroke:none;stroke-width:0.0411797;stroke-linecap:round;stroke-linejoin:round;stroke-miterlimit:22.926;stroke-dasharray:none;stroke-dashoffset:0;stroke-opacity:1;color-rendering:auto;image-rendering:auto;shape-rendering:auto;text-rendering:auto;enable-background:accumulate;stop-color:#000000;stop-opacity:1"
         d="m 176.156,491.356 c 0,2.128 1.692,3.82 3.82,3.82 h 53.831 c 2.127,0 3.821,-1.693 3.819,-3.82 L 237.61,468.26 c -0.001,-2.127 -1.676,-3.819 -3.803,-3.819 h -53.831 c -2.128,0 -3.82,1.692 -3.82,3.819 z"
         id="path5617" />
      <path
         style="color:#000000;font-style:normal;font-variant:normal;font-weight:normal;font-stretch:normal;font-size:medium;line-height:normal;font-family:sans-serif;font-variant-ligatures:normal;font-variant-position:normal;font-variant-caps:normal;font-variant-numeric:normal;font-variant-alternates:normal;font-variant-east-asian:normal;font-feature-settings:normal;font-variation-settings:normal;text-indent:0;text-align:start;text-decoration:none;text-decoration-line:none;text-decoration-style:solid;text-decoration-color:#000000;letter-spacing:normal;word-spacing:normal;text-transform:none;writing-mode:lr-tb;direction:ltr;text-orientation:mixed;dominant-baseline:auto;baseline-shift:baseline;text-anchor:start;white-space:normal;shape-padding:0;shape-margin:0;inline-size:0;clip-rule:nonzero;display:inline;overflow:visible;visibility:visible;isolation:auto;mix-blend-mode:normal;color-interpolation:sRGB;color-interpolation-filters:linearRGB;solid-color:#000000;solid-opacity:1;vector-effect:none;fill:#000000;fill-opacity:1;fill-rule:nonzero;stroke:none;stroke-width:0.0411797;stroke-linecap:round;stroke-linejoin:round;stroke-miterlimit:22.926;stroke-dasharray:none;stroke-dashoffset:0;stroke-opacity:1;color-rendering:auto;image-rendering:auto;shape-rendering:auto;text-rendering:auto;enable-background:accumulate;stop-color:#000000;stop-opacity:1"
         d="m 179.97656,464.29102 c -2.20751,0 -3.9707,1.7622 -3.9707,3.96875 v 23.0957 c 0,2.20751 1.76319,3.9707 3.9707,3.9707 h 53.83008 c 2.2066,0 3.97083,-1.76398 3.96875,-3.9707 l -0.0156,-23.0957 c -0.001,-2.20572 -1.74658,-3.96875 -3.95313,-3.96875 z m 0,0.30078 h 53.83008 c 2.04745,0 3.65333,1.61968 3.6543,3.66797 l 0.0156,23.0957 c 0.002,2.04728 -1.62252,3.66992 -3.66992,3.66992 h -53.83008 c -2.04849,0 -3.66992,-1.62143 -3.66992,-3.66992 v -23.0957 c 0,-2.04746 1.62143,-3.66797 3.66992,-3.66797 z"
         id="path5619" />
    </g>
    <g
       transform="matrix(2.5700373,0,0,-2.5700373,-422.765,1312.0493)"
       style="opacity:1;stroke-width:0.137266"
       id="g3729">
      <path
         id="path3733"
         d="m 179.97656,465.48047 c -1.53331,0 -2.78125,1.24669 -2.78125,2.7793 v 23.0957 c 0,1.53331 1.24794,2.78125 2.78125,2.78125 h 53.83008 c 1.5326,0 2.7793,-1.24794 2.7793,-2.78125 v -23.0957 c 0,-1.53261 -1.2467,-2.7793 -2.7793,-2.7793 z m 0,1.30469 h 53.83008 c 0.8494,0 1.47461,0.62521 1.47461,1.47461 v 23.0957 c 0,0.85068 -0.62521,1.47656 -1.47461,1.47656 h -53.83008 c -0.85068,0 -1.47656,-0.62588 -1.47656,-1.47656 v -23.0957 c 0,-0.8494 0.62588,-1.47461 1.47656,-1.47461 z"
         style="color:#000000;font-style:normal;font-variant:normal;font-weight:normal;font-stretch:normal;font-size:medium;line-height:normal;font-family:sans-serif;font-variant-ligatures:normal;font-variant-position:normal;font-variant-caps:normal;font-variant-numeric:normal;font-variant-alternates:normal;font-variant-east-asian:normal;font-feature-settings:normal;font-variation-settings:normal;text-indent:0;text-align:start;text-decoration:none;text-decoration-line:none;text-decoration-style:solid;text-decoration-color:#000000;letter-spacing:normal;word-spacing:normal;text-transform:none;writing-mode:lr-tb;direction:ltr;text-orientation:mixed;dominant-baseline:auto;baseline-shift:baseline;text-anchor:start;white-space:normal;shape-padding:0;shape-margin:0;inline-size:0;clip-rule:nonzero;display:inline;overflow:visible;visibility:visible;isolation:auto;mix-blend-mode:normal;color-interpolation:sRGB;color-interpolation-filters:linearRGB;solid-color:#000000;solid-opacity:1;vector-effect:none;fill:#231f20;fill-opacity:1;fill-rule:evenodd;stroke:none;stroke-width:0.178994;stroke-linecap:round;stroke-linejoin:round;stroke-miterlimit:22.926;stroke-dasharray:none;stroke-dashoffset:0;stroke-opacity:1;color-rendering:auto;image-rendering:auto;shape-rendering:auto;text-rendering:auto;enable-background:accumulate;stop-color:#000000;stop-opacity:1" />
    </g>
    <path
       d="m 114.89481,56.297402 -41.957626,0.08291 c -1.896688,0 -3.040602,0.423049 -3.094584,2.078132 l -0.03643,26.774555 h 47.66868 l -0.0146,-26.88373 c 0,-1.117972 -0.24916,-2.051781 -2.56751,-2.051781 z m -49.46067,9.660234 -12.431081,0.0153 c -0.52963,0.0019 -1.03806,0.290604 -1.238547,0.688956 l -8.297416,12.175037 -0.07504,14.332226 c 0.503403,2.420978 2.161065,2.037859 4.137452,2.202358 -0.179943,-1.950656 0.845878,-4.178089 2.074299,-5.601876 2.665198,-2.629151 5.216237,-3.031269 7.966161,-2.627759 3.847358,0.449712 7.117587,5.485896 6.912,8.613635 L 93.7751,95.729283 c 0.228753,-3.911591 2.261309,-6.741302 6.064956,-8.188219 l -32.95246,-0.02258 -0.01457,-20.095978 c 0.09033,-0.632205 -0.591554,-1.505592 -1.441876,-1.464482 z m -2.134621,3.651759 v 8.169402 L 48.6963,77.756213 c -0.609038,-0.0459 -0.742283,-0.43842 -0.451679,-0.847073 l 5.199044,-7.292226 z m 96.432881,2.360467 c -1.48544,0 -2.688,1.206289 -2.688,2.691774 0,1.482906 1.20256,2.688 2.688,2.688 1.48289,0 2.688,-1.205094 2.688,-2.688 0,-1.485485 -1.20511,-2.691774 -2.688,-2.691774 z m 4.7285,4.969424 -5.05225,2.943985 -0.51579,5.869168 -2.64654,2.955307 c -1.04856,1.133386 0.56241,2.780827 1.79578,1.603759 l 3.44092,-3.81365 0.27465,-2.996686 2.97416,3.595278 -5.70354,7.062584 1.11813,7.085169 c 0.3985,2.12799 3.52375,1.73953 3.25646,-0.51951 l -0.91487,-5.707295 4.61929,-5.726102 0.5799,5.884241 4.53274,6.750106 c 1.14625,1.66538 3.88816,0.25738 2.74446,-1.83719 l -3.87766,-5.786339 -0.71904,-6.863059 -3.14354,-9.464452 z m -19.48609,9.93881 -5.62828,5.394825 3.64803,3.802343 5.62822,-5.394825 z m -39.81179,0.65508 c 3.90134,1.123115 5.93201,4.983878 5.76758,8.222125 l 6.64842,-3.964234 0.0364,-4.193876 z m -49.204669,1.178358 c -3.819091,0 -6.927007,3.107989 -6.927007,6.927059 0,3.821648 3.107916,6.930807 6.927007,6.930807 3.821642,0 6.927081,-3.109159 6.927081,-6.930807 0,-3.81907 -3.105439,-6.927059 -6.927081,-6.927059 z m 46.622089,0.08655 c -3.819092,0 -6.927008,3.114326 -6.927008,6.93081 0,3.821692 3.107916,6.930826 6.927008,6.930826 3.82164,0 6.92708,-3.109134 6.92708,-6.930826 0,-3.816484 -3.10544,-6.93081 -6.92708,-6.93081 z m 50.36046,0.643788 -10.01409,9.622569 -6.17787,-6.430102 -1.4005,1.340234 7.52184,7.830577 11.46733,-11.015534 z m -96.982549,2.774584 c 1.950671,0 3.531329,1.535694 3.531329,3.422109 0,1.88383 -1.580658,3.422117 -3.531329,3.422117 -1.948048,0 -3.527467,-1.538287 -3.527467,-3.422117 0,-1.886415 1.579419,-3.422109 3.527467,-3.422109 z m 46.622089,0.08655 c 1.95067,0 3.53133,1.539483 3.53133,3.425876 0,1.886452 -1.58066,3.422132 -3.53133,3.422132 -1.94805,0 -3.531256,-1.53568 -3.531256,-3.422132 0,-1.886393 1.583206,-3.425876 3.531256,-3.425876 z m 13.05221,2.699292 v 3.892701 h 1.16708 v -3.892701 z m 1.82595,1.987767 v 1.904934 h 16.1543 V 96.99006 Z m 20.99193,3.023065 c -0.72983,0 -1.32138,0.59527 -1.32138,1.32517 0,0.7299 0.59155,1.32142 1.32138,1.32142 0.7299,0 1.32145,-0.59148 1.32145,-1.32142 0,-0.7299 -0.59155,-1.32517 -1.32145,-1.32517 z"
       style="fill:#000000;fill-opacity:1;fill-rule:nonzero;stroke:none;stroke-width:0.352777"
       id="path12596" />
  </g>
</svg>
