<?xml version="1.0" encoding="UTF-8" standalone="no"?>
<svg
   xmlns:dc="http://purl.org/dc/elements/1.1/"
   xmlns:cc="http://creativecommons.org/ns#"
   xmlns:rdf="http://www.w3.org/1999/02/22-rdf-syntax-ns#"
   xmlns:svg="http://www.w3.org/2000/svg"
   xmlns="http://www.w3.org/2000/svg"
   xmlns:sodipodi="http://sodipodi.sourceforge.net/DTD/sodipodi-0.dtd"
   xmlns:inkscape="http://www.inkscape.org/namespaces/inkscape"
   width="158.75mm"
   height="79.76152mm"
   viewBox="0 0 158.74999 79.761515"
   version="1.1"
   id="svg6774"
   inkscape:version="1.0 (4035a4fb49, 2020-05-01)"
   sodipodi:docname="Latvia_road_sign_818.svg">
  <defs
     id="defs6768" />
  <sodipodi:namedview
     id="base"
     pagecolor="#ffffff"
     bordercolor="#666666"
     borderopacity="1.0"
     inkscape:pageopacity="0.0"
     inkscape:pageshadow="2"
     inkscape:zoom="0.55666667"
     inkscape:cx="-776.877"
     inkscape:cy="550.34123"
     inkscape:document-units="mm"
     inkscape:current-layer="layer1"
     inkscape:document-rotation="0"
     showgrid="false"
     fit-margin-top="0"
     fit-margin-left="0"
     fit-margin-right="0"
     fit-margin-bottom="0"
     inkscape:window-width="1920"
     inkscape:window-height="1001"
     inkscape:window-x="-9"
     inkscape:window-y="-9"
     inkscape:window-maximized="1" />
  <metadata
     id="metadata6771">
    <rdf:RDF>
      <cc:Work
         rdf:about="">
        <dc:format>image/svg+xml</dc:format>
        <dc:type
           rdf:resource="http://purl.org/dc/dcmitype/StillImage" />
        <dc:title></dc:title>
      </cc:Work>
    </rdf:RDF>
  </metadata>
  <g
     inkscape:label="Layer 1"
     inkscape:groupmode="layer"
     id="layer1"
     transform="translate(-166.946,-203.64881)">
    <g
       id="g2362"
       style="opacity:1"
       inkscape:groupmode="layer" />
    <g
       id="g4090"
       transform="matrix(2.5700374,0,0,-2.5700374,-291.69023,837.38891)"
       style="opacity:1;stroke-width:0.137266">
      <path
         style="color:#000000;font-style:normal;font-variant:normal;font-weight:normal;font-stretch:normal;font-size:medium;line-height:normal;font-family:sans-serif;font-variant-ligatures:normal;font-variant-position:normal;font-variant-caps:normal;font-variant-numeric:normal;font-variant-alternates:normal;font-variant-east-asian:normal;font-feature-settings:normal;font-variation-settings:normal;text-indent:0;text-align:start;text-decoration:none;text-decoration-line:none;text-decoration-style:solid;text-decoration-color:#000000;letter-spacing:normal;word-spacing:normal;text-transform:none;writing-mode:lr-tb;direction:ltr;text-orientation:mixed;dominant-baseline:auto;baseline-shift:baseline;text-anchor:start;white-space:normal;shape-padding:0;shape-margin:0;inline-size:0;clip-rule:nonzero;display:inline;overflow:visible;visibility:visible;isolation:auto;mix-blend-mode:normal;color-interpolation:sRGB;color-interpolation-filters:linearRGB;solid-color:#000000;solid-opacity:1;vector-effect:none;fill:#ffffff;fill-opacity:1;fill-rule:nonzero;stroke:none;stroke-width:0.0411797;stroke-linecap:round;stroke-linejoin:round;stroke-miterlimit:22.926;stroke-dasharray:none;stroke-dashoffset:0;stroke-opacity:1;color-rendering:auto;image-rendering:auto;shape-rendering:auto;text-rendering:auto;enable-background:accumulate;stop-color:#000000;stop-opacity:1"
         d="m 178.60547,242.61719 c 0,2.1289 1.6914,3.82031 3.82031,3.82031 h 53.82813 c 2.1289,0 3.82031,-1.69141 3.82031,-3.82031 l -0.0156,-23.09375 c 0,-2.12891 -1.67578,-3.82032 -3.80468,-3.82032 h -53.82813 c -2.12891,0 -3.82031,1.69141 -3.82031,3.82032 z m 0,0"
         id="path4092" />
      <path
         style="color:#000000;font-style:normal;font-variant:normal;font-weight:normal;font-stretch:normal;font-size:medium;line-height:normal;font-family:sans-serif;font-variant-ligatures:normal;font-variant-position:normal;font-variant-caps:normal;font-variant-numeric:normal;font-variant-alternates:normal;font-variant-east-asian:normal;font-feature-settings:normal;font-variation-settings:normal;text-indent:0;text-align:start;text-decoration:none;text-decoration-line:none;text-decoration-style:solid;text-decoration-color:#000000;letter-spacing:normal;word-spacing:normal;text-transform:none;writing-mode:lr-tb;direction:ltr;text-orientation:mixed;dominant-baseline:auto;baseline-shift:baseline;text-anchor:start;white-space:normal;shape-padding:0;shape-margin:0;inline-size:0;clip-rule:nonzero;display:inline;overflow:visible;visibility:visible;isolation:auto;mix-blend-mode:normal;color-interpolation:sRGB;color-interpolation-filters:linearRGB;solid-color:#000000;solid-opacity:1;vector-effect:none;fill:#000000;fill-opacity:1;fill-rule:nonzero;stroke:none;stroke-width:0.0411797;stroke-linecap:round;stroke-linejoin:round;stroke-miterlimit:22.926;stroke-dasharray:none;stroke-dashoffset:0;stroke-opacity:1;color-rendering:auto;image-rendering:auto;shape-rendering:auto;text-rendering:auto;enable-background:accumulate;stop-color:#000000;stop-opacity:1"
         d="m 182.42578,215.55273 c -2.20836,0 -3.9707,1.76235 -3.9707,3.97071 v 23.09375 c 0,2.20835 1.76234,3.9707 3.9707,3.9707 h 53.82813 c 2.20835,0 3.9707,-1.76235 3.9707,-3.9707 l -0.0156,-23.09375 c 0,-2.20763 -1.74672,-3.97071 -3.95507,-3.97071 z m 0,0.30079 h 53.82813 c 2.04945,0 3.65429,1.61972 3.65429,3.66992 l 0.0156,23.09375 c 0,2.04945 -1.62047,3.66992 -3.66992,3.66992 h -53.82813 c -2.04946,0 -3.66992,-1.62047 -3.66992,-3.66992 v -23.09375 c 0,-2.04946 1.62046,-3.66992 3.66992,-3.66992 z"
         id="path4094" />
    </g>
    <path
       id="path3068"
       style="fill:#000000;fill-opacity:1;fill-rule:evenodd;stroke:none;stroke-width:0.352777"
       d="m 177.15072,206.70583 c -3.94097,0 -7.14913,3.20816 -7.14913,7.14913 v 59.35055 c 0,3.94105 3.20816,7.14921 7.14913,7.14921 h 138.34156 c 3.94098,0 7.14542,-3.20816 7.14542,-7.14921 v -59.35055 c 0,-3.94097 -3.20444,-7.14913 -7.14542,-7.14913 z m 0,3.3543 h 138.34156 c 2.18293,0 3.79484,1.61198 3.79484,3.79483 v 59.35055 c 0,2.183 -1.61191,3.79483 -3.79484,3.79483 H 177.15072 c -2.18292,0 -3.79483,-1.61183 -3.79483,-3.79483 v -59.35055 c 7e-5,-2.18285 1.61191,-3.79483 3.79483,-3.79483 z m 110.77268,5.33841 -51.87388,0.10126 c -2.34917,0 -3.76482,0.52308 -3.82492,2.57129 l -0.051,31.77409 h 58.95147 l -0.0219,-31.9058 c 0,-1.38549 -0.31035,-2.54121 -3.1812,-2.54121 z m -61.15013,11.94917 -15.3675,0.007 c -0.66222,0 -1.28488,0.3628 -1.536,0.85462 l -10.26259,13.72237 -0.0903,17.72047 c 0.62215,2.99164 2.67299,2.52867 5.1125,2.72938 -0.22074,-2.4194 1.05161,-5.1702 2.5675,-6.92709 3.29289,-3.25267 6.44517,-3.75469 9.8485,-3.25267 4.75858,0.55222 8.79695,6.77898 8.54584,10.65409 l 36.22021,-0.0291 c 0.28121,-4.83887 2.79968,-8.34375 7.48804,-10.1308 l -40.72659,-0.0291 -0.0219,-23.50304 c 0.11074,-0.78301 -0.72268,-1.86471 -1.77692,-1.81459 z m -14.82534,3.18113 h 12.1863 v 10.10071 l -18.05929,-0.0291 c -0.75292,-0.0583 -0.91604,-0.54202 -0.5646,-1.05409 z m 63.93968,22.02729 c 4.82889,1.37536 7.33862,6.1515 7.13791,10.15717 l 8.22209,-4.89788 0.0364,-5.18025 z m -60.83009,1.58496 c -4.72842,0 -8.57221,3.84379 -8.57221,8.57221 0,4.71844 3.84379,8.56471 8.57221,8.56471 4.71844,0 8.56471,-3.84627 8.56471,-8.56471 0,-4.72842 -3.84627,-8.57221 -8.56471,-8.57221 z m 57.63759,0.10927 c -4.71844,0 -8.56463,3.84751 -8.56463,8.576 0,4.71845 3.84619,8.56092 8.56463,8.56092 4.7285,0 8.57229,-3.84247 8.57229,-8.56092 0,-4.72849 -3.84379,-8.576 -8.57229,-8.576 z m -57.6263,4.33692 c 2.40942,0 4.36708,1.89997 4.36708,4.23908 0,2.32914 -1.95766,4.224 -4.36708,4.224 -2.40941,0 -4.367,-1.89486 -4.367,-4.224 0,-2.33911 1.95759,-4.23908 4.367,-4.23908 z m 57.64517,0.11292 c 2.40942,0 4.36708,1.89618 4.36701,4.2353 0,2.32906 -1.95759,4.22771 -4.36701,4.22771 -2.40941,0 -4.36708,-1.89865 -4.36708,-4.22771 0,-2.33912 1.95767,-4.2353 4.36708,-4.2353 z" />
  </g>
</svg>
