<?xml version="1.0" encoding="UTF-8" standalone="no"?>
<svg
   xmlns:dc="http://purl.org/dc/elements/1.1/"
   xmlns:cc="http://creativecommons.org/ns#"
   xmlns:rdf="http://www.w3.org/1999/02/22-rdf-syntax-ns#"
   xmlns:svg="http://www.w3.org/2000/svg"
   xmlns="http://www.w3.org/2000/svg"
   xmlns:sodipodi="http://sodipodi.sourceforge.net/DTD/sodipodi-0.dtd"
   xmlns:inkscape="http://www.inkscape.org/namespaces/inkscape"
   sodipodi:docname="Latvia_road_sign 847.svg"
   inkscape:version="1.0 (4035a4fb49, 2020-05-01)"
   id="svg1473"
   version="1.1"
   viewBox="0 0 158.75002 158.74022"
   height="158.74022mm"
   width="158.75002mm">
  <defs
     id="defs1467" />
  <sodipodi:namedview
     inkscape:window-maximized="0"
     inkscape:window-y="0"
     inkscape:window-x="160"
     inkscape:window-height="1030"
     inkscape:window-width="1424"
     showgrid="false"
     inkscape:document-rotation="0"
     inkscape:current-layer="layer1"
     inkscape:document-units="mm"
     inkscape:cy="299.98163"
     inkscape:cx="300.00003"
     inkscape:zoom="0.35"
     inkscape:pageshadow="2"
     inkscape:pageopacity="0.0"
     borderopacity="1.0"
     bordercolor="#666666"
     pagecolor="#ffffff"
     id="base" />
  <metadata
     id="metadata1470">
    <rdf:RDF>
      <cc:Work
         rdf:about="">
        <dc:format>image/svg+xml</dc:format>
        <dc:type
           rdf:resource="http://purl.org/dc/dcmitype/StillImage" />
        <dc:title></dc:title>
      </cc:Work>
    </rdf:RDF>
  </metadata>
  <g
     transform="translate(-26.458326,-68.796527)"
     id="layer1"
     inkscape:groupmode="layer"
     inkscape:label="Layer 1">
    <g
       id="g8631"
       transform="matrix(2.5024632,0,0,-2.5024632,-447.37232,1487.1995)"
       style="opacity:1;stroke-width:0.140972">
      <path
         style="color:#000000;font-style:normal;font-variant:normal;font-weight:normal;font-stretch:normal;font-size:medium;line-height:normal;font-family:sans-serif;font-variant-ligatures:normal;font-variant-position:normal;font-variant-caps:normal;font-variant-numeric:normal;font-variant-alternates:normal;font-variant-east-asian:normal;font-feature-settings:normal;font-variation-settings:normal;text-indent:0;text-align:start;text-decoration:none;text-decoration-line:none;text-decoration-style:solid;text-decoration-color:#000000;letter-spacing:normal;word-spacing:normal;text-transform:none;writing-mode:lr-tb;direction:ltr;text-orientation:mixed;dominant-baseline:auto;baseline-shift:baseline;text-anchor:start;white-space:normal;shape-padding:0;shape-margin:0;inline-size:0;clip-rule:nonzero;display:inline;overflow:visible;visibility:visible;isolation:auto;mix-blend-mode:normal;color-interpolation:sRGB;color-interpolation-filters:linearRGB;solid-color:#000000;solid-opacity:1;vector-effect:none;fill:#ffffff;fill-opacity:1;fill-rule:nonzero;stroke:none;stroke-width:0.0422917;stroke-linecap:round;stroke-linejoin:round;stroke-miterlimit:22.926;stroke-dasharray:none;stroke-dashoffset:0;stroke-opacity:1;color-rendering:auto;image-rendering:auto;shape-rendering:auto;text-rendering:auto;enable-background:accumulate;stop-color:#000000;stop-opacity:1"
         d="m 194.07031,566.65234 h 53.98828 c 2.51563,0 4.57422,-2.05859 4.57422,-4.57422 v -53.98828 c 0,-2.51562 -2.05859,-4.57031 -4.57422,-4.57031 h -53.98828 c -2.51562,0 -4.57422,2.05469 -4.57422,4.57031 v 53.98828 c 0,2.51563 2.0586,4.57422 4.57422,4.57422 z m 0,0"
         id="path8633" />
      <path
         style="color:#000000;font-style:normal;font-variant:normal;font-weight:normal;font-stretch:normal;font-size:medium;line-height:normal;font-family:sans-serif;font-variant-ligatures:normal;font-variant-position:normal;font-variant-caps:normal;font-variant-numeric:normal;font-variant-alternates:normal;font-variant-east-asian:normal;font-feature-settings:normal;font-variation-settings:normal;text-indent:0;text-align:start;text-decoration:none;text-decoration-line:none;text-decoration-style:solid;text-decoration-color:#000000;letter-spacing:normal;word-spacing:normal;text-transform:none;writing-mode:lr-tb;direction:ltr;text-orientation:mixed;dominant-baseline:auto;baseline-shift:baseline;text-anchor:start;white-space:normal;shape-padding:0;shape-margin:0;inline-size:0;clip-rule:nonzero;display:inline;overflow:visible;visibility:visible;isolation:auto;mix-blend-mode:normal;color-interpolation:sRGB;color-interpolation-filters:linearRGB;solid-color:#000000;solid-opacity:1;vector-effect:none;fill:#000000;fill-opacity:1;fill-rule:nonzero;stroke:none;stroke-width:0.0422917;stroke-linecap:round;stroke-linejoin:round;stroke-miterlimit:22.926;stroke-dasharray:none;stroke-dashoffset:0;stroke-opacity:1;color-rendering:auto;image-rendering:auto;shape-rendering:auto;text-rendering:auto;enable-background:accumulate;stop-color:#000000;stop-opacity:1"
         d="m 194.07031,503.36914 c -2.59729,0 -4.72461,2.12325 -4.72461,4.7207 v 53.98828 c 0,2.59747 2.12716,4.72461 4.72461,4.72461 h 53.98828 c 2.59747,0 4.72461,-2.12714 4.72461,-4.72461 v -53.98828 c 0,-2.59745 -2.1273,-4.7207 -4.72461,-4.7207 z m 0,0.30078 h 53.98828 c 2.43396,0 4.42383,1.98614 4.42383,4.41992 v 53.98828 c 0,2.4338 -1.99003,4.42383 -4.42383,4.42383 h -53.98828 c -2.43379,0 -4.42383,-1.99003 -4.42383,-4.42383 v -53.98828 c 0,-2.43378 1.98989,-4.41992 4.42383,-4.41992 z"
         id="path8635" />
    </g>
    <path
       id="path6926"
       style="fill:#000000;fill-opacity:1;fill-rule:evenodd;stroke:none;stroke-width:0.352777"
       d="m 38.951107,74.122824 c -3.96432,0 -7.196013,3.231613 -7.195943,7.195944 l 0.0072,133.736542 c 7e-5,3.96447 3.231378,7.18457 7.191808,7.18457 H 172.76051 c 3.96056,0 7.18464,-3.224 7.18457,-7.18457 V 81.318768 c 0,-3.960431 -3.22017,-7.195944 -7.18457,-7.195944 z m 0,3.805453 H 172.76051 c 1.97294,0 3.38015,1.413151 3.38015,3.390491 V 215.05531 c 0,1.97762 -1.40253,3.37602 -3.38015,3.37602 H 38.954724 c -1.97727,0 -3.391007,-1.40301 -3.391007,-3.37602 V 81.318768 c -7e-5,-1.97266 1.41466,-3.390491 3.38739,-3.390491 z m 54.711905,5.731433 v 45.29697 l 12.282968,0.0295 -0.14676,-45.247882 z m 36.633938,47.08291 c -24.35068,0.8241 -41.774795,19.49438 -41.921988,42.04964 l -0.04909,39.95001 h 20.985278 l -0.41186,-38.68446 c 0.0196,-13.15642 9.76174,-22.23175 22.47666,-22.45755 l 38.82141,0.0589 -0.0486,-20.86746 z m -88.955808,5.3666 v 12.05766 l 5.29e-4,-5.3e-4 45.267523,0.0982 -0.09819,-12.15533 z" />
  </g>
</svg>
