<?xml version="1.0" encoding="UTF-8" standalone="no"?>
<svg
   xmlns:dc="http://purl.org/dc/elements/1.1/"
   xmlns:cc="http://creativecommons.org/ns#"
   xmlns:rdf="http://www.w3.org/1999/02/22-rdf-syntax-ns#"
   xmlns:svg="http://www.w3.org/2000/svg"
   xmlns="http://www.w3.org/2000/svg"
   xmlns:sodipodi="http://sodipodi.sourceforge.net/DTD/sodipodi-0.dtd"
   xmlns:inkscape="http://www.inkscape.org/namespaces/inkscape"
   sodipodi:docname="Latvia_road_sign 855.svg"
   inkscape:version="1.0 (4035a4fb49, 2020-05-01)"
   id="svg1473"
   version="1.1"
   viewBox="0 0 158.75 79.766498"
   height="79.766495mm"
   width="158.75mm">
  <defs
     id="defs1467" />
  <sodipodi:namedview
     inkscape:window-maximized="1"
     inkscape:window-y="-9"
     inkscape:window-x="-9"
     inkscape:window-height="1001"
     inkscape:window-width="1920"
     showgrid="false"
     inkscape:document-rotation="0"
     inkscape:current-layer="layer1"
     inkscape:document-units="mm"
     inkscape:cy="113.54252"
     inkscape:cx="336.52775"
     inkscape:zoom="1.4"
     inkscape:pageshadow="2"
     inkscape:pageopacity="0.0"
     borderopacity="1.0"
     bordercolor="#666666"
     pagecolor="#ffffff"
     id="base" />
  <metadata
     id="metadata1470">
    <rdf:RDF>
      <cc:Work
         rdf:about="">
        <dc:format>image/svg+xml</dc:format>
        <dc:type
           rdf:resource="http://purl.org/dc/dcmitype/StillImage" />
        <dc:title />
      </cc:Work>
    </rdf:RDF>
  </metadata>
  <g
     transform="translate(7.5017332,-320.40194)"
     id="layer1"
     inkscape:groupmode="layer"
     inkscape:label="Layer 1">
    <g
       style="opacity:1;stroke-width:0.137274"
       transform="matrix(2.5698747,0,0,-2.5698747,-496.23467,670.00027)"
       id="g2108">
      <path
         id="path2110"
         d="m 190.32812,132.06641 c 0,2.125 1.69141,3.82031 3.82032,3.82031 h 53.83203 c 2.125,0 3.82031,-1.69531 3.82031,-3.82031 l -0.0156,-23.09766 c -0.004,-2.125 -1.67969,-3.82031 -3.80469,-3.82031 h -53.83203 c -2.12891,0 -3.82032,1.69531 -3.82032,3.82031 z m 0,0"
         style="color:#000000;font-style:normal;font-variant:normal;font-weight:normal;font-stretch:normal;font-size:medium;line-height:normal;font-family:sans-serif;font-variant-ligatures:normal;font-variant-position:normal;font-variant-caps:normal;font-variant-numeric:normal;font-variant-alternates:normal;font-variant-east-asian:normal;font-feature-settings:normal;font-variation-settings:normal;text-indent:0;text-align:start;text-decoration:none;text-decoration-line:none;text-decoration-style:solid;text-decoration-color:#000000;letter-spacing:normal;word-spacing:normal;text-transform:none;writing-mode:lr-tb;direction:ltr;text-orientation:mixed;dominant-baseline:auto;baseline-shift:baseline;text-anchor:start;white-space:normal;shape-padding:0;shape-margin:0;inline-size:0;clip-rule:nonzero;display:inline;overflow:visible;visibility:visible;isolation:auto;mix-blend-mode:normal;color-interpolation:sRGB;color-interpolation-filters:linearRGB;solid-color:#000000;solid-opacity:1;vector-effect:none;fill:#ffffff;fill-opacity:1;fill-rule:nonzero;stroke:none;stroke-width:0.0411823;stroke-linecap:round;stroke-linejoin:round;stroke-miterlimit:22.926;stroke-dasharray:none;stroke-dashoffset:0;stroke-opacity:1;color-rendering:auto;image-rendering:auto;shape-rendering:auto;text-rendering:auto;enable-background:accumulate;stop-color:#000000;stop-opacity:1" />
      <path
         id="path2112"
         d="m 194.14844,104.99805 c -2.20855,0 -3.97071,1.7661 -3.97071,3.9707 v 23.09766 c 0,2.20459 1.76216,3.9707 3.97071,3.9707 h 53.83203 c 2.20478,0 3.9707,-1.76592 3.9707,-3.9707 l -0.0156,-23.09766 c -0.004,-2.20371 -1.7503,-3.9707 -3.95508,-3.9707 z m 0,0.30078 h 53.83203 c 2.04522,0 3.65044,1.62363 3.6543,3.66992 l 0.0156,23.09766 c 0,2.04522 -1.6247,3.66992 -3.66992,3.66992 h -53.83203 c -2.04928,0 -3.66992,-1.62452 -3.66992,-3.66992 v -23.09766 c 0,-2.0454 1.62064,-3.66992 3.66992,-3.66992 z"
         style="color:#000000;font-style:normal;font-variant:normal;font-weight:normal;font-stretch:normal;font-size:medium;line-height:normal;font-family:sans-serif;font-variant-ligatures:normal;font-variant-position:normal;font-variant-caps:normal;font-variant-numeric:normal;font-variant-alternates:normal;font-variant-east-asian:normal;font-feature-settings:normal;font-variation-settings:normal;text-indent:0;text-align:start;text-decoration:none;text-decoration-line:none;text-decoration-style:solid;text-decoration-color:#000000;letter-spacing:normal;word-spacing:normal;text-transform:none;writing-mode:lr-tb;direction:ltr;text-orientation:mixed;dominant-baseline:auto;baseline-shift:baseline;text-anchor:start;white-space:normal;shape-padding:0;shape-margin:0;inline-size:0;clip-rule:nonzero;display:inline;overflow:visible;visibility:visible;isolation:auto;mix-blend-mode:normal;color-interpolation:sRGB;color-interpolation-filters:linearRGB;solid-color:#000000;solid-opacity:1;vector-effect:none;fill:#000000;fill-opacity:1;fill-rule:nonzero;stroke:none;stroke-width:0.0411823;stroke-linecap:round;stroke-linejoin:round;stroke-miterlimit:22.926;stroke-dasharray:none;stroke-dashoffset:0;stroke-opacity:1;color-rendering:auto;image-rendering:auto;shape-rendering:auto;text-rendering:auto;enable-background:accumulate;stop-color:#000000;stop-opacity:1" />
    </g>
    <path
       transform="matrix(0.26458333,0,0,0.26458333,-7.5017332,320.40194)"
       d="m 38.564453,11.589844 c -14.880578,0 -27.005859,12.082465 -27.005859,26.976562 V 262.91211 c 0,14.89406 12.125281,26.97656 27.005859,26.97656 H 561.43945 c 14.88031,0 26.97657,-12.09626 26.97657,-26.97656 V 38.566406 c 0,-14.880302 -12.09626,-26.976562 -26.97657,-26.976562 z m 0,12.677734 H 561.43945 c 8.26364,0 14.29883,6.035156 14.29883,14.298828 V 262.91211 c 0,8.26363 -6.03519,14.29883 -14.29883,14.29883 H 38.564453 c -8.263929,0 -14.341797,-6.04895 -14.341797,-14.29883 V 38.566406 c 0,-8.249612 6.077868,-14.298828 14.341797,-14.298828 z m 458.023437,35.513672 -24.54297,49.81055 16.23438,-4.36719 0.084,133.17383 16.61719,0.0547 -0.082,-133.35742 16.04883,4.50977 z M 94.90625,62.853516 94.87891,196.02734 78.630863,191.6582 l 24.556637,49.8125 24.35938,-49.8125 -16.04883,4.51172 0.0273,-133.316404 z m 149.39258,10.667968 c -0.46382,-0.01375 -0.92503,0.0073 -1.37891,0.0625 v -0.002 c -2.72573,0.297449 -5.22164,1.634387 -6.64453,3.228516 -2.12552,2.389833 -3.8599,5.042921 -2.75977,10.658203 0.87279,2.692687 3.06844,5.50975 6.44532,7.027344 l 13.58594,7.285153 -17.49024,36.32813 c -6.30518,-3.27859 -13.45632,-5.14454 -21.03711,-5.14454 -25.23759,0 -45.79099,20.55146 -45.79101,45.78907 0,25.2376 20.5534,45.78906 45.79101,45.78906 25.23762,0 45.78906,-20.55146 45.78906,-45.78906 -10e-6,-14.96189 -7.22294,-28.27648 -18.36328,-36.63868 l 4.04492,-7.55273 53.11329,39.1543 c -0.60572,3.49088 -0.61133,6.79159 1.32421,9.78906 3.14919,4.66677 5.84709,6.5218 11.65235,7.12891 l 27.55078,-2.83399 c 4.21525,20.92262 22.74764,36.74219 44.88867,36.74219 25.23762,0 45.78906,-20.55146 45.78906,-45.78906 -3e-5,-25.23761 -20.55144,-45.78907 -45.78906,-45.78907 -7.01971,0 -13.67546,1.59313 -19.62891,4.43164 l -15.77343,-26.85156 3.55859,-7.39844 h 3.45703 c 3.6423,-2.46693 7.09006,-3.07824 9.0625,-6.644524 1.97409,-3.33891 1.36522,-5.620242 -1.82031,-5.847656 h -32.4707 c -2.42838,0 -3.91768,0.800946 -5.20703,2.205078 l -2.57618,5.691406 21.35743,4.511716 -2.84571,5.61914 h -83.5039 l 5.19336,-10.470699 -21.54102,-11.539063 c -1.02422,-0.379956 -2.38984,-1.896951 -1.70703,-4.097656 0.56993,-1.594129 2.15275,-2.265744 3.55664,-1.962891 l 20.18945,3.712891 c 2.35129,0.220346 3.44689,-0.678378 4.16797,-2.34961 0.22027,-2.238387 -0.19155,-3.652184 -2.61719,-4.638671 l -20.17578,-3.669922 c -0.4653,-0.08258 -0.93266,-0.130784 -1.39648,-0.144532 z m 94.0039,43.013676 -23.40429,47.00976 c -3.87027,-0.72136 -7.78713,0.38598 -10.55664,2.66016 l -54.59375,-40.03711 5.16601,-9.5625 z m 6.90039,2.57422 13.15235,22.46093 c -8.45478,6.08138 -14.76129,14.96368 -17.54492,25.2793 l -18.25782,-2.32422 z m -130.18359,22.55078 c 6.24032,0 12.10864,1.53662 17.26172,4.24023 -3.8e-4,4.9e-4 -0.0176,0.0234 -0.0176,0.0234 l -0.26172,0.41211 -6.45507,12.88281 c -2.08698,3.87001 -4.97849,11.76235 -9.07618,12.97656 -1.59414,0.56992 -2.57449,-0.42006 -4.73828,0.56836 -3.11092,1.59413 -4.32602,4.43442 -3.5293,7.24219 0.72136,2.27698 2.16338,4.02163 5.4629,4.55273 3.86999,0.0265 6.93998,-3.56079 6.10546,-7.46875 5.23561,-1.78412 10.25324,-10.70505 14.19922,-17.57226 l 4.83008,-9.26563 c 8.14676,6.79545 13.3203,17.02491 13.32031,28.50196 0,20.53961 -16.56194,37.09375 -37.10156,37.09375 -20.53961,0 -37.09375,-16.55414 -37.09375,-37.09375 2e-5,-20.53962 16.55415,-37.09375 37.09375,-37.09375 z m 170,0 c 20.5396,0 37.10156,16.55413 37.10156,37.09375 0,20.53961 -16.56194,37.09375 -37.10156,37.09375 -17.66416,0 -32.37025,-12.2476 -36.14453,-28.74024 l 37.00586,-2.99414 c 3.37715,-0.19275 5.57672,-2.57178 5.80469,-5.49219 0.19271,-2.88347 -1.66584,-6.07589 -5.64844,-6.53125 l -16.27344,-27.16406 c 4.65074,-2.09266 9.81076,-3.26562 15.25586,-3.26562 z m -22.23047,7.36328 12.84766,21.87695 -26.06836,-3.12109 c 2.33287,-7.58416 7.0208,-14.11964 13.2207,-18.75586 z"
       style="fill:#000000;fill-opacity:1;fill-rule:evenodd;stroke:none;stroke-width:1.33333"
       id="path13906" />
  </g>
</svg>
