<?xml version="1.0" encoding="UTF-8" standalone="no"?>
<svg
   xmlns:dc="http://purl.org/dc/elements/1.1/"
   xmlns:cc="http://creativecommons.org/ns#"
   xmlns:rdf="http://www.w3.org/1999/02/22-rdf-syntax-ns#"
   xmlns:svg="http://www.w3.org/2000/svg"
   xmlns="http://www.w3.org/2000/svg"
   xmlns:sodipodi="http://sodipodi.sourceforge.net/DTD/sodipodi-0.dtd"
   xmlns:inkscape="http://www.inkscape.org/namespaces/inkscape"
   width="158.75mm"
   height="79.765762mm"
   viewBox="0 0 158.74999 79.765757"
   version="1.1"
   id="svg6774"
   inkscape:version="1.0 (4035a4fb49, 2020-05-01)"
   sodipodi:docname="Latvia_road_sign_807.svg">
  <defs
     id="defs6768" />
  <sodipodi:namedview
     id="base"
     pagecolor="#ffffff"
     bordercolor="#666666"
     borderopacity="1.0"
     inkscape:pageopacity="0.0"
     inkscape:pageshadow="2"
     inkscape:zoom="0.40983509"
     inkscape:cx="-503.35419"
     inkscape:cy="425.58102"
     inkscape:document-units="mm"
     inkscape:current-layer="layer1"
     inkscape:document-rotation="0"
     showgrid="false"
     fit-margin-top="0"
     fit-margin-left="0"
     fit-margin-right="0"
     fit-margin-bottom="0"
     inkscape:window-width="1920"
     inkscape:window-height="1001"
     inkscape:window-x="-9"
     inkscape:window-y="-9"
     inkscape:window-maximized="1" />
  <metadata
     id="metadata6771">
    <rdf:RDF>
      <cc:Work
         rdf:about="">
        <dc:format>image/svg+xml</dc:format>
        <dc:type
           rdf:resource="http://purl.org/dc/dcmitype/StillImage" />
        <dc:title></dc:title>
      </cc:Work>
    </rdf:RDF>
  </metadata>
  <g
     inkscape:label="Layer 1"
     inkscape:groupmode="layer"
     id="layer1"
     transform="translate(195.41605,69.201171)">
    <g
       id="g2362"
       style="opacity:1"
       inkscape:groupmode="layer" />
    <g
       transform="matrix(7.2850642,0,0,7.2850642,1228.2022,434.93381)"
       style="opacity:1;stroke-width:0.137267"
       id="g2438">
      <path
         id="path2440"
         d="m -195.36333,-67.800446 c 0,-0.75103 0.59669,-1.34772 1.34772,-1.34772 h 18.99074 c 0.74966,0 1.34772,0.59669 1.34772,1.34772 l -0.006,8.14834 c -10e-4,0.74965 -0.59256,1.34634 -1.34221,1.34634 h -18.99074 c -0.75103,0 -1.34773,-0.59669 -1.34773,-1.34634 z m 0,0"
         style="color:#000000;font-style:normal;font-variant:normal;font-weight:normal;font-stretch:normal;font-size:medium;line-height:normal;font-family:sans-serif;font-variant-ligatures:normal;font-variant-position:normal;font-variant-caps:normal;font-variant-numeric:normal;font-variant-alternates:normal;font-variant-east-asian:normal;font-feature-settings:normal;font-variation-settings:normal;text-indent:0;text-align:start;text-decoration:none;text-decoration-line:none;text-decoration-style:solid;text-decoration-color:#000000;letter-spacing:normal;word-spacing:normal;text-transform:none;writing-mode:lr-tb;direction:ltr;text-orientation:mixed;dominant-baseline:auto;baseline-shift:baseline;text-anchor:start;white-space:normal;shape-padding:0;shape-margin:0;inline-size:0;clip-rule:nonzero;display:inline;overflow:visible;visibility:visible;isolation:auto;mix-blend-mode:normal;color-interpolation:sRGB;color-interpolation-filters:linearRGB;solid-color:#000000;solid-opacity:1;vector-effect:none;fill:#ffffff;fill-opacity:1;fill-rule:nonzero;stroke:none;stroke-width:0.0145274;stroke-linecap:round;stroke-linejoin:round;stroke-miterlimit:22.926;stroke-dasharray:none;stroke-dashoffset:0;stroke-opacity:1;color-rendering:auto;image-rendering:auto;shape-rendering:auto;text-rendering:auto;enable-background:accumulate;stop-color:#000000;stop-opacity:1" />
      <path
         id="path2442"
         d="m -194.01562,-69.201172 c -0.77906,0 -1.4004,0.621333 -1.4004,1.400391 v 8.148437 c 0,0.77773 0.62134,1.400391 1.4004,1.400391 h 18.99023 c 0.77773,0 1.39349,-0.62294 1.39453,-1.400391 l 0.006,-8.148437 c 0,-0.779123 -0.62265,-1.400391 -1.40039,-1.400391 z m 0,0.105469 h 18.99023 c 0.72158,0 1.29492,0.571984 1.29492,1.294922 l -0.006,8.148437 c -9.6e-4,0.72185 -0.56749,1.292969 -1.28906,1.292969 h -18.99023 c -0.72301,0 -1.29493,-0.571399 -1.29493,-1.292969 v -8.148437 c 0,-0.723002 0.57192,-1.294922 1.29493,-1.294922 z"
         style="color:#000000;font-style:normal;font-variant:normal;font-weight:normal;font-stretch:normal;font-size:medium;line-height:normal;font-family:sans-serif;font-variant-ligatures:normal;font-variant-position:normal;font-variant-caps:normal;font-variant-numeric:normal;font-variant-alternates:normal;font-variant-east-asian:normal;font-feature-settings:normal;font-variation-settings:normal;text-indent:0;text-align:start;text-decoration:none;text-decoration-line:none;text-decoration-style:solid;text-decoration-color:#000000;letter-spacing:normal;word-spacing:normal;text-transform:none;writing-mode:lr-tb;direction:ltr;text-orientation:mixed;dominant-baseline:auto;baseline-shift:baseline;text-anchor:start;white-space:normal;shape-padding:0;shape-margin:0;inline-size:0;clip-rule:nonzero;display:inline;overflow:visible;visibility:visible;isolation:auto;mix-blend-mode:normal;color-interpolation:sRGB;color-interpolation-filters:linearRGB;solid-color:#000000;solid-opacity:1;vector-effect:none;fill:#000000;fill-opacity:1;fill-rule:nonzero;stroke:none;stroke-width:0.0145274;stroke-linecap:round;stroke-linejoin:round;stroke-miterlimit:22.926;stroke-dasharray:none;stroke-dashoffset:0;stroke-opacity:1;color-rendering:auto;image-rendering:auto;shape-rendering:auto;text-rendering:auto;enable-background:accumulate;stop-color:#000000;stop-opacity:1" />
    </g>
    <path
       id="path8004"
       style="fill:#000000;fill-opacity:1;fill-rule:evenodd;stroke:none;stroke-width:0.352777"
       d="m -185.21259,-66.14446 c -3.941,0 -7.14913,3.208124 -7.14913,7.149052 V 0.36577229 c 0,3.94092831 3.21177,7.13783301 7.14913,7.13783301 h 138.347521 c 3.937286,0 7.13776,-3.2005472 7.13776,-7.13783301 V -58.995408 c 0,-3.937286 -3.196832,-7.149052 -7.13776,-7.149052 z m 0,3.354262 h 138.347521 c 2.182897,0 3.783498,1.608251 3.783498,3.79479 V 0.36577229 c 0,2.18653921 -1.596959,3.78349811 -3.783498,3.78349811 H -185.21259 c -2.18654,0 -3.79479,-1.6006015 -3.79479,-3.78349811 V -58.995408 c 0,-2.182824 1.61189,-3.79479 3.79479,-3.79479 z m 57.99836,6.78021 v 12.208747 h 3.1736 c 0.542,-1.124377 1.67651,-1.829644 2.92138,-1.829644 1.80706,0 3.26021,1.458179 3.26021,3.245205 v 2.861136 c 0,1.556017 -1.11432,2.901277 -2.65031,3.192388 -1.75686,0.340941 -3.46098,-0.825689 -3.80236,-2.582555 h -3.2828 c 0.31107,3.33299 3.12216,5.895511 6.47526,5.895511 3.60407,0 6.50534,-2.91133 6.50534,-6.505344 v -3.463538 c 0,-1.325153 -0.44147,-2.621457 -1.2649,-3.655499 -2.01789,-2.559972 -5.73233,-2.99285 -8.28232,-0.975033 v -5.127447 h 9.14443 v -3.263927 z m -18.2925,0.210538 0.0146,37.477211 -0.0219,6.753838 0.007,9.9613051 h 4.31807 l 0.0219,-9.9801741 39.53269,-0.01457 -1.62639,6.3961409 19.636527,-9.7994309 -19.636527,-9.867183 1.62639,6.516636 -39.45365,0.02914 0.007,-37.428256 z m 43.55339,10.631458 c -1.32137,-0.115104 -2.6742,0.406507 -3.56516,1.517115 v -1.377824 h -2.45077 v 12.227616 h 2.45077 v -7.487953 c 0,-1.355241 1.09428,-2.450769 2.43947,-2.450769 1.35532,0 2.44705,1.095528 2.44705,2.450769 v 7.487953 h 2.450846 v -7.487953 c 0,-1.355241 1.095455,-2.450769 2.450769,-2.450769 1.345259,0 2.439476,1.095528 2.439476,2.450769 v 7.487953 h 2.447053 v -7.80041 c 0,-1.375347 -0.622144,-2.679155 -1.686565,-3.542508 -1.957642,-1.606284 -4.846389,-1.313934 -6.452673,0.644 -0.210538,-0.291403 -0.453131,-0.543466 -0.734043,-0.764204 -0.662943,-0.538366 -1.443393,-0.834577 -2.236223,-0.903493 z" />
  </g>
</svg>
