<?xml version="1.0" encoding="UTF-8" standalone="no"?>
<svg
   xmlns:dc="http://purl.org/dc/elements/1.1/"
   xmlns:cc="http://creativecommons.org/ns#"
   xmlns:rdf="http://www.w3.org/1999/02/22-rdf-syntax-ns#"
   xmlns:svg="http://www.w3.org/2000/svg"
   xmlns="http://www.w3.org/2000/svg"
   xmlns:sodipodi="http://sodipodi.sourceforge.net/DTD/sodipodi-0.dtd"
   xmlns:inkscape="http://www.inkscape.org/namespaces/inkscape"
   width="79.766502mm"
   height="158.75mm"
   viewBox="0 0 79.766497 158.74999"
   version="1.1"
   id="svg6774"
   inkscape:version="1.0 (4035a4fb49, 2020-05-01)"
   sodipodi:docname="Latvia_road_sign_809.svg">
  <defs
     id="defs6768" />
  <sodipodi:namedview
     id="base"
     pagecolor="#ffffff"
     bordercolor="#666666"
     borderopacity="1.0"
     inkscape:pageopacity="0.0"
     inkscape:pageshadow="2"
     inkscape:zoom="0.40983509"
     inkscape:cx="-75.478138"
     inkscape:cy="-90.827882"
     inkscape:document-units="mm"
     inkscape:current-layer="layer1"
     inkscape:document-rotation="0"
     showgrid="false"
     fit-margin-top="0"
     fit-margin-left="0"
     fit-margin-right="0"
     fit-margin-bottom="0"
     inkscape:window-width="1920"
     inkscape:window-height="1001"
     inkscape:window-x="-9"
     inkscape:window-y="-9"
     inkscape:window-maximized="1" />
  <metadata
     id="metadata6771">
    <rdf:RDF>
      <cc:Work
         rdf:about="">
        <dc:format>image/svg+xml</dc:format>
        <dc:type
           rdf:resource="http://purl.org/dc/dcmitype/StillImage" />
        <dc:title></dc:title>
      </cc:Work>
    </rdf:RDF>
  </metadata>
  <g
     inkscape:label="Layer 1"
     inkscape:groupmode="layer"
     id="layer1"
     transform="translate(308.62492,-67.432019)">
    <g
       id="g2362"
       style="opacity:1"
       inkscape:groupmode="layer" />
    <g
       id="g2474"
       transform="matrix(2.569875,0,0,-2.569875,-836.84967,421.56781)"
       style="opacity:1;stroke-width:0.137274">
      <path
         style="color:#000000;font-style:normal;font-variant:normal;font-weight:normal;font-stretch:normal;font-size:medium;line-height:normal;font-family:sans-serif;font-variant-ligatures:normal;font-variant-position:normal;font-variant-caps:normal;font-variant-numeric:normal;font-variant-alternates:normal;font-variant-east-asian:normal;font-feature-settings:normal;font-variation-settings:normal;text-indent:0;text-align:start;text-decoration:none;text-decoration-line:none;text-decoration-style:solid;text-decoration-color:#000000;letter-spacing:normal;word-spacing:normal;text-transform:none;writing-mode:lr-tb;direction:ltr;text-orientation:mixed;dominant-baseline:auto;baseline-shift:baseline;text-anchor:start;white-space:normal;shape-padding:0;shape-margin:0;inline-size:0;clip-rule:nonzero;display:inline;overflow:visible;visibility:visible;isolation:auto;mix-blend-mode:normal;color-interpolation:sRGB;color-interpolation-filters:linearRGB;solid-color:#000000;solid-opacity:1;vector-effect:none;fill:#ffffff;fill-opacity:1;fill-rule:nonzero;stroke:none;stroke-width:0.0411823;stroke-linecap:round;stroke-linejoin:round;stroke-miterlimit:22.926;stroke-dasharray:none;stroke-dashoffset:0;stroke-opacity:1;color-rendering:auto;image-rendering:auto;shape-rendering:auto;text-rendering:auto;enable-background:accumulate;stop-color:#000000;stop-opacity:1"
         d="m 209.51562,76.179688 c -2.125,0 -3.82031,1.691406 -3.82031,3.820312 v 53.83203 c 0,2.12891 1.69531,3.82031 3.82031,3.82031 l 23.09766,-0.0156 c 2.125,-0.004 3.82031,-1.67578 3.82031,-3.80469 V 80 c 0,-2.128906 -1.69531,-3.820312 -3.82031,-3.820312 z m 0,0"
         id="path2476" />
      <path
         style="color:#000000;font-style:normal;font-variant:normal;font-weight:normal;font-stretch:normal;font-size:medium;line-height:normal;font-family:sans-serif;font-variant-ligatures:normal;font-variant-position:normal;font-variant-caps:normal;font-variant-numeric:normal;font-variant-alternates:normal;font-variant-east-asian:normal;font-feature-settings:normal;font-variation-settings:normal;text-indent:0;text-align:start;text-decoration:none;text-decoration-line:none;text-decoration-style:solid;text-decoration-color:#000000;letter-spacing:normal;word-spacing:normal;text-transform:none;writing-mode:lr-tb;direction:ltr;text-orientation:mixed;dominant-baseline:auto;baseline-shift:baseline;text-anchor:start;white-space:normal;shape-padding:0;shape-margin:0;inline-size:0;clip-rule:nonzero;display:inline;overflow:visible;visibility:visible;isolation:auto;mix-blend-mode:normal;color-interpolation:sRGB;color-interpolation-filters:linearRGB;solid-color:#000000;solid-opacity:1;vector-effect:none;fill:#000000;fill-opacity:1;fill-rule:nonzero;stroke:none;stroke-width:0.0411823;stroke-linecap:round;stroke-linejoin:round;stroke-miterlimit:22.926;stroke-dasharray:none;stroke-dashoffset:0;stroke-opacity:1;color-rendering:auto;image-rendering:auto;shape-rendering:auto;text-rendering:auto;enable-background:accumulate;stop-color:#000000;stop-opacity:1"
         d="m 209.51562,76.029297 c -2.20459,0 -3.9707,1.762164 -3.9707,3.970703 v 53.83203 c 0,2.20854 1.76611,3.9707 3.9707,3.9707 l 23.09766,-0.0156 c 2.20352,-0.004 3.9707,-1.74654 3.9707,-3.95508 V 80 c 0,-2.208539 -1.7661,-3.970703 -3.9707,-3.970703 z m 0,0.300781 h 23.09766 c 2.04541,0 3.66992,1.620649 3.66992,3.669922 v 53.83203 c 0,2.04928 -1.62344,3.65045 -3.66992,3.6543 l -23.09766,0.0156 c -2.0454,0 -3.66992,-1.62064 -3.66992,-3.66992 V 80 c 0,-2.049273 1.62452,-3.669922 3.66992,-3.669922 z"
         id="path2478" />
    </g>
    <path
       id="path7378"
       style="fill:#000000;fill-opacity:1;fill-rule:evenodd;stroke:none;stroke-width:0.352777"
       d="m -298.4219,70.488885 c -3.94073,0 -7.13747,3.211599 -7.13747,7.14868 V 215.97796 c 0,3.93708 3.19674,7.14868 7.13747,7.14868 h 59.35809 c 3.94072,0 7.13739,-3.2116 7.13739,-7.14868 V 77.637565 c 0,-3.937081 -3.19667,-7.14868 -7.13739,-7.14868 z m 0,3.354087 h 59.35809 c 2.18278,0 3.78701,1.608167 3.78701,3.794593 V 215.97796 c 0,2.18643 -1.60423,3.79467 -3.78701,3.79467 h -59.35809 c -2.18279,0 -3.7833,-1.60824 -3.7833,-3.79467 V 77.637565 c 0,-2.186426 1.60051,-3.794593 3.7833,-3.794593 z m 29.85591,1.513321 -23.18904,39.775327 16.27377,-4.67917 v 72.71063 l -16.15336,-4.67925 22.80893,39.64355 23.15897,-39.30095 -16.32273,4.28398 V 110.5014 l 16.45072,4.54747 z" />
  </g>
</svg>
