<?xml version="1.0" encoding="UTF-8" standalone="no"?>
<svg
   xmlns:dc="http://purl.org/dc/elements/1.1/"
   xmlns:cc="http://creativecommons.org/ns#"
   xmlns:rdf="http://www.w3.org/1999/02/22-rdf-syntax-ns#"
   xmlns:svg="http://www.w3.org/2000/svg"
   xmlns="http://www.w3.org/2000/svg"
   xmlns:sodipodi="http://sodipodi.sourceforge.net/DTD/sodipodi-0.dtd"
   xmlns:inkscape="http://www.inkscape.org/namespaces/inkscape"
   width="158.75mm"
   height="109.20998mm"
   viewBox="0 0 158.75 109.20998"
   version="1.1"
   id="svg1473"
   inkscape:version="1.0 (4035a4fb49, 2020-05-01)"
   sodipodi:docname="Latvia_road_sign 849.svg">
  <defs
     id="defs1467" />
  <sodipodi:namedview
     id="base"
     pagecolor="#ffffff"
     bordercolor="#666666"
     borderopacity="1.0"
     inkscape:pageopacity="0.0"
     inkscape:pageshadow="2"
     inkscape:zoom="0.35"
     inkscape:cx="-175.88351"
     inkscape:cy="453.45765"
     inkscape:document-units="mm"
     inkscape:current-layer="layer1"
     inkscape:document-rotation="0"
     showgrid="false"
     inkscape:window-width="1424"
     inkscape:window-height="1030"
     inkscape:window-x="160"
     inkscape:window-y="0"
     inkscape:window-maximized="0" />
  <metadata
     id="metadata1470">
    <rdf:RDF>
      <cc:Work
         rdf:about="">
        <dc:format>image/svg+xml</dc:format>
        <dc:type
           rdf:resource="http://purl.org/dc/dcmitype/StillImage" />
        <dc:title></dc:title>
      </cc:Work>
    </rdf:RDF>
  </metadata>
  <g
     inkscape:label="Layer 1"
     inkscape:groupmode="layer"
     id="layer1"
     transform="translate(-152.36919,-28.189328)">
    <g
       id="g2072"
       transform="matrix(2.491112,0,0,-2.491112,-318.95212,1209.2051)"
       style="opacity:1;stroke-width:0.141615">
      <path
         style="color:#000000;font-style:normal;font-variant:normal;font-weight:normal;font-stretch:normal;font-size:medium;line-height:normal;font-family:sans-serif;font-variant-ligatures:normal;font-variant-position:normal;font-variant-caps:normal;font-variant-numeric:normal;font-variant-alternates:normal;font-variant-east-asian:normal;font-feature-settings:normal;font-variation-settings:normal;text-indent:0;text-align:start;text-decoration:none;text-decoration-line:none;text-decoration-style:solid;text-decoration-color:#000000;letter-spacing:normal;word-spacing:normal;text-transform:none;writing-mode:lr-tb;direction:ltr;text-orientation:mixed;dominant-baseline:auto;baseline-shift:baseline;text-anchor:start;white-space:normal;shape-padding:0;shape-margin:0;inline-size:0;clip-rule:nonzero;display:inline;overflow:visible;visibility:visible;isolation:auto;mix-blend-mode:normal;color-interpolation:sRGB;color-interpolation-filters:linearRGB;solid-color:#000000;solid-opacity:1;vector-effect:none;fill:#ffffff;fill-opacity:1;fill-rule:nonzero;stroke:none;stroke-width:0.0424844;stroke-linecap:butt;stroke-linejoin:miter;stroke-miterlimit:22.926;stroke-dasharray:none;stroke-dashoffset:0;stroke-opacity:1;color-rendering:auto;image-rendering:auto;shape-rendering:auto;text-rendering:auto;enable-background:accumulate;stop-color:#000000;stop-opacity:1"
         d="m 193.96484,473.94141 h 54.19922 c 2.53516,0 4.61328,-2.08985 4.61328,-4.64454 v -34.25 c 0,-2.55468 -2.07812,-4.64453 -4.61328,-4.64453 h -54.19922 c -2.53515,0 -4.61328,2.08985 -4.61328,4.64453 v 34.25 c 0,2.55469 2.07813,4.64454 4.61328,4.64454 z m 0,0"
         id="path2074" />
      <path
         style="color:#000000;font-style:normal;font-variant:normal;font-weight:normal;font-stretch:normal;font-size:medium;line-height:normal;font-family:sans-serif;font-variant-ligatures:normal;font-variant-position:normal;font-variant-caps:normal;font-variant-numeric:normal;font-variant-alternates:normal;font-variant-east-asian:normal;font-feature-settings:normal;font-variation-settings:normal;text-indent:0;text-align:start;text-decoration:none;text-decoration-line:none;text-decoration-style:solid;text-decoration-color:#000000;letter-spacing:normal;word-spacing:normal;text-transform:none;writing-mode:lr-tb;direction:ltr;text-orientation:mixed;dominant-baseline:auto;baseline-shift:baseline;text-anchor:start;white-space:normal;shape-padding:0;shape-margin:0;inline-size:0;clip-rule:nonzero;display:inline;overflow:visible;visibility:visible;isolation:auto;mix-blend-mode:normal;color-interpolation:sRGB;color-interpolation-filters:linearRGB;solid-color:#000000;solid-opacity:1;vector-effect:none;fill:#000000;fill-opacity:1;fill-rule:nonzero;stroke:none;stroke-width:0.0424844;stroke-linecap:butt;stroke-linejoin:miter;stroke-miterlimit:22.926;stroke-dasharray:none;stroke-dashoffset:0;stroke-opacity:1;color-rendering:auto;image-rendering:auto;shape-rendering:auto;text-rendering:auto;enable-background:accumulate;stop-color:#000000;stop-opacity:1"
         d="m 193.96484,430.25195 c -2.61758,0 -4.76367,2.1589 -4.76367,4.79493 v 34.25 c 0,2.63603 2.14609,4.79492 4.76367,4.79492 h 54.19922 c 2.6176,0 4.76367,-2.15889 4.76367,-4.79492 v -34.25 c 0,-2.63603 -2.14607,-4.79493 -4.76367,-4.79493 z m 0,0.30078 h 54.19922 c 2.45273,0 4.46289,2.02081 4.46289,4.49415 v 34.25 c 0,2.47334 -2.01016,4.49414 -4.46289,4.49414 h -54.19922 c -2.45271,0 -4.46289,-2.0208 -4.46289,-4.49414 v -34.25 c 0,-2.47334 2.01018,-4.49415 4.46289,-4.49415 z"
         id="path2076" />
    </g>
    <path
       id="path13552"
       style="fill:#000000;fill-opacity:1;fill-rule:evenodd;stroke:none;stroke-width:0.352777"
       d="m 164.06135,33.361258 c -3.8924,0 -7.07561,3.183196 -7.07561,7.075584 v 85.921468 c 0,3.90207 3.18321,7.07559 7.07561,7.07559 h 135.26087 c 3.89225,0 7.0718,-3.17352 7.0718,-7.07559 V 40.436842 c 0,-3.892388 -3.17955,-7.075584 -7.0718,-7.075584 z m -0.70049,3.784101 h 136.66206 c 1.70286,0 3.08351,1.384194 3.08351,3.087126 v 86.808195 c 0,1.70293 -1.38065,3.09443 -3.08351,3.09443 H 163.36086 c -1.69319,0 -3.08351,-1.3915 -3.08351,-3.09443 V 40.232485 c 0,-1.702932 1.39032,-3.087126 3.08351,-3.087126 z m 44.32544,11.921587 v 2.229594 h 4.59056 v 14.381054 h 2.52156 V 51.29654 h 4.60151 v -2.229594 z m 14.08916,0 v 2.375546 h 2.36451 v -2.375546 z m 5.92615,0 v 16.610648 h 2.37561 v -3.404593 l 1.92656,-2.083642 3.11268,5.488235 h 2.96671 l -4.59049,-7.268983 3.99938,-4.594209 h -2.82436 l -4.59048,5.6342 V 49.066946 Z m 24.91234,0 v 2.375546 h 2.37186 v -2.375546 z m -8.30176,4.506605 c -0.55926,0 -1.12022,0.04872 -1.67497,0.145889 -0.99241,0.175052 -1.86591,0.74928 -2.43033,1.576405 l 1.87587,1.488844 c 0.18501,-0.379551 0.54514,-0.654523 0.96325,-0.722524 0.83685,-0.155634 1.69551,-0.155634 2.53236,0 0.64259,0.107051 1.10942,0.661655 1.10942,1.313664 v 1.189602 h -3.56156 c -1.96555,0 -3.56143,1.584928 -3.56143,3.550566 0,1.965652 1.59588,3.561512 3.56143,3.561512 h 1.48882 c 0.85648,0 1.65421,-0.465842 2.07274,-1.21515 v 1.21515 h 2.37186 v -8.30168 c 0,-1.800239 -1.29174,-3.344995 -3.07249,-3.656389 -0.55432,-0.09731 -1.11535,-0.145889 -1.67497,-0.145889 z m -22.53673,0.240865 v 11.863192 h 2.36451 V 53.814416 Z m 30.83849,0 v 11.863192 h 2.37186 V 53.814416 Z m -9.34162,6.677836 h 3.41546 v 1.477884 c 0,0.827112 -0.66448,1.488823 -1.48155,1.488823 h -1.93391 c -0.81743,0 -1.48163,-0.661726 -1.48163,-1.488823 0,-0.817408 0.66448,-1.477884 1.48163,-1.477884 z m -17.82952,13.06739 v 13.731523 c 0,1.459638 1.17742,2.634651 2.62741,2.634651 h 1.47054 v -2.189464 h -1.04008 c -0.39897,0 -0.72245,-0.321153 -0.72245,-0.729811 V 73.559642 Z m 31.53912,0 v 2.346361 h 2.3463 v -2.346361 z m -38.84459,1.178657 v 3.510429 h -1.16774 v 1.897516 h 1.16774 v 7.144921 c 0,1.459638 1.19444,2.634651 2.63462,2.634651 h 1.45232 v -2.189464 h -1.01444 c -0.40886,0 -0.73707,-0.321153 -0.73707,-0.729811 v -6.860297 h 1.75151 v -1.897516 h -1.75151 v -3.510429 z m 45.24868,0.25181 v 1.576405 l 7.3056,0.02895 v -1.60559 z M 177.25293,78.0152 c -0.55362,0 -1.10448,0.0459 -1.64941,0.138615 -0.96332,0.165379 -1.8294,0.739543 -2.39382,1.547207 l 1.85743,1.466939 c 0.17513,-0.379481 0.52679,-0.64965 0.9451,-0.707928 0.82711,-0.145889 1.66149,-0.145889 2.48866,0 0.6327,0.107051 1.09106,0.649509 1.09106,1.29178 v 1.167712 h -3.5031 c -1.93645,0 -3.5031,1.556937 -3.5031,3.503128 0,1.936432 1.56665,3.503121 3.5031,3.503121 h 1.45967 c 0.86601,0 1.62504,-0.464642 2.04343,-1.204212 v 1.204212 h 2.33542 v -8.173961 c 0,-1.780784 -1.27592,-3.286617 -3.01776,-3.597998 -0.55009,-0.0925 -1.10328,-0.138615 -1.65668,-0.138615 z m 32.41121,0 c -0.55503,0 -1.10688,0.0459 -1.65668,0.138615 -0.96339,0.165379 -1.82213,0.739543 -2.38655,1.547207 l 1.83914,1.466939 c 0.1949,-0.379481 0.54726,-0.64965 0.95612,-0.707928 0.84652,-0.145889 1.6725,-0.145889 2.4996,0 0.63271,0.107051 1.09106,0.649509 1.09106,1.29178 v 1.167712 h -3.51404 c -1.92678,0 -3.49216,1.556937 -3.49216,3.503128 0,1.936432 1.56538,3.503121 3.49216,3.503121 h 1.45959 c 0.85634,0 1.64574,-0.464642 2.05445,-1.204212 v 1.204212 h 2.3427 v -8.173961 c 0,-1.780784 -1.2832,-3.286617 -3.02504,-3.597998 -0.55009,-0.0925 -1.10568,-0.138615 -1.66035,-0.138615 z m 26.28804,0 c -0.55503,0 -1.10815,0.0459 -1.65308,0.138615 -0.97307,0.165379 -1.82933,0.739543 -2.39375,1.547207 l 1.83921,1.466939 c 0.20408,-0.379481 0.54444,-0.64965 0.96332,-0.707928 0.82711,-0.145889 1.6725,-0.145889 2.4996,0 0.62282,0.107051 1.08012,0.649509 1.08012,1.29178 v 1.167712 h -3.50317 c -1.93652,0 -3.5031,1.556937 -3.5031,3.503128 0,1.936432 1.56658,3.503121 3.5031,3.503121 h 1.45974 c 0.85626,0 1.63464,-0.464642 2.04343,-1.204212 v 1.204212 h 2.34644 v -8.173961 c 0,-1.780784 -1.28334,-3.286617 -3.02525,-3.597998 -0.54444,-0.0925 -1.10194,-0.138615 -1.65661,-0.138615 z m 30.96257,0 c -0.55079,0 -1.10321,0.0459 -1.65308,0.138615 -0.98274,0.165379 -1.83922,0.739543 -2.39368,1.547207 l 1.85002,1.466939 c 0.18501,-0.379481 0.52678,-0.64965 0.94496,-0.707928 0.82732,-0.145889 1.67257,-0.145889 2.49967,0 0.62282,0.107051 1.08026,0.649509 1.08026,1.29178 v 1.167712 h -3.5031 c -1.91711,0 -3.50317,1.556937 -3.50317,3.503128 0,1.936432 1.58606,3.503121 3.50317,3.503121 h 1.47054 c 0.84652,0 1.62377,-0.464642 2.03256,-1.204212 v 1.204212 h 2.34623 v -8.173961 c 0,-1.780784 -1.26746,-3.286617 -3.02872,-3.597998 -0.54514,-0.0925 -1.09466,-0.138615 -1.64566,-0.138615 z m -75.74419,0.09116 c -1.25962,-0.103874 -2.54218,0.397769 -3.39365,1.455987 V 78.24869 h -2.34637 v 11.677081 h 2.34637 v -7.152223 c 0,-0.574093 0.21255,-1.126345 0.57268,-1.554508 0.86602,-0.963311 2.33663,-1.052137 3.30969,-0.186068 l 1.65308,-2.061723 v -0.0113 c -0.63835,-0.510894 -1.3863,-0.791514 -2.14201,-0.853902 z m 89.66535,0 c -1.25643,-0.103874 -2.54451,0.397769 -3.40819,1.455987 V 78.24869 h -2.33542 v 11.677081 h 2.33542 v -7.152223 c 0,-1.294209 1.05088,-2.335416 2.33542,-2.335416 1.29415,0 2.33543,1.041207 2.33543,2.335416 v 7.152223 h 2.34269 v -7.152223 c 0,-1.294209 1.05088,-2.335416 2.33543,-2.335416 1.28447,0 2.32808,1.041207 2.32808,2.335416 v 7.152223 h 2.34269 v -7.451436 c 0,-1.303983 -0.59386,-2.560478 -1.60541,-3.397306 -1.88794,-1.527752 -4.63928,-1.246757 -6.16702,0.631291 -0.20408,-0.272429 -0.44911,-0.514636 -0.71165,-0.748058 -0.63129,-0.510894 -1.37338,-0.791522 -2.12747,-0.853902 z m -37.00912,0.142358 v 7.874725 c 0,1.187159 0.54373,2.323257 1.47809,3.072537 1.69305,1.372048 4.18298,1.109321 5.53566,-0.583838 v 1.313685 h 2.34623 V 78.248742 h -2.34623 v 7.144921 c 0,1.294196 -1.04007,2.342703 -2.32455,2.342703 -1.29421,0 -2.33542,-1.048507 -2.33542,-2.342703 v -7.144921 z m 13.15514,0 v 13.001697 c 0,0.632492 -0.51619,1.15676 -1.16768,1.15676 h -0.87589 v 2.189463 h 1.16774 c 1.77094,0 3.22213,-1.430431 3.22213,-3.211201 V 78.248721 Z m -80.74712,6.561061 h 3.35714 v 1.466926 c 0,0.807663 -0.65318,1.459637 -1.47054,1.459637 h -1.8866 c -0.80768,0 -1.45967,-0.651981 -1.45967,-1.459637 0,-0.817374 0.65177,-1.46694 1.45967,-1.466926 z m 32.41488,0 h 3.35714 v 1.466926 c 0,0.807663 -0.65177,1.459637 -1.45959,1.459637 h -1.89755 c -0.80768,0 -1.45966,-0.651981 -1.45966,-1.459637 0,-0.817374 0.65176,-1.46694 1.45966,-1.466926 z m 26.2807,0 h 3.35721 v 1.466926 c 0,0.807663 -0.65106,1.459637 -1.44872,1.459637 h -1.90849 c -0.80769,0 -1.45953,-0.651981 -1.45953,-1.459637 0,-0.817374 0.65177,-1.46694 1.45953,-1.466926 z m 30.9661,0 h 3.34641 v 1.466926 c 0,0.807663 -0.65177,1.459637 -1.45974,1.459637 h -1.88667 c -0.80747,0 -1.45225,-0.651981 -1.45225,-1.459637 0,-0.817374 0.64471,-1.46694 1.45225,-1.466926 z m -39.05976,7.812705 v 3.71841 l 2.40124,-1.237041 v -2.481369 z m -29.19268,8.797946 v 17.10693 h 2.58716 v -12.2135 l 7.79446,12.2135 h 2.43393 v -17.10693 h -2.59083 v 12.22081 l -7.79447,-12.22081 z m 42.12511,0 -2.44488,1.83915 v 2.58719 l 2.44488,-1.82089 v 14.50148 h 2.4412 v -17.10693 z m 23.19727,0 -5.79843,12.37771 v 2.13106 h 7.17053 v 2.59816 h 2.45215 v -2.59816 h 1.37196 v -2.28796 h -1.37196 v -4.88615 h -2.45215 v 4.88615 h -4.41919 l 5.79108,-12.22081 z m -42.53384,4.75476 c -1.31689,-0.11418 -2.66745,0.40384 -3.5615,1.51073 v -1.37206 h -2.45222 v 12.2135 h 2.45222 v -7.48428 c 0,-0.59358 0.21396,-1.17866 0.61293,-1.61654 0.89525,-1.01195 2.44361,-1.09961 3.45565,-0.20436 l 1.72969,-2.14931 h -0.007 c -0.66024,-0.53279 -1.43947,-0.82913 -2.22957,-0.89768 z m 26.05085,4.41175 v 2.44124 h 7.33469 v -2.44124 z m -23.81394,5.49554 v 2.44488 h 2.44481 v -2.44488 z" />
  </g>
</svg>
