<?xml version="1.0" encoding="UTF-8" standalone="no"?>
<svg
   xmlns:dc="http://purl.org/dc/elements/1.1/"
   xmlns:cc="http://creativecommons.org/ns#"
   xmlns:rdf="http://www.w3.org/1999/02/22-rdf-syntax-ns#"
   xmlns:svg="http://www.w3.org/2000/svg"
   xmlns="http://www.w3.org/2000/svg"
   xmlns:sodipodi="http://sodipodi.sourceforge.net/DTD/sodipodi-0.dtd"
   xmlns:inkscape="http://www.inkscape.org/namespaces/inkscape"
   sodipodi:docname="Latvia_road_sign 853.svg"
   inkscape:version="1.0 (4035a4fb49, 2020-05-01)"
   id="svg1473"
   version="1.1"
   viewBox="0 0 158.75 79.766498"
   height="79.766495mm"
   width="158.75mm">
  <defs
     id="defs1467" />
  <sodipodi:namedview
     inkscape:window-maximized="0"
     inkscape:window-y="0"
     inkscape:window-x="160"
     inkscape:window-height="1030"
     inkscape:window-width="1424"
     showgrid="false"
     inkscape:document-rotation="0"
     inkscape:current-layer="layer1"
     inkscape:document-units="mm"
     inkscape:cy="444.7334"
     inkscape:cx="183.62065"
     inkscape:zoom="0.7"
     inkscape:pageshadow="2"
     inkscape:pageopacity="0.0"
     borderopacity="1.0"
     bordercolor="#666666"
     pagecolor="#ffffff"
     id="base" />
  <metadata
     id="metadata1470">
    <rdf:RDF>
      <cc:Work
         rdf:about="">
        <dc:format>image/svg+xml</dc:format>
        <dc:type
           rdf:resource="http://purl.org/dc/dcmitype/StillImage" />
        <dc:title />
      </cc:Work>
    </rdf:RDF>
  </metadata>
  <g
     transform="translate(-22.606037,-176.3809)"
     id="layer1"
     inkscape:groupmode="layer"
     inkscape:label="Layer 1">
    <g
       style="opacity:1;stroke-width:0.137274"
       transform="matrix(2.5698747,0,0,-2.5698747,-466.1269,810.08088)"
       id="g2096">
      <path
         id="path2098"
         d="m 190.32812,242.61719 c 0,2.125 1.69141,3.82031 3.82032,3.82031 h 53.83203 c 2.125,0 3.82031,-1.69531 3.82031,-3.82031 l -0.0156,-23.09766 c -0.004,-2.125 -1.67969,-3.82031 -3.80469,-3.82031 h -53.83203 c -2.12891,0 -3.82032,1.69531 -3.82032,3.82031 z m 0,0"
         style="color:#000000;font-style:normal;font-variant:normal;font-weight:normal;font-stretch:normal;font-size:medium;line-height:normal;font-family:sans-serif;font-variant-ligatures:normal;font-variant-position:normal;font-variant-caps:normal;font-variant-numeric:normal;font-variant-alternates:normal;font-variant-east-asian:normal;font-feature-settings:normal;font-variation-settings:normal;text-indent:0;text-align:start;text-decoration:none;text-decoration-line:none;text-decoration-style:solid;text-decoration-color:#000000;letter-spacing:normal;word-spacing:normal;text-transform:none;writing-mode:lr-tb;direction:ltr;text-orientation:mixed;dominant-baseline:auto;baseline-shift:baseline;text-anchor:start;white-space:normal;shape-padding:0;shape-margin:0;inline-size:0;clip-rule:nonzero;display:inline;overflow:visible;visibility:visible;isolation:auto;mix-blend-mode:normal;color-interpolation:sRGB;color-interpolation-filters:linearRGB;solid-color:#000000;solid-opacity:1;vector-effect:none;fill:#ffffff;fill-opacity:1;fill-rule:nonzero;stroke:none;stroke-width:0.0411823;stroke-linecap:round;stroke-linejoin:round;stroke-miterlimit:22.926;stroke-dasharray:none;stroke-dashoffset:0;stroke-opacity:1;color-rendering:auto;image-rendering:auto;shape-rendering:auto;text-rendering:auto;enable-background:accumulate;stop-color:#000000;stop-opacity:1" />
      <path
         id="path2100"
         d="m 194.14844,215.54883 c -2.20855,0 -3.97071,1.76611 -3.97071,3.9707 v 23.09766 c 0,2.20459 1.76216,3.9707 3.97071,3.9707 h 53.83203 c 2.20478,0 3.9707,-1.76592 3.9707,-3.9707 l -0.0156,-23.09766 c -0.004,-2.2037 -1.7503,-3.9707 -3.95508,-3.9707 z m 0,0.30078 h 53.83203 c 2.04522,0 3.65044,1.62363 3.6543,3.66992 l 0.0156,23.09766 c 0,2.04522 -1.6247,3.66992 -3.66992,3.66992 h -53.83203 c -2.04928,0 -3.66992,-1.62452 -3.66992,-3.66992 v -23.09766 c 0,-2.0454 1.62064,-3.66992 3.66992,-3.66992 z"
         style="color:#000000;font-style:normal;font-variant:normal;font-weight:normal;font-stretch:normal;font-size:medium;line-height:normal;font-family:sans-serif;font-variant-ligatures:normal;font-variant-position:normal;font-variant-caps:normal;font-variant-numeric:normal;font-variant-alternates:normal;font-variant-east-asian:normal;font-feature-settings:normal;font-variation-settings:normal;text-indent:0;text-align:start;text-decoration:none;text-decoration-line:none;text-decoration-style:solid;text-decoration-color:#000000;letter-spacing:normal;word-spacing:normal;text-transform:none;writing-mode:lr-tb;direction:ltr;text-orientation:mixed;dominant-baseline:auto;baseline-shift:baseline;text-anchor:start;white-space:normal;shape-padding:0;shape-margin:0;inline-size:0;clip-rule:nonzero;display:inline;overflow:visible;visibility:visible;isolation:auto;mix-blend-mode:normal;color-interpolation:sRGB;color-interpolation-filters:linearRGB;solid-color:#000000;solid-opacity:1;vector-effect:none;fill:#000000;fill-opacity:1;fill-rule:nonzero;stroke:none;stroke-width:0.0411823;stroke-linecap:round;stroke-linejoin:round;stroke-miterlimit:22.926;stroke-dasharray:none;stroke-dashoffset:0;stroke-opacity:1;color-rendering:auto;image-rendering:auto;shape-rendering:auto;text-rendering:auto;enable-background:accumulate;stop-color:#000000;stop-opacity:1" />
    </g>
    <path
       transform="matrix(0.26458333,0,0,0.26458333,22.606037,176.3809)"
       d="m 38.564453,11.595703 c -14.880416,0 -27.005859,12.082767 -27.005859,26.976563 V 262.91797 c 0,14.8941 12.125443,26.97461 27.005859,26.97461 H 561.43945 c 14.88038,0 26.97657,-12.09431 26.97657,-26.97461 V 38.572266 c 0,-14.880038 -12.09619,-26.976563 -26.97657,-26.976563 z m 0,12.662109 H 561.43945 c 8.26371,0 14.29883,6.050819 14.29883,14.314454 V 262.91797 c 0,8.26367 -6.03512,14.29883 -14.29883,14.29883 H 38.564453 c -8.263876,0 -14.341797,-6.04892 -14.341797,-14.29883 V 38.572266 c 0,-8.249613 6.07806,-14.314454 14.341797,-14.314454 z M 202.91211,46.566406 c -11.8818,0 -21.60156,9.733194 -21.60156,21.615235 V 232.63086 c 0,11.88208 9.72031,21.61523 21.60156,21.61523 h 102.78516 c 11.88155,0 21.60156,-9.73368 21.60156,-21.61523 V 68.181641 c 0,-11.88155 -9.71952,-21.615235 -21.60156,-21.615235 z m 82.22461,24.839844 c 9.53221,0 17.33594,7.803969 17.33594,17.335938 0,9.525013 -7.80373,17.333982 -17.33594,17.333982 -9.53189,0 -17.33399,-7.808969 -17.33399,-17.333982 0,-9.531969 7.8021,-17.335938 17.33399,-17.335938 z m 0,7.304688 c -5.58429,0 -10.0293,4.446657 -10.0293,10.03125 0,5.572421 4.44501,10.029296 10.0293,10.029296 5.58456,0 10.03125,-4.456875 10.03125,-10.029296 0,-5.584593 -4.44669,-10.031251 -10.03125,-10.03125 z m 51.40625,0.572265 a 1.0520319,1.0520319 0 0 0 -1.05469,1.054688 V 199.57227 a 1.0520319,1.0520319 0 0 0 1.05469,1.04101 h 10.27344 a 1.0520319,1.0520319 0 0 0 1.04101,-1.04101 V 80.337891 a 1.0520319,1.0520319 0 0 0 -1.04101,-1.054688 z m 20.54687,16.435547 a 1.0520319,1.0520319 0 0 0 -1.05468,1.072266 V 199.57422 a 1.0520319,1.0520319 0 0 0 1.05468,1.04101 h 10.27149 a 1.0520319,1.0520319 0 0 0 1.05469,-1.04101 V 96.791016 a 1.0520319,1.0520319 0 0 0 -1.05469,-1.072266 z m 22.61328,12.52734 a 1.0520319,1.0520319 0 0 0 -1.04101,1.0586 V 211.0332 h -42.11719 -0.0273 a 1.0520319,1.0520319 0 0 0 -1.04102,1.05469 v 12.32617 a 1.0520319,1.0520319 0 0 0 1.04102,1.05469 h 0.0273 53.43164 a 1.0520319,1.0520319 0 0 0 1.04102,-1.05469 v -12.32617 -11.47266 h 27.42187 a 1.0520319,1.0520319 0 0 0 1.04102,-1.04101 v -74.00586 a 1.0520319,1.0520319 0 0 0 -1.04102,-1.05469 h -27.42187 v -15.20898 a 1.0520319,1.0520319 0 0 0 -1.04102,-1.05664 z M 244.0332,157.04297 c 18.99956,0 34.48438,15.48348 34.48438,34.48437 0,19.00978 -15.48482,34.48438 -34.48438,34.48438 -18.99956,0 -34.5,-15.4746 -34.5,-34.48438 0,-19.00089 15.50044,-34.48437 34.5,-34.48437 z m 0,7.30469 c -15.05166,0 -27.19531,12.12945 -27.19531,27.17968 0,15.06135 12.14365,27.17969 27.19531,27.17969 15.05167,0 27.17969,-12.11834 27.17969,-27.17969 0,-15.05023 -12.12802,-27.17968 -27.17969,-27.17968 z"
       style="color:#000000;font-style:normal;font-variant:normal;font-weight:normal;font-stretch:normal;font-size:medium;line-height:normal;font-family:sans-serif;font-variant-ligatures:normal;font-variant-position:normal;font-variant-caps:normal;font-variant-numeric:normal;font-variant-alternates:normal;font-variant-east-asian:normal;font-feature-settings:normal;font-variation-settings:normal;text-indent:0;text-align:start;text-decoration:none;text-decoration-line:none;text-decoration-style:solid;text-decoration-color:#000000;letter-spacing:normal;word-spacing:normal;text-transform:none;writing-mode:lr-tb;direction:ltr;text-orientation:mixed;dominant-baseline:auto;baseline-shift:baseline;text-anchor:start;white-space:normal;shape-padding:0;shape-margin:0;inline-size:0;clip-rule:nonzero;display:inline;overflow:visible;visibility:visible;opacity:1;isolation:auto;mix-blend-mode:normal;color-interpolation:sRGB;color-interpolation-filters:linearRGB;solid-color:#000000;solid-opacity:1;vector-effect:none;fill:#000000;fill-opacity:1;fill-rule:evenodd;stroke:none;stroke-width:0.288;stroke-linecap:round;stroke-linejoin:round;stroke-miterlimit:22.926;stroke-dasharray:none;stroke-dashoffset:0;stroke-opacity:1;color-rendering:auto;image-rendering:auto;shape-rendering:auto;text-rendering:auto;enable-background:accumulate;stop-color:#000000;stop-opacity:1"
       id="path1429" />
  </g>
</svg>
