<?xml version="1.0" encoding="UTF-8" standalone="no"?>
<svg
   xmlns:dc="http://purl.org/dc/elements/1.1/"
   xmlns:cc="http://creativecommons.org/ns#"
   xmlns:rdf="http://www.w3.org/1999/02/22-rdf-syntax-ns#"
   xmlns:svg="http://www.w3.org/2000/svg"
   xmlns="http://www.w3.org/2000/svg"
   xmlns:sodipodi="http://sodipodi.sourceforge.net/DTD/sodipodi-0.dtd"
   xmlns:inkscape="http://www.inkscape.org/namespaces/inkscape"
   width="158.75mm"
   height="79.758987mm"
   viewBox="0 0 158.74999 79.758982"
   version="1.1"
   id="svg6774"
   inkscape:version="1.0 (4035a4fb49, 2020-05-01)"
   sodipodi:docname="Latvia_road_sign_822.svg">
  <defs
     id="defs6768" />
  <sodipodi:namedview
     id="base"
     pagecolor="#ffffff"
     bordercolor="#666666"
     borderopacity="1.0"
     inkscape:pageopacity="0.0"
     inkscape:pageshadow="2"
     inkscape:zoom="0.55666667"
     inkscape:cx="255.35237"
     inkscape:cy="384.59863"
     inkscape:document-units="mm"
     inkscape:current-layer="layer1"
     inkscape:document-rotation="0"
     showgrid="false"
     fit-margin-top="0"
     fit-margin-left="0"
     fit-margin-right="0"
     fit-margin-bottom="0"
     inkscape:window-width="1920"
     inkscape:window-height="1001"
     inkscape:window-x="-9"
     inkscape:window-y="-9"
     inkscape:window-maximized="1" />
  <metadata
     id="metadata6771">
    <rdf:RDF>
      <cc:Work
         rdf:about="">
        <dc:format>image/svg+xml</dc:format>
        <dc:type
           rdf:resource="http://purl.org/dc/dcmitype/StillImage" />
        <dc:title></dc:title>
      </cc:Work>
    </rdf:RDF>
  </metadata>
  <g
     inkscape:label="Layer 1"
     inkscape:groupmode="layer"
     id="layer1"
     transform="translate(-146.17786,-317.21212)">
    <g
       id="g2362"
       style="opacity:1"
       inkscape:groupmode="layer" />
    <g
       transform="matrix(2.5699558,0,0,-2.5699558,-342.60062,2016.3394)"
       id="g6887"
       style="opacity:1;stroke-width:0.13727">
      <path
         style="color:#000000;font-style:normal;font-variant:normal;font-weight:normal;font-stretch:normal;font-size:medium;line-height:normal;font-family:sans-serif;font-variant-ligatures:normal;font-variant-position:normal;font-variant-caps:normal;font-variant-numeric:normal;font-variant-alternates:normal;font-variant-east-asian:normal;font-feature-settings:normal;font-variation-settings:normal;text-indent:0;text-align:start;text-decoration:none;text-decoration-line:none;text-decoration-style:solid;text-decoration-color:#000000;letter-spacing:normal;word-spacing:normal;text-transform:none;writing-mode:lr-tb;direction:ltr;text-orientation:mixed;dominant-baseline:auto;baseline-shift:baseline;text-anchor:start;white-space:normal;shape-padding:0;shape-margin:0;inline-size:0;clip-rule:nonzero;display:inline;overflow:visible;visibility:visible;isolation:auto;mix-blend-mode:normal;color-interpolation:sRGB;color-interpolation-filters:linearRGB;solid-color:#000000;solid-opacity:1;vector-effect:none;fill:#ffffff;fill-opacity:1;fill-rule:nonzero;stroke:none;stroke-width:0.041181;stroke-linecap:round;stroke-linejoin:round;stroke-miterlimit:22.926;stroke-dasharray:none;stroke-dashoffset:0;stroke-opacity:1;color-rendering:auto;image-rendering:auto;shape-rendering:auto;text-rendering:auto;enable-background:accumulate;stop-color:#000000;stop-opacity:1"
         d="m 190.34,657.182 c 0,2.127 1.693,3.819 3.82,3.819 h 53.831 c 2.127,0 3.821,-1.692 3.82,-3.819 l -0.016,-23.096 c -10e-4,-2.127 -1.677,-3.82 -3.804,-3.82 H 194.16 c -2.127,0 -3.82,1.692 -3.82,3.82 z"
         id="path6889" />
      <path
         style="color:#000000;font-style:normal;font-variant:normal;font-weight:normal;font-stretch:normal;font-size:medium;line-height:normal;font-family:sans-serif;font-variant-ligatures:normal;font-variant-position:normal;font-variant-caps:normal;font-variant-numeric:normal;font-variant-alternates:normal;font-variant-east-asian:normal;font-feature-settings:normal;font-variation-settings:normal;text-indent:0;text-align:start;text-decoration:none;text-decoration-line:none;text-decoration-style:solid;text-decoration-color:#000000;letter-spacing:normal;word-spacing:normal;text-transform:none;writing-mode:lr-tb;direction:ltr;text-orientation:mixed;dominant-baseline:auto;baseline-shift:baseline;text-anchor:start;white-space:normal;shape-padding:0;shape-margin:0;inline-size:0;clip-rule:nonzero;display:inline;overflow:visible;visibility:visible;isolation:auto;mix-blend-mode:normal;color-interpolation:sRGB;color-interpolation-filters:linearRGB;solid-color:#000000;solid-opacity:1;vector-effect:none;fill:#000000;fill-opacity:1;fill-rule:nonzero;stroke:none;stroke-width:0.041181;stroke-linecap:round;stroke-linejoin:round;stroke-miterlimit:22.926;stroke-dasharray:none;stroke-dashoffset:0;stroke-opacity:1;color-rendering:auto;image-rendering:auto;shape-rendering:auto;text-rendering:auto;enable-background:accumulate;stop-color:#000000;stop-opacity:1"
         d="m 194.16016,630.11523 c -2.20655,0 -3.97071,1.76315 -3.97071,3.97071 v 23.0957 c 0,2.2066 1.76416,3.96875 3.97071,3.96875 h 53.83007 c 2.20655,0 3.97174,-1.76207 3.97071,-3.96875 l -0.0156,-23.0957 c -10e-4,-2.20576 -1.74848,-3.97071 -3.95508,-3.97071 z m 0,0.30079 h 53.83007 c 2.04741,0 3.65334,1.62168 3.6543,3.66992 l 0.0156,23.0957 c 9.6e-4,2.04732 -1.62247,3.66992 -3.66993,3.66992 h -53.83007 c -2.04746,0 -3.66993,-1.62252 -3.66993,-3.66992 v -23.0957 c 0,-2.04844 1.62247,-3.66992 3.66993,-3.66992 z"
         id="path6891" />
    </g>
    <path
       id="path6038"
       style="fill:#000000;fill-opacity:1;fill-rule:evenodd;stroke:none;stroke-width:0.352777"
       d="m 156.38368,320.26888 c -3.93961,0 -7.14519,3.20179 -7.14519,7.1414 v 59.35617 c 0,3.93961 3.20463,7.14148 7.14519,7.14148 h 138.34096 c 3.93873,0 7.1414,-3.20092 7.1414,-7.14148 v -59.35617 c 0,-3.93778 -3.20085,-7.1414 -7.1414,-7.1414 z m 0,3.35419 h 138.34096 c 2.1862,0 3.79471,1.60334 3.79471,3.78721 v 59.35617 c 0,2.18628 -1.61179,3.79471 -3.79471,3.79471 H 156.38368 c -2.18628,0 -3.79093,-1.60756 -3.79093,-3.79471 v -59.35617 c 0,-2.18715 1.60378,-3.78721 3.79093,-3.78721 z m 77.36593,4.82998 c -1.42886,0.0146 -2.6603,0.94288 -3.24885,2.15334 l -9.27217,20.12174 -5.13484,-0.0656 0.007,-19.46288 -3.75704,-0.0146 -0.051,19.52692 -19.56458,-0.0364 c -2.39004,-0.0146 -3.12465,2.69957 -2.53355,5.0408 l 3.46718,14.53129 c 3.61077,-1.48029 7.69309,-0.93203 10.44293,1.78444 l 26.75872,0.0787 c -0.0728,-4.92657 2.51964,-10.54994 7.23553,-13.26634 3.7341,-2.48773 8.42077,-2.87572 12.2989,-1.87856 1.77067,0.39047 3.81482,1.55059 5.36454,2.58629 l 4.50601,-4.52845 v -1.89364 l -4.72835,-3.16602 c -1.15131,-1.04852 -1.28535,-2.02878 -1.48321,-3.48598 l -0.0437,-12.31019 c 0.0291,-3.61077 -2.36942,-5.66395 -5.037,-5.6845 z m 0.75669,3.10956 11.79449,0.0146 c 1.63962,0.006 2.80615,1.20624 2.9552,2.52976 v 14.71953 c -0.0219,0.87893 -0.56094,1.86072 -2.00277,1.87099 l -18.13783,-0.0291 c -1.58046,0.0219 -3.70591,-1.94274 -2.67284,-4.12975 l 6.33205,-13.89881 c 0.25716,-0.73505 1.08662,-1.08698 1.7317,-1.07671 z m 11.71917,26.87157 c -1.03993,0.0219 -2.08553,0.1559 -3.13215,0.40286 -5.71815,1.13331 -10.93575,8.20281 -10.52204,13.19108 l -0.0146,0.67022 c -0.007,1.23872 0.21417,2.49683 0.60975,3.85117 0.36497,1.18991 0.8575,2.38551 1.69782,3.6705 2.68565,3.99374 6.86363,6.00925 10.09667,6.18147 l 0.26371,0.0867 c 2.0483,0.0218 3.94326,-0.051 6.11744,-0.8433 1.97377,-0.60101 4.27442,-2.05814 6.0271,-4.29912 3.22277,-4.31755 3.80367,-8.69039 2.51096,-13.11583 -0.62213,-2.14337 -1.9557,-4.53501 -4.38945,-6.57296 -3.06083,-2.27829 -6.14869,-3.2796 -9.26838,-3.22249 z m 0.30523,6.1476 c 1.41444,-0.002 2.81876,0.41961 4.25024,1.18962 2.9246,2.07395 3.75661,4.952 3.66664,7.23931 -0.18212,1.75785 -0.64471,3.31617 -2.25118,4.99185 -2.08421,2.09193 -4.63641,2.40139 -6.84403,2.31143 l -0.16173,-0.094 c -1.36213,-0.0845 -2.68565,-0.6418 -4.12224,-2.01413 l -1.08042,-1.18956 c -0.86356,-1.43403 -1.26394,-2.86719 -1.25366,-4.26524 -0.0437,-2.33103 0.82873,-4.91338 3.48605,-6.81766 1.47133,-0.9265 2.89597,-1.3496 4.31041,-1.35157 z m -48.68362,6.50142 c -0.86181,-0.006 -1.7655,0.13841 -2.70671,0.44802 -1.36723,0.38319 -3.1323,1.66701 -4.08837,3.30152 -1.53165,2.82954 -1.52145,5.55118 0.32345,8.45524 2.99913,4.01945 8.97203,4.31434 12.40811,0.24113 1.78866,-2.69586 2.10308,-5.74051 0.49683,-8.70365 -1.648,-2.34385 -3.84826,-3.72201 -6.43368,-3.74204 z m -0.0291,3.88133 c 2.1768,-0.0583 4.02389,1.90406 3.99046,3.91892 -0.0219,2.01486 -1.64771,4.03511 -3.94529,4.00175 -2.30007,-0.0364 -4.08779,-1.88388 -3.94901,-4.1712 0.13841,-2.28979 1.72711,-3.69039 3.90384,-3.74947 z" />
  </g>
</svg>
