<?xml version="1.0" encoding="UTF-8" standalone="no"?>
<svg
   xmlns:dc="http://purl.org/dc/elements/1.1/"
   xmlns:cc="http://creativecommons.org/ns#"
   xmlns:rdf="http://www.w3.org/1999/02/22-rdf-syntax-ns#"
   xmlns:svg="http://www.w3.org/2000/svg"
   xmlns="http://www.w3.org/2000/svg"
   xmlns:sodipodi="http://sodipodi.sourceforge.net/DTD/sodipodi-0.dtd"
   xmlns:inkscape="http://www.inkscape.org/namespaces/inkscape"
   width="158.75mm"
   height="79.771568mm"
   viewBox="0 0 158.74999 79.771563"
   version="1.1"
   id="svg6774"
   inkscape:version="1.0 (4035a4fb49, 2020-05-01)"
   sodipodi:docname="Latvia_road_sign_815.svg">
  <defs
     id="defs6768" />
  <sodipodi:namedview
     id="base"
     pagecolor="#ffffff"
     bordercolor="#666666"
     borderopacity="1.0"
     inkscape:pageopacity="0.0"
     inkscape:pageshadow="2"
     inkscape:zoom="0.55666667"
     inkscape:cx="240.16487"
     inkscape:cy="-388.64649"
     inkscape:document-units="mm"
     inkscape:current-layer="layer1"
     inkscape:document-rotation="0"
     showgrid="false"
     fit-margin-top="0"
     fit-margin-left="0"
     fit-margin-right="0"
     fit-margin-bottom="0"
     inkscape:window-width="1920"
     inkscape:window-height="1001"
     inkscape:window-x="-9"
     inkscape:window-y="-9"
     inkscape:window-maximized="1" />
  <metadata
     id="metadata6771">
    <rdf:RDF>
      <cc:Work
         rdf:about="">
        <dc:format>image/svg+xml</dc:format>
        <dc:type
           rdf:resource="http://purl.org/dc/dcmitype/StillImage" />
        <dc:title></dc:title>
      </cc:Work>
    </rdf:RDF>
  </metadata>
  <g
     inkscape:label="Layer 1"
     inkscape:groupmode="layer"
     id="layer1"
     transform="translate(102.14633,-327.244)">
    <g
       id="g2362"
       style="opacity:1"
       inkscape:groupmode="layer" />
    <g
       id="g4108"
       transform="matrix(2.5700374,0,0,-2.5700374,-560.78256,1387.1686)"
       style="opacity:1;stroke-width:0.137266">
      <path
         style="color:#000000;font-style:normal;font-variant:normal;font-weight:normal;font-stretch:normal;font-size:medium;line-height:normal;font-family:sans-serif;font-variant-ligatures:normal;font-variant-position:normal;font-variant-caps:normal;font-variant-numeric:normal;font-variant-alternates:normal;font-variant-east-asian:normal;font-feature-settings:normal;font-variation-settings:normal;text-indent:0;text-align:start;text-decoration:none;text-decoration-line:none;text-decoration-style:solid;text-decoration-color:#000000;letter-spacing:normal;word-spacing:normal;text-transform:none;writing-mode:lr-tb;direction:ltr;text-orientation:mixed;dominant-baseline:auto;baseline-shift:baseline;text-anchor:start;white-space:normal;shape-padding:0;shape-margin:0;inline-size:0;clip-rule:nonzero;display:inline;overflow:visible;visibility:visible;isolation:auto;mix-blend-mode:normal;color-interpolation:sRGB;color-interpolation-filters:linearRGB;solid-color:#000000;solid-opacity:1;vector-effect:none;fill:#ffffff;fill-opacity:1;fill-rule:nonzero;stroke:none;stroke-width:0.0411797;stroke-linecap:round;stroke-linejoin:round;stroke-miterlimit:22.926;stroke-dasharray:none;stroke-dashoffset:0;stroke-opacity:1;color-rendering:auto;image-rendering:auto;shape-rendering:auto;text-rendering:auto;enable-background:accumulate;stop-color:#000000;stop-opacity:1"
         d="m 178.60547,408.44531 c 0,2.125 1.6914,3.82031 3.82031,3.82031 h 53.82813 c 2.1289,0 3.82031,-1.69531 3.82031,-3.82031 l -0.0156,-23.09765 c 0,-2.125 -1.67578,-3.82032 -3.80468,-3.82032 h -53.82813 c -2.12891,0 -3.82031,1.69532 -3.82031,3.82032 z m 0,0"
         id="path4110" />
      <path
         style="color:#000000;font-style:normal;font-variant:normal;font-weight:normal;font-stretch:normal;font-size:medium;line-height:normal;font-family:sans-serif;font-variant-ligatures:normal;font-variant-position:normal;font-variant-caps:normal;font-variant-numeric:normal;font-variant-alternates:normal;font-variant-east-asian:normal;font-feature-settings:normal;font-variation-settings:normal;text-indent:0;text-align:start;text-decoration:none;text-decoration-line:none;text-decoration-style:solid;text-decoration-color:#000000;letter-spacing:normal;word-spacing:normal;text-transform:none;writing-mode:lr-tb;direction:ltr;text-orientation:mixed;dominant-baseline:auto;baseline-shift:baseline;text-anchor:start;white-space:normal;shape-padding:0;shape-margin:0;inline-size:0;clip-rule:nonzero;display:inline;overflow:visible;visibility:visible;isolation:auto;mix-blend-mode:normal;color-interpolation:sRGB;color-interpolation-filters:linearRGB;solid-color:#000000;solid-opacity:1;vector-effect:none;fill:#000000;fill-opacity:1;fill-rule:nonzero;stroke:none;stroke-width:0.0411797;stroke-linecap:round;stroke-linejoin:round;stroke-miterlimit:22.926;stroke-dasharray:none;stroke-dashoffset:0;stroke-opacity:1;color-rendering:auto;image-rendering:auto;shape-rendering:auto;text-rendering:auto;enable-background:accumulate;stop-color:#000000;stop-opacity:1"
         d="m 182.42578,381.37695 c -2.20854,0 -3.9707,1.76611 -3.9707,3.97071 v 23.09765 c 0,2.2046 1.76216,3.97071 3.9707,3.97071 h 53.82813 c 2.20853,0 3.9707,-1.76611 3.9707,-3.97071 l -0.0156,-23.09765 c 0,-2.20386 -1.74654,-3.97071 -3.95507,-3.97071 z m 0,0.30078 h 53.82813 c 2.04926,0 3.65429,1.62379 3.65429,3.66993 l 0.0156,23.09765 c 0,2.04541 -1.62066,3.66992 -3.66992,3.66992 h -53.82813 c -2.04928,0 -3.66992,-1.62451 -3.66992,-3.66992 v -23.09765 c 0,-2.04541 1.62064,-3.66993 3.66992,-3.66993 z"
         id="path4112" />
    </g>
    <path
       id="path2916"
       style="fill:#000000;fill-opacity:1;fill-rule:evenodd;stroke:none;stroke-width:0.352777"
       d="m -91.941483,330.30983 c -3.93733,0 -7.149205,3.19694 -7.149205,7.13791 v 59.36184 c 0,3.94105 3.211875,7.13792 7.149205,7.13792 H 46.400033 c 3.937308,0 7.145409,-3.19687 7.145409,-7.13792 v -59.36184 c 0,-3.94097 -3.208101,-7.13791 -7.145409,-7.13791 z m 0,3.35437 H 46.400033 c 2.186571,0 3.794825,1.60062 3.794825,3.78354 v 59.36184 c 0,2.18292 -1.608254,3.78726 -3.794825,3.78726 H -91.941483 c -2.186636,0 -3.794832,-1.60434 -3.794832,-3.78726 v -59.36184 c 0,-2.18292 1.608196,-3.78354 3.794832,-3.78354 z m 100.8450623,10.45083 4.6870727,16.2748 h -72.722776 l 4.675759,-16.1543 -39.642322,22.8103 39.311038,23.16042 -4.295533,-16.32375 H 13.530404 L 8.9826523,390.33433 48.677683,367.30562 Z" />
  </g>
</svg>
