<?xml version="1.0" encoding="UTF-8" standalone="no"?>
<svg
   xmlns:dc="http://purl.org/dc/elements/1.1/"
   xmlns:cc="http://creativecommons.org/ns#"
   xmlns:rdf="http://www.w3.org/1999/02/22-rdf-syntax-ns#"
   xmlns:svg="http://www.w3.org/2000/svg"
   xmlns="http://www.w3.org/2000/svg"
   xmlns:sodipodi="http://sodipodi.sourceforge.net/DTD/sodipodi-0.dtd"
   xmlns:inkscape="http://www.inkscape.org/namespaces/inkscape"
   width="79.76149mm"
   height="158.75mm"
   viewBox="0 0 79.761484 158.74999"
   version="1.1"
   id="svg6774"
   inkscape:version="1.0 (4035a4fb49, 2020-05-01)"
   sodipodi:docname="Latvia_road_sign_810.svg">
  <defs
     id="defs6768" />
  <sodipodi:namedview
     id="base"
     pagecolor="#ffffff"
     bordercolor="#666666"
     borderopacity="1.0"
     inkscape:pageopacity="0.0"
     inkscape:pageshadow="2"
     inkscape:zoom="0.40983509"
     inkscape:cx="-816.06997"
     inkscape:cy="348.07291"
     inkscape:document-units="mm"
     inkscape:current-layer="layer1"
     inkscape:document-rotation="0"
     showgrid="false"
     fit-margin-top="0"
     fit-margin-left="0"
     fit-margin-right="0"
     fit-margin-bottom="0"
     inkscape:window-width="1920"
     inkscape:window-height="1001"
     inkscape:window-x="-9"
     inkscape:window-y="-9"
     inkscape:window-maximized="1" />
  <metadata
     id="metadata6771">
    <rdf:RDF>
      <cc:Work
         rdf:about="">
        <dc:format>image/svg+xml</dc:format>
        <dc:type
           rdf:resource="http://purl.org/dc/dcmitype/StillImage" />
        <dc:title></dc:title>
      </cc:Work>
    </rdf:RDF>
  </metadata>
  <g
     inkscape:label="Layer 1"
     inkscape:groupmode="layer"
     id="layer1"
     transform="translate(112.67667,48.693816)">
    <g
       id="g2362"
       style="opacity:1"
       inkscape:groupmode="layer" />
    <g
       id="g3914"
       transform="matrix(2.5700371,0,0,-2.5700371,-610.80709,1794.841)"
       style="opacity:1;stroke-width:0.137266">
      <path
         style="color:#000000;font-style:normal;font-variant:normal;font-weight:normal;font-stretch:normal;font-size:medium;line-height:normal;font-family:sans-serif;font-variant-ligatures:normal;font-variant-position:normal;font-variant-caps:normal;font-variant-numeric:normal;font-variant-alternates:normal;font-variant-east-asian:normal;font-feature-settings:normal;font-variation-settings:normal;text-indent:0;text-align:start;text-decoration:none;text-decoration-line:none;text-decoration-style:solid;text-decoration-color:#000000;letter-spacing:normal;word-spacing:normal;text-transform:none;writing-mode:lr-tb;direction:ltr;text-orientation:mixed;dominant-baseline:auto;baseline-shift:baseline;text-anchor:start;white-space:normal;shape-padding:0;shape-margin:0;inline-size:0;clip-rule:nonzero;display:inline;overflow:visible;visibility:visible;isolation:auto;mix-blend-mode:normal;color-interpolation:sRGB;color-interpolation-filters:linearRGB;solid-color:#000000;solid-opacity:1;vector-effect:none;fill:#ffffff;fill-opacity:1;fill-rule:nonzero;stroke:none;stroke-width:0.0411797;stroke-linecap:round;stroke-linejoin:round;stroke-miterlimit:22.926;stroke-dasharray:none;stroke-dashoffset:0;stroke-opacity:1;color-rendering:auto;image-rendering:auto;shape-rendering:auto;text-rendering:auto;enable-background:accumulate;stop-color:#000000;stop-opacity:1"
         d="m 197.79297,655.69922 c -2.12891,0 -3.82031,1.6914 -3.82031,3.82031 v 53.82813 c 0,2.1289 1.6914,3.82421 3.82031,3.82031 l 23.09375,-0.0156 c 2.1289,0 3.82031,-1.67578 3.82031,-3.80468 v -53.82813 c 0,-2.12891 -1.69141,-3.82031 -3.82031,-3.82031 z m 0,0"
         id="path3916" />
      <path
         style="color:#000000;font-style:normal;font-variant:normal;font-weight:normal;font-stretch:normal;font-size:medium;line-height:normal;font-family:sans-serif;font-variant-ligatures:normal;font-variant-position:normal;font-variant-caps:normal;font-variant-numeric:normal;font-variant-alternates:normal;font-variant-east-asian:normal;font-feature-settings:normal;font-variation-settings:normal;text-indent:0;text-align:start;text-decoration:none;text-decoration-line:none;text-decoration-style:solid;text-decoration-color:#000000;letter-spacing:normal;word-spacing:normal;text-transform:none;writing-mode:lr-tb;direction:ltr;text-orientation:mixed;dominant-baseline:auto;baseline-shift:baseline;text-anchor:start;white-space:normal;shape-padding:0;shape-margin:0;inline-size:0;clip-rule:nonzero;display:inline;overflow:visible;visibility:visible;isolation:auto;mix-blend-mode:normal;color-interpolation:sRGB;color-interpolation-filters:linearRGB;solid-color:#000000;solid-opacity:1;vector-effect:none;fill:#000000;fill-opacity:1;fill-rule:nonzero;stroke:none;stroke-width:0.0411797;stroke-linecap:round;stroke-linejoin:round;stroke-miterlimit:22.926;stroke-dasharray:none;stroke-dashoffset:0;stroke-opacity:1;color-rendering:auto;image-rendering:auto;shape-rendering:auto;text-rendering:auto;enable-background:accumulate;stop-color:#000000;stop-opacity:1"
         d="m 197.79297,655.54883 c -2.20836,0 -3.9707,1.76234 -3.9707,3.9707 v 53.82813 c 0,2.20835 1.76201,3.97475 3.9707,3.9707 l 23.09375,-0.0156 c 2.20761,0 3.9707,-1.74672 3.9707,-3.95507 v -53.82813 c 0,-2.20836 -1.76235,-3.9707 -3.9707,-3.9707 z m 0,0.30078 h 23.09375 c 2.04945,0 3.66992,1.62046 3.66992,3.66992 v 53.82813 c 0,2.04945 -1.61974,3.65429 -3.66992,3.65429 l -23.09375,0.0156 c -2.04913,0.004 -3.66992,-1.62047 -3.66992,-3.66992 V 659.5195 c 0,-2.04946 1.62046,-3.66992 3.66992,-3.66992 z"
         id="path3918" />
    </g>
    <path
       id="path2914"
       style="fill:#000000;fill-opacity:1;fill-rule:evenodd;stroke:none;stroke-width:0.352777"
       d="m -102.47059,-45.636763 c -3.94105,0 -7.14921,3.208218 -7.14921,7.149182 V 99.850197 c 0,3.941003 3.20816,7.149153 7.14921,7.149153 h 59.350544 c 3.940972,0 7.149132,-3.20815 7.149132,-7.149153 V -38.487581 c 0,-3.940964 -3.20816,-7.149182 -7.149132,-7.149182 z m 0,3.354365 h 59.350544 c 2.182848,0 3.794759,1.611933 3.794832,3.794817 V 99.850197 c -7.3e-5,2.182943 -1.611984,3.794813 -3.794832,3.794813 h -59.350544 c -2.18292,0 -3.79483,-1.61187 -3.79483,-3.794813 V -38.487581 c 0,-2.182884 1.61191,-3.794817 3.79483,-3.794817 z m 36.269165,6.783992 -13.311999,0.02987 -0.02186,102.392382 -16.154299,-4.690809 22.799007,39.646083 23.160495,-39.314798 -16.312459,4.299293 z" />
  </g>
</svg>
