<?xml version="1.0" encoding="UTF-8" standalone="no"?>
<svg
   xmlns:dc="http://purl.org/dc/elements/1.1/"
   xmlns:cc="http://creativecommons.org/ns#"
   xmlns:rdf="http://www.w3.org/1999/02/22-rdf-syntax-ns#"
   xmlns:svg="http://www.w3.org/2000/svg"
   xmlns="http://www.w3.org/2000/svg"
   xmlns:sodipodi="http://sodipodi.sourceforge.net/DTD/sodipodi-0.dtd"
   xmlns:inkscape="http://www.inkscape.org/namespaces/inkscape"
   width="158.75mm"
   height="79.76152mm"
   viewBox="0 0 158.74999 79.761515"
   version="1.1"
   id="svg6774"
   inkscape:version="1.0 (4035a4fb49, 2020-05-01)"
   sodipodi:docname="Latvia_road_sign_831.svg">
  <defs
     id="defs6768" />
  <sodipodi:namedview
     id="base"
     pagecolor="#ffffff"
     bordercolor="#666666"
     borderopacity="1.0"
     inkscape:pageopacity="0.0"
     inkscape:pageshadow="2"
     inkscape:zoom="0.39362278"
     inkscape:cx="359.3544"
     inkscape:cy="82.218024"
     inkscape:document-units="mm"
     inkscape:current-layer="layer1"
     inkscape:document-rotation="0"
     showgrid="false"
     fit-margin-top="0"
     fit-margin-left="0"
     fit-margin-right="0"
     fit-margin-bottom="0"
     inkscape:window-width="1920"
     inkscape:window-height="1001"
     inkscape:window-x="-9"
     inkscape:window-y="-9"
     inkscape:window-maximized="1" />
  <metadata
     id="metadata6771">
    <rdf:RDF>
      <cc:Work
         rdf:about="">
        <dc:format>image/svg+xml</dc:format>
        <dc:type
           rdf:resource="http://purl.org/dc/dcmitype/StillImage" />
        <dc:title></dc:title>
      </cc:Work>
    </rdf:RDF>
  </metadata>
  <g
     inkscape:label="Layer 1"
     inkscape:groupmode="layer"
     id="layer1"
     transform="translate(-157.01999,-456.91946)">
    <g
       id="g2362"
       style="opacity:1"
       inkscape:groupmode="layer" />
    <g
       transform="matrix(2.5700373,0,0,-2.5700373,-333.21462,877.5623)"
       id="g6941"
       style="opacity:1;stroke-width:0.137266">
      <path
         style="color:#000000;font-style:normal;font-variant:normal;font-weight:normal;font-stretch:normal;font-size:medium;line-height:normal;font-family:sans-serif;font-variant-ligatures:normal;font-variant-position:normal;font-variant-caps:normal;font-variant-numeric:normal;font-variant-alternates:normal;font-variant-east-asian:normal;font-feature-settings:normal;font-variation-settings:normal;text-indent:0;text-align:start;text-decoration:none;text-decoration-line:none;text-decoration-style:solid;text-decoration-color:#000000;letter-spacing:normal;word-spacing:normal;text-transform:none;writing-mode:lr-tb;direction:ltr;text-orientation:mixed;dominant-baseline:auto;baseline-shift:baseline;text-anchor:start;white-space:normal;shape-padding:0;shape-margin:0;inline-size:0;clip-rule:nonzero;display:inline;overflow:visible;visibility:visible;isolation:auto;mix-blend-mode:normal;color-interpolation:sRGB;color-interpolation-filters:linearRGB;solid-color:#000000;solid-opacity:1;vector-effect:none;fill:#ffffff;fill-opacity:1;fill-rule:nonzero;stroke:none;stroke-width:0.0411797;stroke-linecap:round;stroke-linejoin:round;stroke-miterlimit:22.926;stroke-dasharray:none;stroke-dashoffset:0;stroke-opacity:1;color-rendering:auto;image-rendering:auto;shape-rendering:auto;text-rendering:auto;enable-background:accumulate;stop-color:#000000;stop-opacity:1"
         d="m 190.9,159.702 c 0,2.127 1.692,3.819 3.82,3.819 h 53.831 c 2.127,0 3.821,-1.692 3.819,-3.819 l -0.015,-23.096 c -10e-4,-2.127 -1.677,-3.82 -3.804,-3.82 H 194.72 c -2.128,0 -3.82,1.692 -3.82,3.82 z"
         id="path6943" />
      <path
         style="color:#000000;font-style:normal;font-variant:normal;font-weight:normal;font-stretch:normal;font-size:medium;line-height:normal;font-family:sans-serif;font-variant-ligatures:normal;font-variant-position:normal;font-variant-caps:normal;font-variant-numeric:normal;font-variant-alternates:normal;font-variant-east-asian:normal;font-feature-settings:normal;font-variation-settings:normal;text-indent:0;text-align:start;text-decoration:none;text-decoration-line:none;text-decoration-style:solid;text-decoration-color:#000000;letter-spacing:normal;word-spacing:normal;text-transform:none;writing-mode:lr-tb;direction:ltr;text-orientation:mixed;dominant-baseline:auto;baseline-shift:baseline;text-anchor:start;white-space:normal;shape-padding:0;shape-margin:0;inline-size:0;clip-rule:nonzero;display:inline;overflow:visible;visibility:visible;isolation:auto;mix-blend-mode:normal;color-interpolation:sRGB;color-interpolation-filters:linearRGB;solid-color:#000000;solid-opacity:1;vector-effect:none;fill:#000000;fill-opacity:1;fill-rule:nonzero;stroke:none;stroke-width:0.0411797;stroke-linecap:round;stroke-linejoin:round;stroke-miterlimit:22.926;stroke-dasharray:none;stroke-dashoffset:0;stroke-opacity:1;color-rendering:auto;image-rendering:auto;shape-rendering:auto;text-rendering:auto;enable-background:accumulate;stop-color:#000000;stop-opacity:1"
         d="m 194.7207,132.63672 c -2.20751,0 -3.9707,1.76124 -3.9707,3.96875 v 23.0957 c 0,2.20655 1.76319,3.9707 3.9707,3.97071 h 53.83008 c 2.20655,0 3.97083,-1.76399 3.96875,-3.97071 l -0.0137,-23.0957 c -0.001,-2.20576 -1.74848,-3.96875 -3.95508,-3.96875 z m 0,0.29883 h 53.83008 c 2.04741,0 3.65334,1.62168 3.6543,3.66992 l 0.0156,23.0957 c 0.002,2.04728 -1.62247,3.66992 -3.66992,3.66992 H 194.7207 c -2.04849,0 -3.66992,-1.62247 -3.66992,-3.66992 v -23.0957 c 0,-2.04849 1.62143,-3.66992 3.66992,-3.66992 z"
         id="path6945" />
    </g>
    <path
       id="path6216"
       style="fill:#000000;fill-opacity:1;fill-rule:evenodd;stroke:none;stroke-width:0.352777"
       d="m 167.22354,459.98012 c -3.93973,0 -7.14534,3.20473 -7.14534,7.14541 v 59.35434 c 0,3.94068 3.20473,7.14534 7.14534,7.14534 h 138.34535 c 3.93885,0 7.14541,-3.20466 7.14541,-7.14534 v -59.35434 c 0,-3.93791 -3.20473,-7.14541 -7.14541,-7.14541 z m 0,3.35058 h 138.34535 c 2.18627,0 3.79104,1.61089 3.79104,3.79483 v 49.59618 l -8.47058,-0.004 1.28,-1.24612 -0.0219,-12.71717 -55.73267,-0.0291 0.007,12.74733 0.89972,1.20846 -5.60184,-0.004 v 8.61738 l -78.29455,0.004 v -58.17597 c 0,-2.18627 1.60761,-3.79483 3.79483,-3.79483 z m 107.38064,8.80942 c -5.89405,-0.007 -11.87938,0.3271 -18.22867,0.99012 -3.75739,3.74195 -7.16436,10.16118 -9.08422,17.11055 l 10.35292,-0.0146 -0.0291,2.8348 -11.21883,0.007 0.007,1.0428 11.19624,0.0146 v 2.68042 h -11.18488 l 0.007,3.22637 55.74024,0.0146 -0.007,-3.23016 -11.18117,-0.0146 0.0219,-2.67299 11.16237,-0.0291 -0.0219,-1.024 -11.14729,0.0219 v -2.83858 l 10.30775,-0.0146 c -1.01773,-4.99615 -5.67148,-13.67801 -9.02024,-17.0165 -5.9779,-0.71685 -11.78125,-1.07084 -17.6753,-1.08046 z m -0.094,1.94637 c 5.57765,0.006 11.09141,0.29796 16.47433,0.85834 2.93242,4.05294 5.55609,8.28044 7.19059,13.12754 -15.42535,-1.38017 -31.82377,-1.46089 -47.85313,-0.38393 1.40326,-4.74176 5.58719,-10.95518 7.33745,-12.72846 5.63477,-0.59665 11.27318,-0.87859 16.85076,-0.87342 z m 18.98545,36.1411 v 5.13129 l 1.10676,1.35533 -40.53826,-0.0291 0.896,-1.21976 -0.0291,-5.22541 z" />
  </g>
</svg>
