<?xml version="1.0" encoding="UTF-8" standalone="no"?>
<svg
   xmlns:dc="http://purl.org/dc/elements/1.1/"
   xmlns:cc="http://creativecommons.org/ns#"
   xmlns:rdf="http://www.w3.org/1999/02/22-rdf-syntax-ns#"
   xmlns:svg="http://www.w3.org/2000/svg"
   xmlns="http://www.w3.org/2000/svg"
   xmlns:sodipodi="http://sodipodi.sourceforge.net/DTD/sodipodi-0.dtd"
   xmlns:inkscape="http://www.inkscape.org/namespaces/inkscape"
   sodipodi:docname="Latvia_road_sign_804.svg"
   inkscape:version="1.0 (4035a4fb49, 2020-05-01)"
   id="svg6774"
   version="1.1"
   viewBox="0 0 158.74999 79.756465"
   height="79.75647mm"
   width="158.75mm">
  <defs
     id="defs6768" />
  <sodipodi:namedview
     inkscape:window-maximized="1"
     inkscape:window-y="-9"
     inkscape:window-x="-9"
     inkscape:window-height="1001"
     inkscape:window-width="1920"
     fit-margin-bottom="0"
     fit-margin-right="0"
     fit-margin-left="0"
     fit-margin-top="0"
     showgrid="false"
     inkscape:document-rotation="0"
     inkscape:current-layer="layer1"
     inkscape:document-units="mm"
     inkscape:cy="617.87474"
     inkscape:cx="-207.75785"
     inkscape:zoom="0.40983509"
     inkscape:pageshadow="2"
     inkscape:pageopacity="0.0"
     borderopacity="1.0"
     bordercolor="#666666"
     pagecolor="#ffffff"
     id="base" />
  <metadata
     id="metadata6771">
    <rdf:RDF>
      <cc:Work
         rdf:about="">
        <dc:format>image/svg+xml</dc:format>
        <dc:type
           rdf:resource="http://purl.org/dc/dcmitype/StillImage" />
        <dc:title></dc:title>
      </cc:Work>
    </rdf:RDF>
  </metadata>
  <g
     transform="translate(380.93584,334.89906)"
     id="layer1"
     inkscape:groupmode="layer"
     inkscape:label="Layer 1">
    <g
       inkscape:groupmode="layer"
       style="opacity:1"
       id="g2362" />
    <g
       id="g8715"
       transform="matrix(2.5698747,0,0,-2.5698747,-869.66878,724.94839)"
       style="opacity:1;stroke-width:0.137274">
      <path
         style="color:#000000;font-style:normal;font-variant:normal;font-weight:normal;font-stretch:normal;font-size:medium;line-height:normal;font-family:sans-serif;font-variant-ligatures:normal;font-variant-position:normal;font-variant-caps:normal;font-variant-numeric:normal;font-variant-alternates:normal;font-variant-east-asian:normal;font-feature-settings:normal;font-variation-settings:normal;text-indent:0;text-align:start;text-decoration:none;text-decoration-line:none;text-decoration-style:solid;text-decoration-color:#000000;letter-spacing:normal;word-spacing:normal;text-transform:none;writing-mode:lr-tb;direction:ltr;text-orientation:mixed;dominant-baseline:auto;baseline-shift:baseline;text-anchor:start;white-space:normal;shape-padding:0;shape-margin:0;inline-size:0;clip-rule:nonzero;display:inline;overflow:visible;visibility:visible;isolation:auto;mix-blend-mode:normal;color-interpolation:sRGB;color-interpolation-filters:linearRGB;solid-color:#000000;solid-opacity:1;vector-effect:none;fill:#ffffff;fill-opacity:1;fill-rule:nonzero;stroke:none;stroke-width:0.0411823;stroke-linecap:round;stroke-linejoin:round;stroke-miterlimit:22.926;stroke-dasharray:none;stroke-dashoffset:0;stroke-opacity:1;color-rendering:auto;image-rendering:auto;shape-rendering:auto;text-rendering:auto;enable-background:accumulate;stop-color:#000000;stop-opacity:1"
         d="m 190.32812,408.44141 c 0,2.1289 1.69141,3.82031 3.82032,3.82031 h 53.83203 c 2.125,0 3.82031,-1.69141 3.82031,-3.82031 l -0.0156,-23.09375 c -0.004,-2.12891 -1.67969,-3.82032 -3.80469,-3.82032 h -53.83203 c -2.12891,0 -3.82032,1.69141 -3.82032,3.82032 z m 0,0"
         id="path8717" />
      <path
         style="color:#000000;font-style:normal;font-variant:normal;font-weight:normal;font-stretch:normal;font-size:medium;line-height:normal;font-family:sans-serif;font-variant-ligatures:normal;font-variant-position:normal;font-variant-caps:normal;font-variant-numeric:normal;font-variant-alternates:normal;font-variant-east-asian:normal;font-feature-settings:normal;font-variation-settings:normal;text-indent:0;text-align:start;text-decoration:none;text-decoration-line:none;text-decoration-style:solid;text-decoration-color:#000000;letter-spacing:normal;word-spacing:normal;text-transform:none;writing-mode:lr-tb;direction:ltr;text-orientation:mixed;dominant-baseline:auto;baseline-shift:baseline;text-anchor:start;white-space:normal;shape-padding:0;shape-margin:0;inline-size:0;clip-rule:nonzero;display:inline;overflow:visible;visibility:visible;isolation:auto;mix-blend-mode:normal;color-interpolation:sRGB;color-interpolation-filters:linearRGB;solid-color:#000000;solid-opacity:1;vector-effect:none;fill:#000000;fill-opacity:1;fill-rule:nonzero;stroke:none;stroke-width:0.0411823;stroke-linecap:round;stroke-linejoin:round;stroke-miterlimit:22.926;stroke-dasharray:none;stroke-dashoffset:0;stroke-opacity:1;color-rendering:auto;image-rendering:auto;shape-rendering:auto;text-rendering:auto;enable-background:accumulate;stop-color:#000000;stop-opacity:1"
         d="m 194.14844,381.37695 c -2.20836,0 -3.97071,1.76235 -3.97071,3.97071 v 23.09375 c 0,2.20835 1.76235,3.9707 3.97071,3.9707 h 53.83203 c 2.20459,0 3.9707,-1.76217 3.9707,-3.9707 l -0.0156,-23.09375 c -0.004,-2.20748 -1.75049,-3.97071 -3.95508,-3.97071 z m 0,0.30078 h 53.83203 c 2.0454,0 3.65044,1.61958 3.6543,3.66993 l 0.0156,23.09375 c 0,2.04926 -1.62452,3.66992 -3.66992,3.66992 h -53.83203 c -2.04946,0 -3.66992,-1.62047 -3.66992,-3.66992 v -23.09375 c 0,-2.04946 1.62046,-3.66993 3.66992,-3.66993 z"
         id="path8719" />
    </g>
    <path
       id="path6964"
       style="fill:#000000;fill-opacity:1;fill-rule:evenodd;stroke:none;stroke-width:0.352777"
       d="m -370.73035,-331.84349 c -3.93708,0 -7.14868,3.20089 -7.14868,7.14875 v 59.34679 c 0,3.9408 3.20795,7.14868 7.14868,7.14868 h 138.3403 c 3.94073,0 7.13746,-3.2116 7.13746,-7.14868 v -59.34679 c 0,-3.93708 -3.19673,-7.14875 -7.13746,-7.14875 z m 0,3.35416 h 138.3403 c 2.18279,0 3.7833,1.60824 3.7833,3.79459 v 59.34679 c 0,2.18643 -1.60051,3.7946 -3.7833,3.7946 h -138.3403 c -2.18279,0 -3.7946,-1.61181 -3.7946,-3.7946 v -59.34679 c 0,-2.19568 1.6081,-3.79459 3.7946,-3.79459 z m 70.25997,8.59425 c -3.88492,0 -7.04705,3.15216 -7.04705,7.04713 v 11.01102 c 0,3.89498 3.16213,7.05842 7.04705,7.05842 3.89498,0 7.04706,-3.16344 7.04706,-7.05842 v -11.01102 c 0,-3.89497 -3.15208,-7.04713 -7.04706,-7.04713 z m -18.06186,0.0291 c -3.86489,-0.36132 -7.30683,2.47956 -7.66822,6.35443 h 3.55361 c 0.31106,-1.65639 1.76559,-2.86099 3.45207,-2.86099 1.95746,0 3.53482,1.57604 3.53482,3.52353 0,1.94749 -1.57736,3.52353 -3.53482,3.52353 h -1.53598 v 3.07938 h 1.53598 c 2.07795,0 3.74564,1.68896 3.74564,3.75693 v 0.42907 c 0,1.72662 -1.17327,3.23236 -2.8497,3.64402 -2.01778,0.49171 -4.03681,-0.75164 -4.52867,-2.75937 h -3.57248 c 0.44145,3.654 3.54108,6.39581 7.20521,6.39581 4.02544,0 7.26917,-3.26507 7.26917,-7.28046 v -0.42907 c 0,-2.1382 -1.06408,-4.12837 -2.83091,-5.32299 1.63629,-1.14442 2.62009,-3.02912 2.62009,-5.03685 0,-3.63396 -2.7719,-6.67568 -6.39581,-7.01697 z m 18.06186,3.49344 c 1.93744,0 3.52353,1.57604 3.52353,3.52353 v 11.01109 c 0,1.95754 -1.58609,3.53482 -3.52353,3.53482 -1.94748,0 -3.51602,-1.57728 -3.51602,-3.53482 v -11.01109 c 0,-1.94749 1.56854,-3.52353 3.51602,-3.52353 z m 22.2706,8.22915 c -1.42503,-0.12384 -2.88489,0.43926 -3.85105,1.63752 v -1.48695 h -2.63138 v 13.19067 h 2.63138 v -8.07857 c 0,-1.45555 1.18332,-2.64259 2.63887,-2.64259 1.45563,0 2.64267,1.18704 2.64267,2.64259 v 8.07857 h 2.62758 v -8.07857 c 0,-1.45555 1.18704,-2.64259 2.64267,-2.64259 1.45555,0 2.63888,1.18704 2.63888,2.64259 v 8.07857 h 2.63887 v -8.4098 c 0,-1.48571 -0.65999,-2.89115 -1.81447,-3.82468 -2.11809,-1.72669 -5.23135,-1.41549 -6.96802,0.69277 -0.22072,-0.31105 -0.48151,-0.5835 -0.78303,-0.82441 -0.71535,-0.57986 -1.55797,-0.90082 -2.41297,-0.97498 z m -63.61948,16.24368 -22.63949,13.65368 22.6094,13.13043 -2.30014,-9.01589 99.64166,-0.0583 v -8.11995 l -99.69054,0.051 z" />
  </g>
</svg>
