<?xml version="1.0" encoding="UTF-8" standalone="no"?>
<svg
   xmlns:dc="http://purl.org/dc/elements/1.1/"
   xmlns:cc="http://creativecommons.org/ns#"
   xmlns:rdf="http://www.w3.org/1999/02/22-rdf-syntax-ns#"
   xmlns:svg="http://www.w3.org/2000/svg"
   xmlns="http://www.w3.org/2000/svg"
   xmlns:sodipodi="http://sodipodi.sourceforge.net/DTD/sodipodi-0.dtd"
   xmlns:inkscape="http://www.inkscape.org/namespaces/inkscape"
   width="158.75mm"
   height="79.76152mm"
   viewBox="0 0 158.74999 79.761515"
   version="1.1"
   id="svg6774"
   inkscape:version="1.0 (4035a4fb49, 2020-05-01)"
   sodipodi:docname="Latvia_road_sign_811.svg">
  <defs
     id="defs6768" />
  <sodipodi:namedview
     id="base"
     pagecolor="#ffffff"
     bordercolor="#666666"
     borderopacity="1.0"
     inkscape:pageopacity="0.0"
     inkscape:pageshadow="2"
     inkscape:zoom="0.40983509"
     inkscape:cx="79.111741"
     inkscape:cy="36.922354"
     inkscape:document-units="mm"
     inkscape:current-layer="layer1"
     inkscape:document-rotation="0"
     showgrid="false"
     fit-margin-top="0"
     fit-margin-left="0"
     fit-margin-right="0"
     fit-margin-bottom="0"
     inkscape:window-width="1920"
     inkscape:window-height="1001"
     inkscape:window-x="-9"
     inkscape:window-y="-9"
     inkscape:window-maximized="1" />
  <metadata
     id="metadata6771">
    <rdf:RDF>
      <cc:Work
         rdf:about="">
        <dc:format>image/svg+xml</dc:format>
        <dc:type
           rdf:resource="http://purl.org/dc/dcmitype/StillImage" />
        <dc:title></dc:title>
      </cc:Work>
    </rdf:RDF>
  </metadata>
  <g
     inkscape:label="Layer 1"
     inkscape:groupmode="layer"
     id="layer1"
     transform="translate(349.52683,-33.631435)">
    <g
       id="g2362"
       style="opacity:1"
       inkscape:groupmode="layer" />
    <g
       id="g3944"
       transform="matrix(2.5700374,0,0,-2.5700374,-808.16306,1661.1528)"
       style="opacity:1;stroke-width:0.137266">
      <path
         style="color:#000000;font-style:normal;font-variant:normal;font-weight:normal;font-stretch:normal;font-size:medium;line-height:normal;font-family:sans-serif;font-variant-ligatures:normal;font-variant-position:normal;font-variant-caps:normal;font-variant-numeric:normal;font-variant-alternates:normal;font-variant-east-asian:normal;font-feature-settings:normal;font-variation-settings:normal;text-indent:0;text-align:start;text-decoration:none;text-decoration-line:none;text-decoration-style:solid;text-decoration-color:#000000;letter-spacing:normal;word-spacing:normal;text-transform:none;writing-mode:lr-tb;direction:ltr;text-orientation:mixed;dominant-baseline:auto;baseline-shift:baseline;text-anchor:start;white-space:normal;shape-padding:0;shape-margin:0;inline-size:0;clip-rule:nonzero;display:inline;overflow:visible;visibility:visible;isolation:auto;mix-blend-mode:normal;color-interpolation:sRGB;color-interpolation-filters:linearRGB;solid-color:#000000;solid-opacity:1;vector-effect:none;fill:#ffffff;fill-opacity:1;fill-rule:nonzero;stroke:none;stroke-width:0.0411797;stroke-linecap:round;stroke-linejoin:round;stroke-miterlimit:22.926;stroke-dasharray:none;stroke-dashoffset:0;stroke-opacity:1;color-rendering:auto;image-rendering:auto;shape-rendering:auto;text-rendering:auto;enable-background:accumulate;stop-color:#000000;stop-opacity:1"
         d="m 178.60547,629.30078 c 0,2.125 1.6914,3.81641 3.82031,3.81641 h 53.82813 c 2.1289,0 3.82031,-1.69141 3.82031,-3.81641 l -0.0156,-23.09766 c 0,-2.1289 -1.67578,-3.82031 -3.80468,-3.82031 h -53.82813 c -2.12891,0 -3.82031,1.69141 -3.82031,3.82031 z m 0,0"
         id="path3946" />
      <path
         style="color:#000000;font-style:normal;font-variant:normal;font-weight:normal;font-stretch:normal;font-size:medium;line-height:normal;font-family:sans-serif;font-variant-ligatures:normal;font-variant-position:normal;font-variant-caps:normal;font-variant-numeric:normal;font-variant-alternates:normal;font-variant-east-asian:normal;font-feature-settings:normal;font-variation-settings:normal;text-indent:0;text-align:start;text-decoration:none;text-decoration-line:none;text-decoration-style:solid;text-decoration-color:#000000;letter-spacing:normal;word-spacing:normal;text-transform:none;writing-mode:lr-tb;direction:ltr;text-orientation:mixed;dominant-baseline:auto;baseline-shift:baseline;text-anchor:start;white-space:normal;shape-padding:0;shape-margin:0;inline-size:0;clip-rule:nonzero;display:inline;overflow:visible;visibility:visible;isolation:auto;mix-blend-mode:normal;color-interpolation:sRGB;color-interpolation-filters:linearRGB;solid-color:#000000;solid-opacity:1;vector-effect:none;fill:#000000;fill-opacity:1;fill-rule:nonzero;stroke:none;stroke-width:0.0411797;stroke-linecap:round;stroke-linejoin:round;stroke-miterlimit:22.926;stroke-dasharray:none;stroke-dashoffset:0;stroke-opacity:1;color-rendering:auto;image-rendering:auto;shape-rendering:auto;text-rendering:auto;enable-background:accumulate;stop-color:#000000;stop-opacity:1"
         d="m 182.42578,602.23242 c -2.20836,0 -3.9707,1.76236 -3.9707,3.9707 v 23.09766 c 0,2.2046 1.76234,3.9668 3.9707,3.9668 h 53.82813 c 2.20835,0 3.9707,-1.7622 3.9707,-3.9668 l -0.0156,-23.09766 c 0,-2.20761 -1.74672,-3.9707 -3.95507,-3.9707 z m 0,0.30078 h 53.82813 c 2.04945,0 3.65429,1.61974 3.65429,3.66992 l 0.0156,23.09766 c 0,2.04541 -1.62047,3.66602 -3.66992,3.66602 h -53.82813 c -2.04946,0 -3.66992,-1.62061 -3.66992,-3.66602 v -23.09766 c 0,-2.04945 1.62046,-3.66992 3.66992,-3.66992 z"
         id="path3948" />
    </g>
    <path
       id="path2910"
       style="fill:#000000;fill-opacity:1;fill-rule:evenodd;stroke:none;stroke-width:0.352777"
       d="m -339.32196,36.689759 c -3.94105,0 -7.14921,3.204036 -7.14921,7.137891 v 59.36183 c 0,3.94098 3.20816,7.14542 7.14921,7.14542 h 138.34156 c 3.94097,2e-5 7.14541,-3.20444 7.14541,-7.14542 V 43.82765 c 0,-3.933855 -3.20444,-7.137891 -7.14541,-7.137891 z m 0,3.350606 h 138.34156 c 2.18284,0 3.79483,1.617295 3.79483,3.787285 v 59.36183 c 0,2.18289 -1.61199,3.79482 -3.79483,3.79482 h -138.34156 c -2.183,0 -3.79484,-1.61193 -3.79484,-3.79482 V 43.82765 c 0,-2.16999 1.61184,-3.787285 3.79484,-3.787285 z m 49.32138,6.396212 -25.09558,25.057862 -8.11288,-14.738803 -11.90779,44.152444 44.18258,-11.414574 -14.57692,-8.500709 24.93735,-25.170796 z m 39.71759,0 -9.38917,9.426825 25.05784,25.099271 -14.73501,8.109183 44.16001,11.896454 -11.42217,-44.171273 -8.50446,14.576935 z" />
  </g>
</svg>
