<?xml version="1.0" encoding="UTF-8" standalone="no"?>
<svg
   xmlns:dc="http://purl.org/dc/elements/1.1/"
   xmlns:cc="http://creativecommons.org/ns#"
   xmlns:rdf="http://www.w3.org/1999/02/22-rdf-syntax-ns#"
   xmlns:svg="http://www.w3.org/2000/svg"
   xmlns="http://www.w3.org/2000/svg"
   xmlns:sodipodi="http://sodipodi.sourceforge.net/DTD/sodipodi-0.dtd"
   xmlns:inkscape="http://www.inkscape.org/namespaces/inkscape"
   sodipodi:docname="Latvia_road_sign_806.svg"
   inkscape:version="1.0 (4035a4fb49, 2020-05-01)"
   id="svg6774"
   version="1.1"
   viewBox="0 0 158.74999 79.756503"
   height="79.756508mm"
   width="158.75mm">
  <defs
     id="defs6768" />
  <sodipodi:namedview
     inkscape:window-maximized="1"
     inkscape:window-y="-9"
     inkscape:window-x="-9"
     inkscape:window-height="1001"
     inkscape:window-width="1920"
     fit-margin-bottom="0"
     fit-margin-right="0"
     fit-margin-left="0"
     fit-margin-top="0"
     showgrid="false"
     inkscape:document-rotation="0"
     inkscape:current-layer="layer1"
     inkscape:document-units="mm"
     inkscape:cy="85.853522"
     inkscape:cx="430.92825"
     inkscape:zoom="0.40983509"
     inkscape:pageshadow="2"
     inkscape:pageopacity="0.0"
     borderopacity="1.0"
     bordercolor="#666666"
     pagecolor="#ffffff"
     id="base" />
  <metadata
     id="metadata6771">
    <rdf:RDF>
      <cc:Work
         rdf:about="">
        <dc:format>image/svg+xml</dc:format>
        <dc:type
           rdf:resource="http://purl.org/dc/dcmitype/StillImage" />
        <dc:title></dc:title>
      </cc:Work>
    </rdf:RDF>
  </metadata>
  <g
     transform="translate(549.92153,194.13511)"
     id="layer1"
     inkscape:groupmode="layer"
     inkscape:label="Layer 1">
    <g
       inkscape:groupmode="layer"
       style="opacity:1"
       id="g2362" />
    <g
       transform="matrix(2.5698759,0,0,2.5698759,-1038.469,-1582.3399)"
       id="g8777"
       style="opacity:1;stroke-width:0.137274">
      <path
         style="color:#000000;font-style:normal;font-variant:normal;font-weight:normal;font-stretch:normal;font-size:medium;line-height:normal;font-family:sans-serif;font-variant-ligatures:normal;font-variant-position:normal;font-variant-caps:normal;font-variant-numeric:normal;font-variant-alternates:normal;font-variant-east-asian:normal;font-feature-settings:normal;font-variation-settings:normal;text-indent:0;text-align:start;text-decoration:none;text-decoration-line:none;text-decoration-style:solid;text-decoration-color:#000000;letter-spacing:normal;word-spacing:normal;text-transform:none;writing-mode:lr-tb;direction:ltr;text-orientation:mixed;dominant-baseline:auto;baseline-shift:baseline;text-anchor:start;white-space:normal;shape-padding:0;shape-margin:0;inline-size:0;clip-rule:nonzero;display:inline;overflow:visible;visibility:visible;isolation:auto;mix-blend-mode:normal;color-interpolation:sRGB;color-interpolation-filters:linearRGB;solid-color:#000000;solid-opacity:1;vector-effect:none;fill:#ffffff;fill-opacity:1;fill-rule:nonzero;stroke:none;stroke-width:0.0411823;stroke-linecap:round;stroke-linejoin:round;stroke-miterlimit:22.926;stroke-dasharray:none;stroke-dashoffset:0;stroke-opacity:1;color-rendering:auto;image-rendering:auto;shape-rendering:auto;text-rendering:auto;enable-background:accumulate;stop-color:#000000;stop-opacity:1"
         d="m 190.25626,544.15408 c 0,-2.1289 1.69141,-3.82031 3.82032,-3.82031 h 53.83203 c 2.125,0 3.82031,1.69141 3.82031,3.82031 l -0.0156,23.09766 c -0.004,2.125 -1.67969,3.8164 -3.80469,3.8164 H 194.0766 c -2.12891,0 -3.82032,-1.6914 -3.82032,-3.8164 z m 0,0"
         id="path8779" />
      <path
         style="color:#000000;font-style:normal;font-variant:normal;font-weight:normal;font-stretch:normal;font-size:medium;line-height:normal;font-family:sans-serif;font-variant-ligatures:normal;font-variant-position:normal;font-variant-caps:normal;font-variant-numeric:normal;font-variant-alternates:normal;font-variant-east-asian:normal;font-feature-settings:normal;font-variation-settings:normal;text-indent:0;text-align:start;text-decoration:none;text-decoration-line:none;text-decoration-style:solid;text-decoration-color:#000000;letter-spacing:normal;word-spacing:normal;text-transform:none;writing-mode:lr-tb;direction:ltr;text-orientation:mixed;dominant-baseline:auto;baseline-shift:baseline;text-anchor:start;white-space:normal;shape-padding:0;shape-margin:0;inline-size:0;clip-rule:nonzero;display:inline;overflow:visible;visibility:visible;isolation:auto;mix-blend-mode:normal;color-interpolation:sRGB;color-interpolation-filters:linearRGB;solid-color:#000000;solid-opacity:1;vector-effect:none;fill:#000000;fill-opacity:1;fill-rule:nonzero;stroke:none;stroke-width:0.0411823;stroke-linecap:round;stroke-linejoin:round;stroke-miterlimit:22.926;stroke-dasharray:none;stroke-dashoffset:0;stroke-opacity:1;color-rendering:auto;image-rendering:auto;shape-rendering:auto;text-rendering:auto;enable-background:accumulate;stop-color:#000000;stop-opacity:1"
         d="m 194.07617,540.18359 c -2.20836,0 -3.9707,1.76236 -3.9707,3.97071 v 23.09765 c 0,2.2046 1.76234,3.9668 3.9707,3.9668 h 53.83203 c 2.2046,0 3.95093,-1.76309 3.95508,-3.9668 l 0.0156,-23.09765 c 0,-2.20854 -1.76611,-3.97071 -3.97071,-3.97071 z m 0,0.30079 h 53.83203 c 2.04541,0 3.66993,1.62065 3.66992,3.66992 l -0.0156,23.09765 c -0.004,2.0463 -1.60889,3.66602 -3.6543,3.66602 h -53.83203 c -2.04946,0 -3.66992,-1.62061 -3.66992,-3.66602 V 544.1543 c 0,-2.04945 1.62046,-3.66992 3.66992,-3.66992 z"
         id="path8781" />
    </g>
    <path
       id="path7280"
       style="fill:#000000;fill-opacity:1;fill-rule:evenodd;stroke:none;stroke-width:0.352777"
       d="m -539.7148,-191.07957 c -3.94073,0 -7.14869,3.20796 -7.14869,7.14868 v 59.35812 c 0,3.94072 3.21161,7.13746 7.14869,7.13746 h 138.34037 c 3.93709,0 7.13747,-3.20038 7.13747,-7.13746 v -59.35812 c 0,-3.93708 -3.19674,-7.14868 -7.13747,-7.14868 z m 0,3.35409 h 138.34037 c 2.18279,0 3.78331,1.60817 3.78331,3.79459 v 59.35812 c 0,2.18642 -1.59688,3.7833 -3.78331,3.7833 H -539.7148 c -2.18643,0 -3.7946,-1.60052 -3.7946,-3.7833 v -59.35812 c 0,-2.18271 1.61181,-3.79459 3.7946,-3.79459 z m 47.29299,6.77986 v 12.20811 h 3.17343 c 0.54198,-1.12431 1.6765,-1.82576 2.92123,-1.82576 1.80697,0 3.26384,1.45432 3.26384,3.24125 v 2.86099 c 0,1.55594 -1.11427,2.90113 -2.65017,3.19222 -1.75678,0.34093 -3.4646,-0.82185 -3.80589,-2.57863 h -3.28262 c 0.31105,3.33282 3.12199,5.89142 6.47484,5.89135 3.60389,0 6.50501,-2.91111 6.50501,-6.50494 v -3.46336 c 0,-1.32501 -0.44145,-2.62132 -1.26484,-3.65524 -2.01778,-2.55991 -5.73203,-2.98905 -8.28181,-0.97126 v -5.13097 h 9.14388 v -3.26376 z m 54.27989,0.21053 -4.42705,0.051 0.0146,37.42253 -39.45161,-0.0291 1.62623,-6.5163 -19.63544,9.87047 19.63544,9.79513 -1.62623,-6.39202 39.53065,0.007 0.0219,9.97966 h 4.31785 l 0.0146,-9.95707 -0.0219,-6.75721 z m -29.0203,10.63083 c -1.3213,-0.1151 -2.674,0.40649 -3.56499,1.51704 v -1.37404 h -2.45064 v 12.22698 h 2.45064 v -7.49128 c 0,-1.35517 1.09431,-2.44685 2.43943,-2.44685 1.35524,0 2.45064,1.09168 2.45064,2.44685 v 7.49128 h 2.44693 v -7.49128 c 0,-1.35517 1.09547,-2.44685 2.45064,-2.44685 1.34519,0 2.43935,1.09168 2.43935,2.44685 v 7.49128 h 2.45071 v -7.79993 c 0,-1.37528 -0.62211,-2.6828 -1.68647,-3.54611 -1.95755,-1.6062 -4.84993,-1.3138 -6.45606,0.64396 -0.21053,-0.29138 -0.45311,-0.54343 -0.73408,-0.76416 -0.66217,-0.53834 -1.44331,-0.83453 -2.2361,-0.90345 z" />
  </g>
</svg>
