<?xml version="1.0" encoding="UTF-8" standalone="no"?>
<svg
   xmlns:dc="http://purl.org/dc/elements/1.1/"
   xmlns:cc="http://creativecommons.org/ns#"
   xmlns:rdf="http://www.w3.org/1999/02/22-rdf-syntax-ns#"
   xmlns:svg="http://www.w3.org/2000/svg"
   xmlns="http://www.w3.org/2000/svg"
   xmlns:sodipodi="http://sodipodi.sourceforge.net/DTD/sodipodi-0.dtd"
   xmlns:inkscape="http://www.inkscape.org/namespaces/inkscape"
   width="158.75mm"
   height="79.758987mm"
   viewBox="0 0 158.74999 79.758982"
   version="1.1"
   id="svg6774"
   inkscape:version="1.0 (4035a4fb49, 2020-05-01)"
   sodipodi:docname="Latvia_road_sign_828.svg">
  <defs
     id="defs6768" />
  <sodipodi:namedview
     id="base"
     pagecolor="#ffffff"
     bordercolor="#666666"
     borderopacity="1.0"
     inkscape:pageopacity="0.0"
     inkscape:pageshadow="2"
     inkscape:zoom="0.39362278"
     inkscape:cx="-650.82162"
     inkscape:cy="91.281661"
     inkscape:document-units="mm"
     inkscape:current-layer="layer1"
     inkscape:document-rotation="0"
     showgrid="false"
     fit-margin-top="0"
     fit-margin-left="0"
     fit-margin-right="0"
     fit-margin-bottom="0"
     inkscape:window-width="1920"
     inkscape:window-height="1001"
     inkscape:window-x="-9"
     inkscape:window-y="-9"
     inkscape:window-maximized="1" />
  <metadata
     id="metadata6771">
    <rdf:RDF>
      <cc:Work
         rdf:about="">
        <dc:format>image/svg+xml</dc:format>
        <dc:type
           rdf:resource="http://purl.org/dc/dcmitype/StillImage" />
        <dc:title></dc:title>
      </cc:Work>
    </rdf:RDF>
  </metadata>
  <g
     inkscape:label="Layer 1"
     inkscape:groupmode="layer"
     id="layer1"
     transform="translate(-424.29574,-454.52138)">
    <g
       id="g2362"
       style="opacity:1"
       inkscape:groupmode="layer" />
    <g
       transform="matrix(2.5699558,0,0,-2.5699558,-64.48274,1301.3168)"
       id="g6923"
       style="opacity:1;stroke-width:0.13727">
      <path
         style="color:#000000;font-style:normal;font-variant:normal;font-weight:normal;font-stretch:normal;font-size:medium;line-height:normal;font-family:sans-serif;font-variant-ligatures:normal;font-variant-position:normal;font-variant-caps:normal;font-variant-numeric:normal;font-variant-alternates:normal;font-variant-east-asian:normal;font-feature-settings:normal;font-variation-settings:normal;text-indent:0;text-align:start;text-decoration:none;text-decoration-line:none;text-decoration-style:solid;text-decoration-color:#000000;letter-spacing:normal;word-spacing:normal;text-transform:none;writing-mode:lr-tb;direction:ltr;text-orientation:mixed;dominant-baseline:auto;baseline-shift:baseline;text-anchor:start;white-space:normal;shape-padding:0;shape-margin:0;inline-size:0;clip-rule:nonzero;display:inline;overflow:visible;visibility:visible;isolation:auto;mix-blend-mode:normal;color-interpolation:sRGB;color-interpolation-filters:linearRGB;solid-color:#000000;solid-opacity:1;vector-effect:none;fill:#ffffff;fill-opacity:1;fill-rule:nonzero;stroke:none;stroke-width:0.041181;stroke-linecap:round;stroke-linejoin:round;stroke-miterlimit:22.926;stroke-dasharray:none;stroke-dashoffset:0;stroke-opacity:1;color-rendering:auto;image-rendering:auto;shape-rendering:auto;text-rendering:auto;enable-background:accumulate;stop-color:#000000;stop-opacity:1"
         d="m 190.34,325.528 c 0,2.128 1.693,3.82 3.82,3.82 h 53.831 c 2.127,0 3.821,-1.692 3.82,-3.82 l -0.016,-23.096 c -10e-4,-2.127 -1.677,-3.819 -3.804,-3.819 H 194.16 c -2.127,0 -3.82,1.692 -3.82,3.819 z"
         id="path6925" />
      <path
         style="color:#000000;font-style:normal;font-variant:normal;font-weight:normal;font-stretch:normal;font-size:medium;line-height:normal;font-family:sans-serif;font-variant-ligatures:normal;font-variant-position:normal;font-variant-caps:normal;font-variant-numeric:normal;font-variant-alternates:normal;font-variant-east-asian:normal;font-feature-settings:normal;font-variation-settings:normal;text-indent:0;text-align:start;text-decoration:none;text-decoration-line:none;text-decoration-style:solid;text-decoration-color:#000000;letter-spacing:normal;word-spacing:normal;text-transform:none;writing-mode:lr-tb;direction:ltr;text-orientation:mixed;dominant-baseline:auto;baseline-shift:baseline;text-anchor:start;white-space:normal;shape-padding:0;shape-margin:0;inline-size:0;clip-rule:nonzero;display:inline;overflow:visible;visibility:visible;isolation:auto;mix-blend-mode:normal;color-interpolation:sRGB;color-interpolation-filters:linearRGB;solid-color:#000000;solid-opacity:1;vector-effect:none;fill:#000000;fill-opacity:1;fill-rule:nonzero;stroke:none;stroke-width:0.041181;stroke-linecap:round;stroke-linejoin:round;stroke-miterlimit:22.926;stroke-dasharray:none;stroke-dashoffset:0;stroke-opacity:1;color-rendering:auto;image-rendering:auto;shape-rendering:auto;text-rendering:auto;enable-background:accumulate;stop-color:#000000;stop-opacity:1"
         d="m 194.16016,298.46289 c -2.20655,0 -3.97071,1.76215 -3.97071,3.96875 v 23.0957 c 0,2.20756 1.76416,3.97071 3.97071,3.97071 h 53.83007 c 2.20655,0 3.97174,-1.76306 3.97071,-3.97071 l -0.0156,-23.0957 c -10e-4,-2.20576 -1.74853,-3.96875 -3.95508,-3.96875 z m 0,0.30078 h 53.83007 c 2.04746,0 3.65334,1.61973 3.6543,3.66797 l 0.0156,23.0957 c 9.6e-4,2.04836 -1.62247,3.66993 -3.66993,3.66993 h -53.83007 c -2.04746,0 -3.66993,-1.62148 -3.66993,-3.66993 v -23.0957 c 0,-2.0474 1.62247,-3.66797 3.66993,-3.66797 z"
         id="path6927" />
    </g>
    <path
       id="path6094"
       style="fill:#000000;fill-opacity:1;fill-rule:evenodd;stroke:none;stroke-width:0.352777"
       d="m 434.50156,457.57809 c -3.94055,0 -7.14519,3.20937 -7.14519,7.14897 v 59.35239 c 0,3.93778 3.20464,7.14519 7.14519,7.14519 h 138.34096 c 3.93873,0 7.1414,-3.20646 7.1414,-7.14519 v -59.35239 c 0,-3.9396 -3.20084,-7.14897 -7.1414,-7.14897 z m 0,3.35426 h 138.34096 c 2.1862,0 3.79471,1.60756 3.79471,3.79471 v 59.35239 c 0,2.18292 -1.61179,3.79092 -3.79471,3.79092 H 434.50156 c -2.1862,0 -3.79092,-1.60705 -3.79092,-3.79092 v -59.35239 c 0,-2.18715 1.60472,-3.79471 3.79092,-3.79471 z m 74.50486,5.16122 -3.10949,3.12086 2.71421,2.6992 -3.68551,3.69309 -3.69309,-3.6818 2.67291,-2.67662 -3.10206,-3.12836 -6.82517,6.81387 0.30888,5.93677 4.63037,-4.65681 3.71946,3.68551 -8.19174,8.18045 2.23989,2.26634 8.18424,-8.19174 8.2294,8.2294 2.27756,-2.304 -8.21812,-8.22933 3.69681,-3.6818 4.68696,4.67561 0.26736,-5.94799 z m -61.48315,26.22788 c -4.43061,0 -8.01857,3.58796 -8.01857,8.01857 0,2.22299 1.01821,4.32447 2.76324,5.70708 -2.05085,1.4572 -3.26773,3.81489 -3.26773,6.32826 0,4.70561 3.81745,8.52306 8.52306,8.52306 4.70555,0 8.52678,-3.81745 8.52678,-8.52306 0,-2.51337 -1.21688,-4.87106 -3.26765,-6.32826 1.74503,-1.38261 2.76317,-3.48409 2.76317,-5.70708 0,-4.43061 -3.59168,-8.01857 -8.0223,-8.01857 z m 66.9268,0.13185 -4.03191,3.02674 v 4.28411 l 4.03191,-3.02674 v 23.94275 h 4.03555 V 492.4533 Z m 10.58972,0 v 8.06375 h 4.03191 v -4.03191 h 7.55926 l -9.57332,24.19502 h 4.53631 l 9.56954,-24.44723 v -3.77963 z m -77.51652,3.87754 c 2.21527,0 4.01304,1.79399 4.01304,4.00926 0,2.21789 -1.79777,4.01304 -4.01304,4.01304 -2.21527,0 -4.00932,-1.79515 -4.00932,-4.01304 0,-2.21527 1.79405,-4.00926 4.00932,-4.00926 z m 120.00738,5.24026 c -2.9914,0 -5.41721,2.43076 -5.41721,5.42479 v 8.4741 c 0,2.9914 2.42581,5.42471 5.41721,5.42471 2.99148,0 5.421,-2.43331 5.421,-5.42471 v -8.4741 c 0,-2.99403 -2.42952,-5.42479 -5.421,-5.42479 z m -13.89131,0.0291 c -2.97858,-0.28047 -5.6265,1.90646 -5.90661,4.89014 h 2.73308 c 0.24405,-1.27981 1.36112,-2.20222 2.66155,-2.20222 1.49828,0 2.71428,1.21221 2.71428,2.71049 0,1.49829 -1.216,2.71422 -2.71428,2.71422 h -1.18205 v 2.36796 h 1.18205 c 1.59335,0 2.88366,1.29285 2.88366,2.88366 v 0.3351 c 0,1.33125 -0.91215,2.49108 -2.20223,2.80462 -1.54972,0.37518 -3.10206,-0.57842 -3.47476,-2.12326 h -2.75567 c 0.34458,2.80644 2.72718,4.91659 5.549,4.91659 3.09164,0 5.59415,-2.5063 5.59415,-5.59795 v -0.3351 c 0,-1.64224 -0.81882,-3.17601 -2.18343,-4.08837 1.25927,-0.88657 2.01785,-2.33037 2.01785,-3.87747 0,-2.79617 -2.13077,-5.1363 -4.91659,-5.39841 z m -69.44527,0.0437 c -2.96058,0 -5.36453,2.40133 -5.36453,5.36447 v 8.39127 c 0,2.96059 2.40395,5.36454 5.36453,5.36454 2.96059,0 5.36075,-2.40395 5.36075,-5.36454 v -8.39127 c 0,-2.96314 -2.40016,-5.36447 -5.36075,-5.36447 z m -13.58636,0.051 c -2.97348,0 -5.38712,2.41109 -5.38712,5.38713 v 8.42136 c 0,2.97341 2.41364,5.38712 5.38712,5.38712 2.97086,0 5.38333,-2.41371 5.38333,-5.38712 v -8.42136 c 0,-2.97604 -2.41247,-5.38713 -5.38333,-5.38713 z m 96.92294,2.5938 c 1.49312,0 2.7105,1.21221 2.7105,2.7105 v 8.4741 c 0,1.49829 -1.21738,2.7105 -2.7105,2.7105 -1.49829,0 -2.70671,-1.21221 -2.70671,-2.7105 v -8.4741 c 0,-1.49829 1.20842,-2.7105 2.70671,-2.7105 z m -83.33658,0.0364 c 1.47775,0 2.67663,1.20012 2.67663,2.68041 v 8.39121 c 0,1.48291 -1.19888,2.68041 -2.67663,2.68041 -1.48284,0 -2.68041,-1.1975 -2.68041,-2.68041 v -8.39121 c 0,-1.48029 1.19757,-2.68041 2.68041,-2.68041 z m -13.58636,0.0583 c 1.48284,0 2.68791,1.2074 2.68791,2.69542 v 8.42136 c 0,1.48802 -1.20507,2.69542 -2.68791,2.69542 -1.49057,0 -2.6917,-1.2074 -2.6917,-2.69542 v -8.42136 c 0,-1.48802 1.20113,-2.69542 2.6917,-2.69542 z m 23.18227,3.44832 v 3.99045 l 12.4081,0.0291 v -3.99045 z m -46.26671,0.0291 c 2.49028,0 4.51374,2.026 4.51374,4.51373 0,2.49027 -2.02346,4.51373 -4.51374,4.51373 -2.48772,0 -4.51001,-2.02346 -4.50994,-4.51373 0,-2.48773 2.02222,-4.51373 4.50994,-4.51373 z m 93.64022,8.78655 v 4.03184 h 4.03191 v -4.03184 z m -82.26366,0.10927 v 4.01304 h 4.00554 v -4.01282 z" />
  </g>
</svg>
