<?xml version="1.0" encoding="UTF-8" standalone="no"?>
<svg
   xmlns:dc="http://purl.org/dc/elements/1.1/"
   xmlns:cc="http://creativecommons.org/ns#"
   xmlns:rdf="http://www.w3.org/1999/02/22-rdf-syntax-ns#"
   xmlns:svg="http://www.w3.org/2000/svg"
   xmlns="http://www.w3.org/2000/svg"
   xmlns:sodipodi="http://sodipodi.sourceforge.net/DTD/sodipodi-0.dtd"
   xmlns:inkscape="http://www.inkscape.org/namespaces/inkscape"
   width="158.75mm"
   height="79.758987mm"
   viewBox="0 0 158.74999 79.758982"
   version="1.1"
   id="svg6774"
   inkscape:version="1.0 (4035a4fb49, 2020-05-01)"
   sodipodi:docname="Latvia_road_sign_829.svg">
  <defs
     id="defs6768" />
  <sodipodi:namedview
     id="base"
     pagecolor="#ffffff"
     bordercolor="#666666"
     borderopacity="1.0"
     inkscape:pageopacity="0.0"
     inkscape:pageshadow="2"
     inkscape:zoom="0.39362278"
     inkscape:cx="-312.40174"
     inkscape:cy="513.37135"
     inkscape:document-units="mm"
     inkscape:current-layer="layer1"
     inkscape:document-rotation="0"
     showgrid="false"
     fit-margin-top="0"
     fit-margin-left="0"
     fit-margin-right="0"
     fit-margin-bottom="0"
     inkscape:window-width="1920"
     inkscape:window-height="1001"
     inkscape:window-x="-9"
     inkscape:window-y="-9"
     inkscape:window-maximized="1" />
  <metadata
     id="metadata6771">
    <rdf:RDF>
      <cc:Work
         rdf:about="">
        <dc:format>image/svg+xml</dc:format>
        <dc:type
           rdf:resource="http://purl.org/dc/dcmitype/StillImage" />
        <dc:title></dc:title>
      </cc:Work>
    </rdf:RDF>
  </metadata>
  <g
     inkscape:label="Layer 1"
     inkscape:groupmode="layer"
     id="layer1"
     transform="translate(-334.75548,-342.84348)">
    <g
       id="g2362"
       style="opacity:1"
       inkscape:groupmode="layer" />
    <g
       transform="matrix(2.5699558,0,0,-2.5699558,-154.023,1047.5836)"
       id="g6929"
       style="opacity:1;stroke-width:0.13727">
      <path
         style="color:#000000;font-style:normal;font-variant:normal;font-weight:normal;font-stretch:normal;font-size:medium;line-height:normal;font-family:sans-serif;font-variant-ligatures:normal;font-variant-position:normal;font-variant-caps:normal;font-variant-numeric:normal;font-variant-alternates:normal;font-variant-east-asian:normal;font-feature-settings:normal;font-variation-settings:normal;text-indent:0;text-align:start;text-decoration:none;text-decoration-line:none;text-decoration-style:solid;text-decoration-color:#000000;letter-spacing:normal;word-spacing:normal;text-transform:none;writing-mode:lr-tb;direction:ltr;text-orientation:mixed;dominant-baseline:auto;baseline-shift:baseline;text-anchor:start;white-space:normal;shape-padding:0;shape-margin:0;inline-size:0;clip-rule:nonzero;display:inline;overflow:visible;visibility:visible;isolation:auto;mix-blend-mode:normal;color-interpolation:sRGB;color-interpolation-filters:linearRGB;solid-color:#000000;solid-opacity:1;vector-effect:none;fill:#ffffff;fill-opacity:1;fill-rule:nonzero;stroke:none;stroke-width:0.041181;stroke-linecap:round;stroke-linejoin:round;stroke-miterlimit:22.926;stroke-dasharray:none;stroke-dashoffset:0;stroke-opacity:1;color-rendering:auto;image-rendering:auto;shape-rendering:auto;text-rendering:auto;enable-background:accumulate;stop-color:#000000;stop-opacity:1"
         d="m 190.34,270.253 c 0,2.127 1.693,3.819 3.82,3.819 h 53.831 c 2.127,0 3.821,-1.692 3.82,-3.819 l -0.016,-23.096 c -10e-4,-2.127 -1.677,-3.82 -3.804,-3.82 H 194.16 c -2.127,0 -3.82,1.692 -3.82,3.82 z"
         id="path6931" />
      <path
         style="color:#000000;font-style:normal;font-variant:normal;font-weight:normal;font-stretch:normal;font-size:medium;line-height:normal;font-family:sans-serif;font-variant-ligatures:normal;font-variant-position:normal;font-variant-caps:normal;font-variant-numeric:normal;font-variant-alternates:normal;font-variant-east-asian:normal;font-feature-settings:normal;font-variation-settings:normal;text-indent:0;text-align:start;text-decoration:none;text-decoration-line:none;text-decoration-style:solid;text-decoration-color:#000000;letter-spacing:normal;word-spacing:normal;text-transform:none;writing-mode:lr-tb;direction:ltr;text-orientation:mixed;dominant-baseline:auto;baseline-shift:baseline;text-anchor:start;white-space:normal;shape-padding:0;shape-margin:0;inline-size:0;clip-rule:nonzero;display:inline;overflow:visible;visibility:visible;isolation:auto;mix-blend-mode:normal;color-interpolation:sRGB;color-interpolation-filters:linearRGB;solid-color:#000000;solid-opacity:1;vector-effect:none;fill:#000000;fill-opacity:1;fill-rule:nonzero;stroke:none;stroke-width:0.041181;stroke-linecap:round;stroke-linejoin:round;stroke-miterlimit:22.926;stroke-dasharray:none;stroke-dashoffset:0;stroke-opacity:1;color-rendering:auto;image-rendering:auto;shape-rendering:auto;text-rendering:auto;enable-background:accumulate;stop-color:#000000;stop-opacity:1"
         d="m 194.16016,243.1875 c -2.20655,0 -3.97071,1.76119 -3.97071,3.96875 v 23.09766 c 0,2.20659 1.76416,3.96875 3.97071,3.96875 h 53.83007 c 2.20655,0 3.97174,-1.76403 3.97071,-3.97071 l -0.0156,-23.0957 c -10e-4,-2.20576 -1.74848,-3.96875 -3.95508,-3.96875 z m 0,0.29883 h 53.83007 c 2.04741,0 3.65334,1.62168 3.6543,3.66992 l 0.0156,23.09766 c 9.6e-4,2.04732 -1.62247,3.66797 -3.66993,3.66797 h -53.83007 c -2.04746,0 -3.66993,-1.62057 -3.66993,-3.66797 v -23.09766 c 0,-2.04844 1.62247,-3.66992 3.66993,-3.66992 z"
         id="path6933" />
    </g>
    <path
       id="path6122"
       style="fill:#000000;fill-opacity:1;fill-rule:evenodd;stroke:none;stroke-width:0.352777"
       d="m 357.93029,380.64486 c -4.43068,0 -8.02236,3.58796 -8.02236,8.01857 0,2.223 1.01821,4.32702 2.76316,5.70715 -2.04822,1.45713 -3.26386,3.81482 -3.26386,6.32826 0,4.70554 3.81999,8.52299 8.52306,8.52299 4.70555,0 8.52299,-3.81745 8.52299,-8.52299 0,-2.51344 -1.21309,-4.87113 -3.26394,-6.32826 1.74503,-1.38013 2.76324,-3.48415 2.76324,-5.70715 0,-4.43061 -3.59175,-8.01857 -8.02229,-8.01857 z m 66.93052,0.13185 -4.0357,3.02674 v 4.28411 l 4.0357,-3.02674 v 23.94275 h 4.03183 v -28.22693 z m 10.586,0 v 8.06754 h 4.03183 v -4.0357 h 7.55927 l -9.57704,24.19502 h 4.54003 l 9.56961,-24.44344 v -3.78342 z m -77.51652,3.87754 c 2.21527,0 4.01304,1.79399 4.01304,4.00926 0,2.21534 -1.79777,4.01304 -4.01304,4.01304 -2.21534,0 -4.00932,-1.7977 -4.00932,-4.01304 0,-2.21527 1.79398,-4.00926 4.00932,-4.00926 z m 120.00738,5.24026 c -2.99403,0 -5.41728,2.43083 -5.41728,5.42479 v 8.4741 c 0,2.9914 2.42325,5.42478 5.41728,5.42478 2.98885,0 5.421,-2.43338 5.421,-5.42478 v -8.4741 c 0,-2.99396 -2.43215,-5.42479 -5.421,-5.42479 z m -13.8951,0.0291 c -2.97858,-0.28047 -5.62271,1.90646 -5.90289,4.89022 h 2.73308 c 0.24404,-1.27989 1.36373,-2.2023 2.66161,-2.2023 1.49829,0 2.7105,1.21476 2.7105,2.71049 0,1.49829 -1.21221,2.71429 -2.7105,2.71429 h -1.18212 v 2.36789 h 1.18212 c 1.59336,0 2.87988,1.29409 2.87988,2.88745 v 0.3351 c 0,1.33125 -0.90836,2.48729 -2.19852,2.80083 -1.54964,0.37518 -3.10322,-0.57842 -3.47847,-2.12318 h -2.75188 c 0.34458,2.80636 2.72718,4.91651 5.54899,4.91651 3.09165,0 5.59416,-2.50251 5.59416,-5.59416 v -0.3351 c 0,-1.64479 -0.81882,-3.1798 -2.18343,-4.09209 1.26182,-0.88664 2.01399,-2.33044 2.01399,-3.87754 0,-2.79609 -2.1307,-5.1363 -4.91652,-5.39841 z m -69.44527,0.0437 c -2.96058,0 -5.36075,2.40257 -5.36075,5.36825 v 8.38756 c 0,2.96059 2.40017,5.36447 5.36075,5.36447 2.96059,0 5.36454,-2.40388 5.36454,-5.36447 v -8.38756 c 0,-2.96568 -2.40395,-5.36825 -5.36454,-5.36825 z m -13.58265,0.051 c -2.97341,0 -5.38712,2.40854 -5.38712,5.38713 v 8.42136 c 0,2.97341 2.41371,5.38712 5.38712,5.38712 2.97087,0 5.38341,-2.41371 5.38341,-5.38712 v -8.42136 c 0,-2.97859 -2.41254,-5.38713 -5.38341,-5.38713 z m 96.92302,2.5938 c 1.49312,0 2.70671,1.21476 2.70671,2.7105 v 8.4741 c 0,1.49829 -1.21359,2.7105 -2.70671,2.7105 -1.49829,0 -2.70678,-1.21221 -2.70678,-2.7105 v -8.4741 c 0,-1.49574 1.20849,-2.7105 2.70678,-2.7105 z m -83.34037,0.0364 c 1.47775,0 2.68042,1.20129 2.68042,2.68413 v 8.38749 c 0,1.48291 -1.20267,2.68041 -2.68042,2.68041 -1.48284,0 -2.67662,-1.1975 -2.67662,-2.68041 v -8.38749 c 0,-1.48284 1.19378,-2.68413 2.67662,-2.68413 z m -13.58265,0.0583 c 1.48292,0 2.68792,1.2074 2.68792,2.69542 v 8.42136 c 0,1.49057 -1.205,2.69542 -2.68792,2.69542 -1.48794,0 -2.69163,-1.20485 -2.69163,-2.69542 v -8.42136 c 0,-1.48802 1.20369,-2.69542 2.69163,-2.69542 z m 23.18607,3.44832 v 3.99424 l 12.40431,0.0219 v -3.99046 z m -46.27043,0.0291 c 2.4902,0 4.51366,2.026 4.51366,4.51373 0,2.49027 -2.02346,4.51373 -4.51366,4.51373 -2.4878,0 -4.5138,-2.02346 -4.5138,-4.51373 0,-2.48773 2.026,-4.51373 4.5138,-4.51373 z m 93.64022,8.78655 v 4.03184 h 4.03183 v -4.03184 z m -82.25994,0.11292 v 4.00925 h 4.00175 v -4.00925 z" />
    <path
       d="m 418.90495,356.51227 c 0.0146,1.24127 -0.65054,2.23836 -1.25672,2.72929 -0.69352,0.83776 -1.64734,1.85029 -1.86326,2.89116 -0.10053,0.5063 -0.0728,1.02543 0.0291,1.53173 0.46259,-0.14643 0.86603,-0.40577 1.22838,-0.75304 0.99716,-0.73498 1.85037,-2.39776 1.81955,-3.25097 0.30305,-0.93808 0.72194,-1.7604 1.61907,-2.28214 1.76303,-1.08451 3.88578,-0.59081 4.98318,1.22845 0.86865,1.93517 0.5063,3.8138 -1.41349,4.88293 -1.01261,0.5624 -1.99432,0.53472 -2.89124,0.24696 -0.8095,-0.25934 -2.28207,-0.34676 -3.41029,-0.0291 -0.43199,0.20325 -0.8661,0.33438 -1.41604,0.84039 0.491,0.432 0.8095,0.70664 1.37233,0.92264 1.35951,0.29066 2.24099,0.27464 3.56968,-0.14425 0.72194,-0.23166 1.99425,-0.25934 2.83209,0.31835 1.60362,0.83784 2.23843,2.93233 1.51628,4.59511 -0.99716,1.81955 -3.01974,2.71385 -5.1862,1.48547 -0.85321,-0.50339 -1.45968,-1.63197 -1.58819,-2.45436 -0.24696,-1.20012 -0.95345,-2.50055 -1.70649,-3.19444 -0.491,-0.41888 -0.75042,-0.4757 -1.31325,-0.60683 -0.11583,0.59372 -0.14424,0.72193 -0.0437,1.2439 0.14424,0.99716 0.83784,2.62905 1.9635,3.20733 0.70955,0.83776 1.09995,1.34406 1.14359,2.44139 0.17192,2.26932 -1.70642,3.84214 -3.49771,3.82924 -2.42857,-0.0146 -3.65448,-1.97887 -3.53879,-3.88577 0.0291,-1.12822 0.25934,-1.40315 1.08195,-2.24099 1.0408,-0.83776 1.63445,-2.21017 1.89401,-3.37947 0.10053,-0.5216 0.0729,-0.70955 0.0146,-1.25927 -0.60683,0.11583 -0.82239,0.23093 -1.16938,0.40577 -0.938,0.79406 -1.54709,1.57536 -1.81948,3.06338 -0.11583,0.98172 -0.68113,2.28207 -1.47519,2.67276 -1.84782,1.47258 -4.56422,0.57551 -5.37379,-1.3724 -0.64981,-1.28754 -0.20325,-3.59795 1.31325,-4.42289 0.68114,-0.40359 1.99432,-0.8224 2.87579,-0.49101 1.05624,0.43419 3.07883,0.30306 4.11707,-0.0728 0.43418,-0.14425 0.59372,-0.28776 0.98427,-0.66293 -0.27464,-0.26226 -0.55001,-0.44948 -0.86858,-0.59372 -2.00714,-0.77869 -3.56713,-0.21564 -5.11423,0.0146 -2.21017,-0.10272 -3.52342,-1.63445 -3.61077,-3.59795 0.0729,-2.19727 1.80666,-3.59787 3.56961,-3.54134 1.94806,-0.0146 3.35128,1.59081 3.49516,2.94769 0.14424,1.20019 0.89691,2.25388 1.69104,2.99148 0.34458,0.41888 0.80695,0.69425 1.38523,0.86603 0.0874,-0.51941 0.0874,-0.96627 -0.0291,-1.47257 -0.432,-1.34407 -0.95345,-2.25388 -1.89146,-3.09165 -0.5653,-0.43418 -1.17192,-1.64733 -1.14103,-2.50054 0,-2.10738 1.63189,-3.63911 3.68274,-3.62621 1.76295,0 3.42573,1.50338 3.43855,3.56968"
       style="fill:#ed1a3a;fill-opacity:1;fill-rule:evenodd;stroke:none;stroke-width:0.352777"
       id="path6142" />
    <path
       style="color:#000000;font-style:normal;font-variant:normal;font-weight:normal;font-stretch:normal;font-size:medium;line-height:normal;font-family:sans-serif;font-variant-ligatures:normal;font-variant-position:normal;font-variant-caps:normal;font-variant-numeric:normal;font-variant-alternates:normal;font-variant-east-asian:normal;font-feature-settings:normal;font-variation-settings:normal;text-indent:0;text-align:start;text-decoration:none;text-decoration-line:none;text-decoration-style:solid;text-decoration-color:#000000;letter-spacing:normal;word-spacing:normal;text-transform:none;writing-mode:lr-tb;direction:ltr;text-orientation:mixed;dominant-baseline:auto;baseline-shift:baseline;text-anchor:start;white-space:normal;shape-padding:0;shape-margin:0;inline-size:0;clip-rule:nonzero;display:inline;overflow:visible;visibility:visible;opacity:1;isolation:auto;mix-blend-mode:normal;color-interpolation:sRGB;color-interpolation-filters:linearRGB;solid-color:#000000;solid-opacity:1;vector-effect:none;fill:#000000;fill-opacity:1;fill-rule:nonzero;stroke:none;stroke-width:0.460023;stroke-linecap:round;stroke-linejoin:round;stroke-miterlimit:22.926;stroke-dasharray:none;stroke-dashoffset:0;stroke-opacity:1;color-rendering:auto;image-rendering:auto;shape-rendering:auto;text-rendering:auto;enable-background:accumulate;stop-color:#000000;stop-opacity:1"
       d="m 344.96001,419.54564 c -3.94055,0 -7.14271,-3.20303 -7.14271,-7.14264 v -59.35996 c 0,-3.9396 3.2031,-7.13768 7.14271,-7.13768 H 483.3009 c 3.94055,0 7.14271,3.1999 7.14271,7.13768 V 412.403 c 0,3.94056 -3.20398,7.14264 -7.14271,7.14264 z m 0,-3.35295 H 483.3009 c 2.18292,0 3.79471,-1.60349 3.79471,-3.78969 v -59.35996 c 0,-2.18387 -1.60851,-3.78968 -3.79471,-3.78968 H 344.96001 c -2.18715,0 -3.78968,1.60253 -3.78968,3.78968 V 412.403 c 0,2.18715 1.60341,3.78969 3.78968,3.78969 z"
       id="path6845" />
  </g>
</svg>
