<?xml version="1.0" encoding="UTF-8" standalone="no"?>
<!-- Created with Inkscape (http://www.inkscape.org/) -->

<svg
   xmlns:dc="http://purl.org/dc/elements/1.1/"
   xmlns:cc="http://creativecommons.org/ns#"
   xmlns:rdf="http://www.w3.org/1999/02/22-rdf-syntax-ns#"
   xmlns:svg="http://www.w3.org/2000/svg"
   xmlns="http://www.w3.org/2000/svg"
   xmlns:sodipodi="http://sodipodi.sourceforge.net/DTD/sodipodi-0.dtd"
   xmlns:inkscape="http://www.inkscape.org/namespaces/inkscape"
   width="195mm"
   height="195.00317mm"
   viewBox="0 0 195 195.00317"
   version="1.1"
   id="svg3845"
   inkscape:version="0.92.3 (2405546, 2018-03-11)"
   sodipodi:docname="Latvia_road_sign_308.svg">
  <defs
     id="defs3839" />
  <sodipodi:namedview
     id="base"
     pagecolor="#ffffff"
     bordercolor="#666666"
     borderopacity="1.0"
     inkscape:pageopacity="0.0"
     inkscape:pageshadow="2"
     inkscape:zoom="0.49497475"
     inkscape:cx="850.82413"
     inkscape:cy="214.13266"
     inkscape:document-units="mm"
     inkscape:current-layer="layer1"
     showgrid="false"
     inkscape:window-width="1920"
     inkscape:window-height="1027"
     inkscape:window-x="-8"
     inkscape:window-y="-8"
     inkscape:window-maximized="1" />
  <metadata
     id="metadata3842">
    <rdf:RDF>
      <cc:Work
         rdf:about="">
        <dc:format>image/svg+xml</dc:format>
        <dc:type
           rdf:resource="http://purl.org/dc/dcmitype/StillImage" />
        <dc:title></dc:title>
      </cc:Work>
    </rdf:RDF>
  </metadata>
  <g
     inkscape:label="Layer 1"
     inkscape:groupmode="layer"
     id="layer1"
     transform="translate(354.42688,204.62654)">
    <path
       d="m -256.91908,-203.85003 c 53.26226,0 96.71569,43.44726 96.71569,96.72512 0,53.271605 -43.45343,96.725034 -96.71569,96.725034 -53.27786,0 -96.73129,-43.453429 -96.73129,-96.725034 0,-53.27786 43.45343,-96.72512 96.73129,-96.72512 z"
       style="fill:#ffffff;fill-opacity:1;stroke:#000000;stroke-width:1.55301774;stroke-linecap:butt;stroke-linejoin:miter;stroke-miterlimit:22.9260006;stroke-dasharray:none;stroke-opacity:1"
       id="path4346"
       inkscape:connector-curvature="0" />
    <path
       d="m -256.91908,-198.68152 c 50.41717,0 91.55035,41.12701 91.55035,91.55661 0,50.426427 -41.13318,91.55661 -91.55035,91.55661 -50.43268,0 -91.56594,-41.130183 -91.56594,-91.55661 0,-50.4296 41.13326,-91.55661 91.56594,-91.55661 z m -0.0528,24.2861 c 37.114,0 67.37607,30.25899 67.37607,67.37299 0,37.11093 -30.26207,67.376083 -67.37607,67.376083 -37.10784,0 -67.37616,-30.265153 -67.37616,-67.376083 0,-37.114 30.26832,-67.37299 67.37616,-67.37299"
       style="fill:#ed1a3a;fill-opacity:1;fill-rule:evenodd;stroke:none;stroke-width:3.10603547"
       id="path4342"
       inkscape:connector-curvature="0" />
    <path
       d="m -250.05782,-119.76343 c -2.01896,0.0264 -4.7274,-2.48481 -3.40734,-5.27399 l 8.08192,-17.74479 c 0.32929,-0.93803 1.38839,-1.38838 2.20835,-1.37597 l 15.06425,0.0176 c 2.09345,0.006 3.5844,1.53753 3.77696,3.2272 v 18.79772 c -0.0264,1.12434 -0.72021,2.37608 -2.55938,2.38849 z m -31.927,27.283413 c -3.51291,-3.46941 -8.72483,-4.16823 -13.33734,-2.27975 l -4.42919,-18.558593 c -0.75191,-2.98798 0.18665,-6.45124 3.23653,-6.43882 l 24.98492,0.0528 0.0616,-24.93525 4.79573,0.0176 -0.009,24.85143 6.55998,0.0792 11.84022,-25.68689 c 0.7519,-1.54678 2.31708,-2.73019 4.14657,-2.75194 l 19.44687,0.0352 c 3.40726,0.0264 6.46674,2.64945 6.43258,7.26196 l 0.0528,15.71649 c 0.25445,1.86365 0.42525,3.11539 1.89781,4.4572 l 6.03496,4.03475 v 2.42265 l -5.75542,5.78342 c -1.97855,-1.32006 -4.59076,-2.80468 -6.84885,-3.30477 -4.95412,-1.27349 -10.93635,-0.77304 -15.70408,2.40099 -6.02264,3.46941 -9.32741,10.647473 -9.23734,16.937153 z m 52.52304,10.37418 c -1.73625,-0.11182 -3.42592,-0.82322 -5.26157,-2.57488 l -1.38222,-1.51886 c -1.09951,-1.83257 -1.6151,-3.65889 -1.59961,-5.44489 -0.0528,-2.97865 1.05919,-6.27726 4.45412,-8.706163 3.75829,-2.36683 7.27428,-2.17428 10.92701,-0.21131 3.73655,2.649363 4.79881,6.323843 4.68074,9.243503 -0.23332,2.24568 -0.8197,4.23664 -2.87309,6.37984 -2.66186,2.66803 -5.92006,3.06564 -8.73724,2.94757 z m -60.63287,3.531579 c -2.93525,-0.04402 -5.22126,-2.410319 -5.0442,-5.333069 0.1805,-2.91966 2.21152,-4.70874 4.98829,-4.78331 2.77993,-0.0704 5.14051,2.42898 5.1001,5.00386 -0.0352,2.5718 -2.10903,5.152932 -5.04419,5.112519 z m 60.27884,4.43853 c -4.1279,-0.217471 -9.46414,-2.792351 -12.89314,-7.889369 -1.07468,-1.6431 -1.70218,-3.16813 -2.16803,-4.68699 -0.50626,-1.73 -0.79504,-3.33894 -0.78008,-4.91996 l 0.009,-0.85404 c -0.52827,-6.37051 6.13753,-15.396633 13.43982,-16.847173 5.34548,-1.26107 10.61956,-0.27294 15.83456,3.60615 3.10605,2.59971 4.81122,5.64986 5.60327,8.389383 1.64935,5.64986 0.90387,11.23456 -3.20854,16.75085 -2.23634,2.86067 -5.1715,4.721151 -7.69056,5.488376 -2.77985,1.012518 -5.20259,1.099507 -7.8148,1.074678 z m -68.42909,-3.975765 c -2.35433,-3.708544 -2.36683,-7.184214 -0.41029,-10.796534 1.21757,-2.08728 3.46942,-3.72413 5.215,-4.21489 4.80814,-1.58094 8.86772,0.21747 11.67249,4.20864 2.05312,3.78321 1.64935,7.66882 -0.63657,11.110326 -4.3857,5.202585 -12.00794,4.826809 -15.84072,-0.307278"
       style="fill:#000000;fill-opacity:1;fill-rule:evenodd;stroke:none;stroke-width:3.10603547"
       id="path4344"
       inkscape:connector-curvature="0" />
  </g>
</svg>
