<?xml version="1.0" encoding="UTF-8" standalone="no"?>
<!-- Created with Inkscape (http://www.inkscape.org/) -->

<svg
   xmlns:dc="http://purl.org/dc/elements/1.1/"
   xmlns:cc="http://creativecommons.org/ns#"
   xmlns:rdf="http://www.w3.org/1999/02/22-rdf-syntax-ns#"
   xmlns:svg="http://www.w3.org/2000/svg"
   xmlns="http://www.w3.org/2000/svg"
   xmlns:sodipodi="http://sodipodi.sourceforge.net/DTD/sodipodi-0.dtd"
   xmlns:inkscape="http://www.inkscape.org/namespaces/inkscape"
   width="195.00014mm"
   height="195.00006mm"
   viewBox="0 0 195.00014 195.00006"
   version="1.1"
   id="svg3845"
   inkscape:version="0.92.3 (2405546, 2018-03-11)"
   sodipodi:docname="Latvia_road_sign_328.svg">
  <defs
     id="defs3839" />
  <sodipodi:namedview
     id="base"
     pagecolor="#ffffff"
     bordercolor="#666666"
     borderopacity="1.0"
     inkscape:pageopacity="0.0"
     inkscape:pageshadow="2"
     inkscape:zoom="0.49497475"
     inkscape:cx="638.24975"
     inkscape:cy="-103.27154"
     inkscape:document-units="mm"
     inkscape:current-layer="layer1"
     showgrid="false"
     inkscape:window-width="1920"
     inkscape:window-height="1027"
     inkscape:window-x="-8"
     inkscape:window-y="-8"
     inkscape:window-maximized="1" />
  <metadata
     id="metadata3842">
    <rdf:RDF>
      <cc:Work
         rdf:about="">
        <dc:format>image/svg+xml</dc:format>
        <dc:type
           rdf:resource="http://purl.org/dc/dcmitype/StillImage" />
        <dc:title></dc:title>
      </cc:Work>
    </rdf:RDF>
  </metadata>
  <g
     inkscape:label="Layer 1"
     inkscape:groupmode="layer"
     id="layer1"
     transform="translate(124.45805,451.8959)">
    <path
       d="m -26.950151,-451.11939 c 53.26229,0 96.715725,43.44417 96.715725,96.72193 0,53.27169 -43.453435,96.72511 -96.715725,96.72511 -53.277829,0 -96.731389,-43.45342 -96.731389,-96.72511 0,-53.27776 43.45356,-96.72193 96.731389,-96.72193 z"
       style="fill:#ffffff;fill-opacity:1;stroke:#000000;stroke-width:1.5530175;stroke-linecap:butt;stroke-linejoin:miter;stroke-miterlimit:22.9260006;stroke-dasharray:none;stroke-opacity:1"
       id="path4847"
       inkscape:connector-curvature="0" />
    <path
       d="m 37.779616,-419.13649 c -35.6541725,-35.65729 -93.817787,-35.65113 -129.475073,0.003 -35.654333,35.65421 -35.657433,93.82094 -0.003,129.47506 35.654178,35.65421 93.8271165,35.66038 129.481289,0.003 35.657261,-35.65421 35.651051,-93.82719 -0.003,-129.48131"
       style="fill:#ed1a3a;fill-opacity:1;fill-rule:evenodd;stroke:none;stroke-width:3.10603499"
       id="path4837"
       inkscape:connector-curvature="0" />
    <path
       d="m -68.446789,-407.58206 94.271272,94.18122 c 22.497019,-31.32442 15.651319,-64.66772 -5.305104,-88.3419 -26.6000775,-24.0283 -63.627134,-26.01301 -88.966168,-5.83932"
       style="fill:#ffffff;fill-opacity:1;fill-rule:evenodd;stroke:none;stroke-width:3.10603499"
       id="path4839"
       inkscape:connector-curvature="0" />
    <path
       d="m -18.775055,-360.95734 -0.03434,-50.97935 -16.182451,0.006 0.01233,34.80317 -30.212403,-30.22491 c 24.798587,-18.37527 60.8876096,-15.49285 83.530598,7.15014 22.649213,22.643 24.922828,57.83436 6.823962,83.05849 l -43.937963,-43.81371"
       style="fill:#283996;fill-opacity:1;fill-rule:evenodd;stroke:none;stroke-width:3.10603499"
       id="path4841"
       inkscape:connector-curvature="0" />
    <path
       d="m -80.516838,-395.53063 c -20.419082,25.99127 -18.993405,64.55889 5.215034,88.76733 23.671091,23.6711 62.474803,26.55352 88.751849,5.22125 l -93.966883,-93.98858"
       style="fill:#ffffff;fill-opacity:1;fill-rule:evenodd;stroke:none;stroke-width:3.10603499"
       id="path4843"
       inkscape:connector-curvature="0" />
    <path
       d="m -18.784379,-330.59587 -0.02465,33.91171 -16.170027,0.0352 0.02818,-50.07548 -45.17728,-45.14318 c -18.387732,25.96335 -16.135857,60.341 6.684181,83.77605 22.136721,22.73923 59.43089,23.49404 83.3815223,6.27726 l -28.7215003,-28.78053"
       style="fill:#283996;fill-opacity:1;fill-rule:evenodd;stroke:none;stroke-width:3.10603499"
       id="path4845"
       inkscape:connector-curvature="0" />
  </g>
</svg>
