<?xml version="1.0" encoding="UTF-8" standalone="no"?>
<!-- Created with Inkscape (http://www.inkscape.org/) -->

<svg
   xmlns:dc="http://purl.org/dc/elements/1.1/"
   xmlns:cc="http://creativecommons.org/ns#"
   xmlns:rdf="http://www.w3.org/1999/02/22-rdf-syntax-ns#"
   xmlns:svg="http://www.w3.org/2000/svg"
   xmlns="http://www.w3.org/2000/svg"
   xmlns:sodipodi="http://sodipodi.sourceforge.net/DTD/sodipodi-0.dtd"
   xmlns:inkscape="http://www.inkscape.org/namespaces/inkscape"
   width="195mm"
   height="195.00308mm"
   viewBox="0 0 195 195.00308"
   version="1.1"
   id="svg3845"
   inkscape:version="0.92.3 (2405546, 2018-03-11)"
   sodipodi:docname="Latvia_road_sign_334.svg">
  <defs
     id="defs3839" />
  <sodipodi:namedview
     id="base"
     pagecolor="#ffffff"
     bordercolor="#666666"
     borderopacity="1.0"
     inkscape:pageopacity="0.0"
     inkscape:pageshadow="2"
     inkscape:zoom="0.35"
     inkscape:cx="-419.29567"
     inkscape:cy="21.483882"
     inkscape:document-units="mm"
     inkscape:current-layer="layer1"
     showgrid="false"
     inkscape:window-width="1920"
     inkscape:window-height="1027"
     inkscape:window-x="-8"
     inkscape:window-y="-8"
     inkscape:window-maximized="1" />
  <metadata
     id="metadata3842">
    <rdf:RDF>
      <cc:Work
         rdf:about="">
        <dc:format>image/svg+xml</dc:format>
        <dc:type
           rdf:resource="http://purl.org/dc/dcmitype/StillImage" />
        <dc:title></dc:title>
      </cc:Work>
    </rdf:RDF>
  </metadata>
  <g
     inkscape:label="Layer 1"
     inkscape:groupmode="layer"
     id="layer1"
     transform="translate(256.97291,682.91472)">
    <path
       d="m -159.46516,-682.13821 c 53.26234,0 96.715746,43.44724 96.715746,96.72507 0,53.27158 -43.453406,96.72499 -96.715746,96.72499 -53.27774,0 -96.73124,-43.45341 -96.73124,-96.72499 0,-53.27783 43.4535,-96.72507 96.73124,-96.72507 z"
       style="fill:#ffffff;fill-opacity:1;stroke:#000000;stroke-width:1.55301702;stroke-linecap:butt;stroke-linejoin:miter;stroke-miterlimit:22.9260006;stroke-dasharray:none;stroke-opacity:1"
       id="path7564"
       inkscape:connector-curvature="0" />
    <path
       d="m -159.46516,-676.96971 c 50.41716,0 91.550406,41.12383 91.550406,91.55657 0,50.42332 -41.133246,91.55657 -91.550406,91.55657 -50.43265,0 -91.5659,-41.13325 -91.5659,-91.55657 0,-50.43274 41.13325,-91.55657 91.5659,-91.55657 z m -0.0528,24.28292 c 37.11707,0 67.37605,30.25898 67.37605,67.37614 0,37.10773 -30.25898,67.37296 -67.37605,67.37296 -37.10782,0 -67.37296,-30.26523 -67.37296,-67.37296 0,-37.11716 30.26514,-67.37614 67.37296,-67.37614"
       style="fill:#ed1a3a;fill-opacity:1;fill-rule:evenodd;stroke:none;stroke-width:3.10603404"
       id="path7556"
       inkscape:connector-curvature="0" />
    <path
       d="m -174.11005,-565.96011 -0.76687,-1.4008 -0.006,-4.2708 c -5.19325,0.28615 -9.95481,0.51859 -15.70407,0.55909 -6.12512,-0.044 -9.77776,-0.18314 -15.77248,-0.5811 v 4.30496 l -0.85404,1.38839 -5.63435,-0.009 -0.9007,-1.45054 0.006,-10.52007 46.23642,0.0352 0.0264,10.53574 -0.77391,1.38838 z m -39.62679,-14.17904 -0.0352,-4.91371 c 1.10884,-4.71807 2.4009,-8.24964 4.98203,-11.96752 l 3.85769,-5.7276 14.32502,-0.57493 14.60774,0.6304 3.75829,5.65302 c 2.4289,4.1994 3.37309,6.53506 4.75531,11.93962 l -0.0352,4.95412 z m 4.1279,-11.04191 c 1.58719,-3.51916 3.72722,-6.99483 6.11579,-10.01389 l 12.86515,-0.58726 12.97396,0.55292 c 2.64946,2.7861 4.61242,6.76186 6.10954,10.25928 -6.39841,-0.76071 -13.50814,-0.94429 -19.10525,-0.89771 -5.02244,-0.044 -12.40546,0.19282 -18.95919,0.68675"
       style="fill:#ed1a3a;fill-opacity:1;fill-rule:evenodd;stroke:none;stroke-width:3.10603404"
       id="path7558"
       inkscape:connector-curvature="0" />
    <path
       d="m -111.81235,-565.96011 -0.90387,-1.4008 0.0528,-4.2708 c -5.19325,0.28615 -9.9579,0.51859 -15.70407,0.55909 -6.12512,-0.044 -9.78093,-0.18314 -15.77249,-0.5811 v 4.30496 l -0.92553,1.38839 -5.33623,-0.0176 -0.89137,-1.41638 0.006,-10.54807 45.94447,0.0352 -0.0176,10.59165 -0.88829,1.33247 z m -39.4839,-14.17904 -0.0264,-5.08452 c 1.10884,-4.72124 2.1711,-8.07883 4.74915,-11.79671 l 3.86078,-5.7276 14.32194,-0.57493 14.61081,0.6304 3.75521,5.65302 c 2.4289,4.1994 3.31719,6.53506 4.69941,11.93962 l -0.0352,4.95412 z m 3.90119,-11.04191 c 1.58719,-3.51916 3.73029,-6.99483 6.11579,-10.01389 l 12.86514,-0.58726 12.97388,0.55292 c 2.64945,2.7861 4.61251,6.76186 6.11271,10.25928 -6.39841,-0.76071 -13.50814,-0.94429 -19.10517,-0.89771 -5.02561,-0.044 -12.40863,0.19282 -18.96235,0.68675"
       style="fill:#000000;fill-opacity:1;fill-rule:evenodd;stroke:none;stroke-width:3.10603404"
       id="path7560"
       inkscape:connector-curvature="0" />
    <path
       d="m -105.36111,-561.62098 h -108.38815 v -2.93516 l 108.40989,0.006 -0.0176,2.92899"
       style="fill:#000000;fill-opacity:1;fill-rule:evenodd;stroke:none;stroke-width:3.10603404"
       id="path7562"
       inkscape:connector-curvature="0" />
  </g>
</svg>
