<?xml version="1.0" encoding="UTF-8" standalone="no"?>
<!-- Created with Inkscape (http://www.inkscape.org/) -->

<svg
   xmlns:dc="http://purl.org/dc/elements/1.1/"
   xmlns:cc="http://creativecommons.org/ns#"
   xmlns:rdf="http://www.w3.org/1999/02/22-rdf-syntax-ns#"
   xmlns:svg="http://www.w3.org/2000/svg"
   xmlns="http://www.w3.org/2000/svg"
   xmlns:sodipodi="http://sodipodi.sourceforge.net/DTD/sodipodi-0.dtd"
   xmlns:inkscape="http://www.inkscape.org/namespaces/inkscape"
   width="195mm"
   height="195.00311mm"
   viewBox="0 0 195 195.00311"
   version="1.1"
   id="svg3845"
   inkscape:version="0.92.3 (2405546, 2018-03-11)"
   sodipodi:docname="Latvia_road_sign_326.svg">
  <defs
     id="defs3839" />
  <sodipodi:namedview
     id="base"
     pagecolor="#ffffff"
     bordercolor="#666666"
     borderopacity="1.0"
     inkscape:pageopacity="0.0"
     inkscape:pageshadow="2"
     inkscape:zoom="0.7"
     inkscape:cx="529.96976"
     inkscape:cy="245.68398"
     inkscape:document-units="mm"
     inkscape:current-layer="layer1"
     showgrid="false"
     inkscape:window-width="1920"
     inkscape:window-height="1027"
     inkscape:window-x="-8"
     inkscape:window-y="-8"
     inkscape:window-maximized="1" />
  <metadata
     id="metadata3842">
    <rdf:RDF>
      <cc:Work
         rdf:about="">
        <dc:format>image/svg+xml</dc:format>
        <dc:type
           rdf:resource="http://purl.org/dc/dcmitype/StillImage" />
        <dc:title></dc:title>
      </cc:Work>
    </rdf:RDF>
  </metadata>
  <g
     inkscape:label="Layer 1"
     inkscape:groupmode="layer"
     id="layer1"
     transform="translate(95.808968,132.35636)">
    <path
       d="m 1.6987984,-131.57985 c 53.2622916,0 96.7157256,43.447221 96.7157256,96.725044 0,53.271616 -43.453434,96.72505 -96.7157256,96.72505 -53.2778234,0 -96.7312574,-43.453434 -96.7312574,-96.72505 0,-53.277823 43.453434,-96.725044 96.7312574,-96.725044 z"
       style="fill:#ffffff;fill-opacity:1;stroke:#000000;stroke-width:1.55301762;stroke-linecap:butt;stroke-linejoin:miter;stroke-miterlimit:22.9260006;stroke-dasharray:none;stroke-opacity:1"
       id="path4879"
       inkscape:connector-curvature="0" />
    <path
       d="M -62.065002,31.008676 C -98.998864,-6.6023056 -100.21643,-63.082452 -63.282569,-99.677762 -24.488191,-138.54048 33.799671,-131.89356 67.397654,-98.45088 103.81282,-62.035719 101.61063,-4.4311927 66.378875,29.592321 31.150227,63.612727 -23.708569,66.771565 -62.065002,31.008676"
       style="fill:#ed1a3a;fill-opacity:1;fill-rule:evenodd;stroke:none;stroke-width:3.10603523"
       id="path4861"
       inkscape:connector-curvature="0" />
    <path
       d="m -52.818339,7.0456087 41.701636,-41.6177637 -41.742013,-41.682997 c -18.87848,23.425719 -20.043246,57.672867 0.0405,83.3007607"
       style="fill:#ffffff;fill-opacity:1;fill-rule:evenodd;stroke:none;stroke-width:3.10603523"
       id="path4863"
       inkscape:connector-curvature="0" />
    <path
       d="M -14.41842,-34.65291 -53.041973,3.9768497 C -69.264793,-18.03873 -69.500851,-50.788767 -52.936407,-73.149114 l 38.517943,38.496204"
       style="fill:#283996;fill-opacity:1;fill-rule:evenodd;stroke:none;stroke-width:3.10603523"
       id="path4865"
       inkscape:connector-curvature="0" />
    <path
       d="m 1.046525,-22.253616 -41.788598,41.549433 c 23.304586,18.93128 53.588428,21.57141 83.300761,-0.2423 L 1.046525,-22.253642"
       style="fill:#ffffff;fill-opacity:1;fill-rule:evenodd;stroke:none;stroke-width:3.10603523"
       id="path4867"
       inkscape:connector-curvature="0" />
    <path
       d="M 0.63653422,-19.492354 -37.819293,19.283394 c 23.202084,18.76977 53.110097,17.406216 77.237782,-0.08716 L 0.63653422,-19.492548"
       style="fill:#283996;fill-opacity:1;fill-rule:evenodd;stroke:none;stroke-width:3.10603523"
       id="path4869"
       inkscape:connector-curvature="0" />
    <path
       d="M 42.543156,-88.210276 0.89743832,-46.623574 -40.85389,-88.374894 c 19.071061,-18.760456 61.471546,-21.518616 83.397046,0.164645"
       style="fill:#ffffff;fill-opacity:1;fill-rule:evenodd;stroke:none;stroke-width:3.10603523"
       id="path4871"
       inkscape:connector-curvature="0" />
    <path
       d="m 54.619422,-76.13401 c 21.294983,21.403684 19.965599,58.331338 -0.05283,83.3256067 L 13.051333,-34.332989 54.619404,-76.13401"
       style="fill:#ffffff;fill-opacity:1;fill-rule:evenodd;stroke:none;stroke-width:3.10603523"
       id="path4873"
       inkscape:connector-curvature="0" />
    <path
       d="M 39.30978,-88.278608 0.74213552,-49.766881 -37.685728,-88.291031 c 14.638738,-14.806469 56.023553,-19.161139 76.995508,0.01233"
       style="fill:#283996;fill-opacity:1;fill-rule:evenodd;stroke:none;stroke-width:3.10603523"
       id="path4875"
       inkscape:connector-curvature="0" />
    <path
       d="m 54.554198,-73.236085 c 18.244855,21.844746 18.120615,51.597464 0.03434,77.2564207 L 15.943245,-34.826852 54.554366,-73.236085"
       style="fill:#283996;fill-opacity:1;fill-rule:evenodd;stroke:none;stroke-width:3.10603523"
       id="path4877"
       inkscape:connector-curvature="0" />
  </g>
</svg>
