<?xml version="1.0" encoding="UTF-8" standalone="no"?>
<!-- Created with Inkscape (http://www.inkscape.org/) -->

<svg
   xmlns:dc="http://purl.org/dc/elements/1.1/"
   xmlns:cc="http://creativecommons.org/ns#"
   xmlns:rdf="http://www.w3.org/1999/02/22-rdf-syntax-ns#"
   xmlns:svg="http://www.w3.org/2000/svg"
   xmlns="http://www.w3.org/2000/svg"
   xmlns:sodipodi="http://sodipodi.sourceforge.net/DTD/sodipodi-0.dtd"
   xmlns:inkscape="http://www.inkscape.org/namespaces/inkscape"
   width="195mm"
   height="194.99686mm"
   viewBox="0 0 195 194.99686"
   version="1.1"
   id="svg3845"
   inkscape:version="0.92.3 (2405546, 2018-03-11)"
   sodipodi:docname="5.svg">
  <defs
     id="defs3839" />
  <sodipodi:namedview
     id="base"
     pagecolor="#ffffff"
     bordercolor="#666666"
     borderopacity="1.0"
     inkscape:pageopacity="0.0"
     inkscape:pageshadow="2"
     inkscape:zoom="0.7"
     inkscape:cx="115.42609"
     inkscape:cy="276.1397"
     inkscape:document-units="mm"
     inkscape:current-layer="layer1"
     showgrid="false"
     inkscape:window-width="1920"
     inkscape:window-height="1027"
     inkscape:window-x="-8"
     inkscape:window-y="-8"
     inkscape:window-maximized="1" />
  <metadata
     id="metadata3842">
    <rdf:RDF>
      <cc:Work
         rdf:about="">
        <dc:format>image/svg+xml</dc:format>
        <dc:type
           rdf:resource="http://purl.org/dc/dcmitype/StillImage" />
        <dc:title></dc:title>
      </cc:Work>
    </rdf:RDF>
  </metadata>
  <g
     inkscape:label="Layer 1"
     inkscape:groupmode="layer"
     id="layer1"
     transform="translate(-13.872382,-26.898438)">
    <path
       d="m 111.37859,27.674934 c 53.26456,0 96.7173,43.446525 96.7173,96.723466 0,53.26767 -43.45274,96.7204 -96.7173,96.7204 -53.276971,0 -96.729712,-43.45273 -96.729712,-96.7204 0,-53.276941 43.452741,-96.723466 96.729712,-96.723466 z"
       style="fill:#ffffff;fill-opacity:1;stroke:#000000;stroke-width:1.55299282;stroke-linecap:butt;stroke-linejoin:miter;stroke-miterlimit:22.9260006;stroke-dasharray:none;stroke-opacity:1"
       id="path3763"
       inkscape:connector-curvature="0" />
    <path
       d="m 100.70021,134.36248 h -0.20813 z m -6.80521,8.37058 -1.031186,-1.69898 -0.02201,-5.16526 c -6.280306,0.34777 -12.041912,0.63039 -19.002426,0.68322 -7.401561,-0.0528 -11.82138,-0.22715 -19.083171,-0.70523 v 5.20875 l -1.080886,1.67723 -6.802106,-0.0176 -1.05914,-1.58091 0.01233,-12.90536 55.938795,0.044 0.0343,12.74697 -1.16163,1.6834 z M 45.839184,125.57871 45.792521,119.637 c 1.347993,-5.71193 2.907203,-9.98266 6.028713,-14.47703 l 4.674512,-6.932568 17.325186,-0.698892 17.673063,0.760962 4.550266,6.842448 c 2.928949,5.08452 4.071949,7.90166 5.749179,14.44595 l -0.0405,5.99146 z m 4.988222,-13.36503 c 1.922601,-4.25524 4.516095,-8.45765 7.404668,-12.11026 l 15.560983,-0.705055 15.697654,0.661565 c 3.202272,3.37622 5.581459,8.18429 7.395353,12.41461 -7.740115,-0.91627 -16.3468,-1.14298 -23.120961,-1.08091 -6.075305,-0.0616 -15.005014,0.23332 -22.937697,0.81969"
       style="fill:#bbbdbf;fill-opacity:1;fill-rule:evenodd;stroke:none;stroke-width:3.10598564"
       id="path3755"
       inkscape:connector-curvature="0" />
    <path
       d="m 126.09786,112.21368 c 1.92261,-4.25524 4.51611,-8.45765 7.40467,-12.11026 l 15.56721,-0.705055 15.69144,0.661565 c 3.20227,3.37622 5.58146,8.18429 7.39535,12.41461 -7.74011,-0.91627 -16.34681,-1.14298 -23.11474,-1.08091 -6.08153,-0.0616 -15.00503,0.23332 -22.94393,0.81969 z m -4.72109,13.36503 -0.0282,-6.15293 c 1.33557,-5.71501 2.62144,-9.77144 5.74296,-14.26581 l 4.67141,-6.932568 17.32829,-0.698892 17.67927,0.760962 4.53784,6.842448 c 2.94138,5.08452 4.01605,7.90166 5.68707,14.44595 l -0.0343,5.99146 z m 47.7359,17.15435 -1.05293,-1.69898 0.0528,-5.16526 c -6.27409,0.34777 -12.0419,0.63039 -19.00241,0.68322 -7.40468,-0.0528 -11.8245,-0.22715 -19.07697,-0.70523 v 5.20875 l -1.01877,1.67723 -6.73378,-0.0176 -0.90384,-1.79213 0.0159,-12.69414 55.58162,0.044 -0.022,12.81529 -0.90073,1.61508 -6.93878,0.0264"
       style="fill:#bbbdbf;fill-opacity:1;fill-rule:evenodd;stroke:none;stroke-width:3.10598564"
       id="path3757"
       inkscape:connector-curvature="0" />
    <path
       d="M 178.5766,147.97905 H 44.068775 v -3.59051 l 134.479875,0.0528 0.0282,3.53778"
       style="fill:#939598;fill-opacity:1;fill-rule:evenodd;stroke:none;stroke-width:3.10598564"
       id="path3759"
       inkscape:connector-curvature="0" />
    <path
       d="m 46.634325,59.651057 c 35.65361,-35.653611 93.819405,-35.653611 129.485445,0.0097 35.6536,35.656719 35.6474,93.819373 -0.006,129.473023 -35.65382,35.66289 -93.822736,35.66289 -129.476346,0.009 C 10.974498,153.47923 10.968282,95.316562 46.634325,59.650528 Z M 180.11096,70.689728 c 26.59034,33.566382 24.177,84.638152 -6.87665,115.691782 -31.55682,31.55372 -83.504438,33.4949 -116.067591,7.25242 z M 177.42118,67.36011 53.942708,190.85721 c -1.068463,-0.86635 -2.164871,-1.75488 -3.196065,-2.86063 41.300293,-41.28166 82.662707,-82.62539 123.832557,-123.826311 1.04051,1.080877 1.94125,2.056155 2.84198,3.189841 z m -5.97282,-6.106368 c -0.74854,-0.903839 -2.02199,-2.130701 -3.25507,-2.994172 L 44.73656,181.74425 c 1.127479,1.27346 1.546787,1.77038 2.882357,3.15566 z m -6.45423,-5.786451 C 130.70094,28.662635 80.526841,31.284092 49.178127,62.33152 18.248712,92.95965 16.04968,144.56252 42.037458,178.50468 L 164.99413,55.467291"
       style="fill:#000000;fill-opacity:1;fill-rule:evenodd;stroke:none;stroke-width:3.10598564"
       id="path3761"
       inkscape:connector-curvature="0" />
  </g>
</svg>
