<?xml version="1.0" encoding="UTF-8" standalone="no"?>
<!-- Created with Inkscape (http://www.inkscape.org/) -->

<svg
   xmlns:dc="http://purl.org/dc/elements/1.1/"
   xmlns:cc="http://creativecommons.org/ns#"
   xmlns:rdf="http://www.w3.org/1999/02/22-rdf-syntax-ns#"
   xmlns:svg="http://www.w3.org/2000/svg"
   xmlns="http://www.w3.org/2000/svg"
   xmlns:sodipodi="http://sodipodi.sourceforge.net/DTD/sodipodi-0.dtd"
   xmlns:inkscape="http://www.inkscape.org/namespaces/inkscape"
   width="195mm"
   height="195.00307mm"
   viewBox="0 0 195 195.00306"
   version="1.1"
   id="svg3845"
   inkscape:version="0.92.3 (2405546, 2018-03-11)"
   sodipodi:docname="Latvia_road_sign_306.svg">
  <defs
     id="defs3839" />
  <sodipodi:namedview
     id="base"
     pagecolor="#ffffff"
     bordercolor="#666666"
     borderopacity="1.0"
     inkscape:pageopacity="0.0"
     inkscape:pageshadow="2"
     inkscape:zoom="0.49497475"
     inkscape:cx="-112.28899"
     inkscape:cy="4.5926955"
     inkscape:document-units="mm"
     inkscape:current-layer="layer1"
     showgrid="false"
     inkscape:window-width="1920"
     inkscape:window-height="1027"
     inkscape:window-x="-8"
     inkscape:window-y="-8"
     inkscape:window-maximized="1" />
  <metadata
     id="metadata3842">
    <rdf:RDF>
      <cc:Work
         rdf:about="">
        <dc:format>image/svg+xml</dc:format>
        <dc:type
           rdf:resource="http://purl.org/dc/dcmitype/StillImage" />
        <dc:title></dc:title>
      </cc:Work>
    </rdf:RDF>
  </metadata>
  <g
     inkscape:label="Layer 1"
     inkscape:groupmode="layer"
     id="layer1"
     transform="translate(99.603199,195.92253)">
    <path
       d="m -2.0954505,-195.14602 c 53.2623345,0 96.7157435,43.44725 96.7157435,96.725051 0,53.271584 -43.453409,96.7250024 -96.7157435,96.7250024 -53.2777415,0 -96.7312395,-43.4534184 -96.7312395,-96.7250024 0,-53.277801 43.453498,-96.725051 96.7312395,-96.725051 z"
       style="fill:#ffffff;fill-opacity:1;stroke:#000000;stroke-width:1.55301702;stroke-linecap:butt;stroke-linejoin:miter;stroke-miterlimit:22.9260006;stroke-dasharray:none;stroke-opacity:1"
       id="path4362"
       inkscape:connector-curvature="0" />
    <path
       d="m -2.098532,-189.97751 c 50.420239,0 91.550316,41.12386 91.550316,91.556541 0,50.423353 -41.130077,91.5565633 -91.550316,91.5565633 -50.429572,0 -91.562818,-41.1332103 -91.562818,-91.5565633 0,-50.432681 41.133246,-91.556541 91.562818,-91.556541 z m -0.044023,24.28294 c 37.117071,0 67.376047,30.25899 67.376047,67.376103 0,37.107787 -30.258976,67.372979 -67.376047,67.372979 -37.107825,0 -67.372964,-30.265192 -67.372964,-67.372979 0,-37.117113 30.265139,-67.376103 67.372964,-67.376103"
       style="fill:#ed1a3a;fill-opacity:1;fill-rule:evenodd;stroke:none;stroke-width:3.10603404"
       id="path4358"
       inkscape:connector-curvature="0" />
    <path
       d="m -38.255911,-86.618044 c 5.242996,0 9.504465,4.261478 9.504465,9.498254 0,5.239879 -4.261469,9.504465 -9.504465,9.504465 -5.233663,0 -9.495132,-4.264586 -9.495132,-9.504465 0,-5.236776 4.261469,-9.498254 9.495132,-9.498254 z m 0,4.801934 c 2.67745,0 4.845472,2.108993 4.845472,4.69632 0,2.587328 -2.168022,4.693216 -4.845472,4.693216 -2.66803,0 -4.836051,-2.105888 -4.836051,-4.693216 0,-2.587327 2.168021,-4.69632 4.836051,-4.69632 z m 63.934629,-4.687008 c 5.239914,0 9.504464,4.270802 9.504464,9.507569 0,5.239879 -4.26455,9.504465 -9.504464,9.504465 -5.236745,0 -9.498214,-4.264586 -9.498214,-9.504465 0,-5.236767 4.261469,-9.507569 9.498214,-9.507569 z m 0,4.811249 c 2.67428,0 4.842302,2.108992 4.842302,4.69632 0,2.584219 -2.168022,4.693216 -4.842302,4.693216 -2.66803,0 -4.839221,-2.108997 -4.839221,-4.693216 0,-2.587328 2.171191,-4.69632 4.839221,-4.69632 z m -73.889444,-19.953161 c -0.835548,-0.0625 -1.01877,-0.60258 -0.620718,-1.16477 l 7.128305,-9.99521 13.520552,-0.006 v 11.20035 z m 28.95133,10.256124 0.05283,-35.237964 c 0.07044,-2.27361 1.639928,-2.84823 4.239722,-2.84823 l 57.53613,-0.1149 c 3.180628,0 3.522243,1.27969 3.522243,2.81097 l 0.01761,35.39015 z m 56.393217,14.275324 c 0.223634,-4.441624 -2.559382,-9.737411 -7.911113,-11.278006 l 17.073875,0.09007 -0.05283,5.749263 z m -63.695498,0.15223 c 0.282624,-4.292537 -4.205561,-11.197251 -9.482718,-11.812246 -3.770706,-0.552835 -7.26812,0 -10.920846,3.606106 -1.683422,1.950585 -3.093551,5.010024 -2.84817,7.684323 -2.708442,-0.226716 -4.982118,0.295039 -5.671599,-3.025273 l 0.102133,-19.651878 11.380441,-15.21646 c 0.27382,-0.54976 0.972193,-0.94734 1.695924,-0.94734 l 17.045965,-0.0185 c 1.170911,-0.0555 2.09961,1.14302 1.978548,2.01271 l 0.01761,26.068944 45.183495,0.03434 c -5.211915,1.984747 -7.998013,5.864189 -8.311718,11.231412 l -40.170385,0.03434"
       style="fill:#000000;fill-opacity:1;fill-rule:evenodd;stroke:none;stroke-width:3.10603404"
       id="path4360"
       inkscape:connector-curvature="0" />
  </g>
</svg>
