<?xml version="1.0" encoding="UTF-8" standalone="no"?>
<!-- Created with Inkscape (http://www.inkscape.org/) -->

<svg
   xmlns:dc="http://purl.org/dc/elements/1.1/"
   xmlns:cc="http://creativecommons.org/ns#"
   xmlns:rdf="http://www.w3.org/1999/02/22-rdf-syntax-ns#"
   xmlns:svg="http://www.w3.org/2000/svg"
   xmlns="http://www.w3.org/2000/svg"
   xmlns:sodipodi="http://sodipodi.sourceforge.net/DTD/sodipodi-0.dtd"
   xmlns:inkscape="http://www.inkscape.org/namespaces/inkscape"
   width="195mm"
   height="195.00308mm"
   viewBox="0 0 195 195.00308"
   version="1.1"
   id="svg3845"
   inkscape:version="0.92.3 (2405546, 2018-03-11)"
   sodipodi:docname="Latvia_road_sign_312.svg">
  <defs
     id="defs3839" />
  <sodipodi:namedview
     id="base"
     pagecolor="#ffffff"
     bordercolor="#666666"
     borderopacity="1.0"
     inkscape:pageopacity="0.0"
     inkscape:pageshadow="2"
     inkscape:zoom="0.49497475"
     inkscape:cx="1412.3751"
     inkscape:cy="-122.0776"
     inkscape:document-units="mm"
     inkscape:current-layer="layer1"
     showgrid="false"
     inkscape:window-width="1920"
     inkscape:window-height="1027"
     inkscape:window-x="-8"
     inkscape:window-y="-8"
     inkscape:window-maximized="1" />
  <metadata
     id="metadata3842">
    <rdf:RDF>
      <cc:Work
         rdf:about="">
        <dc:format>image/svg+xml</dc:format>
        <dc:type
           rdf:resource="http://purl.org/dc/dcmitype/StillImage" />
        <dc:title></dc:title>
      </cc:Work>
    </rdf:RDF>
  </metadata>
  <g
     inkscape:label="Layer 1"
     inkscape:groupmode="layer"
     id="layer1"
     transform="translate(483.02828,293.5821)">
    <path
       d="m -385.52053,-292.80559 c 53.26234,0 96.71575,43.44725 96.71575,96.72508 0,53.27158 -43.45341,96.724987 -96.71575,96.724987 -53.27774,0 -96.73124,-43.453407 -96.73124,-96.724987 0,-53.27783 43.4535,-96.72508 96.73124,-96.72508 z"
       style="fill:#ffffff;fill-opacity:1;stroke:#000000;stroke-width:1.55301702;stroke-linecap:butt;stroke-linejoin:miter;stroke-miterlimit:22.9260006;stroke-dasharray:none;stroke-opacity:1"
       id="path6296"
       inkscape:connector-curvature="0" />
    <path
       d="m -385.52361,-287.63708 c 50.42024,0 91.55032,41.127 91.55032,91.55657 0,50.4264 -41.13008,91.55657 -91.55032,91.55657 -50.42957,0 -91.56282,-41.13017 -91.56282,-91.55657 0,-50.42957 41.13325,-91.55657 91.56282,-91.55657 z m -0.044,24.28609 c 37.11707,0 67.37605,30.25898 67.37605,67.37297 0,37.1109 -30.25898,67.37604 -67.37605,67.37604 -37.10783,0 -67.37297,-30.26514 -67.37297,-67.37604 0,-37.11399 30.26514,-67.37297 67.37297,-67.37297"
       style="fill:#ed1a3a;fill-opacity:1;fill-rule:evenodd;stroke:none;stroke-width:3.10603404"
       id="path6290"
       inkscape:connector-curvature="0" />
    <path
       d="m -409.97742,-154.33236 28.26185,-71.3673 h -22.31687 v 11.89612 h -11.89304 v -23.78916 h 47.57823 v 11.15689 l -28.24626,72.10345 h -13.38391"
       style="fill:#000000;fill-opacity:1;fill-rule:evenodd;stroke:none;stroke-width:3.10603404"
       id="path6292"
       inkscape:connector-curvature="0" />
    <path
       d="m -355.37337,-154.41309 h -4.0005 c -3.96951,0 -7.19672,-3.23029 -7.19672,-7.1998 v -19.58351 h -3.1992 v -5.1995 h 3.1992 v -9.59454 h 6.39533 v 9.59454 h 4.80189 v 5.1995 h -4.80189 v 18.78221 c 0,1.10567 0.90387,2.00021 2.0003,2.00021 h 2.80159 v 6.00089"
       style="fill:#000000;fill-opacity:1;fill-rule:evenodd;stroke:none;stroke-width:3.10603404"
       id="path6294"
       inkscape:connector-curvature="0" />
  </g>
</svg>
