<?xml version="1.0" encoding="UTF-8" standalone="no"?>
<!-- Created with Inkscape (http://www.inkscape.org/) -->

<svg
   xmlns:dc="http://purl.org/dc/elements/1.1/"
   xmlns:cc="http://creativecommons.org/ns#"
   xmlns:rdf="http://www.w3.org/1999/02/22-rdf-syntax-ns#"
   xmlns:svg="http://www.w3.org/2000/svg"
   xmlns="http://www.w3.org/2000/svg"
   xmlns:sodipodi="http://sodipodi.sourceforge.net/DTD/sodipodi-0.dtd"
   xmlns:inkscape="http://www.inkscape.org/namespaces/inkscape"
   width="195mm"
   height="195mm"
   viewBox="0 0 195 195"
   version="1.1"
   id="svg3845"
   inkscape:version="0.92.3 (2405546, 2018-03-11)"
   sodipodi:docname="Latvia_road_sign_314.svg">
  <defs
     id="defs3839" />
  <sodipodi:namedview
     id="base"
     pagecolor="#ffffff"
     bordercolor="#666666"
     borderopacity="1.0"
     inkscape:pageopacity="0.0"
     inkscape:pageshadow="2"
     inkscape:zoom="0.49497475"
     inkscape:cx="940.50057"
     inkscape:cy="70.728148"
     inkscape:document-units="mm"
     inkscape:current-layer="layer1"
     showgrid="false"
     inkscape:window-width="1920"
     inkscape:window-height="1027"
     inkscape:window-x="-8"
     inkscape:window-y="-8"
     inkscape:window-maximized="1" />
  <metadata
     id="metadata3842">
    <rdf:RDF>
      <cc:Work
         rdf:about="">
        <dc:format>image/svg+xml</dc:format>
        <dc:type
           rdf:resource="http://purl.org/dc/dcmitype/StillImage" />
        <dc:title></dc:title>
      </cc:Work>
    </rdf:RDF>
  </metadata>
  <g
     inkscape:label="Layer 1"
     inkscape:groupmode="layer"
     id="layer1"
     transform="translate(358.17815,306.71053)">
    <path
       d="m -260.67194,-305.93403 c 53.26458,0 96.7173,43.44656 96.7173,96.72355 0,53.27074 -43.45272,96.72346 -96.7173,96.72346 -53.2769,0 -96.72971,-43.45272 -96.72971,-96.72346 0,-53.27699 43.45281,-96.72355 96.72971,-96.72355 z"
       style="fill:#ffffff;fill-opacity:1;stroke:#000000;stroke-width:1.55299246;stroke-linecap:butt;stroke-linejoin:miter;stroke-miterlimit:22.9260006;stroke-dasharray:none;stroke-opacity:1"
       id="path6268"
       inkscape:connector-curvature="0" />
    <path
       d="m -260.67194,-300.7656 c 50.41637,0 91.54896,41.12634 91.54896,91.55512 0,50.42561 -41.13259,91.55512 -91.54896,91.55512 -50.43185,0 -91.56128,-41.12951 -91.56128,-91.55512 0,-50.42878 41.12943,-91.55512 91.56128,-91.55512 z m -0.0528,24.2857 c 37.11648,0 67.37498,30.2585 67.37498,67.3719 0,37.10715 -30.2585,67.37498 -67.37498,67.37498 -37.10724,0 -67.3719,-30.26783 -67.3719,-67.37498 0,-37.1134 30.26466,-67.3719 67.3719,-67.3719"
       style="fill:#ed1a3a;fill-opacity:1;fill-rule:evenodd;stroke:none;stroke-width:3.10598493"
       id="path6254"
       inkscape:connector-curvature="0" />
    <path
       d="m -314.41476,-182.8252 15.74423,-8.7371 -1.83879,5.75541 13.89619,0.0352 v 5.81749 h -13.95826 l 1.83254,5.97279 -15.67591,-8.84275"
       style="fill:#000000;fill-opacity:1;fill-rule:evenodd;stroke:none;stroke-width:3.10598493"
       id="path6256"
       inkscape:connector-curvature="0" />
    <path
       d="m -223.30382,-174.04452 1.99718,-5.91072 -13.34953,-0.0528 -0.0352,-5.79574 h 13.22838 l -1.91019,-5.78957 16.50519,8.79926 -16.43687,8.75269"
       style="fill:#000000;fill-opacity:1;fill-rule:evenodd;stroke:none;stroke-width:3.10598493"
       id="path6258"
       inkscape:connector-curvature="0" />
    <path
       d="m -301.03107,-216.62138 c 3.50352,0 6.36415,2.86063 6.36415,6.36415 0,3.50352 -2.86063,6.36415 -6.36415,6.36415 -3.50361,0 -6.36415,-2.86063 -6.36415,-6.36415 0,-3.50352 2.86054,-6.36415 6.36415,-6.36415 z m 67.25075,0 c 3.50361,0 6.36415,2.86063 6.36415,6.36415 0,3.50352 -2.86054,6.36415 -6.36415,6.36415 -3.50352,0 -6.36414,-2.86063 -6.36414,-6.36415 0,-3.50352 2.86062,-6.36415 6.36414,-6.36415 z m -15.88087,0 c 3.50352,0 6.36415,2.86063 6.36415,6.36415 0,3.50352 -2.86063,6.36415 -6.36415,6.36415 -3.50352,0 -6.36415,-2.86063 -6.36415,-6.36415 0,-3.50352 2.86063,-6.36415 6.36415,-6.36415 z m -59.90202,-9.53231 5.36398,-7.46364 h 10.01681 l 0.0176,7.50713 z m 22.21712,-14.77206 c 0.0898,-1.56542 1.01875,-2.42261 2.53134,-2.49093 h 75.81714 c 1.34795,0.0352 2.21765,1.20505 2.27356,2.3947 l -0.0528,21.33501 -80.56613,-0.0352 z m 41.26299,23.23904 h 8.83967 c -2.15557,1.10882 -3.91354,2.86679 -4.46645,5.35781 -0.54939,-2.43203 -2.62766,-4.68075 -4.37322,-5.35781 z m 20.61754,7.3829 c -0.15231,-3.13391 -1.62757,-5.83923 -4.7025,-7.3829 h 23.40985 v 3.57184 z m -67.18868,0 c -0.30111,-4.20857 -2.9227,-8.21227 -8.45757,-8.28059 -5.7275,0.27998 -8.06004,4.77082 -8.15011,8.32101 l -2.55934,-0.7519 c -1.13682,-0.17432 -2.64941,-1.64923 -2.64941,-3.37621 l 0.0616,-11.66605 7.23375,-8.48248 c 0.8012,-1.30137 1.99719,-1.85737 3.2644,-2.00643 h 12.24696 c 1.82004,0.0528 2.76431,1.81388 2.64316,2.92895 l -0.0176,15.89646 35.53558,0.044 c -2.69599,1.2113 -4.75841,4.85772 -4.5192,7.36423 l -34.62863,0.006"
       style="fill:#000000;fill-opacity:1;fill-rule:evenodd;stroke:none;stroke-width:3.10598493"
       id="path6260"
       inkscape:connector-curvature="0" />
    <path
       d="m -276.05273,-186.67033 v -2.37304 l 2.23314,-1.67407 h 2.23631 v 15.63859 h -2.23631 v -13.26563 l -2.23314,1.67415"
       style="fill:#000000;fill-opacity:1;fill-rule:evenodd;stroke:none;stroke-width:3.10598493"
       id="path6262"
       inkscape:connector-curvature="0" />
    <path
       d="m -267.95236,-179.4055 v -6.98221 c 0,-2.46927 2.00027,-4.46954 4.46954,-4.46954 2.46927,0 4.46637,2.00027 4.46637,4.46954 v 6.98221 c 0,2.4662 -1.9971,4.46954 -4.46637,4.46954 -2.46927,0 -4.46954,-2.00334 -4.46954,-4.46954 z m 2.23631,0 c 0,1.23623 1.00018,2.23631 2.23323,2.23631 1.23305,0 2.23323,-1.00008 2.23323,-2.23631 v -6.98221 c 0,-1.23622 -1.00018,-2.23631 -2.23323,-2.23631 -1.23305,0 -2.23323,1.00009 -2.23323,2.23631 v 6.98221"
       style="fill:#000000;fill-opacity:1;fill-rule:evenodd;stroke:none;stroke-width:3.10598493"
       id="path6264"
       inkscape:connector-curvature="0" />
    <path
       d="m -255.46626,-174.93904 v -8.74027 h 1.74863 v 0.98459 c 1.02501,-1.26721 2.88237,-1.46293 4.14959,-0.4411 0.19898,0.16112 0.37594,0.34513 0.52474,0.54939 1.14298,-1.40077 3.20849,-1.60891 4.61243,-0.46311 0.7607,0.62159 1.20514,1.55301 1.20514,2.5376 v 5.5722 h -1.74872 v -5.35473 c 0,-0.96602 -0.78271,-1.74873 -1.74864,-1.74873 -0.96601,0 -1.74872,0.78271 -1.74872,1.74873 v 5.35473 h -1.74864 v -5.35473 c 0,-0.96602 -0.7827,-1.74873 -1.74863,-1.74873 -0.96602,0 -1.74873,0.78271 -1.74873,1.74873 v 5.35473 h -1.74863"
       style="fill:#000000;fill-opacity:1;fill-rule:evenodd;stroke:none;stroke-width:3.10598493"
       id="path6266"
       inkscape:connector-curvature="0" />
  </g>
</svg>
