<?xml version="1.0" encoding="UTF-8" standalone="no"?>
<!-- Created with Inkscape (http://www.inkscape.org/) -->

<svg
   xmlns:dc="http://purl.org/dc/elements/1.1/"
   xmlns:cc="http://creativecommons.org/ns#"
   xmlns:rdf="http://www.w3.org/1999/02/22-rdf-syntax-ns#"
   xmlns:svg="http://www.w3.org/2000/svg"
   xmlns="http://www.w3.org/2000/svg"
   xmlns:sodipodi="http://sodipodi.sourceforge.net/DTD/sodipodi-0.dtd"
   xmlns:inkscape="http://www.inkscape.org/namespaces/inkscape"
   width="195mm"
   height="195mm"
   viewBox="0 0 195 195"
   version="1.1"
   id="svg3845"
   inkscape:version="0.92.3 (2405546, 2018-03-11)"
   sodipodi:docname="Latvia_road_sign_314.svg">
  <defs
     id="defs3839" />
  <sodipodi:namedview
     id="base"
     pagecolor="#ffffff"
     bordercolor="#666666"
     borderopacity="1.0"
     inkscape:pageopacity="0.0"
     inkscape:pageshadow="2"
     inkscape:zoom="0.24748738"
     inkscape:cx="-1086.8665"
     inkscape:cy="-167.07642"
     inkscape:document-units="mm"
     inkscape:current-layer="layer1"
     showgrid="false"
     inkscape:window-width="1920"
     inkscape:window-height="1027"
     inkscape:window-x="-8"
     inkscape:window-y="-8"
     inkscape:window-maximized="1" />
  <metadata
     id="metadata3842">
    <rdf:RDF>
      <cc:Work
         rdf:about="">
        <dc:format>image/svg+xml</dc:format>
        <dc:type
           rdf:resource="http://purl.org/dc/dcmitype/StillImage" />
        <dc:title></dc:title>
      </cc:Work>
    </rdf:RDF>
  </metadata>
  <g
     inkscape:label="Layer 1"
     inkscape:groupmode="layer"
     id="layer1"
     transform="translate(80.344769,423.08357)">
    <path
       d="m 17.16298,-422.30706 c 53.262334,0 96.71574,43.44724 96.71574,96.72507 0,53.2685 -43.453406,96.72191 -96.71574,96.72191 -53.277742,0 -96.73124,-43.45341 -96.73124,-96.72191 0,-53.27783 43.453498,-96.72507 96.73124,-96.72507 z"
       style="fill:#ffffff;fill-opacity:1;stroke:#000000;stroke-width:1.55301702;stroke-linecap:butt;stroke-linejoin:miter;stroke-miterlimit:22.9260006;stroke-dasharray:none;stroke-opacity:1"
       id="path4232"
       inkscape:connector-curvature="0" />
    <path
       d="m 17.16298,-417.14172 c 50.417157,0 91.5504,41.12699 91.5504,91.55973 0,50.42332 -41.133243,91.55657 -91.5504,91.55657 -50.432654,0 -91.5659,-41.13325 -91.5659,-91.55657 0,-50.43274 41.133246,-91.55973 91.5659,-91.55973 z m -0.05283,24.28608 c 37.117071,0 67.376047,30.25898 67.376047,67.37614 0,37.10773 -30.258976,67.37296 -67.376047,67.37296 -37.107825,0 -67.372964,-30.26523 -67.372964,-67.37296 0,-37.11716 30.265139,-67.37614 67.372964,-67.37614"
       style="fill:#ed1a3a;fill-opacity:1;fill-rule:evenodd;stroke:none;stroke-width:3.10603404"
       id="path4222"
       inkscape:connector-curvature="0" />
    <path
       d="m -16.745552,-333.73848 c 3.071804,0 5.578447,2.4134 5.578447,5.37039 0,2.95691 -2.506643,5.36406 -5.578447,5.36406 -3.071893,0 -5.569115,-2.40715 -5.569115,-5.36406 0,-2.95699 2.497222,-5.37039 5.569115,-5.37039 z m 67.938302,0 c 3.071804,0 5.575277,2.4134 5.575277,5.37039 0,2.95691 -2.503473,5.36406 -5.575277,5.36406 -3.074974,0 -5.572285,-2.40715 -5.572285,-5.36406 0,-2.95699 2.497311,-5.37039 5.572285,-5.37039 z m -1.897812,42.40356 -1.785994,-2.68362 -0.0088,-8.23714 c -10.00456,0.56877 -19.179737,1.01252 -30.258975,1.08084 -11.7905554,-0.0704 -18.8257083,-0.35746 -30.389459,-1.12125 l -0.0063,8.42978 -1.92264,2.53764 -10.128793,-0.0176 -2.0717,-2.74569 0.07924,-20.31657 88.876035,0.0528 -0.02641,20.30107 -1.80149,2.68362 z m -76.535814,-27.40447 0.03522,-9.69711 c 2.155607,-9.1006 4.413699,-15.57358 9.37407,-22.72681 l 7.44509,-11.03574 27.581614,-1.10884 28.153114,1.21132 7.246373,10.90218 c 4.674577,8.07884 6.398411,12.58252 9.03853,23.00327 l 0.03522,9.53863 z m 7.84279,-21.18628 c 3.037643,-6.76803 7.177962,-13.46157 11.7749709,-19.27606 l 24.7923461,-1.13059 24.994233,1.06843 c 5.093935,5.35798 8.883307,13.02988 11.771889,19.76374 -12.330975,-1.46604 -26.016172,-1.82324 -36.806535,-1.72692 -9.669109,-0.096 -23.9102223,0.36363 -36.526904,1.3014"
       style="fill:#000000;fill-opacity:1;fill-rule:evenodd;stroke:none;stroke-width:3.10603404"
       id="path4224"
       inkscape:connector-curvature="0" />
    <path
       d="m 17.16298,-417.14172 c 50.417157,0 91.5504,41.12699 91.5504,91.55973 0,50.42332 -41.133243,91.55657 -91.5504,91.55657 -50.432654,0 -91.5659,-41.13325 -91.5659,-91.55657 0,-50.43274 41.133246,-91.55973 91.5659,-91.55973 z m -0.05283,24.28608 c 37.117071,0 67.376047,30.25898 67.376047,67.37614 0,37.10773 -30.258976,67.37296 -67.376047,67.37296 -37.107825,0 -67.372964,-30.26523 -67.372964,-67.37296 0,-37.11716 30.265139,-67.37614 67.372964,-67.37614"
       style="fill:#ed1a3a;fill-opacity:1;fill-rule:evenodd;stroke:none;stroke-width:3.10603404"
       id="path4226"
       inkscape:connector-curvature="0" />
    <path
       d="m -16.745552,-333.73848 c 3.071804,0 5.578447,2.4134 5.578447,5.37039 0,2.95691 -2.506643,5.36406 -5.578447,5.36406 -3.071893,0 -5.569115,-2.40715 -5.569115,-5.36406 0,-2.95699 2.497222,-5.37039 5.569115,-5.37039 z m 67.938302,0 c 3.071804,0 5.575277,2.4134 5.575277,5.37039 0,2.95691 -2.503473,5.36406 -5.575277,5.36406 -3.074974,0 -5.572285,-2.40715 -5.572285,-5.36406 0,-2.95699 2.497311,-5.37039 5.572285,-5.37039 z m -1.897812,42.40356 -1.785994,-2.68362 -0.0088,-8.23714 c -10.00456,0.56877 -19.179737,1.01252 -30.258975,1.08084 -11.7905554,-0.0704 -18.8257083,-0.35746 -30.389459,-1.12125 l -0.0063,8.42978 -1.92264,2.53764 -10.128793,-0.0176 -2.0717,-2.74569 0.07924,-20.31657 88.876035,0.0528 -0.02641,20.30107 -1.80149,2.68362 z m -76.535814,-27.40447 0.03522,-9.69711 c 2.155607,-9.1006 4.413699,-15.57358 9.37407,-22.72681 l 7.44509,-11.03574 27.581614,-1.10884 28.153114,1.21132 7.246373,10.90218 c 4.674577,8.07884 6.398411,12.58252 9.03853,23.00327 l 0.03522,9.53863 z m 7.84279,-21.18628 c 3.037643,-6.76803 7.177962,-13.46157 11.7749709,-19.27606 l 24.7923461,-1.13059 24.994233,1.06843 c 5.093935,5.35798 8.883307,13.02988 11.771889,19.76374 -12.330975,-1.46604 -26.016172,-1.82324 -36.806535,-1.72692 -9.669109,-0.096 -23.9102223,0.36363 -36.526904,1.3014"
       style="fill:#000000;fill-opacity:1;fill-rule:evenodd;stroke:none;stroke-width:3.10603404"
       id="path4228"
       inkscape:connector-curvature="0" />
    <path
       d="m 17.16298,-422.30706 c 53.262334,0 96.71574,43.44724 96.71574,96.72507 0,53.2685 -43.453406,96.72191 -96.71574,96.72191 -53.277742,0 -96.73124,-43.45341 -96.73124,-96.72191 0,-53.27783 43.453498,-96.72507 96.73124,-96.72507 z"
       style="fill:none;stroke:#231f20;stroke-width:0.67090333;stroke-linecap:butt;stroke-linejoin:miter;stroke-miterlimit:22.9260006;stroke-dasharray:none;stroke-opacity:1"
       id="path4230"
       inkscape:connector-curvature="0" />
  </g>
</svg>
