<?xml version="1.0" encoding="UTF-8" standalone="no"?>
<!-- Created with Inkscape (http://www.inkscape.org/) -->

<svg
   xmlns:dc="http://purl.org/dc/elements/1.1/"
   xmlns:cc="http://creativecommons.org/ns#"
   xmlns:rdf="http://www.w3.org/1999/02/22-rdf-syntax-ns#"
   xmlns:svg="http://www.w3.org/2000/svg"
   xmlns="http://www.w3.org/2000/svg"
   xmlns:sodipodi="http://sodipodi.sourceforge.net/DTD/sodipodi-0.dtd"
   xmlns:inkscape="http://www.inkscape.org/namespaces/inkscape"
   width="195mm"
   height="195mm"
   viewBox="0 0 195 195"
   version="1.1"
   id="svg3845"
   inkscape:version="0.92.3 (2405546, 2018-03-11)"
   sodipodi:docname="Latvia_road_sign_313.svg">
  <defs
     id="defs3839" />
  <sodipodi:namedview
     id="base"
     pagecolor="#ffffff"
     bordercolor="#666666"
     borderopacity="1.0"
     inkscape:pageopacity="0.0"
     inkscape:pageshadow="2"
     inkscape:zoom="0.49497475"
     inkscape:cx="78.402022"
     inkscape:cy="-60.019944"
     inkscape:document-units="mm"
     inkscape:current-layer="layer1"
     showgrid="false"
     inkscape:window-width="1920"
     inkscape:window-height="1027"
     inkscape:window-x="-8"
     inkscape:window-y="-8"
     inkscape:window-maximized="1" />
  <metadata
     id="metadata3842">
    <rdf:RDF>
      <cc:Work
         rdf:about="">
        <dc:format>image/svg+xml</dc:format>
        <dc:type
           rdf:resource="http://purl.org/dc/dcmitype/StillImage" />
        <dc:title></dc:title>
      </cc:Work>
    </rdf:RDF>
  </metadata>
  <g
     inkscape:label="Layer 1"
     inkscape:groupmode="layer"
     id="layer1"
     transform="translate(130.08124,341.30429)">
    <path
       d="m -32.575027,-340.52779 c 53.264574,0 96.717296,43.44656 96.717296,96.72355 0,53.27074 -43.452722,96.72346 -96.717296,96.72346 -53.2769,0 -96.729713,-43.45272 -96.729713,-96.72346 0,-53.27699 43.452813,-96.72355 96.729713,-96.72355 z"
       style="fill:#ffffff;fill-opacity:1;stroke:#000000;stroke-width:1.55299246;stroke-linecap:butt;stroke-linejoin:miter;stroke-miterlimit:22.9260006;stroke-dasharray:none;stroke-opacity:1"
       id="path6280"
       inkscape:connector-curvature="0" />
    <path
       d="m -32.575027,-335.35936 c 50.416361,0 91.548957,41.12318 91.548957,91.55512 0,50.42253 -41.132596,91.55512 -91.548957,91.55512 -50.431857,0 -91.561283,-41.13259 -91.561283,-91.55512 0,-50.43194 41.129426,-91.55512 91.561283,-91.55512 z m -0.05283,24.28571 c 37.1164841,0 67.374982,30.25532 67.374982,67.3719 0,37.10715 -30.2584979,67.3719 -67.374982,67.3719 -37.107239,0 -67.371899,-30.26475 -67.371899,-67.3719 0,-37.11658 30.26466,-67.3719 67.371899,-67.3719"
       style="fill:#ed1a3a;fill-opacity:1;fill-rule:evenodd;stroke:none;stroke-width:3.10598493"
       id="path6270"
       inkscape:connector-curvature="0" />
    <path
       d="m -32.478708,-233.76576 -10.259113,-9.92983 20.474645,0.0264 -10.215532,9.90183"
       style="fill:#000000;fill-opacity:1;fill-rule:evenodd;stroke:none;stroke-width:3.10598493"
       id="path6272"
       inkscape:connector-curvature="0" />
    <path
       d="m 7.7686091,-200.13413 c -3.2768094,-0.0352 -6.0815287,-2.64316 -6.1653463,-5.91381 v -7.08162 l -5.4447969,0.0264 0.052826,-7.60971 -21.7046139,2.77364 c -1.559254,2.7084 -4.401216,4.50678 -8.156366,4.62485 -2.838881,0.0528 -6.761667,-1.73314 -8.106622,-4.62485 l -21.776018,-2.68357 -0.05283,7.49164 -5.385808,0.0264 v 7.05362 c 0.04402,3.09359 -2.758056,5.90139 -6.022451,5.85173 -3.050097,-0.1215 -5.755415,-2.42894 -5.817574,-5.96038 v -33.2496 c 0,-2.64008 1.785966,-5.76158 5.873482,-5.93247 3.282972,-0.0933 6.025621,2.83272 5.966543,5.87348 v 6.8549 h 5.438634 v 7.68419 l 21.533722,-2.72398 c 1.096496,-2.46302 4.38572,-4.96021 8.314757,-4.89814 3.826554,-0.20514 6.597112,1.8388 8.821007,5.28949 l 21.046136,2.46928 -0.026413,-7.75877 h 5.4727068 l -0.061631,-6.89839 c 0.095968,-2.57792 2.2238952,-6.22751 6.1187712,-5.93239 3.866967,0.21131 5.683924,2.87305 5.814405,5.79574 l 0.0898,33.63163 c -0.109174,3.71474 -3.7551509,5.81749 -5.8237371,5.81749"
       style="fill:#000000;fill-opacity:1;fill-rule:evenodd;stroke:none;stroke-width:3.10598493"
       id="path6274"
       inkscape:connector-curvature="0" />
    <path
       d="m -55.696001,-272.08422 v -26.28288 h 26.279805 v 7.01021 h -19.716853 v 11.0604 c 5.506956,-4.35147 13.49551,-3.42587 17.847069,2.081 1.779715,2.23631 2.748724,5.0162 2.748724,7.87683 v 7.4543 c 0,7.73393 -6.277162,14.02043 -14.020427,14.02043 -7.230675,0 -13.284294,-5.50687 -13.96135,-12.70655 h 7.075454 c 0.723719,3.8048 4.394964,6.29582 8.199771,5.56277 3.304808,-0.62423 5.696338,-3.51593 5.696338,-6.87665 v -6.14052 c 0,-3.86071 -3.136996,-6.9978 -7.010213,-6.9978 -2.680402,0 -5.127928,1.52193 -6.308241,3.93846 h -6.830077"
       style="fill:#000000;fill-opacity:1;fill-rule:evenodd;stroke:none;stroke-width:3.10598493"
       id="path6276"
       inkscape:connector-curvature="0" />
    <path
       d="m -8.5315326,-249.22421 h -4.0098614 c -3.981863,0 -7.218348,-3.23639 -7.218348,-7.21834 v -19.6422 h -3.208488 v -5.21183 h 3.208488 v -9.62238 h 6.413893 v 9.62238 h 4.8143164 v 5.21183 h -4.8143164 v 18.83774 c 0,1.10891 0.906938,2.00652 2.006428,2.00652 h 2.8078884 v 6.01628"
       style="fill:#000000;fill-opacity:1;fill-rule:evenodd;stroke:none;stroke-width:3.10598493"
       id="path6278"
       inkscape:connector-curvature="0" />
  </g>
</svg>
