<?xml version="1.0" encoding="UTF-8" standalone="no"?>
<!-- Created with Inkscape (http://www.inkscape.org/) -->

<svg
   xmlns:dc="http://purl.org/dc/elements/1.1/"
   xmlns:cc="http://creativecommons.org/ns#"
   xmlns:rdf="http://www.w3.org/1999/02/22-rdf-syntax-ns#"
   xmlns:svg="http://www.w3.org/2000/svg"
   xmlns="http://www.w3.org/2000/svg"
   xmlns:sodipodi="http://sodipodi.sourceforge.net/DTD/sodipodi-0.dtd"
   xmlns:inkscape="http://www.inkscape.org/namespaces/inkscape"
   width="195mm"
   height="194.99995mm"
   viewBox="0 0 195 194.99995"
   version="1.1"
   id="svg3845"
   inkscape:version="0.92.3 (2405546, 2018-03-11)"
   sodipodi:docname="Latvia_road_sign_305.svg">
  <defs
     id="defs3839" />
  <sodipodi:namedview
     id="base"
     pagecolor="#ffffff"
     bordercolor="#666666"
     borderopacity="1.0"
     inkscape:pageopacity="0.0"
     inkscape:pageshadow="2"
     inkscape:zoom="0.49497475"
     inkscape:cx="833.78618"
     inkscape:cy="37.489227"
     inkscape:document-units="mm"
     inkscape:current-layer="layer1"
     showgrid="false"
     inkscape:window-width="1920"
     inkscape:window-height="1027"
     inkscape:window-x="-8"
     inkscape:window-y="-8"
     inkscape:window-maximized="1" />
  <metadata
     id="metadata3842">
    <rdf:RDF>
      <cc:Work
         rdf:about="">
        <dc:format>image/svg+xml</dc:format>
        <dc:type
           rdf:resource="http://purl.org/dc/dcmitype/StillImage" />
        <dc:title></dc:title>
      </cc:Work>
    </rdf:RDF>
  </metadata>
  <g
     inkscape:label="Layer 1"
     inkscape:groupmode="layer"
     id="layer1"
     transform="translate(349.91892,101.68929)">
    <path
       d="m -252.41271,-100.91279 c 53.26458,0 96.7173,43.446524 96.7173,96.7234858 0,53.2707462 -43.45272,96.7234772 -96.7173,96.7234772 -53.2769,0 -96.72971,-43.452731 -96.72971,-96.7234772 0,-53.2769618 43.45281,-96.7234858 96.72971,-96.7234858 z"
       style="fill:#ffffff;fill-opacity:1;stroke:#000000;stroke-width:1.55299246;stroke-linecap:butt;stroke-linejoin:miter;stroke-miterlimit:22.9260006;stroke-dasharray:none;stroke-opacity:1"
       id="path4376"
       inkscape:connector-curvature="0" />
    <path
       d="m -252.41271,-95.744424 c 50.41636,0 91.54896,41.126345 91.54896,91.5551198 0,50.4256672 -41.1326,91.5551202 -91.54896,91.5551202 -50.43185,0 -91.56128,-41.129453 -91.56128,-91.5551202 0,-50.4287748 41.12943,-91.5551198 91.56128,-91.5551198 z m -0.044,24.285694 c 37.1134,0 67.3719,30.258507 67.3719,67.3719263 0,37.1103027 -30.2585,67.3750257 -67.3719,67.3750257 -37.11032,0 -67.37498,-30.264723 -67.37498,-67.3750257 0,-37.1134193 30.26466,-67.3719263 67.37498,-67.3719263"
       style="fill:#ed1a3a;fill-opacity:1;fill-rule:evenodd;stroke:none;stroke-width:3.10598493"
       id="path4372"
       inkscape:connector-curvature="0" />
    <path
       d="m -218.73142,27.137656 c -4.4757,-0.56841 -6.85799,-1.813893 -10.49816,-4.503671 -3.61225,-3.537718 -4.86397,-5.780244 -6.00079,-10.311878 l -11.43317,1.164748 c -2.36362,-0.239127 -3.46936,-1.000124 -4.74899,-2.89478 -0.78887,-1.2330777 -0.78887,-2.5655395 -0.54939,-3.9974026 l -21.96558,-16.2784653 -1.28588,2.5531169 c 5.63119,4.2769416 7.87683,10.3864154 7.36433,17.0922354 -0.41645,3.9352876 -2.38854,7.4605836 -4.98204,10.4702766 -3.41971,3.702334 -8.38308,5.578351 -13.08857,5.783343 -4.37947,0.44418 -9.71871,-1.779724 -12.88678,-4.618595 -3.40104,-2.984857 -5.74608,-7.789814 -6.20576,-12.2375867 -0.28878,-4.9726803 0.8417,-9.32726761 4.162,-13.3495164 3.02219,-3.8452107 6.36732,-5.7895584 12.33386,-6.8890739 3.84839,-0.540412 7.90474,0.655397 10.64114,2.0530549 l 7.15927,-13.8930719 -5.53487,-2.96311 c -1.38211,-0.614985 -2.2798,-1.757985 -2.63699,-2.851294 -0.44374,-2.301541 0.27293,-3.373103 1.13065,-4.345272 0.77919,-0.875859 2.32638,-1.552994 3.82964,-1.285878 l 8.22777,1.503293 c 0.98459,0.397605 1.16781,0.965962 1.06533,1.882224 -0.28614,0.683307 -0.72988,1.046725 -1.69581,0.956647 l -8.23094,-1.518824 c -0.5626,-0.121148 -1.22064,0.152228 -1.45043,0.807537 -0.27646,0.897632 0.28614,1.518824 0.69554,1.671016 l 8.78685,4.702466 -2.12141,4.267617 h 34.02298 l 1.16165,-2.292217 -8.70303,-2.832655 1.04675,-2.14934 c 0.52826,-0.565328 1.12749,-0.894524 2.11516,-0.894524 h 13.2408 c 1.30763,0.08716 1.54684,1.018762 0.73957,2.379187 -0.8012,1.444277 -2.20523,2.518947 -3.68991,3.525286 h -1.40694 l -1.45985,3.009703 6.43872,10.9486004 c 3.99736,-1.8263254 8.01963,-2.3263864 12.25621,-1.3945854 4.92613,1.1554235 9.4919,4.5502643 11.36476,7.8767745 2.67741,3.9321801 3.39488,7.5661828 3.06568,12.1040245 -0.2923,4.618595 -3.04393,9.954684 -6.52571,12.405301 -4.58443,3.612264 -8.04763,4.528526 -13.74714,4.345272 z m -0.35746,-3.509755 c -3.85147,-0.624318 -6.53504,-2.068586 -8.62229,-3.969449 -1.84804,-1.649278 -3.5501,-4.050212 -4.55644,-7.575498 l 15.46469,-1.251717 c 1.37595,-0.06867 2.27048,-1.0467158 2.36054,-2.2456241 0.0898,-1.1616395 -0.67705,-2.4692553 -2.29221,-2.6463023 l -6.84866,-11.4486624 c 2.55618,-1.1492076 5.02853,-1.4722311 7.62203,-1.2796619 3.87938,0.3758584 6.41698,1.8418472 9.1068,4.1061104 3.18357,3.13394099 4.41354,6.6499123 4.70241,10.7094388 -0.088,3.7768795 -0.71403,6.3827965 -2.9786,9.5664295 -3.81731,4.276942 -7.42957,6.258567 -13.95827,6.034936 z M -292.8126,21.36053 c -4.77699,-2.214571 -7.84258,-6.320682 -8.79926,-11.6381324 -0.26678,-4.7335185 0.41028,-8.4917596 3.85147,-12.1319693 2.29221,-2.8047105 5.75532,-4.3670191 9.15645,-4.9820041 2.8947,-0.149058 6.05661,-0.081 9.15637,1.7579856 l -2.68358,5.33918851 c -0.84169,1.58094739 -2.02509,4.79564209 -3.70232,5.28328079 -0.64888,0.229882 -1.0405,-0.1583906 -1.92877,0.229882 -1.26105,0.6522276 -1.75797,1.8138934 -1.43811,2.9631099 0.30111,0.9193696 0.89144,1.6368551 2.23948,1.848063 1.57158,0.02201 2.8233,-1.4442859 2.4816,-3.0438722 2.137,-0.7268005 4.16825,-4.3576952 5.77716,-7.15928898 l 1.93503,-3.73339512 c 1.57474,1.3728386 3.84522,4.23966386 4.32664,6.2678732 1.12749,3.0718173 1.16165,5.0627577 0.68322,8.1128371 -0.7519,4.10611 -3.31097,7.597236 -6.1716,9.566429 -4.17442,2.47858 -8.62221,3.879381 -14.88387,1.320048 z m 60.74996,-17.2351128 c 0.71755,-3.0097026 3.09975,-6.3921204 5.58461,-8.0320748 l 5.50686,9.3645453 z m -2.88854,-0.3012855 -7.65003,-0.9659624 9.22478,-18.5085673 5.39822,9.2185598 c -3.75515,2.913418 -5.75542,5.6031963 -6.97297,10.2559699 z m -15.06718,-0.2795387 -22.25128,-16.477259 1.94128,-3.730287 34.14721,-0.03434 -9.54781,19.1452903 c -1.57167,-0.2857017 -3.15874,0.1583906 -4.2894,1.0964167"
       style="fill:#000000;fill-opacity:1;fill-rule:evenodd;stroke:none;stroke-width:3.10598493"
       id="path4374"
       inkscape:connector-curvature="0" />
  </g>
</svg>
