<?xml version="1.0" encoding="UTF-8" standalone="no"?>
<!-- Created with Inkscape (http://www.inkscape.org/) -->

<svg
   xmlns:dc="http://purl.org/dc/elements/1.1/"
   xmlns:cc="http://creativecommons.org/ns#"
   xmlns:rdf="http://www.w3.org/1999/02/22-rdf-syntax-ns#"
   xmlns:svg="http://www.w3.org/2000/svg"
   xmlns="http://www.w3.org/2000/svg"
   xmlns:sodipodi="http://sodipodi.sourceforge.net/DTD/sodipodi-0.dtd"
   xmlns:inkscape="http://www.inkscape.org/namespaces/inkscape"
   width="195mm"
   height="195.00308mm"
   viewBox="0 0 195 195.00308"
   version="1.1"
   id="svg3845"
   inkscape:version="0.92.3 (2405546, 2018-03-11)"
   sodipodi:docname="Latvia_road_sign_310.svg">
  <defs
     id="defs3839" />
  <sodipodi:namedview
     id="base"
     pagecolor="#ffffff"
     bordercolor="#666666"
     borderopacity="1.0"
     inkscape:pageopacity="0.0"
     inkscape:pageshadow="2"
     inkscape:zoom="0.49497475"
     inkscape:cx="-348.18679"
     inkscape:cy="355.85865"
     inkscape:document-units="mm"
     inkscape:current-layer="layer1"
     showgrid="false"
     inkscape:window-width="1920"
     inkscape:window-height="1027"
     inkscape:window-x="-8"
     inkscape:window-y="-8"
     inkscape:window-maximized="1" />
  <metadata
     id="metadata3842">
    <rdf:RDF>
      <cc:Work
         rdf:about="">
        <dc:format>image/svg+xml</dc:format>
        <dc:type
           rdf:resource="http://purl.org/dc/dcmitype/StillImage" />
        <dc:title></dc:title>
      </cc:Work>
    </rdf:RDF>
  </metadata>
  <g
     inkscape:label="Layer 1"
     inkscape:groupmode="layer"
     id="layer1"
     transform="translate(17.212941,167.12812)">
    <path
       d="m 80.294803,-166.35161 c 53.262337,0 96.715747,43.44724 96.715747,96.725075 0,53.27158 -43.45341,96.72499 -96.715747,96.72499 -53.277737,0 -96.731235,-43.45341 -96.731235,-96.72499 0,-53.277835 43.453498,-96.725075 96.731235,-96.725075 z"
       style="fill:#ffffff;fill-opacity:1;stroke:#000000;stroke-width:1.55301702;stroke-linecap:butt;stroke-linejoin:miter;stroke-miterlimit:22.9260006;stroke-dasharray:none;stroke-opacity:1"
       id="path4318"
       inkscape:connector-curvature="0" />
    <path
       d="m 80.291723,-161.1831 c 50.420237,0 91.553487,41.12699 91.553487,91.556565 0,50.42641 -41.13325,91.55657 -91.553487,91.55657 -50.429569,0 -91.562815,-41.13016 -91.562815,-91.55657 0,-50.429575 41.133246,-91.556565 91.562815,-91.556565 z m -0.044,24.28608 c 37.113987,0 67.376047,30.25581 67.376047,67.372975 0,37.10774 -30.26206,67.37296 -67.376047,67.37296 -37.10783,0 -67.376134,-30.26522 -67.376134,-67.37296 0,-37.117165 30.268304,-67.372975 67.376134,-67.372975"
       style="fill:#ed1a3a;fill-opacity:1;fill-rule:evenodd;stroke:none;stroke-width:3.10603404"
       id="path4314"
       inkscape:connector-curvature="0" />
    <path
       d="m 124.12716,-62.460895 c 5.52879,0 10.04805,4.5161 10.04805,10.04489 0,5.5287 -4.51926,10.03872 -10.04805,10.03872 -5.5287,0 -10.03872,-4.51002 -10.03872,-10.03872 0,-5.52879 4.51002,-10.04489 10.03872,-10.04489 z m 0,4.97895 c 2.7861,0 5.06594,2.27984 5.06594,5.06594 0,2.78609 -2.27984,5.0566 -5.06594,5.0566 -2.78302,0 -5.0566,-2.27051 -5.0566,-5.0566 0,-2.7861 2.27358,-5.06594 5.0566,-5.06594 z m -44.571577,-0.30464 c 2.78301,0 5.06285,2.27667 5.06285,5.06277 0,2.78302 -2.27984,5.05669 -5.06285,5.05669 -2.7861,0 -5.05661,-2.27367 -5.05661,-5.05669 0,-2.7861 2.27051,-5.06277 5.05661,-5.06277 z m -44.27654,0.30464 c 2.78618,0 5.06593,2.27984 5.06593,5.06594 0,2.78609 -2.27975,5.0566 -5.06593,5.0566 -2.78293,0 -5.053527,-2.27051 -5.053527,-5.0566 0,-2.7861 2.270597,-5.06594 5.053527,-5.06594 z m 44.27654,-5.28649 c 5.52879,0 10.04488,4.51618 10.04488,10.04488 0,5.52879 -4.51609,10.03564 -10.04488,10.03564 -5.53187,0 -10.03872,-4.50685 -10.03872,-10.03564 0,-5.5287 4.50685,-10.04488 10.03872,-10.04488 z m -44.27654,0.30728 c 5.53187,0 10.04805,4.51609 10.04805,10.04488 0,5.5287 -4.51618,10.03872 -10.04805,10.03872 -5.525625,0 -10.035557,-4.51002 -10.035557,-10.03872 0,-5.52879 4.509932,-10.04488 10.035557,-10.04488 z m 32.86185,-4.56593 v -21.84786 l 69.857857,0.0176 -0.0352,21.88827 z m -53.44864,0.0616 c -0.11798,-2.1152 -0.07044,-7.78063 0.42878,-11.51718 0.602228,-4.49443 2.394737,-11.29046 3.87319,-15.09532 1.478453,-3.80496 4.475771,-9.852335 7.814792,-14.061065 l 27.420048,-0.0704 c 2.51897,0 3.50983,1.47845 3.50983,3.72105 v 37.020835 z m 121.094977,10.42075 c -0.7792,-1.79225 -1.58719,-3.37944 -3.20228,-4.85789 -1.06544,-1.07468 -3.14647,-2.26425 -4.5286,-2.68361 h 9.90824 v 4.20873 z m -44.422517,-0.0352 c -0.45959,-1.16167 -1.34797,-3.01598 -2.80476,-4.46028 -1.43804,-1.43812 -3.5719,-2.64011 -4.91996,-3.04706 l 36.561147,0.0176 c -1.30764,0.17081 -4.03158,2.0997 -4.63416,2.63396 -0.99702,0.97835 -2.52522,2.99106 -3.14022,4.87338 z m -74.293218,4.18073 c -0.552923,-1.77666 -1.04668,-3.77696 -1.38222,-5.71201 -0.189296,-1.23316 -0.745741,-4.31738 -0.807373,-5.97606 h 16.095521 c -1.854319,0.71405 -4.022341,2.09037 -5.556703,4.20248 -1.773579,2.45065 -2.348161,4.56584 -2.491059,7.48559 z m 30.696908,0.0704 c 0.10214,-1.84807 -0.54676,-4.49136 -1.77666,-6.59097 -1.20507,-2.05312 -3.54082,-4.09066 -6.12503,-5.16851 l 35.80634,-0.009 c -1.68967,0.5494 -3.63406,1.82632 -4.61866,2.82026 -1.01261,0.85403 -2.58738,3.09989 -3.01599,4.67457 l -3.42909,-3.38867 h -6.41082 l -10.43009,7.66573"
       style="fill:#000000;fill-opacity:1;fill-rule:evenodd;stroke:none;stroke-width:3.10603404"
       id="path4316"
       inkscape:connector-curvature="0" />
  </g>
</svg>
