<?xml version="1.0" encoding="UTF-8" standalone="no"?>
<!-- Created with Inkscape (http://www.inkscape.org/) -->

<svg
   xmlns:dc="http://purl.org/dc/elements/1.1/"
   xmlns:cc="http://creativecommons.org/ns#"
   xmlns:rdf="http://www.w3.org/1999/02/22-rdf-syntax-ns#"
   xmlns:svg="http://www.w3.org/2000/svg"
   xmlns="http://www.w3.org/2000/svg"
   xmlns:sodipodi="http://sodipodi.sourceforge.net/DTD/sodipodi-0.dtd"
   xmlns:inkscape="http://www.inkscape.org/namespaces/inkscape"
   width="195mm"
   height="194.99699mm"
   viewBox="0 0 195 194.99699"
   version="1.1"
   id="svg3845"
   inkscape:version="0.92.3 (2405546, 2018-03-11)"
   sodipodi:docname="Latvia_road_sign_311.svg">
  <defs
     id="defs3839" />
  <sodipodi:namedview
     id="base"
     pagecolor="#ffffff"
     bordercolor="#666666"
     borderopacity="1.0"
     inkscape:pageopacity="0.0"
     inkscape:pageshadow="2"
     inkscape:zoom="0.49497475"
     inkscape:cx="653.31278"
     inkscape:cy="56.281026"
     inkscape:document-units="mm"
     inkscape:current-layer="layer1"
     showgrid="false"
     inkscape:window-width="1920"
     inkscape:window-height="1027"
     inkscape:window-x="-8"
     inkscape:window-y="-8"
     inkscape:window-maximized="1" />
  <metadata
     id="metadata3842">
    <rdf:RDF>
      <cc:Work
         rdf:about="">
        <dc:format>image/svg+xml</dc:format>
        <dc:type
           rdf:resource="http://purl.org/dc/dcmitype/StillImage" />
        <dc:title></dc:title>
      </cc:Work>
    </rdf:RDF>
  </metadata>
  <g
     inkscape:label="Layer 1"
     inkscape:groupmode="layer"
     id="layer1"
     transform="translate(282.19304,246.38529)">
    <path
       d="m -184.68687,-245.60879 c 53.2646,0 96.71734,43.4435 96.71734,96.72042 0,53.270848 -43.45274,96.723588 -96.71734,96.723588 -53.27692,0 -96.72967,-43.45274 -96.72967,-96.723588 0,-53.27692 43.45275,-96.72042 96.72967,-96.72042 z"
       style="fill:#ffffff;fill-opacity:1;stroke:#000000;stroke-width:1.55299318;stroke-linecap:butt;stroke-linejoin:miter;stroke-miterlimit:22.9260006;stroke-dasharray:none;stroke-opacity:1"
       id="path6324"
       inkscape:connector-curvature="0" />
    <path
       d="m -184.68687,-240.44353 c 50.41638,0 91.548998,41.12636 91.548998,91.55516 0,50.425718 -41.132618,91.558328 -91.548998,91.558328 -50.42871,0 -91.56133,-41.13261 -91.56133,-91.558328 0,-50.4288 41.13262,-91.55516 91.56133,-91.55516 z m -0.044,24.28571 c 37.11351,0 67.37202,30.25851 67.37202,67.37202 0,37.11025 -30.25851,67.375008 -67.37202,67.375008 -37.10717,0 -67.37501,-30.264758 -67.37501,-67.375008 0,-37.11351 30.26784,-67.37202 67.37501,-67.37202"
       style="fill:#ed1a3a;fill-opacity:1;fill-rule:evenodd;stroke:none;stroke-width:3.10598636"
       id="path6306"
       inkscape:connector-curvature="0" />
    <path
       d="m -192.4518,-158.61632 v -0.20514 0.20514"
       style="fill:#000000;fill-opacity:1;fill-rule:evenodd;stroke:none;stroke-width:3.10598636"
       id="path6308"
       inkscape:connector-curvature="0" />
    <path
       d="m -190.26206,-106.5227 v -10.96409 h 5.06277 l 0.006,5.39823 -5.06894,5.56586"
       style="fill:#000000;fill-opacity:1;fill-rule:evenodd;stroke:none;stroke-width:3.10598636"
       id="path6310"
       inkscape:connector-curvature="0" />
    <path
       d="m -195.03905,-139.03302 h -0.20514 0.20514"
       style="fill:#000000;fill-opacity:1;fill-rule:evenodd;stroke:none;stroke-width:3.10598636"
       id="path6312"
       inkscape:connector-curvature="0" />
    <path
       d="m -159.70227,-208.78724 -24.34162,16.89339 -24.18939,-16.8344 c 8.15012,-3.71474 15.36222,-4.50678 24.18939,-4.56894 7.26801,-0.0528 15.96479,1.25172 24.34162,4.50995"
       style="fill:#000000;fill-opacity:1;fill-rule:evenodd;stroke:none;stroke-width:3.10598636"
       id="path6314"
       inkscape:connector-curvature="0" />
    <path
       d="m -159.83275,-88.911762 c -8.83342,3.09359 -15.51436,5.04411 -24.26396,4.60618 -8.51348,0.43758 -16.66985,-1.87603 -24.24531,-4.60618 l 24.2733,-17.064278 24.23597,17.064278"
       style="fill:#000000;fill-opacity:1;fill-rule:evenodd;stroke:none;stroke-width:3.10598636"
       id="path6316"
       inkscape:connector-curvature="0" />
    <path
       d="m -227.01829,-133.90192 h 11.12873 v 6.271 c 0,3.05626 2.4941,5.56586 5.56594,5.56586 3.07493,0 5.56586,-2.5096 5.56586,-5.56586 v -13.92103 c 0,-3.07493 -2.49093,-5.56595 -5.56586,-5.56595 h -3.4632 v -9.7342 h 3.4632 c 3.07493,0 5.56586,-2.49102 5.56586,-5.56595 v -11.1318 c 0,-3.07493 -2.49093,-5.56287 -5.56586,-5.56287 -3.07184,0 -5.56594,2.48794 -5.56594,5.56287 v 6.25541 h -11.12873 v -6.25541 c 0,-9.2217 7.49164,-16.69468 16.69467,-16.69468 9.22161,0 16.69776,7.47298 16.69776,16.69468 v 10.44233 c 0,4.68067 -2.61525,8.97632 -6.78659,11.13181 4.17134,2.13691 6.78659,6.42939 6.78659,11.12881 v 13.21598 c 0,9.20612 -7.47615,16.67909 -16.69776,16.67909 -9.20303,0 -16.69467,-7.47297 -16.69467,-16.67909 v -6.271"
       style="fill:#000000;fill-opacity:1;fill-rule:evenodd;stroke:none;stroke-width:3.10598636"
       id="path6318"
       inkscape:connector-curvature="0" />
    <path
       d="m -180.764,-125.17723 h 7.67495 v 2.40095 c 0,2.12133 1.72073,3.83897 3.83897,3.83897 2.12142,0 3.83897,-1.71764 3.83897,-3.83897 v -12.9551 c 0,-2.12141 -1.71755,-3.83897 -3.83897,-3.83897 -1.75489,0 -3.28922,1.19581 -3.71474,2.90095 l -6.83941,-0.0264 v -28.78316 h 22.07115 v 7.19035 h -15.35597 v 14.46452 c 3.68058,-3.44761 9.44524,-3.26747 12.89603,0.41293 1.58408,1.68348 2.45994,3.91354 2.45994,6.23992 v 14.39321 c 0,6.34857 -5.15285,11.517 -11.517,11.517 -6.34865,0 -11.51392,-5.16843 -11.51392,-11.517 v -2.40095"
       style="fill:#000000;fill-opacity:1;fill-rule:evenodd;stroke:none;stroke-width:3.10598636"
       id="path6320"
       inkscape:connector-curvature="0" />
    <path
       d="m -151.75095,-111.22512 v -15.74424 h 3.14633 v 1.57475 c 0.86987,-1.62757 2.90104,-2.24881 4.52853,-1.37912 0.5221,0.27998 0.95976,0.68939 1.27038,1.19581 1.18956,-1.68964 3.52219,-2.09649 5.21184,-0.90693 0.99392,0.7017 1.58408,1.84187 1.58408,3.05943 v 12.2003 h -3.14642 V -122.444 c 0,-0.86987 -0.70523,-1.57466 -1.57466,-1.57466 -0.86987,0 -1.57475,0.70523 -1.57475,1.57466 v 11.21888 h -3.1495 V -122.444 c 0,-0.86987 -0.70523,-1.57466 -1.57475,-1.57466 -0.86987,0 -1.57475,0.70523 -1.57475,1.57466 v 11.21888 h -3.14633"
       style="fill:#000000;fill-opacity:1;fill-rule:evenodd;stroke:none;stroke-width:3.10598636"
       id="path6322"
       inkscape:connector-curvature="0" />
  </g>
</svg>
