<?xml version="1.0" encoding="UTF-8" standalone="no"?>
<svg
   xmlns:dc="http://purl.org/dc/elements/1.1/"
   xmlns:cc="http://creativecommons.org/ns#"
   xmlns:rdf="http://www.w3.org/1999/02/22-rdf-syntax-ns#"
   xmlns:svg="http://www.w3.org/2000/svg"
   xmlns="http://www.w3.org/2000/svg"
   xmlns:sodipodi="http://sodipodi.sourceforge.net/DTD/sodipodi-0.dtd"
   xmlns:inkscape="http://www.inkscape.org/namespaces/inkscape"
   width="122.1376mm"
   height="182.82709mm"
   viewBox="0 0 122.1376 182.82708"
   version="1.1"
   id="svg6774"
   inkscape:version="1.0.2-2 (e86c870879, 2021-01-15)"
   sodipodi:docname="Latvia road sign 552.svg">
  <defs
     id="defs6768" />
  <sodipodi:namedview
     id="base"
     pagecolor="#ffffff"
     bordercolor="#666666"
     borderopacity="1.0"
     inkscape:pageopacity="0.0"
     inkscape:pageshadow="2"
     inkscape:zoom="5.6"
     inkscape:cx="405.06808"
     inkscape:cy="28.634402"
     inkscape:document-units="mm"
     inkscape:current-layer="layer1"
     inkscape:document-rotation="0"
     showgrid="false"
     fit-margin-top="0"
     fit-margin-left="0"
     fit-margin-right="0"
     fit-margin-bottom="0"
     inkscape:window-width="1431"
     inkscape:window-height="1042"
     inkscape:window-x="2237"
     inkscape:window-y="98"
     inkscape:window-maximized="0" />
  <metadata
     id="metadata6771">
    <rdf:RDF>
      <cc:Work
         rdf:about="">
        <dc:format>image/svg+xml</dc:format>
        <dc:type
           rdf:resource="http://purl.org/dc/dcmitype/StillImage" />
        <dc:title />
      </cc:Work>
    </rdf:RDF>
  </metadata>
  <g
     inkscape:label="Layer 1"
     inkscape:groupmode="layer"
     id="layer1"
     transform="translate(73.78955,-57.687531)">
    <g
       id="g25574">
      <path
         style="color:#000000;font-style:normal;font-variant:normal;font-weight:normal;font-stretch:normal;font-size:medium;line-height:normal;font-family:sans-serif;font-variant-ligatures:normal;font-variant-position:normal;font-variant-caps:normal;font-variant-numeric:normal;font-variant-alternates:normal;font-variant-east-asian:normal;font-feature-settings:normal;font-variation-settings:normal;text-indent:0;text-align:start;text-decoration:none;text-decoration-line:none;text-decoration-style:solid;text-decoration-color:#000000;letter-spacing:normal;word-spacing:normal;text-transform:none;writing-mode:lr-tb;direction:ltr;text-orientation:mixed;dominant-baseline:auto;baseline-shift:baseline;text-anchor:start;white-space:normal;shape-padding:0;shape-margin:0;inline-size:0;clip-rule:nonzero;display:inline;overflow:visible;visibility:visible;isolation:auto;mix-blend-mode:normal;color-interpolation:sRGB;color-interpolation-filters:linearRGB;solid-color:#000000;solid-opacity:1;vector-effect:none;fill:#211e1e;fill-opacity:1;fill-rule:nonzero;stroke:none;stroke-linecap:butt;stroke-linejoin:miter;stroke-miterlimit:22.9256;stroke-dasharray:none;stroke-dashoffset:0;stroke-opacity:1;color-rendering:auto;image-rendering:auto;shape-rendering:auto;text-rendering:auto;enable-background:accumulate;stop-color:#000000;stop-opacity:1;opacity:1"
         d="m -65.59375,57.6875 c -4.525375,0 -8.195312,3.669938 -8.195312,8.195312 V 232.31836 c 0,4.52533 3.669937,8.19531 8.195312,8.19531 H 40.166016 c 4.512032,0 8.18164,-3.66998 8.18164,-8.19531 V 65.882812 c 0,-4.525376 -3.669608,-8.195312 -8.18164,-8.195312 z"
         id="path13583" />
      <path
         style="color:#000000;font-style:normal;font-variant:normal;font-weight:normal;font-stretch:normal;font-size:medium;line-height:normal;font-family:sans-serif;font-variant-ligatures:normal;font-variant-position:normal;font-variant-caps:normal;font-variant-numeric:normal;font-variant-alternates:normal;font-variant-east-asian:normal;font-feature-settings:normal;font-variation-settings:normal;text-indent:0;text-align:start;text-decoration:none;text-decoration-line:none;text-decoration-style:solid;text-decoration-color:#000000;letter-spacing:normal;word-spacing:normal;text-transform:none;writing-mode:lr-tb;direction:ltr;text-orientation:mixed;dominant-baseline:auto;baseline-shift:baseline;text-anchor:start;white-space:normal;shape-padding:0;shape-margin:0;inline-size:0;clip-rule:nonzero;display:inline;overflow:visible;visibility:visible;isolation:auto;mix-blend-mode:normal;color-interpolation:sRGB;color-interpolation-filters:linearRGB;solid-color:#000000;solid-opacity:1;vector-effect:none;fill:#ffffff;fill-opacity:1;fill-rule:nonzero;stroke:none;stroke-linecap:butt;stroke-linejoin:miter;stroke-miterlimit:22.9256;stroke-dasharray:none;stroke-dashoffset:0;stroke-opacity:1;color-rendering:auto;image-rendering:auto;shape-rendering:auto;text-rendering:auto;enable-background:accumulate;stop-color:#000000;stop-opacity:1;opacity:1"
         d="M -65.59375,58.460938 H 40.166016 c 4.093993,0 7.410156,3.313183 7.410156,7.421874 V 232.31836 c 0,4.10864 -3.316163,7.42383 -7.410156,7.42383 H -65.59375 c -4.108693,0 -7.423828,-3.31518 -7.423828,-7.42383 V 65.882812 c 0,-4.108693 3.315135,-7.421874 7.423828,-7.421874 z"
         id="path25567" />
      <path
         style="fill:#2e3394;fill-opacity:1;fill-rule:evenodd;stroke:none;stroke-width:3.57655"
         d="m -71.670871,232.30465 0.01419,0.33507 0.05576,0.61478 0.05576,0.2933 0.06995,0.2933 0.08415,0.27931 0.09733,0.2933 0.223548,0.53094 0.139806,0.26541 0.139806,0.25143 0.153797,0.25143 0.167687,0.23754 0.195668,0.22355 0.181677,0.22355 0.195668,0.20955 0.223548,0.20956 0.209558,0.18168 0.237539,0.18168 0.237437,0.16768 0.251429,0.16769 0.502958,0.27931 0.279308,0.11162 0.265419,0.11162 0.279309,0.0973 0.293299,0.0841 0.293299,0.07 0.2933,0.0558 0.614681,0.0558 0.33517,0.0142 H 40.137868 l 0.33517,-0.0142 0.614681,-0.0558 0.2933,-0.0558 0.293299,-0.07 0.293299,-0.0841 0.279309,-0.0973 0.279308,-0.11162 0.265419,-0.11162 0.265419,-0.13981 0.251429,-0.13981 0.251428,-0.16768 0.223548,-0.16779 0.237438,-0.18168 0.223548,-0.18167 0.209557,-0.20956 0.195668,-0.20956 0.195668,-0.22355 0.181678,-0.22355 0.167787,-0.23743 0.307189,-0.50296 0.251428,-0.53084 0.111622,-0.26542 0.09733,-0.2933 0.06995,-0.27931 0.06995,-0.2933 0.05576,-0.29329 0.04157,-0.30719 0.01419,-0.30719 0.01419,-0.33517 V 65.897345 L 46.21381,65.562276 46.19962,65.255088 46.15805,64.947899 46.10229,64.6546 45.962484,64.067799 45.865154,63.78849 45.753532,63.523071 45.502103,62.992131 45.194915,62.489173 45.027127,62.251736 44.84545,62.014298 44.454316,61.595183 44.244759,61.385626 44.021211,61.203949 43.783773,61.022272 43.560225,60.854484 43.308797,60.686696 43.057368,60.54689 42.791949,60.407083 42.52653,60.295461 l -0.279308,-0.111622 -0.279309,-0.09733 -0.293299,-0.08415 -0.293299,-0.06995 -0.2933,-0.05576 -0.614681,-0.05576 -0.335069,-0.01419 H -65.579411 l -0.335069,0.01419 -0.614682,0.05576 -0.293299,0.05576 -0.293299,0.06995 -0.293299,0.08415 -0.279309,0.09733 -0.265419,0.111622 -0.279308,0.111622 -0.502958,0.279309 -0.251429,0.167788 -0.237539,0.167787 -0.237437,0.181678 -0.209558,0.181677 -0.223548,0.209557 -0.195668,0.209558 -0.181677,0.209557 -0.195668,0.237539 -0.167687,0.237438 -0.153797,0.251428 -0.139806,0.251428 -0.139806,0.265419 -0.223549,0.53094 -0.09733,0.279308 -0.08415,0.2933 -0.06995,0.293299 -0.05576,0.293299 -0.05576,0.614682 -0.01419,0.33517 z m 0,0"
         id="path13585" />
      <path
         style="fill:#ffffff;fill-opacity:1;fill-rule:evenodd;stroke:#ffffff;stroke-width:0.772534;stroke-linecap:butt;stroke-linejoin:miter;stroke-miterlimit:22.9256;stroke-opacity:1"
         d="m -52.516787,179.64842 79.675924,0.0416 -0.02839,18.20403 -1.606647,2.40302 -9.458288,0.0284 -1.606657,-2.40302 -0.01419,-7.37662 c -17.8687374,1.39711 -35.975004,1.43902 -54.374651,-0.0416 v 7.55824 l -1.732412,2.27726 -9.081064,-0.0142 -1.858116,-2.47283 z m 0,0"
         id="path13587" />
      <path
         style="fill:#ffffff;fill-opacity:1;fill-rule:evenodd;stroke:#ffffff;stroke-width:0.772534;stroke-linecap:butt;stroke-linejoin:miter;stroke-miterlimit:22.9256;stroke-opacity:1"
         d="m -52.558709,175.76451 79.703856,0.07 -0.02839,-8.55016 C 25.691715,158.56652 19.6563,145.93685 12.517195,136.89766 l -25.231421,-1.08971 -24.728452,0.99193 c -9.835501,14.13851 -12.30836,18.02242 -15.088559,30.26093 z m 9.416366,-13.57968 c 2.724328,0 4.945687,2.20737 4.945687,4.94568 0,2.72433 -2.221359,4.9317 -4.945687,4.9317 -2.738308,0 -4.945686,-2.20737 -4.945686,-4.9317 0,-2.73831 2.207378,-4.94568 4.945686,-4.94568 z m 60.899064,0 c 2.738308,0 4.945717,2.20737 4.945717,4.94568 0,2.72433 -2.207409,4.9317 -4.945717,4.9317 -2.724327,0 -4.931705,-2.20737 -4.931705,-4.9317 0,-2.73831 2.207378,-4.94568 4.931705,-4.94568 z m -63.288089,-5.42072 c 22.311497,-1.59268 44.2597502,-1.56474 65.746957,0.37725 -2.556651,-6.51043 -6.077337,-12.42013 -10.5480164,-17.7151 l -22.4092796,-0.94995 -22.227654,1.00592 c -4.330984,5.28097 -7.85166,11.037 -10.562007,17.28197 z m 0,0"
         id="path13589" />
    </g>
  </g>
</svg>
