<?xml version="1.0" encoding="UTF-8" standalone="no"?>
<svg
   xmlns:dc="http://purl.org/dc/elements/1.1/"
   xmlns:cc="http://creativecommons.org/ns#"
   xmlns:rdf="http://www.w3.org/1999/02/22-rdf-syntax-ns#"
   xmlns:svg="http://www.w3.org/2000/svg"
   xmlns="http://www.w3.org/2000/svg"
   xmlns:sodipodi="http://sodipodi.sourceforge.net/DTD/sodipodi-0.dtd"
   xmlns:inkscape="http://www.inkscape.org/namespaces/inkscape"
   sodipodi:docname="Latvia_road_sign_506.svg"
   inkscape:version="1.0 (4035a4fb49, 2020-05-01)"
   id="svg3845"
   version="1.1"
   viewBox="0 0 195 195"
   height="195mm"
   width="195mm">
  <defs
     id="defs3839" />
  <sodipodi:namedview
     inkscape:document-rotation="0"
     inkscape:window-maximized="1"
     inkscape:window-y="-9"
     inkscape:window-x="-9"
     inkscape:window-height="1001"
     inkscape:window-width="1920"
     showgrid="false"
     inkscape:current-layer="layer1"
     inkscape:document-units="mm"
     inkscape:cy="549.74945"
     inkscape:cx="601.10089"
     inkscape:zoom="0.49497475"
     inkscape:pageshadow="2"
     inkscape:pageopacity="0.0"
     borderopacity="1.0"
     bordercolor="#666666"
     pagecolor="#ffffff"
     id="base" />
  <metadata
     id="metadata3842">
    <rdf:RDF>
      <cc:Work
         rdf:about="">
        <dc:format>image/svg+xml</dc:format>
        <dc:type
           rdf:resource="http://purl.org/dc/dcmitype/StillImage" />
        <dc:title></dc:title>
      </cc:Work>
    </rdf:RDF>
  </metadata>
  <g
     transform="translate(-43.276926,425.59708)"
     id="layer1"
     inkscape:groupmode="layer"
     inkscape:label="Layer 1">
    <path
       style="fill:#ffffff;fill-opacity:1;stroke:#000000;stroke-width:1.53223;stroke-linecap:butt;stroke-linejoin:miter;stroke-miterlimit:22.926;stroke-opacity:1"
       d="M 58.060591,-424.83096 H 223.50524 c 7.70906,0 14.00557,6.3085 14.00557,14.00556 v 165.45664 c 0,7.69707 -6.29651,14.00557 -14.00557,14.00557 H 58.060591 c -7.70905,0 -14.01755,-6.3085 -14.01755,-14.00557 V -410.8254 c 0,-7.69706 6.3085,-14.00556 14.01755,-14.00556 z m 0,0"
       id="path1972" />
    <path
       style="fill:#263894;fill-opacity:1;fill-rule:evenodd;stroke:none;stroke-width:3.06445"
       d="m 136.98225,-237.73154 0.0608,-180.75496 H 57.067961 c -3.19616,0.0695 -6.61974,2.34618 -6.61974,6.96687 v 167.12056 c 0,2.86095 2.4181,6.6915 7.08656,6.6915 l 79.448419,-0.0261"
       id="path1962" />
    <path
       style="fill:#263894;fill-opacity:1;fill-rule:evenodd;stroke:none;stroke-width:3.06445"
       d="m 144.42792,-237.8033 0.0608,-180.6832 h 79.96319 c 3.20806,0.13204 6.72737,2.29832 6.65562,6.95488 v 166.92903 c 0,3.05248 -2.54971,6.89502 -6.73945,6.89502 l -79.93921,-0.0956"
       id="path1964" />
    <path
       style="fill:#ffffff;fill-opacity:1;fill-rule:evenodd;stroke:none;stroke-width:3.06445"
       d="m 78.027371,-351.54729 v 7.73294 l -0.71838,1.01747 h -3.96224 l -0.63413,-1.05334 -0.0261,-7.74502 h -3.41159 v -44.50638 c 0.0521,-2.07089 1.67591,-3.36373 3.43557,-3.36373 H 116.3311 c 2.09487,-0.0347 3.42358,1.83149 3.42358,3.27991 v 44.5902 h -3.45946 v 7.78089 l -0.63412,1.01747 h -4.02209 l -0.64629,-1.00548 -0.0261,-7.79288 z m -4.80015,-26.62248 0.009,-17.9917 42.579249,-0.0261 -0.0261,18.01567 z m 2.78911,15.38214 c 1.8195,0 3.30388,1.48428 3.30388,3.31586 0,1.81951 -1.48438,3.30388 -3.30388,3.30388 -1.83141,0 -3.31578,-1.48437 -3.31578,-3.30388 0,-1.83158 1.48437,-3.31586 3.31578,-3.31586 z m 36.964979,0 c 1.83158,0 3.31586,1.48428 3.31586,3.31586 0,1.81951 -1.48428,3.30388 -3.31586,3.30388 -1.81951,0 -3.30379,-1.48437 -3.30379,-3.30388 0,-1.83158 1.48428,-3.31586 3.30379,-3.31586"
       id="path1966" />
    <path
       style="fill:#ffffff;fill-opacity:1;fill-rule:evenodd;stroke:none;stroke-width:3.06445"
       d="m 102.13603,-331.6044 0.0261,45.20071 13.7302,-4.74031 -21.032279,35.732 -21.61872,-35.66016 14.02946,4.53678 -0.0261,-45.06902 h 14.891339"
       id="path1968" />
    <path
       style="fill:#ffffff;fill-opacity:1;fill-rule:evenodd;stroke:none;stroke-width:3.06445"
       d="m 179.38186,-253.52066 -0.0348,-118.19702 -13.82601,4.64458 21.03219,-35.74399 21.61881,35.66025 -13.92174,-4.53687 0.0261,118.25688 -14.89143,-0.0869"
       id="path1970" />
  </g>
</svg>
