<?xml version="1.0" encoding="UTF-8" standalone="no"?>
<svg
   xmlns:dc="http://purl.org/dc/elements/1.1/"
   xmlns:cc="http://creativecommons.org/ns#"
   xmlns:rdf="http://www.w3.org/1999/02/22-rdf-syntax-ns#"
   xmlns:svg="http://www.w3.org/2000/svg"
   xmlns="http://www.w3.org/2000/svg"
   xmlns:sodipodi="http://sodipodi.sourceforge.net/DTD/sodipodi-0.dtd"
   xmlns:inkscape="http://www.inkscape.org/namespaces/inkscape"
   width="158.75mm"
   height="158.73615mm"
   viewBox="0 0 158.74999 158.73614"
   version="1.1"
   id="svg6774"
   inkscape:version="1.0 (4035a4fb49, 2020-05-01)"
   sodipodi:docname="Latvia_road_sign_542.svg">
  <defs
     id="defs6768" />
  <sodipodi:namedview
     id="base"
     pagecolor="#ffffff"
     bordercolor="#666666"
     borderopacity="1.0"
     inkscape:pageopacity="0.0"
     inkscape:pageshadow="2"
     inkscape:zoom="0.81967018"
     inkscape:cx="848.4475"
     inkscape:cy="128.66042"
     inkscape:document-units="mm"
     inkscape:current-layer="layer1"
     inkscape:document-rotation="0"
     showgrid="false"
     fit-margin-top="0"
     fit-margin-left="0"
     fit-margin-right="0"
     fit-margin-bottom="0"
     inkscape:window-width="1920"
     inkscape:window-height="1001"
     inkscape:window-x="-9"
     inkscape:window-y="-9"
     inkscape:window-maximized="1" />
  <metadata
     id="metadata6771">
    <rdf:RDF>
      <cc:Work
         rdf:about="">
        <dc:format>image/svg+xml</dc:format>
        <dc:type
           rdf:resource="http://purl.org/dc/dcmitype/StillImage" />
        <dc:title></dc:title>
      </cc:Work>
    </rdf:RDF>
  </metadata>
  <g
     inkscape:label="Layer 1"
     inkscape:groupmode="layer"
     id="layer1"
     transform="translate(462.30128,292.1424)">
    <g
       id="g3362"
       style="opacity:1;stroke-width:0.141412"
       transform="matrix(7.0715152,0,0,7.0715152,2714.867,1607.4986)">
      <path
         style="color:#000000;font-style:normal;font-variant:normal;font-weight:normal;font-stretch:normal;font-size:medium;line-height:normal;font-family:sans-serif;font-variant-ligatures:normal;font-variant-position:normal;font-variant-caps:normal;font-variant-numeric:normal;font-variant-alternates:normal;font-variant-east-asian:normal;font-feature-settings:normal;font-variation-settings:normal;text-indent:0;text-align:start;text-decoration:none;text-decoration-line:none;text-decoration-style:solid;text-decoration-color:#000000;letter-spacing:normal;word-spacing:normal;text-transform:none;writing-mode:lr-tb;direction:ltr;text-orientation:mixed;dominant-baseline:auto;baseline-shift:baseline;text-anchor:start;white-space:normal;shape-padding:0;shape-margin:0;inline-size:0;clip-rule:nonzero;display:inline;overflow:visible;visibility:visible;isolation:auto;mix-blend-mode:normal;color-interpolation:sRGB;color-interpolation-filters:linearRGB;solid-color:#000000;solid-opacity:1;vector-effect:none;fill:#ffffff;fill-opacity:1;fill-rule:nonzero;stroke:none;stroke-width:0.0249436;stroke-linecap:butt;stroke-linejoin:miter;stroke-miterlimit:22.926;stroke-dasharray:none;stroke-dashoffset:0;stroke-opacity:1;color-rendering:auto;image-rendering:auto;shape-rendering:auto;text-rendering:auto;enable-background:accumulate;stop-color:#000000;stop-opacity:1"
         d="m -447.58847,-268.54514 h 19.04586 c 0.88746,0 1.61231,0.72623 1.61231,1.61231 v 19.04724 c 0,0.88608 -0.72485,1.61231 -1.61231,1.61231 h -19.04586 c -0.88746,0 -1.61369,-0.72623 -1.61369,-1.61231 v -19.04724 c 0,-0.88608 0.72623,-1.61231 1.61369,-1.61231 z m 0,0"
         id="path3364" />
      <path
         style="color:#000000;font-style:normal;font-variant:normal;font-weight:normal;font-stretch:normal;font-size:medium;line-height:normal;font-family:sans-serif;font-variant-ligatures:normal;font-variant-position:normal;font-variant-caps:normal;font-variant-numeric:normal;font-variant-alternates:normal;font-variant-east-asian:normal;font-feature-settings:normal;font-variation-settings:normal;text-indent:0;text-align:start;text-decoration:none;text-decoration-line:none;text-decoration-style:solid;text-decoration-color:#000000;letter-spacing:normal;word-spacing:normal;text-transform:none;writing-mode:lr-tb;direction:ltr;text-orientation:mixed;dominant-baseline:auto;baseline-shift:baseline;text-anchor:start;white-space:normal;shape-padding:0;shape-margin:0;inline-size:0;clip-rule:nonzero;display:inline;overflow:visible;visibility:visible;isolation:auto;mix-blend-mode:normal;color-interpolation:sRGB;color-interpolation-filters:linearRGB;solid-color:#000000;solid-opacity:1;vector-effect:none;fill:#000000;fill-opacity:1;fill-rule:nonzero;stroke:none;stroke-width:0.0249436;stroke-linecap:butt;stroke-linejoin:miter;stroke-miterlimit:22.926;stroke-dasharray:none;stroke-dashoffset:0;stroke-opacity:1;color-rendering:auto;image-rendering:auto;shape-rendering:auto;text-rendering:auto;enable-background:accumulate;stop-color:#000000;stop-opacity:1"
         d="m -447.58789,-268.63281 c -0.93558,0 -1.70313,0.76495 -1.70313,1.69922 v 19.04882 c 0,0.93427 0.76755,1.69922 1.70313,1.69922 h 19.04492 c 0.93558,0 1.70117,-0.76504 1.70117,-1.69922 v -19.04882 c 0,-0.93418 -0.76559,-1.69922 -1.70117,-1.69922 z m 0,0.17578 h 19.04492 c 0.83935,0 1.52539,0.68545 1.52539,1.52344 v 19.04882 c 0,0.83799 -0.68604,1.52344 -1.52539,1.52344 h -19.04492 c -0.83935,0 -1.52539,-0.68555 -1.52539,-1.52344 v -19.04882 c 0,-0.83789 0.68604,-1.52344 1.52539,-1.52344 z"
         id="path3366" />
    </g>
    <path
       transform="matrix(0.26458333,0,0,0.26458333,-462.30128,-292.1424)"
       d="M 42.447266 21.865234 C 32.613351 22.079156 22.080078 29.119099 22.080078 43.298828 L 22.080078 557.49414 C 22.080078 566.29666 29.518945 578.08203 43.882812 578.08203 L 557.19531 578.08203 C 570.086 578.08203 577.96631 566.261 577.92969 556.86914 L 577.95703 43.261719 C 578.14404 28.940422 567.32077 22.275242 557.45312 21.865234 L 42.447266 21.865234 z M 92.669922 92.632812 L 507.47852 92.632812 L 507.47852 508.33203 L 92.669922 508.33203 L 92.669922 92.632812 z "
       style="fill:#263894;fill-opacity:1;fill-rule:evenodd;stroke:none;stroke-width:1.33333"
       id="path1968" />
    <path
       style="opacity:1;fill:#000000;fill-opacity:1;fill-rule:evenodd;stroke:none;stroke-width:0.352777"
       d="m -359.98345,-206.08116 c 3.99302,0 7.22084,3.17878 7.22084,7.0737 0,3.90477 -3.22782,7.08348 -7.22084,7.08348 -3.9636,0 -7.19142,-3.17871 -7.19142,-7.08348 0,-3.89492 3.22782,-7.0737 7.19142,-7.0737 z m 0.007,3.66932 c 1.91319,0 3.47313,1.53045 3.47313,3.40438 0,1.87385 -1.55994,3.41423 -3.47313,3.41423 -1.91305,0 -3.4632,-1.54038 -3.4632,-3.41423 0,-1.87393 1.55015,-3.40438 3.4632,-3.40438 z m -52.58641,0.007 c 1.94254,0 3.53189,1.55009 3.53189,3.44357 0,1.9132 -1.58935,3.47313 -3.53189,3.47313 -1.94253,0 -3.50247,-1.55993 -3.50247,-3.47313 0,-1.89348 1.55994,-3.44357 3.50247,-3.44357 z m 0,-3.68888 c 4.01272,0 7.27974,3.20805 7.27974,7.14231 0,3.94396 -3.26702,7.15215 -7.27974,7.15215 -4.00286,0 -7.2601,-3.20819 -7.2601,-7.15215 0,-3.93426 3.25724,-7.14231 7.2601,-7.14231 z m 3.74778,-11.84176 -17.80678,-0.0213 7.67211,-13.09756 h 10.13467 z m 17.14947,-0.0425 -14.47109,0.0425 -0.0213,-13.12704 14.49079,0.0425 z m 17.00225,0.007 -14.49064,0.0283 v -13.11719 l 14.51035,0.007 z m 16.36465,0.0283 -13.90209,-0.007 v -13.11719 l 13.90209,0.007 z m 16.95321,-0.0283 -14.70654,0.0283 -0.0284,-13.10734 14.72624,0.0213 z m 5.10167,15.68763 -8.70224,3.19834 -6.08276,0.0213 c 0.32391,-4.08133 -3.25724,-8.9377 -8.91813,-8.97697 -5.27823,0.0985 -8.69246,3.97339 -8.9966,8.94756 l -34.55402,0.007 c -0.0213,-4.63077 -3.68888,-8.79056 -8.91814,-8.85924 -5.18992,0.15664 -8.96711,4.16964 -8.96711,8.87887 l -4.41487,0.0213 c -1.86415,0 -3.82631,-1.6384 -3.82631,-3.81646 l -0.0354,-15.08914 7.62306,-13.11727 c 0.55922,-0.97123 1.44221,-2.56065 3.6202,-2.6097 h 78.79145 c 1.31456,-0.0709 3.43379,1.34419 3.38474,3.50254 v 27.89242"
       id="path7045" />
  </g>
</svg>
