<?xml version="1.0" encoding="UTF-8" standalone="no"?>
<svg
   xmlns:dc="http://purl.org/dc/elements/1.1/"
   xmlns:cc="http://creativecommons.org/ns#"
   xmlns:rdf="http://www.w3.org/1999/02/22-rdf-syntax-ns#"
   xmlns:svg="http://www.w3.org/2000/svg"
   xmlns="http://www.w3.org/2000/svg"
   xmlns:sodipodi="http://sodipodi.sourceforge.net/DTD/sodipodi-0.dtd"
   xmlns:inkscape="http://www.inkscape.org/namespaces/inkscape"
   width="158.75mm"
   height="158.74997mm"
   viewBox="0 0 158.74999 158.74996"
   version="1.1"
   id="svg6774"
   inkscape:version="1.0 (4035a4fb49, 2020-05-01)"
   sodipodi:docname="Latvia_road_sign_537.svg">
  <defs
     id="defs6768" />
  <sodipodi:namedview
     id="base"
     pagecolor="#ffffff"
     bordercolor="#666666"
     borderopacity="1.0"
     inkscape:pageopacity="0.0"
     inkscape:pageshadow="2"
     inkscape:zoom="0.57959434"
     inkscape:cx="325.99123"
     inkscape:cy="233.33685"
     inkscape:document-units="mm"
     inkscape:current-layer="layer1"
     inkscape:document-rotation="0"
     showgrid="false"
     fit-margin-top="0"
     fit-margin-left="0"
     fit-margin-right="0"
     fit-margin-bottom="0"
     inkscape:window-width="1920"
     inkscape:window-height="1001"
     inkscape:window-x="-9"
     inkscape:window-y="-9"
     inkscape:window-maximized="1" />
  <metadata
     id="metadata6771">
    <rdf:RDF>
      <cc:Work
         rdf:about="">
        <dc:format>image/svg+xml</dc:format>
        <dc:type
           rdf:resource="http://purl.org/dc/dcmitype/StillImage" />
        <dc:title></dc:title>
      </cc:Work>
    </rdf:RDF>
  </metadata>
  <g
     inkscape:label="Layer 1"
     inkscape:groupmode="layer"
     id="layer1"
     transform="translate(464.57578,232.81762)">
    <g
       id="g7997"
       transform="matrix(2.4947818,0,0,-2.4947818,-933.97481,1525.3701)"
       style="opacity:1;stroke-width:0.141406">
      <path
         style="color:#000000;font-style:normal;font-variant:normal;font-weight:normal;font-stretch:normal;font-size:medium;line-height:normal;font-family:sans-serif;font-variant-ligatures:normal;font-variant-position:normal;font-variant-caps:normal;font-variant-numeric:normal;font-variant-alternates:normal;font-variant-east-asian:normal;font-feature-settings:normal;font-variation-settings:normal;text-indent:0;text-align:start;text-decoration:none;text-decoration-line:none;text-decoration-style:solid;text-decoration-color:#000000;letter-spacing:normal;word-spacing:normal;text-transform:none;writing-mode:lr-tb;direction:ltr;text-orientation:mixed;dominant-baseline:auto;baseline-shift:baseline;text-anchor:start;white-space:normal;shape-padding:0;shape-margin:0;inline-size:0;clip-rule:nonzero;display:inline;overflow:visible;visibility:visible;isolation:auto;mix-blend-mode:normal;color-interpolation:sRGB;color-interpolation-filters:linearRGB;solid-color:#000000;solid-opacity:1;vector-effect:none;fill:#ffffff;fill-opacity:1;fill-rule:nonzero;stroke:none;stroke-width:0.0707031;stroke-linecap:butt;stroke-linejoin:miter;stroke-miterlimit:22.926;stroke-dasharray:none;stroke-dashoffset:0;stroke-opacity:1;color-rendering:auto;image-rendering:auto;shape-rendering:auto;text-rendering:auto;enable-background:accumulate;stop-color:#000000;stop-opacity:1"
         d="m 192.97656,704.49609 h 53.98828 c 2.51563,0 4.57032,-2.05859 4.57032,-4.57422 v -53.98828 c 0,-2.51562 -2.05469,-4.57031 -4.57032,-4.57031 h -53.98828 c -2.51562,0 -4.57422,2.05469 -4.57422,4.57031 v 53.98828 c 0,2.51563 2.0586,4.57422 4.57422,4.57422 z m 0,0"
         id="path7999" />
      <path
         style="color:#000000;font-style:normal;font-variant:normal;font-weight:normal;font-stretch:normal;font-size:medium;line-height:normal;font-family:sans-serif;font-variant-ligatures:normal;font-variant-position:normal;font-variant-caps:normal;font-variant-numeric:normal;font-variant-alternates:normal;font-variant-east-asian:normal;font-feature-settings:normal;font-variation-settings:normal;text-indent:0;text-align:start;text-decoration:none;text-decoration-line:none;text-decoration-style:solid;text-decoration-color:#000000;letter-spacing:normal;word-spacing:normal;text-transform:none;writing-mode:lr-tb;direction:ltr;text-orientation:mixed;dominant-baseline:auto;baseline-shift:baseline;text-anchor:start;white-space:normal;shape-padding:0;shape-margin:0;inline-size:0;clip-rule:nonzero;display:inline;overflow:visible;visibility:visible;isolation:auto;mix-blend-mode:normal;color-interpolation:sRGB;color-interpolation-filters:linearRGB;solid-color:#000000;solid-opacity:1;vector-effect:none;fill:#000000;fill-opacity:1;fill-rule:nonzero;stroke:none;stroke-width:0.0707031;stroke-linecap:butt;stroke-linejoin:miter;stroke-miterlimit:22.926;stroke-dasharray:none;stroke-dashoffset:0;stroke-opacity:1;color-rendering:auto;image-rendering:auto;shape-rendering:auto;text-rendering:auto;enable-background:accumulate;stop-color:#000000;stop-opacity:1"
         d="m 192.97656,641.11328 c -2.65175,0 -4.82422,2.1683 -4.82422,4.82031 v 53.98829 c 0,2.65201 2.17221,4.82421 4.82422,4.82421 h 53.98828 c 2.65202,0 4.82032,-2.17246 4.82032,-4.82421 v -53.98829 c 0,-2.65175 -2.16856,-4.82031 -4.82032,-4.82031 z m 0,0.5 h 53.98828 c 2.3795,0 4.32032,1.94082 4.32032,4.32031 v 53.98829 c 0,2.37949 -1.94108,4.32421 -4.32032,4.32421 h -53.98828 c -2.37924,0 -4.32422,-1.94498 -4.32422,-4.32421 v -53.98829 c 0,-2.37923 1.94473,-4.32031 4.32422,-4.32031 z"
         id="path8001" />
    </g>
    <path
       style="fill:#263894;fill-opacity:1;fill-rule:evenodd;stroke:none;stroke-width:0.352777"
       d="m -317.08152,-227.0289 -136.26772,0.007 c -2.60201,0.0495 -5.38909,1.9101 -5.38909,5.66205 v 136.063137 c 0,2.329105 1.96852,5.447567 5.7692,5.447567 l 135.81937,-0.0071 c 3.42057,0 5.49636,-3.118533 5.4866,-5.613259 l 0.007,-135.887685 c 0.0495,-3.80061 -2.81635,-5.56454 -5.42811,-5.67174"
       id="path7209" />
    <path
       style="fill:#ffffff;fill-opacity:1;fill-rule:evenodd;stroke:none;stroke-width:0.352777"
       d="M -418.2566,-97.680323 V -208.63962 h 43.59043 c 18.59395,0 33.68932,15.07592 33.68932,33.67955 0,18.61339 -15.09537,33.68932 -33.68932,33.68932 h -26.75065 v 43.590427 z m 16.83978,-59.445947 h 25.7664 c 9.8427,0 17.81427,-7.97158 17.81427,-17.8338 0,-9.8427 -7.97157,-17.82403 -17.81427,-17.82403 h -25.7664 v 35.65783"
       id="path7211" />
  </g>
</svg>
