<?xml version="1.0" encoding="UTF-8" standalone="no"?>
<svg
   xmlns:dc="http://purl.org/dc/elements/1.1/"
   xmlns:cc="http://creativecommons.org/ns#"
   xmlns:rdf="http://www.w3.org/1999/02/22-rdf-syntax-ns#"
   xmlns:svg="http://www.w3.org/2000/svg"
   xmlns="http://www.w3.org/2000/svg"
   xmlns:sodipodi="http://sodipodi.sourceforge.net/DTD/sodipodi-0.dtd"
   xmlns:inkscape="http://www.inkscape.org/namespaces/inkscape"
   sodipodi:docname="Latvia_road_sign_533.svg"
   inkscape:version="1.0 (4035a4fb49, 2020-05-01)"
   id="svg6774"
   version="1.1"
   viewBox="0 0 234.20738 158.74999"
   height="158.75mm"
   width="234.2074mm">
  <defs
     id="defs6768" />
  <sodipodi:namedview
     inkscape:window-maximized="1"
     inkscape:window-y="-9"
     inkscape:window-x="-9"
     inkscape:window-height="1001"
     inkscape:window-width="1920"
     fit-margin-bottom="0"
     fit-margin-right="0"
     fit-margin-left="0"
     fit-margin-top="0"
     showgrid="false"
     inkscape:document-rotation="0"
     inkscape:current-layer="layer1"
     inkscape:document-units="mm"
     inkscape:cy="565.17927"
     inkscape:cx="-730.7515"
     inkscape:zoom="0.40983509"
     inkscape:pageshadow="2"
     inkscape:pageopacity="0.0"
     borderopacity="1.0"
     bordercolor="#666666"
     pagecolor="#ffffff"
     id="base" />
  <metadata
     id="metadata6771">
    <rdf:RDF>
      <cc:Work
         rdf:about="">
        <dc:format>image/svg+xml</dc:format>
        <dc:type
           rdf:resource="http://purl.org/dc/dcmitype/StillImage" />
        <dc:title></dc:title>
      </cc:Work>
    </rdf:RDF>
  </metadata>
  <g
     transform="translate(14.795982,241.70858)"
     id="layer1"
     inkscape:groupmode="layer"
     inkscape:label="Layer 1">
    <g
       id="g2960"
       transform="matrix(2.4947818,0,0,-2.4947818,-415.35463,966.24334)"
       style="opacity:1;stroke-width:0.141406">
      <path
         style="color:#000000;font-style:normal;font-variant:normal;font-weight:normal;font-stretch:normal;font-size:medium;line-height:normal;font-family:sans-serif;font-variant-ligatures:normal;font-variant-position:normal;font-variant-caps:normal;font-variant-numeric:normal;font-variant-alternates:normal;font-variant-east-asian:normal;font-feature-settings:normal;font-variation-settings:normal;text-indent:0;text-align:start;text-decoration:none;text-decoration-line:none;text-decoration-style:solid;text-decoration-color:#000000;letter-spacing:normal;word-spacing:normal;text-transform:none;writing-mode:lr-tb;direction:ltr;text-orientation:mixed;dominant-baseline:auto;baseline-shift:baseline;text-anchor:start;white-space:normal;shape-padding:0;shape-margin:0;inline-size:0;clip-rule:nonzero;display:inline;overflow:visible;visibility:visible;isolation:auto;mix-blend-mode:normal;color-interpolation:sRGB;color-interpolation-filters:linearRGB;solid-color:#000000;solid-opacity:1;vector-effect:none;fill:#ffffff;fill-opacity:1;fill-rule:nonzero;stroke:none;stroke-width:0.0707031;stroke-linecap:butt;stroke-linejoin:miter;stroke-miterlimit:22.926;stroke-dasharray:none;stroke-dashoffset:0;stroke-opacity:1;color-rendering:auto;image-rendering:auto;shape-rendering:auto;text-rendering:auto;enable-background:accumulate;stop-color:#000000;stop-opacity:1"
         d="m 165.23047,483.94141 h 84.53515 c 2.42969,0 4.42188,-1.98829 4.42188,-4.41797 v -54.29688 c 0,-2.42969 -1.99219,-4.41797 -4.42188,-4.41797 h -84.53515 c -2.4336,0 -4.42188,1.98828 -4.42188,4.41797 v 54.29688 c 0,2.42968 1.98828,4.41797 4.42188,4.41797 z m 0,0"
         id="path2962" />
      <path
         style="color:#000000;font-style:normal;font-variant:normal;font-weight:normal;font-stretch:normal;font-size:medium;line-height:normal;font-family:sans-serif;font-variant-ligatures:normal;font-variant-position:normal;font-variant-caps:normal;font-variant-numeric:normal;font-variant-alternates:normal;font-variant-east-asian:normal;font-feature-settings:normal;font-variation-settings:normal;text-indent:0;text-align:start;text-decoration:none;text-decoration-line:none;text-decoration-style:solid;text-decoration-color:#000000;letter-spacing:normal;word-spacing:normal;text-transform:none;writing-mode:lr-tb;direction:ltr;text-orientation:mixed;dominant-baseline:auto;baseline-shift:baseline;text-anchor:start;white-space:normal;shape-padding:0;shape-margin:0;inline-size:0;clip-rule:nonzero;display:inline;overflow:visible;visibility:visible;isolation:auto;mix-blend-mode:normal;color-interpolation:sRGB;color-interpolation-filters:linearRGB;solid-color:#000000;solid-opacity:1;vector-effect:none;fill:#000000;fill-opacity:1;fill-rule:nonzero;stroke:none;stroke-width:0.0707031;stroke-linecap:butt;stroke-linejoin:miter;stroke-miterlimit:22.926;stroke-dasharray:none;stroke-dashoffset:0;stroke-opacity:1;color-rendering:auto;image-rendering:auto;shape-rendering:auto;text-rendering:auto;enable-background:accumulate;stop-color:#000000;stop-opacity:1"
         d="m 165.23047,420.55859 c -2.56976,0 -4.67188,2.1019 -4.67188,4.66797 v 54.29688 c 0,2.56607 2.10212,4.66797 4.67188,4.66797 h 84.53515 c 2.56608,0 4.67188,-2.10163 4.67188,-4.66797 v -54.29688 c 0,-2.56634 -2.1058,-4.66797 -4.67188,-4.66797 z m 0,0.5 h 84.53515 c 2.29331,0 4.17188,1.87494 4.17188,4.16797 v 54.29688 c 0,2.29303 -1.87857,4.16797 -4.17188,4.16797 h -84.53515 c -2.29743,0 -4.17188,-1.87467 -4.17188,-4.16797 v -54.29688 c 0,-2.2933 1.87445,-4.16797 4.17188,-4.16797 z"
         id="path2964" />
    </g>
    <path
       style="fill:#263894;fill-opacity:1;fill-rule:evenodd;stroke:none;stroke-width:0.352777"
       d="M -3.1406151,-235.46183 H 207.74636 c 2.97229,0 5.4086,2.40711 5.4086,5.35019 v 135.556297 c 0,2.94308 -2.43631,5.34036 -5.4086,5.34036 H -3.1406151 c -2.97236,0 -5.39892,-2.39728 -5.39892,-5.34036 V -230.11164 c 0,-2.94308 2.42656,-5.35019 5.39892,-5.35019"
       id="path2196" />
    <path
       style="fill:#ffffff;fill-opacity:1;fill-rule:evenodd;stroke:none;stroke-width:0.352777"
       d="m 96.114603,-191.7057 c 0.301967,2.06603 0.603933,4.1223 0.906325,6.18827 0.272972,1.40333 0.545944,2.79683 0.818634,4.20992 0.340862,1.37406 0.67253,2.75794 1.013463,4.14176 12.269255,44.37978 54.154315,71.03306 98.504895,74.75574 v 3.449767 C 145.35733,-103.29682 98.70685,-137.61956 92.586824,-191.7057 h 3.527779"
       id="path2200" />
    <path
       style="fill:#ffffff;fill-opacity:1;fill-rule:evenodd;stroke:none;stroke-width:0.352777"
       d="m 36.902515,-211.32287 c 1.47158,-3.29384 3.53754,-6.49031 5.75943,-9.31642 8.20551,-0.40946 15.855526,-0.35076 24.070791,0 2.46552,2.60194 4.307376,6.24668 5.70095,9.52108 -5.973852,-0.71135 -12.610333,-0.88681 -17.833793,-0.83808 -4.687488,-0.0495 -11.587108,0.17538 -17.697378,0.63363 z m -3.74212,10.28123 v -4.65821 c 1.04274,-4.42434 2.09516,-7.61098 4.50227,-11.09011 l 3.60571,-5.3598 c 9.07287,-0.37056 17.87283,-0.32177 27.004109,0.10749 l 3.50826,5.24298 c 2.270621,3.92734 3.108774,6.11027 4.385379,11.1778 v 4.5802 z m 37.295019,13.36072 -1.130431,-1.54943 -0.0071,-3.79092 c -4.853109,0.28287 -9.296972,0.49714 -14.666607,0.52614 -5.710711,-0.0283 -9.121521,-0.16548 -14.725021,-0.54595 l -0.007,3.81037 -1.15971,1.54944 h -4.46331 l -1.13043,-1.54944 v -9.69653 h 43.005734 v 9.70629 l -1.120743,1.53968 z m 0.652729,-20.64038 c 1.481264,0 2.699386,1.17915 2.699386,2.61169 0,1.44237 -1.218122,2.61177 -2.699386,2.61177 -1.491023,0 -2.699456,-1.1694 -2.699456,-2.61177 0,-1.43254 1.208433,-2.61169 2.699456,-2.61169 z m -32.919478,0 c 1.48127,0 2.69946,1.17915 2.69946,2.61169 0,1.44237 -1.21819,2.61177 -2.69946,2.61177 -1.49095,0 -2.69938,-1.1694 -2.69938,-2.61177 0,-1.43254 1.20843,-2.61169 2.69938,-2.61169"
       id="path2202" />
    <path
       id="path2204"
       style="fill:#ffffff;fill-opacity:1;fill-rule:evenodd;stroke:none;stroke-width:0.352777"
       d="m 159.3722,-227.81054 -44.15689,12.7541 v 4.34882 l 44.30306,-12.80531 44.41642,12.70659 -0.0495,-4.35611 z m 0.0212,8.66107 -38.60946,11.31421 v 49.79942 h 47.81867 l -0.0764,-42.08851 h 15.20258 l 0.0354,42.147 14.7275,-0.0566 -0.0806,-49.81766 z m -0.0495,19.00326 v 20.36996 l -15.11489,0.0566 v -20.359 z" />
    <path
       id="path2210"
       style="fill:#ffffff;fill-opacity:1;fill-rule:evenodd;stroke:none;stroke-width:0.352777"
       d="m 97.721392,-142.61035 c -2.241415,0 -4.082068,1.85402 -4.082068,4.11495 0,2.25117 1.840653,4.09296 4.082068,4.09296 2.27062,0 4.114948,-1.84179 4.114948,-4.09296 0,-2.26093 -1.844328,-4.11495 -4.114948,-4.11495 z m 4.962718,7.71825 -5.342758,2.56545 -9.841502,11.19724 c -0.458254,2.27069 0.983054,2.7945 2.474077,1.96611 l 6.716888,-7.64874 3.117259,6.46103 6.450136,-4.06376 -1.99531,-6.29661 4.1588,2.11589 1.90026,6.12123 c 1.12075,1.36437 2.62273,0.80767 2.72994,-0.91721 l -2.25117,-7.35647 z m 4.21,12.04516 -8.577059,5.48893 0.281459,0.73823 -6.24548,4.49499 -4.484031,10.95242 c -0.642828,2.212197 2.972358,3.060047 3.71299,1.227947 l 4.005268,-9.870707 4.268411,-3.09173 0.332372,0.81863 3.18671,-1.99531 0.87704,2.51424 1.15116,-0.80031 1.54943,4.23913 c 0.51625,0.99401 1.36317,1.1305 2.38639,0.9356 l 9.23849,-6.01161 c 1.36436,-1.67617 -0.87585,-3.7154 -2.26942,-2.79931 l -6.69497,4.32689 -1.00497,-2.74818 1.02322,-0.60323 z m -42.618408,6.75338 c -2.455761,0 -4.451146,1.99899 -4.451146,4.45482 0,2.45583 1.995385,4.45482 4.451146,4.45482 2.455832,0 4.454824,-1.99899 4.454824,-4.45482 0,-2.45583 -1.998992,-4.45482 -4.454824,-4.45482 z" />
    <path
       id="path2218"
       style="fill:#ffffff;fill-opacity:1;fill-rule:evenodd;stroke:none;stroke-width:0.352777"
       d="m 29.817755,-176.64074 c -2.2999,0 -4.19168,1.88082 -4.19168,4.18072 0,2.2999 1.89178,4.19168 4.19168,4.19168 2.2999,0 4.18072,-1.89178 4.18072,-4.19168 0,-2.2999 -1.88082,-4.18072 -4.18072,-4.18072 z m -8.26272,0.94656 c -1.49102,0 -3.13798,0.1082 -4.44386,1.82354 -1.14995,1.6372 -1.10243,1.91859 -3.22688,2.00628 1.18892,1.0525 2.51305,1.0537 4.16976,0.80032 3.83958,-1.22788 4.01623,-3.55939 6.79362,-2.85773 l 0.46745,-1.1585 c -1.15971,0.19518 -2.60081,-0.39956 -3.76044,-0.61384 z m 2.39728,6.40262 -10.8172,1.84178 -4.9225601,6.1213 c -0.70152,1.50071 0.8576,3.03077 2.4558301,1.95876 l 4.30858,-5.33188 5.56213,-0.93553 -3.06974,6.8229 6.08099,2.9126 5.25515,-6.40262 5.29898,11.22652 c 1.02323,1.19867 3.11967,0.38117 2.84684,-1.30461 l -6.26741,-12.71761 z m -7.12614,11.81121 -4.67773,10.46637 1.89299,0.36915 -0.82952,1.85275 -9.2384901,6.23819 c -0.9356,1.6372 0.42996,3.58627 2.32055,2.86508 l 10.0753601,-6.77537 1.40334,-3.22319 8.7122,2.15245 -2.38639,11.68335 c -0.12658,2.04652 2.45343,2.81756 3.66179,1.06347 l 2.68241,-13.4777 -7.4259,-10.24346 z" />
  </g>
</svg>
