<?xml version="1.0" encoding="UTF-8" standalone="no"?>
<svg
   xmlns:dc="http://purl.org/dc/elements/1.1/"
   xmlns:cc="http://creativecommons.org/ns#"
   xmlns:rdf="http://www.w3.org/1999/02/22-rdf-syntax-ns#"
   xmlns:svg="http://www.w3.org/2000/svg"
   xmlns="http://www.w3.org/2000/svg"
   xmlns:sodipodi="http://sodipodi.sourceforge.net/DTD/sodipodi-0.dtd"
   xmlns:inkscape="http://www.inkscape.org/namespaces/inkscape"
   sodipodi:docname="Latvia_road_sign_505.svg"
   inkscape:version="1.0 (4035a4fb49, 2020-05-01)"
   id="svg3845"
   version="1.1"
   viewBox="0 0 195.00002 194.98812"
   height="194.98811mm"
   width="195.00002mm">
  <defs
     id="defs3839" />
  <sodipodi:namedview
     inkscape:document-rotation="0"
     inkscape:window-maximized="1"
     inkscape:window-y="-9"
     inkscape:window-x="-9"
     inkscape:window-height="1001"
     inkscape:window-width="1920"
     showgrid="false"
     inkscape:current-layer="layer1"
     inkscape:document-units="mm"
     inkscape:cy="208.63052"
     inkscape:cx="-187.85616"
     inkscape:zoom="0.49497475"
     inkscape:pageshadow="2"
     inkscape:pageopacity="0.0"
     borderopacity="1.0"
     bordercolor="#666666"
     pagecolor="#ffffff"
     id="base" />
  <metadata
     id="metadata3842">
    <rdf:RDF>
      <cc:Work
         rdf:about="">
        <dc:format>image/svg+xml</dc:format>
        <dc:type
           rdf:resource="http://purl.org/dc/dcmitype/StillImage" />
        <dc:title></dc:title>
      </cc:Work>
    </rdf:RDF>
  </metadata>
  <g
     transform="translate(-204.13307,123.67143)"
     id="layer1"
     inkscape:groupmode="layer"
     inkscape:label="Layer 1">
    <path
       style="fill:#ffffff;fill-opacity:1;stroke:#000000;stroke-width:1.53214;stroke-linecap:butt;stroke-linejoin:miter;stroke-miterlimit:22.926;stroke-opacity:1"
       d="M 218.91584,-122.90536 H 384.3504 c 7.70858,0 14.01661,6.29613 14.01661,14.00472 V 56.533996 c 0,7.708494 -6.30803,14.016612 -14.01661,14.016612 H 218.91584 c -7.70858,0 -14.0167,-6.308118 -14.0167,-14.016612 V -108.90064 c 0,-7.70859 6.30812,-14.00472 14.0167,-14.00472 z m 0,0"
       id="path1573" />
    <path
       style="fill:#263894;fill-opacity:1;fill-rule:evenodd;stroke:none;stroke-width:3.06426"
       d="M 385.29605,-116.56128 H 217.92232 c -3.19597,0.0695 -6.61925,2.35811 -6.61925,6.96644 V 57.515527 c 0,2.860772 2.42985,6.691176 7.08605,6.691176 l 166.8351,-0.0087 c 4.1894,0 6.73904,-3.830317 6.72705,-6.882618 l 0.009,-166.918835 c 0.0695,-4.65628 -3.45933,-6.82277 -6.6672,-6.95445"
       id="path1567" />
    <path
       style="fill:#ffffff;fill-opacity:1;fill-rule:evenodd;stroke:none;stroke-width:3.06426"
       d="m 294.24176,-26.177288 -0.0347,-40.421971 -13.72927,4.740014 21.04281,-35.741805 21.60549,35.657984 -14.02859,-4.536498 0.0347,40.302276 h -14.89043"
       id="path1569" />
    <path
       style="fill:#ffffff;fill-opacity:1;fill-rule:evenodd;stroke:none;stroke-width:3.06426"
       d="m 312.45984,46.383661 -0.75395,-1.041378 v -7.756442 l -20.19305,0.03475 v 7.67262 l -0.7305,1.089239 h -3.83032 l -0.7418,-1.029392 v -7.792315 h -1.08923 v 7.804302 l -0.67057,1.017405 h -4.03383 l -0.63409,-1.01741 v -7.780415 h -3.3994 V -6.9190387 c 0.0347,-2.0707701 1.66383,-3.3635253 3.43527,-3.3635253 h 43.61803 c 2.09466,-0.03474 3.42329,1.8313812 3.42329,3.2797042 V 37.584625 h -3.47124 v 7.852249 l -0.62279,0.945571 h -3.9501 l -0.71834,-1.005418 -0.0261,-7.792402 h -1.04138 v 7.792402 l -0.69402,1.005418 z m -32.13898,-35.370734 0.0261,-17.9906839 42.57665,-0.026058 -0.0261,18.0145709 h -42.57656"
       id="path1571" />
  </g>
</svg>
