<?xml version="1.0" encoding="UTF-8" standalone="no"?>
<svg
   xmlns:dc="http://purl.org/dc/elements/1.1/"
   xmlns:cc="http://creativecommons.org/ns#"
   xmlns:rdf="http://www.w3.org/1999/02/22-rdf-syntax-ns#"
   xmlns:svg="http://www.w3.org/2000/svg"
   xmlns="http://www.w3.org/2000/svg"
   xmlns:sodipodi="http://sodipodi.sourceforge.net/DTD/sodipodi-0.dtd"
   xmlns:inkscape="http://www.inkscape.org/namespaces/inkscape"
   width="158.75mm"
   height="158.75974mm"
   viewBox="0 0 158.74999 158.75973"
   version="1.1"
   id="svg6774"
   inkscape:version="1.0 (4035a4fb49, 2020-05-01)"
   sodipodi:docname="Latvia_road_sign_538.svg">
  <defs
     id="defs6768" />
  <sodipodi:namedview
     id="base"
     pagecolor="#ffffff"
     bordercolor="#666666"
     borderopacity="1.0"
     inkscape:pageopacity="0.0"
     inkscape:pageshadow="2"
     inkscape:zoom="0.57959434"
     inkscape:cx="-328.92801"
     inkscape:cy="442.81539"
     inkscape:document-units="mm"
     inkscape:current-layer="layer1"
     inkscape:document-rotation="0"
     showgrid="false"
     fit-margin-top="0"
     fit-margin-left="0"
     fit-margin-right="0"
     fit-margin-bottom="0"
     inkscape:window-width="1920"
     inkscape:window-height="1001"
     inkscape:window-x="-9"
     inkscape:window-y="-9"
     inkscape:window-maximized="1" />
  <metadata
     id="metadata6771">
    <rdf:RDF>
      <cc:Work
         rdf:about="">
        <dc:format>image/svg+xml</dc:format>
        <dc:type
           rdf:resource="http://purl.org/dc/dcmitype/StillImage" />
        <dc:title></dc:title>
      </cc:Work>
    </rdf:RDF>
  </metadata>
  <g
     inkscape:label="Layer 1"
     inkscape:groupmode="layer"
     id="layer1"
     transform="translate(291.29506,288.24215)">
    <g
       id="g7944"
       transform="matrix(2.4947818,0,0,-2.4947818,-760.69409,1194.1455)"
       style="opacity:1;stroke-width:0.141406">
      <path
         style="color:#000000;font-style:normal;font-variant:normal;font-weight:normal;font-stretch:normal;font-size:medium;line-height:normal;font-family:sans-serif;font-variant-ligatures:normal;font-variant-position:normal;font-variant-caps:normal;font-variant-numeric:normal;font-variant-alternates:normal;font-variant-east-asian:normal;font-feature-settings:normal;font-variation-settings:normal;text-indent:0;text-align:start;text-decoration:none;text-decoration-line:none;text-decoration-style:solid;text-decoration-color:#000000;letter-spacing:normal;word-spacing:normal;text-transform:none;writing-mode:lr-tb;direction:ltr;text-orientation:mixed;dominant-baseline:auto;baseline-shift:baseline;text-anchor:start;white-space:normal;shape-padding:0;shape-margin:0;inline-size:0;clip-rule:nonzero;display:inline;overflow:visible;visibility:visible;isolation:auto;mix-blend-mode:normal;color-interpolation:sRGB;color-interpolation-filters:linearRGB;solid-color:#000000;solid-opacity:1;vector-effect:none;fill:#ffffff;fill-opacity:1;fill-rule:nonzero;stroke:none;stroke-width:0.0707031;stroke-linecap:butt;stroke-linejoin:miter;stroke-miterlimit:22.926;stroke-dasharray:none;stroke-dashoffset:0;stroke-opacity:1;color-rendering:auto;image-rendering:auto;shape-rendering:auto;text-rendering:auto;enable-background:accumulate;stop-color:#000000;stop-opacity:1"
         d="m 192.97656,593.94531 h 53.98828 c 2.51563,0 4.57032,-2.05859 4.57032,-4.57422 v -53.98828 c 0,-2.51562 -2.05469,-4.57422 -4.57032,-4.57422 h -53.98828 c -2.51562,0 -4.57422,2.0586 -4.57422,4.57422 v 53.98828 c 0,2.51563 2.0586,4.57422 4.57422,4.57422 z m 0,0"
         id="path7946" />
      <path
         style="color:#000000;font-style:normal;font-variant:normal;font-weight:normal;font-stretch:normal;font-size:medium;line-height:normal;font-family:sans-serif;font-variant-ligatures:normal;font-variant-position:normal;font-variant-caps:normal;font-variant-numeric:normal;font-variant-alternates:normal;font-variant-east-asian:normal;font-feature-settings:normal;font-variation-settings:normal;text-indent:0;text-align:start;text-decoration:none;text-decoration-line:none;text-decoration-style:solid;text-decoration-color:#000000;letter-spacing:normal;word-spacing:normal;text-transform:none;writing-mode:lr-tb;direction:ltr;text-orientation:mixed;dominant-baseline:auto;baseline-shift:baseline;text-anchor:start;white-space:normal;shape-padding:0;shape-margin:0;inline-size:0;clip-rule:nonzero;display:inline;overflow:visible;visibility:visible;isolation:auto;mix-blend-mode:normal;color-interpolation:sRGB;color-interpolation-filters:linearRGB;solid-color:#000000;solid-opacity:1;vector-effect:none;fill:#000000;fill-opacity:1;fill-rule:nonzero;stroke:none;stroke-width:0.0707031;stroke-linecap:butt;stroke-linejoin:miter;stroke-miterlimit:22.926;stroke-dasharray:none;stroke-dashoffset:0;stroke-opacity:1;color-rendering:auto;image-rendering:auto;shape-rendering:auto;text-rendering:auto;enable-background:accumulate;stop-color:#000000;stop-opacity:1"
         d="m 192.97656,530.55859 c -2.65201,0 -4.82422,2.17221 -4.82422,4.82422 v 53.98828 c 0,2.65202 2.17221,4.82422 4.82422,4.82422 h 53.98828 c 2.65202,0 4.82032,-2.17246 4.82032,-4.82422 v -53.98828 c 0,-2.65175 -2.1683,-4.82422 -4.82032,-4.82422 z m 0,0.5 h 53.98828 c 2.37924,0 4.32032,1.94473 4.32032,4.32422 v 53.98828 c 0,2.3795 -1.94108,4.32422 -4.32032,4.32422 h -53.98828 c -2.37924,0 -4.32422,-1.94498 -4.32422,-4.32422 v -53.98828 c 0,-2.37924 1.94498,-4.32422 4.32422,-4.32422 z"
         id="path7948" />
    </g>
    <path
       style="fill:#263894;fill-opacity:1;fill-rule:evenodd;stroke:none;stroke-width:0.352777"
       d="m -151.4314,-281.87842 -128.55923,0.007 c -2.60193,0.0495 -5.38908,1.89058 -5.38908,5.62302 l -0.0283,128.17918 12.26926,12.22046 h 129.23169 c 3.41081,0 5.48653,-3.09894 5.47677,-5.57422 l 0.007,-127.21438 -13.00996,-13.24382"
       id="path7215" />
    <path
       style="fill:#ffffff;fill-opacity:1;fill-rule:evenodd;stroke:none;stroke-width:0.352777"
       d="m -247.47071,-153.10477 v -110.95937 h 43.59043 c 18.59394,0 33.68931,15.07592 33.68931,33.67955 0,18.62315 -15.09537,33.68932 -33.68931,33.68932 h -26.75065 v 43.5905 z m 16.83978,-59.44602 h 25.76639 c 9.84271,0 17.81435,-7.97157 17.81435,-17.8338 0,-9.8427 -7.97164,-17.82403 -17.81435,-17.82403 h -25.76639 v 35.65783"
       id="path7221" />
    <path
       style="fill:#eb1938;fill-opacity:1;fill-rule:evenodd;stroke:none;stroke-width:0.352777"
       d="m -279.75669,-135.85575 c -2.32911,-0.0212 -5.30146,-1.83209 -5.65223,-5.02856 l -0.0212,-7.16269 133.37337,-133.82173 h 8.3224 c 3.36216,0.0778 5.35019,2.77746 5.33067,5.77896 l -0.0283,7.88395 -134.64997,132.35007 h -6.67552"
       id="path7223" />
  </g>
</svg>
