<?xml version="1.0" encoding="UTF-8" standalone="no"?>
<svg
   xmlns:dc="http://purl.org/dc/elements/1.1/"
   xmlns:cc="http://creativecommons.org/ns#"
   xmlns:rdf="http://www.w3.org/1999/02/22-rdf-syntax-ns#"
   xmlns:svg="http://www.w3.org/2000/svg"
   xmlns="http://www.w3.org/2000/svg"
   xmlns:sodipodi="http://sodipodi.sourceforge.net/DTD/sodipodi-0.dtd"
   xmlns:inkscape="http://www.inkscape.org/namespaces/inkscape"
   sodipodi:docname="Latvia_road_sign_548.svg"
   inkscape:version="1.0 (4035a4fb49, 2020-05-01)"
   id="svg6931"
   version="1.1"
   viewBox="0 0 496.64789 195"
   height="195mm"
   width="496.64789mm">
  <defs
     id="defs6925" />
  <sodipodi:namedview
     inkscape:document-rotation="0"
     inkscape:window-maximized="1"
     inkscape:window-y="-9"
     inkscape:window-x="-9"
     inkscape:window-height="1001"
     inkscape:window-width="1920"
     showgrid="false"
     inkscape:current-layer="layer1"
     inkscape:document-units="mm"
     inkscape:cy="-110.80929"
     inkscape:cx="1004.1486"
     inkscape:zoom="0.24748738"
     inkscape:pageshadow="2"
     inkscape:pageopacity="0.0"
     borderopacity="1.0"
     bordercolor="#666666"
     pagecolor="#ffffff"
     id="base" />
  <metadata
     id="metadata6928">
    <rdf:RDF>
      <cc:Work
         rdf:about="">
        <dc:format>image/svg+xml</dc:format>
        <dc:type
           rdf:resource="http://purl.org/dc/dcmitype/StillImage" />
        <dc:title />
      </cc:Work>
    </rdf:RDF>
  </metadata>
  <g
     transform="translate(102.05856,45.550786)"
     id="layer1"
     inkscape:groupmode="layer"
     inkscape:label="Layer 1">
    <path
       inkscape:connector-curvature="0"
       id="path3773"
       style="fill:#ffffff;fill-opacity:1;stroke:#000000;stroke-width:1.51487;stroke-linecap:butt;stroke-linejoin:miter;stroke-miterlimit:22.926;stroke-dasharray:none;stroke-opacity:1"
       d="m -71.94983,-44.793351 h 436.43042 c 16.14073,0 29.35129,13.210566 29.35129,29.351295 V 119.34049 c 0,16.14073 -13.21056,29.35129 -29.35129,29.35129 H -71.94983 c -16.14073,0 -29.3513,-13.21056 -29.3513,-29.35129 V -15.442056 c 0,-16.140729 13.21057,-29.351295 29.3513,-29.351295 z" />
    <path
       inkscape:connector-curvature="0"
       id="path3765"
       style="fill:#283996;fill-opacity:1;fill-rule:evenodd;stroke:none;stroke-width:3.02974"
       d="m -72.94808,-35.555888 h 422.82255 l 32.82776,17.580979 -0.0944,140.185959 c 0,9.43612 -7.74755,17.18367 -17.23333,17.18367 H -57.00108 l -33.1754,-17.48165 V -18.362286 c 0,-9.485782 7.74755,-17.233333 17.18367,-17.233333" />
    <path
       transform="matrix(0.26458333,0,0,0.26458333,-102.05856,-45.550786)"
       d="m 1277.7031,115.16797 27.7813,28.1543 1.8769,0.15039 19.3321,-0.0742 27.9687,-27.96875 -21.7734,-0.0742 -16.8946,16.89258 -16.8925,-16.89258 z m -384.98435,46.73828 c -31.90995,0 -58.00195,26.09004 -58.00195,58 v 49.36719 c 0,31.90996 25.90431,58 58.00195,58 31.90998,0 58.00195,-26.09004 58.00195,-58 v -49.36719 c 0,-31.90996 -26.09197,-58 -58.00195,-58 z m -532.14453,1.3125 v 162.55469 h 24.58789 v -63.82032 h 39.23047 c 27.21732,0 49.36719,-22.14987 49.36719,-49.36718 0,-27.40503 -22.14987,-49.36719 -49.36719,-49.36719 z m 139.08984,0 v 162.55469 h 24.77539 V 163.21875 Z m 62.31836,0 V 325.77344 H 666.5332 v -23.27539 h -79.77539 v -47.86524 h 68.13867 v -21.77343 h -68.13867 v -46.36329 h 79.77539 v -23.27734 z m 136.46094,0 v 162.55469 l 24.58984,-0.1875 v -69.64063 h 31.91016 l 33.41211,69.64063 h 29.09375 L 780.0957,253.50586 c 18.39515,-6.38199 31.53516,-24.02703 31.53516,-43.92383 0,-25.71567 -20.83706,-46.36328 -46.55274,-46.36328 z m 284.375,0 v 162.55469 h 68.13674 c 15.7673,0 30.7828,-8.44654 38.291,-21.58594 12.764,-21.21074 6.1951,-48.61647 -15.0156,-61.75586 11.2623,-8.25905 18.7695,-20.64761 18.7695,-35.66406 0,-24.02632 -19.5208,-43.54883 -43.3594,-43.54883 z m 144.90824,0 v 162.55469 h 104.5527 v -23.27539 h -79.7754 v -47.86524 h 68.1367 v -21.77343 h -68.1367 v -46.36329 h 79.7754 v -23.27734 z m 308.9629,0 -59.3145,162.55469 h 24.2129 l 13.1406,-36.22852 h 62.5059 l 13.1386,36.22852 h 26.0918 l -59.5019,-162.55469 z m -175.3165,0.18945 v 21.77344 h 70.9532 L 1258.3691,305.5 v 20.27344 l 104.5528,0.1875 v -23.27539 h -73.9571 l 73.9571,-120.50782 V 163.4082 Z m -538.3398,21.58594 h 40.54492 c 13.5148,0 24.77735,11.4485 24.77735,24.58789 0,13.51481 -11.63793,24.77735 -24.77735,24.77735 H 723.0332 Z m 284.373,0.1875 h 39.2305 c 12.0132,0 23.2754,9.9485 23.2754,23.08789 0,11.82546 -10.136,23.08789 -23.2754,23.08789 h -39.2305 z m -622.24409,1.31445 h 37.73047 c 14.82874,0 26.08984,11.0734 26.08984,26.08985 0,14.82874 -11.07339,26.09179 -26.08984,26.09179 h -37.73047 z m 507.74414,0.1875 c 18.39515,0 33.41211,14.4521 33.41211,33.22266 v 49.36719 c 0,18.20744 -14.64154,33.22461 -33.41211,33.22461 -18.39515,0 -33.41211,-14.45405 -33.41211,-33.22461 v -49.36719 c 0,-18.20744 14.64154,-33.22266 33.41211,-33.22266 z m 553.91995,10.13477 24.0254,70.95312 h -47.8653 z m -439.42,56.5 h 40.7325 c 13.327,0 24.5898,11.45045 24.5898,24.58984 0,13.3271 -11.4505,24.58985 -24.5898,24.58985 h -40.7325 z M 371.81641,409.82812 c -32.09767,10e-6 -58,26.09006 -58,58 v 49.36719 c 0,32.09766 25.90233,58 58,58 32.09766,0 58.00195,-26.09004 58.00195,-58 v -49.36719 c 0,-32.09765 -26.092,-57.99999 -58.00195,-58 z m -194.08789,1.5 v 162.36719 h 67.95117 c 15.57957,0 30.78279,-8.25907 38.29101,-21.39843 12.76399,-21.21076 6.19511,-48.61647 -15.01562,-61.75586 11.26234,-8.07134 18.76953,-20.64762 18.76953,-35.66407 0,-24.02632 -19.33305,-43.54883 -43.35938,-43.54883 z m 283.8125,0 v 162.36719 l 24.40039,-0.18945 v -69.45117 h 31.91015 l 33.41211,69.45117 h 28.90625 l -37.16601,-71.89063 c 18.39515,-6.38199 31.53515,-24.02703 31.53515,-43.92382 0,-25.52797 -20.64761,-46.36329 -46.36328,-46.36329 z m 147.9121,0 v 162.36719 h 58 c 32.09767,0 58.00196,-25.90429 58.00196,-58.00195 v -46.36328 c 0,-31.90996 -25.90429,-58.00196 -58.00196,-58.00196 z m 147.72266,0 v 162.36719 l 104.36524,0.1875 v -23.27539 h -79.5879 V 502.74219 H 850.0918 V 480.9668 h -68.13868 v -46.36328 h 79.5879 v -23.2754 z m 136.27539,0 v 162.36719 l 24.21289,-0.18945 v -69.45117 h 31.91016 l 33.41211,69.45117 h 29.09377 l -37.16408,-71.89063 c 18.39515,-6.38199 31.53318,-24.02703 31.53318,-43.92382 0,-25.52797 -20.83528,-46.36329 -46.36326,-46.36329 z m 294.17183,0 -59.5019,162.36719 h 24.4004 l 13.1406,-36.22851 h 62.5059 l 13.1386,36.22851 h 26.0918 l -59.5039,-162.36719 z m 103.0508,0 v 162.36719 l 24.5899,-0.18945 v -69.45117 h 31.9101 l 33.2227,69.45117 h 29.0937 l -37.164,-71.89063 c 18.2074,-6.38199 31.3457,-24.02703 31.3457,-43.92382 0,-25.52797 -20.8353,-46.36329 -46.3633,-46.36329 z m 147.7246,0 v 162.36719 l 104.3633,0.1875 v -23.27539 h -79.5859 v -47.86523 h 68.1367 V 480.9668 h -68.1367 v -46.36328 h 79.5859 v -23.2754 z m 181.1348,0 -59.3144,162.36719 h 24.2148 l 13.1387,-36.22851 h 62.5058 l 13.1387,36.22851 h 26.0918 l -59.502,-162.36719 z m -1417.21484,21.7754 h 39.04297 c 11.82546,0 23.08789,9.94849 23.08789,23.08789 0,12.01316 -9.94849,23.27539 -23.08789,23.27539 h -39.04297 z m 283.81055,0.1875 h 40.54492 c 13.3271,0 24.58984,11.45044 24.58984,24.58984 0,13.3271 -11.45045,24.58789 -24.58984,24.58789 h -40.54492 z m 431.91211,0 h 40.54296 c 13.32711,0 24.58985,11.45044 24.58985,24.58984 0,13.3271 -11.45043,24.58789 -24.58985,24.58789 h -40.54296 z m 397.22268,0 h 40.5429 c 13.3271,0 24.5899,11.45044 24.5899,24.58984 0,13.3271 -11.4504,24.58789 -24.5899,24.58789 h -40.5429 z m -943.44729,1.3125 c 18.20744,0 33.22461,14.45405 33.22461,33.2246 v 49.36719 c 0,18.20745 -14.45405,33.22266 -33.22461,33.22266 -18.39516,0 -33.41016,-14.45209 -33.41016,-33.22266 v -49.36719 c 0,-18.20743 14.63959,-33.2246 33.41016,-33.2246 z m 262.22461,0 h 33.2246 c 18.20745,0 33.22461,14.45405 33.22461,33.2246 v 49.36719 c 0,18.20745 -14.45404,33.22266 -33.22461,33.22266 h -33.2246 z m 563.71878,9.94921 24.0254,71.14063 h -47.8653 z m 431.9101,0 24.0254,71.14063 h -47.8633 z m -1427.35154,56.6875 h 40.54492 c 13.3271,0 24.58984,11.45045 24.58984,24.58985 10e-6,13.3271 -11.45044,24.58789 -24.58984,24.58789 h -40.54492 z"
       style="fill:#ffffff;fill-opacity:1;fill-rule:evenodd;stroke:none;stroke-width:11.451"
       id="path3769" />
    <path
       inkscape:connector-curvature="0"
       id="path3767"
       style="fill:#ed1a3a;fill-opacity:1;fill-rule:evenodd;stroke:none;stroke-width:3.02974"
       d="m 382.65753,-18.009673 c -0.25328,-9.386455 -7.00259,-17.233333 -16.38905,-17.431988 L 349.63112,-35.610518 -90.16154,121.83858 c 0,10.92603 8.29385,17.38232 16.43871,17.58098 l 16.38905,0.0546 439.98635,-157.503729" />
  </g>
</svg>
