<?xml version="1.0" encoding="UTF-8" standalone="no"?>
<svg
   xmlns:dc="http://purl.org/dc/elements/1.1/"
   xmlns:cc="http://creativecommons.org/ns#"
   xmlns:rdf="http://www.w3.org/1999/02/22-rdf-syntax-ns#"
   xmlns:svg="http://www.w3.org/2000/svg"
   xmlns="http://www.w3.org/2000/svg"
   xmlns:sodipodi="http://sodipodi.sourceforge.net/DTD/sodipodi-0.dtd"
   xmlns:inkscape="http://www.inkscape.org/namespaces/inkscape"
   width="158.75mm"
   height="158.73615mm"
   viewBox="0 0 158.74999 158.73614"
   version="1.1"
   id="svg6774"
   inkscape:version="1.0 (4035a4fb49, 2020-05-01)"
   sodipodi:docname="Latvia_road_sign_543.svg">
  <defs
     id="defs6768" />
  <sodipodi:namedview
     id="base"
     pagecolor="#ffffff"
     bordercolor="#666666"
     borderopacity="1.0"
     inkscape:pageopacity="0.0"
     inkscape:pageshadow="2"
     inkscape:zoom="1.1591887"
     inkscape:cx="128.56075"
     inkscape:cy="251.07334"
     inkscape:document-units="mm"
     inkscape:current-layer="layer1"
     inkscape:document-rotation="0"
     showgrid="false"
     fit-margin-top="0"
     fit-margin-left="0"
     fit-margin-right="0"
     fit-margin-bottom="0"
     inkscape:window-width="1920"
     inkscape:window-height="1001"
     inkscape:window-x="-9"
     inkscape:window-y="-9"
     inkscape:window-maximized="1" />
  <metadata
     id="metadata6771">
    <rdf:RDF>
      <cc:Work
         rdf:about="">
        <dc:format>image/svg+xml</dc:format>
        <dc:type
           rdf:resource="http://purl.org/dc/dcmitype/StillImage" />
        <dc:title></dc:title>
      </cc:Work>
    </rdf:RDF>
  </metadata>
  <g
     inkscape:label="Layer 1"
     inkscape:groupmode="layer"
     id="layer1"
     transform="translate(462.30128,292.1424)">
    <g
       id="g3362"
       style="opacity:1;stroke-width:0.141412"
       transform="matrix(7.0715152,0,0,7.0715152,2714.867,1607.4986)">
      <path
         style="color:#000000;font-style:normal;font-variant:normal;font-weight:normal;font-stretch:normal;font-size:medium;line-height:normal;font-family:sans-serif;font-variant-ligatures:normal;font-variant-position:normal;font-variant-caps:normal;font-variant-numeric:normal;font-variant-alternates:normal;font-variant-east-asian:normal;font-feature-settings:normal;font-variation-settings:normal;text-indent:0;text-align:start;text-decoration:none;text-decoration-line:none;text-decoration-style:solid;text-decoration-color:#000000;letter-spacing:normal;word-spacing:normal;text-transform:none;writing-mode:lr-tb;direction:ltr;text-orientation:mixed;dominant-baseline:auto;baseline-shift:baseline;text-anchor:start;white-space:normal;shape-padding:0;shape-margin:0;inline-size:0;clip-rule:nonzero;display:inline;overflow:visible;visibility:visible;isolation:auto;mix-blend-mode:normal;color-interpolation:sRGB;color-interpolation-filters:linearRGB;solid-color:#000000;solid-opacity:1;vector-effect:none;fill:#ffffff;fill-opacity:1;fill-rule:nonzero;stroke:none;stroke-width:0.0249436;stroke-linecap:butt;stroke-linejoin:miter;stroke-miterlimit:22.926;stroke-dasharray:none;stroke-dashoffset:0;stroke-opacity:1;color-rendering:auto;image-rendering:auto;shape-rendering:auto;text-rendering:auto;enable-background:accumulate;stop-color:#000000;stop-opacity:1"
         d="m -447.58847,-268.54514 h 19.04586 c 0.88746,0 1.61231,0.72623 1.61231,1.61231 v 19.04724 c 0,0.88608 -0.72485,1.61231 -1.61231,1.61231 h -19.04586 c -0.88746,0 -1.61369,-0.72623 -1.61369,-1.61231 v -19.04724 c 0,-0.88608 0.72623,-1.61231 1.61369,-1.61231 z m 0,0"
         id="path3364" />
      <path
         style="color:#000000;font-style:normal;font-variant:normal;font-weight:normal;font-stretch:normal;font-size:medium;line-height:normal;font-family:sans-serif;font-variant-ligatures:normal;font-variant-position:normal;font-variant-caps:normal;font-variant-numeric:normal;font-variant-alternates:normal;font-variant-east-asian:normal;font-feature-settings:normal;font-variation-settings:normal;text-indent:0;text-align:start;text-decoration:none;text-decoration-line:none;text-decoration-style:solid;text-decoration-color:#000000;letter-spacing:normal;word-spacing:normal;text-transform:none;writing-mode:lr-tb;direction:ltr;text-orientation:mixed;dominant-baseline:auto;baseline-shift:baseline;text-anchor:start;white-space:normal;shape-padding:0;shape-margin:0;inline-size:0;clip-rule:nonzero;display:inline;overflow:visible;visibility:visible;isolation:auto;mix-blend-mode:normal;color-interpolation:sRGB;color-interpolation-filters:linearRGB;solid-color:#000000;solid-opacity:1;vector-effect:none;fill:#000000;fill-opacity:1;fill-rule:nonzero;stroke:none;stroke-width:0.0249436;stroke-linecap:butt;stroke-linejoin:miter;stroke-miterlimit:22.926;stroke-dasharray:none;stroke-dashoffset:0;stroke-opacity:1;color-rendering:auto;image-rendering:auto;shape-rendering:auto;text-rendering:auto;enable-background:accumulate;stop-color:#000000;stop-opacity:1"
         d="m -447.58789,-268.63281 c -0.93558,0 -1.70313,0.76495 -1.70313,1.69922 v 19.04882 c 0,0.93427 0.76755,1.69922 1.70313,1.69922 h 19.04492 c 0.93558,0 1.70117,-0.76504 1.70117,-1.69922 v -19.04882 c 0,-0.93418 -0.76559,-1.69922 -1.70117,-1.69922 z m 0,0.17578 h 19.04492 c 0.83935,0 1.52539,0.68545 1.52539,1.52344 v 19.04882 c 0,0.83799 -0.68604,1.52344 -1.52539,1.52344 h -19.04492 c -0.83935,0 -1.52539,-0.68555 -1.52539,-1.52344 v -19.04882 c 0,-0.83789 0.68604,-1.52344 1.52539,-1.52344 z"
         id="path3366" />
    </g>
    <path
       transform="matrix(0.26458333,0,0,0.26458333,-462.30128,-292.1424)"
       d="M 42.447266 21.865234 C 32.613351 22.079156 22.080078 29.119099 22.080078 43.298828 L 22.080078 557.49414 C 22.080078 566.29666 29.518945 578.08203 43.882812 578.08203 L 557.19531 578.08203 C 570.086 578.08203 577.96631 566.261 577.92969 556.86914 L 577.95703 43.261719 C 578.14404 28.940422 567.32077 22.275242 557.45312 21.865234 L 42.447266 21.865234 z M 92.669922 92.632812 L 507.47852 92.632812 L 507.47852 508.33203 L 92.669922 508.33203 L 92.669922 92.632812 z "
       style="fill:#263894;fill-opacity:1;fill-rule:evenodd;stroke:none;stroke-width:1.33333"
       id="path1968" />
    <path
       transform="matrix(0.26458333,0,0,0.26458333,-462.30128,-292.1424)"
       d="M 377.42969 127.01367 L 347.65625 127.09375 L 347.65625 150.12305 L 377.42969 150.04102 L 377.42969 127.01367 z M 285.02344 127.09375 L 285.02344 150.05273 L 314.83789 150.1875 L 314.83789 127.16016 L 285.02344 127.09375 z M 222.57031 127.17578 L 222.57031 150.13477 L 252.31641 150.13477 L 252.20898 127.25781 L 222.57031 127.17578 z M 220.97266 160.07617 L 191.35352 160.1582 L 191.35352 183.11719 L 221.05664 183.19727 L 220.97266 160.07617 z M 283.70508 160.14648 L 253.7207 160.1582 L 253.88281 183.18555 L 283.54492 183.10547 L 283.70508 160.14648 z M 316.35352 160.1582 L 316.35352 183.18555 L 346.21094 183.10547 L 346.12891 160.2168 L 316.35352 160.1582 z M 408.75977 160.1582 L 379.0293 160.23828 L 378.94727 183.12891 L 408.69336 183.12891 L 408.75977 160.1582 z M 255.75977 324.43359 L 212.70703 370.78711 L 125.04297 384.80469 L 121.33398 393.44531 L 488.08398 393.33789 L 479.81445 371.16211 L 405.98242 371.26953 L 367.86133 324.43359 L 255.75977 324.43359 z M 304.23438 332.5957 L 304.15234 371.27344 L 222.91211 371.28516 C 234.14808 357.86118 246.38497 345.69986 257.88086 332.75781 L 304.23438 332.5957 z M 354.77148 332.5957 L 383.84375 370.97656 L 312.12695 371.06445 L 312.12695 332.75781 L 354.77148 332.5957 z M 205.06836 398.56055 C 218.01041 407.72016 222.82991 415.46978 222.68164 430.59961 L 354.4375 430.56836 C 352.69374 414.88234 363.15173 402.90533 373.08984 398.64062 L 205.06836 398.56055 z M 488.26953 398.56641 L 403.79492 398.75391 C 417.9234 406.05943 421.81775 413.10668 423.70898 430.90625 L 467.61523 426.67578 L 488.26953 398.56641 z M 118.58984 398.6543 L 118.50977 411.07812 L 127.37305 423.72266 L 153.33789 428.86328 C 154.71031 415.03161 156.56353 406.72509 171.73047 398.78906 L 118.58984 398.6543 z M 187.89844 398.71484 C 171.35964 398.71484 157.86133 412.21312 157.86133 428.75195 C 157.86133 445.29101 171.35964 458.78906 187.89844 458.78906 C 204.47442 458.78906 217.97266 445.29101 217.97266 428.75195 C 217.97266 412.21312 204.47442 398.71484 187.89844 398.71484 z M 389.10352 399.04883 C 372.56442 399.04883 359.06641 412.54688 359.06641 429.08594 C 359.06641 445.62477 372.56442 459.12305 389.10352 459.12305 C 405.64231 459.12305 419.14063 445.62477 419.14062 429.08594 C 419.14062 412.54688 405.64231 399.04883 389.10352 399.04883 z M 188.11328 413.06445 C 196.93893 413.06445 204.13281 420.26006 204.13281 429.08594 C 204.13281 437.87444 196.93893 445.03125 188.11328 445.03125 C 179.32452 445.03125 172.16797 437.87444 172.16797 429.08594 C 172.16797 420.26006 179.32452 413.06445 188.11328 413.06445 z M 389.31836 413.39844 C 398.10712 413.39844 405.30078 420.59401 405.30078 429.41992 C 405.30078 438.20842 398.10712 445.36523 389.31836 445.36523 C 380.52986 445.36523 373.33594 438.20842 373.33594 429.41992 C 373.33594 420.59401 380.52986 413.39844 389.31836 413.39844 z "
       style="opacity:1;fill:#000000;fill-opacity:1;fill-rule:evenodd;stroke:none;stroke-width:1.33333"
       id="path5762" />
  </g>
</svg>
