<?xml version="1.0" encoding="UTF-8" standalone="no"?>
<svg
   xmlns:dc="http://purl.org/dc/elements/1.1/"
   xmlns:cc="http://creativecommons.org/ns#"
   xmlns:rdf="http://www.w3.org/1999/02/22-rdf-syntax-ns#"
   xmlns:svg="http://www.w3.org/2000/svg"
   xmlns="http://www.w3.org/2000/svg"
   xmlns:sodipodi="http://sodipodi.sourceforge.net/DTD/sodipodi-0.dtd"
   xmlns:inkscape="http://www.inkscape.org/namespaces/inkscape"
   width="158.75mm"
   height="158.73615mm"
   viewBox="0 0 158.74999 158.73614"
   version="1.1"
   id="svg6774"
   inkscape:version="1.0 (4035a4fb49, 2020-05-01)"
   sodipodi:docname="Latvia_road_sign_542.svg">
  <defs
     id="defs6768" />
  <sodipodi:namedview
     id="base"
     pagecolor="#ffffff"
     bordercolor="#666666"
     borderopacity="1.0"
     inkscape:pageopacity="0.0"
     inkscape:pageshadow="2"
     inkscape:zoom="0.81967018"
     inkscape:cx="332.78939"
     inkscape:cy="358.11476"
     inkscape:document-units="mm"
     inkscape:current-layer="layer1"
     inkscape:document-rotation="0"
     showgrid="false"
     fit-margin-top="0"
     fit-margin-left="0"
     fit-margin-right="0"
     fit-margin-bottom="0"
     inkscape:window-width="1920"
     inkscape:window-height="1001"
     inkscape:window-x="-9"
     inkscape:window-y="-9"
     inkscape:window-maximized="1" />
  <metadata
     id="metadata6771">
    <rdf:RDF>
      <cc:Work
         rdf:about="">
        <dc:format>image/svg+xml</dc:format>
        <dc:type
           rdf:resource="http://purl.org/dc/dcmitype/StillImage" />
        <dc:title></dc:title>
      </cc:Work>
    </rdf:RDF>
  </metadata>
  <g
     inkscape:label="Layer 1"
     inkscape:groupmode="layer"
     id="layer1"
     transform="translate(462.30128,292.1424)">
    <g
       id="g3362"
       style="opacity:1;stroke-width:0.141412"
       transform="matrix(7.0715152,0,0,7.0715152,2714.867,1607.4986)">
      <path
         style="color:#000000;font-style:normal;font-variant:normal;font-weight:normal;font-stretch:normal;font-size:medium;line-height:normal;font-family:sans-serif;font-variant-ligatures:normal;font-variant-position:normal;font-variant-caps:normal;font-variant-numeric:normal;font-variant-alternates:normal;font-variant-east-asian:normal;font-feature-settings:normal;font-variation-settings:normal;text-indent:0;text-align:start;text-decoration:none;text-decoration-line:none;text-decoration-style:solid;text-decoration-color:#000000;letter-spacing:normal;word-spacing:normal;text-transform:none;writing-mode:lr-tb;direction:ltr;text-orientation:mixed;dominant-baseline:auto;baseline-shift:baseline;text-anchor:start;white-space:normal;shape-padding:0;shape-margin:0;inline-size:0;clip-rule:nonzero;display:inline;overflow:visible;visibility:visible;isolation:auto;mix-blend-mode:normal;color-interpolation:sRGB;color-interpolation-filters:linearRGB;solid-color:#000000;solid-opacity:1;vector-effect:none;fill:#ffffff;fill-opacity:1;fill-rule:nonzero;stroke:none;stroke-width:0.0249436;stroke-linecap:butt;stroke-linejoin:miter;stroke-miterlimit:22.926;stroke-dasharray:none;stroke-dashoffset:0;stroke-opacity:1;color-rendering:auto;image-rendering:auto;shape-rendering:auto;text-rendering:auto;enable-background:accumulate;stop-color:#000000;stop-opacity:1"
         d="m -447.58847,-268.54514 h 19.04586 c 0.88746,0 1.61231,0.72623 1.61231,1.61231 v 19.04724 c 0,0.88608 -0.72485,1.61231 -1.61231,1.61231 h -19.04586 c -0.88746,0 -1.61369,-0.72623 -1.61369,-1.61231 v -19.04724 c 0,-0.88608 0.72623,-1.61231 1.61369,-1.61231 z m 0,0"
         id="path3364" />
      <path
         style="color:#000000;font-style:normal;font-variant:normal;font-weight:normal;font-stretch:normal;font-size:medium;line-height:normal;font-family:sans-serif;font-variant-ligatures:normal;font-variant-position:normal;font-variant-caps:normal;font-variant-numeric:normal;font-variant-alternates:normal;font-variant-east-asian:normal;font-feature-settings:normal;font-variation-settings:normal;text-indent:0;text-align:start;text-decoration:none;text-decoration-line:none;text-decoration-style:solid;text-decoration-color:#000000;letter-spacing:normal;word-spacing:normal;text-transform:none;writing-mode:lr-tb;direction:ltr;text-orientation:mixed;dominant-baseline:auto;baseline-shift:baseline;text-anchor:start;white-space:normal;shape-padding:0;shape-margin:0;inline-size:0;clip-rule:nonzero;display:inline;overflow:visible;visibility:visible;isolation:auto;mix-blend-mode:normal;color-interpolation:sRGB;color-interpolation-filters:linearRGB;solid-color:#000000;solid-opacity:1;vector-effect:none;fill:#000000;fill-opacity:1;fill-rule:nonzero;stroke:none;stroke-width:0.0249436;stroke-linecap:butt;stroke-linejoin:miter;stroke-miterlimit:22.926;stroke-dasharray:none;stroke-dashoffset:0;stroke-opacity:1;color-rendering:auto;image-rendering:auto;shape-rendering:auto;text-rendering:auto;enable-background:accumulate;stop-color:#000000;stop-opacity:1"
         d="m -447.58789,-268.63281 c -0.93558,0 -1.70313,0.76495 -1.70313,1.69922 v 19.04882 c 0,0.93427 0.76755,1.69922 1.70313,1.69922 h 19.04492 c 0.93558,0 1.70117,-0.76504 1.70117,-1.69922 v -19.04882 c 0,-0.93418 -0.76559,-1.69922 -1.70117,-1.69922 z m 0,0.17578 h 19.04492 c 0.83935,0 1.52539,0.68545 1.52539,1.52344 v 19.04882 c 0,0.83799 -0.68604,1.52344 -1.52539,1.52344 h -19.04492 c -0.83935,0 -1.52539,-0.68555 -1.52539,-1.52344 v -19.04882 c 0,-0.83789 0.68604,-1.52344 1.52539,-1.52344 z"
         id="path3366" />
    </g>
    <path
       transform="matrix(0.26458333,0,0,0.26458333,-462.30128,-292.1424)"
       d="M 42.447266 21.865234 C 32.613351 22.079156 22.080078 29.119099 22.080078 43.298828 L 22.080078 557.49414 C 22.080078 566.29666 29.518945 578.08203 43.882812 578.08203 L 557.19531 578.08203 C 570.086 578.08203 577.96631 566.261 577.92969 556.86914 L 577.95703 43.261719 C 578.14404 28.940422 567.32077 22.275242 557.45312 21.865234 L 42.447266 21.865234 z M 92.669922 92.632812 L 507.47852 92.632812 L 507.47852 508.33203 L 92.669922 508.33203 L 92.669922 92.632812 z "
       style="fill:#263894;fill-opacity:1;fill-rule:evenodd;stroke:none;stroke-width:1.33333"
       id="path1968" />
    <path
       style="opacity:1;fill:#000000;fill-opacity:1;fill-rule:evenodd;stroke:none;stroke-width:0.352777"
       d="m -341.52916,-190.10904 5.65108,-1.09882 -0.0214,-13.59791 -3.54172,-13.65679 h -23.55556 l -2.74704,-2.13883 h -35.34868 c -1.09881,0.55959 -1.9916,1.35398 -2.95308,2.10942 l -23.88953,0.0285 -0.057,3.4731 h 0.66709 l -2.69799,10.08558 -0.0214,13.7549 5.39599,1.03994 h 11.77304 l 1.40296,-3.66923 h 13.60773 l 1.48149,3.66923 h 26.97012 l 1.94262,-3.72811 13.61749,0.007 1.48149,3.71836 z m 3.75759,-15.8152 -2.30557,-9.08488 h -1.44219 l -0.007,9.08488 z m -39.16514,-15.28537 4.96433,-6.30842 -11.2531,-9.4185 -10.62524,9.4185 4.51303,6.30842 z m -0.75545,-1.06942 4.10096,-5.239 -9.72256,-7.9076 -8.98684,7.9076 3.71836,5.24883 z m 34.41667,8.9966 h -2.85498 v 21.34859 h 2.85498 z m -4.18924,0 h -2.86481 v 21.34859 h 2.86481 z m -67.9503,0 h -2.85498 v 21.34859 h 2.85498 z m -4.23829,0 h -2.86481 v 21.34859 h 2.86481 z m -8.7808,7.35819 2.30557,-9.08488 h 1.44219 v 9.08488 z m 25.98906,-9.08488 h -10.54672 v 9.08488 h 10.54672 z m 12.45003,0 h -10.55654 v 9.08488 h 10.55654 z m 12.52856,0 h -10.55654 v 9.08488 h 10.55654 z m 12.48926,0 h -10.54671 v 9.08488 h 10.54671 z m 12.48926,0 h -10.54671 v 9.08488 h 10.54671 z m -48.43639,21.95681 c 1.66787,0 3.03154,1.37349 3.03154,3.0512 0,1.65798 -1.36367,3.02172 -3.03154,3.02172 -1.66788,0 -3.04137,-1.36374 -3.04137,-3.02172 0,-1.67771 1.37349,-3.0512 3.04137,-3.0512 z m -7.49553,0 c 1.65806,0 3.02172,1.37349 3.02172,3.0512 0,1.65798 -1.36366,3.02172 -3.02172,3.02172 -1.6777,0 -3.05119,-1.36374 -3.05119,-3.02172 0,-1.67771 1.37349,-3.0512 3.05119,-3.0512 z m 51.34043,0 c 1.66788,0 3.03161,1.37349 3.03161,3.0512 0,1.65798 -1.36373,3.02172 -3.03161,3.02172 -1.66781,0 -3.04137,-1.36374 -3.04137,-3.02172 0,-1.67771 1.37356,-3.0512 3.04137,-3.0512 z m -7.49552,0 c 1.65805,0 3.02179,1.37349 3.02179,3.0512 0,1.65798 -1.36374,3.02172 -3.02179,3.02172 -1.6777,0 -3.05119,-1.36374 -3.05119,-3.02172 0,-1.67771 1.37349,-3.0512 3.05119,-3.0512"
       id="path7039" />
  </g>
</svg>
