<?xml version="1.0" encoding="UTF-8" standalone="no"?>
<!-- Created with Inkscape (http://www.inkscape.org/) -->

<svg
   xmlns:dc="http://purl.org/dc/elements/1.1/"
   xmlns:cc="http://creativecommons.org/ns#"
   xmlns:rdf="http://www.w3.org/1999/02/22-rdf-syntax-ns#"
   xmlns:svg="http://www.w3.org/2000/svg"
   xmlns="http://www.w3.org/2000/svg"
   xmlns:sodipodi="http://sodipodi.sourceforge.net/DTD/sodipodi-0.dtd"
   xmlns:inkscape="http://www.inkscape.org/namespaces/inkscape"
   width="496.66074mm"
   height="195mm"
   viewBox="0 0 496.66074 195"
   version="1.1"
   id="svg6931"
   inkscape:version="0.92.3 (2405546, 2018-03-11)"
   sodipodi:docname="Latvia road sign 542.svg">
  <defs
     id="defs6925" />
  <sodipodi:namedview
     id="base"
     pagecolor="#ffffff"
     bordercolor="#666666"
     borderopacity="1.0"
     inkscape:pageopacity="0.0"
     inkscape:pageshadow="2"
     inkscape:zoom="0.49497475"
     inkscape:cx="87.917916"
     inkscape:cy="773.60442"
     inkscape:document-units="mm"
     inkscape:current-layer="layer1"
     showgrid="false"
     inkscape:window-width="1920"
     inkscape:window-height="1027"
     inkscape:window-x="-8"
     inkscape:window-y="-8"
     inkscape:window-maximized="1" />
  <metadata
     id="metadata6928">
    <rdf:RDF>
      <cc:Work
         rdf:about="">
        <dc:format>image/svg+xml</dc:format>
        <dc:type
           rdf:resource="http://purl.org/dc/dcmitype/StillImage" />
        <dc:title></dc:title>
      </cc:Work>
    </rdf:RDF>
  </metadata>
  <g
     inkscape:label="Layer 1"
     inkscape:groupmode="layer"
     id="layer1"
     transform="translate(127.13315,-179.89772)">
    <path
       d="M -97.028237,180.65519 H 339.42277 c 16.1432,0 29.34736,13.20425 29.34736,29.34745 v 134.79017 c 0,16.14018 -13.20416,29.34744 -29.34736,29.34744 H -97.028237 c -16.140193,0 -29.347443,-13.20726 -29.347443,-29.34744 V 210.00264 c 0,-16.1432 13.20725,-29.34745 29.347443,-29.34745 z"
       style="fill:#ffffff;fill-opacity:1;stroke:#000000;stroke-width:1.51493931;stroke-linecap:butt;stroke-linejoin:miter;stroke-miterlimit:22.9260006;stroke-dasharray:none;stroke-opacity:1"
       id="path3763"
       inkscape:connector-curvature="0" />
    <path
       d="m -97.9796,189.89639 h 438.35374 c 9.47438,0 17.20973,7.73827 17.20973,17.21273 V 347.6864 c 0,9.47438 -7.73535,17.20965 -17.20973,17.20965 H -97.9796 c -9.47446,0 -17.20973,-7.73527 -17.20973,-17.20965 V 207.10912 c 0,-9.47446 7.73527,-17.21273 17.20973,-17.21273"
       style="fill:#283996;fill-opacity:1;fill-rule:evenodd;stroke:none;stroke-width:3.02987862"
       id="path3757"
       inkscape:connector-curvature="0" />
    <path
       d="m -80.112409,331.69162 v -42.95458 h 17.63693 c 6.35361,0 11.48626,5.16898 11.48626,11.50447 0,3.751 -1.80885,7.29596 -4.89328,9.43805 5.61439,3.41467 7.35049,10.74704 3.91461,16.34322 -2.1603,3.52675 -5.98404,5.66884 -10.11981,5.66884 z m 6.52032,-6.12945 h 10.72875 c 3.6025,0 6.51731,-2.89952 6.51731,-6.52023 0,-3.60259 -2.91481,-6.52032 -6.51731,-6.52032 h -10.72875 z m 0,-18.78222 h 10.34097 c 3.39947,0 6.13245,-2.75111 6.13245,-6.15058 0,-3.37834 -2.73298,-6.13254 -6.13245,-6.13254 h -10.34097 z m 29.51097,9.9714 V 303.6956 c 0,-8.45946 6.86876,-15.32822 15.34634,-15.32822 8.45946,0 15.32813,6.86876 15.32813,15.32822 v 13.05575 c 0,8.45937 -6.86867,15.32813 -15.32813,15.32813 -8.47758,0 -15.34634,-6.86876 -15.34634,-15.32813 z m 6.52032,0 c 0,4.85687 3.95094,8.81082 8.82602,8.81082 4.85687,0 8.81091,-3.95395 8.81091,-8.81082 V 303.6956 c 0,-4.87508 -3.95404,-8.8079 -8.81091,-8.8079 -4.87508,0 -8.82602,3.93282 -8.82602,8.8079 z m 32.5953995,14.94027 V 288.73704 H 12.671531 c 6.7748,0 12.28012,5.5023 12.28012,12.28011 0,5.26294 -3.36314,9.93499 -8.32917,11.63476 l 9.84411,19.03971 h -7.66561 L 9.9719505,313.29726 h -8.43824 v 18.39436 z m 6.49911,-24.15415 H 12.280661 c 3.58438,0 6.52032,-2.93903 6.52032,-6.52032 0,-3.5995 -2.93594,-6.52032 -6.52032,-6.52032 H 1.5337105 Z m 32.6136105,24.15415 v -42.95458 h 15.32814 c 8.47766,0 15.32821,6.88696 15.32821,15.34634 v 12.28011 c 0,8.47758 -6.85055,15.32813 -15.32821,15.32813 z m 6.52032,-6.12945 h 8.80782 c 4.87508,0 8.8109,-3.95395 8.8109,-8.81082 V 303.6956 c 0,-4.87508 -3.93582,-8.8079 -8.8109,-8.8079 h -8.80782 z m 32.5772,6.12945 v -42.95458 h 27.608329 v 6.15066 H 79.780361 v 12.2619 h 18.02771 v 5.7598 h -18.02771 v 12.65277 h 21.072809 v 6.12945 z m 36.049499,0 v -42.95458 h 17.63693 c 6.77789,0 12.28011,5.5023 12.28011,12.28011 0,5.26294 -3.34192,9.93499 -8.32908,11.63476 l 9.86224,19.03971 h -7.68382 l -8.82603,-18.39436 h -8.42304 v 18.39436 z m 6.51731,-24.15415 h 10.73184 c 3.5995,0 6.51723,-2.93903 6.51723,-6.52032 0,-3.5995 -2.91773,-6.52032 -6.51723,-6.52032 h -10.73184 z m 55.58915,24.15415 15.73418,-42.95458 h 5.35682 l 15.75232,42.95458 h -6.9263 l -3.22984,-9.56533 H 181.5388 l -3.22984,9.56533 z m 12.09526,-15.32813 h 12.65278 l -6.3355,-18.81855 z m 30.88052,15.32813 v -42.95458 h 17.63392 c 6.75968,0 12.24679,5.5023 12.24679,12.28011 0,5.26294 -3.34201,9.93499 -8.31096,11.63476 l 9.86224,19.03971 h -7.68374 l -8.8079,-18.39436 h -8.44125 v 18.39436 z m 6.4991,-24.15415 h 10.72883 c 3.62071,0 6.52032,-2.93903 6.52032,-6.52032 0,-3.5995 -2.89961,-6.52032 -6.52032,-6.52032 h -10.72883 z m 32.59549,24.15415 v -42.95458 h 27.61126 v 6.15066 h -21.07282 v 12.2619 h 18.00659 v 5.7598 h -18.00659 v 12.65277 h 21.07282 v 6.12945 z m 32.20755,0 15.71599,-42.95458 h 5.37503 l 15.73411,42.95458 h -6.90508 l -3.23285,-9.56533 h -16.54617 l -3.23285,9.56533 z m 12.09829,-15.32813 h 12.64977 l -6.35362,-18.81855 -6.29615,18.81855"
       style="fill:#ffffff;fill-opacity:1;fill-rule:evenodd;stroke:none;stroke-width:3.02987862"
       id="path3759"
       inkscape:connector-curvature="0" />
    <path
       d="m -31.734359,266.09474 v -42.99392 h 16.8795 c 7.2019895,0 13.0557495,5.83554 13.0557495,13.05575 0,7.205 -5.85376,13.04055 -13.0557495,13.04055 h -10.36219 v 16.89762 z m 6.51731,-23.04829 h 9.97432 c 3.80254,0 6.9050895,-3.08435 6.9050895,-6.88988 0,-3.82074 -3.1025495,-6.90509 -6.9050895,-6.90509 h -9.97432 z m 36.84326,23.04829 H 5.0886305 v -42.99392 h 6.5375805 z m -6.5384405,0 z m 16.4946405,0 v -42.99392 h 27.64466 v 6.15066 h -21.10922 v 12.2619 h 18.04291 v 5.7628 h -18.04291 v 12.66798 h 21.10922 v 6.15058 z m 36.10404,0 v -42.99392 h 17.63693 c 6.7778,0 12.29832,5.48409 12.29832,12.28311 0,5.26286 -3.37834,9.93499 -8.34738,11.63477 l 9.88045,19.07604 h -7.68374 l -8.82611,-18.43069 h -8.45937 v 18.43069 z m 6.4991,-24.17537 h 10.74996 c 3.61771,0 6.53552,-2.93594 6.53552,-6.53544 0,-3.62071 -2.91781,-6.52031 -6.53552,-6.52031 h -10.74996 z m 29.55039,9.21689 v -13.07697 c 0,-8.45636 6.886879,-15.34634 15.364549,-15.34634 8.45637,0 15.34634,6.88998 15.34634,15.34634 v 13.07697 c 0,8.45637 -6.88997,15.34634 -15.34634,15.34634 -8.47767,0 -15.364549,-6.88997 -15.364549,-15.34634 z m 6.535439,0 c 0,4.85687 3.95403,8.8079 8.82911,8.8079 4.87508,0 8.82602,-3.95103 8.82602,-8.8079 v -13.07697 c 0,-4.85687 -3.95094,-8.80781 -8.82602,-8.80781 -4.87508,0 -8.82911,3.95094 -8.82911,8.80781 z m 32.61361,14.95848 v -42.99392 h 17.67635 c 6.3324,0 11.48627,5.15378 11.48627,11.5256 0,3.72978 -1.83007,7.27474 -4.89329,9.43504 5.59318,3.41776 7.3505,10.75005 3.91461,16.34623 -2.16029,3.52675 -5.98395,5.68705 -10.13793,5.68705 z m 6.52032,-6.15058 h 10.76817 c 3.58138,0 6.49911,-2.91782 6.49911,-6.51731 0,-3.62071 -2.91773,-6.52032 -6.49911,-6.52032 h -10.76817 z m 0,-18.81864 h 10.36219 c 3.39654,0 6.14765,-2.7329 6.14765,-6.12945 0,-3.39947 -2.75111,-6.13245 -6.14765,-6.13245 h -10.36219 z m 31.85618,24.96922 v -42.99392 h 27.64756 v 6.15066 H 177.7817 v 12.2619 h 18.043 v 5.7628 h -18.043 v 12.66798 h 21.12735 v 6.15058 z m 34.55574,0 v -5.37494 l 19.55786,-31.85618 h -18.80043 v -5.7628 h 26.86902 v 4.98716 l -19.57607,31.85618 h 19.57607 v 6.15058 z m 31.46832,0 15.71591,-42.99392 h 5.37503 l 15.75241,42.99392 h -6.90818 l -3.25106,-9.60166 h -16.54617 l -3.22984,9.60166 z m 12.07708,-15.36447 h 12.66789 l -6.3324,-18.80043 z m -31.11687,-32.92873 -7.36862,-7.44445 5.68705,0.0601 4.22973,4.22973 4.22964,-4.28727 5.74167,0.0172 -7.40503,7.40504 -5.11444,0.0172"
       style="fill:#ffffff;fill-opacity:1;fill-rule:evenodd;stroke:none;stroke-width:3.02987862"
       id="path3761"
       inkscape:connector-curvature="0" />
  </g>
</svg>
