<?xml version="1.0" encoding="UTF-8" standalone="no"?>
<svg
   xmlns:dc="http://purl.org/dc/elements/1.1/"
   xmlns:cc="http://creativecommons.org/ns#"
   xmlns:rdf="http://www.w3.org/1999/02/22-rdf-syntax-ns#"
   xmlns:svg="http://www.w3.org/2000/svg"
   xmlns="http://www.w3.org/2000/svg"
   xmlns:sodipodi="http://sodipodi.sourceforge.net/DTD/sodipodi-0.dtd"
   xmlns:inkscape="http://www.inkscape.org/namespaces/inkscape"
   sodipodi:docname="Latvia_road_sign_514.svg"
   inkscape:version="1.0 (4035a4fb49, 2020-05-01)"
   id="svg3845"
   version="1.1"
   viewBox="0 0 195 194.98801"
   height="194.98801mm"
   width="195mm">
  <defs
     id="defs3839" />
  <sodipodi:namedview
     inkscape:document-rotation="0"
     inkscape:window-maximized="1"
     inkscape:window-y="-9"
     inkscape:window-x="-9"
     inkscape:window-height="1001"
     inkscape:window-width="1920"
     showgrid="false"
     inkscape:current-layer="layer1"
     inkscape:document-units="mm"
     inkscape:cy="555.57937"
     inkscape:cx="-268.70246"
     inkscape:zoom="0.49497475"
     inkscape:pageshadow="2"
     inkscape:pageopacity="0.0"
     borderopacity="1.0"
     bordercolor="#666666"
     pagecolor="#ffffff"
     id="base" />
  <metadata
     id="metadata3842">
    <rdf:RDF>
      <cc:Work
         rdf:about="">
        <dc:format>image/svg+xml</dc:format>
        <dc:type
           rdf:resource="http://purl.org/dc/dcmitype/StillImage" />
        <dc:title></dc:title>
      </cc:Work>
    </rdf:RDF>
  </metadata>
  <g
     transform="translate(-383.73263,504.25025)"
     id="layer1"
     inkscape:groupmode="layer"
     inkscape:label="Layer 1">
    <path
       style="fill:#ffffff;fill-opacity:1;stroke:#000000;stroke-width:1.53213;stroke-linecap:butt;stroke-linejoin:miter;stroke-miterlimit:22.926;stroke-opacity:1"
       d="m 398.5154,-503.48418 h 165.43448 c 7.70857,0 14.01669,6.30812 14.01669,14.00471 V -324.033 c 0,7.70857 -6.30812,14.0047 -14.01669,14.0047 H 398.5154 c -7.70858,0 -14.0167,-6.29613 -14.0167,-14.0047 v -165.44647 c 0,-7.69659 6.30812,-14.00471 14.0167,-14.00471 z m 0,0"
       id="path12644" />
    <path
       style="fill:#263894;fill-opacity:1;fill-rule:evenodd;stroke:none;stroke-width:3.06426"
       d="m 564.89553,-497.14019 -167.37365,0.009 c -3.19597,0.0608 -6.61925,2.34603 -6.61925,6.95445 v 167.1102 c 0,2.86086 2.42985,6.69117 7.08613,6.69117 H 564.8237 c 4.1894,0 6.73903,-3.8423 6.72705,-6.8946 l 0.009,-166.91876 c 0.0695,-4.65628 -3.45924,-6.82277 -6.6672,-6.95445"
       id="path12616" />
    <path
       style="fill:#ffffff;fill-opacity:1;fill-rule:evenodd;stroke:none;stroke-width:3.06426"
       d="m 444.15623,-324.83499 -0.0261,-102.26994 c 0,-9.13302 7.05025,-17.24854 17.057,-17.40411 l 57.02407,-0.026 -5.73353,17.45187 42.75609,-24.78938 -42.67227,-24.39443 5.70956,16.9731 -59.53774,-0.0261 c -17.09288,0.0261 -29.8527,13.466 -29.733,31.13346 l 0.4786,103.37117 14.67493,-0.0261"
       id="path12618" />
    <path
       style="fill:#ffffff;fill-opacity:1;fill-rule:evenodd;stroke:none;stroke-width:3.06426"
       d="m 407.93557,-394.12819 -4.24924,0.0347 v -11.85012 l 4.22535,0.52638 0.0261,11.28761"
       id="path12620" />
    <path
       style="fill:#ffffff;fill-opacity:1;fill-rule:evenodd;stroke:none;stroke-width:3.06426"
       d="m 407.93557,-376.74806 -4.29711,0.0347 v -11.90996 l 4.27322,-0.11987 0.0261,11.9937"
       id="path12622" />
    <path
       style="fill:#ffffff;fill-opacity:1;fill-rule:evenodd;stroke:none;stroke-width:3.06426"
       d="m 407.93557,-359.54748 h -4.29711 l 0.0521,-11.89797 4.22536,-0.0521 0.0261,11.94584"
       id="path12624" />
    <path
       style="fill:#ffffff;fill-opacity:1;fill-rule:evenodd;stroke:none;stroke-width:3.06426"
       d="m 407.91168,-342.27506 -4.15352,-0.0695 v -11.75439 h 4.15352 v 11.82614"
       id="path12626" />
    <path
       style="fill:#ffffff;fill-opacity:1;fill-rule:evenodd;stroke:none;stroke-width:3.06426"
       d="m 407.91168,-411.35275 -4.22535,-0.0261 v -11.67058 l 4.16551,0.46645 0.0608,11.22767"
       id="path12628" />
    <path
       style="fill:#ffffff;fill-opacity:1;fill-rule:evenodd;stroke:none;stroke-width:3.06426"
       d="m 407.85184,-325.06248 h -4.09368 l -0.11987,-11.7663 h 4.21329 v 11.7663"
       id="path12630" />
    <path
       style="fill:#ffffff;fill-opacity:1;fill-rule:evenodd;stroke:none;stroke-width:3.06426"
       d="m 503.47855,-394.12819 -4.22536,0.0347 0.0261,-11.85012 4.21337,0.53854 -0.009,11.27562"
       id="path12632" />
    <path
       style="fill:#ffffff;fill-opacity:1;fill-rule:evenodd;stroke:none;stroke-width:3.06426"
       d="m 503.47855,-376.75996 h -4.24933 v -11.89807 l 4.26123,-0.0869 -0.009,11.9818"
       id="path12634" />
    <path
       style="fill:#ffffff;fill-opacity:1;fill-rule:evenodd;stroke:none;stroke-width:3.06426"
       d="m 503.47855,-359.57136 -4.26132,0.009 0.0608,-11.89797 4.20139,-0.0348 v 11.92195"
       id="path12636" />
    <path
       style="fill:#ffffff;fill-opacity:1;fill-rule:evenodd;stroke:none;stroke-width:3.06426"
       d="m 503.46656,-342.27506 -4.15352,-0.0695 v -11.75439 h 4.15352 v 11.82614"
       id="path12638" />
    <path
       style="fill:#ffffff;fill-opacity:1;fill-rule:evenodd;stroke:none;stroke-width:3.06426"
       d="m 503.46656,-411.35275 -4.21337,-0.0261 v -11.70584 l 4.1894,0.4786 0.0261,11.25156"
       id="path12640" />
    <path
       style="fill:#ffffff;fill-opacity:1;fill-rule:evenodd;stroke:none;stroke-width:3.06426"
       d="m 503.44259,-325.0505 h -4.11756 l -0.10771,-11.79026 h 4.22536 v 11.79026"
       id="path12642" />
  </g>
</svg>
