<?xml version="1.0" encoding="UTF-8" standalone="no"?>
<svg
   xmlns:dc="http://purl.org/dc/elements/1.1/"
   xmlns:cc="http://creativecommons.org/ns#"
   xmlns:rdf="http://www.w3.org/1999/02/22-rdf-syntax-ns#"
   xmlns:svg="http://www.w3.org/2000/svg"
   xmlns="http://www.w3.org/2000/svg"
   xmlns:sodipodi="http://sodipodi.sourceforge.net/DTD/sodipodi-0.dtd"
   xmlns:inkscape="http://www.inkscape.org/namespaces/inkscape"
   sodipodi:docname="Latvia_road_sign_518A.svg"
   inkscape:version="1.0 (4035a4fb49, 2020-05-01)"
   id="svg3845"
   version="1.1"
   viewBox="0 0 658.63688 194.99999"
   height="194.99998mm"
   width="658.6369mm">
  <defs
     id="defs3839" />
  <sodipodi:namedview
     inkscape:document-rotation="0"
     inkscape:window-maximized="1"
     inkscape:window-y="-9"
     inkscape:window-x="-9"
     inkscape:window-height="1001"
     inkscape:window-width="1920"
     showgrid="false"
     inkscape:current-layer="layer1"
     inkscape:document-units="mm"
     inkscape:cy="890.2211"
     inkscape:cx="1244.6682"
     inkscape:zoom="0.53668923"
     inkscape:pageshadow="2"
     inkscape:pageopacity="0.0"
     borderopacity="1.0"
     bordercolor="#666666"
     pagecolor="#ffffff"
     id="base" />
  <metadata
     id="metadata3842">
    <rdf:RDF>
      <cc:Work
         rdf:about="">
        <dc:format>image/svg+xml</dc:format>
        <dc:type
           rdf:resource="http://purl.org/dc/dcmitype/StillImage" />
        <dc:title></dc:title>
      </cc:Work>
    </rdf:RDF>
  </metadata>
  <g
     transform="translate(-423.57495,382.79829)"
     id="layer1"
     inkscape:groupmode="layer"
     inkscape:label="Layer 1">
    <path
       style="fill:#ffffff;fill-opacity:1;stroke:#000000;stroke-width:2.97994;stroke-linecap:butt;stroke-linejoin:miter;stroke-miterlimit:22.926;stroke-opacity:1"
       d="m 455.32979,-381.30832 h 595.10391 c 16.6457,0 30.2882,13.61923 30.2882,30.28836 v 131.46665 c 0,16.64581 -13.6425,30.26504 -30.2882,30.26504 H 455.32979 c -16.64564,0 -30.26487,-13.61923 -30.26487,-30.26504 v -131.46665 c 0,-16.66913 13.61923,-30.28836 30.26487,-30.28836 z m 0,0"
       id="path14331" />
    <path
       style="fill:#000000;fill-opacity:1;fill-rule:evenodd;stroke:none;stroke-width:5.95987"
       d="m 489.69235,-249.84167 v -68.44569 h 24.46815 c 13.50283,0 24.44484,10.94202 24.44484,24.44501 v 19.55584 c 0,13.50283 -10.94201,24.44484 -24.44484,24.44484 z m 10.40647,-9.77801 h 14.06168 c 7.7524,0 14.06152,-6.28581 14.06152,-14.03837 v -20.78962 c 0,-7.77587 -6.30912,-14.06168 -14.06152,-14.06168 h -14.06168 v 48.88967"
       id="path14309" />
    <path
       style="fill:#000000;fill-opacity:1;fill-rule:evenodd;stroke:none;stroke-width:5.95987"
       d="m 544.72812,-249.84167 25.02685,-68.44569 h 8.56736 l 25.05016,68.44569 h -10.98847 l -5.14512,-15.27216 h -26.37719 l -5.16826,15.27216 z m 19.20664,-24.44484 h 20.20778 l -10.08058,-29.96247 -10.1272,29.96247"
       id="path14311" />
    <path
       style="fill:#000000;fill-opacity:1;fill-rule:evenodd;stroke:none;stroke-width:5.95987"
       d="m 609.49527,-318.28736 h 10.38332 v 44.62931 c 0,7.75256 6.30913,14.03837 14.08483,14.03837 7.75257,0 14.03838,-6.28581 14.03838,-14.03837 v -44.62931 h 10.40646 v 44.62931 c 0,13.47968 -10.94201,24.44501 -24.44484,24.44501 -13.52614,0 -24.46815,-10.96533 -24.46815,-24.44501 v -44.62931"
       id="path14313" />
    <path
       style="fill:#000000;fill-opacity:1;fill-rule:evenodd;stroke:none;stroke-width:5.95987"
       d="m 719.54367,-287.74288 v 14.08483 c 0,13.47968 -10.94201,24.44501 -24.46815,24.44501 -13.50283,0 -24.44484,-10.96533 -24.44484,-24.44501 v -20.78962 c 0,-13.52614 10.94201,-24.46815 24.44484,-24.46815 11.8499,0 22.00042,8.52074 24.07232,20.18447 h -10.68589 c -2.35133,-7.40336 -10.26675,-11.47755 -17.67011,-9.10274 -5.82021,1.8391 -9.77784,7.26347 -9.77784,13.38642 v 20.78962 c 0,7.75256 6.30896,14.03837 14.06152,14.03837 7.77588,0 14.06169,-6.28581 14.06169,-14.03837 v -4.28368 h -14.06169 v -9.80115 h 24.46815"
       id="path14315" />
    <path
       style="fill:#000000;fill-opacity:1;fill-rule:evenodd;stroke:none;stroke-width:5.95987"
       d="m 725.64331,-249.84167 25.05016,-68.44569 h 8.56719 l 25.07347,68.44569 h -11.01178 l -5.16843,-15.27216 h -26.35388 l -5.14495,15.27216 z m 19.25309,-24.44484 h 20.18447 l -10.10372,-29.96247 -10.08075,29.96247"
       id="path14317" />
    <path
       style="fill:#000000;fill-opacity:1;fill-rule:evenodd;stroke:none;stroke-width:5.95987"
       d="m 803.26151,-249.84167 -22.60574,-68.44569 h 10.98847 l 15.90078,52.56822 15.90096,-52.56822 h 10.98847 l -22.60574,68.44569 h -8.5672"
       id="path14319" />
    <path
       style="fill:#000000;fill-opacity:1;fill-rule:evenodd;stroke:none;stroke-width:5.95987"
       d="m 843.00181,-249.84167 v -68.44569 h 26.91257 c 11.47739,0 20.76647,9.28909 20.76647,20.76665 0,11.5007 -9.28908,20.78961 -20.76647,20.78961 h -16.5061 v 26.88943 z m 10.40647,-36.66726 h 15.87747 c 6.07632,0 11.01178,-4.91232 11.01178,-11.01178 0,-6.05301 -4.93546,-10.98864 -11.01178,-10.98864 h -15.87747 v 22.00042"
       id="path14321" />
    <path
       style="fill:#000000;fill-opacity:1;fill-rule:nonzero;stroke:none;stroke-width:5.95987"
       d="m 901.69264,-249.84167 h 10.38315 v -68.44569 h -10.38315 z m 0,0"
       id="path14323" />
    <path
       style="fill:#000000;fill-opacity:1;fill-rule:evenodd;stroke:none;stroke-width:5.95987"
       d="m 927.97657,-249.84167 v -68.44569 h 10.38333 v 58.66768 h 33.61752 v 9.77801 h -44.00085"
       id="path14325" />
    <path
       style="fill:#000000;fill-opacity:1;fill-rule:evenodd;stroke:none;stroke-width:5.95987"
       d="m 978.1002,-258.64184 6.7281,-7.93874 c 7.19387,6.09947 16.9019,8.38103 26.0746,6.07633 4.889,-1.23328 7.869,-6.21604 6.6583,-11.10504 -0.9072,-3.65506 -3.9577,-6.3789 -7.6827,-6.86782 l -11.10491,-1.46641 c -10.73236,-1.4208 -18.25212,-11.24476 -16.83199,-21.97711 1.164,-8.8468 8.17153,-15.76107 17.01833,-16.8553 9.66147,-1.16401 19.41617,1.23327 27.42467,6.75141 l -5.89,8.5672 c -5.9133,-4.09734 -13.1303,-5.84335 -20.2776,-4.98192 -5.02869,0.60481 -8.59066,5.16826 -7.98534,10.19698 0.48824,4.16711 3.74831,7.4265 7.89224,7.98519 l 11.1049,1.46641 c 10.7092,1.4208 18.2521,11.2679 16.8087,21.97711 -1.0238,7.93874 -6.8445,14.45735 -14.6202,16.41302 -12.4088,3.07305 -25.56241,0.0169 -35.3171,-8.24148"
       id="path14327" />
    <path
       style="fill:#000000;fill-opacity:1;fill-rule:evenodd;stroke:none;stroke-width:5.95987"
       d="m 459.91622,-372.53147 h 585.93108 c 13.5728,0 24.6545,11.10487 24.6545,24.65433 v 125.15752 c 0,13.57277 -11.0817,24.67764 -24.6545,24.67764 H 459.91622 c -13.54945,0 -24.65432,-11.10487 -24.65432,-24.67764 v -125.15752 c 0,-13.54946 11.10487,-24.65433 24.65432,-24.65433 z m -1.49006,10.61596 h 588.77134 c 6.8678,0 12.4552,5.07517 12.4552,11.31452 v 130.62853 c 0,6.21604 -5.5874,11.31453 -12.4552,11.31453 H 458.42616 c -6.8445,0 -12.45522,-5.09849 -12.45522,-11.31453 v -130.62853 c 0,-6.23935 5.61072,-11.31452 12.45522,-11.31452"
       id="path14329" />
  </g>
</svg>
