<?xml version="1.0" encoding="UTF-8" standalone="no"?>
<svg
   xmlns:dc="http://purl.org/dc/elements/1.1/"
   xmlns:cc="http://creativecommons.org/ns#"
   xmlns:rdf="http://www.w3.org/1999/02/22-rdf-syntax-ns#"
   xmlns:svg="http://www.w3.org/2000/svg"
   xmlns="http://www.w3.org/2000/svg"
   xmlns:sodipodi="http://sodipodi.sourceforge.net/DTD/sodipodi-0.dtd"
   xmlns:inkscape="http://www.inkscape.org/namespaces/inkscape"
   width="195mm"
   height="195.00009mm"
   viewBox="0 0 195 195.00009"
   version="1.1"
   id="svg3845"
   inkscape:version="1.0 (4035a4fb49, 2020-05-01)"
   sodipodi:docname="Latvia_road_sign_507.svg">
  <defs
     id="defs3839" />
  <sodipodi:namedview
     id="base"
     pagecolor="#ffffff"
     bordercolor="#666666"
     borderopacity="1.0"
     inkscape:pageopacity="0.0"
     inkscape:pageshadow="2"
     inkscape:zoom="0.49497475"
     inkscape:cx="-170.66015"
     inkscape:cy="547.72462"
     inkscape:document-units="mm"
     inkscape:current-layer="layer1"
     showgrid="false"
     inkscape:window-width="1920"
     inkscape:window-height="1001"
     inkscape:window-x="-9"
     inkscape:window-y="-9"
     inkscape:window-maximized="1"
     inkscape:document-rotation="0" />
  <metadata
     id="metadata3842">
    <rdf:RDF>
      <cc:Work
         rdf:about="">
        <dc:format>image/svg+xml</dc:format>
        <dc:type
           rdf:resource="http://purl.org/dc/dcmitype/StillImage" />
        <dc:title></dc:title>
      </cc:Work>
    </rdf:RDF>
  </metadata>
  <g
     inkscape:label="Layer 1"
     inkscape:groupmode="layer"
     id="layer1"
     transform="translate(-247.47203,425.06135)">
    <path
       style="fill:#ffffff;fill-opacity:1;stroke:#000000;stroke-width:1.53223;stroke-linecap:butt;stroke-linejoin:miter;stroke-miterlimit:22.926;stroke-opacity:1"
       d="m 262.25571,-424.29523 h 165.44472 c 7.70906,0 14.00549,6.30851 14.00549,14.00557 v 165.45671 c 0,7.69707 -6.29643,14.00558 -14.00549,14.00558 H 262.25571 c -7.70905,0 -14.01756,-6.30851 -14.01756,-14.00558 v -165.45671 c 0,-7.69706 6.30851,-14.00557 14.01756,-14.00557 z m 0,0"
       id="path1696" />
    <path
       style="fill:#263894;fill-opacity:1;fill-rule:evenodd;stroke:none;stroke-width:3.06445"
       d="m 341.14144,-236.66897 0.0608,-181.68876 -80.38209,0.009 c -3.22006,0.0608 -6.65563,2.35816 -6.65563,6.99075 v 161.09948 l 13.40698,13.6105 73.57089,-0.0261"
       id="path1684" />
    <path
       style="fill:#263894;fill-opacity:1;fill-rule:evenodd;stroke:none;stroke-width:3.06445"
       d="m 348.62308,-236.74081 0.0608,-181.60502 72.80482,-0.009 13.96961,14.53224 0.29969,160.2495 c 0,3.07647 -2.5617,6.93099 -6.77533,6.93099 l -80.3582,-0.0955"
       id="path1686" />
    <path
       style="fill:#ffffff;fill-opacity:1;fill-rule:evenodd;stroke:none;stroke-width:3.06445"
       d="m 281.87538,-351.07137 v 7.91249 l -0.5629,0.90976 h -4.24951 l -0.52641,-0.93365 -0.0261,-7.92457 h -3.42358 v -44.7458 c 0.0348,-2.0709 1.67583,-3.38771 3.45946,-3.38771 h 43.83614 c 2.10677,-0.0261 3.44747,1.84348 3.44747,3.30388 v 44.82963 h -3.48344 v 7.87662 l -0.63412,0.96961 -4.09393,0.009 -0.59851,-0.90975 -0.0261,-7.94846 z m -4.82413,-26.75419 0.0261,-18.08743 42.79469,-0.0261 -0.0261,18.1114 z m 2.8011,15.46597 c 1.83149,0 3.32785,1.48429 3.32785,3.31587 0,1.83141 -1.49636,3.32777 -3.32785,3.32777 -1.8315,0 -3.31587,-1.49636 -3.31587,-3.32777 0,-1.83158 1.48437,-3.31587 3.31587,-3.31587 z m 37.16852,0 c 1.83149,0 3.32777,1.48429 3.32777,3.31587 0,1.83141 -1.49628,3.32777 -3.32777,3.32777 -1.83149,0 -3.32785,-1.49636 -3.32785,-3.32777 0,-1.83158 1.49636,-3.31587 3.32785,-3.31587"
       id="path1688" />
    <path
       style="fill:#ffffff;fill-opacity:1;fill-rule:evenodd;stroke:none;stroke-width:3.06445"
       d="m 306.11574,-331.03275 0.0347,45.44022 13.79006,-4.76428 -21.15199,35.92355 -21.72653,-35.83981 14.11329,4.54885 -0.0348,-45.29654 14.97518,-0.009"
       id="path1690" />
    <path
       style="fill:#ffffff;fill-opacity:1;fill-rule:evenodd;stroke:none;stroke-width:3.06445"
       d="m 383.76857,-252.54191 -0.0521,-118.79559 -13.89777,4.65656 21.1519,-35.92364 21.72653,35.83982 -14.00557,-4.54877 0.0348,118.85544 -14.96311,-0.0869"
       id="path1692" />
    <path
       style="fill:#eb1938;fill-opacity:1;fill-rule:evenodd;stroke:none;stroke-width:3.06445"
       d="m 260.96288,-236.78867 c -2.88493,-0.0348 -6.38035,-2.28642 -6.79931,-6.26065 l -0.0347,-8.91806 164.81034,-166.51014 h 10.29463 c 4.15378,0.0869 6.61975,3.45955 6.58387,7.18238 l -0.0347,9.80384 -166.47427,164.70263 h -8.34352"
       id="path1694" />
  </g>
</svg>
