<?xml version="1.0" encoding="UTF-8" standalone="no"?>
<svg
   xmlns:dc="http://purl.org/dc/elements/1.1/"
   xmlns:cc="http://creativecommons.org/ns#"
   xmlns:rdf="http://www.w3.org/1999/02/22-rdf-syntax-ns#"
   xmlns:svg="http://www.w3.org/2000/svg"
   xmlns="http://www.w3.org/2000/svg"
   xmlns:sodipodi="http://sodipodi.sourceforge.net/DTD/sodipodi-0.dtd"
   xmlns:inkscape="http://www.inkscape.org/namespaces/inkscape"
   sodipodi:docname="Latvia_road_sign_519B.svg"
   inkscape:version="1.0 (4035a4fb49, 2020-05-01)"
   id="svg3845"
   version="1.1"
   viewBox="0 0 377.10283 195.00001"
   height="195mm"
   width="377.10284mm">
  <defs
     id="defs3839" />
  <sodipodi:namedview
     inkscape:document-rotation="0"
     inkscape:window-maximized="1"
     inkscape:window-y="-9"
     inkscape:window-x="-9"
     inkscape:window-height="1001"
     inkscape:window-width="1920"
     showgrid="false"
     inkscape:current-layer="layer1"
     inkscape:document-units="mm"
     inkscape:cy="190.79399"
     inkscape:cx="-1101.2484"
     inkscape:zoom="0.26834462"
     inkscape:pageshadow="2"
     inkscape:pageopacity="0.0"
     borderopacity="1.0"
     bordercolor="#666666"
     pagecolor="#ffffff"
     id="base" />
  <metadata
     id="metadata3842">
    <rdf:RDF>
      <cc:Work
         rdf:about="">
        <dc:format>image/svg+xml</dc:format>
        <dc:type
           rdf:resource="http://purl.org/dc/dcmitype/StillImage" />
        <dc:title></dc:title>
      </cc:Work>
    </rdf:RDF>
  </metadata>
  <g
     transform="translate(-1078.2706,206.81773)"
     id="layer1"
     inkscape:groupmode="layer"
     inkscape:label="Layer 1">
    <path
       style="fill:#ffffff;fill-opacity:1;stroke:#000000;stroke-width:2.97994;stroke-linecap:butt;stroke-linejoin:miter;stroke-miterlimit:22.926;stroke-opacity:1"
       d="m 1104.6491,-205.32776 h 324.3476 c 13.6893,0 24.8868,11.29121 24.8868,25.07347 v 141.873282 c 0,13.782257 -11.1975,25.073301 -24.8868,25.073301 h -324.3476 c -13.6894,0 -24.8885,-11.291044 -24.8885,-25.073301 V -180.25429 c 0,-13.78226 11.1991,-25.07347 24.8885,-25.07347 z m 0,0"
       id="path14521" />
    <path
       style="fill:#000000;fill-opacity:1;fill-rule:evenodd;stroke:none;stroke-width:5.95987"
       d="m 1137.5437,-48.904043 v -75.895497 l 14.7604,0.11825 0.1689,9.3124 h 32.2206 l -0.1689,31.941289 8.148,-3.748307 9.1735,-55.990292 8.6836,37.87789 5.0277,-4.7726 h 23.1653 v -5.30798 l 10.4761,-49.4019 9.9405,49.65802 v 5.05186 h 5.9603 l 13.4562,16.413017 v -16.413017 l 12.549,-62.60199 14.3397,62.60199 -0.1689,8.26463 h 29.2184 l 7.8913,18.368679 h 6.217 v -61.554549 l 16.0394,-3.88786 16.6694,4.26037 0.169,29.24075 h 14.6202 v 66.350304 l -258.5567,0.118259"
       id="path14523" />
    <path
       style="fill:#eb1938;fill-opacity:1;fill-rule:evenodd;stroke:none;stroke-width:5.95987"
       d="m 1106.4635,-24.366118 334.2898,-134.306892 c 1.9783,-15.31879 -1.3684,-33.73393 -16.3197,-34.87462 l -334.7088,132.909916 c -0.3717,19.090402 -0.3041,32.942432 16.7387,36.271596"
       id="path14525" />
    <path
       style="fill:#000000;fill-opacity:1;fill-rule:evenodd;stroke:none;stroke-width:5.95987"
       d="m 1089.5626,-182.93168 c 0,-6.98421 5.5176,-12.43191 11.733,-12.36213 h 330.3315 c 6.9841,0.0676 12.5253,6.37906 12.478,12.57162 l -0.1689,147.251202 c 0,6.192555 -5.6562,12.036076 -12.6402,12.129163 h -329.5629 c -6.9621,-0.06758 -12.2466,-5.470836 -12.1773,-11.686874 z m 7.822,-0.95452 c 0.017,-2.1883 1.5373,-3.60842 3.7488,-3.58528 l 330.889,-0.0507 c 2.3517,0.0507 4.2607,2.09521 4.2607,4.0742 l -0.017,148.438351 c 0,2.234929 -1.9546,3.934481 -4.237,3.934481 h -331.0766 c -2.2807,-0.05068 -3.5157,-1.74618 -3.5613,-3.445564 V -183.89025"
       id="path14527" />
  </g>
</svg>
