<?xml version="1.0" encoding="UTF-8" standalone="no"?>
<svg
   xmlns:dc="http://purl.org/dc/elements/1.1/"
   xmlns:cc="http://creativecommons.org/ns#"
   xmlns:rdf="http://www.w3.org/1999/02/22-rdf-syntax-ns#"
   xmlns:svg="http://www.w3.org/2000/svg"
   xmlns="http://www.w3.org/2000/svg"
   xmlns:sodipodi="http://sodipodi.sourceforge.net/DTD/sodipodi-0.dtd"
   xmlns:inkscape="http://www.inkscape.org/namespaces/inkscape"
   sodipodi:docname="Latvia_road_sign_513.svg"
   inkscape:version="1.0 (4035a4fb49, 2020-05-01)"
   id="svg3845"
   version="1.1"
   viewBox="0 0 195.01199 195"
   height="195mm"
   width="195.01199mm">
  <defs
     id="defs3839" />
  <sodipodi:namedview
     inkscape:document-rotation="0"
     inkscape:window-maximized="1"
     inkscape:window-y="-9"
     inkscape:window-x="-9"
     inkscape:window-height="1001"
     inkscape:window-width="1920"
     showgrid="false"
     inkscape:current-layer="layer1"
     inkscape:document-units="mm"
     inkscape:cy="574.62114"
     inkscape:cx="787.3964"
     inkscape:zoom="0.49497475"
     inkscape:pageshadow="2"
     inkscape:pageopacity="0.0"
     borderopacity="1.0"
     bordercolor="#666666"
     pagecolor="#ffffff"
     id="base" />
  <metadata
     id="metadata3842">
    <rdf:RDF>
      <cc:Work
         rdf:about="">
        <dc:format>image/svg+xml</dc:format>
        <dc:type
           rdf:resource="http://purl.org/dc/dcmitype/StillImage" />
        <dc:title></dc:title>
      </cc:Work>
    </rdf:RDF>
  </metadata>
  <g
     transform="translate(-104.30648,509.28838)"
     id="layer1"
     inkscape:groupmode="layer"
     inkscape:label="Layer 1">
    <path
       style="fill:#ffffff;fill-opacity:1;stroke:#000000;stroke-width:1.53223;stroke-linecap:butt;stroke-linejoin:miter;stroke-miterlimit:22.926;stroke-opacity:1"
       d="M 119.09015,-508.52226 H 284.5348 c 7.70906,0 14.01756,6.3085 14.01756,14.00557 v 165.45663 c 0,7.69707 -6.3085,14.00557 -14.01756,14.00557 H 119.09015 c -7.70905,0 -14.01755,-6.3085 -14.01755,-14.00557 v -165.45663 c 0,-7.69707 6.3085,-14.00557 14.01755,-14.00557 z m 0,0"
       id="path12614" />
    <path
       style="fill:#263894;fill-opacity:1;fill-rule:evenodd;stroke:none;stroke-width:3.06445"
       d="M 285.48052,-502.17788 H 118.09658 c -3.19617,0.0695 -6.61966,2.35816 -6.61966,6.96678 v 167.12056 c 0,2.87294 2.43,6.69159 7.08656,6.69159 h 166.8452 c 4.18966,0 6.73945,-3.84254 6.72746,-6.89503 l 0.009,-166.92902 c 0.0695,-4.65657 -3.45946,-6.82328 -6.66761,-6.95488"
       id="path12586" />
    <path
       style="fill:#ffffff;fill-opacity:1;fill-rule:evenodd;stroke:none;stroke-width:3.06445"
       d="m 253.97405,-329.50299 h -4.10591 l 0.0521,-11.80298 h 4.05796 v 11.80298"
       id="path12588" />
    <path
       style="fill:#ffffff;fill-opacity:1;fill-rule:evenodd;stroke:none;stroke-width:3.06445"
       d="m 254.01002,-415.82254 -4.21364,-0.0261 v -11.70717 l 4.33334,0.0608 -0.11988,11.67129"
       id="path12590" />
    <path
       style="fill:#ffffff;fill-opacity:1;fill-rule:evenodd;stroke:none;stroke-width:3.06445"
       d="m 254.01002,-346.7406 -4.16577,-0.0695 v -11.7671 h 4.16577 v 11.83894"
       id="path12592" />
    <path
       style="fill:#ffffff;fill-opacity:1;fill-rule:evenodd;stroke:none;stroke-width:3.06445"
       d="m 254.02192,-364.03805 -4.11782,0.009 -0.0956,-11.91069 4.21363,-0.0261 v 11.92268"
       id="path12594" />
    <path
       style="fill:#ffffff;fill-opacity:1;fill-rule:evenodd;stroke:none;stroke-width:3.06445"
       d="m 254.02192,-381.22771 h -4.24951 v -11.89871 l 4.26149,-0.0869 -0.009,11.98253"
       id="path12596" />
    <path
       style="fill:#ffffff;fill-opacity:1;fill-rule:evenodd;stroke:none;stroke-width:3.06445"
       d="m 254.02192,-398.60891 -4.23752,0.0348 0.0261,-11.83886 4.22562,0.52641 -0.009,11.27623"
       id="path12598" />
    <path
       style="fill:#ffffff;fill-opacity:1;fill-rule:evenodd;stroke:none;stroke-width:3.06445"
       d="m 210.66469,-445.78478 -0.0955,115.92269 -17.22553,0.51425 -0.0521,-116.64082 -14.90333,4.60862 23.6897,-43.54877 23.85726,43.70434 -15.27442,-4.56075"
       id="path12600" />
    <path
       style="fill:#ffffff;fill-opacity:1;fill-rule:evenodd;stroke:none;stroke-width:3.06445"
       d="m 154.19967,-329.52696 h -4.39319 l 0.0348,-11.76702 h 4.35731 v 11.76702"
       id="path12602" />
    <path
       style="fill:#ffffff;fill-opacity:1;fill-rule:evenodd;stroke:none;stroke-width:3.06445"
       d="m 154.11593,-415.81055 -4.22562,-0.0348 v -11.68319 l 4.16577,0.49079 0.0608,11.22836"
       id="path12604" />
    <path
       style="fill:#ffffff;fill-opacity:1;fill-rule:evenodd;stroke:none;stroke-width:3.06445"
       d="m 154.27151,-346.7406 -4.30936,-0.0695 v -11.7671 h 4.30936 v 11.83894"
       id="path12606" />
    <path
       style="fill:#ffffff;fill-opacity:1;fill-rule:evenodd;stroke:none;stroke-width:3.06445"
       d="m 154.1518,-364.01408 h -4.30935 l 0.0521,-11.89871 4.38119,-0.0434 -0.11987,11.94657"
       id="path12608" />
    <path
       style="fill:#ffffff;fill-opacity:1;fill-rule:evenodd;stroke:none;stroke-width:3.06445"
       d="m 154.1518,-381.21572 -4.30935,0.0347 v -11.91069 l 4.42906,0.0348 -0.11988,11.83894"
       id="path12610" />
    <path
       style="fill:#ffffff;fill-opacity:1;fill-rule:evenodd;stroke:none;stroke-width:3.06445"
       d="m 154.1518,-398.60891 -4.26149,0.0348 v -11.83886 l 4.3812,0.52641 -0.11988,11.27623"
       id="path12612" />
  </g>
</svg>
