<?xml version="1.0" encoding="UTF-8" standalone="no"?>
<svg
   xmlns:dc="http://purl.org/dc/elements/1.1/"
   xmlns:cc="http://creativecommons.org/ns#"
   xmlns:rdf="http://www.w3.org/1999/02/22-rdf-syntax-ns#"
   xmlns:svg="http://www.w3.org/2000/svg"
   xmlns="http://www.w3.org/2000/svg"
   xmlns:sodipodi="http://sodipodi.sourceforge.net/DTD/sodipodi-0.dtd"
   xmlns:inkscape="http://www.inkscape.org/namespaces/inkscape"
   sodipodi:docname="Latvia_road_sign_534.svg"
   inkscape:version="1.0 (4035a4fb49, 2020-05-01)"
   id="svg6774"
   version="1.1"
   viewBox="0 0 234.19766 158.74999"
   height="158.75mm"
   width="234.19768mm">
  <defs
     id="defs6768" />
  <sodipodi:namedview
     inkscape:window-maximized="1"
     inkscape:window-y="-9"
     inkscape:window-x="-9"
     inkscape:window-height="1001"
     inkscape:window-width="1920"
     fit-margin-bottom="0"
     fit-margin-right="0"
     fit-margin-left="0"
     fit-margin-top="0"
     showgrid="false"
     inkscape:document-rotation="0"
     inkscape:current-layer="layer1"
     inkscape:document-units="mm"
     inkscape:cy="433.29065"
     inkscape:cx="290.02515"
     inkscape:zoom="0.40983509"
     inkscape:pageshadow="2"
     inkscape:pageopacity="0.0"
     borderopacity="1.0"
     bordercolor="#666666"
     pagecolor="#ffffff"
     id="base" />
  <metadata
     id="metadata6771">
    <rdf:RDF>
      <cc:Work
         rdf:about="">
        <dc:format>image/svg+xml</dc:format>
        <dc:type
           rdf:resource="http://purl.org/dc/dcmitype/StillImage" />
        <dc:title></dc:title>
      </cc:Work>
    </rdf:RDF>
  </metadata>
  <g
     transform="translate(284.87647,240.81385)"
     id="layer1"
     inkscape:groupmode="layer"
     inkscape:label="Layer 1">
    <g
       id="g2879"
       transform="matrix(2.4947822,0,0,-2.4947822,-683.92467,690.83138)"
       style="opacity:1;stroke-width:0.141406">
      <path
         style="color:#000000;font-style:normal;font-variant:normal;font-weight:normal;font-stretch:normal;font-size:medium;line-height:normal;font-family:sans-serif;font-variant-ligatures:normal;font-variant-position:normal;font-variant-caps:normal;font-variant-numeric:normal;font-variant-alternates:normal;font-variant-east-asian:normal;font-feature-settings:normal;font-variation-settings:normal;text-indent:0;text-align:start;text-decoration:none;text-decoration-line:none;text-decoration-style:solid;text-decoration-color:#000000;letter-spacing:normal;word-spacing:normal;text-transform:none;writing-mode:lr-tb;direction:ltr;text-orientation:mixed;dominant-baseline:auto;baseline-shift:baseline;text-anchor:start;white-space:normal;shape-padding:0;shape-margin:0;inline-size:0;clip-rule:nonzero;display:inline;overflow:visible;visibility:visible;isolation:auto;mix-blend-mode:normal;color-interpolation:sRGB;color-interpolation-filters:linearRGB;solid-color:#000000;solid-opacity:1;vector-effect:none;fill:#ffffff;fill-opacity:1;fill-rule:nonzero;stroke:none;stroke-width:0.0707034;stroke-linecap:butt;stroke-linejoin:miter;stroke-miterlimit:22.926;stroke-dasharray:none;stroke-dashoffset:0;stroke-opacity:1;color-rendering:auto;image-rendering:auto;shape-rendering:auto;text-rendering:auto;enable-background:accumulate;stop-color:#000000;stop-opacity:1"
         d="m 164.62109,373.1875 h 84.53907 c 2.42968,0 4.41796,-1.98828 4.41796,-4.42188 v -54.29296 c 0,-2.42969 -1.98828,-4.41797 -4.41796,-4.41797 h -84.53907 c -2.42968,0 -4.41797,1.98828 -4.41797,4.41797 v 54.29296 c 0,2.4336 1.98829,4.42188 4.41797,4.42188 z m 0,0"
         id="path2881" />
      <path
         style="color:#000000;font-style:normal;font-variant:normal;font-weight:normal;font-stretch:normal;font-size:medium;line-height:normal;font-family:sans-serif;font-variant-ligatures:normal;font-variant-position:normal;font-variant-caps:normal;font-variant-numeric:normal;font-variant-alternates:normal;font-variant-east-asian:normal;font-feature-settings:normal;font-variation-settings:normal;text-indent:0;text-align:start;text-decoration:none;text-decoration-line:none;text-decoration-style:solid;text-decoration-color:#000000;letter-spacing:normal;word-spacing:normal;text-transform:none;writing-mode:lr-tb;direction:ltr;text-orientation:mixed;dominant-baseline:auto;baseline-shift:baseline;text-anchor:start;white-space:normal;shape-padding:0;shape-margin:0;inline-size:0;clip-rule:nonzero;display:inline;overflow:visible;visibility:visible;isolation:auto;mix-blend-mode:normal;color-interpolation:sRGB;color-interpolation-filters:linearRGB;solid-color:#000000;solid-opacity:1;vector-effect:none;fill:#000000;fill-opacity:1;fill-rule:nonzero;stroke:none;stroke-width:0.0707034;stroke-linecap:butt;stroke-linejoin:miter;stroke-miterlimit:22.926;stroke-dasharray:none;stroke-dashoffset:0;stroke-opacity:1;color-rendering:auto;image-rendering:auto;shape-rendering:auto;text-rendering:auto;enable-background:accumulate;stop-color:#000000;stop-opacity:1"
         d="m 164.62109,309.80469 c -2.56607,0 -4.66796,2.10189 -4.66797,4.66797 v 54.29296 c 0,2.56977 2.1019,4.67188 4.66797,4.67188 h 84.53907 c 2.56607,0 4.66796,-2.10211 4.66796,-4.67188 v -54.29296 c 0,-2.56608 -2.10189,-4.66797 -4.66796,-4.66797 z m 0,0.5 h 84.53907 c 2.2933,0 4.16796,1.87467 4.16796,4.16797 v 54.29296 c 0,2.29743 -1.87466,4.17188 -4.16796,4.17188 h -84.53907 c -2.2933,0 -4.16796,-1.87445 -4.16797,-4.17188 v -54.29296 c 0,-2.2933 1.87467,-4.16797 4.16797,-4.16797 z"
         id="path2883" />
    </g>
    <path
       style="fill:#263894;fill-opacity:1;fill-rule:evenodd;stroke:none;stroke-width:0.352778"
       d="m -273.45509,-234.55736 h 211.354801 c 2.84563,0 5.174743,2.2999 5.174743,5.11624 v 136.014373 c 0,2.806596 -2.329113,5.116249 -5.174743,5.116249 H -273.45509 c -2.84563,0 -5.16498,-2.309653 -5.16498,-5.116249 V -229.44112 c 0,-2.81634 2.31935,-5.11624 5.16498,-5.11624"
       id="path2226" />
    <path
       style="fill:#ffffff;fill-opacity:1;fill-rule:evenodd;stroke:none;stroke-width:0.352778"
       d="m -233.17802,-210.42816 c 1.47157,-3.28415 3.53754,-6.48055 5.75944,-9.30667 8.20551,-0.40946 15.85552,-0.35076 24.07079,0 2.46552,2.60195 4.29762,6.23693 5.70094,9.51133 -5.97384,-0.71143 -12.61032,-0.88681 -17.83379,-0.83808 -4.68748,-0.0496 -11.58711,0.17538 -17.69738,0.63363 z m -3.74212,10.29099 v -4.66797 c 1.04273,-4.42434 2.09517,-7.61105 4.50228,-11.08035 l 3.60571,-5.36964 c 9.07286,-0.36066 17.87283,-0.32177 27.00411,0.10755 l 3.50826,5.2429 c 2.27069,3.92733 3.09902,6.11026 4.38537,11.1778 v 4.59004 z m 37.28528,13.35097 -1.12069,-1.53975 -0.007,-3.79086 c -4.85311,0.27297 -9.2969,0.48725 -14.6666,0.52615 -5.71071,-0.0425 -9.12153,-0.17539 -14.72502,-0.54595 v 3.81037 l -1.15972,1.53976 h -4.4633 l -1.1402,-1.53976 v -9.70622 h 43.00574 v 9.70622 l -1.12066,1.53976 z m 0.66262,-20.63064 c 1.48127,0 2.69938,1.16939 2.69938,2.60195 0,1.44228 -1.21811,2.61175 -2.69938,2.61175 -1.49103,0 -2.69946,-1.16947 -2.69946,-2.61175 0,-1.43256 1.20843,-2.60195 2.69946,-2.60195 z m -32.91941,0 c 1.48127,0 2.69939,1.16939 2.69939,2.60195 0,1.44228 -1.21812,2.61175 -2.69939,2.61175 -1.49102,0 -2.69946,-1.16947 -2.69946,-2.61175 0,-1.43256 1.20844,-2.60195 2.69946,-2.60195"
       id="path2228" />
    <path
       style="fill:#ffffff;fill-opacity:1;fill-rule:evenodd;stroke:none;stroke-width:0.352778"
       d="m -172.66979,-169.41045 c -2.49473,-6.88986 -3.8299,-14.15008 -4.82392,-21.40055 h 3.52785 c 0.30198,2.06603 0.60395,4.132 0.90626,6.18828 0.27298,1.40333 0.54595,2.8066 0.81863,4.20992 0.33167,1.37406 0.67255,2.75795 1.01348,4.14175 l 1.20843,4.07352 0.28287,0.82832 -2.93332,1.95876"
       id="path2230" />
    <path
       style="fill:#ffffff;fill-opacity:1;fill-rule:evenodd;stroke:none;stroke-width:0.352778"
       d="m -149.30067,-184.99307 v -21.93652 l 38.61066,-11.31428 7.86436,2.27069 -46.47502,30.98011"
       id="path2232" />
    <path
       style="fill:#ffffff;fill-opacity:1;fill-rule:evenodd;stroke:none;stroke-width:0.352778"
       d="m -101.54897,-194.34846 0.0707,37.21702 h -47.81988 v -5.38908 l 55.070385,-36.71034 h 7.874131 l 0.03541,42.15792 14.725095,-0.0565 -0.07775,-49.82744 -7.649936,-2.21221 -22.228935,14.82255"
       id="path2234" />
    <path
       style="fill:#263894;fill-opacity:1;fill-rule:evenodd;stroke:none;stroke-width:0.352778"
       d="m -110.73873,-188.21874 v 9.33594 l -14.11112,0.0565 14.11112,-9.39443"
       id="path2236" />
    <path
       style="fill:#ffffff;fill-opacity:1;fill-rule:evenodd;stroke:none;stroke-width:0.352778"
       d="m -70.042579,-215.35928 3.849326,1.09147 0.04957,4.35617 -8.439452,-2.41679 4.541325,-3.03085"
       id="path2238" />
    <path
       style="fill:#ffffff;fill-opacity:1;fill-rule:evenodd;stroke:none;stroke-width:0.352778"
       d="m -98.177132,-219.07219 -12.386218,-3.54723 -44.30186,12.80523 v -4.33664 l 44.15568,-12.75652 17.034687,4.83366 -4.502289,3.0015"
       id="path2240" />
    <path
       style="fill:#ffffff;fill-opacity:1;fill-rule:evenodd;stroke:none;stroke-width:0.352778"
       d="m -205.80362,-115.19764 c 2.45583,0 4.46331,2.00755 4.46331,4.45362 0,2.46553 -2.00748,4.46331 -4.46331,4.46331 -2.45577,0 -4.45355,-1.99778 -4.45355,-4.46331 0,-2.44607 1.99778,-4.45362 4.45355,-4.45362"
       id="path2242" />
    <path
       style="fill:#eb1938;fill-opacity:1;fill-rule:evenodd;stroke:none;stroke-width:0.352778"
       d="M -278.62007,-98.776869 -74.944488,-234.55736 h 8.410169 c 5.281877,0 9.608773,-0.1167 9.608773,5.11624 v 5.34043 L -260.61082,-88.310498 h -8.41017 c -5.28195,0 -9.59908,0.107547 -9.59908,-5.116249 v -5.350122"
       id="path2244" />
    <path
       style="fill:#ffffff;fill-opacity:1;fill-rule:evenodd;stroke:none;stroke-width:0.352778"
       d="m -172.34817,-141.70468 c 2.26086,0 4.10271,1.84186 4.10271,4.10272 0,2.25117 -1.84185,4.09303 -4.10271,4.09303 -2.25118,0 -4.10279,-1.84186 -4.10279,-4.09303 0,-2.26086 1.85161,-4.10272 4.10279,-4.10272"
       id="path2246" />
    <path
       style="fill:#ffffff;fill-opacity:1;fill-rule:evenodd;stroke:none;stroke-width:0.352778"
       d="m -182.58067,-120.22613 9.8427,-11.19732 5.34036,-2.57273 8.11781,4.14168 2.24143,7.35768 c -0.0977,1.72496 -1.58855,2.28038 -2.71898,0.91608 l -1.90027,-6.12003 -4.16128,-2.11469 1.99779,6.30518 -6.45134,4.05399 -3.11847,-6.46111 -6.71447,7.65002 c -1.49103,0.82833 -2.94309,0.30197 -2.47528,-1.95875"
       id="path2248" />
    <path
       style="fill:#ffffff;fill-opacity:1;fill-rule:evenodd;stroke:none;stroke-width:0.352778"
       d="m -182.21039,-100.27765 4.48283,-10.95368 6.24668,-4.48276 -0.29207,-0.75039 8.58554,-5.48661 2.73843,7.82547 -1.02322,0.60393 1.00377,2.73835 6.69497,-4.3269 c 1.39358,-0.90625 3.63499,1.13051 2.27062,2.80667 l -9.23848,6.00306 c -1.02323,0.19447 -1.86131,0.0567 -2.38759,-0.93553 l -1.53975,-4.23921 -1.15971,0.79912 -0.87705,-2.50448 -3.18671,1.99771 -0.33167,-0.82831 -4.2684,3.08925 -4.00527,9.871917 c -0.7407,1.832097 -4.34642,0.98425 -3.713,-1.227887"
       id="path2250" />
    <path
       style="fill:#ffffff;fill-opacity:1;fill-rule:evenodd;stroke:none;stroke-width:0.352778"
       d="m -240.26278,-175.74483 c -2.2999,0 -4.19048,1.88082 -4.19048,4.19049 0,2.29981 1.89058,4.18071 4.19048,4.18071 2.2999,0 4.18073,-1.8809 4.18073,-4.18071 0,-2.30967 -1.88083,-4.19049 -4.18073,-4.19049"
       id="path2252" />
    <path
       style="fill:#ffffff;fill-opacity:1;fill-rule:evenodd;stroke:none;stroke-width:0.352778"
       d="m -252.02527,-170.16078 c 3.82989,-1.23764 4.01502,-3.56681 6.79241,-2.86515 l 0.46745,-1.14988 c -1.1597,0.19449 -2.60201,-0.40945 -3.76164,-0.61382 -1.4911,0 -3.13805,0.0975 -4.44387,1.81265 -1.14995,1.64688 -1.10122,1.91979 -3.22567,2.00748 1.18891,1.05249 2.50449,1.05249 4.17096,0.80887"
       id="path2254" />
    <path
       style="fill:#ffffff;fill-opacity:1;fill-rule:evenodd;stroke:none;stroke-width:0.352778"
       d="m -233.13898,-151.4889 -6.25651,-12.70778 -6.73393,-4.20023 -10.81721,1.84184 -4.92135,6.12004 c -0.70153,1.50078 0.8576,3.04052 2.44607,1.96851 l 4.31713,-5.34036 5.56455,-0.93553 -3.06973,6.82162 6.08098,2.92363 5.25274,-6.40268 5.30139,11.21675 c 1.02323,1.19868 3.11847,0.38966 2.83587,-1.30581"
       id="path2256" />
    <path
       style="fill:#ffffff;fill-opacity:1;fill-rule:evenodd;stroke:none;stroke-width:0.352778"
       d="m -242.31906,-129.89346 2.68002,-13.47769 -7.42592,-10.24226 -6.18819,-2.9723 -4.67774,10.46645 1.89059,0.37976 -0.8284,1.84185 -9.23848,6.237 c -0.93554,1.6372 0.42854,3.59595 2.31942,2.87483 l 10.07656,-6.78272 1.40327,-3.22568 8.71227,2.16349 -2.38759,11.6748 c -0.12658,2.04644 2.45583,2.82611 3.66419,1.06219"
       id="path2258" />
    <path
       style="fill:#ffffff;fill-opacity:1;fill-rule:evenodd;stroke:none;stroke-width:0.352778"
       d="m -161.90132,-154.12011 c 18.58419,31.71098 53.23831,49.50581 89.178723,52.60482 v 3.449777 c -37.129333,-3.167177 -72.767713,-21.459027 -92.034043,-54.144577 l 2.85532,-1.91002"
       id="path2260" />
  </g>
</svg>
