<?xml version="1.0" encoding="UTF-8" standalone="no"?>
<svg
   xmlns:dc="http://purl.org/dc/elements/1.1/"
   xmlns:cc="http://creativecommons.org/ns#"
   xmlns:rdf="http://www.w3.org/1999/02/22-rdf-syntax-ns#"
   xmlns:svg="http://www.w3.org/2000/svg"
   xmlns="http://www.w3.org/2000/svg"
   xmlns:sodipodi="http://sodipodi.sourceforge.net/DTD/sodipodi-0.dtd"
   xmlns:inkscape="http://www.inkscape.org/namespaces/inkscape"
   sodipodi:docname="Latvia_road_sign_504.svg"
   inkscape:version="1.0 (4035a4fb49, 2020-05-01)"
   id="svg3845"
   version="1.1"
   viewBox="0 0 195 67.978753"
   height="67.978752mm"
   width="195mm">
  <defs
     id="defs3839" />
  <sodipodi:namedview
     inkscape:document-rotation="0"
     inkscape:window-maximized="1"
     inkscape:window-y="-9"
     inkscape:window-x="-9"
     inkscape:window-height="1001"
     inkscape:window-width="1920"
     showgrid="false"
     inkscape:current-layer="layer1"
     inkscape:document-units="mm"
     inkscape:cy="931.90425"
     inkscape:cx="1058.674"
     inkscape:zoom="0.49497475"
     inkscape:pageshadow="2"
     inkscape:pageopacity="0.0"
     borderopacity="1.0"
     bordercolor="#666666"
     pagecolor="#ffffff"
     id="base" />
  <metadata
     id="metadata3842">
    <rdf:RDF>
      <cc:Work
         rdf:about="">
        <dc:format>image/svg+xml</dc:format>
        <dc:type
           rdf:resource="http://purl.org/dc/dcmitype/StillImage" />
        <dc:title></dc:title>
      </cc:Work>
    </rdf:RDF>
  </metadata>
  <g
     transform="translate(125.67803,395.753)"
     id="layer1"
     inkscape:groupmode="layer"
     inkscape:label="Layer 1">
    <path
       id="path1585"
       d="M -112.55835,-395.2535 H 56.210105 c 6.93057,0 12.61237,5.53346 12.61237,12.29231 v 42.39507 c 0,6.76666 -5.6818,12.29237 -12.61237,12.29237 H -112.55835 c -6.93839,0 -12.62018,-5.52571 -12.62018,-12.29237 v -42.39507 c 0,-6.75885 5.68179,-12.29231 12.62018,-12.29231 z m 0,0"
       style="fill:#ffffff;fill-opacity:1;stroke:#000000;stroke-width:0.999;stroke-linecap:butt;stroke-linejoin:miter;stroke-miterlimit:22.926;stroke-opacity:1" />
    <path
       id="path1581"
       d="M -113.21392,-391.24185 H 56.865725 c 3.98815,0 7.25832,3.36379 7.25832,7.50027 v 43.97159 c 0,4.12085 -3.27017,7.4847 -7.25832,7.4847 H -113.21392 c -4.00383,0 -7.26619,-3.36385 -7.26619,-7.4847 v -43.97159 c 0,-4.13648 3.26236,-7.50027 7.26619,-7.50027"
       style="fill:#263894;fill-opacity:1;fill-rule:evenodd;stroke:none;stroke-width:1.99799" />
    <path
       id="path1583"
       d="m 52.791655,-354.28669 -130.89232,0.0453 5.36962,15.11767 -40.912175,-22.74282 40.849705,-22.69605 -5.23692,15.1879 h 130.87675 l -0.0566,15.08646"
       style="fill:#ffffff;fill-opacity:1;fill-rule:evenodd;stroke:none;stroke-width:1.99799" />
  </g>
</svg>
