<?xml version="1.0" encoding="UTF-8" standalone="no"?>
<svg
   xmlns:dc="http://purl.org/dc/elements/1.1/"
   xmlns:cc="http://creativecommons.org/ns#"
   xmlns:rdf="http://www.w3.org/1999/02/22-rdf-syntax-ns#"
   xmlns:svg="http://www.w3.org/2000/svg"
   xmlns="http://www.w3.org/2000/svg"
   xmlns:sodipodi="http://sodipodi.sourceforge.net/DTD/sodipodi-0.dtd"
   xmlns:inkscape="http://www.inkscape.org/namespaces/inkscape"
   width="158.75mm"
   height="158.75mm"
   viewBox="0 0 158.74999 158.74999"
   version="1.1"
   id="svg6774"
   inkscape:version="1.0 (4035a4fb49, 2020-05-01)"
   sodipodi:docname="Latvia_road_sign_539.svg">
  <defs
     id="defs6768" />
  <sodipodi:namedview
     id="base"
     pagecolor="#ffffff"
     bordercolor="#666666"
     borderopacity="1.0"
     inkscape:pageopacity="0.0"
     inkscape:pageshadow="2"
     inkscape:zoom="0.57959434"
     inkscape:cx="329.71516"
     inkscape:cy="455.60196"
     inkscape:document-units="mm"
     inkscape:current-layer="layer1"
     inkscape:document-rotation="0"
     showgrid="false"
     fit-margin-top="0"
     fit-margin-left="0"
     fit-margin-right="0"
     fit-margin-bottom="0"
     inkscape:window-width="1920"
     inkscape:window-height="1001"
     inkscape:window-x="-9"
     inkscape:window-y="-9"
     inkscape:window-maximized="1" />
  <metadata
     id="metadata6771">
    <rdf:RDF>
      <cc:Work
         rdf:about="">
        <dc:format>image/svg+xml</dc:format>
        <dc:type
           rdf:resource="http://purl.org/dc/dcmitype/StillImage" />
        <dc:title></dc:title>
      </cc:Work>
    </rdf:RDF>
  </metadata>
  <g
     inkscape:label="Layer 1"
     inkscape:groupmode="layer"
     id="layer1"
     transform="translate(457.64844,291.62526)">
    <g
       transform="matrix(7.0715152,0,0,7.0715152,1952.219,1736.7118)"
       style="opacity:1;stroke-width:0.141412"
       id="g7938">
      <path
         id="path7940"
         d="m -339.08411,-286.74376 h 19.04586 c 0.88746,0 1.61368,0.72622 1.61368,1.61368 v 19.04586 c 0,0.88746 -0.72622,1.61369 -1.61368,1.61369 h -19.04586 c -0.88746,0 -1.61369,-0.72623 -1.61369,-1.61369 v -19.04586 c 0,-0.88746 0.72623,-1.61368 1.61369,-1.61368 z m 0,0"
         style="color:#000000;font-style:normal;font-variant:normal;font-weight:normal;font-stretch:normal;font-size:medium;line-height:normal;font-family:sans-serif;font-variant-ligatures:normal;font-variant-position:normal;font-variant-caps:normal;font-variant-numeric:normal;font-variant-alternates:normal;font-variant-east-asian:normal;font-feature-settings:normal;font-variation-settings:normal;text-indent:0;text-align:start;text-decoration:none;text-decoration-line:none;text-decoration-style:solid;text-decoration-color:#000000;letter-spacing:normal;word-spacing:normal;text-transform:none;writing-mode:lr-tb;direction:ltr;text-orientation:mixed;dominant-baseline:auto;baseline-shift:baseline;text-anchor:start;white-space:normal;shape-padding:0;shape-margin:0;inline-size:0;clip-rule:nonzero;display:inline;overflow:visible;visibility:visible;isolation:auto;mix-blend-mode:normal;color-interpolation:sRGB;color-interpolation-filters:linearRGB;solid-color:#000000;solid-opacity:1;vector-effect:none;fill:#ffffff;fill-opacity:1;fill-rule:nonzero;stroke:none;stroke-width:0.0249436;stroke-linecap:butt;stroke-linejoin:miter;stroke-miterlimit:22.926;stroke-dasharray:none;stroke-dashoffset:0;stroke-opacity:1;color-rendering:auto;image-rendering:auto;shape-rendering:auto;text-rendering:auto;enable-background:accumulate;stop-color:#000000;stop-opacity:1" />
      <path
         id="path7942"
         d="m -339.08398,-286.83203 c -0.93558,0 -1.70118,0.7656 -1.70118,1.70117 v 19.04688 c 0,0.93557 0.7656,1.70117 1.70118,1.70117 h 19.04492 c 0.93557,0 1.70312,-0.7656 1.70312,-1.70117 v -19.04688 c 0,-0.93557 -0.76755,-1.70117 -1.70312,-1.70117 z m 0,0.17578 h 19.04492 c 0.83934,0 1.52539,0.68604 1.52539,1.52539 v 19.04688 c 0,0.83934 -0.68605,1.52539 -1.52539,1.52539 h -19.04492 c -0.83935,0 -1.5254,-0.68605 -1.5254,-1.52539 v -19.04688 c 0,-0.83934 0.68605,-1.52539 1.5254,-1.52539 z"
         style="color:#000000;font-style:normal;font-variant:normal;font-weight:normal;font-stretch:normal;font-size:medium;line-height:normal;font-family:sans-serif;font-variant-ligatures:normal;font-variant-position:normal;font-variant-caps:normal;font-variant-numeric:normal;font-variant-alternates:normal;font-variant-east-asian:normal;font-feature-settings:normal;font-variation-settings:normal;text-indent:0;text-align:start;text-decoration:none;text-decoration-line:none;text-decoration-style:solid;text-decoration-color:#000000;letter-spacing:normal;word-spacing:normal;text-transform:none;writing-mode:lr-tb;direction:ltr;text-orientation:mixed;dominant-baseline:auto;baseline-shift:baseline;text-anchor:start;white-space:normal;shape-padding:0;shape-margin:0;inline-size:0;clip-rule:nonzero;display:inline;overflow:visible;visibility:visible;isolation:auto;mix-blend-mode:normal;color-interpolation:sRGB;color-interpolation-filters:linearRGB;solid-color:#000000;solid-opacity:1;vector-effect:none;fill:#000000;fill-opacity:1;fill-rule:nonzero;stroke:none;stroke-width:0.0249436;stroke-linecap:butt;stroke-linejoin:miter;stroke-miterlimit:22.926;stroke-dasharray:none;stroke-dashoffset:0;stroke-opacity:1;color-rendering:auto;image-rendering:auto;shape-rendering:auto;text-rendering:auto;enable-background:accumulate;stop-color:#000000;stop-opacity:1" />
    </g>
    <path
       style="fill:#263894;fill-opacity:1;fill-rule:evenodd;stroke:none;stroke-width:0.352777"
       d="m -310.16652,-285.83625 -136.26181,0.007 c -2.60189,0.0495 -5.38885,1.90994 -5.38885,5.66173 v 136.05716 c 0,2.329 1.97819,5.44733 5.76888,5.44733 l 135.82329,-0.007 c 3.41067,0 5.48637,-3.11833 5.47661,-5.61302 l 0.007,-135.88178 c 0.0566,-3.80044 -2.8163,-5.56429 -5.42788,-5.6715"
       id="path6879" />
    <path
       style="fill:#ffffff;fill-opacity:1;fill-rule:evenodd;stroke:none;stroke-width:0.352777"
       d="m -337.61772,-145.58887 0.0212,-10.35878 -6.99677,-0.0212 -5.13554,-17.47244 v -17.1509 l 33.00573,0.0424 -0.0212,17.02418 -5.32067,17.56013 h -6.94805 v 10.39774 l -8.60469,-0.0212"
       id="path6881" />
    <path
       style="fill:#ffffff;fill-opacity:1;fill-rule:evenodd;stroke:none;stroke-width:0.352777"
       d="m -384.29538,-170.29201 v -3.15729 l 2.97216,-2.22187 h 2.96247 v 20.78573 h -2.96247 v -17.63813 l -2.97216,2.23156"
       id="path6883" />
    <path
       style="fill:#ffffff;fill-opacity:1;fill-rule:evenodd;stroke:none;stroke-width:0.352777"
       d="m -370.52594,-155.06081 v -20.62981 h 2.94296 v 7.55224 c 1.72481,-2.13411 4.85289,-2.46548 6.98701,-0.7406 1.16934,0.94525 1.85153,2.36797 1.85153,3.86868 v 9.94949 h -2.95271 v -9.03344 c 0,-1.62744 -1.31551,-2.94295 -2.94295,-2.94295 -1.62737,0 -2.94288,1.31551 -2.94288,2.94295 v 9.03344 h -2.94296"
       id="path6885" />
    <path
       style="fill:#ffffff;fill-opacity:1;fill-rule:evenodd;stroke:none;stroke-width:0.352777"
       d="m -418.06116,-154.93416 v -112.6793 h 44.26097 c 18.88547,0 34.2238,15.30906 34.2238,34.18477 0,18.91475 -15.33833,34.2238 -34.2238,34.2238 h -27.16855 v 44.27073 z m 17.09242,-60.36911 h 26.17458 c 9.98844,0 18.09608,-8.09801 18.09608,-18.12542 0,-9.98844 -8.10764,-18.08639 -18.09608,-18.08639 h -26.17458 v 36.21181"
       id="path6887" />
    <path
       d="m -318.54614,-188.89652 -29.49756,0.0219 0.0292,15.42482 4.76523,15.75738 h 7.3488 v 10.38554 h 5.16354 l -0.0292,-10.38554 h 7.51327 l 4.70674,-15.72084 z m -14.09101,5.71169 c 3.96614,0.0778 7.91405,0.6027 11.9094,1.91851 l -2.10488,6.51927 -1.92948,-0.53352 0.8953,-2.78824 -1.1511,-0.36178 -0.86607,2.94537 c -0.88678,-0.0877 -1.7553,-0.19653 -2.64207,-0.3033 l 0.64316,-3.02942 -1.20592,-0.25581 -0.65412,3.09156 c -2.43622,-0.25317 -4.48384,-0.15679 -6.61795,0.0694 l -0.50429,-3.16829 -1.11091,0.16802 0.45679,3.06963 -2.67131,0.45678 -0.77836,-3.01115 -1.01225,0.28138 0.6797,2.95268 c -0.83812,0.26307 -1.48128,0.39058 -2.28029,0.59566 v -0.004 l -2.31683,-6.34387 c 3.78101,-1.55913 9.16871,-2.14259 13.26148,-2.26932 z m -3.05135,1.67732 2.41916,3.25233 2.57994,-3.25233 z m 2.82844,16.84636 h 8.66436 v 1.85272 l -8.6534,0.008 -0.004,0.004 z"
       style="fill:#263894;fill-opacity:1;fill-rule:evenodd;stroke:none;stroke-width:0.352776"
       id="path6909" />
  </g>
</svg>
