<?xml version="1.0" encoding="UTF-8" standalone="no"?>
<svg
   xmlns:dc="http://purl.org/dc/elements/1.1/"
   xmlns:cc="http://creativecommons.org/ns#"
   xmlns:rdf="http://www.w3.org/1999/02/22-rdf-syntax-ns#"
   xmlns:svg="http://www.w3.org/2000/svg"
   xmlns="http://www.w3.org/2000/svg"
   xmlns:sodipodi="http://sodipodi.sourceforge.net/DTD/sodipodi-0.dtd"
   xmlns:inkscape="http://www.inkscape.org/namespaces/inkscape"
   sodipodi:docname="Latvia_road_sign_515.svg"
   inkscape:version="1.0 (4035a4fb49, 2020-05-01)"
   id="svg3845"
   version="1.1"
   viewBox="0 0 195 194.98801"
   height="194.98801mm"
   width="195mm">
  <defs
     id="defs3839" />
  <sodipodi:namedview
     inkscape:document-rotation="0"
     inkscape:window-maximized="1"
     inkscape:window-y="-9"
     inkscape:window-x="-9"
     inkscape:window-height="1001"
     inkscape:window-width="1920"
     showgrid="false"
     inkscape:current-layer="layer1"
     inkscape:document-units="mm"
     inkscape:cy="468.70173"
     inkscape:cx="808.11826"
     inkscape:zoom="0.49497475"
     inkscape:pageshadow="2"
     inkscape:pageopacity="0.0"
     borderopacity="1.0"
     bordercolor="#666666"
     pagecolor="#ffffff"
     id="base" />
  <metadata
     id="metadata3842">
    <rdf:RDF>
      <cc:Work
         rdf:about="">
        <dc:format>image/svg+xml</dc:format>
        <dc:type
           rdf:resource="http://purl.org/dc/dcmitype/StillImage" />
        <dc:title></dc:title>
      </cc:Work>
    </rdf:RDF>
  </metadata>
  <g
     transform="translate(-98.823816,481.26388)"
     id="layer1"
     inkscape:groupmode="layer"
     inkscape:label="Layer 1">
    <path
       style="fill:#ffffff;fill-opacity:1;stroke:#000000;stroke-width:1.53213;stroke-linecap:butt;stroke-linejoin:miter;stroke-miterlimit:22.926;stroke-opacity:1"
       d="m 113.60658,-480.49781 h 165.43448 c 7.70857,0 14.01669,6.30812 14.01669,14.0167 v 165.43448 c 0,7.70857 -6.30812,14.0047 -14.01669,14.0047 H 113.60658 c -7.70858,0 -14.016699,-6.29613 -14.016699,-14.0047 v -165.43448 c 0,-7.70858 6.308119,-14.0167 14.016699,-14.0167 z m 0,0"
       id="path12674" />
    <path
       style="fill:#263894;fill-opacity:1;fill-rule:evenodd;stroke:none;stroke-width:3.06426"
       d="m 112.66092,-474.15382 167.37365,0.009 c 3.19597,0.0608 6.61934,2.34603 6.61934,6.95445 v 167.11029 c 0,2.87276 -2.41795,6.70307 -7.08613,6.70307 l -166.83503,-0.009 c -4.1894,0 -6.73894,-3.8423 -6.72704,-6.8946 l -0.009,-166.91885 c -0.0695,-4.65627 3.45924,-6.82285 6.6672,-6.95445"
       id="path12646" />
    <path
       style="fill:#ffffff;fill-opacity:1;fill-rule:evenodd;stroke:none;stroke-width:3.06426"
       d="m 233.40023,-301.84862 0.026,-102.26994 c 0,-9.13302 -7.05025,-17.24854 -17.057,-17.40411 l -57.02407,-0.026 5.73353,17.46386 -42.75609,-24.80137 42.67227,-24.39443 -5.70956,16.9731 59.54973,-0.009 c 17.08089,0.009 29.85269,13.46599 29.72101,31.12147 l -0.46644,103.37116 -14.68692,-0.0261"
       id="path12648" />
    <path
       style="fill:#ffffff;fill-opacity:1;fill-rule:evenodd;stroke:none;stroke-width:3.06426"
       d="m 269.62088,-371.14182 4.24925,0.0347 v -12.42461 l -4.22536,0.53853 -0.0261,11.85012"
       id="path12650" />
    <path
       style="fill:#ffffff;fill-opacity:1;fill-rule:evenodd;stroke:none;stroke-width:3.06426"
       d="m 269.62088,-353.76169 4.29711,0.0521 v -11.90996 l -4.27322,-0.11987 -0.0261,11.9818"
       id="path12652" />
    <path
       style="fill:#ffffff;fill-opacity:1;fill-rule:evenodd;stroke:none;stroke-width:3.06426"
       d="m 269.62088,-336.56102 h 4.29711 l -0.0521,-11.89806 -4.22527,-0.0348 -0.0261,11.93385"
       id="path12654" />
    <path
       style="fill:#ffffff;fill-opacity:1;fill-rule:evenodd;stroke:none;stroke-width:3.06426"
       d="m 269.64477,-319.28869 4.15352,-0.0695 v -11.75439 h -4.15352 v 11.82614"
       id="path12656" />
    <path
       style="fill:#ffffff;fill-opacity:1;fill-rule:evenodd;stroke:none;stroke-width:3.06426"
       d="m 269.64477,-388.3544 4.22536,-0.0347 v -11.67058 l -4.72812,0.20326 0.50293,11.50302"
       id="path12658" />
    <path
       style="fill:#ffffff;fill-opacity:1;fill-rule:evenodd;stroke:none;stroke-width:3.06426"
       d="m 269.13011,-302.07611 h 4.66818 l 0.11987,-11.7663 h -4.77597 l -0.009,11.7663"
       id="path12660" />
    <path
       style="fill:#ffffff;fill-opacity:1;fill-rule:evenodd;stroke:none;stroke-width:3.06426"
       d="m 174.07799,-371.14182 4.23726,0.0347 -0.0347,-11.85012 -4.21337,0.52638 0.009,11.28752"
       id="path12662" />
    <path
       style="fill:#ffffff;fill-opacity:1;fill-rule:evenodd;stroke:none;stroke-width:3.06426"
       d="m 174.07799,-353.77359 h 4.24924 v -11.89798 l -4.26123,-0.0869 0.009,11.98179"
       id="path12664" />
    <path
       style="fill:#ffffff;fill-opacity:1;fill-rule:evenodd;stroke:none;stroke-width:3.06426"
       d="m 174.07799,-336.58499 4.26123,0.026 -0.0608,-11.90996 -4.20139,-0.0261 v 11.90997"
       id="path12666" />
    <path
       style="fill:#ffffff;fill-opacity:1;fill-rule:evenodd;stroke:none;stroke-width:3.06426"
       d="m 174.08989,-319.28869 4.15352,-0.0695 v -11.75439 h -4.15352 v 11.82614"
       id="path12668" />
    <path
       style="fill:#ffffff;fill-opacity:1;fill-rule:evenodd;stroke:none;stroke-width:3.06426"
       d="m 174.08989,-388.3663 4.21337,-0.0261 v -11.69446 l -4.1894,0.46645 -0.0261,11.25155"
       id="path12670" />
    <path
       style="fill:#ffffff;fill-opacity:1;fill-rule:evenodd;stroke:none;stroke-width:3.06426"
       d="m 174.11386,-302.05214 h 4.11765 l 0.10771,-11.80225 h -4.22527 v 11.80225"
       id="path12672" />
  </g>
</svg>
