<?xml version="1.0" encoding="UTF-8" standalone="no"?>
<svg
   xmlns:dc="http://purl.org/dc/elements/1.1/"
   xmlns:cc="http://creativecommons.org/ns#"
   xmlns:rdf="http://www.w3.org/1999/02/22-rdf-syntax-ns#"
   xmlns:svg="http://www.w3.org/2000/svg"
   xmlns="http://www.w3.org/2000/svg"
   xmlns:sodipodi="http://sodipodi.sourceforge.net/DTD/sodipodi-0.dtd"
   xmlns:inkscape="http://www.inkscape.org/namespaces/inkscape"
   sodipodi:docname="Latvia_road_sign_516.svg"
   inkscape:version="1.0 (4035a4fb49, 2020-05-01)"
   id="svg3845"
   version="1.1"
   viewBox="0 0 195.00002 194.98812"
   height="194.98811mm"
   width="195.00002mm">
  <defs
     id="defs3839" />
  <sodipodi:namedview
     inkscape:document-rotation="0"
     inkscape:window-maximized="1"
     inkscape:window-y="-9"
     inkscape:window-x="-9"
     inkscape:window-height="1001"
     inkscape:window-width="1920"
     showgrid="false"
     inkscape:current-layer="layer1"
     inkscape:document-units="mm"
     inkscape:cy="456.57538"
     inkscape:cx="-262.64535"
     inkscape:zoom="0.49497475"
     inkscape:pageshadow="2"
     inkscape:pageopacity="0.0"
     borderopacity="1.0"
     bordercolor="#666666"
     pagecolor="#ffffff"
     id="base" />
  <metadata
     id="metadata3842">
    <rdf:RDF>
      <cc:Work
         rdf:about="">
        <dc:format>image/svg+xml</dc:format>
        <dc:type
           rdf:resource="http://purl.org/dc/dcmitype/StillImage" />
        <dc:title></dc:title>
      </cc:Work>
    </rdf:RDF>
  </metadata>
  <g
     transform="translate(-382.13002,478.05545)"
     id="layer1"
     inkscape:groupmode="layer"
     inkscape:label="Layer 1">
    <path
       style="fill:#ffffff;fill-opacity:1;stroke:#000000;stroke-width:1.53214;stroke-linecap:butt;stroke-linejoin:miter;stroke-miterlimit:22.926;stroke-opacity:1"
       d="m 396.91271,-477.28938 h 165.43464 c 7.70858,0 14.01661,6.30812 14.01661,14.0167 v 165.43455 c 0,7.70858 -6.30803,14.00472 -14.01661,14.00472 H 396.91271 c -7.7085,0 -14.01662,-6.29614 -14.01662,-14.00472 v -165.43455 c 0,-7.70858 6.30812,-14.0167 14.01662,-14.0167 z m 0,0"
       id="path12696" />
    <path
       style="fill:#263894;fill-opacity:1;fill-rule:evenodd;stroke:none;stroke-width:3.06426"
       d="m 563.293,-470.94538 -167.37373,0.009 c -3.19597,0.0608 -6.61934,2.34603 -6.61934,6.95445 v 167.12227 c 0,2.86086 2.42986,6.69117 7.08614,6.69117 l 166.8351,-0.009 c 4.1894,0 6.73895,-3.83031 6.72696,-6.8946 l 0.009,-166.91892 c 0.0695,-4.65619 -3.45933,-6.82277 -6.6672,-6.95445"
       id="path12676" />
    <path
       style="fill:#ffffff;fill-opacity:1;fill-rule:evenodd;stroke:none;stroke-width:3.06426"
       d="m 428.54893,-298.72394 v -116.56185 l -17.04503,4.54848 24.5501,-43.06733 24.49024,43.18702 -17.11686,-4.45276 0.0434,53.55286 c 4.12964,-5.30261 10.49761,-7.3495 17.15273,-7.15797 h 51.64974 l -4.7401,-17.35616 43.1871,24.81337 -43.16313,24.39443 4.79986,-17.10478 -51.88903,-0.009 c -9.79126,-0.0956 -16.9732,7.32552 -16.9732,17.22457 l 0.009,38.08792 -14.96227,-0.0956"
       id="path12678" />
    <path
       style="fill:#ffffff;fill-opacity:1;fill-rule:evenodd;stroke:none;stroke-width:3.06426"
       d="m 406.33297,-367.37075 -4.24925,0.0348 v -11.85012 l 4.22528,-0.0434 0.0261,11.86202"
       id="path12680" />
    <path
       style="fill:#ffffff;fill-opacity:1;fill-rule:evenodd;stroke:none;stroke-width:3.06426"
       d="m 406.33297,-349.99061 -4.29711,0.0521 v -11.92196 l 4.27314,-0.11987 0.0261,11.99371"
       id="path12682" />
    <path
       style="fill:#ffffff;fill-opacity:1;fill-rule:evenodd;stroke:none;stroke-width:3.06426"
       d="m 406.33297,-332.79001 h -4.29711 l 0.0434,-11.89799 4.22537,-0.0521 0.0261,11.94584"
       id="path12684" />
    <path
       style="fill:#ffffff;fill-opacity:1;fill-rule:evenodd;stroke:none;stroke-width:3.06426"
       d="m 406.309,-315.51758 -4.15344,-0.0695 v -11.7544 h 4.15344 v 11.82623"
       id="path12686" />
    <path
       style="fill:#ffffff;fill-opacity:1;fill-rule:evenodd;stroke:none;stroke-width:3.06426"
       d="m 406.309,-384.58333 -4.22528,-0.0347 v -11.67058 l 4.16552,-0.0956 0.0608,11.80226"
       id="path12688" />
    <path
       style="fill:#ffffff;fill-opacity:1;fill-rule:evenodd;stroke:none;stroke-width:3.06426"
       d="m 406.24924,-298.72394 h -4.09368 l -0.11987,-11.76629 h 4.21337 v 11.76629"
       id="path12690" />
    <path
       style="fill:#ffffff;fill-opacity:1;fill-rule:evenodd;stroke:none;stroke-width:3.06426"
       d="m 499.92483,-315.93652 -4.16551,-0.0695 v -11.7544 h 4.16551 v 11.82614"
       id="path12692" />
    <path
       style="fill:#ffffff;fill-opacity:1;fill-rule:evenodd;stroke:none;stroke-width:3.06426"
       d="m 499.88896,-298.69996 h -4.10567 l -0.10771,-11.80226 h 4.21338 v 11.80226"
       id="path12694" />
  </g>
</svg>
