<?xml version="1.0" encoding="UTF-8" standalone="no"?>
<svg
   xmlns:dc="http://purl.org/dc/elements/1.1/"
   xmlns:cc="http://creativecommons.org/ns#"
   xmlns:rdf="http://www.w3.org/1999/02/22-rdf-syntax-ns#"
   xmlns:svg="http://www.w3.org/2000/svg"
   xmlns="http://www.w3.org/2000/svg"
   xmlns:sodipodi="http://sodipodi.sourceforge.net/DTD/sodipodi-0.dtd"
   xmlns:inkscape="http://www.inkscape.org/namespaces/inkscape"
   width="195mm"
   height="127.50061mm"
   viewBox="0 0 195 127.50061"
   version="1.1"
   id="svg3845"
   inkscape:version="1.0 (4035a4fb49, 2020-05-01)"
   sodipodi:docname="Latvia_road_sign_511.svg">
  <defs
     id="defs3839" />
  <sodipodi:namedview
     id="base"
     pagecolor="#ffffff"
     bordercolor="#666666"
     borderopacity="1.0"
     inkscape:pageopacity="0.0"
     inkscape:pageshadow="2"
     inkscape:zoom="0.49497475"
     inkscape:cx="-293.14517"
     inkscape:cy="287.06006"
     inkscape:document-units="mm"
     inkscape:current-layer="layer1"
     showgrid="false"
     inkscape:window-width="1920"
     inkscape:window-height="1001"
     inkscape:window-x="-9"
     inkscape:window-y="-9"
     inkscape:window-maximized="1"
     inkscape:document-rotation="0" />
  <metadata
     id="metadata3842">
    <rdf:RDF>
      <cc:Work
         rdf:about="">
        <dc:format>image/svg+xml</dc:format>
        <dc:type
           rdf:resource="http://purl.org/dc/dcmitype/StillImage" />
        <dc:title></dc:title>
      </cc:Work>
    </rdf:RDF>
  </metadata>
  <g
     inkscape:label="Layer 1"
     inkscape:groupmode="layer"
     id="layer1"
     transform="translate(-279.87954,356.09383)">
    <path
       style="fill:#ffffff;fill-opacity:1;stroke:#000000;stroke-width:1.02649;stroke-linecap:butt;stroke-linejoin:miter;stroke-miterlimit:22.926;stroke-opacity:1"
       d="m 288.60471,-355.58059 h 177.54971 c 4.51496,0 8.21187,3.68894 8.21187,8.2039 v 110.06638 c 0,4.51495 -3.69691,8.20384 -8.21187,8.20384 H 288.60471 c -4.51496,0 -8.21193,-3.68889 -8.21193,-8.20384 v -110.06638 c 0,-4.51496 3.69697,-8.2039 8.21193,-8.2039 z m 0,0"
       id="path1794" />
    <path
       style="fill:#263894;fill-opacity:1;fill-rule:evenodd;stroke:none;stroke-width:2.05296"
       d="m 283.40812,-347.06396 c 0.0291,-2.63836 1.87654,-5.7499 5.84609,-5.85412 h 176.29877 c 3.92149,0.21648 5.80606,3.44028 5.80606,5.83812 l -0.0175,109.64139 c 0.0175,3.8974 -3.72101,5.89428 -5.99047,5.66971 H 289.18066 c -2.58226,0.0407 -5.74996,-2.18934 -5.77399,-5.57351 v -109.72159"
       id="path1748" />
    <path
       style="fill:#ffffff;fill-opacity:1;fill-rule:evenodd;stroke:none;stroke-width:2.05296"
       d="m 327.35449,-344.40954 17.33798,29.50346 -12.19755,-3.87336 -0.0349,13.99383 c -3.76111,-0.76985 -6.51976,-0.74582 -10.26486,0.0175 v -14.0099 l -12.22955,3.96962 17.38604,-29.59965"
       id="path1750" />
    <path
       style="fill:#ffffff;fill-opacity:1;fill-rule:evenodd;stroke:none;stroke-width:2.05296"
       d="m 322.18997,-265.21784 c 3.73702,0.99442 6.50375,0.9062 10.24076,0.0803 l 0.0233,23.0558 -10.21672,0.0349 -0.0466,-23.16812"
       id="path1752" />
    <path
       style="fill:#ffffff;fill-opacity:1;fill-rule:evenodd;stroke:none;stroke-width:2.05296"
       d="m 372.39952,-265.21784 c 3.71298,1.02649 6.53581,0.9062 10.26485,0.0885 l 0.0175,23.04778 -10.21678,0.0291 -0.064,-23.16807"
       id="path1754" />
    <path
       style="fill:#ffffff;fill-opacity:1;fill-rule:evenodd;stroke:none;stroke-width:2.05296"
       d="m 377.57201,-344.40954 17.33798,29.50346 -12.20552,-3.87336 -0.0291,13.99383 c -3.7451,-0.76985 -6.51981,-0.75379 -10.25682,0.0407 v -14.03399 l -12.22967,3.96961 17.3861,-29.59965"
       id="path1756" />
    <path
       style="fill:#ffffff;fill-opacity:1;fill-rule:evenodd;stroke:none;stroke-width:2.05296"
       d="m 428.06223,-344.40954 17.34601,29.50346 -12.20558,-3.87336 -0.0233,13.99383 c -3.76913,-0.76985 -6.51975,-0.74582 -10.26485,0.0175 v -14.0099 l -12.22955,3.96962 17.37801,-29.59965"
       id="path1758" />
    <path
       style="fill:#ffffff;fill-opacity:1;fill-rule:evenodd;stroke:none;stroke-width:2.05296"
       d="m 422.90574,-265.21784 c 3.73707,0.99442 6.49572,0.9062 10.24082,0.0803 l 0.0175,23.0558 -10.21673,0.0349 -0.0407,-23.16812"
       id="path1760" />
    <path
       style="fill:#ffffff;fill-opacity:1;fill-rule:evenodd;stroke:none;stroke-width:2.05296"
       d="m 377.6362,-306.89469 c 12.09326,0 21.96513,9.86389 21.96513,21.96513 0,12.10129 -9.87187,21.97321 -21.96513,21.97321 -12.09326,0 -21.97321,-9.87192 -21.97321,-21.97321 0,-12.10124 9.87995,-21.96513 21.97321,-21.96513"
       id="path1762" />
    <path
       style="fill:#ffffff;fill-opacity:1;fill-rule:evenodd;stroke:none;stroke-width:2.05296"
       d="m 428.26271,-306.95085 c 12.14942,0 22.06941,9.92005 22.06941,22.06941 0,12.16548 -9.91999,22.07744 -22.06941,22.07744 -12.14942,0 -22.07744,-9.91196 -22.07744,-22.07744 0,-12.14936 9.92802,-22.06941 22.07744,-22.06941"
       id="path1764" />
    <path
       style="fill:#ffffff;fill-opacity:1;fill-rule:evenodd;stroke:none;stroke-width:2.05296"
       d="m 327.13795,-306.93479 c 12.18149,0 22.12557,9.93606 22.12557,22.11754 0,12.19749 -9.94408,22.14157 -22.12557,22.14157 -12.18148,0 -22.1336,-9.94408 -22.1336,-22.14157 0,-12.18148 9.95212,-22.11754 22.1336,-22.11754"
       id="path1766" />
    <path
       style="fill:#eb1938;fill-opacity:1;fill-rule:evenodd;stroke:none;stroke-width:2.05296"
       d="m 428.26271,-305.2908 c 11.23519,0 20.40942,9.16615 20.40942,20.40936 0,11.25125 -9.17423,20.42548 -20.40942,20.42548 -11.24322,0 -20.42542,-9.17423 -20.42542,-20.42548 0,-11.24321 9.1822,-20.40936 20.42542,-20.40936"
       id="path1768" />
    <path
       style="fill:#eb1938;fill-opacity:1;fill-rule:evenodd;stroke:none;stroke-width:2.05296"
       d="m 377.6362,-305.47527 c 11.31538,0 20.54571,9.23033 20.54571,20.54571 0,11.3234 -9.23033,20.55379 -20.54571,20.55379 -11.31538,0 -20.55374,-9.23039 -20.55374,-20.55379 0,-11.31538 9.23836,-20.54571 20.55374,-20.54571"
       id="path1770" />
    <path
       style="fill:#eb1938;fill-opacity:1;fill-rule:evenodd;stroke:none;stroke-width:2.05296"
       d="m 327.12992,-305.29883 c 11.28331,0 20.48158,9.2063 20.48158,20.48955 0,11.28337 -9.19827,20.48961 -20.48158,20.48961 -11.28331,0 -20.49758,-9.20624 -20.49758,-20.48961 0,-11.28325 9.21427,-20.48955 20.49758,-20.48955"
       id="path1772" />
    <path
       style="fill:#ffffff;fill-opacity:1;fill-rule:evenodd;stroke:none;stroke-width:2.05296"
       d="m 428.26271,-299.84566 c 8.24399,0 14.97226,6.72029 14.97226,14.97225 0,8.23597 -6.72827,14.96423 -14.97226,14.96423 -8.25196,0 -14.98023,-6.72826 -14.98023,-14.96423 0,-8.25196 6.72827,-14.97225 14.98023,-14.97225"
       id="path1774" />
    <path
       style="fill:#ffffff;fill-opacity:1;fill-rule:evenodd;stroke:none;stroke-width:2.05296"
       d="m 327.12189,-299.90176 c 8.31616,0 15.10058,6.76836 15.10058,15.08451 0,8.30009 -6.78442,15.08451 -15.10058,15.08451 -8.30812,0 -15.09254,-6.78442 -15.09254,-15.08451 0,-8.31615 6.78442,-15.08451 15.09254,-15.08451"
       id="path1776" />
    <path
       style="fill:#ffffff;fill-opacity:1;fill-rule:evenodd;stroke:none;stroke-width:2.05296"
       d="m 377.6362,-299.84566 c 8.2199,0 14.9321,6.69619 14.9321,14.92413 0,8.21192 -6.7122,14.92412 -14.9321,14.92412 -8.22793,0 -14.94019,-6.7122 -14.94019,-14.92412 0,-8.22794 6.71226,-14.92413 14.94019,-14.92413"
       id="path1778" />
    <path
       style="fill:#211e1e;fill-opacity:1;fill-rule:evenodd;stroke:none;stroke-width:2.05296"
       d="m 420.56406,-280.39855 h 2.26149 v 0.70567 c 0,0.6175 0.50513,1.12274 1.13072,1.12274 0.61756,0 1.12274,-0.50513 1.12274,-1.12274 v -3.80923 c 0,-0.62548 -0.50513,-1.13072 -1.12274,-1.13072 -0.52142,0 -0.97034,0.35266 -1.09865,0.85004 l -2.0048,-0.006 v -8.46047 h 6.48768 v 2.11711 h -4.51495 v 4.25029 c 1.08265,-1.01043 2.77471,-0.96231 3.78514,0.12046 0.47312,0.49698 0.72981,1.15475 0.72981,1.83644 v 4.23422 c 0,1.86048 -1.51567,3.38418 -3.38423,3.38418 -1.86851,0 -3.39221,-1.5237 -3.39221,-3.38418 v -0.70572"
       id="path1780" />
    <path
       style="fill:#211e1e;fill-opacity:1;fill-rule:evenodd;stroke:none;stroke-width:2.05296"
       d="m 429.59397,-279.69288 v -9.31856 c 0,-1.8685 1.51567,-3.38418 3.38417,-3.38418 1.87654,0 3.38418,1.51568 3.38418,3.38418 v 9.31856 c 0,1.86053 -1.50764,3.38423 -3.38418,3.38423 -1.8685,0 -3.38417,-1.5237 -3.38417,-3.38423 z m 2.26143,0 c 0,0.6175 0.50513,1.12274 1.12274,1.12274 0.62548,0 1.13072,-0.50513 1.13072,-1.12274 v -9.31856 c 0,-0.61744 -0.50513,-1.12268 -1.13072,-1.12268 -0.6175,0 -1.12274,0.50512 -1.12274,1.12268 v 9.31856"
       id="path1782" />
    <path
       style="fill:#211e1e;fill-opacity:1;fill-rule:evenodd;stroke:none;stroke-width:2.05296"
       d="m 315.18098,-288.18542 v -2.41385 l 2.26953,-1.70009 h 2.26946 v 15.8784 h -2.26946 v -13.46456 l -2.26953,1.7001"
       id="path1784" />
    <path
       style="fill:#211e1e;fill-opacity:1;fill-rule:evenodd;stroke:none;stroke-width:2.05296"
       d="m 322.55084,-279.68485 v -9.35062 c 0,-1.88457 1.5237,-3.40827 3.40827,-3.40827 1.87654,0 3.39221,1.5237 3.39221,3.40827 v 9.35062 c 0,1.87653 -1.51567,3.40827 -3.39221,3.40827 -1.88457,0 -3.40827,-1.53174 -3.40827,-3.40827 z m 2.26946,0 c 0,0.62553 0.50513,1.13875 1.13881,1.13875 0.62547,0 1.13072,-0.51328 1.13072,-1.13875 v -9.35062 c 0,-0.6335 -0.50513,-1.13875 -1.13072,-1.13875 -0.63356,0 -1.13881,0.50513 -1.13881,1.13875 v 9.35062"
       id="path1786" />
    <path
       style="fill:#211e1e;fill-opacity:1;fill-rule:evenodd;stroke:none;stroke-width:2.05296"
       d="m 331.90146,-279.68485 v -9.35062 c 0,-1.88457 1.5237,-3.40827 3.40827,-3.40827 1.87653,0 3.40024,1.5237 3.40024,3.40827 v 9.35062 c 0,1.87653 -1.52371,3.40827 -3.40024,3.40827 -1.88457,0 -3.40827,-1.53174 -3.40827,-3.40827 z m 2.26952,0 c 0,0.62553 0.50513,1.13875 1.13875,1.13875 0.62547,0 1.13071,-0.51328 1.13071,-1.13875 v -9.35062 c 0,-0.6335 -0.50512,-1.13875 -1.13071,-1.13875 -0.63357,0 -1.13875,0.50513 -1.13875,1.13875 v 9.35062"
       id="path1788" />
    <path
       style="fill:#211e1e;fill-opacity:1;fill-rule:evenodd;stroke:none;stroke-width:2.05296"
       d="m 370.71543,-284.79322 c -0.71375,-0.47312 -1.13875,-1.26706 -1.13875,-2.11711 v -2.12514 c 0,-1.87654 1.52371,-3.39221 3.39221,-3.39221 1.87654,0 3.39221,1.51567 3.39221,3.39221 v 2.12514 c 0,0.85005 -0.42481,1.64399 -1.13874,2.11711 0.71369,0.47313 1.13874,1.26707 1.13874,2.12515 v 2.96716 c 0,1.87659 -1.51567,3.40024 -3.39221,3.40024 -1.8685,0 -3.39221,-1.52365 -3.39221,-3.40024 v -2.96716 c 0,-0.85808 0.42482,-1.65202 1.13875,-2.12515 z m 1.12275,5.09231 c 0,0.62553 0.50512,1.13077 1.13071,1.13077 0.62548,0 1.13072,-0.50513 1.13072,-1.13077 v -3.11148 c 0,-0.62554 -0.50513,-1.13078 -1.13072,-1.13078 -0.62553,0 -1.13071,0.50513 -1.13071,1.13078 z m 0,-7.07313 c 0,0.62554 0.50512,1.13078 1.13071,1.13078 0.62548,0 1.13072,-0.50513 1.13072,-1.13078 v -2.26143 c 0,-0.62553 -0.50513,-1.13072 -1.13072,-1.13072 -0.62553,0 -1.13071,0.50513 -1.13071,1.13072 v 2.26143"
       id="path1790" />
    <path
       style="fill:#211e1e;fill-opacity:1;fill-rule:evenodd;stroke:none;stroke-width:2.05296"
       d="m 378.62254,-279.70091 v -9.33456 c 0,-1.87654 1.5237,-3.39221 3.40024,-3.39221 1.87659,0 3.39221,1.51567 3.39221,3.39221 v 9.33456 c 0,1.87659 -1.51562,3.40024 -3.39221,3.40024 -1.87654,0 -3.40024,-1.52365 -3.40024,-3.40024 z m 2.26952,0 c 0,0.62553 0.50513,1.13077 1.13072,1.13077 0.62553,0 1.13077,-0.50513 1.13077,-1.13077 v -9.33456 c 0,-0.62553 -0.50512,-1.13072 -1.13077,-1.13072 -0.62547,0 -1.13072,0.50513 -1.13072,1.13072 v 9.33456"
       id="path1792" />
  </g>
</svg>
