<?xml version="1.0" encoding="UTF-8" standalone="no"?>
<svg
   xmlns:dc="http://purl.org/dc/elements/1.1/"
   xmlns:cc="http://creativecommons.org/ns#"
   xmlns:rdf="http://www.w3.org/1999/02/22-rdf-syntax-ns#"
   xmlns:svg="http://www.w3.org/2000/svg"
   xmlns="http://www.w3.org/2000/svg"
   xmlns:sodipodi="http://sodipodi.sourceforge.net/DTD/sodipodi-0.dtd"
   xmlns:inkscape="http://www.inkscape.org/namespaces/inkscape"
   width="171.97917mm"
   height="171.18047mm"
   viewBox="0 0 171.97916 171.18046"
   version="1.1"
   id="svg6774"
   inkscape:version="1.0 (4035a4fb49, 2020-05-01)"
   sodipodi:docname="Latvia_road_sign_524.svg">
  <defs
     id="defs6768" />
  <sodipodi:namedview
     showguides="false"
     id="base"
     pagecolor="#ffffff"
     bordercolor="#666666"
     borderopacity="1.0"
     inkscape:pageopacity="0.0"
     inkscape:pageshadow="2"
     inkscape:zoom="0.57959434"
     inkscape:cx="558.58887"
     inkscape:cy="384.96825"
     inkscape:document-units="mm"
     inkscape:current-layer="layer1"
     inkscape:document-rotation="0"
     showgrid="false"
     fit-margin-top="0"
     fit-margin-left="0"
     fit-margin-right="0"
     fit-margin-bottom="0"
     inkscape:window-width="1920"
     inkscape:window-height="1001"
     inkscape:window-x="-9"
     inkscape:window-y="-9"
     inkscape:window-maximized="1" />
  <metadata
     id="metadata6771">
    <rdf:RDF>
      <cc:Work
         rdf:about="">
        <dc:format>image/svg+xml</dc:format>
        <dc:type
           rdf:resource="http://purl.org/dc/dcmitype/StillImage" />
        <dc:title></dc:title>
      </cc:Work>
    </rdf:RDF>
  </metadata>
  <g
     inkscape:label="Layer 1"
     inkscape:groupmode="layer"
     id="layer1"
     transform="translate(272.22582,295.65973)">
    <g
       style="opacity:1;stroke-width:0.207035"
       transform="matrix(1.7039504,0,0,-1.7039504,-552.39255,35.658786)"
       id="g4252">
      <path
         id="path4254"
         d="m 174.75,194.19141 h 80.27344 c 5.54297,0 10.07812,-4.57813 10.07812,-10.17969 v -79.60156 c 0,-5.59766 -4.53515,-10.179691 -10.07812,-10.179691 H 174.75 c -5.54297,0 -10.07813,4.582031 -10.07813,10.179691 v 79.60156 c 0,5.60156 4.53516,10.17969 10.07813,10.17969 z"
         style="color:#000000;font-style:normal;font-variant:normal;font-weight:normal;font-stretch:normal;font-size:medium;line-height:normal;font-family:sans-serif;font-variant-ligatures:normal;font-variant-position:normal;font-variant-caps:normal;font-variant-numeric:normal;font-variant-alternates:normal;font-variant-east-asian:normal;font-feature-settings:normal;font-variation-settings:normal;text-indent:0;text-align:start;text-decoration:none;text-decoration-line:none;text-decoration-style:solid;text-decoration-color:#000000;letter-spacing:normal;word-spacing:normal;text-transform:none;writing-mode:lr-tb;direction:ltr;text-orientation:mixed;dominant-baseline:auto;baseline-shift:baseline;text-anchor:start;white-space:normal;shape-padding:0;shape-margin:0;inline-size:0;clip-rule:nonzero;display:inline;overflow:visible;visibility:visible;isolation:auto;mix-blend-mode:normal;color-interpolation:sRGB;color-interpolation-filters:linearRGB;solid-color:#000000;solid-opacity:1;vector-effect:none;fill:#ffffff;fill-opacity:1;fill-rule:nonzero;stroke:none;stroke-width:0.103518;stroke-linecap:butt;stroke-linejoin:miter;stroke-miterlimit:22.926;stroke-dasharray:none;stroke-dashoffset:0;stroke-opacity:1;color-rendering:auto;image-rendering:auto;shape-rendering:auto;text-rendering:auto;enable-background:accumulate;stop-color:#000000;stop-opacity:1" />
      <path
         id="path4256"
         d="m 174.75,93.980469 c -5.68074,0 -10.32812,4.696996 -10.32812,10.429691 v 79.60156 c 0,5.7365 4.64749,10.42969 10.32812,10.42969 h 80.27344 c 5.68062,0 10.32812,-4.69319 10.32812,-10.42969 v -79.60156 c 0,-5.732695 -4.64738,-10.429691 -10.32812,-10.429691 z m 0,0.5 h 80.27344 c 5.40519,0 9.82812,4.467058 9.82812,9.929691 v 79.60156 c 0,5.46662 -4.42281,9.92969 -9.82812,9.92969 H 174.75 c -5.40531,0 -9.82812,-4.46307 -9.82812,-9.92969 v -79.60156 c 0,-5.462632 4.42292,-9.929691 9.82812,-9.929691 z"
         style="color:#000000;font-style:normal;font-variant:normal;font-weight:normal;font-stretch:normal;font-size:medium;line-height:normal;font-family:sans-serif;font-variant-ligatures:normal;font-variant-position:normal;font-variant-caps:normal;font-variant-numeric:normal;font-variant-alternates:normal;font-variant-east-asian:normal;font-feature-settings:normal;font-variation-settings:normal;text-indent:0;text-align:start;text-decoration:none;text-decoration-line:none;text-decoration-style:solid;text-decoration-color:#000000;letter-spacing:normal;word-spacing:normal;text-transform:none;writing-mode:lr-tb;direction:ltr;text-orientation:mixed;dominant-baseline:auto;baseline-shift:baseline;text-anchor:start;white-space:normal;shape-padding:0;shape-margin:0;inline-size:0;clip-rule:nonzero;display:inline;overflow:visible;visibility:visible;isolation:auto;mix-blend-mode:normal;color-interpolation:sRGB;color-interpolation-filters:linearRGB;solid-color:#000000;solid-opacity:1;vector-effect:none;fill:#000000;fill-opacity:1;fill-rule:nonzero;stroke:none;stroke-width:0.103518;stroke-linecap:butt;stroke-linejoin:miter;stroke-miterlimit:22.926;stroke-dasharray:none;stroke-dashoffset:0;stroke-opacity:1;color-rendering:auto;image-rendering:auto;shape-rendering:auto;text-rendering:auto;enable-background:accumulate;stop-color:#000000;stop-opacity:1" />
    </g>
    <path
       transform="matrix(0.26458333,0,0,0.26458333,-272.22582,-295.65973)"
       d="M 324.58594 76.878906 C 278.25324 76.881892 231.92128 94.491323 196.70508 129.70703 C 126.26629 200.13955 126.25929 315.04224 196.69336 385.47461 C 267.12588 455.91329 382.04754 455.92032 452.48633 385.48633 C 522.91884 315.05392 522.90554 200.13215 452.47461 129.69336 L 452.47266 129.69727 C 417.25336 94.481022 370.91875 76.875958 324.58594 76.878906 z M 320.83008 125.29492 C 354.74106 125.16944 389.63772 138.10259 418.37891 164.0625 C 459.77312 210.82867 473.29984 276.69237 428.85547 338.57227 L 242.63086 152.52148 C 265.31116 134.46702 292.73228 125.39882 320.83008 125.29492 z M 322.07617 129.20312 C 296.19635 129.25679 270.49492 137.09887 249.0625 152.97852 L 427.55469 331.17969 C 463.30308 281.3634 458.80872 211.83227 414.07812 167.10156 C 388.91714 141.94053 355.35015 129.13431 322.07617 129.20312 z M 218.78516 176.33203 L 404.41211 362.00195 C 352.50442 404.14327 275.84576 398.44744 229.08594 351.6875 C 181.26785 303.8693 178.44917 227.67948 218.78516 176.33203 z M 219.55664 183.57227 C 183.23542 234.85761 187.66804 302.76287 232.75977 349.06836 C 276.47586 393.99832 350.16345 395.48106 397.46484 361.45703 L 219.55664 183.57227 z "
       style="fill:#babdbd;fill-opacity:1;fill-rule:evenodd;stroke:none;stroke-width:1.33333"
       id="path5875" />
    <path
       d="m -256.41743,-288.11158 c -4.46253,0 -8.13702,3.67449 -8.13702,8.13702 v 139.87703 c 0,4.46253 3.67058,8.14205 8.13702,8.14205 h 140.36128 c 4.46644,0 8.14451,-3.67556 8.14451,-8.14205 v -139.87703 c 0,-4.46644 -3.68199,-8.13702 -8.14451,-8.13702 z m 0,5.29156 h 124.16959 l -127.01505,127.01507 v -124.16961 c 0,-1.58113 1.26433,-2.84546 2.84546,-2.84546 z m 131.90475,0 h 7.13361 l -141.88382,141.89389 v -7.14371 z m 11.30947,3.55934 v 7.01127 l -105.92115,105.91876 h -3.64672 v 2.89535 h 0.75132 l -26.18825,26.18825 h -7.00132 z m 0,14.74397 v 124.41918 c 0,1.57727 -1.27567,2.85048 -2.85294,2.85048 h -124.42419 l 26.19076,-26.18825 h 0.99592 l -9.86426,16.05442 v 2.7107 h 13.93028 v -3.09513 h -9.86426 l 9.86426,-16.04939 v -2.51595 h -2.16654 z m -85.20168,97.98634 c -4.26652,0 -7.72767,3.46941 -7.72767,7.74264 v 6.57449 c 0,4.26661 3.46115,7.73525 7.72767,7.73525 4.27319,0 7.74265,-3.46864 7.74265,-7.73525 v -6.57449 c 0,-4.27323 -3.46946,-7.74264 -7.74265,-7.74264 z m 11.99588,0.19996 v 21.66047 h 3.28727 v -15.47041 l 9.86426,15.47041 h 3.09508 v -21.66047 h -3.28727 v 15.47027 l -9.86431,-15.47027 z m 27.26903,0 -7.92739,21.66047 h 3.47448 l 1.62991,-4.83236 h 8.3467 l 1.63238,4.83236 h 3.47946 l -7.92735,-21.66047 z m -39.26491,3.09498 c 2.45611,0 4.44789,1.99184 4.44789,4.44794 v 6.57449 c 0,2.4561 -1.99178,4.44794 -4.44789,4.44794 -2.45605,0 -4.44542,-1.99184 -4.44542,-4.44794 v -6.57449 c 0,-2.4561 1.98937,-4.44794 4.44542,-4.44794 z m 40.62275,1.35287 3.18743,9.46993 h -6.38983 z"
       style="color:#000000;font-style:normal;font-variant:normal;font-weight:normal;font-stretch:normal;font-size:medium;line-height:normal;font-family:sans-serif;font-variant-ligatures:normal;font-variant-position:normal;font-variant-caps:normal;font-variant-numeric:normal;font-variant-alternates:normal;font-variant-east-asian:normal;font-feature-settings:normal;font-variation-settings:normal;text-indent:0;text-align:start;text-decoration:none;text-decoration-line:none;text-decoration-style:solid;text-decoration-color:#000000;letter-spacing:normal;word-spacing:normal;text-transform:none;writing-mode:lr-tb;direction:ltr;text-orientation:mixed;dominant-baseline:auto;baseline-shift:baseline;text-anchor:start;white-space:normal;shape-padding:0;shape-margin:0;inline-size:0;clip-rule:nonzero;display:inline;overflow:visible;visibility:visible;opacity:1;isolation:auto;mix-blend-mode:normal;color-interpolation:sRGB;color-interpolation-filters:linearRGB;solid-color:#000000;solid-opacity:1;vector-effect:none;fill:#000000;fill-opacity:1;fill-rule:nonzero;stroke:none;stroke-width:1.09502;stroke-linecap:round;stroke-linejoin:round;stroke-miterlimit:22.926;stroke-dasharray:none;stroke-dashoffset:0;stroke-opacity:1;color-rendering:auto;image-rendering:auto;shape-rendering:auto;text-rendering:auto;enable-background:accumulate;stop-color:#000000;stop-opacity:1"
       id="path4224" />
  </g>
</svg>
