<?xml version="1.0" encoding="UTF-8" standalone="no"?>
<svg
   xmlns:dc="http://purl.org/dc/elements/1.1/"
   xmlns:cc="http://creativecommons.org/ns#"
   xmlns:rdf="http://www.w3.org/1999/02/22-rdf-syntax-ns#"
   xmlns:svg="http://www.w3.org/2000/svg"
   xmlns="http://www.w3.org/2000/svg"
   xmlns:sodipodi="http://sodipodi.sourceforge.net/DTD/sodipodi-0.dtd"
   xmlns:inkscape="http://www.inkscape.org/namespaces/inkscape"
   sodipodi:docname="Latvia_road_sign_554.svg"
   inkscape:version="1.0 (4035a4fb49, 2020-05-01)"
   id="svg6774"
   version="1.1"
   viewBox="0 0 158.74999 158.73614"
   height="158.73615mm"
   width="158.75mm">
  <defs
     id="defs6768" />
  <sodipodi:namedview
     inkscape:window-maximized="1"
     inkscape:window-y="-9"
     inkscape:window-x="-9"
     inkscape:window-height="1001"
     inkscape:window-width="1920"
     fit-margin-bottom="0"
     fit-margin-right="0"
     fit-margin-left="0"
     fit-margin-top="0"
     showgrid="false"
     inkscape:document-rotation="0"
     inkscape:current-layer="layer1"
     inkscape:document-units="mm"
     inkscape:cy="821.30844"
     inkscape:cx="-606.01928"
     inkscape:zoom="0.28979717"
     inkscape:pageshadow="2"
     inkscape:pageopacity="0.0"
     borderopacity="1.0"
     bordercolor="#666666"
     pagecolor="#ffffff"
     id="base" />
  <metadata
     id="metadata6771">
    <rdf:RDF>
      <cc:Work
         rdf:about="">
        <dc:format>image/svg+xml</dc:format>
        <dc:type
           rdf:resource="http://purl.org/dc/dcmitype/StillImage" />
        <dc:title></dc:title>
      </cc:Work>
    </rdf:RDF>
  </metadata>
  <g
     transform="translate(462.30128,292.1424)"
     id="layer1"
     inkscape:groupmode="layer"
     inkscape:label="Layer 1">
    <g
       transform="matrix(7.0715152,0,0,7.0715152,2714.867,1607.4986)"
       style="opacity:1;stroke-width:0.141412"
       id="g3362">
      <path
         id="path3364"
         d="m -447.58847,-268.54514 h 19.04586 c 0.88746,0 1.61231,0.72623 1.61231,1.61231 v 19.04724 c 0,0.88608 -0.72485,1.61231 -1.61231,1.61231 h -19.04586 c -0.88746,0 -1.61369,-0.72623 -1.61369,-1.61231 v -19.04724 c 0,-0.88608 0.72623,-1.61231 1.61369,-1.61231 z m 0,0"
         style="color:#000000;font-style:normal;font-variant:normal;font-weight:normal;font-stretch:normal;font-size:medium;line-height:normal;font-family:sans-serif;font-variant-ligatures:normal;font-variant-position:normal;font-variant-caps:normal;font-variant-numeric:normal;font-variant-alternates:normal;font-variant-east-asian:normal;font-feature-settings:normal;font-variation-settings:normal;text-indent:0;text-align:start;text-decoration:none;text-decoration-line:none;text-decoration-style:solid;text-decoration-color:#000000;letter-spacing:normal;word-spacing:normal;text-transform:none;writing-mode:lr-tb;direction:ltr;text-orientation:mixed;dominant-baseline:auto;baseline-shift:baseline;text-anchor:start;white-space:normal;shape-padding:0;shape-margin:0;inline-size:0;clip-rule:nonzero;display:inline;overflow:visible;visibility:visible;isolation:auto;mix-blend-mode:normal;color-interpolation:sRGB;color-interpolation-filters:linearRGB;solid-color:#000000;solid-opacity:1;vector-effect:none;fill:#ffffff;fill-opacity:1;fill-rule:nonzero;stroke:none;stroke-width:0.0249436;stroke-linecap:butt;stroke-linejoin:miter;stroke-miterlimit:22.926;stroke-dasharray:none;stroke-dashoffset:0;stroke-opacity:1;color-rendering:auto;image-rendering:auto;shape-rendering:auto;text-rendering:auto;enable-background:accumulate;stop-color:#000000;stop-opacity:1" />
      <path
         id="path3366"
         d="m -447.58789,-268.63281 c -0.93558,0 -1.70313,0.76495 -1.70313,1.69922 v 19.04882 c 0,0.93427 0.76755,1.69922 1.70313,1.69922 h 19.04492 c 0.93558,0 1.70117,-0.76504 1.70117,-1.69922 v -19.04882 c 0,-0.93418 -0.76559,-1.69922 -1.70117,-1.69922 z m 0,0.17578 h 19.04492 c 0.83935,0 1.52539,0.68545 1.52539,1.52344 v 19.04882 c 0,0.83799 -0.68604,1.52344 -1.52539,1.52344 h -19.04492 c -0.83935,0 -1.52539,-0.68555 -1.52539,-1.52344 v -19.04882 c 0,-0.83789 0.68604,-1.52344 1.52539,-1.52344 z"
         style="color:#000000;font-style:normal;font-variant:normal;font-weight:normal;font-stretch:normal;font-size:medium;line-height:normal;font-family:sans-serif;font-variant-ligatures:normal;font-variant-position:normal;font-variant-caps:normal;font-variant-numeric:normal;font-variant-alternates:normal;font-variant-east-asian:normal;font-feature-settings:normal;font-variation-settings:normal;text-indent:0;text-align:start;text-decoration:none;text-decoration-line:none;text-decoration-style:solid;text-decoration-color:#000000;letter-spacing:normal;word-spacing:normal;text-transform:none;writing-mode:lr-tb;direction:ltr;text-orientation:mixed;dominant-baseline:auto;baseline-shift:baseline;text-anchor:start;white-space:normal;shape-padding:0;shape-margin:0;inline-size:0;clip-rule:nonzero;display:inline;overflow:visible;visibility:visible;isolation:auto;mix-blend-mode:normal;color-interpolation:sRGB;color-interpolation-filters:linearRGB;solid-color:#000000;solid-opacity:1;vector-effect:none;fill:#211e1e;fill-opacity:1;fill-rule:nonzero;stroke:none;stroke-width:0.0249436;stroke-linecap:butt;stroke-linejoin:miter;stroke-miterlimit:22.926;stroke-dasharray:none;stroke-dashoffset:0;stroke-opacity:1;color-rendering:auto;image-rendering:auto;shape-rendering:auto;text-rendering:auto;enable-background:accumulate;stop-color:#000000;stop-opacity:1" />
    </g>
    <path
       style="fill:#263894;fill-opacity:1;fill-rule:evenodd;stroke:none;stroke-width:0.352777"
       d="m -314.80868,-286.35764 h -136.26181 c -2.60189,0.0566 -5.38892,1.91978 -5.38892,5.6715 v 136.0474 c 0,2.329 1.9685,5.4474 5.76894,5.4474 h 135.81355 c 3.41066,0 5.49605,-3.12809 5.48636,-5.61302 l 0.007,-135.89154 c 0.0495,-3.79068 -2.81623,-5.55453 -5.42788,-5.66174"
       id="path1968" />
    <path
       style="fill:#ffffff;fill-opacity:1;fill-rule:evenodd;stroke:none;stroke-width:0.352777"
       d="m -397.08421,-280.77383 h 11.31372 v 22.62744 l 48.08093,16.96576 v 56.57842 l -48.08093,16.9657 v 22.6275 h -11.31372 v -31.10547 l 48.08093,-16.97546 v -39.60296 l -48.08093,-16.96569 v -31.11524"
       id="path1970" />
    <path
       style="fill:#ffffff;fill-opacity:1;fill-rule:nonzero;stroke:none;stroke-width:0.352777"
       d="m -422.54739,-255.32033 h 11.31372 v -25.4535 h -11.31372 z m 0,0"
       id="path1972" />
    <path
       style="fill:#ffffff;fill-opacity:1;fill-rule:nonzero;stroke:none;stroke-width:0.352777"
       d="m -422.54739,-218.54343 h 11.31372 v -25.46319 h -11.31372 z m 0,0"
       id="path1974" />
    <path
       style="fill:#ffffff;fill-opacity:1;fill-rule:nonzero;stroke:none;stroke-width:0.352777"
       d="m -422.54739,-181.77622 h 11.31372 v -25.4535 h -11.31372 z m 0,0"
       id="path1976" />
    <path
       style="fill:#ffffff;fill-opacity:1;fill-rule:nonzero;stroke:none;stroke-width:0.352777"
       d="m -422.54739,-144.99932 h 11.31372 v -25.46318 h -11.31372 z m 0,0"
       id="path1978" />
  </g>
</svg>
