<?xml version="1.0" encoding="UTF-8" standalone="no"?>
<svg
   xmlns:dc="http://purl.org/dc/elements/1.1/"
   xmlns:cc="http://creativecommons.org/ns#"
   xmlns:rdf="http://www.w3.org/1999/02/22-rdf-syntax-ns#"
   xmlns:svg="http://www.w3.org/2000/svg"
   xmlns="http://www.w3.org/2000/svg"
   xmlns:sodipodi="http://sodipodi.sourceforge.net/DTD/sodipodi-0.dtd"
   xmlns:inkscape="http://www.inkscape.org/namespaces/inkscape"
   width="171.97917mm"
   height="171.18047mm"
   viewBox="0 0 171.97916 171.18046"
   version="1.1"
   id="svg6774"
   inkscape:version="1.0 (4035a4fb49, 2020-05-01)"
   sodipodi:docname="Latvia_road_sign_526.svg">
  <defs
     id="defs6768" />
  <sodipodi:namedview
     id="base"
     pagecolor="#ffffff"
     bordercolor="#666666"
     borderopacity="1.0"
     inkscape:pageopacity="0.0"
     inkscape:pageshadow="2"
     inkscape:zoom="1.1591887"
     inkscape:cx="162.80914"
     inkscape:cy="259.55958"
     inkscape:document-units="mm"
     inkscape:current-layer="layer1"
     inkscape:document-rotation="0"
     showgrid="false"
     fit-margin-top="0"
     fit-margin-left="0"
     fit-margin-right="0"
     fit-margin-bottom="0"
     inkscape:window-width="1920"
     inkscape:window-height="1001"
     inkscape:window-x="-9"
     inkscape:window-y="-9"
     inkscape:window-maximized="1" />
  <metadata
     id="metadata6771">
    <rdf:RDF>
      <cc:Work
         rdf:about="">
        <dc:format>image/svg+xml</dc:format>
        <dc:type
           rdf:resource="http://purl.org/dc/dcmitype/StillImage" />
        <dc:title></dc:title>
      </cc:Work>
    </rdf:RDF>
  </metadata>
  <g
     inkscape:label="Layer 1"
     inkscape:groupmode="layer"
     id="layer1"
     transform="translate(272.22582,295.65973)">
    <g
       style="opacity:1;stroke-width:0.207035"
       transform="matrix(1.7039504,0,0,-1.7039504,-552.39255,35.658786)"
       id="g4252">
      <path
         id="path4254"
         d="m 174.75,194.19141 h 80.27344 c 5.54297,0 10.07812,-4.57813 10.07812,-10.17969 v -79.60156 c 0,-5.59766 -4.53515,-10.179691 -10.07812,-10.179691 H 174.75 c -5.54297,0 -10.07813,4.582031 -10.07813,10.179691 v 79.60156 c 0,5.60156 4.53516,10.17969 10.07813,10.17969 z"
         style="color:#000000;font-style:normal;font-variant:normal;font-weight:normal;font-stretch:normal;font-size:medium;line-height:normal;font-family:sans-serif;font-variant-ligatures:normal;font-variant-position:normal;font-variant-caps:normal;font-variant-numeric:normal;font-variant-alternates:normal;font-variant-east-asian:normal;font-feature-settings:normal;font-variation-settings:normal;text-indent:0;text-align:start;text-decoration:none;text-decoration-line:none;text-decoration-style:solid;text-decoration-color:#000000;letter-spacing:normal;word-spacing:normal;text-transform:none;writing-mode:lr-tb;direction:ltr;text-orientation:mixed;dominant-baseline:auto;baseline-shift:baseline;text-anchor:start;white-space:normal;shape-padding:0;shape-margin:0;inline-size:0;clip-rule:nonzero;display:inline;overflow:visible;visibility:visible;isolation:auto;mix-blend-mode:normal;color-interpolation:sRGB;color-interpolation-filters:linearRGB;solid-color:#000000;solid-opacity:1;vector-effect:none;fill:#ffffff;fill-opacity:1;fill-rule:nonzero;stroke:none;stroke-width:0.103518;stroke-linecap:butt;stroke-linejoin:miter;stroke-miterlimit:22.926;stroke-dasharray:none;stroke-dashoffset:0;stroke-opacity:1;color-rendering:auto;image-rendering:auto;shape-rendering:auto;text-rendering:auto;enable-background:accumulate;stop-color:#000000;stop-opacity:1" />
      <path
         id="path4256"
         d="m 174.75,93.980469 c -5.68074,0 -10.32812,4.696996 -10.32812,10.429691 v 79.60156 c 0,5.7365 4.64749,10.42969 10.32812,10.42969 h 80.27344 c 5.68062,0 10.32812,-4.69319 10.32812,-10.42969 v -79.60156 c 0,-5.732695 -4.64738,-10.429691 -10.32812,-10.429691 z m 0,0.5 h 80.27344 c 5.40519,0 9.82812,4.467058 9.82812,9.929691 v 79.60156 c 0,5.46662 -4.42281,9.92969 -9.82812,9.92969 H 174.75 c -5.40531,0 -9.82812,-4.46307 -9.82812,-9.92969 v -79.60156 c 0,-5.462632 4.42292,-9.929691 9.82812,-9.929691 z"
         style="color:#000000;font-style:normal;font-variant:normal;font-weight:normal;font-stretch:normal;font-size:medium;line-height:normal;font-family:sans-serif;font-variant-ligatures:normal;font-variant-position:normal;font-variant-caps:normal;font-variant-numeric:normal;font-variant-alternates:normal;font-variant-east-asian:normal;font-feature-settings:normal;font-variation-settings:normal;text-indent:0;text-align:start;text-decoration:none;text-decoration-line:none;text-decoration-style:solid;text-decoration-color:#000000;letter-spacing:normal;word-spacing:normal;text-transform:none;writing-mode:lr-tb;direction:ltr;text-orientation:mixed;dominant-baseline:auto;baseline-shift:baseline;text-anchor:start;white-space:normal;shape-padding:0;shape-margin:0;inline-size:0;clip-rule:nonzero;display:inline;overflow:visible;visibility:visible;isolation:auto;mix-blend-mode:normal;color-interpolation:sRGB;color-interpolation-filters:linearRGB;solid-color:#000000;solid-opacity:1;vector-effect:none;fill:#000000;fill-opacity:1;fill-rule:nonzero;stroke:none;stroke-width:0.103518;stroke-linecap:butt;stroke-linejoin:miter;stroke-miterlimit:22.926;stroke-dasharray:none;stroke-dashoffset:0;stroke-opacity:1;color-rendering:auto;image-rendering:auto;shape-rendering:auto;text-rendering:auto;enable-background:accumulate;stop-color:#000000;stop-opacity:1" />
    </g>
    <path
       id="path5915"
       style="fill:#babdbd;fill-opacity:1;fill-rule:evenodd;stroke:none;stroke-width:0.352777"
       d="m -186.34155,-275.31873 c -26.33775,0 -47.81827,21.47701 -47.81827,47.8131 0,26.33441 21.48052,47.81517 47.81827,47.81517 26.32944,0 47.81,-21.48076 47.81,-47.81517 0,-26.33609 -21.48056,-47.8131 -47.81,-47.8131 z m -0.0284,12.68191 c 19.38305,0 35.18648,15.80292 35.18648,35.18597 0,19.37806 -15.80343,35.18441 -35.18648,35.18441 -19.37807,0 -35.1839,-15.80635 -35.1839,-35.18441 0,-19.38305 15.80583,-35.18597 35.1839,-35.18597 z m 12.23026,14.04307 c -5.14229,0 -9.30899,4.16665 -9.30899,9.30899 v 25.59999 c 0,5.13238 4.1667,9.309 9.30899,9.309 5.14066,0 9.29711,-4.17662 9.29711,-9.309 v -25.59999 c 0,-5.14234 -4.15645,-9.30899 -9.29711,-9.30899 z m -33.353,0.39274 v 23.26525 l 5.52576,0.0238 c 0.34469,-1.37999 1.58583,-2.34405 3.00395,-2.34405 1.71463,0 3.10162,1.38811 3.10162,3.10111 v 10.47171 c 0,1.71299 -1.38699,3.1011 -3.10162,3.1011 -1.71304,0 -3.1011,-1.38811 -3.1011,-3.1011 v -1.94149 h -6.20789 v 1.94149 c 0,5.13234 4.17824,9.30899 9.30899,9.30899 5.14229,0 9.30899,-4.17665 9.30899,-9.30899 v -11.63392 c 0,-1.882 -0.70897,-3.68462 -1.98954,-5.0431 -2.7882,-2.97539 -7.44681,-3.12307 -10.42055,-0.33486 v -11.69181 h 12.41009 v -5.81257 z m 33.353,5.81205 c 1.71299,0 3.10162,1.38952 3.10162,3.1042 v 25.59948 c 0,1.71299 -1.38863,3.10161 -3.10162,3.10162 -1.71467,0 -3.10369,-1.38863 -3.10369,-3.10162 v -25.59948 c 0,-1.71468 1.38902,-3.1042 3.10369,-3.1042 z" />
    <path
       id="path3593"
       d="m -128.66806,-286.79383 h 6.8824 v -2.75562 h -6.8824 z m 0,0"
       style="fill:#ffffff;fill-opacity:1;fill-rule:nonzero;stroke:none;stroke-width:0.352777" />
    <path
       id="path3595"
       d="m -109.30556,-268.23009 h 1.5109 v -6.70268 h -1.5109 z m 0,0"
       style="fill:#ffffff;fill-opacity:1;fill-rule:nonzero;stroke:none;stroke-width:0.352777" />
    <path
       d="m -256.41743,-288.11158 c -4.46253,0 -8.13702,3.67449 -8.13702,8.13702 v 139.87703 c 0,4.46253 3.67058,8.14205 8.13702,8.14205 h 140.36128 c 4.46644,0 8.14451,-3.67556 8.14451,-8.14205 v -139.87703 c 0,-4.46644 -3.68199,-8.13702 -8.14451,-8.13702 z m 0,5.29156 h 124.16959 l -127.01505,127.01507 v -124.16961 c 0,-1.58113 1.26433,-2.84546 2.84546,-2.84546 z m 131.90475,0 h 7.13361 l -141.88382,141.89389 v -7.14371 z m 11.30947,3.55934 v 7.01127 l -105.92115,105.91876 h -3.64672 v 2.89535 h 0.75132 l -26.18825,26.18825 h -7.00132 z m 0,14.74397 v 124.41918 c 0,1.57727 -1.27567,2.85048 -2.85294,2.85048 h -124.42419 l 26.19076,-26.18825 h 0.99592 l -9.86426,16.05442 v 2.7107 h 13.93028 v -3.09513 h -9.86426 l 9.86426,-16.04939 v -2.51595 h -2.16654 z m -85.20168,97.98634 c -4.26652,0 -7.72767,3.46941 -7.72767,7.74264 v 6.57449 c 0,4.26661 3.46115,7.73525 7.72767,7.73525 4.27319,0 7.74265,-3.46864 7.74265,-7.73525 v -6.57449 c 0,-4.27323 -3.46946,-7.74264 -7.74265,-7.74264 z m 11.99588,0.19996 v 21.66047 h 3.28727 v -15.47041 l 9.86426,15.47041 h 3.09508 v -21.66047 h -3.28727 v 15.47027 l -9.86431,-15.47027 z m 27.26903,0 -7.92739,21.66047 h 3.47448 l 1.62991,-4.83236 h 8.3467 l 1.63238,4.83236 h 3.47946 l -7.92735,-21.66047 z m -39.26491,3.09498 c 2.45611,0 4.44789,1.99184 4.44789,4.44794 v 6.57449 c 0,2.4561 -1.99178,4.44794 -4.44789,4.44794 -2.45605,0 -4.44542,-1.99184 -4.44542,-4.44794 v -6.57449 c 0,-2.4561 1.98937,-4.44794 4.44542,-4.44794 z m 40.62275,1.35287 3.18743,9.46993 h -6.38983 z"
       style="color:#000000;font-style:normal;font-variant:normal;font-weight:normal;font-stretch:normal;font-size:medium;line-height:normal;font-family:sans-serif;font-variant-ligatures:normal;font-variant-position:normal;font-variant-caps:normal;font-variant-numeric:normal;font-variant-alternates:normal;font-variant-east-asian:normal;font-feature-settings:normal;font-variation-settings:normal;text-indent:0;text-align:start;text-decoration:none;text-decoration-line:none;text-decoration-style:solid;text-decoration-color:#000000;letter-spacing:normal;word-spacing:normal;text-transform:none;writing-mode:lr-tb;direction:ltr;text-orientation:mixed;dominant-baseline:auto;baseline-shift:baseline;text-anchor:start;white-space:normal;shape-padding:0;shape-margin:0;inline-size:0;clip-rule:nonzero;display:inline;overflow:visible;visibility:visible;opacity:1;isolation:auto;mix-blend-mode:normal;color-interpolation:sRGB;color-interpolation-filters:linearRGB;solid-color:#000000;solid-opacity:1;vector-effect:none;fill:#000000;fill-opacity:1;fill-rule:nonzero;stroke:none;stroke-width:1.09502;stroke-linecap:round;stroke-linejoin:round;stroke-miterlimit:22.926;stroke-dasharray:none;stroke-dashoffset:0;stroke-opacity:1;color-rendering:auto;image-rendering:auto;shape-rendering:auto;text-rendering:auto;enable-background:accumulate;stop-color:#000000;stop-opacity:1"
       id="path4224" />
  </g>
</svg>
