<?xml version="1.0" encoding="UTF-8" standalone="no"?>
<svg
   xmlns:dc="http://purl.org/dc/elements/1.1/"
   xmlns:cc="http://creativecommons.org/ns#"
   xmlns:rdf="http://www.w3.org/1999/02/22-rdf-syntax-ns#"
   xmlns:svg="http://www.w3.org/2000/svg"
   xmlns="http://www.w3.org/2000/svg"
   xmlns:sodipodi="http://sodipodi.sourceforge.net/DTD/sodipodi-0.dtd"
   xmlns:inkscape="http://www.inkscape.org/namespaces/inkscape"
   width="158.75mm"
   height="158.73615mm"
   viewBox="0 0 158.74999 158.73614"
   version="1.1"
   id="svg6774"
   inkscape:version="1.0 (4035a4fb49, 2020-05-01)"
   sodipodi:docname="Latvia_road_sign_545.svg">
  <defs
     id="defs6768" />
  <sodipodi:namedview
     id="base"
     pagecolor="#ffffff"
     bordercolor="#666666"
     borderopacity="1.0"
     inkscape:pageopacity="0.0"
     inkscape:pageshadow="2"
     inkscape:zoom="0.81967018"
     inkscape:cx="385.56131"
     inkscape:cy="162.25748"
     inkscape:document-units="mm"
     inkscape:current-layer="layer1"
     inkscape:document-rotation="0"
     showgrid="false"
     fit-margin-top="0"
     fit-margin-left="0"
     fit-margin-right="0"
     fit-margin-bottom="0"
     inkscape:window-width="1920"
     inkscape:window-height="1001"
     inkscape:window-x="-9"
     inkscape:window-y="-9"
     inkscape:window-maximized="1" />
  <metadata
     id="metadata6771">
    <rdf:RDF>
      <cc:Work
         rdf:about="">
        <dc:format>image/svg+xml</dc:format>
        <dc:type
           rdf:resource="http://purl.org/dc/dcmitype/StillImage" />
        <dc:title></dc:title>
      </cc:Work>
    </rdf:RDF>
  </metadata>
  <g
     inkscape:label="Layer 1"
     inkscape:groupmode="layer"
     id="layer1"
     transform="translate(462.30128,292.1424)">
    <g
       id="g3362"
       style="opacity:1;stroke-width:0.141412"
       transform="matrix(7.0715152,0,0,7.0715152,2714.867,1607.4986)">
      <path
         style="color:#000000;font-style:normal;font-variant:normal;font-weight:normal;font-stretch:normal;font-size:medium;line-height:normal;font-family:sans-serif;font-variant-ligatures:normal;font-variant-position:normal;font-variant-caps:normal;font-variant-numeric:normal;font-variant-alternates:normal;font-variant-east-asian:normal;font-feature-settings:normal;font-variation-settings:normal;text-indent:0;text-align:start;text-decoration:none;text-decoration-line:none;text-decoration-style:solid;text-decoration-color:#000000;letter-spacing:normal;word-spacing:normal;text-transform:none;writing-mode:lr-tb;direction:ltr;text-orientation:mixed;dominant-baseline:auto;baseline-shift:baseline;text-anchor:start;white-space:normal;shape-padding:0;shape-margin:0;inline-size:0;clip-rule:nonzero;display:inline;overflow:visible;visibility:visible;isolation:auto;mix-blend-mode:normal;color-interpolation:sRGB;color-interpolation-filters:linearRGB;solid-color:#000000;solid-opacity:1;vector-effect:none;fill:#ffffff;fill-opacity:1;fill-rule:nonzero;stroke:none;stroke-width:0.0249436;stroke-linecap:butt;stroke-linejoin:miter;stroke-miterlimit:22.926;stroke-dasharray:none;stroke-dashoffset:0;stroke-opacity:1;color-rendering:auto;image-rendering:auto;shape-rendering:auto;text-rendering:auto;enable-background:accumulate;stop-color:#000000;stop-opacity:1"
         d="m -447.58847,-268.54514 h 19.04586 c 0.88746,0 1.61231,0.72623 1.61231,1.61231 v 19.04724 c 0,0.88608 -0.72485,1.61231 -1.61231,1.61231 h -19.04586 c -0.88746,0 -1.61369,-0.72623 -1.61369,-1.61231 v -19.04724 c 0,-0.88608 0.72623,-1.61231 1.61369,-1.61231 z m 0,0"
         id="path3364" />
      <path
         style="color:#000000;font-style:normal;font-variant:normal;font-weight:normal;font-stretch:normal;font-size:medium;line-height:normal;font-family:sans-serif;font-variant-ligatures:normal;font-variant-position:normal;font-variant-caps:normal;font-variant-numeric:normal;font-variant-alternates:normal;font-variant-east-asian:normal;font-feature-settings:normal;font-variation-settings:normal;text-indent:0;text-align:start;text-decoration:none;text-decoration-line:none;text-decoration-style:solid;text-decoration-color:#000000;letter-spacing:normal;word-spacing:normal;text-transform:none;writing-mode:lr-tb;direction:ltr;text-orientation:mixed;dominant-baseline:auto;baseline-shift:baseline;text-anchor:start;white-space:normal;shape-padding:0;shape-margin:0;inline-size:0;clip-rule:nonzero;display:inline;overflow:visible;visibility:visible;isolation:auto;mix-blend-mode:normal;color-interpolation:sRGB;color-interpolation-filters:linearRGB;solid-color:#000000;solid-opacity:1;vector-effect:none;fill:#211e1e;fill-opacity:1;fill-rule:nonzero;stroke:none;stroke-width:0.0249436;stroke-linecap:butt;stroke-linejoin:miter;stroke-miterlimit:22.926;stroke-dasharray:none;stroke-dashoffset:0;stroke-opacity:1;color-rendering:auto;image-rendering:auto;shape-rendering:auto;text-rendering:auto;enable-background:accumulate;stop-color:#000000;stop-opacity:1"
         d="m -447.58789,-268.63281 c -0.93558,0 -1.70313,0.76495 -1.70313,1.69922 v 19.04882 c 0,0.93427 0.76755,1.69922 1.70313,1.69922 h 19.04492 c 0.93558,0 1.70117,-0.76504 1.70117,-1.69922 v -19.04882 c 0,-0.93418 -0.76559,-1.69922 -1.70117,-1.69922 z m 0,0.17578 h 19.04492 c 0.83935,0 1.52539,0.68545 1.52539,1.52344 v 19.04882 c 0,0.83799 -0.68604,1.52344 -1.52539,1.52344 h -19.04492 c -0.83935,0 -1.52539,-0.68555 -1.52539,-1.52344 v -19.04882 c 0,-0.83789 0.68604,-1.52344 1.52539,-1.52344 z"
         id="path3366" />
    </g>
    <path
       sodipodi:nodetypes="ccssssccc"
       id="path1968"
       d="m -314.80868,-286.3574 h -136.26181 c -2.60189,0.0566 -5.38892,1.91954 -5.38892,5.67126 v 136.0474 c 0,2.329 1.9685,5.4474 5.76894,5.4474 h 135.81355 c 3.41066,0 5.49605,-3.12809 5.48636,-5.61302 l 0.007,-135.89154 c 0.0495,-3.79068 -2.81623,-5.55453 -5.42788,-5.66174"
       style="fill:#263894;fill-opacity:1;fill-rule:evenodd;stroke:none;stroke-width:0.352777" />
    <path
       sodipodi:nodetypes="ccccc"
       id="path1974"
       d="m -437.7824,-157.64628 h 109.75147 v -109.98699 l -109.75147,0 z"
       style="fill:#ffffff;fill-opacity:1;fill-rule:nonzero;stroke:none;stroke-width:0.352777" />
    <path
       d="m -382.94223,-258.31203 c -23.50104,0 -46.99959,16.12766 -46.99959,48.38298 v 44.06341 h 94.00288 v -44.06341 c 0,-32.25532 -23.50225,-48.38298 -47.00329,-48.38298 z m -1.42754,2.99492 0.0214,18.24939 c -2.57057,0.10822 -5.12285,0.56817 -7.54625,1.37243 l -0.11748,0.0997 -7.02379,-16.98376 c 4.68988,-1.67773 9.67168,-2.59029 14.66573,-2.73739 z m 2.84775,0.007 c 4.99404,0.15663 9.95747,1.08792 14.64736,2.78516 l -6.95758,16.9948 c -2.49211,-0.87319 -5.09215,-1.37607 -7.71185,-1.52324 z m -20.16266,3.78601 7.01276,16.9248 c -2.34488,1.09889 -4.52058,2.53996 -6.42408,4.34528 l -13.05051,-12.95851 c 3.64988,-3.55177 7.89954,-6.31017 12.46183,-8.31157 z m 37.53637,0.0883 c 4.49366,1.97208 8.77394,4.77939 12.38459,8.25269 l -13.03947,13.03947 c -1.9525,-1.81515 -4.09274,-3.23899 -6.45719,-4.33787 z m -51.95924,10.28365 13.09835,13.09835 -0.0812,-0.0427 c -1.49134,1.83466 -2.81343,4.23983 -3.74557,6.66324 l -17.0131,-7.04586 h 0.007 c 1.87404,-4.8273 4.60409,-9.14311 7.73393,-12.67522 z m 66.3233,0.007 c 3.19855,3.57141 5.81825,7.71185 7.71186,12.62744 l 0.0285,0.0427 -16.99109,7.03482 c -0.93207,-2.49189 -2.27631,-4.72904 -3.82652,-6.62272 h 0.007 z m 8.66479,15.34639 c 1.21658,3.90498 2.05182,8.23068 2.27752,12.94022 l -18.45545,0.0214 c -0.0983,-2.03095 -0.43146,-4.10242 -0.88308,-5.86851 v -0.007 z m -83.66391,0.0142 17.09405,7.07534 c -0.46137,1.83473 -0.79466,3.7885 -0.88302,5.86851 h -18.41863 c 0.21573,-4.70953 0.99095,-9.01922 2.2076,-12.94385 z m -2.26648,15.78797 h 18.48485 l 0.007,0.0712 -0.007,11.2145 v 0.10679 h -18.48485 z m 69.74143,0 h 18.47381 v 11.39114 h -18.47381 z m -69.74143,14.23526 h 18.48485 v 11.39114 h -18.48485 z m 69.74143,0 h 18.47381 v 11.39114 h -18.47381 z m -69.74143,14.23896 h 18.48485 l -0.007,12.81135 -18.47745,-0.007 z m 69.74143,0 h 18.47381 v 12.80402 l -18.47381,0.007 z"
       style="fill:#000000;fill-opacity:1;fill-rule:evenodd;stroke:none;stroke-width:0.352777;opacity:0.96393443"
       id="path6359" />
    <path
       sodipodi:nodetypes="csssssscccsssssccc"
       style="opacity:1;fill:#d40000;fill-opacity:1;fill-rule:evenodd;stroke:none;stroke-width:0.352777"
       d="m -446.91561,-139.2074 c -1.38799,0.005 -3.89327,0.0841 -4.69341,-0.0479 -0.33777,-0.0557 -0.6491,-0.13095 -0.9419,-0.21185 -0.52081,-0.1439 -0.88319,-0.33866 -1.21207,-0.54752 -0.34032,-0.21612 -0.643,-0.44839 -0.94013,-0.71986 -0.75926,-0.69369 -1.42349,-1.76661 -1.62988,-2.83385 -0.0437,-0.22614 -0.10938,-0.4877 -0.11955,-0.82562 -0.0249,-0.8257 0.0458,-3.77856 -0.0152,-4.50089 l 0.007,-3.52575 133.26523,-133.93676 h 4.20758 c 1.58205,0 3.95337,-0.0744 4.96538,0.0797 1.53907,0.23428 2.62471,0.93835 3.44409,1.92645 0.57382,0.69197 0.94007,1.45624 1.10002,2.48766 0.19252,1.24147 0.0743,3.87285 0.0743,5.28181 v 3.80819 l -135.7805,133.56624 h -1.73364"
       id="path5614" />
  </g>
</svg>
