<?xml version="1.0" encoding="UTF-8" standalone="no"?>
<svg
   xmlns:dc="http://purl.org/dc/elements/1.1/"
   xmlns:cc="http://creativecommons.org/ns#"
   xmlns:rdf="http://www.w3.org/1999/02/22-rdf-syntax-ns#"
   xmlns:svg="http://www.w3.org/2000/svg"
   xmlns="http://www.w3.org/2000/svg"
   xmlns:sodipodi="http://sodipodi.sourceforge.net/DTD/sodipodi-0.dtd"
   xmlns:inkscape="http://www.inkscape.org/namespaces/inkscape"
   sodipodi:docname="Latvia_road_sign_550.svg"
   inkscape:version="1.0 (4035a4fb49, 2020-05-01)"
   id="svg6774"
   version="1.1"
   viewBox="0 0 494.6492 158.74999"
   height="158.75mm"
   width="494.64923mm">
  <defs
     id="defs6768" />
  <sodipodi:namedview
     inkscape:window-maximized="1"
     inkscape:window-y="-9"
     inkscape:window-x="-9"
     inkscape:window-height="1001"
     inkscape:window-width="1920"
     fit-margin-bottom="0"
     fit-margin-right="0"
     fit-margin-left="0"
     fit-margin-top="0"
     showgrid="false"
     inkscape:document-rotation="0"
     inkscape:current-layer="layer1"
     inkscape:document-units="mm"
     inkscape:cy="858.7154"
     inkscape:cx="730.29657"
     inkscape:zoom="0.40983509"
     inkscape:pageshadow="2"
     inkscape:pageopacity="0.0"
     borderopacity="1.0"
     bordercolor="#666666"
     pagecolor="#ffffff"
     id="base" />
  <metadata
     id="metadata6771">
    <rdf:RDF>
      <cc:Work
         rdf:about="">
        <dc:format>image/svg+xml</dc:format>
        <dc:type
           rdf:resource="http://purl.org/dc/dcmitype/StillImage" />
        <dc:title></dc:title>
      </cc:Work>
    </rdf:RDF>
  </metadata>
  <g
     transform="translate(433.15923,477.57959)"
     id="layer1"
     inkscape:groupmode="layer"
     inkscape:label="Layer 1">
    <g
       transform="matrix(6.9936327,0,0,6.9936327,4826.5989,144.41662)"
       style="opacity:1;stroke-width:0.142987"
       id="g4541">
      <path
         id="path4543"
         d="m -749.31009,-88.849919 h 65.19223 c 1.4745,0 2.68028,1.21129 2.68028,2.69268 v 17.13729 c 0,1.48138 -1.20578,2.69268 -2.68028,2.69268 h -65.19223 c -1.4745,0 -2.68029,-1.2113 -2.68029,-2.69268 v -17.13729 c 0,-1.48139 1.20579,-2.69268 2.68029,-2.69268 z m 0,0"
         style="color:#000000;font-style:normal;font-variant:normal;font-weight:normal;font-stretch:normal;font-size:medium;line-height:normal;font-family:sans-serif;font-variant-ligatures:normal;font-variant-position:normal;font-variant-caps:normal;font-variant-numeric:normal;font-variant-alternates:normal;font-variant-east-asian:normal;font-feature-settings:normal;font-variation-settings:normal;text-indent:0;text-align:start;text-decoration:none;text-decoration-line:none;text-decoration-style:solid;text-decoration-color:#000000;letter-spacing:normal;word-spacing:normal;text-transform:none;writing-mode:lr-tb;direction:ltr;text-orientation:mixed;dominant-baseline:auto;baseline-shift:baseline;text-anchor:start;white-space:normal;shape-padding:0;shape-margin:0;inline-size:0;clip-rule:nonzero;display:inline;overflow:visible;visibility:visible;isolation:auto;mix-blend-mode:normal;color-interpolation:sRGB;color-interpolation-filters:linearRGB;solid-color:#000000;solid-opacity:1;vector-effect:none;fill:#ffffff;fill-opacity:1;fill-rule:nonzero;stroke:none;stroke-width:0.0252214;stroke-linecap:butt;stroke-linejoin:miter;stroke-miterlimit:22.926;stroke-dasharray:none;stroke-dashoffset:0;stroke-opacity:1;color-rendering:auto;image-rendering:auto;shape-rendering:auto;text-rendering:auto;enable-background:accumulate;stop-color:#000000;stop-opacity:1" />
      <path
         id="path4545"
         d="m -749.31055,-88.9375 c -1.5228,0 -2.76757,1.250049 -2.76757,2.779297 v 17.138672 c 0,1.529238 1.24477,2.78125 2.76757,2.78125 h 65.19336 c 1.5228,0 2.76758,-1.252013 2.76758,-2.78125 v -17.138672 c 0,-1.529248 -1.24478,-2.779297 -2.76758,-2.779297 z m 0,0.175781 h 65.19336 c 1.4262,0 2.5918,1.169983 2.5918,2.603516 v 17.138672 c 0,1.433522 -1.1656,2.603515 -2.5918,2.603515 h -65.19336 c -1.4262,0 -2.59179,-1.169993 -2.59179,-2.603515 v -17.138672 c 0,-1.433532 1.16559,-2.603516 2.59179,-2.603516 z"
         style="color:#000000;font-style:normal;font-variant:normal;font-weight:normal;font-stretch:normal;font-size:medium;line-height:normal;font-family:sans-serif;font-variant-ligatures:normal;font-variant-position:normal;font-variant-caps:normal;font-variant-numeric:normal;font-variant-alternates:normal;font-variant-east-asian:normal;font-feature-settings:normal;font-variation-settings:normal;text-indent:0;text-align:start;text-decoration:none;text-decoration-line:none;text-decoration-style:solid;text-decoration-color:#000000;letter-spacing:normal;word-spacing:normal;text-transform:none;writing-mode:lr-tb;direction:ltr;text-orientation:mixed;dominant-baseline:auto;baseline-shift:baseline;text-anchor:start;white-space:normal;shape-padding:0;shape-margin:0;inline-size:0;clip-rule:nonzero;display:inline;overflow:visible;visibility:visible;isolation:auto;mix-blend-mode:normal;color-interpolation:sRGB;color-interpolation-filters:linearRGB;solid-color:#000000;solid-opacity:1;vector-effect:none;fill:#000000;fill-opacity:1;fill-rule:nonzero;stroke:none;stroke-width:0.0252214;stroke-linecap:butt;stroke-linejoin:miter;stroke-miterlimit:22.926;stroke-dasharray:none;stroke-dashoffset:0;stroke-opacity:1;color-rendering:auto;image-rendering:auto;shape-rendering:auto;text-rendering:auto;enable-background:accumulate;stop-color:#000000;stop-opacity:1" />
    </g>
    <g
       inkscape:groupmode="layer"
       id="g4514"
       style="opacity:1;stroke-width:0.141412"
       transform="matrix(7.0715152,0,0,7.0715152,2352.7209,1413.0307)" />
    <path
       style="fill:#263894;fill-opacity:1;fill-rule:evenodd;stroke:none;stroke-width:0.352773"
       d="M -412.98835,-468.56288 H 41.331766 c 6.076,0 11.06144,4.90443 11.06144,10.89942 v 118.90744 c 0,5.99499 -4.98544,10.89942 -11.06144,10.89942 H -412.98835 c -6.07601,0 -11.06145,-4.90443 -11.06145,-10.89942 v -118.90744 c 0,-5.99499 4.98544,-10.89942 11.06145,-10.89942"
       id="path3647" />
    <path
       style="fill:#ffffff;fill-opacity:1;fill-rule:evenodd;stroke:none;stroke-width:0.352773"
       d="m -340.33178,-348.4795 v -34.9361 h 14.33314 c 5.1724,0 9.3477,4.19089 9.3477,9.3664 0,3.02242 -1.55795,5.88905 -3.98835,7.65265 4.54921,2.80431 5.98253,8.74945 3.17822,13.28932 -1.86954,2.86663 -4.86081,4.62711 -8.22598,4.62711 z m 5.29703,-5.00102 h 8.72452 c 2.80431,0 5.32819,-2.36808 5.32819,-5.2908 0,-2.92894 -2.49272,-5.30949 -5.32819,-5.30949 h -8.72452 z m 0,-15.29595 h 8.41293 c 2.80431,0 4.98544,-2.21229 4.98544,-4.98233 0,-2.74199 -2.18113,-5.00102 -4.98544,-5.00102 h -8.41293 z m 24.02359,8.13561 v -10.60964 c 0,-6.89237 5.57746,-12.47918 12.4636,-12.47918 6.88614,0 12.46361,5.58992 12.46361,12.47918 v 10.60964 c 0,6.87991 -5.60862,12.46984 -12.46361,12.46984 -6.88614,0 -12.4636,-5.58993 -12.4636,-12.46984 z m 5.29703,0 c 0,3.96031 3.20938,7.16034 7.16657,7.16034 3.9572,0 7.19773,-3.20003 7.19773,-7.16034 v -10.60964 c 0,-3.96966 -3.24053,-7.16969 -7.19773,-7.16969 -3.95719,0 -7.16657,3.20003 -7.16657,7.16969 z m 26.48516,12.16136 v -34.9361 h 14.33314 c 5.51514,0 10.00204,4.46197 10.00204,9.98335 0,4.26878 -2.80431,8.07641 -6.79266,9.45364 l 8.03902,15.49849 h -6.2318 l -7.16657,-14.98748 h -6.88614 v 14.98748 z m 5.29703,-19.66133 h 8.75568 c 2.80431,0 5.29703,-2.36808 5.29703,-5.2908 0,-2.92895 -2.49272,-5.33131 -5.29703,-5.33131 h -8.75568 z m 26.51631,19.66133 v -34.9361 h 12.46361 c 6.88614,0 12.4636,5.58058 12.4636,12.49165 v 9.9553 c 0,6.90172 -5.54631,12.49165 -12.4636,12.49165 z m 5.29703,-5.00102 h 7.16658 c 3.95719,0 7.16657,-3.20003 7.16657,-7.16034 v -10.60964 c 0,-3.96966 -3.17822,-7.16969 -7.16657,-7.16969 h -7.16658 z m 26.48516,5.00102 v -34.9361 h 22.46564 v 4.99167 h -17.16861 v 9.96465 h 14.64473 v 4.69255 h -14.64473 v 10.28247 h 17.16861 v 5.00102 z m 29.32062,0 v -34.9361 h 14.33315 c 5.51514,0 10.00204,4.46197 10.00204,9.98335 0,4.26878 -2.80431,8.07641 -6.79267,9.45364 l 8.03903,15.49849 h -6.2318 l -7.16657,-14.98748 h -6.88614 v 14.98748 z m 5.29704,-19.66133 h 8.75568 c 2.80431,0 5.29703,-2.36808 5.29703,-5.2908 0,-2.92895 -2.49272,-5.33131 -5.29703,-5.33131 h -8.75568 z m 26.51631,19.66133 v -34.9361 h 5.29703 v 29.93446 h 17.16861 v 5.00102 z m 24.95836,0 12.7752,-34.9361 h 4.36226 l 12.806346,34.9361 h -5.608616 l -2.49272,-7.80533 h -13.46069 l -2.49272,7.80533 z m 9.81509,-12.49164 h 10.31363 l -5.17239,-15.27415 z m 25.114156,12.49164 v -34.9361 h 4.98544 l 15.92225,24.94279 v -24.94279 h 5.29703 v 34.9361 h -4.98544 l -15.92225,-24.95213 v 24.95213 z m 34.29983,0 v -34.9361 h 12.49476 c 6.88614,0 12.46361,5.58058 12.46361,12.49165 v 9.9553 c 0,6.90172 -5.54631,12.49165 -12.46361,12.49165 z m 5.29703,-5.00102 h 7.16657 c 3.9572,0 7.16658,-3.20003 7.16658,-7.16034 v -10.60964 c 0,-3.96966 -3.20938,-7.16969 -7.16658,-7.16969 h -7.16657 z m -38.77115,-82.90165 h 5.11008 v 23.08259 c 0,5.9763 -4.82965,10.79348 -10.81218,10.79348 -3.427486,0 -6.636856,-1.62027 -8.693356,-4.38407 l 4.11299,-3.02242 c 1.86954,2.55503 5.421666,3.08474 7.945546,1.2152 1.55795,-1.09057 2.18113,-2.77315 2.18113,-4.60842 z m 11.09261,21.89543 v -10.21703 c 0,-6.61194 5.35935,-11.98064 11.99622,-11.98064 6.60571,0 11.99621,5.3687 11.99621,11.98064 v 10.21703 c 0,6.62129 -5.3905,11.98064 -11.99621,11.98064 -6.63687,0 -11.99622,-5.35935 -11.99622,-11.98064 z m 5.11008,0 c 0,3.80763 3.1159,6.88926 6.88614,6.88926 3.80139,0 6.88614,-3.08474 6.88614,-6.88926 v -10.21703 c 0,-3.79829 -3.1159,-6.87991 -6.88614,-6.87991 -3.8014,0 -6.88614,3.08474 -6.88614,6.87991 z m 23.08882,7.36288 3.27169,-3.89488 c 3.55213,2.99127 8.31946,4.10676 12.80636,2.99127 2.49272,-0.59202 3.89487,-3.05359 3.27169,-5.4466 -0.31159,-1.77606 -1.86954,-3.12213 -3.77024,-3.36517 l -5.45282,-0.71666 c -5.23472,-0.6855 -8.94264,-5.52137 -8.22598,-10.78413 0.62318,-4.32799 4.01951,-7.73055 8.35061,-8.2696 4.73617,-0.56086 9.53466,0.62318 13.46069,3.32467 l -2.80431,4.19088 c -2.80431,-2.02533 -6.44991,-2.86663 -9.93972,-2.46156 -2.49272,0.2985 -4.23763,2.52388 -3.95719,5.00102 0.24927,2.0565 1.86954,3.66118 3.86371,3.93227 l 5.45283,0.71666 c 5.23471,0.71665 8.94263,5.53072 8.22598,10.78413 -0.62318,3.89487 -3.36518,7.08244 -7.16658,8.05772 -6.076,1.49563 -12.55708,0.0209 -17.3244,-4.04756 z m 30.59814,4.31864 v -33.57695 h 5.11008 v 28.78781 h 16.5142698 v 4.78914 z m 23.99243979,0 12.30780021,-33.57695 h 4.20647 l 12.30781,33.57695 h -5.39051 l -2.49272,-7.48751 H 8.0726358 l -2.49272,7.48751 z m 9.44118001,-11.98064 h 9.8774002 l -4.95428,-14.69771 z m -212.9312958,-27.32333 -6.07601,-6.13833 4.70501,0.0489 3.45865,3.48981 3.48981,-3.53655 4.70501,0.007 -6.07601,6.11028 z m -197.24274,39.91873 v -34.05897 h 13.36721 c 5.73326,0 10.34479,4.63646 10.34479,10.36037 0,5.69586 -4.61153,10.32298 -10.34479,10.32298 h -8.19482 v 13.37656 z m 5.17239,-18.25294 h 7.91439 c 3.1159,0 5.48398,-2.46156 5.48398,-5.44348 0,-3.02242 -2.49272,-5.47464 -5.48398,-5.47464 h -7.91439 z m 29.16483,18.25294 h -5.14123 v -34.05897 h 5.14123 z m -5.14123,0 z m 13.05562,0 v -34.05897 h 21.87362 v 4.88573 h -16.73238 v 9.70603 h 14.30198 v 4.56791 h -14.30198 v 10.01451 h 16.73238 v 4.88573 z m 28.57281,0 v -34.05897 h 13.95923 c 5.35935,0 9.72161,4.35603 9.72161,9.74342 0,4.15349 -2.80431,7.86453 -6.60571,9.20437 l 7.78975,15.11212 h -6.04484 l -7.01078,-14.61046 h -6.69919 v 14.61046 z m 5.14123,-19.15967 h 8.50641 c 2.80431,0 5.1724,-2.30577 5.1724,-5.15682 0,-2.86662 -2.49272,-5.17551 -5.1724,-5.17551 h -8.50641 z m 23.40042,7.29432 v -10.33232 c 0,-6.71788 5.42166,-12.15202 12.15201,-12.15202 6.73034,0 12.15201,5.43725 12.15201,12.15202 v 10.33232 c 0,6.70854 -5.45282,12.15202 -12.15201,12.15202 -6.73035,0 -12.15201,-5.4466 -12.15201,-12.15202 z m 5.17239,0 c 0,3.86372 3.1159,6.9765 6.97962,6.9765 3.86372,0 6.97962,-3.1159 6.97962,-6.9765 v -10.33232 c 0,-3.86372 -3.1159,-6.9765 -6.97962,-6.9765 -3.86372,0 -6.97962,3.1159 -6.97962,6.9765 z m 25.83082,11.86224 v -34.05898 h 13.99039 c 5.0166,0 9.12959,4.10676 9.12959,9.12648 0,2.99126 -1.55795,5.76441 -3.89488,7.45946 4.45574,2.74199 5.8579,8.50018 3.11591,12.9528 -1.55795,2.80431 -4.76733,4.52117 -8.00787,4.52117 z m 5.14123,-4.88574 h 8.53757 c 2.80431,0 5.1724,-2.30576 5.1724,-5.17551 0,-2.86662 -2.18113,-5.12565 -5.1724,-5.12565 h -8.53757 z m 0,-14.89088 h 8.22598 c 2.80431,0 4.86081,-2.14998 4.86081,-4.85769 0,-2.67968 -2.18113,-4.85769 -4.86081,-4.85769 h -8.22598 z m 25.2388,19.77662 v -34.05898 h 21.87362 v 4.88573 h -16.70123 v 9.70603 h 14.27083 v 4.56792 h -14.27083 v 10.0145 h 16.70123 v 4.88573 z m 27.35761,0 v -4.25009 l 15.48602,-25.24191 h -14.86284 v -4.56791 h 21.2816 v 3.96965 l -15.48603,25.20141 h 15.48603 v 4.88573 z m 24.9272,0 12.43244,-34.05898 h 4.26879 l 12.49476,34.05898 h -5.48399 l -2.49272,-7.6028 h -13.11794 l -2.49272,7.6028 z m 9.56582,-12.18317 h 10.0332 l -5.0166,-14.88155 z m 22.06057,7.77728 3.33402,-3.91357 c 3.58328,3.02243 8.38177,4.1535 12.93098,3.02243 2.49272,-0.62318 3.9572,-3.1159 3.33402,-5.55254 -0.31159,-1.80722 -1.86954,-3.14083 -3.83256,-3.42126 l -5.51514,-0.71665 c -5.32819,-0.71666 -9.06728,-5.58993 -8.38178,-10.92747 0.62318,-4.37472 4.11299,-7.85518 8.47525,-8.37554 4.82965,-0.59202 9.65929,0.59202 13.61649,3.36517 l -2.80431,4.2314 c -2.80431,-1.99418 -6.51223,-2.89779 -10.09552,-2.46156 -2.49272,0.30847 -4.23763,2.55503 -3.95719,5.06022 0.23992,2.08765 1.86954,3.71104 3.92603,3.979 l 5.51514,0.71666 c 5.32819,0.71666 9.06728,5.60862 8.38178,10.93058 -0.62318,3.93227 -3.42749,7.17903 -7.29121,8.13562 -6.16948,1.55795 -12.71287,0.0209 -17.54252,-4.08495"
       id="path3649" />
    <path
       sodipodi:nodetypes="cssscccsscc"
       style="fill:#eb1938;fill-opacity:1;fill-rule:evenodd;stroke:none;stroke-width:0.352777"
       d="m 52.38277,-454.44877 c 0.03115,-2.19654 0.109205,-4.27106 -0.370107,-6.07611 -0.483445,-1.82061 -1.458629,-3.3966 -2.763345,-4.75085 -1.172784,-1.21732 -2.779071,-2.29263 -4.800052,-2.83858 -1.977834,-0.53429 -4.355856,-0.55375 -6.840069,-0.41385 l -16.60495,0.021 -445.050327,128.01054 c 0.007,1.57392 -0.11086,2.80805 0.22882,4.06853 1.12937,4.19083 3.63842,7.06332 8.12341,8.20594 2.04084,0.51993 4.64917,0.39888 7.44411,0.37856 h 16.43164"
       id="path3655" />
  </g>
</svg>
