<?xml version="1.0" encoding="UTF-8" standalone="no"?>
<svg
   xmlns:dc="http://purl.org/dc/elements/1.1/"
   xmlns:cc="http://creativecommons.org/ns#"
   xmlns:rdf="http://www.w3.org/1999/02/22-rdf-syntax-ns#"
   xmlns:svg="http://www.w3.org/2000/svg"
   xmlns="http://www.w3.org/2000/svg"
   xmlns:sodipodi="http://sodipodi.sourceforge.net/DTD/sodipodi-0.dtd"
   xmlns:inkscape="http://www.inkscape.org/namespaces/inkscape"
   width="658.63715mm"
   height="195mm"
   viewBox="0 0 658.63712 195.00001"
   version="1.1"
   id="svg3845"
   inkscape:version="1.0 (4035a4fb49, 2020-05-01)"
   sodipodi:docname="Latvia_road_sign_556.svg">
  <defs
     id="defs3839" />
  <sodipodi:namedview
     id="base"
     pagecolor="#ffffff"
     bordercolor="#666666"
     borderopacity="1.0"
     inkscape:pageopacity="0.0"
     inkscape:pageshadow="2"
     inkscape:zoom="0.3794966"
     inkscape:cx="764.10978"
     inkscape:cy="-168.36739"
     inkscape:document-units="mm"
     inkscape:current-layer="layer1"
     showgrid="false"
     inkscape:window-width="1920"
     inkscape:window-height="1001"
     inkscape:window-x="-9"
     inkscape:window-y="-9"
     inkscape:window-maximized="1"
     inkscape:document-rotation="0" />
  <metadata
     id="metadata3842">
    <rdf:RDF>
      <cc:Work
         rdf:about="">
        <dc:format>image/svg+xml</dc:format>
        <dc:type
           rdf:resource="http://purl.org/dc/dcmitype/StillImage" />
        <dc:title />
      </cc:Work>
    </rdf:RDF>
  </metadata>
  <g
     inkscape:label="Layer 1"
     inkscape:groupmode="layer"
     id="layer1"
     transform="translate(-532.75275,96.225438)">
    <path
       id="path14227"
       d="m 564.50776,-94.735468 h 595.10394 c 16.6457,0 30.2882,13.619228 30.2882,30.265046 V 67.019541 c 0,16.645818 -13.6425,30.265046 -30.2882,30.265046 H 564.50776 c -16.64581,0 -30.26504,-13.619228 -30.26504,-30.265046 V -64.470422 c 0,-16.645818 13.61923,-30.265046 30.26504,-30.265046 z m 0,0"
       style="fill:#ffffff;fill-opacity:1;stroke:#000000;stroke-width:2.97999994;stroke-linecap:butt;stroke-linejoin:miter;stroke-miterlimit:22.9260006;stroke-opacity:1;stroke-dasharray:none" />
    <path
       transform="matrix(0.26458333,0,0,0.26458333,532.75275,-96.225438)"
       d="m 2191.7988,240.89062 c -5.6963,0.0365 -11.4095,0.39658 -17.1152,1.08399 -33.436,4.13569 -59.9209,30.26836 -64.3203,63.70508 -5.3677,40.47511 23.053,77.69255 63.6172,83.0625 l 41.9707,5.54297 c 14.0787,1.84787 25.6083,12.14224 29.0371,25.86914 4.5759,18.56559 -6.6879,37.3974 -25.166,42.05859 -34.6678,8.71069 -71.3601,0.0883 -98.5489,-22.96484 l -25.4296,30.0039 c 36.868,31.21274 86.5837,42.76311 133.4824,31.14844 29.3892,-7.3915 51.3883,-32.02853 55.2578,-62.0332 5.4554,-40.56387 -23.0536,-77.69255 -63.5293,-83.0625 l -41.9727,-5.54297 c -15.662,-2.11159 -27.9826,-14.42933 -29.8281,-30.17969 -2.2877,-19.00617 11.1755,-36.25316 30.1816,-38.53906 27.0127,-3.34393 54.2889,3.34147 76.6387,18.82812 l 22.2617,-32.3789 c -25.5389,-17.59722 -55.7769,-26.79882 -86.5371,-26.60157 z m -1165.6543,0.55469 c -51.03426,0 -92.39059,41.35632 -92.39059,92.39063 V 412.5 c 0,50.94619 41.35633,92.38867 92.39059,92.38867 51.1225,0 92.4785,-41.44248 92.4785,-92.38867 v -53.23633 h -92.4785 v 36.95703 h 53.1465 V 412.5 c 0,29.30038 -23.758,53.05664 -53.1465,53.05664 -29.30095,0 -53.14645,-23.75626 -53.14645,-53.05664 v -78.66406 c 0,-23.05375 14.9594,-43.55494 36.95705,-50.50586 27.9812,-8.97567 57.8963,6.42114 66.7832,34.40234 h 40.3887 c -7.8309,-44.08339 -46.1954,-76.28711 -90.9825,-76.28711 z m -776.25192,2.37696 v 258.6914 h 92.47851 c 51.03432,0 92.39063,-41.35631 92.39063,-92.39062 v -73.91211 c 0,-51.03495 -41.35631,-92.38867 -92.39063,-92.38867 z m 302.59961,0 -94.58985,258.6914 h 41.44336 l 19.53321,-57.72265 h 99.69336 l 19.44726,57.72265 h 41.53125 l -94.67773,-258.6914 z m 150.19922,0 V 412.5 c 0,50.94619 41.35609,92.38867 92.47851,92.38867 51.03432,0 92.39063,-41.44248 92.39063,-92.38867 V 243.82227 H 848.22852 V 412.5 c 0,29.30038 -23.75758,53.05664 -53.0586,53.05664 -29.38911,0 -53.23437,-23.75626 -53.23437,-53.05664 V 243.82227 Z m 533.66209,0 -94.6777,258.6914 h 41.6191 l 19.4453,-57.72265 h 99.6055 l 19.5352,57.72265 H 1363.5 l -94.7656,-258.6914 z m 113.2442,0 85.4375,258.6914 h 32.3808 l 85.4395,-258.6914 h -41.5313 l -60.0976,198.68164 -60.0977,-198.68164 z m 235.6386,0 v 258.6914 h 39.3321 v -101.6289 h 62.3847 c 43.3791,0 78.4864,-35.10896 78.4864,-78.57618 0,-43.37973 -35.1073,-78.48632 -78.4864,-78.48632 z m 221.8242,0 v 258.6914 h 39.2422 v -258.6914 z m 99.3399,0 v 258.6914 h 166.3027 V 465.55664 H 1945.6445 V 243.82227 Z M 289.22461,280.77734 h 53.14648 c 29.30038,0 53.14649,23.75758 53.14649,53.0586 V 412.5 c 0,29.30038 -23.84611,53.05664 -53.14649,53.05664 h -53.14648 z m 1335.34379,0 h 60.0078 c 22.9656,0 41.6191,18.56562 41.6191,41.53125 0,22.965 -18.6535,41.61914 -41.6191,41.61914 h -60.0078 z m -1055.79887,16.10157 38.10156,113.24414 h -76.37695 z m 683.77347,0 38.1894,113.24414 h -76.289 z"
       style="fill:#000000;fill-opacity:1;fill-rule:evenodd;stroke:none;stroke-width:22.5255"
       id="path14207" />
    <path
       id="path14203"
       d="m 550.81876,63.224775 c 0.90722,23.210889 28.5655,17.809656 49.93729,17.809656 l 571.61345,-141.05831 c -0.419,-22.838373 -13.6659,-18.415143 -46.7014,-18.50823 L 550.81876,63.224775"
       style="fill:#eb1938;fill-opacity:1;fill-rule:evenodd;stroke:none;stroke-width:5.95987" />
    <path
       id="path14205"
       d="m 569.09419,-85.958614 h 585.93111 c 13.5727,0 24.6543,11.104871 24.6543,24.654326 V 63.853238 c 0,13.572769 -11.0816,24.677808 -24.6543,24.677808 H 569.09419 c -13.54945,0 -24.65433,-11.105039 -24.65433,-24.677808 V -61.304288 c 0,-13.549455 11.10488,-24.654326 24.65433,-24.654326 z m -2.53767,10.522867 H 1156.166 c 8.8934,0 12.6415,8.218165 12.6415,13.107166 v 127.64857 c 0,5.843521 -8.125,12.641394 -12.8743,12.641394 l -587.39787,-0.05068 c -5.47083,0 -13.38643,-3.515338 -13.38643,-12.594936 v -127.53217 c 0,-7.96205 5.49432,-13.223568 11.40762,-13.223568"
       style="fill:#000000;fill-opacity:1;fill-rule:evenodd;stroke:none;stroke-width:5.95987" />
  </g>
</svg>
