<?xml version="1.0" encoding="UTF-8" standalone="no"?>
<svg
   xmlns:dc="http://purl.org/dc/elements/1.1/"
   xmlns:cc="http://creativecommons.org/ns#"
   xmlns:rdf="http://www.w3.org/1999/02/22-rdf-syntax-ns#"
   xmlns:svg="http://www.w3.org/2000/svg"
   xmlns="http://www.w3.org/2000/svg"
   xmlns:sodipodi="http://sodipodi.sourceforge.net/DTD/sodipodi-0.dtd"
   xmlns:inkscape="http://www.inkscape.org/namespaces/inkscape"
   sodipodi:docname="Latvia_road_sign_505A.svg"
   inkscape:version="1.0 (4035a4fb49, 2020-05-01)"
   id="svg3845"
   version="1.1"
   viewBox="0 0 195 194.9881"
   height="194.9881mm"
   width="195mm">
  <defs
     id="defs3839" />
  <sodipodi:namedview
     inkscape:document-rotation="0"
     inkscape:window-maximized="1"
     inkscape:window-y="-9"
     inkscape:window-x="-9"
     inkscape:window-height="1001"
     inkscape:window-width="1920"
     showgrid="false"
     inkscape:current-layer="layer1"
     inkscape:document-units="mm"
     inkscape:cy="337.92555"
     inkscape:cx="810.17263"
     inkscape:zoom="0.49497475"
     inkscape:pageshadow="2"
     inkscape:pageopacity="0.0"
     borderopacity="1.0"
     bordercolor="#666666"
     pagecolor="#ffffff"
     id="base" />
  <metadata
     id="metadata3842">
    <rdf:RDF>
      <cc:Work
         rdf:about="">
        <dc:format>image/svg+xml</dc:format>
        <dc:type
           rdf:resource="http://purl.org/dc/dcmitype/StillImage" />
        <dc:title></dc:title>
      </cc:Work>
    </rdf:RDF>
  </metadata>
  <g
     transform="translate(59.928714,157.88074)"
     id="layer1"
     inkscape:groupmode="layer"
     inkscape:label="Layer 1">
    <path
       style="fill:#ffffff;fill-opacity:1;stroke:#000000;stroke-width:1.53214;stroke-linecap:butt;stroke-linejoin:miter;stroke-miterlimit:22.926;stroke-opacity:1"
       d="M -45.145945,-157.11467 H 120.2886 c 7.70859,0 14.01662,6.30812 14.01662,14.00472 V 22.336587 c 0,7.696594 -6.30803,14.004708 -14.01662,14.004708 H -45.145945 c -7.708581,0 -14.016699,-6.308114 -14.016699,-14.004708 V -143.10995 c 0,-7.6966 6.308118,-14.00472 14.016699,-14.00472 z m 0,0"
       id="path1565" />
    <path
       style="fill:#263894;fill-opacity:1;fill-rule:evenodd;stroke:none;stroke-width:3.06426"
       d="M 121.23426,-150.7705 H -46.139463 c -3.19597,0.0695 -6.619255,2.34603 -6.619255,6.96635 V 23.306218 c 0,2.860772 2.429854,6.691176 7.086047,6.691176 H 121.16243 c 4.1894,0 6.73903,-3.842304 6.72705,-6.894605 l 0.009,-166.918839 c 0.0695,-4.65628 -3.45933,-6.82286 -6.6672,-6.95445"
       id="path1557" />
    <path
       style="fill:#ffffff;fill-opacity:1;fill-rule:evenodd;stroke:none;stroke-width:3.06426"
       d="m 30.179964,-60.386597 -0.0347,-40.422063 -13.729276,4.740106 21.042816,-35.741806 21.60549,35.657985 -14.02859,-4.536495 0.0347,40.302273 h -14.89044"
       id="path1559" />
    <path
       style="fill:#ffffff;fill-opacity:1;fill-rule:evenodd;stroke:none;stroke-width:3.06426"
       d="m 48.398054,12.174352 -0.75395,-1.041378 V 3.3765318 l -20.193053,0.03475 v 7.6726202 l -0.730502,1.089239 H 22.890232 L 22.148438,11.143749 V 3.3514338 h -1.089239 v 7.8043022 l -0.670568,1.017405 h -4.033833 l -0.634086,-1.01741 V 3.3753158 H 12.321313 V -41.116448 c 0.03475,-2.082757 1.663826,-3.387411 3.435272,-3.387411 h 43.618029 c 2.09466,-0.02606 3.42328,1.843367 3.42328,3.29169 V 3.3753158 h -3.47123 v 7.8521622 l -0.62279,0.945658 h -3.9501 l -0.71834,-1.005418 -0.0261,-7.7924022 h -1.04138 v 7.7924022 l -0.69402,1.005418 z m -32.138977,-35.370734 0.02606,-17.990684 42.576647,-0.02606 -0.0261,18.014571 h -42.57652"
       id="path1561" />
    <path
       style="fill:#eb1938;fill-opacity:1;fill-rule:evenodd;stroke:none;stroke-width:3.06426"
       d="m -45.983895,29.68617 c -2.872759,-0.03474 -6.343991,-2.262299 -6.762923,-6.224297 l -0.03474,-8.869654 163.962338,-165.650059 h 10.23415 c 4.12964,0.0869 6.57148,3.43536 6.54751,7.15797 l -0.0261,8.39079 -165.626072,165.19525 h -8.295154"
       id="path1563" />
  </g>
</svg>
