<?xml version="1.0" encoding="UTF-8" standalone="no"?>
<svg
   xmlns:dc="http://purl.org/dc/elements/1.1/"
   xmlns:cc="http://creativecommons.org/ns#"
   xmlns:rdf="http://www.w3.org/1999/02/22-rdf-syntax-ns#"
   xmlns:svg="http://www.w3.org/2000/svg"
   xmlns="http://www.w3.org/2000/svg"
   xmlns:sodipodi="http://sodipodi.sourceforge.net/DTD/sodipodi-0.dtd"
   xmlns:inkscape="http://www.inkscape.org/namespaces/inkscape"
   width="195mm"
   height="127.50866mm"
   viewBox="0 0 195 127.50866"
   version="1.1"
   id="svg3845"
   inkscape:version="1.0 (4035a4fb49, 2020-05-01)"
   sodipodi:docname="Latvia_road_sign_509.svg">
  <defs
     id="defs3839" />
  <sodipodi:namedview
     id="base"
     pagecolor="#ffffff"
     bordercolor="#666666"
     borderopacity="1.0"
     inkscape:pageopacity="0.0"
     inkscape:pageshadow="2"
     inkscape:zoom="0.49497475"
     inkscape:cx="-217.76053"
     inkscape:cy="287.08531"
     inkscape:document-units="mm"
     inkscape:current-layer="layer1"
     showgrid="false"
     inkscape:window-width="1920"
     inkscape:window-height="1001"
     inkscape:window-x="-9"
     inkscape:window-y="-9"
     inkscape:window-maximized="1"
     inkscape:document-rotation="0" />
  <metadata
     id="metadata3842">
    <rdf:RDF>
      <cc:Work
         rdf:about="">
        <dc:format>image/svg+xml</dc:format>
        <dc:type
           rdf:resource="http://purl.org/dc/dcmitype/StillImage" />
        <dc:title></dc:title>
      </cc:Work>
    </rdf:RDF>
  </metadata>
  <g
     inkscape:label="Layer 1"
     inkscape:groupmode="layer"
     id="layer1"
     transform="translate(-259.93401,356.10052)">
    <path
       style="fill:#ffffff;fill-opacity:1;stroke:#000000;stroke-width:1.02649;stroke-linecap:butt;stroke-linejoin:miter;stroke-miterlimit:22.926;stroke-opacity:1"
       d="m 268.65912,-355.58728 h 177.54977 c 4.5149,0 8.21187,3.69697 8.21187,8.21193 v 110.0664 c 0,4.5149 -3.69697,8.20384 -8.21187,8.20384 H 268.65912 c -4.5149,0 -8.21187,-3.68894 -8.21187,-8.20384 v -110.0664 c 0,-4.51496 3.69697,-8.21193 8.21187,-8.21193 z m 0,0"
       id="path1720" />
    <path
       style="fill:#263894;fill-opacity:1;fill-rule:evenodd;stroke:none;stroke-width:2.05296"
       d="m 451.43754,-295.73835 -187.94294,-0.006 -0.064,58.40537 c 0.0349,3.38424 3.19173,5.60558 5.77399,5.57351 h 176.1704 c 2.26952,0.21648 6.00653,-1.77225 5.99856,-5.66971 l 0.064,-58.30114"
       id="path1710" />
    <path
       style="fill:#263894;fill-opacity:1;fill-rule:evenodd;stroke:none;stroke-width:2.05296"
       d="m 451.38139,-347.07862 0.0582,47.33056 -188.00708,-0.0291 v -47.28249 c 0.0407,-2.63836 1.88457,-5.7499 5.85419,-5.85412 h 176.29068 c 3.92952,0.21648 5.80605,3.41624 5.80605,5.83812"
       id="path1712" />
    <path
       style="fill:#ffffff;fill-opacity:1;fill-rule:evenodd;stroke:none;stroke-width:2.05296"
       d="m 438.34182,-331.00777 -141.31002,-0.0407 3.06341,-8.97369 -23.64922,13.66509 23.60109,14.05802 -2.99125,-9.04591 141.2459,0.006 0.0407,-9.67144"
       id="path1714" />
    <path
       style="fill:#ffffff;fill-opacity:1;fill-rule:evenodd;stroke:none;stroke-width:2.05296"
       d="m 299.14088,-258.57644 c -3.80923,0 -6.91268,3.03141 -6.91268,6.76039 0,3.73707 3.10345,6.77639 6.91268,6.77639 3.79323,0 6.8887,-3.03932 6.8887,-6.77639 0,-3.72898 -3.09547,-6.76039 -6.8887,-6.76039 z m 0,3.51256 c -1.83644,0 -3.33605,1.45951 -3.33605,3.25586 0,1.78831 1.49961,3.26389 3.33605,3.26389 1.82847,0 3.30404,-1.47558 3.30404,-3.26389 0,-1.79635 -1.47557,-3.25586 -3.30404,-3.25586 z m 50.12132,0 c -1.86047,0 -3.38418,1.48355 -3.38418,3.30398 0,1.82841 1.52371,3.32005 3.38418,3.32005 1.8525,0 3.34409,-1.49164 3.34409,-3.32005 0,-1.82043 -1.49159,-3.30398 -3.34409,-3.30398 z m -0.006,-3.52053 c -3.84932,0 -6.97687,3.07144 -6.97687,6.82451 0,3.76914 3.12755,6.84058 6.97687,6.84058 3.8253,0 6.94481,-3.07144 6.94481,-6.84058 0,-3.75307 -3.11951,-6.82451 -6.94481,-6.82451 z m -3.45634,-11.35549 17.01721,-0.0233 -7.32976,-12.52635 h -9.68745 z m -16.41576,-0.0407 13.84153,0.0407 0.0233,-12.55841 -13.86557,0.0407 z m -16.26336,0.006 13.86557,0.0291 v -12.55038 l -13.88157,0.006 z m -15.66192,0.0291 13.30423,-0.0175 v -12.54235 l -13.30423,0.006 z m -16.2072,-0.0291 14.06606,0.0291 0.0407,-12.54235 -14.09811,0.0233 z m -4.88384,15.01237 8.32418,3.04735 5.83009,0.0349 c -0.3125,-3.91352 3.11154,-8.55675 8.51663,-8.59685 5.06024,0.096 8.32413,3.80122 8.61283,8.56478 h 33.04802 c 0.0233,-4.4187 3.5285,-8.39636 8.54067,-8.46055 4.95595,0.13617 8.5647,3.98569 8.57273,8.49262 l 4.21822,0.006 c 1.78832,0 3.66485,-1.55577 3.66485,-3.64082 l 0.0349,-14.44299 -7.28163,-12.54235 c -0.53714,-0.93827 -1.39539,-2.44591 -3.46437,-2.49404 h -75.36646 c -1.2751,-0.064 -3.27996,1.2911 -3.24789,3.35211 v 26.68058"
       id="path1716" />
    <path
       style="fill:#ffffff;fill-opacity:1;fill-rule:evenodd;stroke:none;stroke-width:2.05296"
       d="m 375.24513,-259.93169 41.50843,-0.0885 -3.31201,9.39876 24.90027,-14.39486 -24.84412,-14.77975 3.15961,9.59119 -41.31599,-0.0233 -0.096,10.29698"
       id="path1718" />
  </g>
</svg>
