<?xml version="1.0" encoding="UTF-8" standalone="no"?>
<svg
   xmlns:dc="http://purl.org/dc/elements/1.1/"
   xmlns:cc="http://creativecommons.org/ns#"
   xmlns:rdf="http://www.w3.org/1999/02/22-rdf-syntax-ns#"
   xmlns:svg="http://www.w3.org/2000/svg"
   xmlns="http://www.w3.org/2000/svg"
   xmlns:sodipodi="http://sodipodi.sourceforge.net/DTD/sodipodi-0.dtd"
   xmlns:inkscape="http://www.inkscape.org/namespaces/inkscape"
   width="158.75mm"
   height="158.73615mm"
   viewBox="0 0 158.74999 158.73614"
   version="1.1"
   id="svg6774"
   inkscape:version="1.0 (4035a4fb49, 2020-05-01)"
   sodipodi:docname="Latvia_road_sign_545.svg">
  <defs
     id="defs6768" />
  <sodipodi:namedview
     id="base"
     pagecolor="#ffffff"
     bordercolor="#666666"
     borderopacity="1.0"
     inkscape:pageopacity="0.0"
     inkscape:pageshadow="2"
     inkscape:zoom="0.40983509"
     inkscape:cx="371.73361"
     inkscape:cy="511.90156"
     inkscape:document-units="mm"
     inkscape:current-layer="layer1"
     inkscape:document-rotation="0"
     showgrid="false"
     fit-margin-top="0"
     fit-margin-left="0"
     fit-margin-right="0"
     fit-margin-bottom="0"
     inkscape:window-width="1920"
     inkscape:window-height="1001"
     inkscape:window-x="-9"
     inkscape:window-y="-9"
     inkscape:window-maximized="1" />
  <metadata
     id="metadata6771">
    <rdf:RDF>
      <cc:Work
         rdf:about="">
        <dc:format>image/svg+xml</dc:format>
        <dc:type
           rdf:resource="http://purl.org/dc/dcmitype/StillImage" />
        <dc:title></dc:title>
      </cc:Work>
    </rdf:RDF>
  </metadata>
  <g
     inkscape:label="Layer 1"
     inkscape:groupmode="layer"
     id="layer1"
     transform="translate(462.30128,292.1424)">
    <g
       id="g3362"
       style="opacity:1;stroke-width:0.141412"
       transform="matrix(7.0715152,0,0,7.0715152,2714.867,1607.4986)">
      <path
         style="color:#000000;font-style:normal;font-variant:normal;font-weight:normal;font-stretch:normal;font-size:medium;line-height:normal;font-family:sans-serif;font-variant-ligatures:normal;font-variant-position:normal;font-variant-caps:normal;font-variant-numeric:normal;font-variant-alternates:normal;font-variant-east-asian:normal;font-feature-settings:normal;font-variation-settings:normal;text-indent:0;text-align:start;text-decoration:none;text-decoration-line:none;text-decoration-style:solid;text-decoration-color:#000000;letter-spacing:normal;word-spacing:normal;text-transform:none;writing-mode:lr-tb;direction:ltr;text-orientation:mixed;dominant-baseline:auto;baseline-shift:baseline;text-anchor:start;white-space:normal;shape-padding:0;shape-margin:0;inline-size:0;clip-rule:nonzero;display:inline;overflow:visible;visibility:visible;isolation:auto;mix-blend-mode:normal;color-interpolation:sRGB;color-interpolation-filters:linearRGB;solid-color:#000000;solid-opacity:1;vector-effect:none;fill:#ffffff;fill-opacity:1;fill-rule:nonzero;stroke:none;stroke-width:0.0249436;stroke-linecap:butt;stroke-linejoin:miter;stroke-miterlimit:22.926;stroke-dasharray:none;stroke-dashoffset:0;stroke-opacity:1;color-rendering:auto;image-rendering:auto;shape-rendering:auto;text-rendering:auto;enable-background:accumulate;stop-color:#000000;stop-opacity:1"
         d="m -447.58847,-268.54514 h 19.04586 c 0.88746,0 1.61231,0.72623 1.61231,1.61231 v 19.04724 c 0,0.88608 -0.72485,1.61231 -1.61231,1.61231 h -19.04586 c -0.88746,0 -1.61369,-0.72623 -1.61369,-1.61231 v -19.04724 c 0,-0.88608 0.72623,-1.61231 1.61369,-1.61231 z m 0,0"
         id="path3364" />
      <path
         style="color:#000000;font-style:normal;font-variant:normal;font-weight:normal;font-stretch:normal;font-size:medium;line-height:normal;font-family:sans-serif;font-variant-ligatures:normal;font-variant-position:normal;font-variant-caps:normal;font-variant-numeric:normal;font-variant-alternates:normal;font-variant-east-asian:normal;font-feature-settings:normal;font-variation-settings:normal;text-indent:0;text-align:start;text-decoration:none;text-decoration-line:none;text-decoration-style:solid;text-decoration-color:#000000;letter-spacing:normal;word-spacing:normal;text-transform:none;writing-mode:lr-tb;direction:ltr;text-orientation:mixed;dominant-baseline:auto;baseline-shift:baseline;text-anchor:start;white-space:normal;shape-padding:0;shape-margin:0;inline-size:0;clip-rule:nonzero;display:inline;overflow:visible;visibility:visible;isolation:auto;mix-blend-mode:normal;color-interpolation:sRGB;color-interpolation-filters:linearRGB;solid-color:#000000;solid-opacity:1;vector-effect:none;fill:#211e1e;fill-opacity:1;fill-rule:nonzero;stroke:none;stroke-width:0.0249436;stroke-linecap:butt;stroke-linejoin:miter;stroke-miterlimit:22.926;stroke-dasharray:none;stroke-dashoffset:0;stroke-opacity:1;color-rendering:auto;image-rendering:auto;shape-rendering:auto;text-rendering:auto;enable-background:accumulate;stop-color:#000000;stop-opacity:1"
         d="m -447.58789,-268.63281 c -0.93558,0 -1.70313,0.76495 -1.70313,1.69922 v 19.04882 c 0,0.93427 0.76755,1.69922 1.70313,1.69922 h 19.04492 c 0.93558,0 1.70117,-0.76504 1.70117,-1.69922 v -19.04882 c 0,-0.93418 -0.76559,-1.69922 -1.70117,-1.69922 z m 0,0.17578 h 19.04492 c 0.83935,0 1.52539,0.68545 1.52539,1.52344 v 19.04882 c 0,0.83799 -0.68604,1.52344 -1.52539,1.52344 h -19.04492 c -0.83935,0 -1.52539,-0.68555 -1.52539,-1.52344 v -19.04882 c 0,-0.83789 0.68604,-1.52344 1.52539,-1.52344 z"
         id="path3366" />
    </g>
    <path
       transform="matrix(0.26458333,0,0,0.26458333,-462.30128,-292.1424)"
       d="M 42.447266 21.865234 C 32.613351 22.079156 22.080078 29.119099 22.080078 43.298828 L 22.080078 557.49414 C 22.080078 566.29666 29.518945 578.08203 43.882812 578.08203 L 557.19531 578.08203 C 570.086 578.08203 577.96631 566.261 577.92969 556.86914 L 577.95703 43.261719 C 578.14404 28.940422 567.32077 22.275242 557.45312 21.865234 L 42.447266 21.865234 z M 92.669922 92.632812 L 507.47852 92.632812 L 507.47852 508.33203 L 92.669922 508.33203 L 92.669922 92.632812 z "
       style="fill:#263894;fill-opacity:1;fill-rule:evenodd;stroke:none;stroke-width:1.33333"
       id="path1968" />
    <path
       sodipodi:nodetypes="ssccsscccccccccccccccccccccccccccccccccccccccccccccccccccccccccccccccccccccccccccccccc"
       transform="matrix(0.26458333,0,0,0.26458333,-462.30128,-292.1424)"
       d="m 299.93945,127.86328 c -88.82283,0 -177.63672,60.95536 -177.63672,182.86524 v 166.5371 h 355.28711 v -166.5371 c 0,-121.90988 -88.82756,-182.86524 -177.65039,-182.86524 z m -5.39453,11.31836 0.0801,68.97461 c -9.71554,0.40902 -19.36218,2.14778 -28.52148,5.1875 l -0.44336,0.37695 -26.54688,-64.1914 c 17.72553,-6.34103 36.55454,-9.78974 55.42969,-10.34571 z m 10.76172,0.0273 c 18.87511,0.59199 37.63576,4.11063 55.36133,10.5254 l -26.29688,64.23242 c -9.41899,-3.30025 -19.24525,-5.19963 -29.14648,-5.75586 z m -76.20508,14.3086 26.50586,63.96875 c -8.86254,4.15328 -17.08692,9.59862 -24.28125,16.42187 l -49.32422,-48.97656 c 13.79483,-13.42401 29.85631,-23.84972 47.09961,-31.41406 z m 141.8711,0.33398 c 16.98391,7.45353 33.16009,18.06398 46.80664,31.19141 l -49.28321,49.2832 c -7.37952,-6.86041 -15.46779,-12.24128 -24.40429,-16.39453 z m -196.38477,38.85938 0.002,0.008 49.50586,49.50586 -0.30664,-0.16211 c -5.63656,6.93415 -10.6332,16.0262 -14.15625,25.18555 l -64.30078,-26.63086 h 0.0254 c 7.08299,-18.24492 17.40115,-34.55655 29.23047,-47.90625 z m 250.67383,0.0352 c 12.08901,13.49825 21.98953,29.14601 29.14648,47.72461 l 0.10742,0.16211 -64.21874,26.58789 c -3.52279,-9.41816 -8.60188,-17.87403 -14.46094,-25.03125 h 0.0254 z m 32.74805,58.00196 c 4.59809,14.75898 7.75438,31.10836 8.60742,48.9082 l -69.75196,0.0801 c -0.37152,-7.67603 -1.63098,-15.5047 -3.33789,-22.17969 v -0.0273 z m -316.20899,0.0527 64.60742,26.74219 c -1.74376,6.93441 -3.00393,14.31823 -3.33789,22.17969 h -69.61328 c 0.81536,-17.7998 3.74539,-34.08863 8.34375,-48.92188 z m -8.5664,59.67188 h 69.86328 l 0.0273,0.26953 -0.0273,42.38476 v 0.4043 h -69.86328 z m 263.58984,0 h 69.82226 v 43.05273 h -69.82226 z m -263.58984,53.80273 h 69.86328 v 43.05273 h -69.86328 z m 263.58984,0 h 69.82226 v 43.05273 H 396.82422 Z M 133.23438,418.0918 h 69.86328 l -0.0254,48.41992 -69.83789,-0.0254 z m 263.58984,0 h 69.82226 v 48.39258 l -69.82226,0.0273 z"
       style="opacity:0.963934;fill:#000000;fill-opacity:1;fill-rule:evenodd;stroke:none;stroke-width:1.33333"
       id="path6359" />
  </g>
</svg>
