<?xml version="1.0" encoding="UTF-8" standalone="no"?>
<svg
   xmlns:dc="http://purl.org/dc/elements/1.1/"
   xmlns:cc="http://creativecommons.org/ns#"
   xmlns:rdf="http://www.w3.org/1999/02/22-rdf-syntax-ns#"
   xmlns:svg="http://www.w3.org/2000/svg"
   xmlns="http://www.w3.org/2000/svg"
   xmlns:sodipodi="http://sodipodi.sourceforge.net/DTD/sodipodi-0.dtd"
   xmlns:inkscape="http://www.inkscape.org/namespaces/inkscape"
   sodipodi:docname="Latvia_road_sign_551.svg"
   inkscape:version="1.0 (4035a4fb49, 2020-05-01)"
   id="svg6774"
   version="1.1"
   viewBox="0 0 346.13197 158.73614"
   height="158.73615mm"
   width="346.13199mm">
  <defs
     id="defs6768" />
  <sodipodi:namedview
     inkscape:window-maximized="1"
     inkscape:window-y="-9"
     inkscape:window-x="-9"
     inkscape:window-height="1001"
     inkscape:window-width="1920"
     fit-margin-bottom="0"
     fit-margin-right="0"
     fit-margin-left="0"
     fit-margin-top="0"
     showgrid="false"
     inkscape:document-rotation="0"
     inkscape:current-layer="layer1"
     inkscape:document-units="mm"
     inkscape:cy="1146.2682"
     inkscape:cx="497.45236"
     inkscape:zoom="0.28979717"
     inkscape:pageshadow="2"
     inkscape:pageopacity="0.0"
     borderopacity="1.0"
     bordercolor="#666666"
     pagecolor="#ffffff"
     id="base" />
  <metadata
     id="metadata6771">
    <rdf:RDF>
      <cc:Work
         rdf:about="">
        <dc:format>image/svg+xml</dc:format>
        <dc:type
           rdf:resource="http://purl.org/dc/dcmitype/StillImage" />
        <dc:title></dc:title>
      </cc:Work>
    </rdf:RDF>
  </metadata>
  <g
     transform="translate(824.44738,486.6103)"
     id="layer1"
     inkscape:groupmode="layer"
     inkscape:label="Layer 1">
    <g
       inkscape:groupmode="layer"
       id="g4514"
       style="opacity:1;stroke-width:0.141412"
       transform="matrix(7.0715152,0,0,7.0715152,2352.7209,1413.0307)">
      <path
         sodipodi:nodetypes="sssssssss"
         style="color:#000000;font-style:normal;font-variant:normal;font-weight:normal;font-stretch:normal;font-size:medium;line-height:normal;font-family:sans-serif;font-variant-ligatures:normal;font-variant-position:normal;font-variant-caps:normal;font-variant-numeric:normal;font-variant-alternates:normal;font-variant-east-asian:normal;font-feature-settings:normal;font-variation-settings:normal;text-indent:0;text-align:start;text-decoration:none;text-decoration-line:none;text-decoration-style:solid;text-decoration-color:#000000;letter-spacing:normal;word-spacing:normal;text-transform:none;writing-mode:lr-tb;direction:ltr;text-orientation:mixed;dominant-baseline:auto;baseline-shift:baseline;text-anchor:start;white-space:normal;shape-padding:0;shape-margin:0;inline-size:0;clip-rule:nonzero;display:inline;overflow:visible;visibility:visible;isolation:auto;mix-blend-mode:normal;color-interpolation:sRGB;color-interpolation-filters:linearRGB;solid-color:#000000;solid-opacity:1;vector-effect:none;fill:#ffffff;fill-opacity:1;fill-rule:nonzero;stroke:none;stroke-width:0.0249436;stroke-linecap:butt;stroke-linejoin:miter;stroke-miterlimit:22.926;stroke-dasharray:none;stroke-dashoffset:0;stroke-opacity:1;color-rendering:auto;image-rendering:auto;shape-rendering:auto;text-rendering:auto;enable-background:accumulate;stop-color:#000000;stop-opacity:1"
         d="m -447.58847,-268.54514 h 45.544 c 0.88746,0 1.61231,0.72623 1.61231,1.61231 v 19.04724 c 0,0.88608 -0.72485,1.61231 -1.61231,1.61231 h -45.544 c -0.88746,0 -1.61369,-0.72623 -1.61369,-1.61231 v -19.04724 c 0,-0.88608 0.72623,-1.61231 1.61369,-1.61231 z"
         id="path4510" />
      <path
         sodipodi:nodetypes="ssssssssssssssssss"
         style="color:#000000;font-style:normal;font-variant:normal;font-weight:normal;font-stretch:normal;font-size:medium;line-height:normal;font-family:sans-serif;font-variant-ligatures:normal;font-variant-position:normal;font-variant-caps:normal;font-variant-numeric:normal;font-variant-alternates:normal;font-variant-east-asian:normal;font-feature-settings:normal;font-variation-settings:normal;text-indent:0;text-align:start;text-decoration:none;text-decoration-line:none;text-decoration-style:solid;text-decoration-color:#000000;letter-spacing:normal;word-spacing:normal;text-transform:none;writing-mode:lr-tb;direction:ltr;text-orientation:mixed;dominant-baseline:auto;baseline-shift:baseline;text-anchor:start;white-space:normal;shape-padding:0;shape-margin:0;inline-size:0;clip-rule:nonzero;display:inline;overflow:visible;visibility:visible;isolation:auto;mix-blend-mode:normal;color-interpolation:sRGB;color-interpolation-filters:linearRGB;solid-color:#000000;solid-opacity:1;vector-effect:none;fill:#211e1e;fill-opacity:1;fill-rule:nonzero;stroke:none;stroke-width:0.0249436;stroke-linecap:butt;stroke-linejoin:miter;stroke-miterlimit:22.926;stroke-dasharray:none;stroke-dashoffset:0;stroke-opacity:1;color-rendering:auto;image-rendering:auto;shape-rendering:auto;text-rendering:auto;enable-background:accumulate;stop-color:#000000;stop-opacity:1"
         d="m -447.58789,-268.63281 c -0.93558,0 -1.70313,0.76495 -1.70313,1.69922 v 19.04882 c 0,0.93427 0.76755,1.69922 1.70313,1.69922 h 45.54306 c 0.93558,0 1.70117,-0.76504 1.70117,-1.69922 v -19.04882 c 0,-0.93418 -0.76559,-1.69922 -1.70117,-1.69922 z m 0,0.17578 h 45.54306 c 0.83935,0 1.52539,0.68545 1.52539,1.52344 v 19.04882 c 0,0.83799 -0.68604,1.52344 -1.52539,1.52344 h -45.54306 c -0.83935,0 -1.52539,-0.68555 -1.52539,-1.52344 v -19.04882 c 0,-0.83789 0.68604,-1.52344 1.52539,-1.52344 z"
         id="path4512" />
    </g>
    <path
       sodipodi:nodetypes="ccssssccc"
       id="path4516"
       d="m -489.57275,-480.82555 h -323.64383 c -2.60189,0.0566 -5.38892,1.91978 -5.38892,5.6715 v 136.0474 c 0,2.329 1.9685,5.4474 5.76894,5.4474 h 323.19557 c 3.41066,0 5.49605,-3.12809 5.48636,-5.61302 l 0.007,-135.89154 c 0.0495,-3.79068 -2.81623,-5.55453 -5.42788,-5.66174"
       style="fill:#263894;fill-opacity:1;fill-rule:evenodd;stroke:none;stroke-width:0.352777" />
    <path
       style="opacity:1;fill:#ffffff;fill-opacity:1;fill-rule:evenodd;stroke:none;stroke-width:0.352777"
       d="m -616.94425,-414.41513 1.86009,-2.20698 c 1.96605,1.67693 4.61636,2.32265 7.1317,1.67693 1.34929,-0.34689 2.15878,-1.69617 1.81192,-3.0358 -0.24127,-1.00233 -1.06016,-1.76365 -2.10104,-1.87933 l -3.02616,-0.41472 c -2.92984,-0.38535 -4.9922,-3.06468 -4.59712,-6.0234 0.32799,-2.40938 2.23594,-4.31759 4.66462,-4.61636 2.61171,-0.28884 5.29097,0.36646 7.49793,1.86002 l -1.60942,2.33231 c -1.63842,-1.12758 -3.60447,-1.57091 -5.56084,-1.33963 -1.38783,0.14477 -2.36119,1.4167 -2.19733,2.77556 0.13499,1.13724 1.0408,2.03354 2.16845,2.1974 l 3.04544,0.38535 c 2.92976,0.41472 4.99221,3.07433 4.60672,6.03306 -0.28886,2.16844 -1.87933,3.9514 -4.01882,4.48145 -3.38283,0.86735 -6.99685,0 -9.67611,-2.22628 z m -9.03031,2.40937 v -16.25845 h -5.18494 v -2.49609 h 13.23231 v 2.49609 h -5.21398 v 16.25845 z m -21.25064,0 v -18.75454 h 2.8334 v 9.69534 l 7.88351,-9.69534 h 3.32492 l -6.01382,7.36303 6.70772,11.39151 h -3.35388 l -5.19458,-9.21341 -3.35387,3.48877 v 5.72464 z m -18.42691,0 v -18.75454 h 2.67921 l 8.53887,13.36721 v -13.36721 h 2.86234 v 18.75454 h -2.69857 l -8.53881,-13.39609 v 13.39609 z m -17.38603,-18.75454 h 2.8334 v 12.22032 c 0,2.12026 1.73477,3.82608 3.85504,3.82608 2.12027,0 3.83573,-1.70582 3.83573,-3.82608 v -12.22032 h 2.8623 v 12.22032 c 0,3.69117 -3.00684,6.68843 -6.69803,6.68843 -3.71046,0 -6.68844,-2.99726 -6.68844,-6.68843 z m -13.22266,8.68336 h 4.36577 c 1.64806,0 2.98762,-1.33963 2.98762,-2.99726 0,-1.66728 -1.33956,-3.00691 -2.98762,-3.00691 h -4.36577 z m -2.85271,10.07118 v -18.75454 h 7.36304 c 3.14183,0 5.69575,2.54428 5.69575,5.6861 0,3.13217 -2.55393,5.67652 -5.69575,5.67652 h -4.51034 v 7.39192 z m -63.3472,29.65461 v -19.24612 h 7.91238 c 2.84305,0 5.15606,2.2937 5.15606,5.15605 0,1.66728 -0.82889,3.23819 -2.1974,4.23087 2.52505,1.52272 3.28645,4.79945 1.75407,7.31485 -0.96379,1.57091 -2.67926,2.54435 -4.53928,2.54435 z m 2.94907,-2.75633 h 4.7898 c 1.63841,0 2.91054,-1.31075 2.91054,-2.91054 0,-1.62875 -1.27214,-2.92984 -2.91054,-2.92984 h -4.7898 z m 0,-8.4232 h 4.62601 c 1.52265,0 2.74668,-1.24326 2.74668,-2.74668 0,-1.50342 -1.22403,-2.74668 -2.74668,-2.74668 h -4.62601 z m 13.213,4.4718 v -5.83066 c 0,-3.79719 3.07433,-6.88118 6.88118,-6.88118 3.78747,0 6.88117,3.08399 6.88117,6.88118 v 5.83066 c 0,3.81642 -3.0937,6.87152 -6.88117,6.87152 -3.80685,0 -6.88118,-3.0551 -6.88118,-6.87152 z m 2.92977,0 c 0,2.1781 1.77331,3.9514 3.95141,3.9514 2.18767,0 3.9321,-1.7733 3.9321,-3.9514 v -5.83066 c 0,-2.1974 -1.74443,-3.97064 -3.9321,-3.97064 -2.1781,0 -3.95141,1.77324 -3.95141,3.97064 z m 14.60082,6.70773 v -19.24612 h 7.89308 c 3.04545,0 5.50301,2.45756 5.50301,5.503 0,2.33231 -1.50342,4.43327 -3.72005,5.2139 l 4.40431,8.52922 h -3.44059 l -3.94168,-8.26899 h -3.78754 v 8.26899 z m 2.91054,-10.83258 h 4.81875 c 1.6191,0 2.91047,-1.32032 2.91047,-2.91054 0,-1.61909 -1.29137,-2.92977 -2.91047,-2.92977 h -4.81875 z m 14.6104,10.83258 v -19.24612 h 6.88117 c 3.7972,0 6.86188,3.05509 6.86188,6.86187 v 5.52231 c 0,3.76824 -3.06468,6.86194 -6.86188,6.86194 z m 2.92019,-2.75633 h 3.96098 c 2.1781,0 3.95141,-1.7733 3.95141,-3.9514 v -5.83066 c 0,-2.1974 -1.77331,-3.97064 -3.95141,-3.97064 h -3.96098 z m 14.6104,2.75633 v -19.24612 h 12.37454 v 2.73709 h -9.4447 v 5.51259 h 8.06659 v 2.58289 h -8.06659 v 5.65722 h 9.4447 v 2.75633 z m 16.14284,0 v -19.24612 h 7.92197 c 3.02621,0 5.50301,2.45756 5.50301,5.503 0,2.33231 -1.51308,4.43327 -3.72971,5.2139 l 4.41396,8.52922 h -3.44057 l -3.95133,-8.26899 h -3.78755 v 8.26899 z m 2.92977,-10.83258 h 4.82841 c 1.59979,0 2.91047,-1.32032 2.91047,-2.91054 0,-1.61909 -1.31068,-2.92977 -2.91047,-2.92977 h -4.82841 z m 36.02497,4.98255 c -0.66509,3.65263 -4.17303,6.10054 -7.81601,5.43559 -3.19966,-0.55879 -5.54162,-3.33456 -5.54162,-6.58241 v -5.72464 c 0,-3.68158 3.03588,-6.69808 6.7174,-6.69808 3.25742,0 6.0234,2.34189 6.64023,5.54155 h -2.96838 c -0.64551,-2.04312 -2.80451,-3.17071 -4.84763,-2.5154 -1.59987,0.53991 -2.67926,1.995 -2.67926,3.67193 v 5.72464 c 0,2.13949 1.72512,3.83573 3.85504,3.83573 1.67692,0 3.16111,-1.05051 3.67186,-2.68891 z m 2.65989,-1.14682 v -5.72464 c 0,-3.68158 3.00691,-6.69808 6.69808,-6.69808 3.70082,0 6.72698,3.0165 6.72698,6.69808 v 5.72464 c 0,3.69117 -3.02616,6.69801 -6.72698,6.69801 -3.69117,0 -6.69808,-3.00684 -6.69808,-6.69801 z m 2.84312,0 c 0,2.13949 1.72512,3.83573 3.85496,3.83573 2.12991,0 3.85504,-1.69624 3.85504,-3.83573 v -5.72464 c 0,-2.12991 -1.7251,-3.83572 -3.85504,-3.83572 -2.12983,0 -3.85496,1.70581 -3.85496,3.83572 z m 14.26344,6.53422 v -18.80273 h 2.67926 l 8.56769,13.41533 v -13.41533 h 2.84306 v 18.80273 h -2.66954 l -8.57741,-13.41539 v 13.41539 z m 21.97351,0 v -16.27775 h -5.20424 v -2.52498 h 13.26118 v 2.52498 h -5.21389 v 16.27775 z m 10.73621,0 v -18.80273 h 7.72923 c 2.95872,0 5.35844,2.40931 5.35844,5.38734 0,2.28412 -1.45524,4.35612 -3.62368,5.06933 l 4.29828,8.34606 h -3.35379 l -3.85503,-8.05694 h -3.71048 v 8.05694 z m 2.84298,-10.55304 h 4.70316 c 1.59015,0 2.86235,-1.29144 2.86235,-2.86235 0,-1.57091 -1.2722,-2.86236 -2.86235,-2.86236 h -4.70316 z m 12.92395,4.01882 v -5.72464 c 0,-3.68158 3.02615,-6.69808 6.70767,-6.69808 3.72969,0 6.71731,3.0165 6.71731,6.69808 v 5.72464 c 0,3.69117 -2.98762,6.69801 -6.71731,6.69801 -3.68152,0 -6.70767,-3.00684 -6.70767,-6.69801 z m 2.86229,0 c 0,2.13949 1.71547,3.83573 3.84538,3.83573 2.13949,0 3.87427,-1.69624 3.87427,-3.83573 v -5.72464 c 0,-2.12991 -1.73478,-3.83572 -3.87427,-3.83572 -2.12991,0 -3.84538,1.70581 -3.84538,3.83572 z m 14.27319,6.53422 v -18.80273 h 2.82375 v 16.10424 h 9.26166 v 2.69849 z m -134.28887,29.8184 v -19.22682 h 7.55584 c 3.20925,0 5.84033,2.63107 5.84033,5.84996 0,3.22854 -2.63108,5.82108 -5.84033,5.82108 h -4.64531 v 7.55578 z m 2.91053,-10.28322 h 4.48145 c 1.70583,0 3.07434,-1.38782 3.07434,-3.09364 0,-1.71546 -1.36851,-3.09363 -3.07434,-3.09363 h -4.48145 z m 13.25154,3.58514 v -5.83066 c 0,-3.78754 3.03585,-6.85229 6.84263,-6.85229 3.78755,0 6.88117,3.06475 6.88117,6.85229 v 5.83066 c 0,3.80685 -3.09362,6.88118 -6.88117,6.88118 -3.80678,0 -6.84263,-3.07433 -6.84263,-6.88118 z m 2.89125,0 c 0,2.20698 1.76373,3.97064 3.95141,3.97064 2.18776,0 3.95141,-1.76366 3.95141,-3.97064 v -5.83066 c 0,-2.16844 -1.76365,-3.94175 -3.95141,-3.94175 -2.18768,0 -3.95141,1.77331 -3.95141,3.94175 z m 17.53066,6.69808 h -2.92985 v -19.22682 h 2.92985 z m -2.92985,0 z m 7.39199,0 v -19.22682 h 2.74667 l 8.78939,13.7527 v -13.7527 h 2.89125 v 19.22682 h -2.74667 l -8.77017,-13.70451 v 13.70451 z m 22.51319,0 v -16.65358 h -5.32956 v -2.57324 h 13.5503 v 2.57324 h -5.32952 v 16.65358 z m -140.48577,-88.15417 v -19.13039 h 7.88351 c 3.02615,0 5.51265,2.44792 5.51265,5.45483 0,2.33223 -1.52273,4.43326 -3.75865,5.21389 l 4.41396,8.46167 h -3.42129 l -3.95141,-8.20151 h -3.73928 v 8.20151 z m 2.93949,-10.76509 h 4.78016 c 1.60942,0 2.91053,-1.31068 2.91053,-2.91047 0,-1.59021 -1.30111,-2.89124 -2.91053,-2.89124 h -4.78016 z m 13.16475,4.10561 v -5.81143 c 0,-3.76824 3.06475,-6.86187 6.8523,-6.86187 3.78755,0 6.86186,3.09363 6.86186,6.86187 v 5.81143 c 0,3.78754 -3.07434,6.86187 -6.86186,6.86187 -3.78755,0 -6.8523,-3.07433 -6.8523,-6.86187 z m 2.92984,0 c 0,2.1781 1.71547,3.9514 3.92246,3.9514 2.16845,0 3.9321,-1.7733 3.9321,-3.9514 v -5.81143 c 0,-2.1781 -1.76365,-3.95133 -3.9321,-3.95133 -2.20699,0 -3.92246,1.77323 -3.92246,3.95133 z m 14.52368,6.65948 v -19.13039 h 7.87384 c 2.82376,0 5.13675,2.2744 5.13675,5.10787 0,1.68652 -0.81916,3.2382 -2.19732,4.23087 2.53463,1.49377 3.30569,4.78015 1.75401,7.25701 -0.97338,1.59022 -2.65989,2.53464 -4.52958,2.53464 z m 2.92976,-2.70808 h 4.78022 c 1.59987,0 2.89125,-1.31074 2.89125,-2.92984 0,-1.59014 -1.29138,-2.91054 -2.89125,-2.91054 h -4.78022 z m 0,-8.4039 h 4.60677 c 1.51307,0 2.73704,-1.22402 2.73704,-2.76598 0,-1.46488 -1.22397,-2.68884 -2.73704,-2.68884 h -4.60677 z m 14.20575,11.11198 v -19.13039 h 12.31669 v 2.70815 h -9.42553 v 5.49336 h 8.05701 v 2.56358 h -8.05701 v 5.65722 h 9.42553 v 2.70808 z m 15.38135,0 v -2.38043 l 8.73155,-14.18637 h -8.36528 v -2.56359 h 11.9601 v 2.20699 l -8.74122,14.21532 h 8.74122 v 2.70808 z m 16.09466,0 v -19.13039 h 2.92977 v 9.89767 l 8.01841,-9.89767 h 3.42129 l -6.14874,7.5076 6.84264,11.62279 h -3.44058 l -5.29097,-9.40616 -3.40205,3.60438 v 5.80178 z m 16.42224,-6.65948 v -5.81143 c 0,-3.76824 3.0551,-6.86187 6.85229,-6.86187 3.76824,0 6.84264,3.09363 6.84264,6.86187 v 5.81143 c 0,3.78754 -3.0744,6.86187 -6.84264,6.86187 -3.79719,0 -6.85229,-3.07433 -6.85229,-6.86187 z m 2.92984,0 c 0,2.1781 1.754,3.9514 3.92245,3.9514 2.17804,0 3.9321,-1.7733 3.9321,-3.9514 v -5.81143 c 0,-2.1781 -1.75406,-3.95133 -3.9321,-3.95133 -2.16845,0 -3.92245,1.77323 -3.92245,3.95133 z m 14.55263,6.65948 v -19.13039 h 2.71773 l 8.73155,13.67563 v -13.67563 h 2.91054 v 19.13039 h -2.71773 l -8.75085,-13.67556 v 13.67556 z m 22.40711,0 v -16.5668 h -5.30061 v -2.56359 h 13.52142 v 2.56359 h -5.31992 v 16.5668 z m 10.95783,0 v -19.13039 h 7.8642 c 3.04545,0 5.49343,2.44792 5.49343,5.45483 0,2.33223 -1.50349,4.43326 -3.72012,5.21389 l 4.40431,8.46167 h -3.43094 l -3.91278,-8.20151 h -3.77788 v 8.20151 z m 2.92019,-10.76509 h 4.78022 c 1.60945,0 2.91047,-1.31068 2.91047,-2.91047 0,-1.59021 -1.30102,-2.89124 -2.91047,-2.89124 h -4.78022 z m 13.16482,4.10561 v -5.81143 c 0,-3.76824 3.06468,-6.86187 6.83299,-6.86187 3.80677,0 6.87152,3.09363 6.87152,6.86187 v 5.81143 c 0,3.78754 -3.06475,6.86187 -6.87152,6.86187 -3.76831,0 -6.83299,-3.07433 -6.83299,-6.86187 z m 2.92977,0 c 0,2.1781 1.74442,3.9514 3.90322,3.9514 2.18767,0 3.95133,-1.7733 3.95133,-3.9514 v -5.81143 c 0,-2.1781 -1.76366,-3.95133 -3.95133,-3.95133 -2.1588,0 -3.90322,1.77323 -3.90322,3.95133 z m 14.52375,6.65948 v -19.13039 h 2.91047 v 16.42231 h 9.41587 v 2.70808 z m 15.0826,0 v -19.13039 h 12.30712 v 2.70815 h -9.40616 v 5.49336 h 8.04722 v 2.56358 h -8.04722 v 5.65722 h 9.40616 v 2.70808 z m 15.0538,-2.46722 1.88898,-2.19733 c 2.01423,1.68659 4.74161,2.31301 7.27624,1.68659 1.38782,-0.36647 2.21663,-1.71547 1.87933,-3.10329 -0.24128,-1.03121 -1.10828,-1.80219 -2.14914,-1.92751 l -3.12252,-0.40493 c -2.99726,-0.40493 -5.10787,-3.15147 -4.7128,-6.13908 0.328,-2.48652 2.29377,-4.45257 4.78987,-4.75127 2.69849,-0.29863 5.44517,0.35668 7.6618,1.90815 l -1.63832,2.39979 c -1.66736,-1.14689 -3.67194,-1.6384 -5.66687,-1.40712 -1.42636,0.18323 -2.41903,1.47454 -2.23594,2.86236 0.13498,1.17577 1.02156,2.10095 2.21663,2.24551 l 3.07433,0.39514 c 3.01657,0.41472 5.14648,3.14182 4.73204,6.15838 -0.29863,2.20698 -1.91787,4.06701 -4.10555,4.60671 -3.46954,0.82882 -7.1414,0 -9.88808,-2.33231 z m -141.81569,-19.89178 -3.44059,-3.508 2.65031,0.0699 1.98528,1.94682 1.96612,-2.01423 2.67919,0.021 -3.45989,3.48877 h -2.38042"
       id="path3763" />
  </g>
</svg>
