<?xml version="1.0" encoding="UTF-8" standalone="no"?>
<svg
   xmlns:dc="http://purl.org/dc/elements/1.1/"
   xmlns:cc="http://creativecommons.org/ns#"
   xmlns:rdf="http://www.w3.org/1999/02/22-rdf-syntax-ns#"
   xmlns:svg="http://www.w3.org/2000/svg"
   xmlns="http://www.w3.org/2000/svg"
   xmlns:sodipodi="http://sodipodi.sourceforge.net/DTD/sodipodi-0.dtd"
   xmlns:inkscape="http://www.inkscape.org/namespaces/inkscape"
   sodipodi:docname="Latvia_road_sign_512.svg"
   inkscape:version="1.0 (4035a4fb49, 2020-05-01)"
   id="svg3845"
   version="1.1"
   viewBox="0 0 387.07922 194.99998"
   height="194.99998mm"
   width="387.07922mm">
  <defs
     id="defs3839" />
  <sodipodi:namedview
     inkscape:document-rotation="0"
     inkscape:window-maximized="1"
     inkscape:window-y="-9"
     inkscape:window-x="-9"
     inkscape:window-height="1001"
     inkscape:window-width="1920"
     showgrid="false"
     inkscape:current-layer="layer1"
     inkscape:document-units="mm"
     inkscape:cy="-130.88412"
     inkscape:cx="238.08629"
     inkscape:zoom="0.49497475"
     inkscape:pageshadow="2"
     inkscape:pageopacity="0.0"
     borderopacity="1.0"
     bordercolor="#666666"
     pagecolor="#ffffff"
     id="base" />
  <metadata
     id="metadata3842">
    <rdf:RDF>
      <cc:Work
         rdf:about="">
        <dc:format>image/svg+xml</dc:format>
        <dc:type
           rdf:resource="http://purl.org/dc/dcmitype/StillImage" />
        <dc:title></dc:title>
      </cc:Work>
    </rdf:RDF>
  </metadata>
  <g
     transform="translate(-177.53783,250.57267)"
     id="layer1"
     inkscape:groupmode="layer"
     inkscape:label="Layer 1">
    <path
       style="fill:#ffffff;fill-opacity:1;stroke:#000000;stroke-width:1.5643;stroke-linecap:butt;stroke-linejoin:miter;stroke-miterlimit:22.926;stroke-opacity:1"
       d="m 193.70636,-249.79052 h 354.74216 c 8.45698,0 15.38637,6.94162 15.38637,15.43532 v 162.565138 c 0,8.4937 -6.92939,15.43523 -15.38637,15.43523 H 193.70636 c -8.45699,0 -15.38638,-6.94153 -15.38638,-15.43523 V -234.3552 c 0,-8.4937 6.92939,-15.43532 15.38638,-15.43532 z m 0,0"
       id="path12832" />
    <path
       style="fill:#263894;fill-opacity:1;fill-rule:evenodd;stroke:none;stroke-width:3.1286"
       d="m 183.31844,-234.6608 c 0,-4.64407 3.65417,-10.79126 11.17012,-10.93795 l 353.44665,0.1348 c 6.55053,-0.0355 11.01128,5.54839 11.01128,11.1335 l -0.009,162.687338 c 0.009,6.36721 -5.30389,11.12116 -11.04783,11.09677 l -353.2519,0.009 c -6.23277,-0.009 -11.1946,-4.87624 -11.3168,-10.97457 V -234.66369"
       id="path12788" />
    <path
       style="fill:#ffffff;fill-opacity:1;fill-rule:evenodd;stroke:none;stroke-width:3.1286"
       d="m 310.27142,-146.4978 -4.28969,0.0532 v -11.96447 l 4.25297,-0.0355 0.0355,11.95223"
       id="path12790" />
    <path
       style="fill:#ffffff;fill-opacity:1;fill-rule:evenodd;stroke:none;stroke-width:3.1286"
       d="m 310.27142,-128.94823 -4.35079,0.0355 v -12.01342 l 4.31407,-0.12238 0.0355,12.09891"
       id="path12792" />
    <path
       style="fill:#ffffff;fill-opacity:1;fill-rule:evenodd;stroke:none;stroke-width:3.1286"
       d="m 310.27142,-111.58206 h -4.35079 l 0.0621,-12.01333 4.25297,-0.0355 0.0355,12.05005"
       id="path12794" />
    <path
       style="fill:#ffffff;fill-opacity:1;fill-rule:evenodd;stroke:none;stroke-width:3.1286"
       d="m 310.2347,-94.142542 -4.17963,-0.0887 v -11.866738 h 4.17963 v 11.952238"
       id="path12796" />
    <path
       style="fill:#ffffff;fill-opacity:1;fill-rule:evenodd;stroke:none;stroke-width:3.1286"
       d="m 310.2347,-163.86398 -4.25297,-0.0266 v -11.79278 l 4.2041,-0.0976 0.0532,11.9156"
       id="path12798" />
    <path
       style="fill:#ffffff;fill-opacity:1;fill-rule:evenodd;stroke:none;stroke-width:3.1286"
       d="m 310.18583,-76.776372 h -4.13076 l -0.1348,-11.87889 h 4.26521 v 11.87889"
       id="path12800" />
    <path
       style="fill:#ffffff;fill-opacity:1;fill-rule:evenodd;stroke:none;stroke-width:3.1286"
       d="m 310.2347,-181.20576 -4.21625,-0.0443 0.0355,-12.11107 4.17963,0.0887 v 12.07443"
       id="path12802" />
    <path
       style="fill:#ffffff;fill-opacity:1;fill-rule:evenodd;stroke:none;stroke-width:3.1286"
       d="m 310.27142,-198.6819 h -4.30184 l 0.0887,-12.02558 4.26511,0.0355 -0.0443,11.98894"
       id="path12804" />
    <path
       style="fill:#ffffff;fill-opacity:1;fill-rule:evenodd;stroke:none;stroke-width:3.1286"
       d="m 310.32028,-216.17028 h -4.33855 l 0.0355,-11.83003 h 4.21626 l 0.0887,11.83003"
       id="path12806" />
    <path
       style="fill:#ffffff;fill-opacity:1;fill-rule:evenodd;stroke:none;stroke-width:3.1286"
       d="m 292.91739,-185.42202 -15.37413,-4.38732 v 116.931468 l -17.42728,-0.0443 v -48.481068 c -0.0975,-9.45921 -6.03722,-17.89172 -17.06074,-17.9162 l -8.81137,0.0887 4.99845,17.64721 -43.93494,-25.35871 44.03267,-26.37318 -4.99845,18.50275 8.39597,-0.0355 c 5.59725,-0.0266 13.99313,1.72324 17.23173,6.13504 l 0.1951,-41.1729 -15.48419,4.52177 24.18559,-44.10598 24.05115,44.05711"
       id="path12808" />
    <path
       style="fill:#ffffff;fill-opacity:1;fill-rule:evenodd;stroke:none;stroke-width:3.1286"
       d="m 379.80945,-189.85821 -0.0887,116.980338 -17.39065,-0.0443 -0.0355,-117.139348 -15.04423,4.65631 23.90447,-43.94715 24.08786,44.10598 -15.43524,-4.60735"
       id="path12810" />
    <path
       style="fill:#ffffff;fill-opacity:1;fill-rule:evenodd;stroke:none;stroke-width:3.1286"
       d="m 436.36873,-146.4978 -4.27736,0.0532 0.0266,-11.96447 4.2652,-0.0266 -0.009,11.93999"
       id="path12812" />
    <path
       style="fill:#ffffff;fill-opacity:1;fill-rule:evenodd;stroke:none;stroke-width:3.1286"
       d="m 436.36873,-128.96047 h -4.2896 v -12.00109 l 4.30184,-0.0976 -0.009,12.09892"
       id="path12814" />
    <path
       style="fill:#ffffff;fill-opacity:1;fill-rule:evenodd;stroke:none;stroke-width:3.1286"
       d="m 436.36873,-111.60653 -4.30184,0.009 0.0532,-12.01333 4.25288,-0.0266 v 12.02558"
       id="path12816" />
    <path
       style="fill:#ffffff;fill-opacity:1;fill-rule:evenodd;stroke:none;stroke-width:3.1286"
       d="m 436.35649,-94.142542 -4.19187,-0.0887 v -11.866738 h 4.19187 v 11.952238"
       id="path12818" />
    <path
       style="fill:#ffffff;fill-opacity:1;fill-rule:evenodd;stroke:none;stroke-width:3.1286"
       d="m 436.35649,-163.87613 -4.25297,-0.009 v -11.81779 l 4.21634,-0.0976 0.0355,11.92784"
       id="path12820" />
    <path
       style="fill:#ffffff;fill-opacity:1;fill-rule:evenodd;stroke:none;stroke-width:3.1286"
       d="m 436.31986,-76.764132 h -4.14291 l -0.10997,-11.90337 h 4.25297 v 11.90337"
       id="path12822" />
    <path
       style="fill:#ffffff;fill-opacity:1;fill-rule:evenodd;stroke:none;stroke-width:3.1286"
       d="m 436.35649,-181.20576 -4.22849,-0.0355 0.0355,-12.12339 4.19187,0.0887 v 12.07444"
       id="path12824" />
    <path
       style="fill:#ffffff;fill-opacity:1;fill-rule:evenodd;stroke:none;stroke-width:3.1286"
       d="m 436.38097,-198.6819 h -4.30184 l 0.0887,-12.02558 4.2652,0.0355 -0.0532,11.98894"
       id="path12826" />
    <path
       style="fill:#ffffff;fill-opacity:1;fill-rule:evenodd;stroke:none;stroke-width:3.1286"
       d="m 436.42983,-216.19476 -4.33846,-0.009 0.0355,-11.7934 h 4.2285 l 0.0709,11.80564"
       id="path12828" />
    <path
       style="fill:#ffffff;fill-opacity:1;fill-rule:evenodd;stroke:none;stroke-width:3.1286"
       d="m 504.3303,-152.92603 5.53615,-16.33965 -15.88744,0.0266 c -6.70936,0 -13.02771,3.98408 -13.16207,13.47992 l -0.009,82.883498 -16.18072,-0.0709 0.0621,-85.963348 c -0.0621,-7.27145 5.10842,-25.29762 25.93321,-25.8354 l 19.02822,-0.0976 -5.37723,-18.67392 44.33816,26.03094 -44.27705,24.56446"
       id="path12830" />
  </g>
</svg>
