<?xml version="1.0" encoding="UTF-8" standalone="no"?>
<svg
   xmlns:dc="http://purl.org/dc/elements/1.1/"
   xmlns:cc="http://creativecommons.org/ns#"
   xmlns:rdf="http://www.w3.org/1999/02/22-rdf-syntax-ns#"
   xmlns:svg="http://www.w3.org/2000/svg"
   xmlns="http://www.w3.org/2000/svg"
   xmlns:sodipodi="http://sodipodi.sourceforge.net/DTD/sodipodi-0.dtd"
   xmlns:inkscape="http://www.inkscape.org/namespaces/inkscape"
   width="195mm"
   height="127.5006mm"
   viewBox="0 0 195 127.5006"
   version="1.1"
   id="svg3845"
   inkscape:version="1.0 (4035a4fb49, 2020-05-01)"
   sodipodi:docname="Latvia_road_sign_510.svg">
  <defs
     id="defs3839" />
  <sodipodi:namedview
     id="base"
     pagecolor="#ffffff"
     bordercolor="#666666"
     borderopacity="1.0"
     inkscape:pageopacity="0.0"
     inkscape:pageshadow="2"
     inkscape:zoom="0.49497475"
     inkscape:cx="1183.0044"
     inkscape:cy="-105.87665"
     inkscape:document-units="mm"
     inkscape:current-layer="layer1"
     showgrid="false"
     inkscape:window-width="1920"
     inkscape:window-height="1001"
     inkscape:window-x="-9"
     inkscape:window-y="-9"
     inkscape:window-maximized="1"
     inkscape:document-rotation="0" />
  <metadata
     id="metadata3842">
    <rdf:RDF>
      <cc:Work
         rdf:about="">
        <dc:format>image/svg+xml</dc:format>
        <dc:type
           rdf:resource="http://purl.org/dc/dcmitype/StillImage" />
        <dc:title></dc:title>
      </cc:Work>
    </rdf:RDF>
  </metadata>
  <g
     inkscape:label="Layer 1"
     inkscape:groupmode="layer"
     id="layer1"
     transform="translate(110.68503,252.12933)">
    <path
       style="fill:#ffffff;fill-opacity:1;stroke:#000000;stroke-width:1.02649;stroke-linecap:butt;stroke-linejoin:miter;stroke-miterlimit:22.926;stroke-opacity:1"
       d="M -101.95986,-251.61609 H 75.589854 c 4.514895,0 8.211869,3.68894 8.211869,8.20389 v 110.06638 c 0,4.51495 -3.696974,8.20384 -8.211869,8.20384 H -101.95986 c -4.51496,0 -8.21193,-3.68889 -8.21193,-8.20384 V -243.4122 c 0,-4.51495 3.69697,-8.20389 8.21193,-8.20389 z m 0,0"
       id="path1746" />
    <path
       style="fill:#263894;fill-opacity:1;fill-rule:evenodd;stroke:none;stroke-width:2.05296"
       d="m -107.15645,-243.09946 c 0.0291,-2.63836 1.87654,-5.7499 5.84609,-5.85412 H 74.988415 c 3.921487,0.21648 5.806054,3.44028 5.806054,5.83812 l -0.01746,109.64138 c 0.01746,3.89739 -3.720949,5.89422 -5.998503,5.6697 H -101.38386 c -2.58226,0.0291 -5.74995,-2.18933 -5.77399,-5.57351 v -109.72157"
       id="path1722" />
    <path
       style="fill:#ffffff;fill-opacity:1;fill-rule:evenodd;stroke:none;stroke-width:2.05296"
       d="m -13.120866,-201.96789 c 11.5479206,0 20.9627261,9.4148 20.9627261,20.96272 0,11.54798 -9.4148055,20.95476 -20.9627261,20.95476 -11.54798,0 -20.954696,-9.40678 -20.954696,-20.95476 0,-11.54792 9.406716,-20.96272 20.954696,-20.96272"
       id="path1724" />
    <path
       style="fill:#263894;fill-opacity:1;fill-rule:evenodd;stroke:none;stroke-width:2.05296"
       d="m -13.120866,-200.09136 c 10.5214879,0 19.0781589,8.57274 19.0781589,19.07822 0,10.52946 -8.556671,19.07013 -19.0781589,19.07013 -10.505427,0 -19.070129,-8.54067 -19.070129,-19.07013 0,-10.50548 8.564702,-19.07822 19.070129,-19.07822"
       id="path1726" />
    <path
       style="fill:#ffffff;fill-opacity:1;fill-rule:evenodd;stroke:none;stroke-width:2.05296"
       d="m -23.562105,-180.82069 v -8.77327 h 8.757151 v 2.34971 h -6.567878 v 3.68895 c 1.844472,-1.45958 4.506923,-1.13875 5.958408,0.69769 0.585436,0.74576 0.906203,1.67606 0.906203,2.62235 v 2.47798 c 0,2.59029 -2.085047,4.68331 -4.667307,4.68331 -2.421818,0 -4.442734,-1.84447 -4.667306,-4.23422 h 2.365718 c 0.232778,1.27509 1.467604,2.10111 2.734671,1.8525 1.106683,-0.20019 1.908602,-1.17087 1.908602,-2.30159 v -2.03692 c 0,-1.29116 -1.058556,-2.33365 -2.341685,-2.33365 -0.898172,0 -1.716152,0.49698 -2.117112,1.30716 z m 11.980946,3.06341 v -7.30567 c 0,-2.58226 2.0930776,-4.6673 4.6753375,-4.6673 2.5902907,0 4.6753376,2.08504 4.6753376,4.6673 v 7.30567 c 0,2.59029 -2.0850469,4.68331 -4.6753376,4.68331 -2.5822599,0 -4.6753375,-2.09302 -4.6753375,-4.68331 z m 2.3416841,0 c 0,1.2911 1.0425526,2.34966 2.3336534,2.34966 1.2911008,0 2.3416842,-1.05856 2.3416842,-2.34966 v -7.30567 c 0,-1.28312 -1.0505834,-2.33365 -2.3416842,-2.33365 -1.2911008,0 -2.3336534,1.05053 -2.3336534,2.33365 v 7.30567"
       id="path1728" />
    <path
       style="fill:#ffffff;fill-opacity:1;fill-rule:evenodd;stroke:none;stroke-width:2.05296"
       d="m -68.591141,-162.1194 c 3.721008,1.0184 6.31933,0.89817 10.04831,0.0803 l 0.01746,23.92185 -10.216724,0.0349 0.152469,-24.03417"
       id="path1730" />
    <path
       style="fill:#ffffff;fill-opacity:1;fill-rule:evenodd;stroke:none;stroke-width:2.05296"
       d="m -63.635131,-240.44504 17.337989,29.50345 -12.205593,-3.87336 -0.0291,14.41086 c -3.745042,-0.76986 -6.519751,-0.75385 -10.25682,0.0407 v -14.45095 l -12.229611,3.96956 17.3861,-29.59965"
       id="path1732" />
    <path
       style="fill:#ffffff;fill-opacity:1;fill-rule:evenodd;stroke:none;stroke-width:2.05296"
       d="m -63.755419,-201.99193 c 11.555952,0 20.978806,9.42278 20.978806,20.97879 0,11.55595 -9.422854,20.9707 -20.978806,20.9707 -11.555952,0 -20.970758,-9.41475 -20.970758,-20.9707 0,-11.55601 9.414806,-20.97879 20.970758,-20.97879"
       id="path1734" />
    <path
       style="fill:#263894;fill-opacity:1;fill-rule:evenodd;stroke:none;stroke-width:2.05296"
       d="m -63.747388,-200.15549 c 10.529461,0 19.126303,8.59677 19.126303,19.15032 0,10.53755 -8.596842,19.12629 -19.126303,19.12629 -10.553554,0 -19.134317,-8.58874 -19.134317,-19.12629 0,-10.55355 8.580763,-19.15032 19.134317,-19.15032"
       id="path1736" />
    <path
       style="fill:#ffffff;fill-opacity:1;fill-rule:evenodd;stroke:none;stroke-width:2.05296"
       d="m -72.18383,-178.14224 c 0,1.41942 1.146779,2.56626 2.558226,2.56626 1.42745,0 2.566198,-1.14684 2.566198,-2.56626 0,-1.41138 -1.138748,-2.56619 -2.566198,-2.56619 -1.411447,0 -2.558226,1.15481 -2.558226,2.56619 z m 0.288644,-6.85658 c 0,1.26707 1.018461,2.28553 2.269524,2.28553 1.267008,0 2.293499,-1.01846 2.293499,-2.28553 0,-1.251 -1.026491,-2.27749 -2.293499,-2.27749 -1.251063,0 -2.269524,1.02649 -2.269524,2.27749 z m -0.713754,3.24789 c -0.994367,-0.78591 -1.571772,-1.97279 -1.571772,-3.24789 0,-2.51807 2.03692,-4.55505 4.55505,-4.55505 2.534075,0 4.571053,2.03698 4.571053,4.55505 0,1.2751 -0.577288,2.46198 -1.571831,3.24789 1.170872,0.83399 1.860475,2.17321 1.860475,3.60869 0,2.67852 -2.181242,4.85982 -4.859697,4.85982 -2.670483,0 -4.843753,-2.1813 -4.843753,-4.85982 0,-1.43548 0.689662,-2.7747 1.860475,-3.60869 z m 10.689903,3.8974 v -7.14529 c 0,-2.51807 2.044951,-4.55505 4.571053,-4.55505 2.51813,0 4.563023,2.03698 4.563023,4.55505 v 7.14529 c 0,2.5101 -2.044893,4.57111 -4.563023,4.57111 -2.526102,0 -4.571053,-2.06101 -4.571053,-4.57111 z m 2.285527,0 c 0,1.25903 1.010429,2.27755 2.285526,2.27755 1.259036,0 2.277496,-1.01852 2.277496,-2.27755 v -7.14529 c 0,-1.251 -1.01846,-2.27749 -2.277496,-2.27749 -1.275097,0 -2.285526,1.02649 -2.285526,2.27749 v 7.14529"
       id="path1738" />
    <path
       style="fill:#ffffff;fill-opacity:1;fill-rule:evenodd;stroke:none;stroke-width:2.05296"
       d="M 4.3373937,-145.11826 24.786904,-170.0105 c 4.691341,-5.70986 7.281632,-12.23764 7.281632,-19.78388 l 0.0058,-24.98047 -12.125384,3.83326 17.289904,-29.47132 17.410133,29.56752 -12.301771,-3.97759 v 26.02296 c 0.08846,8.5888 -3.737011,17.68278 -9.214268,24.35494 l -21.716576,26.39989 -7.0811525,-7.07307"
       id="path1740" />
    <path
       style="fill:#ffffff;fill-opacity:1;fill-rule:evenodd;stroke:none;stroke-width:2.05296"
       d="m -18.30942,-161.67834 c 3.737069,0.99436 6.503747,0.9062 10.2487889,0.0803 l 0.017458,23.48079 -10.2167239,0.0349 -0.04656,-23.59311"
       id="path1742" />
    <path
       style="fill:#ffffff;fill-opacity:1;fill-rule:evenodd;stroke:none;stroke-width:2.05296"
       d="m -13.144901,-240.44504 17.3379726,29.50345 -12.1975451,-3.87336 -0.034917,14.41889 c -3.7611035,-0.76991 -6.5117775,-0.73779 -10.2568785,0.0175 v -14.43495 l -12.22961,3.96961 17.378127,-29.59964"
       id="path1744" />
  </g>
</svg>
