<?xml version="1.0" encoding="UTF-8" standalone="no"?>
<svg
   xmlns:dc="http://purl.org/dc/elements/1.1/"
   xmlns:cc="http://creativecommons.org/ns#"
   xmlns:rdf="http://www.w3.org/1999/02/22-rdf-syntax-ns#"
   xmlns:svg="http://www.w3.org/2000/svg"
   xmlns="http://www.w3.org/2000/svg"
   xmlns:sodipodi="http://sodipodi.sourceforge.net/DTD/sodipodi-0.dtd"
   xmlns:inkscape="http://www.inkscape.org/namespaces/inkscape"
   width="122.1376mm"
   height="182.82709mm"
   viewBox="0 0 122.13759 182.82708"
   version="1.1"
   id="svg6774"
   inkscape:version="1.0.2-2 (e86c870879, 2021-01-15)"
   sodipodi:docname="Latvia road sign 553.svg">
  <defs
     id="defs6768" />
  <sodipodi:namedview
     id="base"
     pagecolor="#ffffff"
     bordercolor="#666666"
     borderopacity="1.0"
     inkscape:pageopacity="0.0"
     inkscape:pageshadow="2"
     inkscape:zoom="1.979899"
     inkscape:cx="374.65712"
     inkscape:cy="403.34136"
     inkscape:document-units="mm"
     inkscape:current-layer="layer1"
     inkscape:document-rotation="0"
     showgrid="false"
     fit-margin-top="0"
     fit-margin-left="0"
     fit-margin-right="0"
     fit-margin-bottom="0"
     inkscape:window-width="1431"
     inkscape:window-height="1042"
     inkscape:window-x="2177"
     inkscape:window-y="97"
     inkscape:window-maximized="0" />
  <metadata
     id="metadata6771">
    <rdf:RDF>
      <cc:Work
         rdf:about="">
        <dc:format>image/svg+xml</dc:format>
        <dc:type
           rdf:resource="http://purl.org/dc/dcmitype/StillImage" />
        <dc:title />
      </cc:Work>
    </rdf:RDF>
  </metadata>
  <g
     inkscape:label="Layer 1"
     inkscape:groupmode="layer"
     id="layer1"
     transform="translate(138.0215,-70.971421)">
    <g
       id="g24974">
      <path
         style="color:#000000;font-style:normal;font-variant:normal;font-weight:normal;font-stretch:normal;font-size:medium;line-height:normal;font-family:sans-serif;font-variant-ligatures:normal;font-variant-position:normal;font-variant-caps:normal;font-variant-numeric:normal;font-variant-alternates:normal;font-variant-east-asian:normal;font-feature-settings:normal;font-variation-settings:normal;text-indent:0;text-align:start;text-decoration:none;text-decoration-line:none;text-decoration-style:solid;text-decoration-color:#000000;letter-spacing:normal;word-spacing:normal;text-transform:none;writing-mode:lr-tb;direction:ltr;text-orientation:mixed;dominant-baseline:auto;baseline-shift:baseline;text-anchor:start;white-space:normal;shape-padding:0;shape-margin:0;inline-size:0;clip-rule:nonzero;display:inline;overflow:visible;visibility:visible;isolation:auto;mix-blend-mode:normal;color-interpolation:sRGB;color-interpolation-filters:linearRGB;solid-color:#000000;solid-opacity:1;vector-effect:none;fill:#211e1e;fill-opacity:1;fill-rule:nonzero;stroke:none;stroke-linecap:butt;stroke-linejoin:miter;stroke-miterlimit:22.9256;stroke-dasharray:none;stroke-dashoffset:0;stroke-opacity:1;color-rendering:auto;image-rendering:auto;shape-rendering:auto;text-rendering:auto;enable-background:accumulate;stop-color:#000000;stop-opacity:1;opacity:1"
         d="m -129.83984,70.970703 c -4.512,0 -8.18164,3.671885 -8.18164,8.197266 V 245.60156 c 0,4.52534 3.66963,8.19727 8.18164,8.19727 h 105.759762 c 4.525307,0 8.195312,-3.67193 8.195312,-8.19727 V 79.167969 c 0,-4.525376 -3.670005,-8.197266 -8.195312,-8.197266 z"
         id="path13591" />
      <path
         style="color:#000000;font-style:normal;font-variant:normal;font-weight:normal;font-stretch:normal;font-size:medium;line-height:normal;font-family:sans-serif;font-variant-ligatures:normal;font-variant-position:normal;font-variant-caps:normal;font-variant-numeric:normal;font-variant-alternates:normal;font-variant-east-asian:normal;font-feature-settings:normal;font-variation-settings:normal;text-indent:0;text-align:start;text-decoration:none;text-decoration-line:none;text-decoration-style:solid;text-decoration-color:#000000;letter-spacing:normal;word-spacing:normal;text-transform:none;writing-mode:lr-tb;direction:ltr;text-orientation:mixed;dominant-baseline:auto;baseline-shift:baseline;text-anchor:start;white-space:normal;shape-padding:0;shape-margin:0;inline-size:0;clip-rule:nonzero;display:inline;overflow:visible;visibility:visible;isolation:auto;mix-blend-mode:normal;color-interpolation:sRGB;color-interpolation-filters:linearRGB;solid-color:#000000;solid-opacity:1;vector-effect:none;fill:#ffffff;fill-opacity:1;fill-rule:nonzero;stroke:none;stroke-linecap:butt;stroke-linejoin:miter;stroke-miterlimit:22.9256;stroke-dasharray:none;stroke-dashoffset:0;stroke-opacity:1;color-rendering:auto;image-rendering:auto;shape-rendering:auto;text-rendering:auto;enable-background:accumulate;stop-color:#000000;stop-opacity:1;opacity:1"
         d="m -129.83984,71.744141 h 105.759762 c 4.108619,0 7.423828,3.315135 7.423828,7.423828 V 245.60156 c 0,4.10865 -3.31521,7.42383 -7.423828,7.42383 H -129.83984 c -4.09396,0 -7.40821,-3.31519 -7.40821,-7.42383 V 79.167969 c 0,-4.108687 3.31425,-7.423828 7.40821,-7.423828 z"
         id="path24966" />
      <path
         style="fill:#2e3394;fill-opacity:1;fill-rule:evenodd;stroke:none;stroke-width:3.57655"
         d="m -135.90281,245.58854 v 0.33507 l 0.0304,0.30719 0.0406,0.30718 0.0608,0.2933 0.071,0.2933 0.071,0.27931 0.10138,0.2933 0.11152,0.26542 0.25143,0.53084 0.30719,0.50296 0.16728,0.23743 0.18148,0.22355 0.19567,0.22355 0.19566,0.20956 0.20986,0.20955 0.22406,0.18168 0.23723,0.18168 0.22406,0.16779 0.25143,0.16778 0.25143,0.13981 0.26562,0.13981 0.26562,0.11162 0.2788,0.11162 0.27982,0.0973 0.29299,0.0841 0.293,0.07 0.29299,0.0558 0.61438,0.0558 0.33558,0.0142 h 105.7177 l 0.335576,-0.0142 0.614377,-0.0558 0.292995,-0.0558 0.292995,-0.07 0.292996,-0.0841 0.279815,-0.0973 0.531244,-0.22355 0.265622,-0.1398 0.251428,-0.13981 0.251428,-0.16779 0.237235,-0.16779 0.237235,-0.18167 0.209861,-0.18168 0.41871,-0.41911 0.362949,-0.4471 0.167281,-0.23744 0.16728,-0.25143 0.139908,-0.25143 0.139908,-0.26541 0.224055,-0.53094 0.101382,-0.2933 0.08111,-0.27931 0.07097,-0.2933 0.05069,-0.2933 0.06083,-0.61478 0.01014,-0.33517 V 79.18088 l -0.01014,-0.335068 -0.06083,-0.614682 -0.05069,-0.293299 -0.07097,-0.293299 -0.08111,-0.2933 -0.101382,-0.279308 -0.224055,-0.53094 -0.139908,-0.265419 -0.139908,-0.251428 -0.16728,-0.251428 -0.167281,-0.237539 -0.181475,-0.237438 -0.181474,-0.209557 -0.41871,-0.419115 -0.209861,-0.181677 -0.237235,-0.181678 -0.237235,-0.167787 -0.251428,-0.167687 -0.251428,-0.139806 -0.265622,-0.139807 -0.531244,-0.223548 -0.279815,-0.09733 -0.292996,-0.08415 -0.292995,-0.06995 -0.292995,-0.05576 -0.614377,-0.05576 -0.335576,-0.01419 h -105.7177 l -0.33558,0.01419 -0.61438,0.05576 -0.29299,0.05576 -0.293,0.06995 -0.29299,0.08415 -0.2788,0.09733 -0.27982,0.111622 -0.26562,0.111622 -0.26562,0.139807 -0.25143,0.139806 -0.25143,0.167686 -0.22406,0.167687 -0.23723,0.181677 -0.22406,0.181677 -0.20986,0.209558 -0.39133,0.419115 -0.18148,0.237437 -0.16728,0.237539 -0.30719,0.502958 -0.25143,0.53094 -0.11152,0.265419 -0.10138,0.279308 -0.13991,0.586802 -0.0608,0.293299 -0.0405,0.307188 -0.0304,0.307189 z m 0,0"
         id="path13593" />
      <path
         style="fill:#ffffff;fill-opacity:1;fill-rule:evenodd;stroke:none;stroke-width:3.57655"
         d="m -116.76273,192.93231 79.676018,0.0416 -0.01014,18.20403 -1.620598,2.40302 -9.458267,0.0284 -1.592718,-2.40302 -0.01014,-7.37662 c -17.868748,1.39711 -35.988924,1.43902 -54.374615,-0.0416 l -0.0101,7.55827 -1.71843,2.27723 -9.08113,-0.0142 -1.85803,-2.47287 z m 0,0"
         id="path13595" />
      <path
         style="fill:#ffffff;fill-opacity:1;fill-rule:evenodd;stroke:none;stroke-width:3.57655"
         d="m -116.8046,189.0484 79.717888,0.07 -0.03042,-8.55016 c -1.425031,-8.71783 -7.474417,-21.3475 -14.599571,-30.38669 l -25.245331,-1.08971 -24.728476,0.99193 c -9.82152,14.13851 -12.30833,18.02242 -15.07455,30.26093 z m 9.43039,-13.57968 c 2.72424,0 4.93164,2.20737 4.93164,4.94568 0,2.72433 -2.2074,4.9317 -4.93164,4.9317 -2.73834,0 -4.94574,-2.20737 -4.94574,-4.9317 0,-2.73831 2.2074,-4.94568 4.94574,-4.94568 z m 60.898981,0 c 2.724348,0 4.945738,2.20737 4.945738,4.94568 0,2.72433 -2.22139,4.9317 -4.945738,4.9317 -2.724246,0 -4.945635,-2.20737 -4.945635,-4.9317 0,-2.73831 2.221389,-4.94568 4.945635,-4.94568 z M -109.76329,170.048 c 22.311529,-1.59268 44.245813,-1.56474 65.74699,0.37725 -2.556661,-6.51043 -6.077367,-12.42013 -10.548027,-17.7151 l -22.409259,-0.94995 -22.227684,1.00592 c -4.34495,5.28097 -7.85166,11.037 -10.56202,17.28197"
         id="path13597" />
      <path
         style="fill:#ee1c28;fill-opacity:1;fill-rule:evenodd;stroke:none;stroke-width:3.57655"
         d="m -18.002491,83.079246 -109.922949,168.600624 -2.0537,-0.0142 c -3.60445,-0.1398 -5.89569,-3.00372 -5.92367,-5.82584 v -4.14936 l 109.908954,-168.600583 1.997841,-0.01419 c 2.235279,0.09733 3.786125,1.033836 4.945636,2.696386 0.740091,1.13162 1.061879,2.375045 1.047888,3.688322 z m 0,0"
         id="path13599" />
    </g>
  </g>
</svg>
