<?xml version="1.0" encoding="UTF-8" standalone="no"?>
<!-- Created with Inkscape (http://www.inkscape.org/) -->

<svg
   xmlns:dc="http://purl.org/dc/elements/1.1/"
   xmlns:cc="http://creativecommons.org/ns#"
   xmlns:rdf="http://www.w3.org/1999/02/22-rdf-syntax-ns#"
   xmlns:svg="http://www.w3.org/2000/svg"
   xmlns="http://www.w3.org/2000/svg"
   xmlns:sodipodi="http://sodipodi.sourceforge.net/DTD/sodipodi-0.dtd"
   xmlns:inkscape="http://www.inkscape.org/namespaces/inkscape"
   width="195mm"
   height="195.36778mm"
   viewBox="0 0 195 195.36778"
   version="1.1"
   id="svg3845"
   inkscape:version="0.92.3 (2405546, 2018-03-11)"
   sodipodi:docname="Latvia_road_sign_202.svg">
  <defs
     id="defs3839" />
  <sodipodi:namedview
     id="base"
     pagecolor="#ffffff"
     bordercolor="#666666"
     borderopacity="1.0"
     inkscape:pageopacity="0.0"
     inkscape:pageshadow="2"
     inkscape:zoom="0.49497475"
     inkscape:cx="1035.9413"
     inkscape:cy="81.090439"
     inkscape:document-units="mm"
     inkscape:current-layer="layer1"
     showgrid="false"
     inkscape:window-width="1920"
     inkscape:window-height="1027"
     inkscape:window-x="-8"
     inkscape:window-y="-8"
     inkscape:window-maximized="1" />
  <metadata
     id="metadata3842">
    <rdf:RDF>
      <cc:Work
         rdf:about="">
        <dc:format>image/svg+xml</dc:format>
        <dc:type
           rdf:resource="http://purl.org/dc/dcmitype/StillImage" />
        <dc:title></dc:title>
      </cc:Work>
    </rdf:RDF>
  </metadata>
  <g
     inkscape:label="Layer 1"
     inkscape:groupmode="layer"
     id="layer1"
     transform="translate(685.43566,667.50852)">
    <path
       d="m -592.04474,-665.55306 -90.80504,90.67564 c -2.43202,2.42753 -2.89384,5.91266 -0.18721,8.67039 l 90.07321,91.79567 c 2.43202,2.47888 6.17816,2.14424 8.46066,-0.13598 l 92.06567,-92.04784 c 2.06386,-2.06164 1.78943,-5.85016 -0.0253,-7.6597 l -91.53244,-91.3606 c -1.81396,-1.80948 -6.2161,-1.77153 -8.0524,0.0633 z"
       style="fill:#ffffff;stroke:#000000;stroke-width:1.11559582;stroke-linecap:butt;stroke-linejoin:miter;stroke-miterlimit:22.9260006;stroke-dasharray:none;stroke-opacity:1;fill-opacity:1"
       id="path48"
       inkscape:connector-curvature="0"
       sodipodi:nodetypes="ccccccccc" />
    <path
       d="m -650.25652,-569.22357 62.25695,-62.60278 62.19226,62.36852 -62.25923,62.58267 z"
       style="fill:#fff200;fill-opacity:1;fill-rule:evenodd;stroke:#fff200;stroke-width:0.45739427;stroke-linecap:butt;stroke-linejoin:miter;stroke-miterlimit:22.9260006;stroke-dasharray:none;stroke-opacity:1"
       id="path50"
       inkscape:connector-curvature="0" />
    <path
       d="m -651.8719,-569.43329 63.81434,-64.0419 63.82097,64.04854 -63.81655,64.04189 z m 1.53284,0.006 62.30604,-62.54251 62.30824,62.53587 -62.30824,62.53581 -62.30604,-62.52917"
       style="fill:#000000;fill-opacity:1;fill-rule:evenodd;stroke:none;stroke-width:2.23119164"
       id="path52"
       inkscape:connector-curvature="0" />
    <path
       d="m -589.90499,-660.69352 -89.20978,89.21421 c -1.1156,1.10219 -1.1156,2.95853 -0.0633,4.02506 l 89.25437,88.44665 c 1.08208,1.0509 2.934,1.0509 3.95366,0.0443 l 89.26107,-88.45784 c 1.06425,-1.06204 1.05533,-2.95405 0.038,-3.98933 l -89.26544,-89.28561 c -0.91479,-0.89918 -2.8827,-1.06653 -3.96928,0 z m 90.19592,90.24057 -87.19722,-87.19051 c -0.56226,-0.56922 -1.43468,-0.64037 -2.08397,0 l -87.19715,87.19943 c -0.65821,0.67604 -0.46613,1.59305 0,2.06607 l 87.23731,86.41403 c 0.61792,0.60717 1.49047,0.54645 2.02819,0 l 87.21726,-86.3895 c 0.52874,-0.57807 0.64486,-1.43468 -0.005,-2.09952"
       style="fill:#000000;fill-opacity:1;fill-rule:evenodd;stroke:none;stroke-width:2.23119164"
       id="path54"
       inkscape:connector-curvature="0" />
    <path
       d="m -554.17249,-627.07617 5.63152,5.63152 -91.20438,91.20444 -5.63159,-5.63152 91.20445,-91.20444"
       style="fill:#000000;fill-opacity:1;fill-rule:evenodd;stroke:none;stroke-width:2.23119164"
       id="path56"
       inkscape:connector-curvature="0" />
    <path
       d="m -545.13395,-617.74309 5.63158,5.63152 -91.20444,91.20444 -5.63152,-5.63152 91.20438,-91.20444"
       style="fill:#000000;fill-opacity:1;fill-rule:evenodd;stroke:none;stroke-width:2.23119164"
       id="path58"
       inkscape:connector-curvature="0" />
    <path
       d="m -535.8165,-608.63536 5.63159,5.63152 -91.20444,91.20444 -5.63153,-5.63152 91.20438,-91.20444"
       style="fill:#000000;fill-opacity:1;fill-rule:evenodd;stroke:none;stroke-width:2.23119164"
       id="path60"
       inkscape:connector-curvature="0" />
  </g>
</svg>
