<?xml version="1.0" encoding="UTF-8" standalone="no"?>
<!-- Created with Inkscape (http://www.inkscape.org/) -->

<svg
   xmlns:dc="http://purl.org/dc/elements/1.1/"
   xmlns:cc="http://creativecommons.org/ns#"
   xmlns:rdf="http://www.w3.org/1999/02/22-rdf-syntax-ns#"
   xmlns:svg="http://www.w3.org/2000/svg"
   xmlns="http://www.w3.org/2000/svg"
   xmlns:sodipodi="http://sodipodi.sourceforge.net/DTD/sodipodi-0.dtd"
   xmlns:inkscape="http://www.inkscape.org/namespaces/inkscape"
   width="195mm"
   height="167.32515mm"
   viewBox="0 0 195 167.32515"
   version="1.1"
   id="svg3845"
   inkscape:version="0.92.3 (2405546, 2018-03-11)"
   sodipodi:docname="Latvia_road_sign_204.svg">
  <defs
     id="defs3839" />
  <sodipodi:namedview
     id="base"
     pagecolor="#ffffff"
     bordercolor="#666666"
     borderopacity="1.0"
     inkscape:pageopacity="0.0"
     inkscape:pageshadow="2"
     inkscape:zoom="0.35"
     inkscape:cx="563.04558"
     inkscape:cy="-336.06847"
     inkscape:document-units="mm"
     inkscape:current-layer="layer1"
     showgrid="false"
     inkscape:window-width="1920"
     inkscape:window-height="1027"
     inkscape:window-x="-8"
     inkscape:window-y="-8"
     inkscape:window-maximized="1" />
  <metadata
     id="metadata3842">
    <rdf:RDF>
      <cc:Work
         rdf:about="">
        <dc:format>image/svg+xml</dc:format>
        <dc:type
           rdf:resource="http://purl.org/dc/dcmitype/StillImage" />
        <dc:title></dc:title>
      </cc:Work>
    </rdf:RDF>
  </metadata>
  <g
     inkscape:label="Layer 1"
     inkscape:groupmode="layer"
     id="layer1"
     transform="translate(560.31534,749.83917)">
    <path
       d="m -454.32817,-744.61637 86.84894,146.64572 c 4.15366,6.13597 -0.72947,14.54028 -6.72,14.5863 l -175.88379,0.26448 c 3.98645,-0.0412 -13.43279,0.7028 -8.85742,-13.41823 l 86.86103,-147.35574 c 3.76107,-6.94786 13.92958,-7.03991 17.75124,-0.72218 z"
       style="fill:#ffffff;fill-opacity:1;stroke:#000000;stroke-width:1.21168768;stroke-linecap:butt;stroke-linejoin:miter;stroke-miterlimit:22.9260006;stroke-dasharray:none;stroke-opacity:1"
       id="path4841"
       inkscape:connector-curvature="0" />
    <path
       d="m -458.05537,-741.11462 85.35861,144.02848 c 0.54063,0.6835 0.93053,1.89513 0.93053,3.07529 0,3.0898 -2.51784,5.61012 -5.60763,5.61012 -0.0687,0 -0.15731,0 -0.22051,0 h -170.54502 c 0.0275,0 -0.0687,0 -0.12846,0 -3.08979,0 -5.61011,-2.52032 -5.61011,-5.61012 0,-1.18016 0.39018,-2.39186 0.933,-3.07529 l 85.12836,-143.73522 c 2.03802,-4.00102 7.4325,-4.24337 9.76129,-0.29333 z m 57.16016,133.89149 h -123.85384 l 61.9318,-106.6915 61.92204,106.6915"
       style="fill:#ed1a3a;fill-opacity:1;fill-rule:evenodd;stroke:none;stroke-width:2.42337537"
       id="path4837"
       inkscape:connector-curvature="0" />
    <path
       d="m -474.2338,-612.95194 c 0,-20.52601 -0.055,-41.16351 -0.0275,-61.66279 l 11.14267,-11.46986 11.41655,11.49651 -0.0275,16.71404 15.56052,0.055 0.0275,8.92041 h -15.58958 v 35.94839 l -11.46985,-10.34541 -11.03118,10.34541"
       style="fill:#000000;fill-opacity:1;fill-rule:evenodd;stroke:none;stroke-width:2.42337537"
       id="path4839"
       inkscape:connector-curvature="0" />
  </g>
</svg>
