<?xml version="1.0" encoding="UTF-8" standalone="no"?>
<!-- Created with Inkscape (http://www.inkscape.org/) -->

<svg
   xmlns:dc="http://purl.org/dc/elements/1.1/"
   xmlns:cc="http://creativecommons.org/ns#"
   xmlns:rdf="http://www.w3.org/1999/02/22-rdf-syntax-ns#"
   xmlns:svg="http://www.w3.org/2000/svg"
   xmlns="http://www.w3.org/2000/svg"
   xmlns:sodipodi="http://sodipodi.sourceforge.net/DTD/sodipodi-0.dtd"
   xmlns:inkscape="http://www.inkscape.org/namespaces/inkscape"
   width="195mm"
   height="195mm"
   viewBox="0 0 195 195"
   version="1.1"
   id="svg3845"
   inkscape:version="0.92.3 (2405546, 2018-03-11)"
   sodipodi:docname="Latvia_road_sign_209.svg">
  <defs
     id="defs3839" />
  <sodipodi:namedview
     id="base"
     pagecolor="#ffffff"
     bordercolor="#666666"
     borderopacity="1.0"
     inkscape:pageopacity="0.0"
     inkscape:pageshadow="2"
     inkscape:zoom="0.49497475"
     inkscape:cx="135.33234"
     inkscape:cy="354.38739"
     inkscape:document-units="mm"
     inkscape:current-layer="layer1"
     showgrid="false"
     inkscape:window-width="1920"
     inkscape:window-height="1027"
     inkscape:window-x="-8"
     inkscape:window-y="-8"
     inkscape:window-maximized="1" />
  <metadata
     id="metadata3842">
    <rdf:RDF>
      <cc:Work
         rdf:about="">
        <dc:format>image/svg+xml</dc:format>
        <dc:type
           rdf:resource="http://purl.org/dc/dcmitype/StillImage" />
        <dc:title></dc:title>
      </cc:Work>
    </rdf:RDF>
  </metadata>
  <g
     inkscape:label="Layer 1"
     inkscape:groupmode="layer"
     id="layer1"
     transform="translate(165.11967,-47.598337)">
    <path
       d="M -150.34291,48.364449 H 15.103563 c 7.70708,0 14.01065,6.30357 14.01065,14.00759 V 227.82157 c 0,7.70708 -6.30357,14.01065 -14.01065,14.01065 H -150.34291 c -7.70708,0 -14.01065,-6.30357 -14.01065,-14.01065 V 62.372039 c 0,-7.70402 6.30357,-14.00759 14.01065,-14.00759 z"
       style="fill:#ffffff;fill-opacity:1;stroke:#000000;stroke-width:1.5322237;stroke-linecap:butt;stroke-linejoin:miter;stroke-miterlimit:22.9260006;stroke-dasharray:none;stroke-opacity:1"
       id="path4258"
       inkscape:connector-curvature="0" />
    <path
       d="m 16.050483,54.704799 -167.383203,0.006 c -3.19928,0.0678 -6.62227,2.35044 -6.62227,6.96242 V 228.79913 c 0,2.86219 2.42398,6.68969 7.08806,6.68969 l 166.837723,-0.006 c 4.19217,0 6.74179,-3.83363 6.73566,-6.89194 l 0.006,-166.926601 c 0.0704,-4.65482 -3.45371,-6.82445 -6.66218,-6.95928"
       style="fill:#283996;fill-opacity:1;fill-rule:evenodd;stroke:none;stroke-width:3.0644474"
       id="path4252"
       inkscape:connector-curvature="0" />
    <path
       d="m -137.15352,164.09025 21.47565,5.24634 0.0764,-93.005991 h 19.823904 l -0.137944,92.849701 21.92,-5.24327 -31.53011,55.74843 z"
       style="fill:#ed1a3a;fill-opacity:1;fill-rule:evenodd;stroke:#ed1a3a;stroke-width:0.60982513;stroke-linecap:butt;stroke-linejoin:miter;stroke-miterlimit:22.9260006;stroke-dasharray:none;stroke-opacity:1"
       id="path4254"
       inkscape:connector-curvature="0" />
    <path
       d="m -20.689186,213.25931 -19.735045,-0.0889 v -90.22347 l -21.696284,6.44759 31.713968,-58.420621 31.32478116,58.420621 -21.56451716,-6.40469 -0.04256,90.26943"
       style="fill:#ffffff;fill-opacity:1;fill-rule:evenodd;stroke:none;stroke-width:3.0644474"
       id="path4256"
       inkscape:connector-curvature="0" />
  </g>
</svg>
