<?xml version="1.0" encoding="UTF-8" standalone="no"?>
<!-- Created with Inkscape (http://www.inkscape.org/) -->

<svg
   xmlns:dc="http://purl.org/dc/elements/1.1/"
   xmlns:cc="http://creativecommons.org/ns#"
   xmlns:rdf="http://www.w3.org/1999/02/22-rdf-syntax-ns#"
   xmlns:svg="http://www.w3.org/2000/svg"
   xmlns="http://www.w3.org/2000/svg"
   xmlns:sodipodi="http://sodipodi.sourceforge.net/DTD/sodipodi-0.dtd"
   xmlns:inkscape="http://www.inkscape.org/namespaces/inkscape"
   width="195mm"
   height="194.87346mm"
   viewBox="0 0 195 194.87346"
   version="1.1"
   id="svg3845"
   inkscape:version="0.92.3 (2405546, 2018-03-11)"
   sodipodi:docname="Latvia_road_sign_207.svg">
  <defs
     id="defs3839" />
  <sodipodi:namedview
     id="base"
     pagecolor="#ffffff"
     bordercolor="#666666"
     borderopacity="1.0"
     inkscape:pageopacity="0.0"
     inkscape:pageshadow="2"
     inkscape:zoom="0.49497475"
     inkscape:cx="452.39453"
     inkscape:cy="361.33275"
     inkscape:document-units="mm"
     inkscape:current-layer="layer1"
     showgrid="false"
     inkscape:window-width="1600"
     inkscape:window-height="838"
     inkscape:window-x="-8"
     inkscape:window-y="-8"
     inkscape:window-maximized="1" />
  <metadata
     id="metadata3842">
    <rdf:RDF>
      <cc:Work
         rdf:about="">
        <dc:format>image/svg+xml</dc:format>
        <dc:type
           rdf:resource="http://purl.org/dc/dcmitype/StillImage" />
        <dc:title></dc:title>
      </cc:Work>
    </rdf:RDF>
  </metadata>
  <g
     inkscape:label="Layer 1"
     inkscape:groupmode="layer"
     id="layer1"
     transform="translate(162.14645,-49.562503)">
    <path
       d="m -103.43534,243.50347 -57.93794,-57.75077 -0.006,-77.09207 58.43505,-58.330693 76.772904,0.06959 58.085227,58.112793 0.1718,76.74536 -58.115914,58.41045 z"
       style="fill:#ffffff;fill-opacity:1;stroke:#000000;stroke-width:1.53429198;stroke-linecap:butt;stroke-linejoin:miter;stroke-miterlimit:22.9260006;stroke-dasharray:none;stroke-opacity:1"
       id="path4410"
       inkscape:connector-curvature="0" />
    <path
       d="m -99.909534,234.73031 -52.669176,-52.50035 -0.006,-70.08338 53.120254,-53.028267 69.79495,0.06089 52.804195,52.831857 0.156483,69.76423 -52.831812,53.1049 -70.368762,-0.15049"
       style="fill:#ed1a3a;fill-opacity:1;fill-rule:evenodd;stroke:none;stroke-width:3.06858397"
       id="path4406"
       inkscape:connector-curvature="0" />
    <path
       d="m -14.081241,144.33908 -0.01827,-17.8745 7.3676749,0.0348 c 2.488615,-0.0261 4.550706,2.66352 4.556847,4.65197 v 8.6104 c -0.319142,3.19134 -2.967328,4.59064 -4.826887,4.57838 z m -38.869754,18.30715 0.06785,-31.30266 c 0.05219,-2.16328 1.59566,-4.86064 5.0202,-4.79923 2.454874,-0.20267 4.854505,2.43337 4.734824,4.84838 l 0.01827,31.19828 c 0.03392,3.79274 -3.623993,5.02329 -5.007926,4.96806 -1.657036,-0.0435 -4.826888,-1.59258 -4.83302,-4.91283 z m 29.535121,14.16152 -0.0062,-59.58577 16.1898529,-0.006 c 8.788402,0.10699 14.290377,7.34002 14.373228,14.35175 l -0.02175,7.84939 c -0.01218,6.33971 -5.204318,14.26286 -14.542013,14.23824 l -6.7386099,-0.0174 0.0062,23.18928 z m -38.934191,-14.24433 -0.02435,-30.83321 c -0.01566,-6.03587 4.07508,-14.31182 14.621802,-14.58191 7.95684,0 14.149247,6.84908 13.946715,14.54208 l 0.01827,30.90062 c -0.04002,8.0919 -7.036263,14.4009 -14.115493,14.14925 -7.720558,0.17484 -14.446887,-6.62509 -14.446887,-14.17683 z m -27.620327,14.28426 0.06437,-50.34935 -9.423617,-0.0522 0.04871,-9.23956 27.85968,-0.0522 -0.0062,9.36229 -9.20882,-0.0783 0.01218,50.42607 z m -43.334548,-6.02056 c -1.66317,-2.46103 -2.69115,-4.8883 -2.69728,-8.25761 l 0.0548,-2.52852 9.22109,0.009 0.0122,2.77712 c 0.25469,3.19134 2.70342,4.50461 4.84837,4.6243 2.26154,0.10786 5.2841,-2.04054 5.30558,-4.86063 -0.46032,-4.33891 1.41154,-7.28783 -3.43988,-10.91182 -4.97725,-1.95783 -12.87271,-4.41267 -14.87343,-11.0469 -1.163,-2.67588 -2.11733,-10.77995 0.68125,-15.92598 2.75867,-5.10924 7.7267,-7.51807 12.57507,-7.47815 5.56334,-0.0261 8.90196,2.75868 10.68788,4.72564 2.29223,2.57758 3.60251,6.03283 3.66388,9.67526 l 0.0157,3.82649 -9.33156,-0.006 v -3.90008 c 0.0278,-2.63281 -2.04675,-5.04469 -5.00794,-5.0386 -2.82616,0.0174 -5.00178,2.09586 -5.11225,4.98337 -0.0339,3.6854 -0.0122,5.6708 0.55539,6.83377 0.5339,1.12922 2.44566,1.97313 5.86714,3.74064 4.70413,1.70305 11.22181,5.48961 12.65483,10.90877 0.52782,3.11766 0.46032,6.55142 0.46641,9.87776 -0.20867,7.18666 -6.55756,14.04183 -14.43769,13.99886 -4.66731,0.0783 -8.94492,-2.34438 -11.70971,-6.02665"
       style="fill:#ffffff;fill-opacity:1;fill-rule:evenodd;stroke:none;stroke-width:3.06858397"
       id="path4408"
       inkscape:connector-curvature="0" />
  </g>
</svg>
