<?xml version="1.0" encoding="UTF-8" standalone="no"?>
<!-- Created with Inkscape (http://www.inkscape.org/) -->

<svg
   xmlns:dc="http://purl.org/dc/elements/1.1/"
   xmlns:cc="http://creativecommons.org/ns#"
   xmlns:rdf="http://www.w3.org/1999/02/22-rdf-syntax-ns#"
   xmlns:svg="http://www.w3.org/2000/svg"
   xmlns="http://www.w3.org/2000/svg"
   xmlns:sodipodi="http://sodipodi.sourceforge.net/DTD/sodipodi-0.dtd"
   xmlns:inkscape="http://www.inkscape.org/namespaces/inkscape"
   width="195mm"
   height="167.32385mm"
   viewBox="0 0 195 167.32385"
   version="1.1"
   id="svg3845"
   inkscape:version="0.92.3 (2405546, 2018-03-11)"
   sodipodi:docname="Latvia_road_sign_203.svg">
  <defs
     id="defs3839" />
  <sodipodi:namedview
     id="base"
     pagecolor="#ffffff"
     bordercolor="#666666"
     borderopacity="1.0"
     inkscape:pageopacity="0.0"
     inkscape:pageshadow="2"
     inkscape:zoom="0.49497475"
     inkscape:cx="279.44278"
     inkscape:cy="80.653807"
     inkscape:document-units="mm"
     inkscape:current-layer="layer1"
     showgrid="false"
     inkscape:window-width="1920"
     inkscape:window-height="1027"
     inkscape:window-x="-8"
     inkscape:window-y="-8"
     inkscape:window-maximized="1" />
  <metadata
     id="metadata3842">
    <rdf:RDF>
      <cc:Work
         rdf:about="">
        <dc:format>image/svg+xml</dc:format>
        <dc:type
           rdf:resource="http://purl.org/dc/dcmitype/StillImage" />
        <dc:title></dc:title>
      </cc:Work>
    </rdf:RDF>
  </metadata>
  <g
     inkscape:label="Layer 1"
     inkscape:groupmode="layer"
     id="layer1"
     transform="translate(485.27876,639.58011)">
    <path
       d="m -379.29336,-634.35726 86.84958,146.64428 c 4.15609,6.13601 -0.72947,14.54278 -6.71765,14.5864 l -175.88494,0.26447 c 3.98648,-0.0412 -13.43288,0.70522 -8.85748,-13.41591 l 86.85919,-147.35671 c 3.7635,-6.94791 13.93209,-7.03996 17.7513,-0.72219 z"
       style="fill:#ffffff;fill-opacity:1;stroke:#000000;stroke-width:1.21169567;stroke-linecap:butt;stroke-linejoin:miter;stroke-miterlimit:22.9260006;stroke-dasharray:none;stroke-opacity:1"
       id="path96"
       inkscape:connector-curvature="0" />
    <path
       d="m -383.02052,-630.85549 85.35911,144.02943 c 0.54063,0.68351 0.93301,1.89267 0.93301,3.07532 0,3.08981 -2.52027,5.61014 -5.61015,5.61014 -0.0618,0 -0.15525,0 -0.22051,0 h -170.54621 c 0.0275,0 -0.0618,0 -0.12846,0 -3.08988,0 -5.60774,-2.52033 -5.60774,-5.61014 0,-1.18265 0.39018,-2.39188 0.9306,-3.07532 l 85.13132,-143.73857 c 2.03563,-4.00105 7.43255,-4.2434 9.75896,-0.29058 z m 57.16294,133.89245 H -449.7147 l 61.9322,-106.69228 61.92492,106.69228"
       style="fill:#ed1a3a;fill-opacity:1;fill-rule:evenodd;stroke:none;stroke-width:2.42339134"
       id="path92"
       inkscape:connector-curvature="0" />
    <path
       d="m -399.19906,-502.69197 -0.0275,-35.95102 -15.56063,-0.055 v -8.94719 l 15.53397,0.0275 0.0275,-16.73839 11.14034,-11.47234 11.41655,11.49899 -0.0275,16.71174 15.56063,0.0549 0.0275,8.91807 h -15.58728 v 35.95103 l -11.47234,-10.34547 -11.03125,10.34547"
       style="fill:#000000;fill-opacity:1;fill-rule:evenodd;stroke:none;stroke-width:2.42339134"
       id="path94"
       inkscape:connector-curvature="0" />
  </g>
</svg>
