<?xml version="1.0" encoding="UTF-8" standalone="no"?>
<!-- Created with Inkscape (http://www.inkscape.org/) -->

<svg
   xmlns:dc="http://purl.org/dc/elements/1.1/"
   xmlns:cc="http://creativecommons.org/ns#"
   xmlns:rdf="http://www.w3.org/1999/02/22-rdf-syntax-ns#"
   xmlns:svg="http://www.w3.org/2000/svg"
   xmlns="http://www.w3.org/2000/svg"
   xmlns:sodipodi="http://sodipodi.sourceforge.net/DTD/sodipodi-0.dtd"
   xmlns:inkscape="http://www.inkscape.org/namespaces/inkscape"
   width="195mm"
   height="167.32628mm"
   viewBox="0 0 195 167.32628"
   version="1.1"
   id="svg3845"
   inkscape:version="0.92.3 (2405546, 2018-03-11)"
   sodipodi:docname="Latvia_road_sign_205.svg">
  <defs
     id="defs3839" />
  <sodipodi:namedview
     id="base"
     pagecolor="#ffffff"
     bordercolor="#666666"
     borderopacity="1.0"
     inkscape:pageopacity="0.0"
     inkscape:pageshadow="2"
     inkscape:zoom="0.35"
     inkscape:cx="-937.59631"
     inkscape:cy="-258.60911"
     inkscape:document-units="mm"
     inkscape:current-layer="layer1"
     showgrid="false"
     inkscape:window-width="1920"
     inkscape:window-height="1027"
     inkscape:window-x="-8"
     inkscape:window-y="-8"
     inkscape:window-maximized="1" />
  <metadata
     id="metadata3842">
    <rdf:RDF>
      <cc:Work
         rdf:about="">
        <dc:format>image/svg+xml</dc:format>
        <dc:type
           rdf:resource="http://purl.org/dc/dcmitype/StillImage" />
        <dc:title></dc:title>
      </cc:Work>
    </rdf:RDF>
  </metadata>
  <g
     inkscape:label="Layer 1"
     inkscape:groupmode="layer"
     id="layer1"
     transform="translate(163.27051,820.06013)">
    <path
       d="m -57.2851,-814.83728 86.849588,146.6467 c 4.15609,6.13601 -0.729468,14.54038 -6.717643,14.5864 l -175.884965,0.26448 c 3.98648,-0.0412 -13.43288,0.70281 -8.85748,-13.41832 l 86.859204,-147.35673 c 3.763501,-6.94791 13.932084,-7.03996 17.751296,-0.72219 z"
       style="fill:#ffffff;fill-opacity:1;stroke:#000000;stroke-width:1.21169591;stroke-linecap:butt;stroke-linejoin:miter;stroke-miterlimit:22.9260006;stroke-dasharray:none;stroke-opacity:1"
       id="path4807"
       inkscape:connector-curvature="0" />
    <path
       d="m -61.012262,-811.33551 85.359122,144.03192 c 0.540626,0.68076 0.93301,1.89267 0.93301,3.07284 0,3.08982 -2.520267,5.61015 -5.610149,5.61015 -0.06869,0 -0.15731,0 -0.220509,0 H -151.09702 c 0.0275,0 -0.0687,0 -0.12846,0 -3.08988,0 -5.61015,-2.52033 -5.61015,-5.61015 0,-1.18017 0.39225,-2.39187 0.93301,-3.07284 l 85.131332,-143.73866 c 2.035627,-4.00105 7.430074,-4.24333 9.758958,-0.29333 z m 57.160549,133.89246 H -127.70645 l 61.932212,-106.69229 61.922525,106.69229"
       style="fill:#ed1a3a;fill-opacity:1;fill-rule:evenodd;stroke:none;stroke-width:2.42339182"
       id="path4803"
       inkscape:connector-curvature="0" />
    <path
       d="m -54.74292,-683.02174 c 0,-20.52614 0.05495,-41.16371 0.02748,-61.6632 l -11.142741,-11.47234 -11.416626,11.49899 0.02748,16.71415 -15.560626,0.0549 -0.02748,8.92048 h 15.589684 v 35.94862 l 11.469864,-10.34547 11.031318,10.34547"
       style="fill:#000000;fill-opacity:1;fill-rule:evenodd;stroke:none;stroke-width:2.42339182"
       id="path4805"
       inkscape:connector-curvature="0" />
  </g>
</svg>
