<?xml version="1.0" encoding="UTF-8" standalone="no"?>
<!-- Created with Inkscape (http://www.inkscape.org/) -->

<svg
   xmlns:dc="http://purl.org/dc/elements/1.1/"
   xmlns:cc="http://creativecommons.org/ns#"
   xmlns:rdf="http://www.w3.org/1999/02/22-rdf-syntax-ns#"
   xmlns:svg="http://www.w3.org/2000/svg"
   xmlns="http://www.w3.org/2000/svg"
   xmlns:sodipodi="http://sodipodi.sourceforge.net/DTD/sodipodi-0.dtd"
   xmlns:inkscape="http://www.inkscape.org/namespaces/inkscape"
   width="194.99998mm"
   height="287.48395mm"
   viewBox="0 0 195 287.48395"
   version="1.1"
   id="svg3845"
   inkscape:version="0.92.3 (2405546, 2018-03-11)"
   sodipodi:docname="Latvia_road_sign_422.svg">
  <defs
     id="defs3839" />
  <sodipodi:namedview
     id="base"
     pagecolor="#ffffff"
     bordercolor="#666666"
     borderopacity="1.0"
     inkscape:pageopacity="0.0"
     inkscape:pageshadow="2"
     inkscape:zoom="0.49497475"
     inkscape:cx="497.8627"
     inkscape:cy="523.45395"
     inkscape:document-units="mm"
     inkscape:current-layer="layer1"
     showgrid="false"
     inkscape:window-width="1920"
     inkscape:window-height="1027"
     inkscape:window-x="-8"
     inkscape:window-y="-8"
     inkscape:window-maximized="1" />
  <metadata
     id="metadata3842">
    <rdf:RDF>
      <cc:Work
         rdf:about="">
        <dc:format>image/svg+xml</dc:format>
        <dc:type
           rdf:resource="http://purl.org/dc/dcmitype/StillImage" />
        <dc:title></dc:title>
      </cc:Work>
    </rdf:RDF>
  </metadata>
  <g
     inkscape:label="Layer 1"
     inkscape:groupmode="layer"
     id="layer1"
     transform="translate(-80.454421,771.52354)">
    <path
       d="M 93.998754,-770.95002 H 261.9078 c 7.13691,0 12.97309,5.69397 12.97309,12.65191 v 261.03307 c 0,6.96028 -5.83618,12.65191 -12.97309,12.65191 H 93.998754 c -7.13462,0 -12.97081,-5.69163 -12.97081,-12.65191 v -261.03307 c 0,-6.95794 5.83619,-12.65191 12.97081,-12.65191 z"
       style="fill:#ffffff;fill-opacity:1;stroke:#000000;stroke-width:1.14704502;stroke-linecap:butt;stroke-linejoin:miter;stroke-miterlimit:22.9260006;stroke-dasharray:none;stroke-opacity:1"
       id="path5877"
       inkscape:connector-curvature="0" />
    <path
       d="m 141.64243,-634.29563 10.1261,-0.013 c 0.78231,0.052 1.87656,-0.75934 1.97293,-1.69765 l 0.026,-12.79413 16.99236,2.49368 c 1.18373,2.61301 4.78317,4.77172 7.40756,4.61571 3.72566,0.065 6.33398,-1.92473 7.4214,-4.55146 l 17.1552,-2.49596 -0.013,12.79413 c 0.0735,1.03234 0.83738,1.57371 1.63341,1.65175 l 10.65148,-0.013 c 0.85338,0 1.56226,-0.68138 1.66546,-1.58067 l 0.0195,-15.44609 4.3863,-0.039 0.007,-13.63834 -85.71178,0.013 0.007,13.62234 4.29909,0.013 v 15.19605 c 0.026,0.87634 0.82132,1.86966 1.95686,1.86966"
       style="fill:#000000;fill-opacity:1;fill-rule:evenodd;stroke:none;stroke-width:2.29409003"
       id="path5865"
       inkscape:connector-curvature="0" />
    <path
       d="m 213.33733,-676.36005 h -70.77038 l 0.007,-55.81981 70.77266,-0.007 -0.007,55.82898"
       style="fill:#e07e36;fill-opacity:1;fill-rule:evenodd;stroke:none;stroke-width:2.29409003"
       id="path5867"
       inkscape:connector-curvature="0" />
    <path
       d="m 221.07985,-669.14745 -0.006,-64.18863 c -0.1099,-3.63156 -3.00761,-5.97841 -6.31337,-6.15047 h -73.33059 c -3.30349,0.13331 -6.03348,2.83781 -6.1413,5.66873 v 64.68643 z m -5.53334,-5.20072 -0.007,-59.82068 -75.14978,0.013 -0.007,59.79779 75.16812,0.007"
       style="fill:#000000;fill-opacity:1;fill-rule:evenodd;stroke:none;stroke-width:2.29409003"
       id="path5869"
       inkscape:connector-curvature="0" />
    <path
       d="M 96.955834,-494.61308 H 258.89798 c 3.11992,0 5.66406,-2.52808 5.66406,-5.64806 v -256.49759 c 0,-3.11998 -2.54414,-5.64806 -5.66406,-5.64806 H 96.955834 c -3.11998,0 -5.66412,2.52808 -5.66412,5.64806 v 256.49759 c 0,3.11998 2.54414,5.64806 5.66412,5.64806 z m 0.64704,-271.82215 H 258.30622 c 6.42119,0 11.65859,5.22368 11.65859,11.60123 v 254.10491 c 0,6.37756 -5.2374,11.60123 -11.65859,11.60123 H 97.602744 c -6.42112,0 -11.65852,-5.22367 -11.65852,-11.60123 V -754.834 c 0,-6.37755 5.2374,-11.60123 11.65852,-11.60123 z"
       style="fill:#000000;fill-opacity:1;fill-rule:evenodd;stroke:#000000;stroke-width:0.49552345;stroke-linecap:butt;stroke-linejoin:miter;stroke-miterlimit:22.9260006;stroke-dasharray:none;stroke-opacity:1"
       id="path5871"
       inkscape:connector-curvature="0" />
    <path
       d="m 178.09319,-591.03825 c -19.68327,0 -35.74422,16.05633 -35.74422,35.74649 0,19.68789 16.06095,35.7465 35.74422,35.7465 19.69023,0 35.74883,-16.05861 35.74883,-35.7465 0,-19.69016 -16.0586,-35.74649 -35.74883,-35.74649"
       style="fill:#283996;fill-opacity:1;fill-rule:evenodd;stroke:none;stroke-width:2.29409003"
       id="path5873"
       inkscape:connector-curvature="0" />
    <path
       d="m 200.16239,-530.83904 v -15.1318 c -0.68827,-13.88383 -8.40329,-22.07603 -22.0852,-22.32379 h -6.82951 l 3.42737,-11.33286 -26.9395,15.58376 26.9395,15.49662 -3.42737,-11.30756 h 6.82951 c 7.3158,0 13.68191,6.37983 13.68191,13.88383 v 15.1318 h 8.40329"
       style="fill:#ffffff;fill-opacity:1;fill-rule:evenodd;stroke:none;stroke-width:2.29409003"
       id="path5875"
       inkscape:connector-curvature="0" />
  </g>
</svg>
