<?xml version="1.0" encoding="UTF-8" standalone="no"?>
<!-- Created with Inkscape (http://www.inkscape.org/) -->

<svg
   xmlns:dc="http://purl.org/dc/elements/1.1/"
   xmlns:cc="http://creativecommons.org/ns#"
   xmlns:rdf="http://www.w3.org/1999/02/22-rdf-syntax-ns#"
   xmlns:svg="http://www.w3.org/2000/svg"
   xmlns="http://www.w3.org/2000/svg"
   xmlns:sodipodi="http://sodipodi.sourceforge.net/DTD/sodipodi-0.dtd"
   xmlns:inkscape="http://www.inkscape.org/namespaces/inkscape"
   width="195mm"
   height="194.99689mm"
   viewBox="0 0 195 194.99689"
   version="1.1"
   id="svg3845"
   inkscape:version="0.92.3 (2405546, 2018-03-11)"
   sodipodi:docname="Latvia_road_sign_415A.svg">
  <defs
     id="defs3839" />
  <sodipodi:namedview
     id="base"
     pagecolor="#ffffff"
     bordercolor="#666666"
     borderopacity="1.0"
     inkscape:pageopacity="0.0"
     inkscape:pageshadow="2"
     inkscape:zoom="0.35"
     inkscape:cx="819.70203"
     inkscape:cy="174.92488"
     inkscape:document-units="mm"
     inkscape:current-layer="layer1"
     showgrid="false"
     inkscape:window-width="1920"
     inkscape:window-height="1027"
     inkscape:window-x="-8"
     inkscape:window-y="-8"
     inkscape:window-maximized="1" />
  <metadata
     id="metadata3842">
    <rdf:RDF>
      <cc:Work
         rdf:about="">
        <dc:format>image/svg+xml</dc:format>
        <dc:type
           rdf:resource="http://purl.org/dc/dcmitype/StillImage" />
        <dc:title></dc:title>
      </cc:Work>
    </rdf:RDF>
  </metadata>
  <g
     inkscape:label="Layer 1"
     inkscape:groupmode="layer"
     id="layer1"
     transform="translate(4.6989034,493.29116)">
    <path
       d="m 92.807294,-492.51466 c 53.261476,0 96.717306,43.44655 96.717306,96.72353 0,53.26765 -43.45583,96.72037 -96.717306,96.72037 -53.2769,0 -96.7297013,-43.45272 -96.7297013,-96.72037 0,-53.27698 43.4528013,-96.72353 96.7297013,-96.72353 z"
       style="fill:#ffffff;fill-opacity:1;stroke:#000000;stroke-width:1.55299222;stroke-linecap:butt;stroke-linejoin:miter;stroke-miterlimit:22.9260006;stroke-dasharray:none;stroke-opacity:1"
       id="path5617"
       inkscape:connector-curvature="0" />
    <path
       d="m 92.807294,-487.3494 c 50.416346,0 91.548966,41.12634 91.548966,91.55827 0,50.42252 -41.13262,91.55511 -91.548966,91.55511 -50.43185,0 -91.5644443,-41.13259 -91.5644443,-91.55511 0,-50.43193 41.1325943,-91.55827 91.5644443,-91.55827"
       style="fill:#283996;fill-opacity:1;fill-rule:evenodd;stroke:none;stroke-width:3.10598445"
       id="path5607"
       inkscape:connector-curvature="0" />
    <path
       d="m 94.003104,-467.87485 c -3.06252,0.13383 -5.69951,-2.28913 -5.97905,-5.29882 -0.11446,-2.9227 2.28297,-6.21192 6.00079,-5.90139 3.64334,0.18049 5.37648,3.29548 5.24291,5.93247 -0.044,2.63383 -2.43194,5.13418 -5.26465,5.26774"
       style="fill:#ffffff;fill-opacity:1;fill-rule:evenodd;stroke:none;stroke-width:3.10598445"
       id="path5609"
       inkscape:connector-curvature="0" />
    <path
       d="m 73.804914,-404.38234 c -1.76114,-0.95967 -2.3947,-2.55934 -1.81704,-4.69308 l 7.81466,-18.28807 12.54508,-14.68199 -2.56242,-14.02659 -12.14131,14.25022 c -1.34487,1.34487 -3.04077,1.24864 -4.34522,0.19898 -1.01567,-0.78887 -1.31696,-2.72706 -0.41645,-3.96637 l 16.67609,-19.60186 9.27135,-1.58408 15.337376,10.15971 0.0176,12.43326 c -0.15496,1.55916 -1.42252,2.67116 -2.81097,2.74881 -1.69898,0.0176 -2.80463,-0.98776 -3.04385,-2.68357 v -8.99181 l -5.34847,-3.49428 -1.61824,15.83738 -15.598256,18.38123 -6.92631,16.14184 c -0.69906,1.54983 -2.6215,2.89479 -5.03169,1.86045"
       style="fill:#ffffff;fill-opacity:1;fill-rule:evenodd;stroke:none;stroke-width:3.10598445"
       id="path5611"
       inkscape:connector-curvature="0" />
    <path
       d="m 107.05759,-406.50991 -10.417496,-26.10266 5.472706,-6.37665 11.89285,29.92622 c 0.5221,1.79213 -0.12767,3.51593 -2.07792,4.68066 -1.12749,0.52826 -3.90421,0.47808 -4.87014,-2.12757"
       style="fill:#ffffff;fill-opacity:1;fill-rule:evenodd;stroke:none;stroke-width:3.10598445"
       id="path5613"
       inkscape:connector-curvature="0" />
    <path
       d="m 127.06939,-327.71726 c -4.77699,-0.54675 -7.33316,-1.84188 -11.2467,-4.66209 -3.89804,-3.72407 -5.26158,-6.10019 -6.52879,-10.91442 l -12.175466,1.38836 c -2.51893,-0.22363 -3.70857,-1.01875 -5.09693,-3.0221 -0.85403,-1.30454 -0.87252,-2.72706 -0.63656,-4.25216 l -23.62097,-17.06735 -1.3387,2.7364 c 6.05661,4.48503 8.52905,10.97033 8.06929,18.12335 -0.39444,4.19933 -2.44744,7.98239 -5.17451,11.22195 -3.59984,3.9912 -8.86141,6.05353 -13.87753,6.33624 -4.66208,0.52826 -10.38026,-1.77355 -13.79371,-4.75841 -3.662,-3.13391 -6.2275,-8.22459 -6.77108,-12.95817 -0.37243,-5.30191 0.7739,-9.95466 4.26149,-14.28438 3.17115,-4.13718 6.712,-6.25234 13.05749,-7.50405 4.09368,-0.62775 8.43273,0.59605 11.37101,2.04992 l 7.44814,-14.89937 -5.93863,-3.08425 c -1.48151,-0.64008 -2.45369,-1.84496 -2.84504,-3.00969 -0.50625,-2.44444 0.24564,-3.59984 1.14606,-4.64351 0.81969,-0.94418 2.45994,-1.68656 4.06885,-1.42252 l 8.78377,1.49709 c 1.05599,0.41029 1.26105,1.01567 1.16473,1.99402 -0.29847,0.7334 -0.76686,1.1244 -1.79838,1.04367 l -8.79301,-1.51268 c -0.59958,-0.12414 -1.29521,0.17696 -1.53443,0.87867 -0.28262,0.9566 0.32576,1.61508 0.76422,1.77038 l 9.42666,4.89506 -2.2084,4.57818 36.451836,-0.0704 1.02192,-2.82954 -9.31176,-2.90721 1.08707,-2.30146 c 0.55292,-0.61542 1.19273,-0.97217 2.24256,-0.98459 l 14.11358,-0.1708 c 1.39144,0.0792 1.65857,1.06541 0.81704,2.52826 -0.83553,1.54992 -2.31704,2.71157 -3.88554,3.80489 l -1.50334,0.0176 -1.51259,3.22715 7.00396,11.58532 c 4.23657,-2.00027 8.51664,-2.58417 13.04516,-1.64615 5.26466,1.16781 10.17521,4.72732 12.2158,8.24634 2.90104,4.15892 3.71482,8.0228 3.42278,12.86503 -0.2518,4.92296 -3.11525,10.65038 -6.79582,13.30604 -4.83915,3.91046 -8.51973,4.93229 -14.59509,4.80806 z m -0.42525,-3.73649 c -4.11543,-0.61454 -6.99155,-2.11833 -9.24027,-4.11859 -1.99093,-1.73314 -3.83897,-4.27074 -4.95712,-8.01338 l 16.46786,-1.53443 c 1.4661,-0.0933 2.4072,-1.14606 2.48794,-2.42578 0.0792,-1.23921 -0.75454,-2.62141 -2.47861,-2.79221 l -7.44814,-12.1134 c 2.71157,-1.25788 5.33923,-1.63057 8.10662,-1.45977 4.14025,0.34777 6.86424,1.87912 9.7621,4.25515 3.43212,3.30173 4.78949,7.03196 5.1466,11.35552 -0.0352,4.02536 -0.67354,6.81141 -3.04693,10.2342 -4.01602,4.60618 -7.8395,6.76791 -14.80005,6.61269 z m -78.609336,-1.45985 c -5.11869,-2.30155 -8.43899,-6.63752 -9.52915,-12.29037 -0.34513,-5.04411 0.32576,-9.05705 3.94771,-12.97992 2.40711,-3.0221 6.07844,-4.73041 9.69686,-5.4293 3.08118,-0.19898 6.45114,-0.16728 9.78077,1.75488 l -2.78922,5.72434 c -0.87868,1.6959 -2.09958,5.13735 -3.87938,5.67776 -0.68938,0.25797 -1.11191,-0.15496 -2.053,0.27381 -1.33246,0.70788 -1.85121,1.95361 -1.49402,3.17741 0.33281,0.97218 0.9691,1.72997 2.41029,1.93811 1.67723,0.003 2.99101,-1.57475 2.60591,-3.27681 2.26739,-0.8012 4.38563,-4.69933 6.06286,-7.70285 l 2.01576,-4.00669 c 1.6959,1.44426 4.15584,4.46953 4.69317,6.62194 1.24239,3.26131 1.30454,5.38263 0.83201,8.64395 -0.74837,4.38563 -3.43211,8.1377 -6.4543,10.2746 -4.41671,2.69291 -9.13779,4.24591 -15.84672,1.59958 z m 64.526836,-19.15768 c 0.72636,-3.21782 3.22399,-6.85183 5.84857,-8.63471 l 5.99146,9.91125 z m -3.08117,-0.28262 -8.16561,-0.92869 9.5913,-19.85032 5.87339,9.75594 c -3.96637,3.15566 -6.05978,6.04728 -7.29908,11.02307 z m -16.064096,-0.10566 -23.9285,-17.2724 2.02201,-4.00044 36.026226,0.0616 -9.560216,19.98705 c -1.68031,-0.28614 -3.36688,0.20779 -4.55952,1.22064"
       style="fill:#ffffff;fill-opacity:1;fill-rule:evenodd;stroke:none;stroke-width:3.10598445"
       id="path5615"
       inkscape:connector-curvature="0" />
    <path
       d="M 28.063064,-331.00966 157.53604,-460.0291"
       style="fill:none;stroke:#ed1a3a;stroke-width:17.10465813;stroke-linecap:butt;stroke-linejoin:miter;stroke-miterlimit:22.9260006;stroke-dasharray:none;stroke-opacity:1"
       id="path5619"
       inkscape:connector-curvature="0" />
  </g>
</svg>
