<?xml version="1.0" encoding="UTF-8" standalone="no"?>
<!-- Created with Inkscape (http://www.inkscape.org/) -->

<svg
   xmlns:dc="http://purl.org/dc/elements/1.1/"
   xmlns:cc="http://creativecommons.org/ns#"
   xmlns:rdf="http://www.w3.org/1999/02/22-rdf-syntax-ns#"
   xmlns:svg="http://www.w3.org/2000/svg"
   xmlns="http://www.w3.org/2000/svg"
   xmlns:sodipodi="http://sodipodi.sourceforge.net/DTD/sodipodi-0.dtd"
   xmlns:inkscape="http://www.inkscape.org/namespaces/inkscape"
   width="195.30002mm"
   height="287.92621mm"
   viewBox="0 0 195.30003 287.92621"
   version="1.1"
   id="svg3845"
   inkscape:version="0.92.3 (2405546, 2018-03-11)"
   sodipodi:docname="Latvia_road_sign_421.svg">
  <defs
     id="defs3839" />
  <sodipodi:namedview
     id="base"
     pagecolor="#ffffff"
     bordercolor="#666666"
     borderopacity="1.0"
     inkscape:pageopacity="0.0"
     inkscape:pageshadow="2"
     inkscape:zoom="0.49497475"
     inkscape:cx="-538.65258"
     inkscape:cy="583.35256"
     inkscape:document-units="mm"
     inkscape:current-layer="layer1"
     showgrid="false"
     inkscape:window-width="1920"
     inkscape:window-height="1027"
     inkscape:window-x="-8"
     inkscape:window-y="-8"
     inkscape:window-maximized="1" />
  <metadata
     id="metadata3842">
    <rdf:RDF>
      <cc:Work
         rdf:about="">
        <dc:format>image/svg+xml</dc:format>
        <dc:type
           rdf:resource="http://purl.org/dc/dcmitype/StillImage" />
        <dc:title></dc:title>
      </cc:Work>
    </rdf:RDF>
  </metadata>
  <g
     inkscape:label="Layer 1"
     inkscape:groupmode="layer"
     id="layer1"
     transform="translate(-354.69909,756.11764)">
    <path
       d="m 368.26422,-755.54324 h 168.16741 c 7.14789,0 12.99307,5.70045 12.99307,12.67135 v 261.43467 c 0,6.96872 -5.84518,12.67139 -12.99307,12.67139 H 368.26422 c -7.14561,0 -12.99073,-5.70267 -12.99073,-12.67139 v -261.43467 c 0,-6.9709 5.84512,-12.67135 12.99073,-12.67135 z"
       style="fill:#ffffff;fill-opacity:1;stroke:#000000;stroke-width:1.14880955;stroke-linecap:butt;stroke-linejoin:miter;stroke-miterlimit:22.9260006;stroke-dasharray:none;stroke-opacity:1"
       id="path5863"
       inkscape:connector-curvature="0" />
    <path
       d="m 488.71694,-618.68092 -10.14167,-0.013 c -0.78351,0.052 -1.87944,-0.76052 -1.97596,-1.7002 l -0.026,-12.81388 -17.01842,2.49749 c -1.18563,2.61703 -4.79059,4.7768 -7.41903,4.62055 -3.73366,0.065 -6.34373,-1.92543 -7.43283,-4.55846 l -17.18163,-2.49752 0.013,12.81381 c -0.0735,1.03393 -0.83861,1.57384 -1.6359,1.65199 l -10.66783,-0.013 c -0.85473,0 -1.56466,-0.68237 -1.66808,-1.58304 l -0.013,-15.46991 -4.39532,-0.039 -0.007,-13.65941 85.84135,0.013 -0.007,13.64328 -4.30579,0.013 v 15.21715 c -0.026,0.87768 -0.82251,1.87253 -1.95986,1.87253"
       style="fill:#000000;fill-opacity:1;fill-rule:evenodd;stroke:none;stroke-width:2.2976191"
       id="path5851"
       inkscape:connector-curvature="0" />
    <path
       d="m 416.98293,-660.89509 h 70.31643 l -0.007,-55.79309 -70.31639,-0.006 0.007,55.80225"
       style="fill:#e07e36;fill-opacity:1;fill-rule:evenodd;stroke:none;stroke-width:2.2976191"
       id="path5853"
       inkscape:connector-curvature="0" />
    <path
       d="m 409.15723,-653.58407 0.007,-64.28967 c 0.1081,-3.63487 3.0145,-5.98759 6.32309,-6.15765 h 73.44338 c 3.30859,0.13092 6.04279,2.8422 6.15076,5.67513 v 64.78828 z m 5.54187,-5.2087 0.007,-59.91272 75.26544,0.013 0.007,59.8897 -75.28383,0.006"
       style="fill:#000000;fill-opacity:1;fill-rule:evenodd;stroke:none;stroke-width:2.2976191"
       id="path5855"
       inkscape:connector-curvature="0" />
    <path
       d="m 371.22583,-478.78118 h 162.1913 c 3.12478,0 5.67282,-2.53198 5.67282,-5.65903 v -256.88994 c 0,-3.12478 -2.54804,-5.659 -5.67282,-5.659 h -162.1913 c -3.12472,0 -5.67282,2.53422 -5.67282,5.659 v 256.88994 c 0,3.12705 2.5481,5.65903 5.67282,5.65903 z m 0.64803,-272.24262 h 160.95067 c 6.43099,0 11.67643,5.23399 11.67643,11.62136 v 254.49356 c 0,6.38964 -5.24544,11.62136 -11.67643,11.62136 H 371.87392 c -6.43106,0 -11.67649,-5.23172 -11.67649,-11.62136 v -254.49356 c 0,-6.38737 5.24543,-11.62136 11.67649,-11.62136 z"
       style="fill:#000000;fill-opacity:1;fill-rule:evenodd;stroke:#000000;stroke-width:0.49628583;stroke-linecap:butt;stroke-linejoin:miter;stroke-miterlimit:22.9260006;stroke-dasharray:none;stroke-opacity:1"
       id="path5857"
       inkscape:connector-curvature="0" />
    <path
       d="m 452.21011,-575.35469 c 19.71355,0 35.79921,16.08102 35.79921,35.80148 0,19.71592 -16.08566,35.79921 -35.79921,35.79921 -19.72053,0 -35.80389,-16.08329 -35.80389,-35.79921 0,-19.72046 16.08336,-35.80148 35.80389,-35.80148"
       style="fill:#283996;fill-opacity:1;fill-rule:evenodd;stroke:none;stroke-width:2.2976191"
       id="path5859"
       inkscape:connector-curvature="0" />
    <path
       d="m 430.10695,-515.06515 v -15.15515 c 0.68926,-13.90284 8.41622,-22.10764 22.11926,-22.35807 h 6.83994 l -3.43265,-11.34801 26.98097,15.60779 -26.98097,15.51813 3.43265,-11.32268 h -6.83994 c -7.32712,0 -13.70304,6.38736 -13.70304,13.90284 v 15.15515 h -8.41622"
       style="fill:#ffffff;fill-opacity:1;fill-rule:evenodd;stroke:none;stroke-width:2.2976191"
       id="path5861"
       inkscape:connector-curvature="0" />
  </g>
</svg>
