<?xml version="1.0" encoding="UTF-8" standalone="no"?>
<!-- Created with Inkscape (http://www.inkscape.org/) -->

<svg
   xmlns:dc="http://purl.org/dc/elements/1.1/"
   xmlns:cc="http://creativecommons.org/ns#"
   xmlns:rdf="http://www.w3.org/1999/02/22-rdf-syntax-ns#"
   xmlns:svg="http://www.w3.org/2000/svg"
   xmlns="http://www.w3.org/2000/svg"
   xmlns:sodipodi="http://sodipodi.sourceforge.net/DTD/sodipodi-0.dtd"
   xmlns:inkscape="http://www.inkscape.org/namespaces/inkscape"
   width="194.99998mm"
   height="195.00362mm"
   viewBox="0 0 194.99999 195.00361"
   version="1.1"
   id="svg3845"
   inkscape:version="0.92.3 (2405546, 2018-03-11)"
   sodipodi:docname="Latvia_road_sign_414A.svg">
  <defs
     id="defs3839" />
  <sodipodi:namedview
     id="base"
     pagecolor="#ffffff"
     bordercolor="#666666"
     borderopacity="1.0"
     inkscape:pageopacity="0.0"
     inkscape:pageshadow="2"
     inkscape:zoom="0.16046451"
     inkscape:cx="-1219.5629"
     inkscape:cy="137.79585"
     inkscape:document-units="mm"
     inkscape:current-layer="layer1"
     showgrid="false"
     inkscape:window-width="1600"
     inkscape:window-height="838"
     inkscape:window-x="-8"
     inkscape:window-y="-8"
     inkscape:window-maximized="1"
     showguides="true"
     inkscape:guide-bbox="true" />
  <metadata
     id="metadata3842">
    <rdf:RDF>
      <cc:Work
         rdf:about="">
        <dc:format>image/svg+xml</dc:format>
        <dc:type
           rdf:resource="http://purl.org/dc/dcmitype/StillImage" />
        <dc:title></dc:title>
      </cc:Work>
    </rdf:RDF>
  </metadata>
  <g
     inkscape:label="Layer 1"
     inkscape:groupmode="layer"
     id="layer1"
     transform="translate(-778.64731,802.84589)">
    <path
       d="m 876.15567,-802.06938 c 53.26213,0 96.71512,43.44737 96.71512,96.72534 0,53.27172 -43.45299,96.72525 -96.71512,96.72525 -53.27797,0 -96.73185,-43.45353 -96.73185,-96.72525 0,-53.27797 43.45388,-96.72534 96.73185,-96.72534 z"
       style="fill:#ffffff;fill-opacity:1;stroke:#000000;stroke-width:1.55302119;stroke-linecap:butt;stroke-linejoin:miter;stroke-miterlimit:22.9260006;stroke-dasharray:none;stroke-opacity:1"
       id="path6207"
       inkscape:connector-curvature="0" />
    <path
       d="m 876.15567,-796.90085 c 50.4165,0 91.55039,41.12393 91.55039,91.55681 0,50.42654 -41.13389,91.55682 -91.55039,91.55682 -50.43323,0 -91.56624,-41.13028 -91.56624,-91.55682 0,-50.43288 41.13301,-91.55681 91.56624,-91.55681"
       style="fill:#283996;fill-opacity:1;fill-rule:evenodd;stroke:none;stroke-width:3.10604239"
       id="path6199"
       inkscape:connector-curvature="0" />
    <path
       d="m 876.93487,-755.14942 c -5.44472,0.23949 -10.12609,-4.06584 -10.62883,-9.41134 -0.2025,-5.19335 4.05625,-11.03885 10.66581,-10.4891 6.47045,0.32577 9.54851,5.85801 9.31255,10.53876 -0.088,4.68084 -4.31774,9.12554 -9.34953,9.36168"
       style="fill:#ffffff;fill-opacity:1;fill-rule:evenodd;stroke:none;stroke-width:3.10604239"
       id="path6201"
       inkscape:connector-curvature="0" />
    <path
       d="m 841.05113,-642.35352 c -3.13089,-1.70209 -4.25523,-4.54103 -3.23039,-8.33666 l 13.88035,-32.48916 22.29219,-26.08456 -4.55635,-24.91973 -21.56493,25.32042 c -2.39219,2.38858 -5.40775,2.2146 -7.7251,0.3513 -1.80141,-1.40388 -2.33848,-4.8454 -0.73958,-7.04759 l 29.62548,-34.81874 16.47152,-2.81719 27.24562,18.04612 v 22.0933 c -0.27294,2.76744 -2.5313,4.74291 -4.99481,4.87955 -3.01555,0.0264 -4.9816,-1.75175 -5.40686,-4.76774 v -15.97124 l -9.50185,-6.20587 -2.87908,28.13452 -27.70874,32.65689 -12.30345,28.67186 c -1.23968,2.75511 -4.65584,5.14678 -8.93572,3.30487"
       style="fill:#ffffff;fill-opacity:1;fill-rule:evenodd;stroke:none;stroke-width:3.10604239"
       id="path6203"
       inkscape:connector-curvature="0" />
    <path
       d="m 900.12776,-646.13357 -18.5124,-46.3732 9.72548,-11.32465 21.12735,53.16924 c 0.92536,3.17747 -0.22891,6.24311 -3.6935,8.30866 -2.00303,0.93803 -6.93268,0.8514 -8.64693,-3.78005"
       style="fill:#ffffff;fill-opacity:1;fill-rule:evenodd;stroke:none;stroke-width:3.10604239"
       id="path6205"
       inkscape:connector-curvature="0" />
    <path
       d="M 811.40979,-640.83465 940.88482,-769.85342"
       style="fill:none;stroke:#ed1a3a;stroke-width:17.10497665;stroke-linecap:butt;stroke-linejoin:miter;stroke-miterlimit:22.9260006;stroke-dasharray:none;stroke-opacity:1"
       id="path6209"
       inkscape:connector-curvature="0" />
  </g>
</svg>
