<?xml version="1.0" encoding="UTF-8" standalone="no"?>
<!-- Created with Inkscape (http://www.inkscape.org/) -->

<svg
   xmlns:dc="http://purl.org/dc/elements/1.1/"
   xmlns:cc="http://creativecommons.org/ns#"
   xmlns:rdf="http://www.w3.org/1999/02/22-rdf-syntax-ns#"
   xmlns:svg="http://www.w3.org/2000/svg"
   xmlns="http://www.w3.org/2000/svg"
   xmlns:sodipodi="http://sodipodi.sourceforge.net/DTD/sodipodi-0.dtd"
   xmlns:inkscape="http://www.inkscape.org/namespaces/inkscape"
   width="195.00002mm"
   height="195.00317mm"
   viewBox="0 0 195.00002 195.00318"
   version="1.1"
   id="svg3845"
   inkscape:version="0.92.3 (2405546, 2018-03-11)"
   sodipodi:docname="Latvia_road_sign_416.svg">
  <defs
     id="defs3839" />
  <sodipodi:namedview
     id="base"
     pagecolor="#ffffff"
     bordercolor="#666666"
     borderopacity="1.0"
     inkscape:pageopacity="0.0"
     inkscape:pageshadow="2"
     inkscape:zoom="0.35"
     inkscape:cx="-629.87252"
     inkscape:cy="99.636816"
     inkscape:document-units="mm"
     inkscape:current-layer="layer1"
     showgrid="false"
     inkscape:window-width="1920"
     inkscape:window-height="1027"
     inkscape:window-x="-8"
     inkscape:window-y="-8"
     inkscape:window-maximized="1" />
  <metadata
     id="metadata3842">
    <rdf:RDF>
      <cc:Work
         rdf:about="">
        <dc:format>image/svg+xml</dc:format>
        <dc:type
           rdf:resource="http://purl.org/dc/dcmitype/StillImage" />
        <dc:title></dc:title>
      </cc:Work>
    </rdf:RDF>
  </metadata>
  <g
     inkscape:label="Layer 1"
     inkscape:groupmode="layer"
     id="layer1"
     transform="translate(-378.83436,513.21741)">
    <path
       d="m 476.34216,-512.4409 c 53.26227,0 96.7157,43.44726 96.7157,96.72512 0,53.2716 -43.45343,96.72503 -96.7157,96.72503 -53.27786,0 -96.73129,-43.45343 -96.73129,-96.72503 0,-53.27786 43.45343,-96.72512 96.73129,-96.72512 z"
       style="fill:#ffffff;fill-opacity:1;stroke:#000000;stroke-width:1.55301774;stroke-linecap:butt;stroke-linejoin:miter;stroke-miterlimit:22.9260006;stroke-dasharray:none;stroke-opacity:1"
       id="path5655"
       inkscape:connector-curvature="0" />
    <path
       d="m 478.4791,-324.15918 c 49.43565,-1.14617 89.41341,-41.83524 89.41341,-91.55977 0,-49.72762 -39.97776,-90.41044 -89.41341,-91.55344 z m -4.29255,-0.003 c -49.44191,-1.14925 -89.41033,-41.83525 -89.41033,-91.55669 0,-49.72453 39.96842,-90.40428 89.41341,-91.55344 l -0.003,183.11004"
       style="fill:#283996;fill-opacity:1;fill-rule:evenodd;stroke:none;stroke-width:3.10603547"
       id="path5657"
       inkscape:connector-curvature="0" />
    <path
       d="m 521.0225,-450.46613 c -3.08123,0.13383 -5.7276,-2.30159 -6.01023,-5.32374 -0.11534,-2.93833 2.29226,-6.24627 6.0288,-5.93256 3.66206,0.18313 5.40139,3.31419 5.26783,5.96047 -0.044,2.64946 -2.44132,5.16226 -5.2864,5.29583"
       style="fill:#ffffff;fill-opacity:1;fill-rule:evenodd;stroke:none;stroke-width:3.10603547"
       id="path5659"
       inkscape:connector-curvature="0" />
    <path
       d="m 500.72766,-386.65887 c -1.76733,-0.96287 -2.40724,-2.5718 -1.82641,-4.71808 l 7.85213,-18.37836 12.60427,-14.75372 -2.57488,-14.09831 -12.19742,14.32512 c -1.35114,1.35105 -3.05639,1.25174 -4.36712,0.19546 -1.01877,-0.79241 -1.32314,-2.73952 -0.41645,-3.98501 l 16.75392,-19.69543 9.315,-1.59335 15.40904,10.20954 0.009,12.49553 c -0.15496,1.56545 -1.42871,2.68362 -2.82334,2.76127 -1.70526,0.0176 -2.81718,-0.99077 -3.05631,-2.69911 v -9.03237 l -5.37348,-3.51291 -1.6276,15.91847 -15.673,18.4716 -6.9575,16.21967 c -0.69908,1.5561 -2.63088,2.91033 -5.05353,1.86981"
       style="fill:#ffffff;fill-opacity:1;fill-rule:evenodd;stroke:none;stroke-width:3.10603547"
       id="path5661"
       inkscape:connector-curvature="0" />
    <path
       d="m 534.13611,-388.7989 -10.28094,-25.66832 5.50079,-6.40774 11.75948,29.5136 c 0.52475,1.79841 -0.12766,3.53465 -2.08728,4.70249 -1.13059,0.53091 -3.91986,0.4816 -4.89205,-2.14003"
       style="fill:#ffffff;fill-opacity:1;fill-rule:evenodd;stroke:none;stroke-width:3.10603547"
       id="path5663"
       inkscape:connector-curvature="0" />
    <path
       d="m 454.6931,-418.84359 c -3.2427,-0.36979 -4.97587,-1.24865 -7.63466,-3.16196 -2.6432,-2.5283 -3.56882,-4.14032 -4.42919,-7.40785 l -8.25899,0.94111 c -1.71142,-0.15232 -2.51897,-0.69291 -3.46008,-2.05312 -0.5811,-0.88213 -0.59343,-1.84807 -0.43142,-2.8855 l -16.0302,-11.58243 -0.91012,1.8574 c 4.11241,3.04399 5.78967,7.44519 5.47596,12.29991 -0.26677,2.85134 -1.66176,5.41697 -3.50983,7.61915 -2.44131,2.70845 -6.0133,4.10925 -9.41748,4.29564 -3.16196,0.3601 -7.04448,-1.19891 -9.35849,-3.22721 -2.48797,-2.12761 -4.22731,-5.58153 -4.59692,-8.79623 -0.25181,-3.59682 0.52475,-6.75253 2.89167,-9.69394 2.15252,-2.80785 4.55659,-4.2429 8.86156,-5.09394 2.77677,-0.42262 5.72135,0.40677 7.71539,1.39155 l 5.05353,-10.11013 -4.02851,-2.09662 c -1.00635,-0.43142 -1.66484,-1.25174 -1.93197,-2.04062 -0.34162,-1.65868 0.16729,-2.4414 0.7792,-3.15263 0.55556,-0.64009 1.66793,-1.14617 2.7581,-0.96295 l 5.96365,1.01569 c 0.71756,0.2791 0.85403,0.68675 0.78888,1.35114 -0.20162,0.49657 -0.52211,0.76423 -1.21757,0.70788 l -5.96981,-1.02801 c -0.40677,-0.0881 -0.87869,0.1215 -1.04052,0.59958 -0.1893,0.6489 0.22099,1.09643 0.51858,1.20208 l 6.39534,3.32344 -1.49712,3.10606 24.73645,-0.044 0.69291,-1.91947 -6.31768,-1.97547 0.73606,-1.56236 c 0.37595,-0.41645 0.8109,-0.65857 1.52195,-0.66738 l 9.57587,-0.11534 c 0.94737,0.0528 1.12751,0.72373 0.55645,1.71451 -0.56525,1.05293 -1.5717,1.8419 -2.63704,2.58113 l -1.01877,0.0176 -1.0281,2.18976 4.75223,7.86138 c 2.87617,-1.35423 5.78034,-1.75184 8.85223,-1.11509 3.57499,0.7924 6.90467,3.20853 8.28998,5.59711 1.96921,2.82334 2.52214,5.44489 2.32333,8.73108 -0.17081,3.34202 -2.11519,7.22771 -4.60934,9.03228 -3.28619,2.65263 -5.7835,3.34519 -9.90516,3.26137 z m -0.28879,-2.53455 c -2.79235,-0.41645 -4.74598,-1.43804 -6.2711,-2.79543 -1.35114,-1.17717 -2.60596,-2.89792 -3.36385,-5.43864 l 11.17556,-1.0436 c 0.99395,-0.0616 1.63377,-0.77655 1.6866,-1.64309 0.0528,-0.84172 -0.51243,-1.78292 -1.68043,-1.89782 l -5.05353,-8.22165 c 1.83882,-0.85404 3.62482,-1.10576 5.5008,-0.99086 2.80784,0.23596 4.65908,1.27349 6.62213,2.88859 2.3295,2.23951 3.25195,4.77398 3.49425,7.70614 -0.0264,2.73328 -0.45696,4.62484 -2.06862,6.94817 -2.72403,3.1278 -5.31757,4.59384 -10.04181,4.48819 z m -53.34309,-0.99077 c -3.47559,-1.56236 -5.72751,-4.50377 -6.46674,-8.3428 -0.23596,-3.42293 0.22011,-6.14687 2.67745,-8.81182 1.63377,-2.04696 4.12474,-3.20854 6.57855,-3.68381 2.09345,-0.13383 4.37954,-0.11182 6.63764,1.19275 l -1.89165,3.8856 c -0.59607,1.14926 -1.42255,3.48809 -2.63079,3.85462 -0.46928,0.17081 -0.75455,-0.10566 -1.39463,0.18313 -0.90379,0.48161 -1.25482,1.32939 -1.01252,2.15561 0.22715,0.66122 0.65857,1.17716 1.63376,1.31698 1.13992,0.003 2.03138,-1.06852 1.77041,-2.22393 1.53753,-0.54324 2.97558,-3.18988 4.1155,-5.22742 l 1.36672,-2.72094 c 1.14916,0.98152 2.81709,3.03465 3.18362,4.49761 0.84171,2.21142 0.88521,3.65263 0.56525,5.86415 -0.50978,2.97557 -2.32958,5.52254 -4.37954,6.97309 -2.99732,1.8294 -6.20278,2.88233 -10.75312,1.08709 z m 43.78579,-13.00497 c 0.49394,-2.18361 2.18669,-4.64975 3.96952,-5.85799 l 4.06583,6.72761 z m -2.09036,-0.1893 -5.54112,-0.6304 6.50715,-13.47398 3.98809,6.62213 c -2.69286,2.14003 -4.11232,4.10308 -4.95412,7.48243 z m -10.89902,-0.0704 -16.2415,-11.72523 1.37289,-2.7147 24.45074,0.044 -6.48857,13.56714 c -1.14301,-0.19546 -2.28601,0.13999 -3.09356,0.82938"
       style="fill:#ffffff;fill-opacity:1;fill-rule:evenodd;stroke:none;stroke-width:3.10603547"
       id="path5665"
       inkscape:connector-curvature="0" />
    <path
       d="m 438.41743,-360.21092 v -27.48222 l 7.72781,2.26742 -10.56673,-18.03991 -10.59465,18.06474 7.73089,-2.29225 v 27.48222 h 5.70268"
       style="fill:#ffffff;fill-opacity:1;fill-rule:evenodd;stroke:none;stroke-width:3.10603547"
       id="path5667"
       inkscape:connector-curvature="0" />
  </g>
</svg>
