<?xml version="1.0" encoding="UTF-8" standalone="no"?>
<!-- Created with Inkscape (http://www.inkscape.org/) -->

<svg
   xmlns:dc="http://purl.org/dc/elements/1.1/"
   xmlns:cc="http://creativecommons.org/ns#"
   xmlns:rdf="http://www.w3.org/1999/02/22-rdf-syntax-ns#"
   xmlns:svg="http://www.w3.org/2000/svg"
   xmlns="http://www.w3.org/2000/svg"
   xmlns:sodipodi="http://sodipodi.sourceforge.net/DTD/sodipodi-0.dtd"
   xmlns:inkscape="http://www.inkscape.org/namespaces/inkscape"
   width="195.00002mm"
   height="195.00273mm"
   viewBox="0 0 195.00002 195.00272"
   version="1.1"
   id="svg3845"
   inkscape:version="0.92.3 (2405546, 2018-03-11)"
   sodipodi:docname="Latvia_road_sign_414.svg">
  <defs
     id="defs3839" />
  <sodipodi:namedview
     id="base"
     pagecolor="#ffffff"
     bordercolor="#666666"
     borderopacity="1.0"
     inkscape:pageopacity="0.0"
     inkscape:pageshadow="2"
     inkscape:zoom="0.22693109"
     inkscape:cx="-2072.2356"
     inkscape:cy="-309.46829"
     inkscape:document-units="mm"
     inkscape:current-layer="layer1"
     showgrid="false"
     inkscape:window-width="1600"
     inkscape:window-height="838"
     inkscape:window-x="-8"
     inkscape:window-y="-8"
     inkscape:window-maximized="1"
     showguides="true"
     inkscape:guide-bbox="true" />
  <metadata
     id="metadata3842">
    <rdf:RDF>
      <cc:Work
         rdf:about="">
        <dc:format>image/svg+xml</dc:format>
        <dc:type
           rdf:resource="http://purl.org/dc/dcmitype/StillImage" />
        <dc:title></dc:title>
      </cc:Work>
    </rdf:RDF>
  </metadata>
  <g
     inkscape:label="Layer 1"
     inkscape:groupmode="layer"
     id="layer1"
     transform="translate(-1004.2503,921.18365)">
    <path
       d="m 1101.7582,-920.40714 c 53.2619,0 96.7156,43.44717 96.7156,96.7249 0,53.27149 -43.4537,96.72482 -96.7156,96.72482 -53.2777,0 -96.7314,-43.45333 -96.7314,-96.72482 0,-53.27773 43.4537,-96.7249 96.7314,-96.7249 z"
       style="fill:#ffffff;fill-opacity:1;stroke:#000000;stroke-width:1.55301416;stroke-linecap:butt;stroke-linejoin:miter;stroke-miterlimit:22.9260006;stroke-dasharray:none;stroke-opacity:1"
       id="path6229"
       inkscape:connector-curvature="0" />
    <path
       d="m 1101.7582,-915.23864 c 50.4172,0 91.55,41.12375 91.55,91.5564 0,50.42323 -41.1328,91.5564 -91.55,91.5564 -50.433,0 -91.5658,-41.13317 -91.5658,-91.5564 0,-50.43265 41.1328,-91.5564 91.5658,-91.5564"
       style="fill:#283996;fill-opacity:1;fill-rule:evenodd;stroke:none;stroke-width:3.10602832"
       id="path6221"
       inkscape:connector-curvature="0" />
    <path
       d="m 1102.5374,-873.48739 c -5.4447,0.23948 -10.1251,-4.06583 -10.6288,-9.4113 -0.2025,-5.19641 4.0572,-11.0388 10.6667,-10.48905 6.4695,0.32576 9.5476,5.85798 9.3116,10.53871 -0.088,4.68082 -4.3177,9.1255 -9.3495,9.36164"
       style="fill:#ffffff;fill-opacity:1;fill-rule:evenodd;stroke:none;stroke-width:3.10602832"
       id="path6223"
       inkscape:connector-curvature="0" />
    <path
       d="m 1066.6538,-760.69201 c -3.1308,-1.70208 -4.2552,-4.54408 -3.2303,-8.33662 l 13.8811,-32.48901 22.2921,-26.08444 -4.5572,-24.91962 -21.5648,25.32031 c -2.3913,2.38857 -5.4077,2.21459 -7.7251,0.34778 -1.8014,-1.4008 -2.3384,-4.8423 -0.7396,-7.04448 l 29.6254,-34.82167 16.4714,-2.81409 27.2464,18.04604 v 22.09319 c -0.2729,2.76435 -2.5313,4.74289 -4.9948,4.87954 -3.0155,0.0264 -4.9816,-1.75174 -5.4077,-4.76772 v -15.97117 l -9.5009,-6.20585 -2.8791,28.1344 -27.7095,32.65366 -12.3025,28.67481 c -1.2397,2.7551 -4.6558,5.14676 -8.9366,3.30486"
       style="fill:#ffffff;fill-opacity:1;fill-rule:evenodd;stroke:none;stroke-width:3.10602832"
       id="path6225"
       inkscape:connector-curvature="0" />
    <path
       d="m 1125.7302,-764.47204 -18.5114,-46.37299 9.7245,-11.3246 21.1273,53.16592 c 0.9262,3.18054 -0.2289,6.24617 -3.6926,8.3117 -2.0039,0.93804 -6.9327,0.8514 -8.6478,-3.78003"
       style="fill:#ffffff;fill-opacity:1;fill-rule:evenodd;stroke:none;stroke-width:3.10602832"
       id="path6227"
       inkscape:connector-curvature="0" />
  </g>
</svg>
