<?xml version="1.0" encoding="UTF-8" standalone="no"?>
<!-- Created with Inkscape (http://www.inkscape.org/) -->

<svg
   xmlns:dc="http://purl.org/dc/elements/1.1/"
   xmlns:cc="http://creativecommons.org/ns#"
   xmlns:rdf="http://www.w3.org/1999/02/22-rdf-syntax-ns#"
   xmlns:svg="http://www.w3.org/2000/svg"
   xmlns="http://www.w3.org/2000/svg"
   xmlns:sodipodi="http://sodipodi.sourceforge.net/DTD/sodipodi-0.dtd"
   xmlns:inkscape="http://www.inkscape.org/namespaces/inkscape"
   width="194.99997mm"
   height="194.99666mm"
   viewBox="0 0 194.99998 194.99665"
   version="1.1"
   id="svg3845"
   inkscape:version="0.92.3 (2405546, 2018-03-11)"
   sodipodi:docname="Latvia_road_sign_419 (50).svg">
  <defs
     id="defs3839" />
  <sodipodi:namedview
     id="base"
     pagecolor="#ffffff"
     bordercolor="#666666"
     borderopacity="1.0"
     inkscape:pageopacity="0.0"
     inkscape:pageshadow="2"
     inkscape:zoom="0.16046451"
     inkscape:cx="-1995.8567"
     inkscape:cy="663.96928"
     inkscape:document-units="mm"
     inkscape:current-layer="layer1"
     showgrid="false"
     inkscape:window-width="1600"
     inkscape:window-height="838"
     inkscape:window-x="-8"
     inkscape:window-y="-8"
     inkscape:window-maximized="1"
     showguides="true"
     inkscape:guide-bbox="true" />
  <metadata
     id="metadata3842">
    <rdf:RDF>
      <cc:Work
         rdf:about="">
        <dc:format>image/svg+xml</dc:format>
        <dc:type
           rdf:resource="http://purl.org/dc/dcmitype/StillImage" />
        <dc:title></dc:title>
      </cc:Work>
    </rdf:RDF>
  </metadata>
  <g
     inkscape:label="Layer 1"
     inkscape:groupmode="layer"
     id="layer1"
     transform="translate(-984.04172,663.62222)">
    <path
       d="m 1081.5481,-662.84572 c 53.2614,0 96.7171,43.44697 96.7171,96.72315 0,53.26826 -43.4557,96.72051 -96.7171,96.72051 -53.277,0 -96.72988,-43.45225 -96.72988,-96.72051 0,-53.27618 43.45288,-96.72315 96.72988,-96.72315 z"
       style="fill:#ffffff;fill-opacity:1;stroke:#000000;stroke-width:1.55299461;stroke-linecap:butt;stroke-linejoin:miter;stroke-miterlimit:22.9260006;stroke-dasharray:none;stroke-opacity:1"
       id="path6728"
       inkscape:connector-curvature="0" />
    <path
       d="m 1081.5481,-657.68019 c 50.4167,0 91.549,41.12613 91.549,91.55762 0,50.42268 -41.1323,91.55586 -91.549,91.55586 -50.432,0 -91.56144,-41.13318 -91.56144,-91.55586 0,-50.43149 41.12944,-91.55762 91.56144,-91.55762"
       style="fill:#283996;fill-opacity:1;fill-rule:evenodd;stroke:none;stroke-width:3.10598922"
       id="path6720"
       inkscape:connector-curvature="0" />
    <path
       d="m 1025.3546,-562.86671 v -48.10273 h 48.1024 v 12.82798 h -36.0854 v 20.24479 c 10.079,-7.96444 24.702,-6.274 32.6657,3.8079 3.2582,4.09315 5.0286,9.18385 5.0286,14.41805 v 13.64415 c 0,14.15392 -11.486,25.6586 -25.6586,25.6586 -13.2377,0 -24.3168,-10.07837 -25.5592,-23.25413 h 12.952 c 1.3232,6.96339 8.0445,11.52581 15.0082,10.18139 6.0504,-1.14017 10.4267,-6.43601 10.4267,-12.58586 v -11.24056 c 0,-7.06639 -5.743,-12.80861 -12.8277,-12.80861 -4.9074,0 -9.3894,2.78923 -11.5481,7.20903 h -12.5046"
       style="fill:#ffffff;fill-opacity:1;fill-rule:evenodd;stroke:none;stroke-width:3.10598922"
       id="path6722"
       inkscape:connector-curvature="0" />
    <path
       d="m 1091.0928,-546.02657 v -40.09779 c 0,-14.17593 11.4859,-25.6586 25.6399,-25.6586 14.1755,0 25.6617,11.48267 25.6617,25.6586 v 40.09779 c 0,14.15392 -11.4862,25.6586 -25.6617,25.6586 -14.154,0 -25.6399,-11.50468 -25.6399,-25.6586 z m 12.8308,0 c 0,7.0884 5.743,12.83062 12.8091,12.83062 7.0879,0 12.8311,-5.74222 12.8311,-12.83062 v -40.09779 c 0,-7.08841 -5.7432,-12.8315 -12.8311,-12.8315 -7.0661,0 -12.8091,5.74309 -12.8091,12.8315 v 40.09779"
       style="fill:#ffffff;fill-opacity:1;fill-rule:evenodd;stroke:none;stroke-width:3.10598922"
       id="path6724"
       inkscape:connector-curvature="0" />
    <path
       d="m 1016.8442,-501.5266 129.4699,-129.02026"
       style="fill:none;stroke:#ed1a3a;stroke-width:17.10468292;stroke-linecap:butt;stroke-linejoin:miter;stroke-miterlimit:22.9260006;stroke-dasharray:none;stroke-opacity:1"
       id="path6726"
       inkscape:connector-curvature="0" />
  </g>
</svg>
