<?xml version="1.0" encoding="UTF-8" standalone="no"?>
<!-- Created with Inkscape (http://www.inkscape.org/) -->

<svg
   xmlns:dc="http://purl.org/dc/elements/1.1/"
   xmlns:cc="http://creativecommons.org/ns#"
   xmlns:rdf="http://www.w3.org/1999/02/22-rdf-syntax-ns#"
   xmlns:svg="http://www.w3.org/2000/svg"
   xmlns="http://www.w3.org/2000/svg"
   xmlns:sodipodi="http://sodipodi.sourceforge.net/DTD/sodipodi-0.dtd"
   xmlns:inkscape="http://www.inkscape.org/namespaces/inkscape"
   width="195mm"
   height="195.00308mm"
   viewBox="0 0 195 195.00307"
   version="1.1"
   id="svg3845"
   inkscape:version="0.92.3 (2405546, 2018-03-11)"
   sodipodi:docname="Latvia_road_sign_413.svg">
  <defs
     id="defs3839" />
  <sodipodi:namedview
     id="base"
     pagecolor="#ffffff"
     bordercolor="#666666"
     borderopacity="1.0"
     inkscape:pageopacity="0.0"
     inkscape:pageshadow="2"
     inkscape:zoom="0.22693109"
     inkscape:cx="1735.1925"
     inkscape:cy="273.69108"
     inkscape:document-units="mm"
     inkscape:current-layer="layer1"
     showgrid="false"
     inkscape:window-width="1600"
     inkscape:window-height="838"
     inkscape:window-x="-8"
     inkscape:window-y="-8"
     inkscape:window-maximized="1"
     showguides="true"
     inkscape:guide-bbox="true" />
  <metadata
     id="metadata3842">
    <rdf:RDF>
      <cc:Work
         rdf:about="">
        <dc:format>image/svg+xml</dc:format>
        <dc:type
           rdf:resource="http://purl.org/dc/dcmitype/StillImage" />
        <dc:title></dc:title>
      </cc:Work>
    </rdf:RDF>
  </metadata>
  <g
     inkscape:label="Layer 1"
     inkscape:groupmode="layer"
     id="layer1"
     transform="translate(80.18137,849.33269)">
    <path
       d="m 17.326379,-848.55618 c 53.262332,0 96.715741,43.44725 96.715741,96.72508 0,53.27158 -43.453409,96.72499 -96.715741,96.72499 -53.277742,0 -96.73124,-43.45341 -96.73124,-96.72499 0,-53.27783 43.453498,-96.72508 96.73124,-96.72508 z"
       style="fill:#ffffff;fill-opacity:1;stroke:#000000;stroke-width:1.55301702;stroke-linecap:butt;stroke-linejoin:miter;stroke-miterlimit:22.9260006;stroke-dasharray:none;stroke-opacity:1"
       id="path6241"
       inkscape:connector-curvature="0" />
    <path
       d="m 17.326379,-843.38767 c 50.417162,0 91.547231,41.12383 91.547231,91.55657 0,50.42332 -41.130069,91.55657 -91.547231,91.55657 -50.432654,0 -91.5659,-41.13325 -91.5659,-91.55657 0,-50.43274 41.133246,-91.55657 91.5659,-91.55657"
       style="fill:#283996;fill-opacity:1;fill-rule:evenodd;stroke:none;stroke-width:3.10603404"
       id="path6237"
       inkscape:connector-curvature="0" />
    <path
       d="m 62.789421,-714.26984 c -6.08779,-0.69556 -9.34291,-2.34817 -14.33128,-5.9419 -4.96653,-4.74598 -6.70586,-7.77438 -8.32105,-13.90874 l -15.514593,1.77041 c -3.208539,-0.28615 -4.727404,-1.3014 -6.497814,-3.85462 -1.090262,-1.65859 -1.11201,-3.47249 -0.807374,-5.41688 l -30.106746,-21.75162 -1.705257,3.48808 c 7.7185593,5.71518 10.8711893,13.98032 10.2841043,23.09651 -0.502737,5.35173 -3.121549,10.17228 -6.5941353,14.30635 -4.587588,5.0846 -11.293541,7.71231 -17.685701,8.06951 -5.941897,0.67354 -13.228594,-2.25809 -17.580134,-6.06296 -4.668413,-3.99751 -7.935942,-10.48291 -8.631674,-16.51479 -0.471921,-6.75561 0.990771,-12.68509 5.432381,-18.20446 4.044086,-5.27408 8.557188,-7.96702 16.645271,-9.56346 5.214998,-0.79857 10.743788,0.76071 14.486584,2.61212 l 9.4919623,-18.98718 -7.5693223,-3.93227 c -1.885397,-0.81353 -3.121638,-2.35124 -3.624816,-3.83277 -0.642729,-3.11539 0.316962,-4.58768 1.462957,-5.92015 1.043686,-1.202 3.133964,-2.14936 5.184006,-1.81083 l 11.1972193,1.91023 c 1.34488797,0.52211 1.60585397,1.28898 1.48162197,2.53763 -0.378594,0.93495 -0.97844497,1.43496 -2.28917097,1.3294 l -11.2065533,-1.9289 c -0.764231,-0.15848 -1.652429,0.22364 -1.959971,1.12135 -0.357463,1.22065 0.416453,2.05928 0.978445,2.25809 l 12.0110203,6.24002 -2.810927,5.83307 46.4507267,-0.0898 1.30456,-3.60298 -11.86821,-3.70546 1.38531,-2.93525 c 0.70788,-0.7792 1.51886,-1.23615 2.85759,-1.25173 l 17.98699,-0.221 c 1.77666,0.0995 2.11519,1.36047 1.04368,3.22412 -1.06543,1.97538 -2.95391,3.45701 -4.95412,4.84847 l -1.91339,0.0176 -1.92881,4.11241 8.92672,14.76612 c 5.39522,-2.54696 10.85252,-3.29244 16.62352,-2.09661 6.71212,1.48778 12.96772,6.02263 15.56743,10.51082 3.6993,5.2989 4.73673,10.22194 4.36395,16.39055 -0.32313,6.28044 -3.97259,13.57338 -8.66267,16.95898 -6.16861,4.9852 -10.8556,6.28659 -18.60207,6.1282 z m -0.5406,-4.76157 c -5.243,-0.7792 -8.91122,-2.69911 -11.77814,-5.24916 -2.53447,-2.20843 -4.88888,-5.4418 -6.31451,-10.2127 l 20.98748,-1.9568 c 1.86673,-0.11534 3.06873,-1.45979 3.16813,-3.08739 0.10213,-1.58093 -0.95978,-3.34518 -3.15888,-3.55948 l -9.49196,-15.43703 c 3.457,-1.60269 6.80834,-2.08104 10.33376,-1.86356 5.27715,0.44726 8.74965,2.39473 12.43962,5.42621 4.37329,4.20556 6.10337,8.96088 6.56305,14.46792 -0.0528,5.13426 -0.86372,8.68441 -3.8856,13.04529 -5.11568,5.8704 -9.99215,8.62551 -18.86295,8.4267 z m -100.182079,-1.8574 c -6.522642,-2.93524 -10.753032,-8.46086 -12.144584,-15.66683 -0.437584,-6.4264 0.419095,-11.542 5.034857,-16.54278 3.065729,-3.84836 7.743388,-6.02572 12.352723,-6.91709 3.929187,-0.25445 8.224818,-0.21131 12.467621,2.23635 l -3.556404,7.29295 c -1.118172,2.16177 -2.671199,6.55064 -4.941705,7.23704 -0.87869,0.32576 -1.416293,-0.19546 -2.618373,0.34777 -1.699005,0.90388 -2.357494,2.49415 -1.903974,4.05034 0.425257,1.23924 1.236153,2.20527 3.071804,2.4724 2.13703,0 3.814288,-2.00963 3.323525,-4.17765 2.888583,-1.02186 5.587692,-5.98848 7.727804,-9.81817 l 2.568715,-5.10635 c 2.158689,1.8419 5.292653,5.69959 5.975971,8.4422 1.5871883,4.1559 1.6648443,6.85818 1.0653453,11.01091 -0.9566103,5.59086 -4.3732873,10.37418 -8.2279003,13.09812 -5.628105,3.43217 -11.64757,5.41389 -20.195425,2.0407 z m 82.238499,-24.41657 c 0.92561,-4.10307 4.10307,-8.73416 7.45134,-11.00466 l 7.63773,12.63226 z m -3.9291,-0.36362 -10.40834,-1.18342 12.22532,-25.29552 7.48559,12.43029 c -5.05352,4.02234 -7.72472,7.70923 -9.30257,14.04865 z m -20.47189,-0.13031 -30.498195,-22.01558 2.5780483,-5.09702 45.9133867,0.0792 -12.181826,25.47258 c -2.143193,-0.36362 -4.292549,0.26678 -5.811414,1.55919"
       style="fill:#ffffff;fill-opacity:1;fill-rule:evenodd;stroke:none;stroke-width:3.10603404"
       id="path6239"
       inkscape:connector-curvature="0" />
  </g>
</svg>
