<?xml version="1.0" encoding="UTF-8" standalone="no"?>
<!-- Created with Inkscape (http://www.inkscape.org/) -->

<svg
   xmlns:dc="http://purl.org/dc/elements/1.1/"
   xmlns:cc="http://creativecommons.org/ns#"
   xmlns:rdf="http://www.w3.org/1999/02/22-rdf-syntax-ns#"
   xmlns:svg="http://www.w3.org/2000/svg"
   xmlns="http://www.w3.org/2000/svg"
   xmlns:sodipodi="http://sodipodi.sourceforge.net/DTD/sodipodi-0.dtd"
   xmlns:inkscape="http://www.inkscape.org/namespaces/inkscape"
   width="195.00002mm"
   height="195.00009mm"
   viewBox="0 0 195.00002 195.00008"
   version="1.1"
   id="svg3845"
   inkscape:version="0.92.3 (2405546, 2018-03-11)"
   sodipodi:docname="Latvia_road_sign_413A.svg">
  <defs
     id="defs3839" />
  <sodipodi:namedview
     id="base"
     pagecolor="#ffffff"
     bordercolor="#666666"
     borderopacity="1.0"
     inkscape:pageopacity="0.0"
     inkscape:pageshadow="2"
     inkscape:zoom="0.16046451"
     inkscape:cx="-51.328397"
     inkscape:cy="184.62123"
     inkscape:document-units="mm"
     inkscape:current-layer="layer1"
     showgrid="false"
     inkscape:window-width="1600"
     inkscape:window-height="838"
     inkscape:window-x="-8"
     inkscape:window-y="-8"
     inkscape:window-maximized="1"
     showguides="true"
     inkscape:guide-bbox="true" />
  <metadata
     id="metadata3842">
    <rdf:RDF>
      <cc:Work
         rdf:about="">
        <dc:format>image/svg+xml</dc:format>
        <dc:type
           rdf:resource="http://purl.org/dc/dcmitype/StillImage" />
        <dc:title></dc:title>
      </cc:Work>
    </rdf:RDF>
  </metadata>
  <g
     inkscape:label="Layer 1"
     inkscape:groupmode="layer"
     id="layer1"
     transform="translate(-469.55193,790.45315)">
    <path
       d="m 567.05973,-789.67664 c 53.26227,0 96.7157,43.44418 96.7157,96.72195 0,53.27169 -43.45343,96.72512 -96.7157,96.72512 -53.27786,0 -96.73129,-43.45343 -96.73129,-96.72512 0,-53.27777 43.45343,-96.72195 96.73129,-96.72195 z"
       style="fill:#ffffff;fill-opacity:1;stroke:#000000;stroke-width:1.55301774;stroke-linecap:butt;stroke-linejoin:miter;stroke-miterlimit:22.9260006;stroke-dasharray:none;stroke-opacity:1"
       id="path6195"
       inkscape:connector-curvature="0" />
    <path
       d="m 567.05973,-784.5113 c 50.41709,0 91.54727,41.12701 91.54727,91.55978 0,50.42334 -41.13018,91.55661 -91.54727,91.55661 -50.43277,0 -91.56594,-41.13327 -91.56594,-91.55661 0,-50.43277 41.13317,-91.55978 91.56594,-91.55978"
       style="fill:#283996;fill-opacity:1;fill-rule:evenodd;stroke:none;stroke-width:3.10603547"
       id="path6191"
       inkscape:connector-curvature="0" />
    <path
       d="m 612.5227,-655.39025 c -6.08779,-0.69555 -9.34291,-2.34816 -14.33119,-5.9419 -4.96654,-4.74598 -6.70596,-7.77438 -8.32106,-13.90875 l -15.51469,1.77042 c -3.20854,-0.28879 -4.7274,-1.3014 -6.49782,-3.85462 -1.09026,-1.65859 -1.11192,-3.4725 -0.80737,-5.42006 l -30.10685,-21.74846 -1.70517,3.48809 c 7.71848,5.71518 10.87111,13.98033 10.28411,23.09652 -0.50274,5.35173 -3.12155,10.17229 -6.59414,14.30328 -4.58759,5.0846 -11.29354,7.71539 -17.68579,8.06951 -5.94181,0.67706 -13.2286,-2.25502 -17.58014,-6.05989 -4.66833,-3.99751 -7.93595,-10.48291 -8.63168,-16.51787 -0.47192,-6.75253 0.99086,-12.68202 5.43247,-18.20139 4.04409,-5.27408 8.5571,-7.97011 16.64528,-9.56346 5.215,-0.79857 10.7437,0.76071 14.4865,2.61212 l 9.49205,-18.98719 -7.56941,-3.93227 c -1.8854,-0.81354 -3.12155,-2.35125 -3.62473,-3.83278 -0.64273,-3.11539 0.31696,-4.58768 1.46296,-5.92323 1.0436,-1.20208 3.13396,-2.14628 5.18392,-1.81083 l 11.19731,1.91023 c 1.34489,0.52211 1.60577,1.29206 1.48154,2.53763 -0.3786,0.93487 -0.97836,1.43496 -2.28909,1.33248 l -11.20664,-1.92889 c -0.76424,-0.15848 -1.65235,0.22363 -1.95989,1.12134 -0.35746,1.22066 0.41646,2.0562 0.97845,2.25492 l 12.01102,6.24002 -2.81101,5.83625 46.45074,-0.0898 1.30457,-3.60606 -11.86813,-3.70239 1.3853,-2.93524 c 0.70789,-0.78272 1.51878,-1.23616 2.85751,-1.25482 l 17.98708,-0.21747 c 1.77667,0.0995 2.1152,1.36038 1.0436,3.22095 -1.06534,1.97538 -2.95382,3.457 -4.95412,4.84847 l -1.91331,0.0264 -1.92889,4.11233 8.9268,14.76613 c 5.39514,-2.54697 10.85244,-3.29245 16.62345,-2.0997 6.71221,1.49087 12.96772,6.02572 15.56752,10.51082 3.69921,5.30199 4.73665,10.22512 4.36395,16.39365 -0.32312,6.27735 -3.97259,13.57338 -8.66275,16.95898 -6.16853,4.98204 -10.85561,6.2866 -18.602,6.12821 z m -0.5406,-4.76156 c -5.24291,-0.78272 -8.91113,-2.69911 -11.77806,-5.24916 -2.53455,-2.20844 -4.88888,-5.44489 -6.31459,-10.21271 l 20.98749,-1.9568 c 1.86673,-0.11798 3.06881,-1.45979 3.16821,-3.08739 0.10213,-1.58094 -0.95978,-3.34519 -3.15888,-3.55949 l -9.49206,-15.43703 c 3.45701,-1.60577 6.80844,-2.08104 10.33377,-1.86357 5.27716,0.44727 8.74975,2.39157 12.43972,5.42622 4.37329,4.20248 6.10337,8.96088 6.56306,14.46793 -0.0528,5.13118 -0.86373,8.68441 -3.8857,13.04221 -5.1156,5.87348 -9.99206,8.62859 -18.86296,8.42979 z m -100.18203,-1.86048 c -6.52265,-2.93217 -10.75313,-8.45779 -12.14459,-15.66376 -0.43759,-6.42949 0.41909,-11.54201 5.03486,-16.54587 3.06564,-3.84837 7.74339,-6.02264 12.35272,-6.91718 3.92911,-0.25181 8.22483,-0.21131 12.46763,2.23952 l -3.5564,7.29295 c -1.11818,2.16177 -2.67121,6.54756 -4.94171,7.23704 -0.87869,0.32577 -1.41638,-0.19546 -2.61838,0.34778 -1.699,0.90387 -2.35749,2.49106 -1.90397,4.05034 0.42526,1.23923 1.23615,2.20526 3.0718,2.46922 2.13695,0.003 3.81421,-2.00646 3.32344,-4.17448 2.88868,-1.02185 5.58779,-5.99156 7.7279,-9.81817 l 2.56863,-5.10944 c 2.15869,1.84499 5.29274,5.70269 5.97606,8.44529 1.58719,4.15282 1.66484,6.85819 1.06534,11.01092 -0.95669,5.59087 -4.37329,10.3711 -8.2279,13.09504 -5.62811,3.43525 -11.64757,5.4138 -20.19543,2.04071 z m 82.23853,-24.41659 c 0.92561,-4.09999 4.10307,-8.73108 7.45134,-11.00466 l 7.63774,12.63535 z m -3.92919,-0.3601 -10.40825,-1.18341 12.22532,-25.29554 7.48551,12.4303 c -5.05353,4.02234 -7.72473,7.70615 -9.30258,14.04865 z m -20.47181,-0.13383 -30.49821,-22.01559 2.57805,-5.09702 45.91341,0.0881 -12.18192,25.47259 c -2.14311,-0.36627 -4.29255,0.26414 -5.81133,1.55611"
       style="fill:#ffffff;fill-opacity:1;fill-rule:evenodd;stroke:none;stroke-width:3.10603547"
       id="path6193"
       inkscape:connector-curvature="0" />
    <path
       d="M 502.35168,-628.35846 631.82676,-757.38002"
       style="fill:none;stroke:#ed1a3a;stroke-width:17.10493851;stroke-linecap:butt;stroke-linejoin:miter;stroke-miterlimit:22.9260006;stroke-dasharray:none;stroke-opacity:1"
       id="path6197"
       inkscape:connector-curvature="0" />
  </g>
</svg>
