<?xml version="1.0" encoding="UTF-8" standalone="no"?>
<!-- Created with Inkscape (http://www.inkscape.org/) -->

<svg
   xmlns:dc="http://purl.org/dc/elements/1.1/"
   xmlns:cc="http://creativecommons.org/ns#"
   xmlns:rdf="http://www.w3.org/1999/02/22-rdf-syntax-ns#"
   xmlns:svg="http://www.w3.org/2000/svg"
   xmlns="http://www.w3.org/2000/svg"
   xmlns:sodipodi="http://sodipodi.sourceforge.net/DTD/sodipodi-0.dtd"
   xmlns:inkscape="http://www.inkscape.org/namespaces/inkscape"
   width="195mm"
   height="195.00011mm"
   viewBox="0 0 195 195.0001"
   version="1.1"
   id="svg3845"
   inkscape:version="0.92.3 (2405546, 2018-03-11)"
   sodipodi:docname="Latvia_road_sign_409.svg">
  <defs
     id="defs3839" />
  <sodipodi:namedview
     id="base"
     pagecolor="#ffffff"
     bordercolor="#666666"
     borderopacity="1.0"
     inkscape:pageopacity="0.0"
     inkscape:pageshadow="2"
     inkscape:zoom="0.11346555"
     inkscape:cx="4084.8141"
     inkscape:cy="-469.69814"
     inkscape:document-units="mm"
     inkscape:current-layer="layer1"
     showgrid="false"
     inkscape:window-width="1600"
     inkscape:window-height="838"
     inkscape:window-x="-8"
     inkscape:window-y="-8"
     inkscape:window-maximized="1"
     showguides="true"
     inkscape:guide-bbox="true" />
  <metadata
     id="metadata3842">
    <rdf:RDF>
      <cc:Work
         rdf:about="">
        <dc:format>image/svg+xml</dc:format>
        <dc:type
           rdf:resource="http://purl.org/dc/dcmitype/StillImage" />
        <dc:title></dc:title>
      </cc:Work>
    </rdf:RDF>
  </metadata>
  <g
     inkscape:label="Layer 1"
     inkscape:groupmode="layer"
     id="layer1"
     transform="translate(278.05848,834.49545)">
    <path
       d="m -180.55227,-833.71895 c 53.26454,0 96.717298,43.4466 96.717298,96.72356 0,53.2708 -43.452758,96.72355 -96.717298,96.72355 -53.27696,0 -96.72971,-43.45275 -96.72971,-96.72355 0,-53.27696 43.45275,-96.72356 96.72971,-96.72356 z"
       style="fill:#ffffff;fill-opacity:1;stroke:#000000;stroke-width:1.55299258;stroke-linecap:butt;stroke-linejoin:miter;stroke-miterlimit:22.9260006;stroke-dasharray:none;stroke-opacity:1"
       id="path6359"
       inkscape:connector-curvature="0" />
    <path
       d="m -180.55227,-828.55042 c 50.41949,0 91.548868,41.12312 91.548868,91.55503 0,50.42257 -41.129378,91.55513 -91.548868,91.55513 -50.43191,0 -91.56129,-41.13256 -91.56129,-91.55513 0,-50.43191 41.12938,-91.55503 91.56129,-91.55503"
       style="fill:#283996;fill-opacity:1;fill-rule:evenodd;stroke:none;stroke-width:3.10598516"
       id="path6351"
       inkscape:connector-curvature="0" />
    <path
       d="m -143.2028,-766.34688 c -14.13534,-17.83151 -34.28079,-21.65495 -54.42305,-15.51758 l 10.69698,10.82742 -44.43104,0.0616 21.10823,-38.13532 4.07817,13.39927 c 25.80146,-10.44235 59.24354,-4.11234 75.82325,19.59564 l -12.85254,9.76837"
       style="fill:#ffffff;fill-opacity:1;fill-rule:evenodd;stroke:none;stroke-width:3.10598516"
       id="path6353"
       inkscape:connector-curvature="0" />
    <path
       d="m -172.75925,-672.9842 -2.4103,-15.52056 c 20.04907,-2.88856 38.87446,-19.4341 41.38103,-40.15726 l -14.45832,3.9508 22.3941,-38.97073 21.58968,38.23148 -13.36509,-2.98791 c -2.0903,25.35101 -25.47828,52.20845 -55.1311,55.45418"
       style="fill:#ffffff;fill-opacity:1;fill-rule:evenodd;stroke:none;stroke-width:3.10598516"
       id="path6355"
       inkscape:connector-curvature="0" />
    <path
       d="m -224.91506,-753.45718 c -8.18733,21.22954 -1.26103,40.52396 14.25029,54.76798 l 4.24278,-14.31863 22.24508,38.27191 -43.66397,-0.006 9.46704,-9.56331 c -22.08969,-16.93071 -33.49185,-48.9535 -21.47791,-75.2673 l 14.93669,6.11561"
       style="fill:#ffffff;fill-opacity:1;fill-rule:evenodd;stroke:none;stroke-width:3.10598516"
       id="path6357"
       inkscape:connector-curvature="0" />
  </g>
</svg>
