<?xml version="1.0" encoding="UTF-8" standalone="no"?>
<!-- Created with Inkscape (http://www.inkscape.org/) -->

<svg
   xmlns:dc="http://purl.org/dc/elements/1.1/"
   xmlns:cc="http://creativecommons.org/ns#"
   xmlns:rdf="http://www.w3.org/1999/02/22-rdf-syntax-ns#"
   xmlns:svg="http://www.w3.org/2000/svg"
   xmlns="http://www.w3.org/2000/svg"
   xmlns:sodipodi="http://sodipodi.sourceforge.net/DTD/sodipodi-0.dtd"
   xmlns:inkscape="http://www.inkscape.org/namespaces/inkscape"
   width="194.99998mm"
   height="194.99692mm"
   viewBox="0 0 194.99999 194.99692"
   version="1.1"
   id="svg3845"
   inkscape:version="0.92.3 (2405546, 2018-03-11)"
   sodipodi:docname="Latvia_road_sign_416A.svg">
  <defs
     id="defs3839" />
  <sodipodi:namedview
     id="base"
     pagecolor="#ffffff"
     bordercolor="#666666"
     borderopacity="1.0"
     inkscape:pageopacity="0.0"
     inkscape:pageshadow="2"
     inkscape:zoom="0.24748738"
     inkscape:cx="340.55423"
     inkscape:cy="-1.3658801"
     inkscape:document-units="mm"
     inkscape:current-layer="layer1"
     showgrid="false"
     inkscape:window-width="1920"
     inkscape:window-height="1027"
     inkscape:window-x="-8"
     inkscape:window-y="-8"
     inkscape:window-maximized="1" />
  <metadata
     id="metadata3842">
    <rdf:RDF>
      <cc:Work
         rdf:about="">
        <dc:format>image/svg+xml</dc:format>
        <dc:type
           rdf:resource="http://purl.org/dc/dcmitype/StillImage" />
        <dc:title></dc:title>
      </cc:Work>
    </rdf:RDF>
  </metadata>
  <g
     inkscape:label="Layer 1"
     inkscape:groupmode="layer"
     id="layer1"
     transform="translate(-122.07562,539.93478)">
    <path
       d="m 219.58345,-539.1583 c 53.26056,0 96.71567,43.44587 96.71567,96.72202 0,53.2699 -43.45511,96.72193 -96.71567,96.72193 -53.27923,0 -96.73135,-43.45203 -96.73135,-96.72193 0,-53.27615 43.45212,-96.72202 96.73135,-96.72202 z"
       style="fill:#ffffff;fill-opacity:1;stroke:#000000;stroke-width:1.55296791;stroke-linecap:butt;stroke-linejoin:miter;stroke-miterlimit:22.9260006;stroke-dasharray:none;stroke-opacity:1"
       id="path5641"
       inkscape:connector-curvature="0" />
    <path
       d="m 221.72033,-435.4231 v 84.51567 c 49.43406,-1.14306 89.41054,-41.8215 89.41054,-91.52885 0,-49.7136 -39.9734,-90.38588 -89.41054,-91.53193 v 80.34739 l -4.28934,4.29558 v -84.64297 c -49.4434,1.1523 -89.41055,41.82141 -89.41055,91.53193 0,49.70427 39.96715,90.37963 89.41055,91.52885 v -80.22017 l 4.28934,-4.2955"
       style="fill:#283996;fill-opacity:1;fill-rule:evenodd;stroke:none;stroke-width:3.10593581"
       id="path5625"
       inkscape:connector-curvature="0" />
    <path
       d="m 264.26226,-454.81344 c -3.07796,0.13382 -5.72733,-2.30151 -6.00994,-5.32357 -0.11182,-2.93823 2.29526,-6.24299 6.03169,-5.93237 3.65886,0.18313 5.39813,3.314 5.26457,5.96028 -0.044,2.64629 -2.44123,5.15902 -5.28632,5.29566"
       style="fill:#ffffff;fill-opacity:1;fill-rule:evenodd;stroke:none;stroke-width:3.10593581"
       id="path5627"
       inkscape:connector-curvature="0" />
    <path
       d="m 243.96807,-391.02689 c -1.76727,-0.96283 -2.40399,-2.56855 -1.82626,-4.71476 l 7.85179,-18.37477 12.60387,-14.75008 -2.5748,-14.09161 -12.19702,14.31841 c -1.35101,1.35101 -3.05621,1.2517 -4.3669,0.19897 -1.01874,-0.79502 -1.32319,-2.73943 -0.41644,-3.98488 l 16.75339,-19.69162 9.3147,-1.59339 15.40854,10.20612 0.0176,12.49206 c -0.15495,1.56539 -1.43183,2.68353 -2.82642,2.76118 -1.70512,0.0176 -2.81392,-0.99074 -3.05621,-2.69594 v -9.03208 l -5.37322,-3.50972 -1.62755,15.9117 -15.66942,18.46485 -6.95736,16.21607 c -0.7017,1.55606 -2.63379,2.91023 -5.05645,1.86975"
       style="fill:#ffffff;fill-opacity:1;fill-rule:evenodd;stroke:none;stroke-width:3.10593581"
       id="path5629"
       inkscape:connector-curvature="0" />
    <path
       d="m 277.37862,-393.16377 -10.28369,-25.66432 5.50062,-6.40446 11.76219,29.5064 c 0.52209,1.79527 -0.12766,3.53146 -2.0903,4.69926 -1.13055,0.53089 -3.91973,0.48159 -4.88882,-2.13688"
       style="fill:#ffffff;fill-opacity:1;fill-rule:evenodd;stroke:none;stroke-width:3.10593581"
       id="path5631"
       inkscape:connector-curvature="0" />
    <path
       d="m 197.935,-445.5609 c -3.2426,-0.36978 -4.97571,-1.2517 -7.63124,-3.16494 -2.64312,-2.52515 -3.57188,-4.13711 -4.43214,-7.40454 l -8.25872,0.94417 c -1.71136,-0.15231 -2.51889,-0.69289 -3.46006,-2.05297 -0.58108,-0.88518 -0.59341,-1.84801 -0.43141,-2.88541 l -16.02977,-11.57897 -0.90692,1.85734 c 4.1092,3.04072 5.7864,7.44186 5.47579,12.29643 -0.27029,2.84816 -1.66171,5.41363 -3.5128,7.61574 -2.44133,2.70528 -6.01311,4.10603 -9.41727,4.2955 -3.16177,0.36009 -7.04109,-1.20196 -9.3581,-3.22702 -2.4879,-2.12763 -4.22726,-5.58135 -4.59686,-8.79296 -0.2518,-3.59661 0.52473,-6.75231 2.89166,-9.69363 2.15245,-2.80459 4.55645,-4.24267 8.86436,-5.0906 2.77668,-0.42525 5.72116,0.40675 7.71206,1.3915 l 5.05328,-10.10989 -4.02838,-2.09338 c -1.00632,-0.43493 -1.66479,-1.2517 -1.92874,-2.04056 -0.34513,-1.65863 0.16728,-2.44132 0.77653,-3.15253 0.55643,-0.64007 1.66788,-1.14305 2.76119,-0.96283 l 5.96028,1.01557 c 0.71755,0.27997 0.85401,0.68673 0.78886,1.3511 -0.20162,0.49743 -0.51857,0.7642 -1.21754,0.70786 l -5.96962,-1.02499 c -0.40675,-0.088 -0.87866,0.11797 -1.04048,0.59604 -0.18929,0.64888 0.22011,1.09639 0.51857,1.19888 l 6.39513,3.32342 -1.4939,3.10903 24.73257,-0.0528 0.69553,-1.91941 -6.32064,-1.97233 0.73603,-1.56222 c 0.37594,-0.41644 0.81087,-0.65855 1.5219,-0.66824 l 9.57566,-0.11445 c 0.94733,0.0528 1.13055,0.7237 0.55643,1.71444 -0.56524,1.0529 -1.57165,1.84185 -2.63696,2.58105 l -1.01874,0.009 -1.02807,2.1897 4.75517,7.8642 c 2.87299,-1.35726 5.78015,-1.75486 8.85195,-1.11814 3.57178,0.79238 6.90445,3.20535 8.2897,5.59694 1.96916,2.82017 2.51889,5.44162 2.32326,8.72455 -0.17432,3.34507 -2.11512,7.22756 -4.61235,9.029 -3.2861,2.65553 -5.78016,3.34816 -9.90485,3.26434 z m -0.28878,-2.53439 c -2.79226,-0.41644 -4.74284,-1.43808 -6.2709,-2.79534 -1.3511,-1.17721 -2.60279,-2.89791 -3.36374,-5.43855 l 11.17511,-1.04048 c 0.99391,-0.0616 1.63372,-0.77653 1.68654,-1.64305 0.0528,-0.8452 -0.50976,-1.78276 -1.68028,-1.89775 l -5.05337,-8.2183 c 1.83868,-0.85401 3.62462,-1.10881 5.50062,-0.99074 2.81084,0.23595 4.65893,1.27344 6.62492,2.88849 2.32634,2.23935 3.24885,4.77074 3.49114,7.70273 -0.0264,2.73327 -0.45694,4.62477 -2.06547,6.94486 -2.72394,3.1277 -5.32049,4.5937 -10.04457,4.48813 z m -53.34139,-0.99082 c -3.47247,-1.56231 -5.72732,-4.50363 -6.46653,-8.33946 -0.23595,-3.42273 0.22363,-6.14667 2.68036,-8.80845 1.6338,-2.04989 4.12161,-3.20844 6.57843,-3.6836 2.0903,-0.13383 4.37932,-0.11182 6.63425,1.18954 l -1.8915,3.88557 c -0.59604,1.14921 -1.4225,3.48797 -2.6307,3.85132 -0.46927,0.17432 -0.75452,-0.10213 -1.39459,0.18665 -0.90384,0.48159 -1.25478,1.32627 -1.01257,2.15554 0.22715,0.66119 0.65855,1.17404 1.6338,1.31685 1.13979,0 2.03122,-1.0684 1.77035,-2.22378 1.5374,-0.54322 2.97548,-3.18986 4.11536,-5.22733 l 1.36659,-2.72077 c 1.1523,0.98149 2.82017,3.03755 3.18361,4.49737 0.84169,2.21145 0.88518,3.65261 0.56523,5.86089 -0.50624,2.97548 -2.32634,5.52545 -4.37931,6.97286 -2.99722,1.82934 -6.20258,2.88233 -10.75278,1.08706 z m 43.78748,-12.99839 c 0.4904,-2.18653 2.18662,-4.64951 3.96631,-5.86089 l 4.06561,6.72749 z m -2.09338,-0.19281 -5.54103,-0.63039 6.51011,-13.47047 3.98488,6.62184 c -2.69286,2.14004 -4.11228,4.10295 -4.95396,7.4791 z m -10.89876,-0.0704 -16.24089,-11.72186 1.37275,-2.71452 24.44996,0.044 -6.48827,13.56054 c -1.13989,-0.19545 -2.28602,0.13999 -3.09355,0.82936"
       style="fill:#ffffff;fill-opacity:1;fill-rule:evenodd;stroke:none;stroke-width:3.10593581"
       id="path5633"
       inkscape:connector-curvature="0" />
    <path
       d="m 279.54658,-511.52165 c 3.23643,2.81401 6.27715,5.85472 9.09424,9.09107 l -128.96777,129.13241 c -3.23951,-2.81084 -6.28023,-5.84847 -9.1004,-9.08174 l 128.97393,-129.14174"
       style="fill:#ed1a3a;fill-opacity:1;fill-rule:evenodd;stroke:none;stroke-width:3.10593581"
       id="path5635"
       inkscape:connector-curvature="0" />
    <path
       d="m 181.65994,-413.51069 v -0.9101 l 0.70522,0.20514 3.66502,-3.6681 -7.2089,-12.30268 -10.59439,18.05791 7.73073,-2.29218 v 6.62184 l 5.7025,-5.71174"
       style="fill:#ffffff;fill-opacity:1;fill-rule:evenodd;stroke:none;stroke-width:3.10593581"
       id="path5637"
       inkscape:connector-curvature="0" />
    <path
       d="m 181.65994,-387.05126 v -8.36736 l -5.7025,5.71183 v 2.65553 z m 0,-8.36736 -5.7025,5.71183 5.7025,-5.71183"
       style="fill:#ffffff;fill-opacity:1;fill-rule:evenodd;stroke:none;stroke-width:3.10593581"
       id="path5639"
       inkscape:connector-curvature="0" />
  </g>
</svg>
