<?xml version="1.0" encoding="UTF-8" standalone="no"?>
<!-- Created with Inkscape (http://www.inkscape.org/) -->

<svg
   xmlns:dc="http://purl.org/dc/elements/1.1/"
   xmlns:cc="http://creativecommons.org/ns#"
   xmlns:rdf="http://www.w3.org/1999/02/22-rdf-syntax-ns#"
   xmlns:svg="http://www.w3.org/2000/svg"
   xmlns="http://www.w3.org/2000/svg"
   xmlns:sodipodi="http://sodipodi.sourceforge.net/DTD/sodipodi-0.dtd"
   xmlns:inkscape="http://www.inkscape.org/namespaces/inkscape"
   width="195mm"
   height="195.00319mm"
   viewBox="0 0 195 195.00319"
   version="1.1"
   id="svg3845"
   inkscape:version="0.92.3 (2405546, 2018-03-11)"
   sodipodi:docname="Latvia_road_sign_415.svg">
  <defs
     id="defs3839" />
  <sodipodi:namedview
     id="base"
     pagecolor="#ffffff"
     bordercolor="#666666"
     borderopacity="1.0"
     inkscape:pageopacity="0.0"
     inkscape:pageshadow="2"
     inkscape:zoom="0.49497475"
     inkscape:cx="-22.193457"
     inkscape:cy="221.96406"
     inkscape:document-units="mm"
     inkscape:current-layer="layer1"
     showgrid="false"
     inkscape:window-width="1920"
     inkscape:window-height="1027"
     inkscape:window-x="-8"
     inkscape:window-y="-8"
     inkscape:window-maximized="1" />
  <metadata
     id="metadata3842">
    <rdf:RDF>
      <cc:Work
         rdf:about="">
        <dc:format>image/svg+xml</dc:format>
        <dc:type
           rdf:resource="http://purl.org/dc/dcmitype/StillImage" />
        <dc:title></dc:title>
      </cc:Work>
    </rdf:RDF>
  </metadata>
  <g
     inkscape:label="Layer 1"
     inkscape:groupmode="layer"
     id="layer1"
     transform="translate(-218.05261,480.85167)">
    <path
       d="m 315.56044,-480.07516 c 53.26219,0 96.71566,43.44728 96.71566,96.72513 0,53.27157 -43.45347,96.72504 -96.71566,96.72504 -53.27785,0 -96.73132,-43.45347 -96.73132,-96.72504 0,-53.27785 43.45347,-96.72513 96.73132,-96.72513 z"
       style="fill:#ffffff;fill-opacity:1;stroke:#000000;stroke-width:1.55301738;stroke-linecap:butt;stroke-linejoin:miter;stroke-miterlimit:22.9260006;stroke-dasharray:none;stroke-opacity:1"
       id="path4463"
       inkscape:connector-curvature="0" />
    <path
       d="m 315.55726,-474.90662 c 50.42024,0 91.55349,41.12697 91.55349,91.55659 0,50.42643 -41.13325,91.55658 -91.55349,91.55658 -50.42962,0 -91.56278,-41.13015 -91.56278,-91.55658 0,-50.42962 41.13316,-91.55659 91.56278,-91.55659"
       style="fill:#283996;fill-opacity:1;fill-rule:evenodd;stroke:none;stroke-width:3.10603476"
       id="path4453"
       inkscape:connector-curvature="0" />
    <path
       d="m 316.75619,-455.43183 c -3.06571,0.13355 -5.69955,-2.28909 -5.98222,-5.2989 -0.11144,-2.92279 2.28299,-6.2151 6.00389,-5.90457 3.64343,0.18308 5.37656,3.29858 5.23992,5.93251 -0.0442,2.63712 -2.42883,5.13741 -5.26159,5.27096"
       style="fill:#ffffff;fill-opacity:1;fill-rule:evenodd;stroke:none;stroke-width:3.10603476"
       id="path4455"
       inkscape:connector-curvature="0" />
    <path
       d="m 296.55767,-391.94142 c -1.76108,-0.9566 -2.39478,-2.55619 -1.81698,-4.69006 l 7.81159,-18.29142 12.54834,-14.68222 -2.56247,-14.02686 -12.1415,14.25354 c -1.34487,1.34496 -3.04069,1.24564 -4.34523,0.19546 -1.01577,-0.78892 -1.31701,-2.72397 -0.41657,-3.96642 l 16.67627,-19.59905 9.27152,-1.58402 15.33758,10.15666 0.009,12.43655 c -0.15478,1.55607 -1.42261,2.67117 -2.8079,2.74882 -1.699,0.009 -2.80472,-0.98765 -3.04387,-2.68664 v -8.98886 l -5.34861,-3.4944 -1.62144,15.83774 -15.59849,18.38154 -6.92335,16.14198 c -0.6987,1.54997 -2.62137,2.89484 -5.03172,1.85739"
       style="fill:#ffffff;fill-opacity:1;fill-rule:evenodd;stroke:none;stroke-width:3.10603476"
       id="path4457"
       inkscape:connector-curvature="0" />
    <path
       d="m 329.81088,-394.06901 -10.41766,-26.10309 5.47288,-6.37359 11.89289,29.92668 c 0.52182,1.78903 -0.12736,3.51597 -2.0778,4.67759 -1.12756,0.53066 -3.90442,0.48202 -4.87031,-2.12759"
       style="fill:#ffffff;fill-opacity:1;fill-rule:evenodd;stroke:none;stroke-width:3.10603476"
       id="path4459"
       inkscape:connector-curvature="0" />
    <path
       d="m 349.81987,-315.27198 c -4.77701,-0.54658 -7.33019,-1.84502 -11.24682,-4.66521 -3.89504,-3.72108 -5.25857,-6.0972 -6.52889,-10.91152 l -12.17264,1.38838 c -2.51895,-0.2273 -3.7086,-1.02188 -5.09699,-3.02529 -0.8579,-1.30145 -0.87293,-2.72397 -0.63679,-4.25219 l -23.62128,-17.06762 -1.33877,2.73953 c 6.05678,4.48505 8.52922,10.96742 8.06949,18.12373 -0.39446,4.19929 -2.45059,7.97936 -5.17465,11.22205 -3.59991,3.99127 -8.86149,6.05368 -13.87774,6.33325 -4.6622,0.53066 -10.38033,-1.77054 -13.79398,-4.75542 -3.665,-3.137 -6.22756,-8.2278 -6.77414,-12.96147 -0.3697,-5.2989 0.77653,-9.95173 4.26146,-14.28157 3.17433,-4.1403 6.71516,-6.25551 13.06088,-7.50725 4.09369,-0.62441 8.4329,0.59965 11.36798,2.05304 l 7.44826,-14.89953 -5.93871,-3.08747 c -1.47842,-0.63679 -2.45059,-1.84493 -2.84195,-3.00663 -0.50678,-2.44449 0.24587,-3.59991 1.14614,-4.64664 0.81987,-0.94422 2.45996,-1.68343 4.06893,-1.41943 l 8.78384,1.49709 c 1.0561,0.41037 1.26102,1.01258 1.16161,1.99094 -0.2954,0.7332 -0.7668,1.12748 -1.79531,1.04373 l -8.79313,-1.51274 c -0.59964,-0.12382 -1.29525,0.17689 -1.5375,0.87913 -0.27859,0.95978 0.32547,1.61515 0.76681,1.77046 l 9.42682,4.89817 -2.20843,4.57836 36.45238,-0.0708 1.02188,-2.82656 -9.31495,-2.90722 1.09024,-2.30466 c 0.55277,-0.61203 1.18957,-0.96907 2.24248,-0.98146 l 14.1107,-0.17069 c 1.39467,0.0796 1.66177,1.06539 0.81987,2.52515 -0.83579,1.54997 -2.31704,2.71477 -3.88558,3.80501 l -1.50327,0.0177 -1.51274,3.22721 7.00419,11.58855 c 4.2367,-2.00032 8.51674,-2.58422 13.04531,-1.64929 5.26477,1.17099 10.17231,4.72739 12.21606,8.24965 2.90103,4.15896 3.7148,8.02287 3.42285,12.86214 -0.25472,4.92612 -3.11542,10.65053 -6.79599,13.30622 -4.83927,3.91043 -8.51993,4.9324 -14.59838,4.81123 z m -0.42276,-3.73655 c -4.11554,-0.61469 -6.99163,-2.1184 -9.24349,-4.11855 -1.99094,-1.73632 -3.83596,-4.27084 -4.95415,-8.01668 l 16.46824,-1.53449 c 1.46286,-0.0893 2.40717,-1.14605 2.48482,-2.42265 0.0796,-1.23926 -0.75442,-2.62464 -2.47562,-2.79233 l -7.45135,-12.11347 c 2.71477,-1.25802 5.34242,-1.63381 8.1099,-1.46303 4.14039,0.35112 6.86436,1.87916 9.76221,4.25846 3.42912,3.29858 4.78956,7.03204 5.14678,11.3525 -0.0354,4.02851 -0.67305,6.81457 -3.04705,10.23741 -4.01613,4.60631 -7.83962,6.76813 -14.80029,6.61283 z m -78.6106,-1.45985 c -5.11875,-2.30165 -8.43909,-6.63759 -9.52933,-12.29062 -0.34758,-5.04419 0.32547,-9.05714 3.94776,-12.98323 2.40716,-3.01901 6.07853,-4.72738 9.69392,-5.42936 3.08438,-0.19546 6.45433,-0.1645 9.78096,1.75808 l -2.78924,5.72131 c -0.87648,1.69591 -2.09655,5.14051 -3.8763,5.6809 -0.68897,0.25472 -1.112,-0.15478 -2.05312,0.27329 -1.33559,0.70755 -1.85121,1.95371 -1.49408,3.17441 0.33255,0.97526 0.96916,1.73313 2.40725,1.94115 1.68034,0 2.99417,-1.57464 2.60908,-3.27682 2.26743,-0.8013 4.38573,-4.69944 6.06297,-7.70608 l 2.01589,-4.00675 c 1.69582,1.44738 4.15269,4.47267 4.69007,6.62512 1.24546,3.26135 1.30454,5.38284 0.83579,8.64101 -0.74823,4.38573 -3.43214,8.13785 -6.45434,10.27791 -4.41677,2.69293 -9.14106,4.24591 -15.84693,1.59959 z m 64.52785,-19.15799 c 0.727,-3.22102 3.22102,-6.85197 5.84867,-8.63481 l 5.9916,9.91132 z m -3.08119,-0.28655 -8.16572,-0.92866 9.59142,-19.84758 5.87353,9.75301 c -3.96642,3.15575 -6.05996,6.0474 -7.29923,11.02323 z m -16.06433,-0.10171 -23.93198,-17.27574 2.0219,-4.00056 36.03007,0.0619 -9.56038,19.98731 c -1.68042,-0.28655 -3.36686,0.21138 -4.55961,1.2238"
       style="fill:#ffffff;fill-opacity:1;fill-rule:evenodd;stroke:none;stroke-width:3.10603476"
       id="path4461"
       inkscape:connector-curvature="0" />
  </g>
</svg>
