<?xml version="1.0" encoding="UTF-8" standalone="no"?>
<!-- Created with Inkscape (http://www.inkscape.org/) -->

<svg
   xmlns:dc="http://purl.org/dc/elements/1.1/"
   xmlns:cc="http://creativecommons.org/ns#"
   xmlns:rdf="http://www.w3.org/1999/02/22-rdf-syntax-ns#"
   xmlns:svg="http://www.w3.org/2000/svg"
   xmlns="http://www.w3.org/2000/svg"
   xmlns:sodipodi="http://sodipodi.sourceforge.net/DTD/sodipodi-0.dtd"
   xmlns:inkscape="http://www.inkscape.org/namespaces/inkscape"
   width="195mm"
   height="195mm"
   viewBox="0 0 195.00001 195"
   version="1.1"
   id="svg3845"
   inkscape:version="0.92.3 (2405546, 2018-03-11)"
   sodipodi:docname="Latvia_road_sign_417.svg">
  <defs
     id="defs3839" />
  <sodipodi:namedview
     id="base"
     pagecolor="#ffffff"
     bordercolor="#666666"
     borderopacity="1.0"
     inkscape:pageopacity="0.0"
     inkscape:pageshadow="2"
     inkscape:zoom="0.24748738"
     inkscape:cx="-526.72838"
     inkscape:cy="8.164004"
     inkscape:document-units="mm"
     inkscape:current-layer="layer1"
     showgrid="false"
     inkscape:window-width="1920"
     inkscape:window-height="1027"
     inkscape:window-x="-8"
     inkscape:window-y="-8"
     inkscape:window-maximized="1" />
  <metadata
     id="metadata3842">
    <rdf:RDF>
      <cc:Work
         rdf:about="">
        <dc:format>image/svg+xml</dc:format>
        <dc:type
           rdf:resource="http://purl.org/dc/dcmitype/StillImage" />
        <dc:title></dc:title>
      </cc:Work>
    </rdf:RDF>
  </metadata>
  <g
     inkscape:label="Layer 1"
     inkscape:groupmode="layer"
     id="layer1"
     transform="translate(-351.54414,537.41642)">
    <path
       d="m 449.05035,-536.63992 c 53.2615,0 96.7173,43.44656 96.7173,96.72355 0,53.27073 -43.4558,96.72346 -96.7173,96.72346 -53.2769,0 -96.72971,-43.45273 -96.72971,-96.72346 0,-53.27699 43.45281,-96.72355 96.72971,-96.72355 z"
       style="fill:#ffffff;stroke:#000000;stroke-width:1.55299246;stroke-linecap:butt;stroke-linejoin:miter;stroke-miterlimit:22.9260006;stroke-dasharray:none;stroke-opacity:1"
       id="path5595"
       inkscape:connector-curvature="0" />
    <path
       d="m 449.05035,-531.53057 c 50.41636,0 91.54896,41.12326 91.54896,91.55512 0,50.42569 -41.1326,91.55512 -91.54896,91.55512 -50.43185,0 -91.56128,-41.12943 -91.56128,-91.55512 0,-50.43186 41.12943,-91.55512 91.56128,-91.55512"
       style="fill:#283996;fill-opacity:1;fill-rule:evenodd;stroke:none;stroke-width:3.10598493"
       id="path5583"
       inkscape:connector-curvature="0" />
    <path
       d="m 404.61929,-473.46418 c -3.06251,0.13382 -5.69643,-2.28905 -5.97905,-5.29874 -0.11533,-2.92278 2.28289,-6.21201 6.0008,-5.90139 3.64324,0.18313 5.37638,3.29539 5.24282,5.9293 -0.044,2.637 -2.43194,5.13726 -5.26457,5.27083"
       style="fill:#ffffff;fill-opacity:1;fill-rule:evenodd;stroke:none;stroke-width:3.10598493"
       id="path5585"
       inkscape:connector-curvature="0" />
    <path
       d="m 384.42418,-409.97158 c -1.76422,-0.95976 -2.39787,-2.55934 -1.82012,-4.69316 l 7.81466,-18.28808 12.54816,-14.68199 -2.56559,-14.02967 -12.13814,14.2533 c -1.34804,1.34496 -3.04384,1.24555 -4.34839,0.19898 -1.01567,-0.78887 -1.31696,-2.72707 -0.41644,-3.96637 l 16.676,-19.60187 9.27135,-1.58399 15.33738,10.15962 0.0176,12.43327 c -0.15496,1.55925 -1.42252,2.67115 -2.81088,2.74881 -1.69898,0.009 -2.80472,-0.98767 -3.04385,-2.68357 v -8.99181 l -5.34856,-3.49428 -1.61816,15.83747 -15.59826,18.38123 -6.92639,16.14175 c -0.69907,1.54992 -2.62141,2.89479 -5.02862,1.86054"
       style="fill:#ffffff;fill-opacity:1;fill-rule:evenodd;stroke:none;stroke-width:3.10598493"
       id="path5587"
       inkscape:connector-curvature="0" />
    <path
       d="m 417.67678,-412.10232 -10.42058,-26.09958 5.47279,-6.37656 11.89285,29.92921 c 0.5221,1.78905 -0.12766,3.51294 -2.07792,4.67767 -1.12748,0.52827 -3.9042,0.47808 -4.86714,-2.13074"
       style="fill:#ffffff;fill-opacity:1;fill-rule:evenodd;stroke:none;stroke-width:3.10598493"
       id="path5589"
       inkscape:connector-curvature="0" />
    <path
       d="m 446.9756,-348.30226 h 4.27012 V -531.4405 h -4.27012 z"
       style="fill:#ffffff;fill-opacity:1;fill-rule:nonzero;stroke:none;stroke-width:3.10598493"
       id="path5591"
       inkscape:connector-curvature="0" />
    <path
       d="m 519.63074,-420.4729 c -3.22398,-0.36978 -4.95087,-1.24555 -7.59412,-3.1495 -2.63383,-2.51276 -3.55318,-4.1185 -4.41046,-7.37048 l -8.22152,0.93801 c -1.70215,-0.15231 -2.5066,-0.68938 -3.44453,-2.04067 -0.57757,-0.87868 -0.58725,-1.84188 -0.42877,-2.87304 l -15.95545,-11.52633 -0.90386,1.84813 c 4.0906,3.03143 5.76167,7.41081 5.45105,12.24062 -0.26677,2.8358 -1.65549,5.39206 -3.49428,7.5817 -2.43194,2.69291 -5.98829,4.08752 -9.37383,4.27699 -3.1495,0.35746 -7.01022,-1.19581 -9.31793,-3.21474 -2.47235,-2.11824 -4.20549,-5.55344 -4.5751,-8.7526 -0.24828,-3.57809 0.52474,-6.72134 2.8792,-9.64721 2.14316,-2.79538 4.53478,-4.22107 8.82101,-5.06585 2.76431,-0.42525 5.69634,0.40412 7.67803,1.38211 l 5.03169,-10.06023 -4.00986,-2.08417 c -1.00009,-0.43141 -1.65548,-1.24546 -1.92261,-2.03125 -0.34161,-1.6524 0.16728,-2.43203 0.77655,-3.14017 0.55291,-0.63655 1.65856,-1.13682 2.74564,-0.95668 l 5.93555,1.00951 c 0.71139,0.2791 0.85138,0.68674 0.78271,1.34487 -0.19898,0.49656 -0.51594,0.76069 -1.21131,0.70523 l -5.93872,-1.02193 c -0.40676,-0.088 -0.87603,0.1215 -1.03733,0.59606 -0.18929,0.64624 0.22011,1.09016 0.51594,1.19581 l 6.36723,3.30472 -1.49085,3.09359 24.61807,-0.044 0.69291,-1.9102 -6.28967,-1.96302 0.73341,-1.55608 c 0.37594,-0.41645 0.80472,-0.65505 1.51567,-0.66473 l 9.53231,-0.11534 c 0.9411,0.0528 1.12124,0.7202 0.55291,1.70514 -0.56524,1.04675 -1.56541,1.83254 -2.62458,2.57176 l -1.01558,0.009 -1.02192,2.17732 4.73041,7.82708 c 2.86062,-1.35112 5.75233,-1.74555 8.80859,-1.1119 3.55943,0.78887 6.87357,3.1929 8.2526,5.56903 1.95985,2.81088 2.50959,5.4168 2.31396,8.68744 -0.17432,3.32647 -2.10583,7.19343 -4.59377,8.98873 -3.26747,2.64008 -5.75224,3.32955 -9.85842,3.24573 z m -0.28526,-2.5221 c -2.77989,-0.41644 -4.72108,-1.43185 -6.23992,-2.78297 -1.34487,-1.17098 -2.5935,-2.88237 -3.3483,-5.41372 l 11.12256,-1.03433 c 0.98767,-0.0616 1.6244,-0.77303 1.68031,-1.63682 0.0528,-0.83818 -0.50977,-1.77355 -1.67406,-1.88537 l -5.0317,-8.18111 c 1.83254,-0.85138 3.60909,-1.10574 5.47579,-0.98776 2.79856,0.23596 4.63726,1.2673 6.59403,2.87304 2.31705,2.23015 3.23649,4.75216 3.47869,7.66869 -0.0264,2.72091 -0.45694,4.6031 -2.05925,6.91399 -2.71148,3.11216 -5.29574,4.57193 -9.99815,4.46636 z m -53.09368,-0.98767 c -3.45704,-1.553 -5.69951,-4.48195 -6.43564,-8.29926 -0.23596,-3.4072 0.22011,-6.11877 2.6649,-8.76818 1.62758,-2.04059 4.10618,-3.19291 6.55054,-3.665 2.081,-0.13382 4.35772,-0.11533 6.60336,1.18331 l -1.88228,3.86697 c -0.59342,1.14615 -1.41627,3.46936 -2.61833,3.83588 -0.46575,0.17081 -0.7519,-0.10565 -1.38836,0.18313 -0.90069,0.47808 -1.24864,1.32004 -1.00942,2.14625 0.22627,0.65856 0.65504,1.16781 1.62748,1.3107 1.13374,0 2.02201,-1.06533 1.76114,-2.21456 1.53126,-0.54059 2.96311,-3.17433 4.09676,-5.2025 l 1.36045,-2.70849 c 1.14607,0.97843 2.80472,3.02219 3.16808,4.47579 0.8417,2.20215 0.88211,3.634 0.56524,5.83615 -0.50625,2.96311 -2.32022,5.49754 -4.36081,6.9418 -2.98485,1.81705 -6.17467,2.86688 -10.7032,1.07783 z m 43.58311,-12.93643 c 0.49041,-2.17424 2.17424,-4.63101 3.95087,-5.83307 l 4.04711,6.69343 z m -2.081,-0.19282 -5.5162,-0.62775 6.47905,-13.40544 3.96637,6.58787 c -2.67732,2.13065 -4.09368,4.08434 -4.92922,7.44497 z m -10.84918,-0.0704 -16.16359,-11.66605 1.36671,-2.70224 24.33227,0.044 -6.45738,13.50167 c -1.13673,-0.19545 -2.27355,0.13999 -3.07801,0.82321"
       style="fill:#ffffff;fill-opacity:1;fill-rule:evenodd;stroke:none;stroke-width:3.10598493"
       id="path5593"
       inkscape:connector-curvature="0" />
  </g>
</svg>
