<?xml version="1.0" encoding="UTF-8" standalone="no"?>
<svg
   xmlns:dc="http://purl.org/dc/elements/1.1/"
   xmlns:cc="http://creativecommons.org/ns#"
   xmlns:rdf="http://www.w3.org/1999/02/22-rdf-syntax-ns#"
   xmlns:svg="http://www.w3.org/2000/svg"
   xmlns="http://www.w3.org/2000/svg"
   xmlns:sodipodi="http://sodipodi.sourceforge.net/DTD/sodipodi-0.dtd"
   xmlns:inkscape="http://www.inkscape.org/namespaces/inkscape"
   width="158.75mm"
   height="158.73615mm"
   viewBox="0 0 158.74999 158.73614"
   version="1.1"
   id="svg6774"
   inkscape:version="1.0 (4035a4fb49, 2020-05-01)"
   sodipodi:docname="Latvia_road_sign_621.svg">
  <defs
     id="defs6768" />
  <sodipodi:namedview
     id="base"
     pagecolor="#ffffff"
     bordercolor="#666666"
     borderopacity="1.0"
     inkscape:pageopacity="0.0"
     inkscape:pageshadow="2"
     inkscape:zoom="0.81967018"
     inkscape:cx="532.83118"
     inkscape:cy="360.28938"
     inkscape:document-units="mm"
     inkscape:current-layer="g2362"
     inkscape:document-rotation="0"
     showgrid="false"
     fit-margin-top="0"
     fit-margin-left="0"
     fit-margin-right="0"
     fit-margin-bottom="0"
     inkscape:window-width="1920"
     inkscape:window-height="1001"
     inkscape:window-x="-9"
     inkscape:window-y="-9"
     inkscape:window-maximized="1" />
  <metadata
     id="metadata6771">
    <rdf:RDF>
      <cc:Work
         rdf:about="">
        <dc:format>image/svg+xml</dc:format>
        <dc:type
           rdf:resource="http://purl.org/dc/dcmitype/StillImage" />
        <dc:title></dc:title>
      </cc:Work>
    </rdf:RDF>
  </metadata>
  <g
     inkscape:label="Layer 1"
     inkscape:groupmode="layer"
     id="layer1"
     transform="translate(462.30128,292.1424)">
    <g
       id="g3362"
       style="opacity:1;stroke-width:0.141412"
       transform="matrix(7.0715152,0,0,7.0715152,2714.867,1607.4986)">
      <path
         style="color:#000000;font-style:normal;font-variant:normal;font-weight:normal;font-stretch:normal;font-size:medium;line-height:normal;font-family:sans-serif;font-variant-ligatures:normal;font-variant-position:normal;font-variant-caps:normal;font-variant-numeric:normal;font-variant-alternates:normal;font-variant-east-asian:normal;font-feature-settings:normal;font-variation-settings:normal;text-indent:0;text-align:start;text-decoration:none;text-decoration-line:none;text-decoration-style:solid;text-decoration-color:#000000;letter-spacing:normal;word-spacing:normal;text-transform:none;writing-mode:lr-tb;direction:ltr;text-orientation:mixed;dominant-baseline:auto;baseline-shift:baseline;text-anchor:start;white-space:normal;shape-padding:0;shape-margin:0;inline-size:0;clip-rule:nonzero;display:inline;overflow:visible;visibility:visible;isolation:auto;mix-blend-mode:normal;color-interpolation:sRGB;color-interpolation-filters:linearRGB;solid-color:#000000;solid-opacity:1;vector-effect:none;fill:#ffffff;fill-opacity:1;fill-rule:nonzero;stroke:none;stroke-width:0.0249436;stroke-linecap:butt;stroke-linejoin:miter;stroke-miterlimit:22.926;stroke-dasharray:none;stroke-dashoffset:0;stroke-opacity:1;color-rendering:auto;image-rendering:auto;shape-rendering:auto;text-rendering:auto;enable-background:accumulate;stop-color:#000000;stop-opacity:1"
         d="m -447.58847,-268.54514 h 19.04586 c 0.88746,0 1.61231,0.72623 1.61231,1.61231 v 19.04724 c 0,0.88608 -0.72485,1.61231 -1.61231,1.61231 h -19.04586 c -0.88746,0 -1.61369,-0.72623 -1.61369,-1.61231 v -19.04724 c 0,-0.88608 0.72623,-1.61231 1.61369,-1.61231 z m 0,0"
         id="path3364" />
      <path
         style="color:#000000;font-style:normal;font-variant:normal;font-weight:normal;font-stretch:normal;font-size:medium;line-height:normal;font-family:sans-serif;font-variant-ligatures:normal;font-variant-position:normal;font-variant-caps:normal;font-variant-numeric:normal;font-variant-alternates:normal;font-variant-east-asian:normal;font-feature-settings:normal;font-variation-settings:normal;text-indent:0;text-align:start;text-decoration:none;text-decoration-line:none;text-decoration-style:solid;text-decoration-color:#000000;letter-spacing:normal;word-spacing:normal;text-transform:none;writing-mode:lr-tb;direction:ltr;text-orientation:mixed;dominant-baseline:auto;baseline-shift:baseline;text-anchor:start;white-space:normal;shape-padding:0;shape-margin:0;inline-size:0;clip-rule:nonzero;display:inline;overflow:visible;visibility:visible;isolation:auto;mix-blend-mode:normal;color-interpolation:sRGB;color-interpolation-filters:linearRGB;solid-color:#000000;solid-opacity:1;vector-effect:none;fill:#000000;fill-opacity:1;fill-rule:nonzero;stroke:none;stroke-width:0.0249436;stroke-linecap:butt;stroke-linejoin:miter;stroke-miterlimit:22.926;stroke-dasharray:none;stroke-dashoffset:0;stroke-opacity:1;color-rendering:auto;image-rendering:auto;shape-rendering:auto;text-rendering:auto;enable-background:accumulate;stop-color:#000000;stop-opacity:1"
         d="m -447.58789,-268.63281 c -0.93558,0 -1.70313,0.76495 -1.70313,1.69922 v 19.04882 c 0,0.93427 0.76755,1.69922 1.70313,1.69922 h 19.04492 c 0.93558,0 1.70117,-0.76504 1.70117,-1.69922 v -19.04882 c 0,-0.93418 -0.76559,-1.69922 -1.70117,-1.69922 z m 0,0.17578 h 19.04492 c 0.83935,0 1.52539,0.68545 1.52539,1.52344 v 19.04882 c 0,0.83799 -0.68604,1.52344 -1.52539,1.52344 h -19.04492 c -0.83935,0 -1.52539,-0.68555 -1.52539,-1.52344 v -19.04882 c 0,-0.83789 0.68604,-1.52344 1.52539,-1.52344 z"
         id="path3366" />
    </g>
    <path
       transform="matrix(0.26458333,0,0,0.26458333,-462.30128,-292.1424)"
       d="M 42.447266,21.865234 C 32.613351,22.079156 22.080078,29.119099 22.080078,43.298828 V 557.49414 c 0,8.80252 7.438867,20.58789 21.802734,20.58789 H 557.19531 c 12.89069,0 20.771,-11.82103 20.73438,-21.21289 l 0.0273,-513.607421 C 578.14404,28.940422 567.32077,22.275242 557.45312,21.865234 Z M 92.669922,92.632812 H 507.47852 V 508.33203 H 92.669922 Z"
       style="fill:#263894;fill-opacity:1;fill-rule:evenodd;stroke:none;stroke-width:1.33333"
       id="path1968" />
    <g
       id="g2362"
       style="opacity:1"
       inkscape:groupmode="layer">
      <path
         id="path3786"
         style="fill:#000000;fill-opacity:1;fill-rule:evenodd;stroke:none;stroke-width:0.352777"
         d="m -403.74507,-242.67164 c -4.21894,0 -7.65297,3.42424 -7.65297,7.65298 v 6.50504 c 0,3.69896 2.65769,6.87662 6.31739,7.5242 4.16007,0.73587 8.13497,-2.04201 8.87082,-6.19229 h -3.34817 c -0.57888,1.81515 -2.27381,3.06119 -4.18707,3.06119 -2.43324,0 -4.39677,-1.96963 -4.39677,-4.3931 v -6.50504 c 0,-1.92307 1.23625,-3.61307 3.06119,-4.20176 2.30571,-0.73586 4.78678,0.53963 5.52265,2.85514 h 3.34817 c -0.64754,-3.64986 -3.82649,-6.30636 -7.53524,-6.30636 z m 27.79356,0.19501 v 17.96611 c 0,1.91325 1.54042,3.44383 3.44386,3.44383 h 1.91323 v -2.86618 h -1.33191 c -0.52982,0 -0.96398,-0.43294 -0.96398,-0.95295 v -17.59081 z m -10.51548,5.92737 c -3.48309,0 -6.31003,2.82327 -6.31003,6.30636 v 3.06119 c 0,2.58045 1.57845,4.89595 3.96263,5.85748 2.92385,1.16759 6.24994,0.34338 8.30054,-2.03099 l -2.32533,-2.00155 c -1.1872,1.39317 -3.12741,1.87645 -4.83463,1.19946 -1.23625,-0.5004 -2.04202,-1.69984 -2.04202,-3.0244 v -0.38264 h 9.56621 v -2.67855 c 3e-5,-3.48309 -2.83428,-6.30636 -6.31737,-6.30636 z m 18.93376,0.18405 v 10.33153 c 0,1.55023 0.70643,3.03299 1.91325,4.01414 2.22721,1.79546 5.47483,1.45087 7.27032,-0.77634 v 1.72926 h 3.06119 v -15.29859 h -3.06119 v 9.37122 c 0,1.68759 -1.3736,3.06119 -3.06119,3.06119 -1.69739,0 -3.06119,-1.3736 -3.06119,-3.06119 v -9.37122 z m -18.93376,2.86618 c 1.7955,0 3.25621,1.46071 3.25619,3.25621 h -6.50503 c 0,-1.7955 1.45333,-3.25621 3.24884,-3.25621 z m 15.05944,14.37509 -2.81467,0.0188 -0.0294,4.72793 2.82571,-1.47173 z m -24.00753,9.83114 v 17.75639 c 0,1.87398 1.51955,3.40704 3.40336,3.40704 h 1.88381 v -2.84779 h -1.32456 c -0.51997,0 -0.94191,-0.4219 -0.94191,-0.94191 v -17.37373 z m 9.06583,0 v 3.00968 h 3.02071 v -3.00968 z m 21.86984,0 v 3.00968 h 3.02073 v -3.00968 z m 7.92527,0 v 3.00968 h 3.02438 v -3.00968 z m 12.85921,5.73237 c -0.71502,0 -1.43372,0.0612 -2.14504,0.18405 -1.2657,0.22566 -2.37193,0.94925 -3.098,2.00891 l 2.39157,1.88381 c 0.24529,-0.48078 0.69906,-0.82431 1.22888,-0.91248 1.06946,-0.18631 2.16835,-0.18631 3.2378,0 0.81435,0.14713 1.40182,0.85362 1.40182,1.67778 v 1.51219 h -4.53292 c -2.50192,0 -4.53291,2.031 -4.53291,4.53292 0,2.50194 2.03099,4.54396 4.53291,4.54396 h 1.88381 c 1.10872,0 2.11929,-0.6083 2.64911,-1.56004 v 1.56004 h 3.02073 v -10.58907 c 0,-2.29589 -1.64711,-4.25577 -3.90376,-4.65802 -0.70643,-0.12264 -1.419,-0.18405 -2.134,-0.18405 z m -62.11055,0.11416 c -3.44384,0 -6.23276,2.79627 -6.23276,6.24012 v 3.02073 c 0,3.44385 2.78892,6.24012 6.23276,6.24012 3.43403,0 6.22908,-2.79627 6.22908,-6.24012 v -3.02073 c 0,-3.44385 -2.79505,-6.24012 -6.22908,-6.24012 z m 33.06235,0 c -3.75781,0 -6.80675,3.05262 -6.80675,6.81041 v 1.88381 c 0,2.02117 0.91129,3.94423 2.46146,5.23934 2.8846,2.39401 7.18327,2.00033 9.57727,-0.89407 l -2.32534,-1.92428 c -0.71622,0.86341 -1.77832,1.35399 -2.90664,1.35399 -2.08986,0 -3.77499,-1.68512 -3.77499,-3.77498 v -1.88381 c 0,-1.12833 0.49793,-2.18794 1.36136,-2.91401 1.59927,-1.33436 3.98591,-1.10992 5.32027,0.48936 l 2.32534,-1.9243 c -1.28531,-1.56002 -3.2108,-2.46146 -5.23198,-2.46146 z m -47.73914,0.022 c -1.63222,-0.13978 -3.30401,0.50652 -4.40783,1.88014 v -1.7072 h -3.03175 v 21.16342 h 3.03175 v -7.75968 c 0.96156,1.20683 2.42222,1.90221 3.96263,1.90221 2.81591,0 5.10321,-2.28364 5.10321,-5.09954 v -5.29822 c 0,-1.53058 -0.69784,-2.99496 -1.89483,-3.96629 -0.8205,-0.66596 -1.78384,-1.03095 -2.76318,-1.11484 z m 34.13302,0.17294 v 15.12198 h 3.02071 v -15.12199 z m 21.86984,0 v 15.12198 h 3.02073 v -15.12199 z m 7.92527,0 v 16.81801 c 0,0.83398 -0.67455,1.51219 -1.50854,1.51219 h -1.12955 v 2.83308 h 1.51221 c 2.29589,0 4.15026,-1.86173 4.15026,-4.15762 v -17.00579 z m -65.31523,2.83674 c 1.66794,0 3.0244,1.35278 3.0244,3.02073 v 3.39602 c 0,1.67774 -1.35646,3.02071 -3.0244,3.02071 -1.66795,0 -3.02071,-1.34297 -3.02073,-3.02071 v -3.39602 c 0,-1.66795 1.35278,-3.02073 3.02073,-3.02073 z m 16.06389,0 c 1.76607,0 3.20837,1.43249 3.20837,3.20837 v 3.02073 c 0,1.77587 -1.4423,3.20836 -3.20837,3.20836 -1.77587,0 -3.20836,-1.43249 -3.20836,-3.20836 v -3.02073 c 0,-1.77588 1.43249,-3.20835 3.20836,-3.20837 z m 60.78231,5.66247 h 4.34527 v 1.89117 c 0,1.04002 -0.84379,1.88382 -1.88381,1.88382 h -2.46146 c -1.04002,0 -1.88381,-0.8438 -1.88381,-1.88382 0,-1.04003 0.84379,-1.89117 1.88381,-1.89117 z" />
    </g>
  </g>
</svg>
