<?xml version="1.0" encoding="UTF-8" standalone="no"?>
<svg
   xmlns:dc="http://purl.org/dc/elements/1.1/"
   xmlns:cc="http://creativecommons.org/ns#"
   xmlns:rdf="http://www.w3.org/1999/02/22-rdf-syntax-ns#"
   xmlns:svg="http://www.w3.org/2000/svg"
   xmlns="http://www.w3.org/2000/svg"
   xmlns:sodipodi="http://sodipodi.sourceforge.net/DTD/sodipodi-0.dtd"
   xmlns:inkscape="http://www.inkscape.org/namespaces/inkscape"
   width="158.75mm"
   height="158.73615mm"
   viewBox="0 0 158.74999 158.73614"
   version="1.1"
   id="svg6774"
   inkscape:version="1.0 (4035a4fb49, 2020-05-01)"
   sodipodi:docname="Latvia_road_sign_633.svg">
  <defs
     id="defs6768" />
  <sodipodi:namedview
     id="base"
     pagecolor="#ffffff"
     bordercolor="#666666"
     borderopacity="1.0"
     inkscape:pageopacity="0.0"
     inkscape:pageshadow="2"
     inkscape:zoom="0.81967018"
     inkscape:cx="349.55438"
     inkscape:cy="476.43043"
     inkscape:document-units="mm"
     inkscape:current-layer="g2362"
     inkscape:document-rotation="0"
     showgrid="false"
     fit-margin-top="0"
     fit-margin-left="0"
     fit-margin-right="0"
     fit-margin-bottom="0"
     inkscape:window-width="1920"
     inkscape:window-height="1001"
     inkscape:window-x="-9"
     inkscape:window-y="-9"
     inkscape:window-maximized="1" />
  <metadata
     id="metadata6771">
    <rdf:RDF>
      <cc:Work
         rdf:about="">
        <dc:format>image/svg+xml</dc:format>
        <dc:type
           rdf:resource="http://purl.org/dc/dcmitype/StillImage" />
        <dc:title></dc:title>
      </cc:Work>
    </rdf:RDF>
  </metadata>
  <g
     inkscape:label="Layer 1"
     inkscape:groupmode="layer"
     id="layer1"
     transform="translate(462.30128,292.1424)">
    <g
       id="g3362"
       style="opacity:1;stroke-width:0.141412"
       transform="matrix(7.0715152,0,0,7.0715152,2714.867,1607.4986)">
      <path
         style="color:#000000;font-style:normal;font-variant:normal;font-weight:normal;font-stretch:normal;font-size:medium;line-height:normal;font-family:sans-serif;font-variant-ligatures:normal;font-variant-position:normal;font-variant-caps:normal;font-variant-numeric:normal;font-variant-alternates:normal;font-variant-east-asian:normal;font-feature-settings:normal;font-variation-settings:normal;text-indent:0;text-align:start;text-decoration:none;text-decoration-line:none;text-decoration-style:solid;text-decoration-color:#000000;letter-spacing:normal;word-spacing:normal;text-transform:none;writing-mode:lr-tb;direction:ltr;text-orientation:mixed;dominant-baseline:auto;baseline-shift:baseline;text-anchor:start;white-space:normal;shape-padding:0;shape-margin:0;inline-size:0;clip-rule:nonzero;display:inline;overflow:visible;visibility:visible;isolation:auto;mix-blend-mode:normal;color-interpolation:sRGB;color-interpolation-filters:linearRGB;solid-color:#000000;solid-opacity:1;vector-effect:none;fill:#ffffff;fill-opacity:1;fill-rule:nonzero;stroke:none;stroke-width:0.0249436;stroke-linecap:butt;stroke-linejoin:miter;stroke-miterlimit:22.926;stroke-dasharray:none;stroke-dashoffset:0;stroke-opacity:1;color-rendering:auto;image-rendering:auto;shape-rendering:auto;text-rendering:auto;enable-background:accumulate;stop-color:#000000;stop-opacity:1"
         d="m -447.58847,-268.54514 h 19.04586 c 0.88746,0 1.61231,0.72623 1.61231,1.61231 v 19.04724 c 0,0.88608 -0.72485,1.61231 -1.61231,1.61231 h -19.04586 c -0.88746,0 -1.61369,-0.72623 -1.61369,-1.61231 v -19.04724 c 0,-0.88608 0.72623,-1.61231 1.61369,-1.61231 z m 0,0"
         id="path3364" />
      <path
         style="color:#000000;font-style:normal;font-variant:normal;font-weight:normal;font-stretch:normal;font-size:medium;line-height:normal;font-family:sans-serif;font-variant-ligatures:normal;font-variant-position:normal;font-variant-caps:normal;font-variant-numeric:normal;font-variant-alternates:normal;font-variant-east-asian:normal;font-feature-settings:normal;font-variation-settings:normal;text-indent:0;text-align:start;text-decoration:none;text-decoration-line:none;text-decoration-style:solid;text-decoration-color:#000000;letter-spacing:normal;word-spacing:normal;text-transform:none;writing-mode:lr-tb;direction:ltr;text-orientation:mixed;dominant-baseline:auto;baseline-shift:baseline;text-anchor:start;white-space:normal;shape-padding:0;shape-margin:0;inline-size:0;clip-rule:nonzero;display:inline;overflow:visible;visibility:visible;isolation:auto;mix-blend-mode:normal;color-interpolation:sRGB;color-interpolation-filters:linearRGB;solid-color:#000000;solid-opacity:1;vector-effect:none;fill:#000000;fill-opacity:1;fill-rule:nonzero;stroke:none;stroke-width:0.0249436;stroke-linecap:butt;stroke-linejoin:miter;stroke-miterlimit:22.926;stroke-dasharray:none;stroke-dashoffset:0;stroke-opacity:1;color-rendering:auto;image-rendering:auto;shape-rendering:auto;text-rendering:auto;enable-background:accumulate;stop-color:#000000;stop-opacity:1"
         d="m -447.58789,-268.63281 c -0.93558,0 -1.70313,0.76495 -1.70313,1.69922 v 19.04882 c 0,0.93427 0.76755,1.69922 1.70313,1.69922 h 19.04492 c 0.93558,0 1.70117,-0.76504 1.70117,-1.69922 v -19.04882 c 0,-0.93418 -0.76559,-1.69922 -1.70117,-1.69922 z m 0,0.17578 h 19.04492 c 0.83935,0 1.52539,0.68545 1.52539,1.52344 v 19.04882 c 0,0.83799 -0.68604,1.52344 -1.52539,1.52344 h -19.04492 c -0.83935,0 -1.52539,-0.68555 -1.52539,-1.52344 v -19.04882 c 0,-0.83789 0.68604,-1.52344 1.52539,-1.52344 z"
         id="path3366" />
    </g>
    <path
       transform="matrix(0.26458333,0,0,0.26458333,-462.30128,-292.1424)"
       d="M 42.447266,21.865234 C 32.613351,22.079156 22.080078,29.119099 22.080078,43.298828 V 557.49414 c 0,8.80252 7.438867,20.58789 21.802734,20.58789 H 557.19531 c 12.89069,0 20.771,-11.82103 20.73438,-21.21289 l 0.0273,-513.607421 C 578.14404,28.940422 567.32077,22.275242 557.45312,21.865234 Z M 92.669922,92.632812 H 507.47852 V 508.33203 H 92.669922 Z"
       style="fill:#263894;fill-opacity:1;fill-rule:evenodd;stroke:none;stroke-width:1.33333"
       id="path1968" />
    <g
       id="g2362"
       style="opacity:1"
       inkscape:groupmode="layer">
      <path
         id="path5794"
         d="m -426.72553,-198.94585 c -0.12758,-0.22554 0.44149,-0.13738 0.22555,0.0884 z m 0,0"
         style="fill:none;stroke:#211e1e;stroke-width:0.0762;stroke-linecap:butt;stroke-linejoin:miter;stroke-miterlimit:22.926;stroke-opacity:1" />
      <path
         id="path7231"
         style="fill:#211e1e;fill-opacity:1;fill-rule:evenodd;stroke:none;stroke-width:0.352777"
         d="m -407.70892,-262.36333 c -5.68086,-0.87324 -18.11325,13.96176 -11.72598,19.54453 5.55332,4.87633 12.06819,9.61528 19.54453,12.56853 2.18797,0.86343 5.5435,1.029 7.09373,-0.74689 l 5.91635,-6.72948 c 0.69657,-0.7947 2.45287,-0.76537 3.06119,0.0883 3.50268,4.92539 4.85546,7.9743 11.29182,14.37142 6.38728,6.42652 9.44847,7.78176 14.36405,11.28445 0.86341,0.61814 0.89398,2.37562 0.0993,3.07223 l -6.7589,5.91634 c -1.76609,1.55022 -1.59928,4.90574 -0.73587,7.09373 2.95327,7.46653 7.7094,13.9912 12.57592,19.54452 5.59254,6.38731 20.42875,-6.04511 19.55557,-11.72598 -3.0514,-16.50294 -13.45159,-32.98628 -27.37414,-46.91864 -13.9225,-13.91271 -30.40463,-24.31169 -46.9076,-27.36307 z m 6.39467,76.97129 c -4.24837,0 -7.68979,3.44385 -7.68979,7.68242 v 6.54183 c 0,4.23857 3.44142,7.69344 7.68979,7.69344 4.24839,0 7.69344,-3.45487 7.69344,-7.69344 v -6.54183 c 0,-4.23857 -3.44505,-7.68242 -7.69344,-7.68242 z m -23.42621,0.0113 c -0.37972,0.0113 -0.76041,0.0381 -1.14059,0.0846 -2.78646,0.3336 -4.98302,2.51172 -5.34605,5.29821 -0.45134,3.37515 1.91077,6.45842 5.27614,6.90974 l 3.50272,0.45991 c 1.16754,0.15693 2.1291,1.01184 2.41363,2.15978 0.39245,1.5404 -0.54701,3.10905 -2.09723,3.49166 -2.87477,0.72607 -5.93839,0.0113 -8.20486,-1.9022 l -2.10825,2.49089 c 3.07099,2.60029 7.20287,3.56158 11.10785,2.59023 2.45288,-0.61812 4.27663,-2.66014 4.61017,-5.16207 0.44153,-3.37516 -1.92304,-6.46458 -5.29821,-6.90606 l -3.49166,-0.45994 c -1.30493,-0.1767 -2.32656,-1.20803 -2.48354,-2.51296 -0.1865,-1.58948 0.94313,-3.02199 2.51297,-3.20837 2.24683,-0.27468 4.52189,0.28453 6.37626,1.56004 l 1.85438,-2.68958 c -2.20637,-1.51098 -4.82571,-2.28359 -7.48373,-2.20393 z m 46.42928,0 c -0.3797,0.0113 -0.76038,0.0381 -1.14059,0.0846 -2.78647,0.3336 -4.98424,2.51172 -5.35709,5.29821 -0.4513,3.37515 1.92187,6.45842 5.28718,6.90974 l 3.50272,0.45991 c 1.16759,0.15693 2.1291,1.01184 2.41363,2.15978 0.38266,1.5404 -0.55066,3.10905 -2.10088,3.49166 -2.88456,0.72607 -5.93475,0.0113 -8.2012,-1.9022 l -2.10825,2.49089 c 3.07098,2.60029 7.19919,3.56158 11.10417,2.59023 2.44308,-0.61812 4.27906,-2.66014 4.60283,-5.16207 0.45134,-3.37516 -1.92181,-6.46458 -5.28718,-6.90606 l -3.49535,-0.45994 c -1.30494,-0.1767 -2.32287,-1.20803 -2.47987,-2.51296 -0.19623,-1.58948 0.92964,-3.02199 2.50931,-3.20837 2.24682,-0.27468 4.51574,0.28453 6.37992,1.56004 l 1.85438,-2.68958 c -2.20637,-1.51098 -4.82571,-2.28359 -7.48373,-2.20393 z m -23.00307,3.25621 c 2.44307,0 4.4262,1.98191 4.42622,4.41518 v 6.54183 c -2e-5,2.44307 -1.98315,4.41518 -4.42622,4.41518 -2.44306,0 -4.42255,-1.97211 -4.42255,-4.41518 v -6.54183 c 0,-2.43327 1.97949,-4.41518 4.42255,-4.41518 z m -14.24632,15.57085 v 3.13847 h 3.14213 v -3.13847 z m 22.7161,0 v 3.13847 h 3.13846 v -3.13847 z m 23.65432,0 v 3.13847 h 3.13847 v -3.13847 z" />
    </g>
  </g>
</svg>
