<?xml version="1.0" encoding="UTF-8" standalone="no"?>
<svg
   xmlns:dc="http://purl.org/dc/elements/1.1/"
   xmlns:cc="http://creativecommons.org/ns#"
   xmlns:rdf="http://www.w3.org/1999/02/22-rdf-syntax-ns#"
   xmlns:svg="http://www.w3.org/2000/svg"
   xmlns="http://www.w3.org/2000/svg"
   xmlns:sodipodi="http://sodipodi.sourceforge.net/DTD/sodipodi-0.dtd"
   xmlns:inkscape="http://www.inkscape.org/namespaces/inkscape"
   sodipodi:docname="Latvia_road_sign_629.svg"
   inkscape:version="1.0 (4035a4fb49, 2020-05-01)"
   id="svg6774"
   version="1.1"
   viewBox="0 0 158.74999 158.73614"
   height="158.73615mm"
   width="158.75mm">
  <defs
     id="defs6768" />
  <sodipodi:namedview
     inkscape:window-maximized="1"
     inkscape:window-y="-9"
     inkscape:window-x="-9"
     inkscape:window-height="1001"
     inkscape:window-width="1920"
     fit-margin-bottom="0"
     fit-margin-right="0"
     fit-margin-left="0"
     fit-margin-top="0"
     showgrid="false"
     inkscape:document-rotation="0"
     inkscape:current-layer="g2362"
     inkscape:document-units="mm"
     inkscape:cy="214.95895"
     inkscape:cx="469.74594"
     inkscape:zoom="0.81967018"
     inkscape:pageshadow="2"
     inkscape:pageopacity="0.0"
     borderopacity="1.0"
     bordercolor="#666666"
     pagecolor="#ffffff"
     id="base" />
  <metadata
     id="metadata6771">
    <rdf:RDF>
      <cc:Work
         rdf:about="">
        <dc:format>image/svg+xml</dc:format>
        <dc:type
           rdf:resource="http://purl.org/dc/dcmitype/StillImage" />
        <dc:title></dc:title>
      </cc:Work>
    </rdf:RDF>
  </metadata>
  <g
     transform="translate(462.30128,292.1424)"
     id="layer1"
     inkscape:groupmode="layer"
     inkscape:label="Layer 1">
    <g
       transform="matrix(7.0715152,0,0,7.0715152,2714.867,1607.4986)"
       style="opacity:1;stroke-width:0.141412"
       id="g3362">
      <path
         id="path3364"
         d="m -447.58847,-268.54514 h 19.04586 c 0.88746,0 1.61231,0.72623 1.61231,1.61231 v 19.04724 c 0,0.88608 -0.72485,1.61231 -1.61231,1.61231 h -19.04586 c -0.88746,0 -1.61369,-0.72623 -1.61369,-1.61231 v -19.04724 c 0,-0.88608 0.72623,-1.61231 1.61369,-1.61231 z m 0,0"
         style="color:#000000;font-style:normal;font-variant:normal;font-weight:normal;font-stretch:normal;font-size:medium;line-height:normal;font-family:sans-serif;font-variant-ligatures:normal;font-variant-position:normal;font-variant-caps:normal;font-variant-numeric:normal;font-variant-alternates:normal;font-variant-east-asian:normal;font-feature-settings:normal;font-variation-settings:normal;text-indent:0;text-align:start;text-decoration:none;text-decoration-line:none;text-decoration-style:solid;text-decoration-color:#000000;letter-spacing:normal;word-spacing:normal;text-transform:none;writing-mode:lr-tb;direction:ltr;text-orientation:mixed;dominant-baseline:auto;baseline-shift:baseline;text-anchor:start;white-space:normal;shape-padding:0;shape-margin:0;inline-size:0;clip-rule:nonzero;display:inline;overflow:visible;visibility:visible;isolation:auto;mix-blend-mode:normal;color-interpolation:sRGB;color-interpolation-filters:linearRGB;solid-color:#000000;solid-opacity:1;vector-effect:none;fill:#ffffff;fill-opacity:1;fill-rule:nonzero;stroke:none;stroke-width:0.0249436;stroke-linecap:butt;stroke-linejoin:miter;stroke-miterlimit:22.926;stroke-dasharray:none;stroke-dashoffset:0;stroke-opacity:1;color-rendering:auto;image-rendering:auto;shape-rendering:auto;text-rendering:auto;enable-background:accumulate;stop-color:#000000;stop-opacity:1" />
      <path
         id="path3366"
         d="m -447.58789,-268.63281 c -0.93558,0 -1.70313,0.76495 -1.70313,1.69922 v 19.04882 c 0,0.93427 0.76755,1.69922 1.70313,1.69922 h 19.04492 c 0.93558,0 1.70117,-0.76504 1.70117,-1.69922 v -19.04882 c 0,-0.93418 -0.76559,-1.69922 -1.70117,-1.69922 z m 0,0.17578 h 19.04492 c 0.83935,0 1.52539,0.68545 1.52539,1.52344 v 19.04882 c 0,0.83799 -0.68604,1.52344 -1.52539,1.52344 h -19.04492 c -0.83935,0 -1.52539,-0.68555 -1.52539,-1.52344 v -19.04882 c 0,-0.83789 0.68604,-1.52344 1.52539,-1.52344 z"
         style="color:#000000;font-style:normal;font-variant:normal;font-weight:normal;font-stretch:normal;font-size:medium;line-height:normal;font-family:sans-serif;font-variant-ligatures:normal;font-variant-position:normal;font-variant-caps:normal;font-variant-numeric:normal;font-variant-alternates:normal;font-variant-east-asian:normal;font-feature-settings:normal;font-variation-settings:normal;text-indent:0;text-align:start;text-decoration:none;text-decoration-line:none;text-decoration-style:solid;text-decoration-color:#000000;letter-spacing:normal;word-spacing:normal;text-transform:none;writing-mode:lr-tb;direction:ltr;text-orientation:mixed;dominant-baseline:auto;baseline-shift:baseline;text-anchor:start;white-space:normal;shape-padding:0;shape-margin:0;inline-size:0;clip-rule:nonzero;display:inline;overflow:visible;visibility:visible;isolation:auto;mix-blend-mode:normal;color-interpolation:sRGB;color-interpolation-filters:linearRGB;solid-color:#000000;solid-opacity:1;vector-effect:none;fill:#000000;fill-opacity:1;fill-rule:nonzero;stroke:none;stroke-width:0.0249436;stroke-linecap:butt;stroke-linejoin:miter;stroke-miterlimit:22.926;stroke-dasharray:none;stroke-dashoffset:0;stroke-opacity:1;color-rendering:auto;image-rendering:auto;shape-rendering:auto;text-rendering:auto;enable-background:accumulate;stop-color:#000000;stop-opacity:1" />
    </g>
    <path
       id="path1968"
       style="fill:#263894;fill-opacity:1;fill-rule:evenodd;stroke:none;stroke-width:1.33333"
       d="M 42.447266,21.865234 C 32.613351,22.079156 22.080078,29.119099 22.080078,43.298828 V 557.49414 c 0,8.80252 7.438867,20.58789 21.802734,20.58789 H 557.19531 c 12.89069,0 20.771,-11.82103 20.73438,-21.21289 l 0.0273,-513.607421 C 578.14404,28.940422 567.32077,22.275242 557.45312,21.865234 Z M 92.669922,92.632812 H 507.47852 V 508.33203 H 92.669922 Z"
       transform="matrix(0.26458333,0,0,0.26458333,-462.30128,-292.1424)" />
    <g
       inkscape:groupmode="layer"
       style="opacity:1"
       id="g2362">
      <path
         style="fill:none;stroke:#211e1e;stroke-width:0.0762;stroke-linecap:butt;stroke-linejoin:miter;stroke-miterlimit:22.926;stroke-opacity:1"
         d="m -342.9027,-155.75129 c -0.12758,-0.22554 0.44149,-0.13738 0.22555,0.0884 z m 0,0"
         id="path5794" />
      <path
         style="fill:#000000;fill-opacity:1;fill-rule:evenodd;stroke:none;stroke-width:0.352777"
         d="m -427.94148,-165.5348 0.0201,-14.22668 c 3.18873,5.20991 10.98888,5.20991 14.56026,-0.20596 4.5231,5.41595 10.38057,5.11178 15.05086,0 4.14047,5.44539 10.10587,5.2884 14.38367,0 4.92539,5.44539 10.51794,5.2884 15.76708,0 3.75783,5.39631 11.45005,5.55329 15.03125,-0.0101 5.58276,5.52388 10.70436,5.31785 15.31578,0 l 0.0101,14.44254 z m 43.99482,-16.78748 c -3.78724,4.51328 -10.9104,4.39556 -14.38367,0 -4.50349,5.02349 -10.43945,3.37516 -15.04106,0.0101 -2.12909,1.76608 -3.55176,3.35554 -7.07409,3.34573 l -12.54894,-24.9801 23.15517,0.0201 3.62045,6.56392 h 43.28839 l 3.01212,-6.58353 h 2.74722 l 2.27627,-5.3767 h 9.76246 l -0.0201,5.39631 h 7.31938 v 21.57553 c -4.945,4.59177 -9.68396,4.31706 -15.2569,-0.0392 -4.56234,3.83631 -9.77225,5.22953 -14.98217,0.23535 -4.85668,3.97366 -11.17531,4.37594 -15.87501,-0.16678 z m -48.41,-26.75601 31.58326,-51.27494 18.42602,8.0062 -1.0891,0.77509 -15.94368,-3.07098 -13.16706,45.56463 z m 78.33509,-2.20757 1.197,-3.46347 7.68243,-0.0101 v 3.47329 z m -29.92509,-22.85101 v -14.97237 h 1.76606 l 0.0101,14.97237 z m -9.28169,2.49212 h 19.95661 v 11.37154 h -19.95661 z m 0,0"
         id="path5908" />
    </g>
  </g>
</svg>
