<?xml version="1.0" encoding="UTF-8" standalone="no"?>
<svg
   xmlns:dc="http://purl.org/dc/elements/1.1/"
   xmlns:cc="http://creativecommons.org/ns#"
   xmlns:rdf="http://www.w3.org/1999/02/22-rdf-syntax-ns#"
   xmlns:svg="http://www.w3.org/2000/svg"
   xmlns="http://www.w3.org/2000/svg"
   xmlns:sodipodi="http://sodipodi.sourceforge.net/DTD/sodipodi-0.dtd"
   xmlns:inkscape="http://www.inkscape.org/namespaces/inkscape"
   sodipodi:docname="Latvia_road_sign_630.svg"
   inkscape:version="1.0 (4035a4fb49, 2020-05-01)"
   id="svg6774"
   version="1.1"
   viewBox="0 0 346.07499 158.73614"
   height="158.73615mm"
   width="346.07501mm">
  <defs
     id="defs6768" />
  <sodipodi:namedview
     inkscape:window-maximized="1"
     inkscape:window-y="-9"
     inkscape:window-x="-9"
     inkscape:window-height="1001"
     inkscape:window-width="1920"
     fit-margin-bottom="0"
     fit-margin-right="0"
     fit-margin-left="0"
     fit-margin-top="0"
     showgrid="false"
     inkscape:document-rotation="0"
     inkscape:current-layer="g2362"
     inkscape:document-units="mm"
     inkscape:cy="318.66813"
     inkscape:cx="588.50818"
     inkscape:zoom="0.57959434"
     inkscape:pageshadow="2"
     inkscape:pageopacity="0.0"
     borderopacity="1.0"
     bordercolor="#666666"
     pagecolor="#ffffff"
     id="base" />
  <metadata
     id="metadata6771">
    <rdf:RDF>
      <cc:Work
         rdf:about="">
        <dc:format>image/svg+xml</dc:format>
        <dc:type
           rdf:resource="http://purl.org/dc/dcmitype/StillImage" />
        <dc:title></dc:title>
      </cc:Work>
    </rdf:RDF>
  </metadata>
  <g
     transform="translate(462.30128,292.1424)"
     id="layer1"
     inkscape:groupmode="layer"
     inkscape:label="Layer 1">
    <g
       inkscape:groupmode="layer"
       transform="matrix(7.0715152,0,0,7.0715152,2714.867,1607.4986)"
       style="opacity:1;stroke-width:0.141412"
       id="g3362">
      <path
         sodipodi:nodetypes="sssssssss"
         id="path3364"
         d="m -447.58847,-268.54514 h 45.53594 c 0.88746,0 1.61231,0.72623 1.61231,1.61231 v 19.04724 c 0,0.88608 -0.72485,1.61231 -1.61231,1.61231 h -45.53594 c -0.88746,0 -1.61369,-0.72623 -1.61369,-1.61231 v -19.04724 c 0,-0.88608 0.72623,-1.61231 1.61369,-1.61231 z"
         style="color:#000000;font-style:normal;font-variant:normal;font-weight:normal;font-stretch:normal;font-size:medium;line-height:normal;font-family:sans-serif;font-variant-ligatures:normal;font-variant-position:normal;font-variant-caps:normal;font-variant-numeric:normal;font-variant-alternates:normal;font-variant-east-asian:normal;font-feature-settings:normal;font-variation-settings:normal;text-indent:0;text-align:start;text-decoration:none;text-decoration-line:none;text-decoration-style:solid;text-decoration-color:#000000;letter-spacing:normal;word-spacing:normal;text-transform:none;writing-mode:lr-tb;direction:ltr;text-orientation:mixed;dominant-baseline:auto;baseline-shift:baseline;text-anchor:start;white-space:normal;shape-padding:0;shape-margin:0;inline-size:0;clip-rule:nonzero;display:inline;overflow:visible;visibility:visible;isolation:auto;mix-blend-mode:normal;color-interpolation:sRGB;color-interpolation-filters:linearRGB;solid-color:#000000;solid-opacity:1;vector-effect:none;fill:#ffffff;fill-opacity:1;fill-rule:nonzero;stroke:none;stroke-width:0.0249436;stroke-linecap:butt;stroke-linejoin:miter;stroke-miterlimit:22.926;stroke-dasharray:none;stroke-dashoffset:0;stroke-opacity:1;color-rendering:auto;image-rendering:auto;shape-rendering:auto;text-rendering:auto;enable-background:accumulate;stop-color:#000000;stop-opacity:1" />
      <path
         sodipodi:nodetypes="ssssssssssssssssss"
         id="path3366"
         d="m -447.58789,-268.63281 c -0.93558,0 -1.70313,0.76495 -1.70313,1.69922 v 19.04882 c 0,0.93427 0.76755,1.69922 1.70313,1.69922 h 45.535 c 0.93558,0 1.70117,-0.76504 1.70117,-1.69922 v -19.04882 c 0,-0.93418 -0.76559,-1.69922 -1.70117,-1.69922 z m 0,0.17578 h 45.535 c 0.83935,0 1.52539,0.68545 1.52539,1.52344 v 19.04882 c 0,0.83799 -0.68604,1.52344 -1.52539,1.52344 h -45.535 c -0.83935,0 -1.52539,-0.68555 -1.52539,-1.52344 v -19.04882 c 0,-0.83789 0.68604,-1.52344 1.52539,-1.52344 z"
         style="color:#000000;font-style:normal;font-variant:normal;font-weight:normal;font-stretch:normal;font-size:medium;line-height:normal;font-family:sans-serif;font-variant-ligatures:normal;font-variant-position:normal;font-variant-caps:normal;font-variant-numeric:normal;font-variant-alternates:normal;font-variant-east-asian:normal;font-feature-settings:normal;font-variation-settings:normal;text-indent:0;text-align:start;text-decoration:none;text-decoration-line:none;text-decoration-style:solid;text-decoration-color:#000000;letter-spacing:normal;word-spacing:normal;text-transform:none;writing-mode:lr-tb;direction:ltr;text-orientation:mixed;dominant-baseline:auto;baseline-shift:baseline;text-anchor:start;white-space:normal;shape-padding:0;shape-margin:0;inline-size:0;clip-rule:nonzero;display:inline;overflow:visible;visibility:visible;isolation:auto;mix-blend-mode:normal;color-interpolation:sRGB;color-interpolation-filters:linearRGB;solid-color:#000000;solid-opacity:1;vector-effect:none;fill:#000000;fill-opacity:1;fill-rule:nonzero;stroke:none;stroke-width:0.0249436;stroke-linecap:butt;stroke-linejoin:miter;stroke-miterlimit:22.926;stroke-dasharray:none;stroke-dashoffset:0;stroke-opacity:1;color-rendering:auto;image-rendering:auto;shape-rendering:auto;text-rendering:auto;enable-background:accumulate;stop-color:#000000;stop-opacity:1" />
    </g>
    <path
       sodipodi:nodetypes="cssssccccccccc"
       id="path1968"
       style="fill:#263894;fill-opacity:1;fill-rule:evenodd;stroke:none;stroke-width:1.33333"
       d="M 42.447266,21.865234 C 32.613351,22.079156 22.080078,29.119099 22.080078,43.298828 V 557.49414 c 0,8.80252 7.438867,20.58789 21.802734,20.58789 H 1265.1953 c 12.8907,0 20.771,-11.82103 20.7344,-21.21289 l 0.027,-513.607421 c 0.187,-14.321297 -10.6362,-20.986477 -20.5039,-21.396485 z M 92.669922,92.632812 H 1215.4785 V 508.33203 H 92.669922 Z"
       transform="matrix(0.26458333,0,0,0.26458333,-462.30128,-292.1424)" />
    <g
       inkscape:groupmode="layer"
       style="opacity:1"
       id="g2362">
      <path
         style="fill:#000000;fill-opacity:1;fill-rule:evenodd;stroke:none;stroke-width:0.352776"
         d="m -287.39868,-174.49012 v -43.91361 l 2.36553,-2.63912 -0.0391,-11.20406 -1.0557,-1.09882 h -20.4882 v -7.02459 h 21.56345 v -5.9258 l -21.58298,-0.0196 -0.0391,-5.4058 16.17748,-5.15075 23.56731,0.0784 -0.0196,10.47807 -8.94404,0.0196 v 5.9258 h 8.9245 v 7.02459 h -7.86878 l -1.0557,1.07922 v 11.22366 l 2.32643,2.63913 0.0196,43.91362 c -1.72039,8.18227 -12.45322,7.57399 -13.85102,0"
         id="path5966" />
      <path
         id="path6635"
         style="color:#000000;font-style:normal;font-variant:normal;font-weight:normal;font-stretch:normal;font-size:medium;line-height:normal;font-family:sans-serif;font-variant-ligatures:normal;font-variant-position:normal;font-variant-caps:normal;font-variant-numeric:normal;font-variant-alternates:normal;font-variant-east-asian:normal;font-feature-settings:normal;font-variation-settings:normal;text-indent:0;text-align:start;text-decoration:none;text-decoration-line:none;text-decoration-style:solid;text-decoration-color:#000000;letter-spacing:normal;word-spacing:normal;text-transform:none;writing-mode:lr-tb;direction:ltr;text-orientation:mixed;dominant-baseline:auto;baseline-shift:baseline;text-anchor:start;white-space:normal;shape-padding:0;shape-margin:0;inline-size:0;clip-rule:nonzero;display:inline;overflow:visible;visibility:visible;opacity:1;isolation:auto;mix-blend-mode:normal;color-interpolation:sRGB;color-interpolation-filters:linearRGB;solid-color:#000000;solid-opacity:1;vector-effect:none;fill:#000000;fill-opacity:1;fill-rule:evenodd;stroke:none;stroke-width:0.0762;stroke-linecap:butt;stroke-linejoin:miter;stroke-miterlimit:22.926;stroke-dasharray:none;stroke-dashoffset:0;stroke-opacity:1;color-rendering:auto;image-rendering:auto;shape-rendering:auto;text-rendering:auto;enable-background:accumulate;stop-color:#000000;stop-opacity:1"
         d="m -200.57305,-262.71466 v 4.91895 l -12.37504,4.04331 v 4.60254 0.26858 h 29.77559 v -4.87112 l -12.49232,-4.01389 -0.0218,-4.94837 z m -4.96688,17.20342 -2.66856,0.0258 -7.05623,22.6963 -0.10624,0.34952 2.89215,-0.004 z m -7.31651,0.0258 -0.0733,0.16177 c -8.67952,19.62038 -17.52912,39.18036 -26.44363,58.70352 l -0.11365,0.24284 2.41563,1.14419 27.17669,-60.25245 z m 8.86341,0 -3.65826,22.72941 -0.0478,0.31641 h 2.78218 l 3.46765,-23.04582 z m 4.55265,0 v 23.04582 h 2.38996 0.27126 v -23.04577 z m 4.93755,0 3.06808,22.82874 0.0367,0.23915 2.6429,-0.0221 -3.0461,-23.04581 z m 4.35836,0 6.4038,22.86921 0.055,0.19866 2.66123,-0.0221 -6.58341,-23.04582 z m 4.08717,0 26.18695,60.03537 0.11365,0.25753 2.51469,-1.15897 -26.02569,-59.13399 z" />
      <path
         style="fill:#000000;fill-opacity:1;fill-rule:evenodd;stroke:#211e1e;stroke-width:0.0762;stroke-linecap:butt;stroke-linejoin:miter;stroke-miterlimit:22.926;stroke-opacity:1"
         d="m -223.10913,-203.83458 c 2.10161,-4.70922 5.05365,-9.27129 8.23048,-13.31338 11.7201,-0.58865 22.6582,-0.50037 34.38809,0 3.51898,3.71833 6.14844,8.92792 8.14251,13.60772 -8.53349,-1.02033 -18.00536,-1.26561 -25.47342,-1.19693 -6.69579,-0.0686 -16.55864,0.24539 -25.28766,0.90259 z m -5.3371,14.70655 -0.0109,-6.67142 c 1.49555,-6.3182 2.99113,-10.88029 6.4319,-15.84458 l 5.15135,-7.67213 c 12.96153,-0.51998 25.53207,-0.4611 38.58156,0.15696 l 5.01453,7.49552 c 3.2355,5.61185 4.42802,8.74152 6.25594,15.98198 l 0.0109,6.55367 z m 53.26346,19.092 -1.61285,-2.21725 -0.0109,-5.40581 c -6.92061,0.39244 -13.27433,0.69658 -20.94759,0.74564 -8.16205,-0.0489 -13.02994,-0.2454 -21.0356,-0.78489 l -0.0109,5.44506 -1.65197,2.21725 h -6.38301 l -1.61285,-2.21725 -0.0109,-13.86281 h 61.44504 v 13.87263 l -1.60308,2.20743 z m 0.93841,-29.50137 c 2.12113,0 3.86107,1.67768 3.86107,3.72813 0,2.06032 -1.73994,3.72817 -3.86107,3.72817 -2.13093,0 -3.8611,-1.66785 -3.8611,-3.72817 0,-2.05045 1.73017,-3.72813 3.8611,-3.72813 z m -47.02707,0 c 2.12115,0 3.86108,1.67768 3.86108,3.72813 0,2.06032 -1.73993,3.72817 -3.86108,3.72817 -2.13093,0 -3.8611,-1.66785 -3.8611,-3.72817 0,-2.05045 1.73017,-3.72813 3.8611,-3.72813 z m 0,0"
         id="path5984" />
      <g
         id="g6627"
         transform="matrix(2.5023757,0,0,-2.5115908,-846.08335,89.923454)"
         style="opacity:1;stroke-width:0.140718;fill:#000000">
        <path
           style="color:#000000;font-style:normal;font-variant:normal;font-weight:normal;font-stretch:normal;font-size:medium;line-height:normal;font-family:sans-serif;font-variant-ligatures:normal;font-variant-position:normal;font-variant-caps:normal;font-variant-numeric:normal;font-variant-alternates:normal;font-variant-east-asian:normal;font-feature-settings:normal;font-variation-settings:normal;text-indent:0;text-align:start;text-decoration:none;text-decoration-line:none;text-decoration-style:solid;text-decoration-color:#000000;letter-spacing:normal;word-spacing:normal;text-transform:none;writing-mode:lr-tb;direction:ltr;text-orientation:mixed;dominant-baseline:auto;baseline-shift:baseline;text-anchor:start;white-space:normal;shape-padding:0;shape-margin:0;inline-size:0;clip-rule:nonzero;display:inline;overflow:visible;visibility:visible;isolation:auto;mix-blend-mode:normal;color-interpolation:sRGB;color-interpolation-filters:linearRGB;solid-color:#000000;solid-opacity:1;vector-effect:none;fill:#000000;fill-opacity:1;fill-rule:evenodd;stroke:none;stroke-width:0.0303951;stroke-linecap:butt;stroke-linejoin:miter;stroke-miterlimit:22.926;stroke-dasharray:none;stroke-dashoffset:0;stroke-opacity:1;color-rendering:auto;image-rendering:auto;shape-rendering:auto;text-rendering:auto;enable-background:accumulate;stop-color:#000000;stop-opacity:1"
           d="m 183.6875,133.10547 h 13.29687 v -9.47266 H 183.6875 Z m -2.32031,-29.5625 v 15.93359 h -1.91407 l -0.004,-9.89843 c 0.0352,-3.53516 -2.56641,-6.02735 -5.75391,-6.02735 -4.51172,-0.004 -7.03515,4.44922 -5.47265,8.07813 l 8.92578,21.47656 h 3.42968 v -2.01172 h -2.04296 L 169.875,110.89453 c -0.95313,-2.39453 0.73047,-5.34375 3.64453,-5.34375 2.08594,0.21485 3.88672,1.22656 3.94531,4.05078 v 9.875 c 0,1.42969 0.76953,2.00391 1.98828,1.99219 h 1.91407 v 11.63672 c 0,2.11719 1.01953,3.21875 3.26562,3.21875 h 11.52735 c 2.13281,0 3.15625,-1.54297 3.16015,-3.21094 v -29.5625 z m 0,0"
           id="path6629" />
        <path
           style="color:#000000;font-style:normal;font-variant:normal;font-weight:normal;font-stretch:normal;font-size:medium;line-height:normal;font-family:sans-serif;font-variant-ligatures:normal;font-variant-position:normal;font-variant-caps:normal;font-variant-numeric:normal;font-variant-alternates:normal;font-variant-east-asian:normal;font-feature-settings:normal;font-variation-settings:normal;text-indent:0;text-align:start;text-decoration:none;text-decoration-line:none;text-decoration-style:solid;text-decoration-color:#000000;letter-spacing:normal;word-spacing:normal;text-transform:none;writing-mode:lr-tb;direction:ltr;text-orientation:mixed;dominant-baseline:auto;baseline-shift:baseline;text-anchor:start;white-space:normal;shape-padding:0;shape-margin:0;inline-size:0;clip-rule:nonzero;display:inline;overflow:visible;visibility:visible;isolation:auto;mix-blend-mode:normal;color-interpolation:sRGB;color-interpolation-filters:linearRGB;solid-color:#000000;solid-opacity:1;vector-effect:none;fill:#000000;fill-opacity:1;fill-rule:evenodd;stroke:none;stroke-width:0.0303951;stroke-linecap:butt;stroke-linejoin:miter;stroke-miterlimit:22.926;stroke-dasharray:none;stroke-dashoffset:0;stroke-opacity:1;color-rendering:auto;image-rendering:auto;shape-rendering:auto;text-rendering:auto;enable-background:accumulate;stop-color:#000000;stop-opacity:1"
           d="m 181.25977,103.43555 v 0.10742 15.82617 h -1.69922 l -0.004,-9.78906 v -0.002 c 0.0347,-3.58755 -2.61815,-6.13476 -5.86133,-6.13476 -4.58282,-0.004 -7.16416,4.53133 -5.57226,8.22852 l 8.95312,21.54101 h 3.60938 v -2.22656 h -2.08008 l -8.63086,-20.13477 c -0.92152,-2.32254 0.70289,-5.18547 3.53711,-5.1914 1.02713,0.10641 1.97598,0.40619 2.66992,1.01757 0.695,0.61232 1.14696,1.53635 1.17578,2.92579 v 9.87304 c 0,0.73422 0.19921,1.26989 0.57031,1.61524 0.37068,0.34495 0.8998,0.49004 1.52539,0.48437 h 1.80665 v 11.5293 c 0,1.07593 0.25895,1.91255 0.82031,2.47851 0.56135,0.56597 1.41203,0.84766 2.55273,0.84766 h 11.52735 c 1.09245,0 1.91575,-0.39834 2.45898,-1.01562 0.54323,-0.61729 0.80659,-1.44674 0.80859,-2.30274 v -29.66992 z m 0.21484,0.21484 17.73828,0.008 v 29.45508 c -0.002,0.81198 -0.25319,1.58896 -0.75586,2.16016 -0.50267,0.57119 -1.25651,0.94336 -2.29687,0.94336 h -11.52735 c -1.10539,0 -1.8885,-0.26909 -2.39843,-0.78321 -0.50994,-0.51411 -0.75977,-1.28686 -0.75977,-2.32812 v -11.74414 h -2.02149 -0.002 c -0.5922,0.006 -1.05665,-0.13148 -1.375,-0.42774 -0.31834,-0.29625 -0.5039,-0.76156 -0.5039,-1.45703 v -9.87695 c -0.0298,-1.43478 -0.50652,-2.42872 -1.24805,-3.08203 -0.74153,-0.65331 -1.73596,-0.96535 -2.79297,-1.07422 h -0.006 -0.006 c -2.98693,0 -4.7247,3.02679 -3.74414,5.49023 v 0.002 l 8.6875,20.26562 h 2.00781 v 1.79688 h -3.25 l -8.89843,-21.41211 c -1.53311,-3.56064 0.93242,-7.93167 5.37304,-7.92774 3.13121,0 5.68115,2.4363 5.64649,5.91797 v 0.002 l 0.004,10.00586 h 2.12891 z m 2.10547,19.875 v 9.6875 h 0.10742 13.4043 v -9.6875 z m 0.21484,0.21484 h 13.08203 v 9.25782 h -13.08203 z"
           id="path6631" />
      </g>
      <path
         sodipodi:nodetypes="ccc"
         style="fill:#000000;stroke:#211e1e;stroke-width:0.0762;stroke-linecap:butt;stroke-linejoin:miter;stroke-miterlimit:22.926;stroke-opacity:1"
         d="m -342.9027,-155.75129 c -0.12758,-0.22554 0.44149,-0.13738 0.22555,0.0884 z"
         id="path5794" />
    </g>
  </g>
</svg>
