<?xml version="1.0" encoding="UTF-8" standalone="no"?>
<svg
   xmlns:dc="http://purl.org/dc/elements/1.1/"
   xmlns:cc="http://creativecommons.org/ns#"
   xmlns:rdf="http://www.w3.org/1999/02/22-rdf-syntax-ns#"
   xmlns:svg="http://www.w3.org/2000/svg"
   xmlns="http://www.w3.org/2000/svg"
   xmlns:sodipodi="http://sodipodi.sourceforge.net/DTD/sodipodi-0.dtd"
   xmlns:inkscape="http://www.inkscape.org/namespaces/inkscape"
   width="158.75mm"
   height="158.73615mm"
   viewBox="0 0 158.74999 158.73614"
   version="1.1"
   id="svg6774"
   inkscape:version="1.0 (4035a4fb49, 2020-05-01)"
   sodipodi:docname="Latvia_road_sign_616.svg">
  <defs
     id="defs6768" />
  <sodipodi:namedview
     id="base"
     pagecolor="#ffffff"
     bordercolor="#666666"
     borderopacity="1.0"
     inkscape:pageopacity="0.0"
     inkscape:pageshadow="2"
     inkscape:zoom="1.6393404"
     inkscape:cx="346.72752"
     inkscape:cy="220.83661"
     inkscape:document-units="mm"
     inkscape:current-layer="g2362"
     inkscape:document-rotation="0"
     showgrid="false"
     fit-margin-top="0"
     fit-margin-left="0"
     fit-margin-right="0"
     fit-margin-bottom="0"
     inkscape:window-width="1920"
     inkscape:window-height="1001"
     inkscape:window-x="-9"
     inkscape:window-y="-9"
     inkscape:window-maximized="1" />
  <metadata
     id="metadata6771">
    <rdf:RDF>
      <cc:Work
         rdf:about="">
        <dc:format>image/svg+xml</dc:format>
        <dc:type
           rdf:resource="http://purl.org/dc/dcmitype/StillImage" />
        <dc:title></dc:title>
      </cc:Work>
    </rdf:RDF>
  </metadata>
  <g
     inkscape:label="Layer 1"
     inkscape:groupmode="layer"
     id="layer1"
     transform="translate(462.30128,292.1424)">
    <g
       id="g3362"
       style="opacity:1;stroke-width:0.141412"
       transform="matrix(7.0715152,0,0,7.0715152,2714.867,1607.4986)">
      <path
         style="color:#000000;font-style:normal;font-variant:normal;font-weight:normal;font-stretch:normal;font-size:medium;line-height:normal;font-family:sans-serif;font-variant-ligatures:normal;font-variant-position:normal;font-variant-caps:normal;font-variant-numeric:normal;font-variant-alternates:normal;font-variant-east-asian:normal;font-feature-settings:normal;font-variation-settings:normal;text-indent:0;text-align:start;text-decoration:none;text-decoration-line:none;text-decoration-style:solid;text-decoration-color:#000000;letter-spacing:normal;word-spacing:normal;text-transform:none;writing-mode:lr-tb;direction:ltr;text-orientation:mixed;dominant-baseline:auto;baseline-shift:baseline;text-anchor:start;white-space:normal;shape-padding:0;shape-margin:0;inline-size:0;clip-rule:nonzero;display:inline;overflow:visible;visibility:visible;isolation:auto;mix-blend-mode:normal;color-interpolation:sRGB;color-interpolation-filters:linearRGB;solid-color:#000000;solid-opacity:1;vector-effect:none;fill:#ffffff;fill-opacity:1;fill-rule:nonzero;stroke:none;stroke-width:0.0249436;stroke-linecap:butt;stroke-linejoin:miter;stroke-miterlimit:22.926;stroke-dasharray:none;stroke-dashoffset:0;stroke-opacity:1;color-rendering:auto;image-rendering:auto;shape-rendering:auto;text-rendering:auto;enable-background:accumulate;stop-color:#000000;stop-opacity:1"
         d="m -447.58847,-268.54514 h 19.04586 c 0.88746,0 1.61231,0.72623 1.61231,1.61231 v 19.04724 c 0,0.88608 -0.72485,1.61231 -1.61231,1.61231 h -19.04586 c -0.88746,0 -1.61369,-0.72623 -1.61369,-1.61231 v -19.04724 c 0,-0.88608 0.72623,-1.61231 1.61369,-1.61231 z m 0,0"
         id="path3364" />
      <path
         style="color:#000000;font-style:normal;font-variant:normal;font-weight:normal;font-stretch:normal;font-size:medium;line-height:normal;font-family:sans-serif;font-variant-ligatures:normal;font-variant-position:normal;font-variant-caps:normal;font-variant-numeric:normal;font-variant-alternates:normal;font-variant-east-asian:normal;font-feature-settings:normal;font-variation-settings:normal;text-indent:0;text-align:start;text-decoration:none;text-decoration-line:none;text-decoration-style:solid;text-decoration-color:#000000;letter-spacing:normal;word-spacing:normal;text-transform:none;writing-mode:lr-tb;direction:ltr;text-orientation:mixed;dominant-baseline:auto;baseline-shift:baseline;text-anchor:start;white-space:normal;shape-padding:0;shape-margin:0;inline-size:0;clip-rule:nonzero;display:inline;overflow:visible;visibility:visible;isolation:auto;mix-blend-mode:normal;color-interpolation:sRGB;color-interpolation-filters:linearRGB;solid-color:#000000;solid-opacity:1;vector-effect:none;fill:#000000;fill-opacity:1;fill-rule:nonzero;stroke:none;stroke-width:0.0249436;stroke-linecap:butt;stroke-linejoin:miter;stroke-miterlimit:22.926;stroke-dasharray:none;stroke-dashoffset:0;stroke-opacity:1;color-rendering:auto;image-rendering:auto;shape-rendering:auto;text-rendering:auto;enable-background:accumulate;stop-color:#000000;stop-opacity:1"
         d="m -447.58789,-268.63281 c -0.93558,0 -1.70313,0.76495 -1.70313,1.69922 v 19.04882 c 0,0.93427 0.76755,1.69922 1.70313,1.69922 h 19.04492 c 0.93558,0 1.70117,-0.76504 1.70117,-1.69922 v -19.04882 c 0,-0.93418 -0.76559,-1.69922 -1.70117,-1.69922 z m 0,0.17578 h 19.04492 c 0.83935,0 1.52539,0.68545 1.52539,1.52344 v 19.04882 c 0,0.83799 -0.68604,1.52344 -1.52539,1.52344 h -19.04492 c -0.83935,0 -1.52539,-0.68555 -1.52539,-1.52344 v -19.04882 c 0,-0.83789 0.68604,-1.52344 1.52539,-1.52344 z"
         id="path3366" />
    </g>
    <path
       transform="matrix(0.26458333,0,0,0.26458333,-462.30128,-292.1424)"
       d="M 42.447266,21.865234 C 32.613351,22.079156 22.080078,29.119099 22.080078,43.298828 V 557.49414 c 0,8.80252 7.438867,20.58789 21.802734,20.58789 H 557.19531 c 12.89069,0 20.771,-11.82103 20.73438,-21.21289 l 0.0273,-513.607421 C 578.14404,28.940422 567.32077,22.275242 557.45312,21.865234 Z M 92.669922,92.632812 H 507.47852 V 508.33203 H 92.669922 Z"
       style="fill:#263894;fill-opacity:1;fill-rule:evenodd;stroke:none;stroke-width:1.33333"
       id="path1968" />
    <g
       id="g2362"
       style="opacity:1"
       inkscape:groupmode="layer">
      <path
         style="fill:#000000;fill-opacity:1;fill-rule:evenodd;stroke:none;stroke-width:0.352777"
         d="m -374.43931,-175.55237 5.5435,-16.50295 h -3.27705 l 11.20474,-24.93107 -1.75626,-7.0937 -1.81514,7.5156 -12.21532,2.95326 c -3.17892,0.26492 -4.26801,-3.69892 -1.26567,-5.10198 l 9.21298,-2.09964 2.92385,-13.50064 13.9912,-5.16086 12.62741,15.10971 1.66797,9.34055 c 0.57886,3.75783 -4.70952,4.17973 -5.25897,0.71625 l -1.26569,-7.51562 -6.45597,-7.37825 0.79472,9.78207 11.46966,27.36432 h -6.61294 l 5.59255,16.27727 c 0.46113,4.72916 -5.46501,5.17068 -7.18204,0.19616 l -5.60235,-16.45389 -9.74284,-0.049 -5.78879,16.53239 c -1.69739,4.68991 -6.36766,4.62121 -6.78955,0 z m -4.12085,3.48309 0.0294,-40.09965 2.54118,-0.0686 -0.0201,40.16832 z m -40.10944,-3.43404 12.22514,-36.7539 c -0.89285,-4.68009 -2.32532,-9.56624 -3.69895,-14.14821 l -10.73377,12.6176 c -3.89519,2.37438 -4.28765,-0.60832 -3.89519,-3.61063 l 15.75729,-20.15285 11.37155,-1.92304 4.25819,27.29562 10.03716,36.46938 c 0.36303,4.71932 -6.03406,5.47482 -7.34881,0.0392 l -9.3013,-33.53573 -11.23419,33.8399 c -1.57966,4.5231 -7.32919,4.42499 -7.43712,-0.13739 z m 26.6775,-41.02191 -3.56158,-23.38084 c 4.9548,-1.47171 7.37825,-3.77741 11.11644,1.08909 2.15852,4.92539 4.37594,9.99793 2.37437,15.08028 -1.3638,3.05139 -6.20087,6.81901 -9.92923,7.21147 z m 49.11639,-21.30079 c -1.60907,-0.0588 -3.26722,-1.42268 -4.31706,-2.64911 -1.43247,-2.10946 -1.21661,-4.74876 -2.43326,-5.83785 -1.41285,-1.197 -3.03175,-0.86341 -4.4446,-0.86341 l -0.4317,-1.78568 c 1.43248,-0.4121 2.30571,-0.65737 3.99328,-0.67701 4.87632,0.7555 5.22953,1.59928 7.40769,5.02349 0.79474,2.40384 2.65891,5.8869 5.60237,5.29822 -0.5887,1.3638 -4.24839,1.99174 -5.37672,1.49135 z m -68.31753,-8.0945 13.92253,-0.97134 c -0.5985,7.47638 -11.46963,8.82054 -13.92253,0.97134 z m -5.65143,-1.25587 -0.01,-2.08985 5.73971,-0.34341 c 2.39402,-7.29976 12.88252,-6.69144 13.8931,1.21664 z m -7.91788,75.07767 -0.0392,-40.1585 2.64909,-0.0294 -0.0294,40.18794 z m 62.55818,-81.05287 c 3.94422,0 7.17221,3.22797 7.17221,7.18201 0,3.94422 -3.22799,7.17222 -7.17221,7.17222 -3.95404,0 -7.18201,-3.228 -7.18201,-7.17222 0,-3.95404 3.22797,-7.18201 7.18201,-7.18201"
         id="path2661" />
    </g>
  </g>
</svg>
