<?xml version="1.0" encoding="UTF-8" standalone="no"?>
<svg
   xmlns:dc="http://purl.org/dc/elements/1.1/"
   xmlns:cc="http://creativecommons.org/ns#"
   xmlns:rdf="http://www.w3.org/1999/02/22-rdf-syntax-ns#"
   xmlns:svg="http://www.w3.org/2000/svg"
   xmlns="http://www.w3.org/2000/svg"
   xmlns:sodipodi="http://sodipodi.sourceforge.net/DTD/sodipodi-0.dtd"
   xmlns:inkscape="http://www.inkscape.org/namespaces/inkscape"
   width="158.75mm"
   height="222.76532mm"
   viewBox="0 0 158.74999 222.76531"
   version="1.1"
   id="svg6774"
   inkscape:version="1.0 (4035a4fb49, 2020-05-01)"
   sodipodi:docname="Latvia_road_sign_623.svg">
  <defs
     id="defs6768" />
  <sodipodi:namedview
     id="base"
     pagecolor="#ffffff"
     bordercolor="#666666"
     borderopacity="1.0"
     inkscape:pageopacity="0.0"
     inkscape:pageshadow="2"
     inkscape:zoom="0.57959434"
     inkscape:cx="566.02205"
     inkscape:cy="592.02047"
     inkscape:document-units="mm"
     inkscape:current-layer="g2362"
     inkscape:document-rotation="0"
     showgrid="false"
     fit-margin-top="0"
     fit-margin-left="0"
     fit-margin-right="0"
     fit-margin-bottom="0"
     inkscape:window-width="1920"
     inkscape:window-height="1001"
     inkscape:window-x="-9"
     inkscape:window-y="-9"
     inkscape:window-maximized="1" />
  <metadata
     id="metadata6771">
    <rdf:RDF>
      <cc:Work
         rdf:about="">
        <dc:format>image/svg+xml</dc:format>
        <dc:type
           rdf:resource="http://purl.org/dc/dcmitype/StillImage" />
        <dc:title></dc:title>
      </cc:Work>
    </rdf:RDF>
  </metadata>
  <g
     inkscape:label="Layer 1"
     inkscape:groupmode="layer"
     id="layer1"
     transform="translate(462.30128,292.1424)">
    <g
       id="g3362"
       style="opacity:1;stroke-width:0.141412"
       transform="matrix(7.0715152,0,0,7.0715152,2714.867,1607.4986)">
      <path
         sodipodi:nodetypes="sssssssss"
         style="color:#000000;font-style:normal;font-variant:normal;font-weight:normal;font-stretch:normal;font-size:medium;line-height:normal;font-family:sans-serif;font-variant-ligatures:normal;font-variant-position:normal;font-variant-caps:normal;font-variant-numeric:normal;font-variant-alternates:normal;font-variant-east-asian:normal;font-feature-settings:normal;font-variation-settings:normal;text-indent:0;text-align:start;text-decoration:none;text-decoration-line:none;text-decoration-style:solid;text-decoration-color:#000000;letter-spacing:normal;word-spacing:normal;text-transform:none;writing-mode:lr-tb;direction:ltr;text-orientation:mixed;dominant-baseline:auto;baseline-shift:baseline;text-anchor:start;white-space:normal;shape-padding:0;shape-margin:0;inline-size:0;clip-rule:nonzero;display:inline;overflow:visible;visibility:visible;isolation:auto;mix-blend-mode:normal;color-interpolation:sRGB;color-interpolation-filters:linearRGB;solid-color:#000000;solid-opacity:1;vector-effect:none;fill:#ffffff;fill-opacity:1;fill-rule:nonzero;stroke:none;stroke-width:0.0249436;stroke-linecap:butt;stroke-linejoin:miter;stroke-miterlimit:22.926;stroke-dasharray:none;stroke-dashoffset:0;stroke-opacity:1;color-rendering:auto;image-rendering:auto;shape-rendering:auto;text-rendering:auto;enable-background:accumulate;stop-color:#000000;stop-opacity:1"
         d="m -447.58847,-268.54514 h 19.04586 c 0.88746,0 1.61231,0.72623 1.61231,1.61231 v 28.10176 c 0,0.88608 -0.72485,1.61231 -1.61231,1.61231 h -19.04586 c -0.88746,0 -1.61369,-0.72623 -1.61369,-1.61231 v -28.10176 c 0,-0.88608 0.72623,-1.61231 1.61369,-1.61231 z"
         id="path3364" />
      <path
         sodipodi:nodetypes="ssssssssssssssssss"
         style="color:#000000;font-style:normal;font-variant:normal;font-weight:normal;font-stretch:normal;font-size:medium;line-height:normal;font-family:sans-serif;font-variant-ligatures:normal;font-variant-position:normal;font-variant-caps:normal;font-variant-numeric:normal;font-variant-alternates:normal;font-variant-east-asian:normal;font-feature-settings:normal;font-variation-settings:normal;text-indent:0;text-align:start;text-decoration:none;text-decoration-line:none;text-decoration-style:solid;text-decoration-color:#000000;letter-spacing:normal;word-spacing:normal;text-transform:none;writing-mode:lr-tb;direction:ltr;text-orientation:mixed;dominant-baseline:auto;baseline-shift:baseline;text-anchor:start;white-space:normal;shape-padding:0;shape-margin:0;inline-size:0;clip-rule:nonzero;display:inline;overflow:visible;visibility:visible;isolation:auto;mix-blend-mode:normal;color-interpolation:sRGB;color-interpolation-filters:linearRGB;solid-color:#000000;solid-opacity:1;vector-effect:none;fill:#000000;fill-opacity:1;fill-rule:nonzero;stroke:none;stroke-width:0.0249436;stroke-linecap:butt;stroke-linejoin:miter;stroke-miterlimit:22.926;stroke-dasharray:none;stroke-dashoffset:0;stroke-opacity:1;color-rendering:auto;image-rendering:auto;shape-rendering:auto;text-rendering:auto;enable-background:accumulate;stop-color:#000000;stop-opacity:1"
         d="m -447.58789,-268.63281 c -0.93558,0 -1.70313,0.76495 -1.70313,1.69922 v 28.10334 c 0,0.93427 0.76755,1.69922 1.70313,1.69922 h 19.04492 c 0.93558,0 1.70117,-0.76504 1.70117,-1.69922 v -28.10334 c 0,-0.93418 -0.76559,-1.69922 -1.70117,-1.69922 z m 0,0.17578 h 19.04492 c 0.83935,0 1.52539,0.68545 1.52539,1.52344 v 28.10334 c 0,0.83799 -0.68604,1.52344 -1.52539,1.52344 h -19.04492 c -0.83935,0 -1.52539,-0.68555 -1.52539,-1.52344 v -28.10334 c 0,-0.83789 0.68604,-1.52344 1.52539,-1.52344 z"
         id="path3366" />
    </g>
    <path
       sodipodi:nodetypes="cssssccccccccc"
       transform="matrix(0.26458333,0,0,0.26458333,-462.30128,-292.1424)"
       d="M 42.447266,21.865234 C 32.613351,22.079156 22.080078,29.119099 22.080078,43.298828 V 799.49414 c 0,8.80252 7.438867,20.58789 21.802734,20.58789 H 557.19531 c 12.89069,0 20.771,-11.82103 20.73438,-21.21289 l 0.0273,-755.607421 C 578.14404,28.940422 567.32077,22.275242 557.45312,21.865234 Z M 92.669922,92.632812 H 507.47852 V 508.33203 H 92.669922 Z"
       style="fill:#263894;fill-opacity:1;fill-rule:evenodd;stroke:none;stroke-width:1.33333"
       id="path1968" />
    <g
       id="g2362"
       style="opacity:1"
       inkscape:groupmode="layer">
      <path
         sodipodi:nodetypes="ccccccccsscccsscccccccccccccsssccscccccsccssscccscsssssssscccccssssssssccssssscsssssccccccccccccccccccccccccccccccccccccccc"
         id="path4020"
         style="opacity:1;fill:#000000;fill-opacity:1;fill-rule:evenodd;stroke:none;stroke-width:0.352777"
         d="m -426.51807,-248.01694 v 26.72691 h 4.07027 v -11.45704 h 5.26415 l 5.49173,11.45704 h 4.79407 l -6.15953,-11.86291 c 3.10401,-1.04254 5.19326,-3.95427 5.19326,-7.23092 0,-4.21991 -3.41989,-7.63308 -7.64813,-7.63308 z m 55.00679,0 v 9.78895 c -1.23364,-1.51917 -3.0717,-2.39418 -5.02165,-2.39418 -3.57163,0 -6.45798,2.88072 -6.45798,6.4453 v 6.68357 c -3e-5,1.94612 0.87671,3.78055 2.39888,5.01177 2.76574,2.23408 6.83234,1.79964 9.08075,-0.96066 v 2.15216 h 3.82033 v -26.72691 z m 10.03957,0 v 3.81281 h 3.83152 v -3.81281 z m -60.97609,3.57451 h 6.69678 c 2.24841,0 4.0591,1.81457 4.0591,4.05857 0,2.23407 -1.81069,4.05111 -4.0591,4.05111 h -6.69678 z m 26.53341,3.67132 c -0.9041,0 -1.80694,0.0795 -2.69737,0.2383 -1.60177,0.27803 -3.012,1.19152 -3.91732,2.53195 l 3.01446,2.39418 c 0.30842,-0.61562 0.88298,-1.04378 1.55948,-1.1729 1.35303,-0.22825 2.73591,-0.22825 4.08896,0 1.02471,0.18874 1.78331,1.07238 1.78331,2.11493 v 1.91758 h -5.74169 c -3.16371,-2e-5 -5.73049,2.56295 -5.73049,5.73037 0,3.15746 2.56678,5.72667 5.73049,5.72667 h 2.3989 c 1.39282,0 2.66627,-0.75213 3.34279,-1.97343 v 1.97343 h 3.82781 v -13.37462 c 0,-2.88938 -2.08925,-5.37171 -4.9545,-5.86816 -0.89539,-0.15881 -1.80073,-0.2383 -2.70483,-0.2383 z m 51.41406,0.14889 c -4.34761,0 -7.8869,3.52608 -7.8869,7.87509 v 3.81281 c 0,4.35889 3.53929,7.88254 7.8869,7.88254 4.36752,0 7.9018,-3.52365 7.9018,-7.88254 v -3.81281 c 0,-4.34901 -3.53428,-7.87509 -7.9018,-7.87509 z m -16.97138,0.2383 v 19.09383 h 3.83152 v -19.09383 z m -13.86737,3.57451 c 2.10913,0 3.8278,1.719 3.8278,3.82398 v 4.30057 c 0,2.10498 -1.71867,3.82026 -3.8278,3.82026 -2.11908,0 -3.83151,-1.71528 -3.83151,-3.82026 v -4.30057 c 0,-2.10498 1.71243,-3.82398 3.83151,-3.82398 z m 30.83875,0 c 2.24842,0 4.0703,1.81829 4.07028,4.06228 v 3.81281 c 2e-5,2.24396 -1.82186,4.06972 -4.07028,4.06972 -2.23846,0 -4.0591,-1.82576 -4.0591,-4.06972 v -3.81281 c 0,-2.24399 1.82064,-4.06228 4.0591,-4.06228 z m -53.08546,7.17134 h 5.50292 v 2.38301 c 0,1.31065 -1.07448,2.39046 -2.3877,2.39046 h -3.11522 c -1.31322,0 -2.3877,-1.07981 -2.3877,-2.39046 0,-1.32057 1.07448,-2.38301 2.3877,-2.38301 z m -12.24819,29.40036 -9.84929,26.83861 h 4.32026 l 2.02955,-5.99846 h 10.35667 l 2.01836,5.99846 h 4.31653 l -9.8381,-26.83861 z m 25.42908,0 -9.8269,26.83861 h 4.30534 l 2.02955,-5.99846 h 10.35667 l 2.02208,5.99846 h 4.31654 l -9.8381,-26.83861 z m 25.45147,0 -9.84182,26.83861 h 4.32024 l 2.01838,-5.99846 h 10.35667 l 2.02955,5.99846 h 4.30906 l -9.84182,-26.83861 z m -49.20916,5.5107 3.96958,11.73631 h -7.92794 z m 25.44028,0 3.96955,11.73631 h -7.9391 z m 25.44775,0 3.96208,11.73631 h -7.93166 z" />
      <path
         id="path4026"
         style="opacity:1;fill:#ffffff;fill-opacity:1;fill-rule:evenodd;stroke:none;stroke-width:0.352777"
         d="m -397.03736,-138.54011 v 18.00288 h 2.73467 v -7.71497 h 7.56978 v -2.41282 h -7.56978 v -5.30218 h 8.85318 v -2.57291 z m 14.16583,0 v 18.00288 h 2.73467 v -11.4198 l 3.86136,8.83944 h 2.25713 l 3.86136,-8.83944 v 11.4198 h 2.74587 v -18.00288 h -2.57796 l -5.15224,11.72887 -5.15223,-11.72887 z m -10.71485,27.27797 c -2.8553,0 -5.18207,2.31228 -5.18207,5.1719 v 8.083618 c 0,2.849668 2.32677,5.160679 5.18207,5.160679 2.86525,0 5.17461,-2.311011 5.17461,-5.160679 v -8.083618 c 0,-2.85962 -2.30936,-5.1719 -5.17461,-5.1719 z m 13.91959,0 c -2.86524,0 -5.18579,2.31228 -5.18579,5.1719 v 8.083618 c 0,2.849668 2.32055,5.160679 5.18579,5.160679 2.8553,0 5.17088,-2.311011 5.17088,-5.160679 v -8.083618 c 0,-2.85962 -2.31558,-5.1719 -5.17088,-5.1719 z m 18.44504,0 c -2.85532,0 -5.1746,2.31228 -5.1746,5.1719 v 8.083618 c 0,2.849668 2.31928,5.160679 5.1746,5.160679 2.86525,0 5.18207,-2.311011 5.18207,-5.160679 v -8.083618 c 0,-2.85962 -2.31682,-5.1719 -5.18207,-5.1719 z m -44.3442,0.16761 -2.58544,1.93618 v 2.74045 l 2.58544,-1.93618 v 15.35175 h 2.58916 v -18.0922 z m 11.97957,2.42393 c 1.43263,0 2.59662,1.15055 2.59665,2.58036 v 8.083618 c 0,1.41986 -1.16402,2.580322 -2.59665,2.580322 -1.43262,0 -2.58544,-1.160462 -2.58544,-2.580322 v -8.083618 c 0,-1.42981 1.15282,-2.58036 2.58544,-2.58036 z m 13.91959,0 c 1.42267,0 2.58543,1.15055 2.58543,2.58036 v 8.083618 c 0,1.41986 -1.16276,2.580322 -2.58543,2.580322 -1.43262,0 -2.58917,-1.160462 -2.58917,-2.580322 v -8.083618 c 0,-1.42981 1.15655,-2.58036 2.58917,-2.58036 z m 18.44504,0 c 1.43263,0 2.59662,1.15055 2.59662,2.58036 v 8.083618 c 0,1.41986 -1.16399,2.580322 -2.59662,2.580322 -1.42269,0 -2.58917,-1.160462 -2.58917,-2.580322 v -8.083618 c 0,-1.42981 1.16648,-2.58036 2.58917,-2.58036 z m -10.68499,13.076729 v 4.527727 l 2.59662,-1.936186 v -2.591541 z" />
    </g>
  </g>
</svg>
