<?xml version="1.0" encoding="UTF-8" standalone="no"?>
<svg
   xmlns:dc="http://purl.org/dc/elements/1.1/"
   xmlns:cc="http://creativecommons.org/ns#"
   xmlns:rdf="http://www.w3.org/1999/02/22-rdf-syntax-ns#"
   xmlns:svg="http://www.w3.org/2000/svg"
   xmlns="http://www.w3.org/2000/svg"
   xmlns:sodipodi="http://sodipodi.sourceforge.net/DTD/sodipodi-0.dtd"
   xmlns:inkscape="http://www.inkscape.org/namespaces/inkscape"
   sodipodi:docname="Latvia_road_sign_628.svg"
   inkscape:version="1.0 (4035a4fb49, 2020-05-01)"
   id="svg6774"
   version="1.1"
   viewBox="0 0 158.74999 158.73614"
   height="158.73615mm"
   width="158.75mm">
  <defs
     id="defs6768" />
  <sodipodi:namedview
     inkscape:window-maximized="1"
     inkscape:window-y="-9"
     inkscape:window-x="-9"
     inkscape:window-height="1001"
     inkscape:window-width="1920"
     fit-margin-bottom="0"
     fit-margin-right="0"
     fit-margin-left="0"
     fit-margin-top="0"
     showgrid="false"
     inkscape:document-rotation="0"
     inkscape:current-layer="g2362"
     inkscape:document-units="mm"
     inkscape:cy="214.95895"
     inkscape:cx="469.74594"
     inkscape:zoom="0.81967018"
     inkscape:pageshadow="2"
     inkscape:pageopacity="0.0"
     borderopacity="1.0"
     bordercolor="#666666"
     pagecolor="#ffffff"
     id="base" />
  <metadata
     id="metadata6771">
    <rdf:RDF>
      <cc:Work
         rdf:about="">
        <dc:format>image/svg+xml</dc:format>
        <dc:type
           rdf:resource="http://purl.org/dc/dcmitype/StillImage" />
        <dc:title></dc:title>
      </cc:Work>
    </rdf:RDF>
  </metadata>
  <g
     transform="translate(462.30128,292.1424)"
     id="layer1"
     inkscape:groupmode="layer"
     inkscape:label="Layer 1">
    <g
       transform="matrix(7.0715152,0,0,7.0715152,2714.867,1607.4986)"
       style="opacity:1;stroke-width:0.141412"
       id="g3362">
      <path
         id="path3364"
         d="m -447.58847,-268.54514 h 19.04586 c 0.88746,0 1.61231,0.72623 1.61231,1.61231 v 19.04724 c 0,0.88608 -0.72485,1.61231 -1.61231,1.61231 h -19.04586 c -0.88746,0 -1.61369,-0.72623 -1.61369,-1.61231 v -19.04724 c 0,-0.88608 0.72623,-1.61231 1.61369,-1.61231 z m 0,0"
         style="color:#000000;font-style:normal;font-variant:normal;font-weight:normal;font-stretch:normal;font-size:medium;line-height:normal;font-family:sans-serif;font-variant-ligatures:normal;font-variant-position:normal;font-variant-caps:normal;font-variant-numeric:normal;font-variant-alternates:normal;font-variant-east-asian:normal;font-feature-settings:normal;font-variation-settings:normal;text-indent:0;text-align:start;text-decoration:none;text-decoration-line:none;text-decoration-style:solid;text-decoration-color:#000000;letter-spacing:normal;word-spacing:normal;text-transform:none;writing-mode:lr-tb;direction:ltr;text-orientation:mixed;dominant-baseline:auto;baseline-shift:baseline;text-anchor:start;white-space:normal;shape-padding:0;shape-margin:0;inline-size:0;clip-rule:nonzero;display:inline;overflow:visible;visibility:visible;isolation:auto;mix-blend-mode:normal;color-interpolation:sRGB;color-interpolation-filters:linearRGB;solid-color:#000000;solid-opacity:1;vector-effect:none;fill:#ffffff;fill-opacity:1;fill-rule:nonzero;stroke:none;stroke-width:0.0249436;stroke-linecap:butt;stroke-linejoin:miter;stroke-miterlimit:22.926;stroke-dasharray:none;stroke-dashoffset:0;stroke-opacity:1;color-rendering:auto;image-rendering:auto;shape-rendering:auto;text-rendering:auto;enable-background:accumulate;stop-color:#000000;stop-opacity:1" />
      <path
         id="path3366"
         d="m -447.58789,-268.63281 c -0.93558,0 -1.70313,0.76495 -1.70313,1.69922 v 19.04882 c 0,0.93427 0.76755,1.69922 1.70313,1.69922 h 19.04492 c 0.93558,0 1.70117,-0.76504 1.70117,-1.69922 v -19.04882 c 0,-0.93418 -0.76559,-1.69922 -1.70117,-1.69922 z m 0,0.17578 h 19.04492 c 0.83935,0 1.52539,0.68545 1.52539,1.52344 v 19.04882 c 0,0.83799 -0.68604,1.52344 -1.52539,1.52344 h -19.04492 c -0.83935,0 -1.52539,-0.68555 -1.52539,-1.52344 v -19.04882 c 0,-0.83789 0.68604,-1.52344 1.52539,-1.52344 z"
         style="color:#000000;font-style:normal;font-variant:normal;font-weight:normal;font-stretch:normal;font-size:medium;line-height:normal;font-family:sans-serif;font-variant-ligatures:normal;font-variant-position:normal;font-variant-caps:normal;font-variant-numeric:normal;font-variant-alternates:normal;font-variant-east-asian:normal;font-feature-settings:normal;font-variation-settings:normal;text-indent:0;text-align:start;text-decoration:none;text-decoration-line:none;text-decoration-style:solid;text-decoration-color:#000000;letter-spacing:normal;word-spacing:normal;text-transform:none;writing-mode:lr-tb;direction:ltr;text-orientation:mixed;dominant-baseline:auto;baseline-shift:baseline;text-anchor:start;white-space:normal;shape-padding:0;shape-margin:0;inline-size:0;clip-rule:nonzero;display:inline;overflow:visible;visibility:visible;isolation:auto;mix-blend-mode:normal;color-interpolation:sRGB;color-interpolation-filters:linearRGB;solid-color:#000000;solid-opacity:1;vector-effect:none;fill:#000000;fill-opacity:1;fill-rule:nonzero;stroke:none;stroke-width:0.0249436;stroke-linecap:butt;stroke-linejoin:miter;stroke-miterlimit:22.926;stroke-dasharray:none;stroke-dashoffset:0;stroke-opacity:1;color-rendering:auto;image-rendering:auto;shape-rendering:auto;text-rendering:auto;enable-background:accumulate;stop-color:#000000;stop-opacity:1" />
    </g>
    <path
       id="path1968"
       style="fill:#263894;fill-opacity:1;fill-rule:evenodd;stroke:none;stroke-width:1.33333"
       d="M 42.447266,21.865234 C 32.613351,22.079156 22.080078,29.119099 22.080078,43.298828 V 557.49414 c 0,8.80252 7.438867,20.58789 21.802734,20.58789 H 557.19531 c 12.89069,0 20.771,-11.82103 20.73438,-21.21289 l 0.0273,-513.607421 C 578.14404,28.940422 567.32077,22.275242 557.45312,21.865234 Z M 92.669922,92.632812 H 507.47852 V 508.33203 H 92.669922 Z"
       transform="matrix(0.26458333,0,0,0.26458333,-462.30128,-292.1424)" />
    <g
       inkscape:groupmode="layer"
       style="opacity:1"
       id="g2362">
      <path
         style="fill:none;stroke:#211e1e;stroke-width:0.0762;stroke-linecap:butt;stroke-linejoin:miter;stroke-miterlimit:22.926;stroke-opacity:1"
         d="m -342.9027,-155.75129 c -0.12758,-0.22554 0.44149,-0.13738 0.22555,0.0884 z m 0,0"
         id="path5794" />
      <path
         style="fill:#000000;fill-opacity:1;fill-rule:evenodd;stroke:none;stroke-width:0.352777"
         d="m -434.56426,-177.65202 -0.0201,-13.2259 c 4.96461,4.54272 9.93905,4.68009 14.80556,0.26489 4.85671,4.23857 8.43791,4.30727 14.00103,-0.0294 6.08315,4.52311 8.79111,4.1797 14.81538,-0.0884 4.43479,4.425 10.33152,4.38574 14.63876,0.0884 4.73897,4.33668 10.05681,4.26799 14.06973,0.0686 4.53289,4.1797 10.15491,4.32689 14.95273,-0.0686 5.47483,4.65065 10.51793,4.24837 15.02142,-0.17657 v 13.16705 c -34.05574,0 -68.21944,0 -102.285,0 z m 94.61239,-12.28399 c -2.78645,0 -5.31781,-1.32458 -7.34881,-3.06119 -5.9752,3.45365 -9.03639,3.46344 -14.81539,0 -4.86651,3.49288 -9.27186,3.66948 -14.12857,0.0784 -4.5329,3.32608 -9.94886,3.37516 -14.65838,-0.18637 -6.25975,3.45365 -9.1149,3.30646 -14.93314,0.47096 -5.10198,2.74722 -9.21298,3.0808 -13.94215,-0.36303 -0.93208,0.89283 -2.05059,1.69739 -3.36534,2.07021 l -10.60625,-34.76217 36.52825,0.0201 2.32533,-4.21893 h 22.28195 v 4.21893 l 40.27624,-0.0392 0.0588,4.0129 h -97.56565 l 6.44617,22.03665 h 8.93827 c -4.07176,-2.08985 -2.08984,-6.54428 0.96153,-6.54428 3.07101,0 5.07254,4.21896 1.11853,6.54428 h 22.9491 c -3.73818,-1.58946 -2.5706,-6.52464 0.87323,-6.54428 3.02196,0 5.42577,4.425 0.91247,6.54428 h 19.47585 c -3.61063,-1.58946 -2.16834,-6.35786 1.18718,-6.35786 3.48309,0 4.47405,4.89595 1.17738,6.35786 h 22.79214 c -3.80685,-1.73662 -1.99174,-6.33824 1.17739,-6.35786 3.03175,-0.0201 4.94499,4.5231 1.14794,6.35786 l 8.40847,-0.0101 0.0294,6.37747 c -2.62949,2.14873 -4.268,3.35554 -7.70203,3.35554 z m 2.23704,-12.66666 c -0.0201,-1.57966 -0.52983,-2.33515 -1.63854,-3.50271 h 6.96618 l -1.98192,3.50271 z m -25.17634,0 c -0.0294,-1.46191 -0.53963,-2.73743 -1.51097,-3.50271 h 20.0351 c -1.197,1.08907 -1.65815,1.92305 -1.7857,3.50271 z m -11.78363,-0.96155 -0.73584,-2.51175 h 5.98501 c -1.04983,0.77513 -1.88381,1.89364 -1.76608,3.4733 z m -0.75548,-3.38496 c -0.1374,0 0.84379,-1.7857 1.59927,-1.93286 l 7.78054,-0.6672 7.78051,-6.68162 h 12.79421 l 5.18048,6.68162 h 7.05449 l 1.04983,2.60006 z m 11.2538,-2.60006 5.65143,-5.00387 4.07179,-0.0201 v 5.02349 z m 11.05759,0 v -5.02349 l 5.57293,0.0201 3.49289,5.00387 z m -40.58041,-22.80193 4.6114,-9.38961 16.47353,3.64986 v 5.73975 z m 9.4779,29.7485 c -0.0588,-1.57966 -0.47095,-2.52157 -1.73662,-3.50271 h 6.9171 l -1.95248,3.50271 z m -25.00954,0 c -0.0686,-1.49135 -0.50038,-2.78649 -1.72682,-3.50271 h 19.98604 c -1.30492,0.93209 -1.68756,2.45287 -1.63851,3.50271 z m -12.10739,-1.09889 -0.73587,-2.40382 h 5.94579 c -1.04984,0.81434 -1.50118,1.92305 -1.56985,3.41439 z m -0.74569,-3.23782 c -0.14718,0 0.834,-1.92304 1.58949,-2.07021 l 7.78051,-0.66719 7.78054,-6.69145 h 12.80402 l 5.17066,6.69145 h 7.05447 l 1.0106,2.7374 z m 11.25381,-2.7374 5.64163,-5.00388 h 4.07177 v 5.00388 z m 11.05759,0 v -5.00388 h 5.57293 l 3.47327,5.00388 z m 32.74099,5.52388 c 0.72607,0 1.32457,0.5985 1.32457,1.32455 0,0.73586 -0.5985,1.32456 -1.32457,1.32456 -0.73587,0 -1.33437,-0.5887 -1.33437,-1.32456 0,-0.72605 0.5985,-1.32455 1.33437,-1.32455 z m 25.2156,-0.0294 c 0.72604,0 1.32454,0.5985 1.32454,1.32455 0,0.73586 -0.5985,1.33436 -1.32454,1.33436 -0.72607,0 -1.32457,-0.5985 -1.32457,-1.33436 0,-0.72605 0.5985,-1.32455 1.32457,-1.32455 z m -46.67338,-0.16677 c 0.72607,0 1.32457,0.59852 1.32457,1.32456 0,0.73587 -0.5985,1.33437 -1.32457,1.33437 -0.73584,0 -1.33436,-0.5985 -1.33436,-1.33437 0,-0.72604 0.59852,-1.32456 1.33436,-1.32456 z m -24.98009,0 c 0.73586,0 1.33436,0.59852 1.33436,1.32456 0,0.73587 -0.5985,1.33437 -1.33436,1.33437 -0.72605,0 -1.32455,-0.5985 -1.32455,-1.33437 0,-0.72604 0.5985,-1.32456 1.32455,-1.32456"
         id="path5914" />
    </g>
  </g>
</svg>
