<?xml version="1.0" encoding="UTF-8" standalone="no"?>
<svg
   xmlns:dc="http://purl.org/dc/elements/1.1/"
   xmlns:cc="http://creativecommons.org/ns#"
   xmlns:rdf="http://www.w3.org/1999/02/22-rdf-syntax-ns#"
   xmlns:svg="http://www.w3.org/2000/svg"
   xmlns="http://www.w3.org/2000/svg"
   xmlns:sodipodi="http://sodipodi.sourceforge.net/DTD/sodipodi-0.dtd"
   xmlns:inkscape="http://www.inkscape.org/namespaces/inkscape"
   sodipodi:docname="Latvia_road_sign_627.svg"
   inkscape:version="1.0 (4035a4fb49, 2020-05-01)"
   id="svg6774"
   version="1.1"
   viewBox="0 0 158.74999 158.73614"
   height="158.73615mm"
   width="158.75mm">
  <defs
     id="defs6768" />
  <sodipodi:namedview
     inkscape:window-maximized="1"
     inkscape:window-y="-9"
     inkscape:window-x="-9"
     inkscape:window-height="1001"
     inkscape:window-width="1920"
     fit-margin-bottom="0"
     fit-margin-right="0"
     fit-margin-left="0"
     fit-margin-top="0"
     showgrid="false"
     inkscape:document-rotation="0"
     inkscape:current-layer="g2362"
     inkscape:document-units="mm"
     inkscape:cy="214.95895"
     inkscape:cx="469.74594"
     inkscape:zoom="0.81967018"
     inkscape:pageshadow="2"
     inkscape:pageopacity="0.0"
     borderopacity="1.0"
     bordercolor="#666666"
     pagecolor="#ffffff"
     id="base" />
  <metadata
     id="metadata6771">
    <rdf:RDF>
      <cc:Work
         rdf:about="">
        <dc:format>image/svg+xml</dc:format>
        <dc:type
           rdf:resource="http://purl.org/dc/dcmitype/StillImage" />
        <dc:title></dc:title>
      </cc:Work>
    </rdf:RDF>
  </metadata>
  <g
     transform="translate(462.30128,292.1424)"
     id="layer1"
     inkscape:groupmode="layer"
     inkscape:label="Layer 1">
    <g
       transform="matrix(7.0715152,0,0,7.0715152,2714.867,1607.4986)"
       style="opacity:1;stroke-width:0.141412"
       id="g3362">
      <path
         id="path3364"
         d="m -447.58847,-268.54514 h 19.04586 c 0.88746,0 1.61231,0.72623 1.61231,1.61231 v 19.04724 c 0,0.88608 -0.72485,1.61231 -1.61231,1.61231 h -19.04586 c -0.88746,0 -1.61369,-0.72623 -1.61369,-1.61231 v -19.04724 c 0,-0.88608 0.72623,-1.61231 1.61369,-1.61231 z m 0,0"
         style="color:#000000;font-style:normal;font-variant:normal;font-weight:normal;font-stretch:normal;font-size:medium;line-height:normal;font-family:sans-serif;font-variant-ligatures:normal;font-variant-position:normal;font-variant-caps:normal;font-variant-numeric:normal;font-variant-alternates:normal;font-variant-east-asian:normal;font-feature-settings:normal;font-variation-settings:normal;text-indent:0;text-align:start;text-decoration:none;text-decoration-line:none;text-decoration-style:solid;text-decoration-color:#000000;letter-spacing:normal;word-spacing:normal;text-transform:none;writing-mode:lr-tb;direction:ltr;text-orientation:mixed;dominant-baseline:auto;baseline-shift:baseline;text-anchor:start;white-space:normal;shape-padding:0;shape-margin:0;inline-size:0;clip-rule:nonzero;display:inline;overflow:visible;visibility:visible;isolation:auto;mix-blend-mode:normal;color-interpolation:sRGB;color-interpolation-filters:linearRGB;solid-color:#000000;solid-opacity:1;vector-effect:none;fill:#ffffff;fill-opacity:1;fill-rule:nonzero;stroke:none;stroke-width:0.0249436;stroke-linecap:butt;stroke-linejoin:miter;stroke-miterlimit:22.926;stroke-dasharray:none;stroke-dashoffset:0;stroke-opacity:1;color-rendering:auto;image-rendering:auto;shape-rendering:auto;text-rendering:auto;enable-background:accumulate;stop-color:#000000;stop-opacity:1" />
      <path
         id="path3366"
         d="m -447.58789,-268.63281 c -0.93558,0 -1.70313,0.76495 -1.70313,1.69922 v 19.04882 c 0,0.93427 0.76755,1.69922 1.70313,1.69922 h 19.04492 c 0.93558,0 1.70117,-0.76504 1.70117,-1.69922 v -19.04882 c 0,-0.93418 -0.76559,-1.69922 -1.70117,-1.69922 z m 0,0.17578 h 19.04492 c 0.83935,0 1.52539,0.68545 1.52539,1.52344 v 19.04882 c 0,0.83799 -0.68604,1.52344 -1.52539,1.52344 h -19.04492 c -0.83935,0 -1.52539,-0.68555 -1.52539,-1.52344 v -19.04882 c 0,-0.83789 0.68604,-1.52344 1.52539,-1.52344 z"
         style="color:#000000;font-style:normal;font-variant:normal;font-weight:normal;font-stretch:normal;font-size:medium;line-height:normal;font-family:sans-serif;font-variant-ligatures:normal;font-variant-position:normal;font-variant-caps:normal;font-variant-numeric:normal;font-variant-alternates:normal;font-variant-east-asian:normal;font-feature-settings:normal;font-variation-settings:normal;text-indent:0;text-align:start;text-decoration:none;text-decoration-line:none;text-decoration-style:solid;text-decoration-color:#000000;letter-spacing:normal;word-spacing:normal;text-transform:none;writing-mode:lr-tb;direction:ltr;text-orientation:mixed;dominant-baseline:auto;baseline-shift:baseline;text-anchor:start;white-space:normal;shape-padding:0;shape-margin:0;inline-size:0;clip-rule:nonzero;display:inline;overflow:visible;visibility:visible;isolation:auto;mix-blend-mode:normal;color-interpolation:sRGB;color-interpolation-filters:linearRGB;solid-color:#000000;solid-opacity:1;vector-effect:none;fill:#000000;fill-opacity:1;fill-rule:nonzero;stroke:none;stroke-width:0.0249436;stroke-linecap:butt;stroke-linejoin:miter;stroke-miterlimit:22.926;stroke-dasharray:none;stroke-dashoffset:0;stroke-opacity:1;color-rendering:auto;image-rendering:auto;shape-rendering:auto;text-rendering:auto;enable-background:accumulate;stop-color:#000000;stop-opacity:1" />
    </g>
    <path
       id="path1968"
       style="fill:#263894;fill-opacity:1;fill-rule:evenodd;stroke:none;stroke-width:1.33333"
       d="M 42.447266,21.865234 C 32.613351,22.079156 22.080078,29.119099 22.080078,43.298828 V 557.49414 c 0,8.80252 7.438867,20.58789 21.802734,20.58789 H 557.19531 c 12.89069,0 20.771,-11.82103 20.73438,-21.21289 l 0.0273,-513.607421 C 578.14404,28.940422 567.32077,22.275242 557.45312,21.865234 Z M 92.669922,92.632812 H 507.47852 V 508.33203 H 92.669922 Z"
       transform="matrix(0.26458333,0,0,0.26458333,-462.30128,-292.1424)" />
    <g
       inkscape:groupmode="layer"
       style="opacity:1"
       id="g2362">
      <path
         style="fill:none;stroke:#211e1e;stroke-width:0.0762;stroke-linecap:butt;stroke-linejoin:miter;stroke-miterlimit:22.926;stroke-opacity:1"
         d="m -342.9027,-155.75129 c -0.12758,-0.22554 0.44149,-0.13738 0.22555,0.0884 z m 0,0"
         id="path5794" />
      <path
         style="fill:#000000;fill-opacity:1;fill-rule:evenodd;stroke:none;stroke-width:0.352777"
         d="m -365.87983,-170.09487 v -17.87548 h 32.84691 v 17.85586 z m -62.72109,-3.52211 -0.0588,-0.21575 z m 0,-12.24401 c 4.46395,4.513 10.39955,4.86621 15.44235,0.17656 4.96433,4.4149 9.8992,4.53265 15.29521,-0.0588 5.18015,4.61113 9.93844,4.51303 14.63785,0 5.80805,4.74849 9.909,4.59152 15.71706,-0.68674 l 0.0392,12.34211 h -61.13172 z m 15.93291,-2.10936 c 0.48072,-8.7317 -2.72744,-23.26164 -7.16198,-29.94288 2.04067,-4.56208 4.38549,-9.28111 7.6427,-13.09755 2.49197,-0.78487 4.85641,0.30414 7.368,1.26559 15.88383,7.85855 31.97371,20.05351 43.61925,36.29055 l 0.0201,3.91454 h -6.07295 c -4.84659,5.86693 -10.8705,5.65109 -15.93291,1.56975 -4.91526,4.08134 -9.72262,4.25795 -14.68693,0 -4.16964,4.14021 -9.33016,5.58241 -14.79482,0 z m 27.54901,-35.17208 v -1.73654 c -5.20959,-4.78772 -19.61201,-18.06187 -26.97998,-17.12984 -5.40583,0.68677 -9.30075,11.65534 -11.60632,15.50122 v -3.40436 c 2.57047,-5.58242 7.3778,-14.16697 12.07724,-13.9315 8.51585,0.42187 22.03529,12.74437 27.95124,17.82642 v 1.95236 c 2.29577,2.27613 7.56421,6.28881 9.39885,9.30075 v -8.05477 h 0.98111 v -11.03727 h -3.18854 l -0.0201,-2.00141 c 0.12759,-0.52979 1.04977,-0.25508 1.35392,0 1.21654,0.60828 1.80521,1.03995 2.77646,2.00141 4.51303,11.50819 11.10596,25.97928 11.10596,37.82106 -8.7317,-11.87121 -16.28611,-21.70174 -23.85029,-27.10753 z m -6.26918,-10.71353 v -1.17731 h 3.21798 v -6.80875 c 1.3441,-1.81502 3.1493,-2.72743 5.58241,-2.71764 2.82554,0.1178 3.91454,1.01054 5.36657,2.71764 v 7.98606 z m -3.51231,-3.35531 v -6.68123 h -1.21654 l -0.01,5.84728 -1.50105,-1.05956 v -4.78772 h -1.34411 l -0.01,3.80662 -1.54031,-1.17731 v -4.18924 h 2.8648 v -3.70854 h 1.55012 v 3.71834 h 2.69798 v 9.24188 z m 8.44721,0.4611 0.0101,-3.10025 c 1.14787,-1.9916 4.85641,-1.9916 7.4661,0 v 3.09044 c -2.59008,-1.36372 -5.95523,-1.67767 -7.4759,0.0101"
         id="path5798" />
    </g>
  </g>
</svg>
