<?xml version="1.0" encoding="UTF-8" standalone="no"?>
<svg
   xmlns:dc="http://purl.org/dc/elements/1.1/"
   xmlns:cc="http://creativecommons.org/ns#"
   xmlns:rdf="http://www.w3.org/1999/02/22-rdf-syntax-ns#"
   xmlns:svg="http://www.w3.org/2000/svg"
   xmlns="http://www.w3.org/2000/svg"
   xmlns:sodipodi="http://sodipodi.sourceforge.net/DTD/sodipodi-0.dtd"
   xmlns:inkscape="http://www.inkscape.org/namespaces/inkscape"
   width="158.75mm"
   height="158.73615mm"
   viewBox="0 0 158.74999 158.73614"
   version="1.1"
   id="svg6774"
   inkscape:version="1.0 (4035a4fb49, 2020-05-01)"
   sodipodi:docname="Latvia_road_sign_620.svg">
  <defs
     id="defs6768" />
  <sodipodi:namedview
     id="base"
     pagecolor="#ffffff"
     bordercolor="#666666"
     borderopacity="1.0"
     inkscape:pageopacity="0.0"
     inkscape:pageshadow="2"
     inkscape:zoom="0.57959434"
     inkscape:cx="740.67318"
     inkscape:cy="427.34009"
     inkscape:document-units="mm"
     inkscape:current-layer="g2362"
     inkscape:document-rotation="0"
     showgrid="false"
     fit-margin-top="0"
     fit-margin-left="0"
     fit-margin-right="0"
     fit-margin-bottom="0"
     inkscape:window-width="1920"
     inkscape:window-height="1001"
     inkscape:window-x="-9"
     inkscape:window-y="-9"
     inkscape:window-maximized="1" />
  <metadata
     id="metadata6771">
    <rdf:RDF>
      <cc:Work
         rdf:about="">
        <dc:format>image/svg+xml</dc:format>
        <dc:type
           rdf:resource="http://purl.org/dc/dcmitype/StillImage" />
        <dc:title></dc:title>
      </cc:Work>
    </rdf:RDF>
  </metadata>
  <g
     inkscape:label="Layer 1"
     inkscape:groupmode="layer"
     id="layer1"
     transform="translate(462.30128,292.1424)">
    <g
       id="g3362"
       style="opacity:1;stroke-width:0.141412"
       transform="matrix(7.0715152,0,0,7.0715152,2714.867,1607.4986)">
      <path
         style="color:#000000;font-style:normal;font-variant:normal;font-weight:normal;font-stretch:normal;font-size:medium;line-height:normal;font-family:sans-serif;font-variant-ligatures:normal;font-variant-position:normal;font-variant-caps:normal;font-variant-numeric:normal;font-variant-alternates:normal;font-variant-east-asian:normal;font-feature-settings:normal;font-variation-settings:normal;text-indent:0;text-align:start;text-decoration:none;text-decoration-line:none;text-decoration-style:solid;text-decoration-color:#000000;letter-spacing:normal;word-spacing:normal;text-transform:none;writing-mode:lr-tb;direction:ltr;text-orientation:mixed;dominant-baseline:auto;baseline-shift:baseline;text-anchor:start;white-space:normal;shape-padding:0;shape-margin:0;inline-size:0;clip-rule:nonzero;display:inline;overflow:visible;visibility:visible;isolation:auto;mix-blend-mode:normal;color-interpolation:sRGB;color-interpolation-filters:linearRGB;solid-color:#000000;solid-opacity:1;vector-effect:none;fill:#ffffff;fill-opacity:1;fill-rule:nonzero;stroke:none;stroke-width:0.0249436;stroke-linecap:butt;stroke-linejoin:miter;stroke-miterlimit:22.926;stroke-dasharray:none;stroke-dashoffset:0;stroke-opacity:1;color-rendering:auto;image-rendering:auto;shape-rendering:auto;text-rendering:auto;enable-background:accumulate;stop-color:#000000;stop-opacity:1"
         d="m -447.58847,-268.54514 h 19.04586 c 0.88746,0 1.61231,0.72623 1.61231,1.61231 v 19.04724 c 0,0.88608 -0.72485,1.61231 -1.61231,1.61231 h -19.04586 c -0.88746,0 -1.61369,-0.72623 -1.61369,-1.61231 v -19.04724 c 0,-0.88608 0.72623,-1.61231 1.61369,-1.61231 z m 0,0"
         id="path3364" />
      <path
         style="color:#000000;font-style:normal;font-variant:normal;font-weight:normal;font-stretch:normal;font-size:medium;line-height:normal;font-family:sans-serif;font-variant-ligatures:normal;font-variant-position:normal;font-variant-caps:normal;font-variant-numeric:normal;font-variant-alternates:normal;font-variant-east-asian:normal;font-feature-settings:normal;font-variation-settings:normal;text-indent:0;text-align:start;text-decoration:none;text-decoration-line:none;text-decoration-style:solid;text-decoration-color:#000000;letter-spacing:normal;word-spacing:normal;text-transform:none;writing-mode:lr-tb;direction:ltr;text-orientation:mixed;dominant-baseline:auto;baseline-shift:baseline;text-anchor:start;white-space:normal;shape-padding:0;shape-margin:0;inline-size:0;clip-rule:nonzero;display:inline;overflow:visible;visibility:visible;isolation:auto;mix-blend-mode:normal;color-interpolation:sRGB;color-interpolation-filters:linearRGB;solid-color:#000000;solid-opacity:1;vector-effect:none;fill:#000000;fill-opacity:1;fill-rule:nonzero;stroke:none;stroke-width:0.0249436;stroke-linecap:butt;stroke-linejoin:miter;stroke-miterlimit:22.926;stroke-dasharray:none;stroke-dashoffset:0;stroke-opacity:1;color-rendering:auto;image-rendering:auto;shape-rendering:auto;text-rendering:auto;enable-background:accumulate;stop-color:#000000;stop-opacity:1"
         d="m -447.58789,-268.63281 c -0.93558,0 -1.70313,0.76495 -1.70313,1.69922 v 19.04882 c 0,0.93427 0.76755,1.69922 1.70313,1.69922 h 19.04492 c 0.93558,0 1.70117,-0.76504 1.70117,-1.69922 v -19.04882 c 0,-0.93418 -0.76559,-1.69922 -1.70117,-1.69922 z m 0,0.17578 h 19.04492 c 0.83935,0 1.52539,0.68545 1.52539,1.52344 v 19.04882 c 0,0.83799 -0.68604,1.52344 -1.52539,1.52344 h -19.04492 c -0.83935,0 -1.52539,-0.68555 -1.52539,-1.52344 v -19.04882 c 0,-0.83789 0.68604,-1.52344 1.52539,-1.52344 z"
         id="path3366" />
    </g>
    <path
       transform="matrix(0.26458333,0,0,0.26458333,-462.30128,-292.1424)"
       d="M 42.447266,21.865234 C 32.613351,22.079156 22.080078,29.119099 22.080078,43.298828 V 557.49414 c 0,8.80252 7.438867,20.58789 21.802734,20.58789 H 557.19531 c 12.89069,0 20.771,-11.82103 20.73438,-21.21289 l 0.0273,-513.607421 C 578.14404,28.940422 567.32077,22.275242 557.45312,21.865234 Z M 92.669922,92.632812 H 507.47852 V 508.33203 H 92.669922 Z"
       style="fill:#263894;fill-opacity:1;fill-rule:evenodd;stroke:none;stroke-width:1.33333"
       id="path1968" />
    <g
       id="g2362"
       style="opacity:1"
       inkscape:groupmode="layer">
      <path
         id="path3816"
         style="fill:#000000;fill-opacity:1;fill-rule:evenodd;stroke:none;stroke-width:0.352777"
         d="m -429.08942,-227.11056 v 21.78155 h 3.31507 v -8.56546 h 5.25038 c 3.64987,0 6.60437,-2.95449 6.60437,-6.60437 0,-3.64987 -2.9545,-6.61172 -6.60437,-6.61172 z m 34.615,0 v 18.27883 c 0,1.93286 1.56985,3.50272 3.50272,3.50272 h 1.94268 v -2.92507 h -1.36503 c -0.53962,0 -0.97133,-0.43171 -0.97133,-0.97133 v -17.88515 z m 9.33075,0 v 3.10902 h 3.10902 v -3.10902 z m 22.49902,0 v 3.10902 h 3.12006 v -3.10902 z m 8.16072,0 v 3.10902 h 3.12006 v -3.10902 z m -71.29042,3.10902 h 5.05537 c 1.9329,0 3.50272,1.56004 3.50272,3.5027 0,1.93286 -1.56982,3.49168 -3.50272,3.49168 h -5.05537 z m 84.51755,2.79996 c -0.73583,0 -1.47048,0.0612 -2.19654,0.18386 -1.2951,0.23548 -2.4541,0.9787 -3.18997,2.06778 l 2.46146,1.94268 c 0.24529,-0.5004 0.71625,-0.8437 1.2657,-0.9419 1.09888,-0.19617 2.2272,-0.19617 3.32609,0 0.83398,0.14712 1.45334,0.87569 1.45334,1.72928 v 1.549 h -4.66906 c -2.58045,0 -4.67274,2.0886 -4.67274,4.66904 0,2.58042 2.09229,4.67273 4.67274,4.67273 h 1.94268 c 1.13814,0 2.17693,-0.62058 2.72638,-1.61154 v 1.61154 h 3.10165 v -10.89077 c 0,-2.36456 -1.69002,-4.38576 -4.02517,-4.79784 -0.72604,-0.12264 -1.46069,-0.18386 -2.19656,-0.18386 z m -63.91338,0.11397 c -3.54196,2e-5 -6.41673,2.87477 -6.41673,6.41675 v 3.10902 c 0,3.54195 2.87477,6.41672 6.41673,6.41672 3.55175,0 6.41672,-2.87477 6.41672,-6.41672 v -3.10902 c 0,-3.54198 -2.86497,-6.41675 -6.41672,-6.41675 z m 34.0263,0 c -3.86574,2e-5 -6.99437,3.13967 -6.99437,7.00544 v 1.94266 c 0,2.08006 0.92105,4.05216 2.52033,5.38653 2.98269,2.46268 7.38806,2.06043 9.86057,-0.91249 l -2.39157,-1.99051 c -0.73585,0.89286 -1.83722,1.40182 -2.99496,1.40182 -2.14872,2e-5 -3.88535,-1.73662 -3.88535,-3.88535 v -1.94266 c 0,-1.15777 0.52247,-2.25543 1.40549,-2.9913 1.64833,-1.37362 4.10122,-1.15037 5.47482,0.50776 l 2.39157,-1.99051 c -1.32458,-1.59928 -3.3065,-2.53137 -5.38653,-2.53139 z m -13.99979,0.19501 v 15.56351 h 3.10902 v -15.56351 z m 22.49902,0 v 15.56351 h 3.12006 v -15.56351 z m 8.16072,0 v 17.3075 c 0,0.85361 -0.69543,1.55268 -1.54899,1.55268 h -1.16636 v 2.92137 h 1.56004 c 2.36458,0 4.27537,-1.9108 4.27537,-4.27536 v -17.50619 z m -50.68625,2.91403 c 1.82494,0 3.3077,1.48277 3.3077,3.30771 v 3.10902 c 0,1.82492 -1.48276,3.3077 -3.3077,3.30768 -1.82494,0 -3.29667,-1.48276 -3.29667,-3.30768 v -3.10902 c 0,-1.82494 1.47173,-3.30771 3.29667,-3.30771 z m 62.54837,5.83906 h 4.48509 v 1.94269 c 0,1.07924 -0.87449,1.94266 -1.95372,1.94266 h -2.53137 c -1.06946,2e-5 -1.94268,-0.86342 -1.94268,-1.94266 0,-1.07927 0.87322,-1.94269 1.94268,-1.94269 z" />
    </g>
  </g>
</svg>
