<?xml version="1.0" encoding="UTF-8" standalone="no"?>
<svg
   xmlns:dc="http://purl.org/dc/elements/1.1/"
   xmlns:cc="http://creativecommons.org/ns#"
   xmlns:rdf="http://www.w3.org/1999/02/22-rdf-syntax-ns#"
   xmlns:svg="http://www.w3.org/2000/svg"
   xmlns="http://www.w3.org/2000/svg"
   xmlns:sodipodi="http://sodipodi.sourceforge.net/DTD/sodipodi-0.dtd"
   xmlns:inkscape="http://www.inkscape.org/namespaces/inkscape"
   width="158.75mm"
   height="158.73615mm"
   viewBox="0 0 158.74999 158.73614"
   version="1.1"
   id="svg6774"
   inkscape:version="1.0 (4035a4fb49, 2020-05-01)"
   sodipodi:docname="Latvia_road_sign_618.svg">
  <defs
     id="defs6768" />
  <sodipodi:namedview
     id="base"
     pagecolor="#ffffff"
     bordercolor="#666666"
     borderopacity="1.0"
     inkscape:pageopacity="0.0"
     inkscape:pageshadow="2"
     inkscape:zoom="1.1591887"
     inkscape:cx="362.75646"
     inkscape:cy="289.97665"
     inkscape:document-units="mm"
     inkscape:current-layer="g2362"
     inkscape:document-rotation="0"
     showgrid="false"
     fit-margin-top="0"
     fit-margin-left="0"
     fit-margin-right="0"
     fit-margin-bottom="0"
     inkscape:window-width="1920"
     inkscape:window-height="1001"
     inkscape:window-x="-9"
     inkscape:window-y="-9"
     inkscape:window-maximized="1" />
  <metadata
     id="metadata6771">
    <rdf:RDF>
      <cc:Work
         rdf:about="">
        <dc:format>image/svg+xml</dc:format>
        <dc:type
           rdf:resource="http://purl.org/dc/dcmitype/StillImage" />
        <dc:title></dc:title>
      </cc:Work>
    </rdf:RDF>
  </metadata>
  <g
     inkscape:label="Layer 1"
     inkscape:groupmode="layer"
     id="layer1"
     transform="translate(462.30128,292.1424)">
    <g
       id="g3362"
       style="opacity:1;stroke-width:0.141412"
       transform="matrix(7.0715152,0,0,7.0715152,2714.867,1607.4986)">
      <path
         style="color:#000000;font-style:normal;font-variant:normal;font-weight:normal;font-stretch:normal;font-size:medium;line-height:normal;font-family:sans-serif;font-variant-ligatures:normal;font-variant-position:normal;font-variant-caps:normal;font-variant-numeric:normal;font-variant-alternates:normal;font-variant-east-asian:normal;font-feature-settings:normal;font-variation-settings:normal;text-indent:0;text-align:start;text-decoration:none;text-decoration-line:none;text-decoration-style:solid;text-decoration-color:#000000;letter-spacing:normal;word-spacing:normal;text-transform:none;writing-mode:lr-tb;direction:ltr;text-orientation:mixed;dominant-baseline:auto;baseline-shift:baseline;text-anchor:start;white-space:normal;shape-padding:0;shape-margin:0;inline-size:0;clip-rule:nonzero;display:inline;overflow:visible;visibility:visible;isolation:auto;mix-blend-mode:normal;color-interpolation:sRGB;color-interpolation-filters:linearRGB;solid-color:#000000;solid-opacity:1;vector-effect:none;fill:#ffffff;fill-opacity:1;fill-rule:nonzero;stroke:none;stroke-width:0.0249436;stroke-linecap:butt;stroke-linejoin:miter;stroke-miterlimit:22.926;stroke-dasharray:none;stroke-dashoffset:0;stroke-opacity:1;color-rendering:auto;image-rendering:auto;shape-rendering:auto;text-rendering:auto;enable-background:accumulate;stop-color:#000000;stop-opacity:1"
         d="m -447.58847,-268.54514 h 19.04586 c 0.88746,0 1.61231,0.72623 1.61231,1.61231 v 19.04724 c 0,0.88608 -0.72485,1.61231 -1.61231,1.61231 h -19.04586 c -0.88746,0 -1.61369,-0.72623 -1.61369,-1.61231 v -19.04724 c 0,-0.88608 0.72623,-1.61231 1.61369,-1.61231 z m 0,0"
         id="path3364" />
      <path
         style="color:#000000;font-style:normal;font-variant:normal;font-weight:normal;font-stretch:normal;font-size:medium;line-height:normal;font-family:sans-serif;font-variant-ligatures:normal;font-variant-position:normal;font-variant-caps:normal;font-variant-numeric:normal;font-variant-alternates:normal;font-variant-east-asian:normal;font-feature-settings:normal;font-variation-settings:normal;text-indent:0;text-align:start;text-decoration:none;text-decoration-line:none;text-decoration-style:solid;text-decoration-color:#000000;letter-spacing:normal;word-spacing:normal;text-transform:none;writing-mode:lr-tb;direction:ltr;text-orientation:mixed;dominant-baseline:auto;baseline-shift:baseline;text-anchor:start;white-space:normal;shape-padding:0;shape-margin:0;inline-size:0;clip-rule:nonzero;display:inline;overflow:visible;visibility:visible;isolation:auto;mix-blend-mode:normal;color-interpolation:sRGB;color-interpolation-filters:linearRGB;solid-color:#000000;solid-opacity:1;vector-effect:none;fill:#000000;fill-opacity:1;fill-rule:nonzero;stroke:none;stroke-width:0.0249436;stroke-linecap:butt;stroke-linejoin:miter;stroke-miterlimit:22.926;stroke-dasharray:none;stroke-dashoffset:0;stroke-opacity:1;color-rendering:auto;image-rendering:auto;shape-rendering:auto;text-rendering:auto;enable-background:accumulate;stop-color:#000000;stop-opacity:1"
         d="m -447.58789,-268.63281 c -0.93558,0 -1.70313,0.76495 -1.70313,1.69922 v 19.04882 c 0,0.93427 0.76755,1.69922 1.70313,1.69922 h 19.04492 c 0.93558,0 1.70117,-0.76504 1.70117,-1.69922 v -19.04882 c 0,-0.93418 -0.76559,-1.69922 -1.70117,-1.69922 z m 0,0.17578 h 19.04492 c 0.83935,0 1.52539,0.68545 1.52539,1.52344 v 19.04882 c 0,0.83799 -0.68604,1.52344 -1.52539,1.52344 h -19.04492 c -0.83935,0 -1.52539,-0.68555 -1.52539,-1.52344 v -19.04882 c 0,-0.83789 0.68604,-1.52344 1.52539,-1.52344 z"
         id="path3366" />
    </g>
    <path
       transform="matrix(0.26458333,0,0,0.26458333,-462.30128,-292.1424)"
       d="M 42.447266,21.865234 C 32.613351,22.079156 22.080078,29.119099 22.080078,43.298828 V 557.49414 c 0,8.80252 7.438867,20.58789 21.802734,20.58789 H 557.19531 c 12.89069,0 20.771,-11.82103 20.73438,-21.21289 l 0.0273,-513.607421 C 578.14404,28.940422 567.32077,22.275242 557.45312,21.865234 Z M 92.669922,92.632812 H 507.47852 V 508.33203 H 92.669922 Z"
       style="fill:#263894;fill-opacity:1;fill-rule:evenodd;stroke:none;stroke-width:1.33333"
       id="path1968" />
    <g
       id="g2362"
       style="opacity:1"
       inkscape:groupmode="layer">
      <path
         style="fill:#000000;fill-opacity:1;fill-rule:evenodd;stroke:none;stroke-width:0.352777"
         d="m -428.41453,-197.37898 c 5.7688,4.92507 9.88939,4.97412 15.30501,0.64753 4.16964,4.22849 8.77095,4.23831 14.34354,-0.049 4.71903,4.2481 9.40865,4.33641 14.90276,0.0881 4.71905,4.28736 9.98749,4.19908 14.55938,-0.14718 3.99303,4.34624 9.56563,4.41491 14.16694,0.0784 4.84659,4.16962 10.73313,4.5032 15.55028,-0.66716 l 0.0201,15.14802 -88.84753,-0.0201 z m -0.049,-2.59008 v -3.76739 c 4.70924,4.62095 9.47734,4.56208 15.29519,0.37282 5.45488,4.08133 8.00569,4.15982 14.42203,0.0884 4.6798,3.96359 9.77165,3.99302 14.80465,0.21574 5.17034,3.71831 9.78147,3.91454 14.41221,-0.41207 5.6707,4.35605 10.00714,4.18925 14.31411,0.10799 5.8375,4.50321 11.26293,4.14021 15.6484,-1.35389 l -0.0201,4.74846 c -4.51303,4.48359 -10.72331,4.33644 -15.56011,0.89279 -4.27754,3.25724 -9.93844,3.46326 -14.17675,0.0784 -5.25864,3.36515 -9.5558,3.24741 -14.66729,-0.0784 -5.033,3.33573 -8.88867,3.17875 -14.77521,-0.0201 -5.17036,3.29646 -9.09473,3.41421 -14.40242,0.0686 -4.79752,3.46325 -9.66372,3.4142 -15.29519,-0.94185 z m 29.78589,-20.46553 c 9.86977,0.51016 12.6757,11.83193 6.76954,17.15927 -2.03087,-0.108 -4.94469,-1.00072 -6.81859,-3.11987 -1.93275,2.05048 -3.9538,2.82553 -6.70085,3.11987 -6.10236,-5.07223 -3.16893,-16.80609 6.7499,-17.15927 z m 14.19639,14.4024 c -0.65733,1.13807 -2.31539,2.60969 -3.78702,2.60969 l 1.55012,-12.53832 17.90491,-10.34069 15.1186,13.42131 c 3.05118,4.01267 -0.13739,8.34908 -4.42473,6.48501 l -11.33159,-9.86978 -7.58382,5.13111 6.80877,4.67 c -3.54175,4.44433 -10.52711,3.70851 -14.25524,0.43167"
         id="path2727" />
    </g>
  </g>
</svg>
