<?xml version="1.0" encoding="UTF-8" standalone="no"?>
<svg
   xmlns:dc="http://purl.org/dc/elements/1.1/"
   xmlns:cc="http://creativecommons.org/ns#"
   xmlns:rdf="http://www.w3.org/1999/02/22-rdf-syntax-ns#"
   xmlns:svg="http://www.w3.org/2000/svg"
   xmlns="http://www.w3.org/2000/svg"
   xmlns:sodipodi="http://sodipodi.sourceforge.net/DTD/sodipodi-0.dtd"
   xmlns:inkscape="http://www.inkscape.org/namespaces/inkscape"
   width="501.48868mm"
   height="195mm"
   viewBox="0 0 501.48868 195"
   version="1.1"
   id="svg3845"
   inkscape:version="1.0 (4035a4fb49, 2020-05-01)"
   sodipodi:docname="Latvia_road_sign_740.svg">
  <defs
     id="defs3839" />
  <sodipodi:namedview
     id="base"
     pagecolor="#ffffff"
     bordercolor="#666666"
     borderopacity="1.0"
     inkscape:pageopacity="0.0"
     inkscape:pageshadow="2"
     inkscape:zoom="0.29260408"
     inkscape:cx="755.90027"
     inkscape:cy="-49.41575"
     inkscape:document-units="mm"
     inkscape:current-layer="layer1"
     showgrid="false"
     inkscape:window-width="1920"
     inkscape:window-height="1001"
     inkscape:window-x="-9"
     inkscape:window-y="-9"
     inkscape:window-maximized="1"
     inkscape:document-rotation="0"
     showguides="false" />
  <metadata
     id="metadata3842">
    <rdf:RDF>
      <cc:Work
         rdf:about="">
        <dc:format>image/svg+xml</dc:format>
        <dc:type
           rdf:resource="http://purl.org/dc/dcmitype/StillImage" />
        <dc:title></dc:title>
      </cc:Work>
    </rdf:RDF>
  </metadata>
  <g
     inkscape:label="Layer 1"
     inkscape:groupmode="layer"
     id="layer1"
     transform="translate(-782.74621,-31.931176)">
    <path
       style="fill:#ffffff;fill-opacity:1;stroke:#000000;stroke-width:2.85355;stroke-linecap:butt;stroke-linejoin:miter;stroke-miterlimit:22.926;stroke-opacity:1"
       d="m 808.00468,33.357951 h 450.97192 c 13.1084,0 23.8315,10.700831 23.8315,23.809373 V 201.6727 c 0,13.10855 -10.7231,23.8317 -23.8315,23.8317 H 808.00468 c -13.10854,0 -23.8317,-10.72315 -23.8317,-23.8317 V 57.167324 c 0,-13.108542 10.72316,-23.809373 23.8317,-23.809373 z m 0,0"
       id="path2986" />
    <path
       style="fill:#70bd42;fill-opacity:1;fill-rule:evenodd;stroke:none;stroke-width:5.70708"
       d="m 990.3865,45.329532 h 265.6697 c 8.4714,0 15.3823,6.933231 15.3823,15.382464 V 198.15036 c 0,8.44923 -6.9109,15.36014 -15.3823,15.36014 H 990.3865 c -8.44924,0 -15.36014,-6.91091 -15.36014,-15.36014 V 60.711996 c 0,-8.449233 6.9109,-15.382464 15.36014,-15.382464"
       id="path2956" />
    <path
       style="fill:#ffffff;fill-opacity:1;fill-rule:evenodd;stroke:none;stroke-width:5.70708"
       d="M 1000.1731,179.93665 V 78.724937 h 65.0967 v 14.468431 h -49.7142 v 28.892052 h 42.4688 v 13.57672 h -42.4688 v 29.82841 h 49.7142 v 14.4461 h -65.0967"
       id="path2958" />
    <path
       style="fill:#ffffff;fill-opacity:1;fill-rule:evenodd;stroke:none;stroke-width:5.70708"
       d="m 1116.6782,179.93665 v -13.53207 l 40.2395,-50.67275 c 4.9713,-6.24213 3.9458,-15.35998 -2.3408,-20.331515 -6.2421,-4.949049 -15.3155,-3.923552 -20.3092,2.318573 -2.0288,2.585992 -3.1211,5.751622 -3.1211,9.006552 h -14.4684 c 0,-15.984433 12.9524,-28.936862 28.9368,-28.936862 15.962,0 28.8921,12.952429 28.8921,28.936862 0,6.57651 -2.207,12.95243 -6.309,18.07992 l -32.5483,40.68519 h 38.8573 v 14.4461 h -57.8289"
       id="path2960" />
    <path
       style="fill:#ffffff;fill-opacity:1;fill-rule:evenodd;stroke:none;stroke-width:5.70708"
       d="m 1192.6093,151.93631 v -45.21087 c 0,-15.984433 12.9524,-28.936862 28.9367,-28.936862 15.9398,0 28.8922,12.952429 28.8922,28.936862 v 45.21087 c 0,15.96195 -12.9524,28.9367 -28.8922,28.9367 -15.9843,0 -28.9367,-12.97475 -28.9367,-28.9367 z m 14.4685,0 c 0,7.98106 6.465,14.46827 14.4682,14.46827 7.9811,0 14.4685,-6.48721 14.4685,-14.46827 v -45.21087 c 0,-7.981055 -6.4874,-14.468431 -14.4685,-14.468431 -8.0032,0 -14.4682,6.487376 -14.4682,14.468431 v 45.21087"
       id="path2962" />
    <path
       style="fill:#211e1e;fill-opacity:1;fill-rule:evenodd;stroke:none;stroke-width:5.70708"
       d="m 1207.6797,213.55515 0.8477,-0.49018 -0.8477,0.49018"
       id="path2964" />
    <path
       style="fill:#263894;fill-opacity:1;fill-rule:evenodd;stroke:none;stroke-width:5.70708"
       d="m 811.10333,45.307207 h 138.35256 c 8.56054,0 15.56074,6.933231 15.56074,15.449278 V 198.08354 c 0,8.4714 -7.0002,15.42696 -15.56074,15.42696 H 811.10333 c -8.56053,0 -15.56074,-6.95556 -15.56074,-15.42696 V 60.756485 c 0,-8.516047 7.00021,-15.449278 15.56074,-15.449278"
       id="path2966" />
    <path
       style="fill:#ffffff;fill-opacity:1;fill-rule:evenodd;stroke:none;stroke-width:5.70708"
       d="m 869.64568,196.41143 v -77.87052 l -25.21375,7.17832 35.7363,-61.730139 35.31261,61.730139 -25.39219,-7.2453 -0.12942,77.9375 h -20.30919"
       id="path2968" />
    <path
       style="fill:none;stroke:#211e1e;stroke-width:2.85355;stroke-linecap:butt;stroke-linejoin:miter;stroke-miterlimit:22.926;stroke-opacity:1"
       d="m 808.00468,33.357951 h 450.97192 c 13.1084,0 23.8315,10.700831 23.8315,23.809373 V 201.6727 c 0,13.10855 -10.7231,23.8317 -23.8315,23.8317 H 808.00468 c -13.10854,0 -23.8317,-10.72315 -23.8317,-23.8317 V 57.167324 c 0,-13.108542 10.72316,-23.809373 23.8317,-23.809373 z m 0,0"
       id="path2970" />
    <path
       style="fill:#00a650;fill-opacity:1;fill-rule:evenodd;stroke:none;stroke-width:5.70708"
       d="m 990.3865,45.329532 h 265.6697 c 8.4714,0 15.3823,6.933231 15.3823,15.382464 V 198.15036 c 0,8.44923 -6.9109,15.36014 -15.3823,15.36014 H 990.3865 c -8.44924,0 -15.36014,-6.91091 -15.36014,-15.36014 V 60.711996 c 0,-8.449233 6.9109,-15.382464 15.36014,-15.382464"
       id="path2972" />
    <path
       style="fill:#ffffff;fill-opacity:1;fill-rule:evenodd;stroke:none;stroke-width:5.70708"
       d="M 1000.1731,179.93665 V 78.724937 h 65.0967 v 14.468431 h -49.7142 v 28.892052 h 42.4688 v 13.57672 h -42.4688 v 29.82841 h 49.7142 v 14.4461 h -65.0967"
       id="path2974" />
    <path
       style="fill:#ffffff;fill-opacity:1;fill-rule:evenodd;stroke:none;stroke-width:5.70708"
       d="m 1116.6782,179.93665 v -13.53207 l 40.2395,-50.67275 c 4.9713,-6.24213 3.9458,-15.35998 -2.3408,-20.331515 -6.2421,-4.949049 -15.3155,-3.923552 -20.3092,2.318573 -2.0288,2.585992 -3.1211,5.751622 -3.1211,9.006552 h -14.4684 c 0,-15.984433 12.9524,-28.936862 28.9368,-28.936862 15.962,0 28.8921,12.952429 28.8921,28.936862 0,6.57651 -2.207,12.95243 -6.309,18.07992 l -32.5483,40.68519 h 38.8573 v 14.4461 h -57.8289"
       id="path2976" />
    <path
       style="fill:#ffffff;fill-opacity:1;fill-rule:evenodd;stroke:none;stroke-width:5.70708"
       d="m 1192.6093,151.93631 v -45.21087 c 0,-15.984433 12.9524,-28.936862 28.9367,-28.936862 15.9398,0 28.8922,12.952429 28.8922,28.936862 v 45.21087 c 0,15.96195 -12.9524,28.9367 -28.8922,28.9367 -15.9843,0 -28.9367,-12.97475 -28.9367,-28.9367 z m 14.4685,0 c 0,7.98106 6.465,14.46827 14.4682,14.46827 7.9811,0 14.4685,-6.48721 14.4685,-14.46827 v -45.21087 c 0,-7.981055 -6.4874,-14.468431 -14.4685,-14.468431 -8.0032,0 -14.4682,6.487376 -14.4682,14.468431 v 45.21087"
       id="path2978" />
    <path
       style="fill:#211e1e;fill-opacity:1;fill-rule:evenodd;stroke:none;stroke-width:5.70708"
       d="m 1207.6797,213.55515 0.8477,-0.49018 -0.8477,0.49018"
       id="path2980" />
    <path
       style="fill:#263894;fill-opacity:1;fill-rule:evenodd;stroke:none;stroke-width:5.70708"
       d="m 811.10333,45.307207 h 138.35256 c 8.56054,0 15.56074,6.933231 15.56074,15.449278 V 198.08354 c 0,8.4714 -7.0002,15.42696 -15.56074,15.42696 H 811.10333 c -8.56053,0 -15.56074,-6.95556 -15.56074,-15.42696 V 60.756485 c 0,-8.516047 7.00021,-15.449278 15.56074,-15.449278"
       id="path2982" />
    <path
       style="fill:#ffffff;fill-opacity:1;fill-rule:evenodd;stroke:none;stroke-width:5.70708"
       d="m 869.64568,196.41143 v -77.87052 l -25.21375,7.17832 35.7363,-61.730139 35.31261,61.730139 -25.39219,-7.2453 -0.12942,77.9375 h -20.30919"
       id="path2984" />
  </g>
</svg>
