<?xml version="1.0" encoding="UTF-8" standalone="no"?>
<!-- Created with Inkscape (http://www.inkscape.org/) -->

<svg
   xmlns:dc="http://purl.org/dc/elements/1.1/"
   xmlns:cc="http://creativecommons.org/ns#"
   xmlns:rdf="http://www.w3.org/1999/02/22-rdf-syntax-ns#"
   xmlns:svg="http://www.w3.org/2000/svg"
   xmlns="http://www.w3.org/2000/svg"
   xmlns:sodipodi="http://sodipodi.sourceforge.net/DTD/sodipodi-0.dtd"
   xmlns:inkscape="http://www.inkscape.org/namespaces/inkscape"
   width="195mm"
   height="101.55856mm"
   viewBox="0 0 194.99999 101.55856"
   version="1.1"
   id="svg3845"
   inkscape:version="0.92.3 (2405546, 2018-03-11)"
   sodipodi:docname="Latvia_road_sign_732.svg">
  <defs
     id="defs3839" />
  <sodipodi:namedview
     id="base"
     pagecolor="#ffffff"
     bordercolor="#666666"
     borderopacity="1.0"
     inkscape:pageopacity="0.0"
     inkscape:pageshadow="2"
     inkscape:zoom="0.175"
     inkscape:cx="2891.4286"
     inkscape:cy="54.826865"
     inkscape:document-units="mm"
     inkscape:current-layer="layer1"
     showgrid="false"
     inkscape:window-width="1600"
     inkscape:window-height="838"
     inkscape:window-x="-8"
     inkscape:window-y="-8"
     inkscape:window-maximized="1" />
  <metadata
     id="metadata3842">
    <rdf:RDF>
      <cc:Work
         rdf:about="">
        <dc:format>image/svg+xml</dc:format>
        <dc:type
           rdf:resource="http://purl.org/dc/dcmitype/StillImage" />
        <dc:title></dc:title>
      </cc:Work>
    </rdf:RDF>
  </metadata>
  <g
     inkscape:label="Layer 1"
     inkscape:groupmode="layer"
     id="layer1"
     transform="translate(-620.35185,474.39188)">
    <path
       d="M 637.64667,-473.6733 H 798.0571 c 9.11736,0 16.57616,7.46182 16.57616,16.57917 v 66.96314 c 0,9.11735 -7.4588,16.57909 -16.57616,16.57909 H 637.64667 c -9.11735,0 -16.57624,-7.46174 -16.57624,-16.57909 v -66.96314 c 0,-9.11735 7.45889,-16.57917 16.57624,-16.57917 z"
       style="fill:#ffdd2e;fill-opacity:1;fill-rule:evenodd;stroke:#000000;stroke-width:1.43716276;stroke-linecap:butt;stroke-linejoin:miter;stroke-miterlimit:22.9260006;stroke-dasharray:none;stroke-opacity:1"
       id="path14237"
       inkscape:connector-curvature="0" />
    <g
       id="g14239"
       transform="matrix(-2.8756795,0,0,-2.8729719,79.834929,1312.9961)">
      <path
         d="m -248.84,619.288 h 53.948 c 1.977,0 3.594,-1.618 3.594,-3.595 v -22.459 c 0,-1.977 -1.617,-3.594 -3.594,-3.594 h -53.948 c -1.977,0 -3.595,1.617 -3.595,3.594 v 22.459 c 0,1.977 1.618,3.595 3.595,3.595 z"
         style="fill:#ffdd2e;fill-opacity:1;fill-rule:evenodd;stroke:#000000;stroke-width:1.41100001;stroke-linecap:butt;stroke-linejoin:miter;stroke-miterlimit:22.9260006;stroke-dasharray:none;stroke-opacity:1"
         id="path14241"
         inkscape:connector-curvature="0" />
    </g>
    <path
       d="m 744.2296,-391.48196 v -24.58982 c 0.0407,-16.36644 -10.60626,-25.9408 -26.61339,-27.92696 l -10.7644,-0.11814 3.65326,-15.05572 -37.18225,21.29294 36.94368,21.6868 -3.57561,-15.01547 12.67292,0.0815 c 6.47294,0.0407 12.15547,6.1568 12.15547,12.55217 l 0.11814,27.09337 h 12.59243"
       style="fill:#000000;fill-opacity:1;fill-rule:evenodd;stroke:none;stroke-width:2.87432551"
       id="path14243"
       inkscape:connector-curvature="0" />
  </g>
</svg>
