<?xml version="1.0" encoding="UTF-8" standalone="no"?>
<svg
   xmlns:dc="http://purl.org/dc/elements/1.1/"
   xmlns:cc="http://creativecommons.org/ns#"
   xmlns:rdf="http://www.w3.org/1999/02/22-rdf-syntax-ns#"
   xmlns:svg="http://www.w3.org/2000/svg"
   xmlns="http://www.w3.org/2000/svg"
   xmlns:sodipodi="http://sodipodi.sourceforge.net/DTD/sodipodi-0.dtd"
   xmlns:inkscape="http://www.inkscape.org/namespaces/inkscape"
   sodipodi:docname="Latvia_road_sign_703.svg"
   inkscape:version="1.0 (4035a4fb49, 2020-05-01)"
   id="svg6774"
   version="1.1"
   viewBox="0 0 219.58306 158.74999"
   height="158.75mm"
   width="219.58308mm">
  <defs
     id="defs6768" />
  <sodipodi:namedview
     inkscape:window-maximized="1"
     inkscape:window-y="-9"
     inkscape:window-x="-9"
     inkscape:window-height="1001"
     inkscape:window-width="1920"
     fit-margin-bottom="0"
     fit-margin-right="0"
     fit-margin-left="0"
     fit-margin-top="0"
     showgrid="false"
     inkscape:document-rotation="0"
     inkscape:current-layer="g4251"
     inkscape:document-units="mm"
     inkscape:cy="432.78061"
     inkscape:cx="444.30294"
     inkscape:zoom="0.73609692"
     inkscape:pageshadow="2"
     inkscape:pageopacity="0.0"
     borderopacity="1.0"
     bordercolor="#666666"
     pagecolor="#ffffff"
     id="base" />
  <metadata
     id="metadata6771">
    <rdf:RDF>
      <cc:Work
         rdf:about="">
        <dc:format>image/svg+xml</dc:format>
        <dc:type
           rdf:resource="http://purl.org/dc/dcmitype/StillImage" />
        <dc:title></dc:title>
      </cc:Work>
    </rdf:RDF>
  </metadata>
  <g
     transform="translate(-541.44643,577.8952)"
     id="layer1"
     inkscape:groupmode="layer"
     inkscape:label="Layer 1">
    <g
       inkscape:groupmode="layer"
       style="opacity:1"
       id="g2362">
      <g
         inkscape:groupmode="layer"
         id="g4251"
         style="opacity:1;stroke-width:0.245448"
         transform="matrix(4.0741859,0,0,4.0741859,1019.3516,778.12493)">
        <g
           transform="matrix(4.077253,0,0,4.077253,360.96418,938.65759)"
           style="opacity:1;stroke-width:0.0601994"
           id="g6413">
          <path
             id="path6415"
             d="m -116.16459,-311.82704 h 10.94668 c 0.61322,0 1.11483,0.46609 1.11483,1.03534 v 7.44222 c 0,0.56925 -0.50161,1.035 -1.11483,1.035 h -10.94668 c -0.61323,0 -1.11483,-0.46575 -1.11483,-1.035 v -7.44222 c 0,-0.56925 0.5016,-1.03534 1.11483,-1.03534 z m 0,0"
             style="color:#000000;font-style:normal;font-variant:normal;font-weight:normal;font-stretch:normal;font-size:medium;line-height:normal;font-family:sans-serif;font-variant-ligatures:normal;font-variant-position:normal;font-variant-caps:normal;font-variant-numeric:normal;font-variant-alternates:normal;font-variant-east-asian:normal;font-feature-settings:normal;font-variation-settings:normal;text-indent:0;text-align:start;text-decoration:none;text-decoration-line:none;text-decoration-style:solid;text-decoration-color:#000000;letter-spacing:normal;word-spacing:normal;text-transform:none;writing-mode:lr-tb;direction:ltr;text-orientation:mixed;dominant-baseline:auto;baseline-shift:baseline;text-anchor:start;white-space:normal;shape-padding:0;shape-margin:0;inline-size:0;clip-rule:nonzero;display:inline;overflow:visible;visibility:visible;isolation:auto;mix-blend-mode:normal;color-interpolation:sRGB;color-interpolation-filters:linearRGB;solid-color:#000000;solid-opacity:1;vector-effect:none;fill:#ffffff;fill-opacity:1;fill-rule:nonzero;stroke:none;stroke-width:0.0106185;stroke-linecap:butt;stroke-linejoin:miter;stroke-miterlimit:22.926;stroke-dasharray:none;stroke-dashoffset:0;stroke-opacity:1;color-rendering:auto;image-rendering:auto;shape-rendering:auto;text-rendering:auto;enable-background:accumulate;stop-color:#000000;stop-opacity:1" />
          <path
             id="path6417"
             d="m -116.16406,-311.84961 c -0.6242,0 -1.13672,0.47663 -1.13672,1.05859 v 7.44141 c 0,0.58197 0.51253,1.05664 1.13672,1.05664 h 10.94531 c 0.62418,0 1.13672,-0.47467 1.13672,-1.05664 v -7.44141 c 0,-0.58196 -0.51253,-1.05859 -1.13672,-1.05859 z m 0,0.0449 h 10.94531 c 0.60225,0 1.09375,0.45714 1.09375,1.01367 v 7.44141 c 0,0.55653 -0.49149,1.01367 -1.09375,1.01367 h -10.94531 c -0.60227,0 -1.09375,-0.45714 -1.09375,-1.01367 v -7.44141 c 0,-0.55653 0.49149,-1.01367 1.09375,-1.01367 z"
             style="color:#000000;font-style:normal;font-variant:normal;font-weight:normal;font-stretch:normal;font-size:medium;line-height:normal;font-family:sans-serif;font-variant-ligatures:normal;font-variant-position:normal;font-variant-caps:normal;font-variant-numeric:normal;font-variant-alternates:normal;font-variant-east-asian:normal;font-feature-settings:normal;font-variation-settings:normal;text-indent:0;text-align:start;text-decoration:none;text-decoration-line:none;text-decoration-style:solid;text-decoration-color:#000000;letter-spacing:normal;word-spacing:normal;text-transform:none;writing-mode:lr-tb;direction:ltr;text-orientation:mixed;dominant-baseline:auto;baseline-shift:baseline;text-anchor:start;white-space:normal;shape-padding:0;shape-margin:0;inline-size:0;clip-rule:nonzero;display:inline;overflow:visible;visibility:visible;isolation:auto;mix-blend-mode:normal;color-interpolation:sRGB;color-interpolation-filters:linearRGB;solid-color:#000000;solid-opacity:1;vector-effect:none;fill:#211e1e;fill-opacity:1;fill-rule:nonzero;stroke:none;stroke-width:0.0106185;stroke-linecap:butt;stroke-linejoin:miter;stroke-miterlimit:22.926;stroke-dasharray:none;stroke-dashoffset:0;stroke-opacity:1;color-rendering:auto;image-rendering:auto;shape-rendering:auto;text-rendering:auto;enable-background:accumulate;stop-color:#000000;stop-opacity:1" />
        </g>
        <path
           id="path5099"
           style="fill:#211e1e;fill-opacity:1;fill-rule:evenodd;stroke:none;stroke-width:0.0865882"
           d="m -106.45537,-329.95285 -0.16023,0.35146 -0.0424,0.0771 -0.0204,0.15452 -1.87517,3.8528 c 0.46611,-0.1215 1.08944,-0.42872 1.56799,-0.56938 0.0567,1.6066 0.0909,3.26302 0.0603,4.87933 h 0.29112 l 0.99966,0.0424 c 0.0367,-1.62042 -0.0979,-3.31097 -0.0122,-4.92173 l 1.54316,0.49905 0.0803,0.0705 v -0.11987 l -0.0991,-0.16799 -0.25238,-0.4012 -0.0567,-0.13373 -0.0852,-0.11865 -0.062,-0.16146 -0.10479,-0.19041 -0.0795,-0.11334 c -0.54472,-0.99706 -1.1212,-2.05033 -1.69214,-3.02948 z m 24.284001,2.57026 -0.56421,0.47993 v 0.68261 l 0.56421,-0.48095 v 3.8073 h 0.561111 v -4.48889 z m -9.642337,0.32006 v 0.96244 h -0.28133 v 0.52025 h 0.28133 v 1.9652 c 0,0.39875 0.283777,0.7209 0.634013,0.7209 h 0.351867 v -0.60095 H -91.0745 c -0.09785,0 -0.175321,-0.0901 -0.175321,-0.20182 V -325.58 h 0.421995 v -0.52026 h -0.421995 v -0.96243 z m 5.090859,0.89365 c -0.132103,10e-4 -0.26543,0.0204 -0.396717,0.0555 -0.360022,0.0979 -0.623331,0.45339 -0.645389,0.874 -0.02854,0.53094 0.324142,0.9878 0.790213,1.02087 l 0.597317,0.0424 c 0.111717,0.008 0.206717,0.0897 0.246674,0.20835 0.05382,0.16553 -0.02039,0.35023 -0.163905,0.41217 -0.434391,0.1847 -0.922764,0.066 -1.250983,-0.3062 l -0.397125,0.4551 c 0.484052,0.54749 1.205318,0.724 1.845202,0.45094 0.311502,-0.13373 0.525436,-0.46162 0.546107,-0.84089 0.02854,-0.52955 -0.325364,-0.98625 -0.790212,-1.01931 l -0.598337,-0.0428 c -0.122725,-0.008 -0.226288,-0.10724 -0.256459,-0.24505 -0.03669,-0.17083 0.05749,-0.34493 0.20794,-0.38652 0.355944,-0.0978 0.732641,-10e-4 1.016744,0.25809 l 0.351867,-0.50061 c -0.315579,-0.28867 -0.70565,-0.43928 -1.102571,-0.43598 z m -12.820759,0.0285 c -0.699164,0 -1.265984,0.64682 -1.265984,1.44392 v 0.40039 c 0,0.43027 0.16839,0.83555 0.45665,1.11138 0.539216,0.50888 1.337338,0.42493 1.784164,-0.18878 l -0.432841,-0.4096 c -0.133734,0.18184 -0.332296,0.28948 -0.541989,0.28948 -0.387339,0 -0.703324,-0.36002 -0.703324,-0.8026 v -0.40039 c 0,-0.23852 0.0938,-0.46477 0.254826,-0.61644 0.298047,-0.28255 0.742141,-0.23689 0.990364,0.10479 l 0.432842,-0.41111 c -0.239743,-0.32945 -0.598337,-0.52132 -0.974831,-0.52132 z m 2.628686,0 c -0.64127,0 -1.161528,0.59337 -1.161528,1.32291 v 0.64127 c 0,0.54195 0.289893,1.02739 0.731256,1.22876 0.535098,0.24423 1.148603,0.073 1.525096,-0.42615 l -0.427704,-0.41682 c -0.219356,0.28948 -0.577828,0.3906 -0.889493,0.24708 -0.227511,-0.10356 -0.376331,-0.35309 -0.376331,-0.63299 v -0.0787 h 1.759906 v -0.56266 c 0,-0.72955 -0.519768,-1.32291 -1.161039,-1.32291 z m 3.204313,0.002 c -0.265837,0.0122 -0.526699,0.14679 -0.706955,0.4008 v -0.36165 h -0.562661 v 3.20635 h 0.562661 v -1.96516 c 0,-0.35309 0.252382,-0.64127 0.564211,-0.64127 0.310279,0 0.562661,0.28826 0.562661,0.64127 v 1.96516 h 0.56266 v -2.16478 c 0,-0.32699 -0.129656,-0.63593 -0.35309,-0.84142 -0.153304,-0.14067 -0.332704,-0.21854 -0.515079,-0.23648 -0.03669,-0.004 -0.07625,-0.004 -0.114163,-0.003 z m 4.926912,0 c -0.265837,0.0122 -0.52621,0.14679 -0.706425,0.4008 v -0.36165 h -0.564251 v 3.20635 h 0.564251 v -1.96516 c 0,-0.15575 0.04974,-0.30742 0.142296,-0.42615 0.205494,-0.26461 0.561275,-0.28786 0.794331,-0.0506 l 0.399978,-0.56421 h -0.0016 c -0.153305,-0.14066 -0.332296,-0.21854 -0.51459,-0.23648 -0.03669,-0.004 -0.07584,-0.004 -0.113755,-0.003 z m -8.131225,0.63924 c 0.329442,0 0.598378,0.30661 0.598378,0.68159 h -1.197245 c 0,-0.37511 0.269099,-0.68159 0.598867,-0.68159 z" />
        <path
           style="color:#000000;font-style:normal;font-variant:normal;font-weight:normal;font-stretch:normal;font-size:medium;line-height:normal;font-family:sans-serif;font-variant-ligatures:normal;font-variant-position:normal;font-variant-caps:normal;font-variant-numeric:normal;font-variant-alternates:normal;font-variant-east-asian:normal;font-feature-settings:normal;font-variation-settings:normal;text-indent:0;text-align:start;text-decoration:none;text-decoration-line:none;text-decoration-style:solid;text-decoration-color:#000000;letter-spacing:normal;word-spacing:normal;text-transform:none;writing-mode:lr-tb;direction:ltr;text-orientation:mixed;dominant-baseline:auto;baseline-shift:baseline;text-anchor:start;white-space:normal;shape-padding:0;shape-margin:0;inline-size:0;clip-rule:nonzero;display:inline;overflow:visible;visibility:visible;opacity:1;isolation:auto;mix-blend-mode:normal;color-interpolation:sRGB;color-interpolation-filters:linearRGB;solid-color:#000000;solid-opacity:1;vector-effect:none;fill:#000000;fill-opacity:1;fill-rule:nonzero;stroke:none;stroke-width:0.28072;stroke-linecap:butt;stroke-linejoin:miter;stroke-miterlimit:22.926;stroke-dasharray:none;stroke-dashoffset:0;stroke-opacity:1;color-rendering:auto;image-rendering:auto;shape-rendering:auto;text-rendering:auto;enable-background:accumulate;stop-color:#000000;stop-opacity:1"
           d="m -112.73336,-294.78243 c -1.88829,0 -3.52845,-1.42973 -3.52845,-3.31909 v -30.4901 c 0,-1.89038 1.64044,-3.31986 3.52845,-3.31986 h 44.760739 c 1.887972,0 3.529066,1.42948 3.529066,3.31986 v 30.4901 c 0,1.88936 -1.640809,3.31909 -3.529066,3.31909 z m 0,-1.19985 h 44.760739 c 1.39389,0 2.437137,-1.01878 2.437137,-2.11924 v -30.4901 c 0,-1.1022 -1.042961,-2.12001 -2.437137,-2.12001 h -44.760739 c -1.39421,0 -2.43652,1.01781 -2.43652,2.12001 v 30.4901 c 0,1.10046 1.04259,2.11924 2.43652,2.11924 z"
           id="path6291" />
        <path
           transform="matrix(0.0649414,0,0,0.0649414,-117.30078,-332.83217)"
           d="m 207.72852,409.03711 4.38281,25.9668 -16.54883,0.125 c -23.65687,0.12318 -38.77032,16.45672 -37.34766,39.625 l 0.12305,50.77343 18.15625,-0.12304 v -45.78125 c 0,-15.37448 6.84008,-23.05797 19.39063,-23.16407 l 16.05468,0.12305 -4.1875,25.65039 51.41016,-36.05859 z m 439.99804,13.26953 -45.77539,19.99414 2.20899,5.4961 43.49609,-19.03321 43.08984,19.04492 2.54297,-5.48632 z m -6.43164,2.34961 -0.27539,0.26953 z m 6.50977,6.10352 -33.16407,14.57421 1.25782,2.49414 31.76758,-13.79296 31.95703,13.73632 0.91211,-2.34375 z m 106.83008,7.36914 c -8.66414,0 -15.69336,8.02579 -15.69336,17.90039 h 7.83593 c 0,-2.01536 0.61571,-3.96783 1.72071,-5.5625 2.69655,-3.8678 7.6249,-4.50089 11.02148,-1.44336 3.39662,3.07954 3.94802,8.70478 1.27344,12.57226 l -21.85156,31.32227 v 8.38672 h 31.40625 v -8.94141 h -21.10743 l 17.66797,-25.16406 c 2.21004,-3.16362 3.44141,-7.11411 3.44141,-11.16992 0,-9.8746 -7.02937,-17.90039 -15.71484,-17.90039 z m -473.58008,1.80664 v 60.96679 h 21.78906 c 12.0193,0 21.77148,-9.74851 21.77148,-21.78906 v -17.39062 c 0,-12.04071 -9.75218,-21.78711 -21.77148,-21.78711 z m 261.45117,0.49609 -8.74219,0.006 v 22.48828 c -2.82527,-3.48452 -7.04842,-5.50586 -11.52929,-5.50586 -8.17569,0 -14.80469,6.62644 -14.80469,14.80274 v 15.37695 c 0,4.45756 2.02178,8.68108 5.5,11.48437 6.34994,5.14187 15.6932,4.16819 20.83203,-2.18554 v 4.94726 h 8.74414 z m 11.91602,1.02344 v 8.49609 h 8.49609 v -8.49609 z m -217.2168,0.25 v 8.56054 h 8.53711 v -8.56054 z m 150.25976,0.25195 v 8.48828 h 8.52149 v -8.48828 z m -197.14843,6.64063 h 12.52734 c 6.90118,0 12.5332,5.61384 12.5332,12.53515 v 18.51367 c 0,6.90177 -5.63076,12.51172 -12.5332,12.51172 h -12.52734 z m 83.30468,7.64453 c -9.9807,0 -18.10937,8.13648 -18.10937,18.11719 v 8.79101 c 0,7.41099 4.52134,14.08107 11.4043,16.82031 8.34581,3.35256 17.92055,0.99753 23.80273,-5.82031 l -6.66602,-5.73242 c -3.44053,3.99314 -9.00411,5.35487 -13.88867,3.40234 -3.52844,-1.4259 -5.86328,-4.84061 -5.86328,-8.66406 v -1.08594 h 27.4336 v -7.70898 c 0,-9.98069 -8.11514,-18.11524 -18.11719,-18.11524 z m 47.79688,0.63476 v 0.006 c -4.15627,0.12319 -8.23258,2.02179 -11.05469,5.5 v -4.94726 h -8.81445 v 43.99804 h 8.81445 v -26.94726 c 0,-4.88456 3.93165,-8.81641 8.79297,-8.81641 4.86573,0 8.80664,3.93123 8.80664,8.81641 v 26.94726 h 8.81641 V 471.7228 c 0,-4.48281 -2.06017,-8.74358 -5.51953,-11.54688 -2.39834,-1.93374 -5.21074,-3.00712 -8.0586,-3.25195 -0.56512,-0.0462 -1.19307,-0.0623 -1.7832,-0.0469 z m 20.36914,1.43164 16.74023,43.13086 h 6.32227 l 16.7793,-43.13086 h -8.1543 l -11.76172,33.12891 -11.81055,-33.12891 z m 112.63477,0.12305 v 42.49414 h 8.49609 v -42.49414 z m -217.2168,0.37891 v 42.66015 h 8.53711 v -42.66015 z m 150.25976,0.1875 v 42.49218 h 8.52149 v -42.49218 z m 205.83204,1.02734 -22.72461,0.002 v 21.38086 h 18.05664 v -18.15234 l 4.66797,0.0156 z m -75.20704,0.002 0.008,5.75782 -5.10743,0.0156 -3.94726,8.19141 3.13476,7.42969 56.60743,-0.0117 v -15.60743 l -16.95899,-0.0117 c -1.78319,-5.90656 -13.37073,-5.92119 -15.02734,0 h -12.25977 v -5.75977 z m -244.46875,5.06055 c 5.14198,0 9.34961,4.18666 9.34961,9.32422 h -18.66601 c 0,-5.14202 4.18071,-9.32422 9.3164,-9.32422 z m 151.35157,1.13086 c 4.86572,0 8.79101,3.92383 8.79101,8.76758 v 9.87305 c 0,4.85945 -3.92968,8.79296 -8.79101,8.79296 -4.84061,0 -8.77539,-3.93166 -8.77539,-8.79296 v -9.87305 c 0,-4.84067 3.93665,-8.76758 8.77539,-8.76758 z m 86.49609,16.625 -6.57617,5.97266 h -3.71875 v 5.85742 H 615 v -6.90235 h 73.62891 v 6.96094 h 4.6582 v -11.875 z m -6.58984,0.85352 c -0.0662,0.005 -0.11582,0.0453 -0.0703,0.12109 l 0.22071,0.0918 c 0.13088,-0.13859 -0.0364,-0.22213 -0.15039,-0.21289 z m 20.8789,5.11132 c -8.99843,0 -10.67218,13.44128 -1.21875,15.42383 h -15.10547 c 5.42733,-1.15335 4.50785,-9.20508 -1.05078,-9.20508 -5.51491,0 -6.36892,8.01555 -1.00976,9.20508 h -7.33985 v 6.2461 h 93.26368 v -6.2461 h -12.74024 c 8.40733,-2.74401 6.91314,-15.42383 -2.05859,-15.42383 -8.96194,0 -10.92887,12.65303 -2.53125,15.42383 h -12.66797 c 8.58488,-2.47161 6.74863,-15.42383 -2.33008,-15.42383 -8.99851,0 -10.94311,12.78684 -2.43359,15.42383 h -12.76368 c 8.43407,-2.70259 6.50192,-15.42383 -2.48437,-15.42383 -8.92308,0 -10.94791,12.54601 -2.57227,15.42383 H 628.3125 c 3.21114,-1.04556 5.39844,-4.0509 5.39844,-7.46875 0,-4.37887 -3.57432,-7.95508 -7.95313,-7.95508 z"
           style="fill:#000000;fill-opacity:1;fill-rule:evenodd;stroke:none;stroke-width:0.288;stroke-linecap:butt;stroke-linejoin:miter;stroke-miterlimit:22.926;stroke-opacity:1"
           id="path5131" />
        <path
           id="path8363"
           style="fill:#263894;fill-opacity:1;fill-rule:evenodd;stroke:none;stroke-width:0.0865883"
           d="m -79.562806,-306.93871 c -0.164504,0.004 -0.340709,0.12135 -0.340709,0.35855 v 8.60166 c 0,0.14725 0.12444,0.3444 0.364724,0.3444 h 8.586888 c 0.215641,0 0.347466,-0.19775 0.346853,-0.35486 l 5.15e-4,-8.59182 c 0.0031,-0.23957 -0.177927,-0.35107 -0.342997,-0.35793 z m 0.840146,1.18383 h 6.939075 v 6.95398 h -6.939075 z" />
        <path
           sodipodi:nodetypes="ssssssssssssssssss"
           style="color:#000000;font-style:normal;font-variant:normal;font-weight:normal;font-stretch:normal;font-size:medium;line-height:normal;font-family:sans-serif;font-variant-ligatures:normal;font-variant-position:normal;font-variant-caps:normal;font-variant-numeric:normal;font-variant-alternates:normal;font-variant-east-asian:normal;font-feature-settings:normal;font-variation-settings:normal;text-indent:0;text-align:start;text-decoration:none;text-decoration-line:none;text-decoration-style:solid;text-decoration-color:#000000;letter-spacing:normal;word-spacing:normal;text-transform:none;writing-mode:lr-tb;direction:ltr;text-orientation:mixed;dominant-baseline:auto;baseline-shift:baseline;text-anchor:start;white-space:normal;shape-padding:0;shape-margin:0;inline-size:0;clip-rule:nonzero;display:inline;overflow:visible;visibility:visible;opacity:1;isolation:auto;mix-blend-mode:normal;color-interpolation:sRGB;color-interpolation-filters:linearRGB;solid-color:#000000;solid-opacity:1;vector-effect:none;fill:#263894;fill-opacity:1;fill-rule:nonzero;stroke:none;stroke-width:0.0173394;stroke-linecap:butt;stroke-linejoin:miter;stroke-miterlimit:22.926;stroke-dasharray:none;stroke-dashoffset:0;stroke-opacity:1;color-rendering:auto;image-rendering:auto;shape-rendering:auto;text-rendering:auto;enable-background:accumulate;stop-color:#000000;stop-opacity:1"
           d="m -113.92396,-307.74135 c -0.4327,0 -0.78708,-0.3545 -0.78708,-0.78841 v -10.09073 c 0,-0.43271 0.3545,-0.7871 0.78708,-0.7871 h 47.088207 c 0.432739,0 0.787078,0.3545 0.787078,0.7871 v 10.09073 c 0,0.43399 -0.354509,0.78841 -0.787078,0.78841 z m 0,-0.0682 h 47.088207 c 0.395309,0 0.718755,-0.32359 0.718755,-0.72008 v -10.09072 c 0,-0.3953 -0.323616,-0.71877 -0.718755,-0.71877 h -47.088207 c -0.3953,0 -0.71875,0.3236 -0.71875,0.71877 v 10.09072 c 0,0.3966 0.3236,0.72008 0.71875,0.72008 z"
           id="path4343" />
        <path
           sodipodi:nodetypes="csssssssc"
           style="fill:#263894;fill-opacity:1;fill-rule:evenodd;stroke:none;stroke-width:0.0865881"
           d="m -113.89581,-319.1522 h 47.031937 c 0.308166,0 0.558652,0.25192 0.558652,0.55868 v 10.05182 c 0,0.30698 -0.250336,0.55734 -0.558652,0.55734 h -47.031937 c -0.30815,0 -0.55868,-0.25072 -0.55868,-0.55734 v -10.05182 c 0,-0.30696 0.25033,-0.55868 0.55868,-0.55868"
           id="path2581" />
        <path
           sodipodi:nodetypes="ssssssssssssssssss"
           style="color:#000000;font-style:normal;font-variant:normal;font-weight:normal;font-stretch:normal;font-size:medium;line-height:normal;font-family:sans-serif;font-variant-ligatures:normal;font-variant-position:normal;font-variant-caps:normal;font-variant-numeric:normal;font-variant-alternates:normal;font-variant-east-asian:normal;font-feature-settings:normal;font-variation-settings:normal;text-indent:0;text-align:start;text-decoration:none;text-decoration-line:none;text-decoration-style:solid;text-decoration-color:#000000;letter-spacing:normal;word-spacing:normal;text-transform:none;writing-mode:lr-tb;direction:ltr;text-orientation:mixed;dominant-baseline:auto;baseline-shift:baseline;text-anchor:start;white-space:normal;shape-padding:0;shape-margin:0;inline-size:0;clip-rule:nonzero;display:inline;overflow:visible;visibility:visible;opacity:1;isolation:auto;mix-blend-mode:normal;color-interpolation:sRGB;color-interpolation-filters:linearRGB;solid-color:#000000;solid-opacity:1;vector-effect:none;fill:#ffffff;fill-opacity:1;fill-rule:nonzero;stroke:none;stroke-width:0.0711757;stroke-linecap:butt;stroke-linejoin:miter;stroke-miterlimit:22.926;stroke-dasharray:none;stroke-dashoffset:0;stroke-opacity:1;color-rendering:auto;image-rendering:auto;shape-rendering:auto;text-rendering:auto;enable-background:accumulate;stop-color:#000000;stop-opacity:1"
           d="m -113.89581,-307.84371 c -0.38459,0 -0.69932,-0.31449 -0.69932,-0.69799 v -10.05185 c 0,-0.38342 0.31448,-0.69934 0.69932,-0.69934 h 47.031937 c 0.384999,0 0.699345,0.31569 0.699345,0.69934 v 10.05185 c 0,0.38342 -0.314896,0.69799 -0.699345,0.69799 z m 0,-0.28122 h 47.031937 c 0.231713,0 0.417949,-0.18656 0.417949,-0.41665 v -10.05186 c 0,-0.23012 -0.186556,-0.41799 -0.417949,-0.41799 h -47.031937 c -0.23132,0 -0.41799,0.18815 -0.41799,0.41799 v 10.05186 c 0,0.23014 0.18617,0.41665 0.41799,0.41665 z"
           id="path4347" />
        <path
           style="fill:#ffffff;fill-opacity:1;fill-rule:evenodd;stroke:none;stroke-width:0.0865882"
           d="m -105.81287,-310.02952 h -1.19154 l 0.0122,-2.98157 c 0,-0.99844 -0.44405,-1.49766 -1.25909,-1.50455 l -1.04398,0.008 0.27154,1.66592 -3.33874,-2.3403 3.33874,-2.41202 -0.28255,1.68802 1.07293,0.008 c 1.53765,0.008 2.51819,1.06882 2.42576,2.57336 l -0.004,3.2974"
           id="path5101" />
        <path
           style="fill:#ffffff;fill-opacity:1;fill-rule:evenodd;stroke:none;stroke-width:0.0865882"
           d="m -88.866789,-313.1476 v -1.08394 c 0,-0.70471 0.501991,-1.27703 1.119817,-1.27703 0.619172,0 1.119777,0.57232 1.119777,1.27703 v 1.08394 c 0,0.70471 -0.500605,1.27704 -1.119777,1.27704 -0.617826,0 -1.119817,-0.57233 -1.119817,-1.27704 z m 0.475774,0 c 0,0.40528 0.288262,0.73366 0.644043,0.73366 0.355944,0 0.644002,-0.32822 0.644002,-0.73366 v -1.08394 c 0,-0.40527 -0.288262,-0.7337 -0.644002,-0.7337 -0.355944,0 -0.644043,0.32822 -0.644043,0.7337 v 1.08394"
           id="path5119" />
        <path
           style="fill:#ffffff;fill-opacity:1;fill-rule:evenodd;stroke:none;stroke-width:0.0865882"
           d="m -83.882837,-313.88126 v 0.73366 c 0,0.70471 -0.501951,1.27704 -1.119777,1.27704 -0.619212,0 -1.119817,-0.57233 -1.119817,-1.27704 v -1.08394 c 0,-0.70471 0.500605,-1.27703 1.119817,-1.27703 0.543335,0 1.006715,0.44405 1.103264,1.0536 h -0.490983 c -0.107639,-0.38612 -0.47027,-0.5985 -0.808111,-0.47577 -0.267468,0.0966 -0.448213,0.37918 -0.448213,0.6992 v 1.08394 c 0,0.40528 0.288262,0.73366 0.644043,0.73366 0.355945,0 0.644002,-0.32822 0.644002,-0.73366 v -0.22343 h -0.644002 v -0.51027 h 1.119777"
           id="path5121" />
        <path
           style="fill:#ffffff;fill-opacity:1;fill-rule:evenodd;stroke:none;stroke-width:0.0865882"
           d="m -83.266356,-311.90367 v -3.57179 h 1.288045 c 0.495101,0 0.894998,0.45644 0.894998,1.02049 0,0.43855 -0.244228,0.82605 -0.606777,0.96676 l 0.71988,1.58454 h -0.559889 l -0.644043,-1.53076 h -0.61644 v 1.53076 z m 0.475774,-2.00931 h 0.783322 c 0.263391,0 0.477161,-0.2426 0.477161,-0.54199 0,-0.29927 -0.213648,-0.54333 -0.477161,-0.54333 h -0.783322 v 1.08532"
           id="path5123" />
        <path
           style="fill:#ffffff;fill-opacity:1;fill-rule:evenodd;stroke:none;stroke-width:0.0865882"
           d="m -80.410322,-311.90367 v -3.57179 h 2.016242 v 0.51022 h -1.540427 v 1.02054 h 1.316994 v 0.47855 h -1.316994 v 1.05221 h 1.540427 v 0.51027 h -2.016242"
           id="path5125" />
        <path
           style="fill:#ffffff;fill-opacity:1;fill-rule:evenodd;stroke:none;stroke-width:0.0865882"
           d="m -76.153099,-314.55152 v -0.54195 l 0.448212,-0.38204 h 0.446826 v 3.5718 h -0.446826 v -3.02985 l -0.448212,0.38204"
           id="path5127" />
        <path
           style="fill:#ffffff;fill-opacity:1;fill-rule:evenodd;stroke:none;stroke-width:0.0865882"
           d="m -73.688685,-311.90367 h -0.504764 l 0.668873,-1.52942 c -0.37103,0.17532 -0.797103,-0.0285 -0.948817,-0.45094 -0.03669,-0.0991 -0.05504,-0.20835 -0.05504,-0.31558 v -0.28704 c 0,-0.56405 0.401202,-1.02188 0.896425,-1.02188 0.493674,0 0.896384,0.45783 0.896384,1.02188 v 0.15983 c 0,0.15738 -0.03262,0.3115 -0.095,0.45372 z m 0.503337,-2.58302 c 0,-0.28255 -0.199786,-0.51161 -0.446786,-0.51161 -0.248304,0 -0.448212,0.22873 -0.448212,0.51161 v 0.15983 c 0,0.28133 0.199785,0.51023 0.448212,0.51023 0.246674,0 0.446786,-0.22874 0.446786,-0.51023 v -0.15983"
           id="path5129" />
        <path
           style="opacity:1;fill:#ffffff;fill-opacity:1;fill-rule:evenodd;stroke:#ffffff;stroke-width:0.0432943;stroke-linecap:butt;stroke-linejoin:miter;stroke-miterlimit:22.926;stroke-opacity:1"
           d="m -94.074986,-315.26607 v 2.89269 c 0,0.50529 -0.412151,0.91986 -0.91798,0.91986 h -7.323164 c -0.50427,0 -0.91798,-0.41456 -0.91798,-0.91986 v -2.89269 c 0,-0.50529 0.41371,-0.91985 0.91798,-0.91985 h 7.323164 c 0.505829,0 0.91798,0.41456 0.91798,0.91985 z"
           id="path2203"
           sodipodi:nodetypes="sssssssss" />
        <path
           style="opacity:1;fill:#263894;fill-opacity:1;fill-rule:evenodd;stroke:none;stroke-width:0.0865883"
           d="m -94.327898,-315.26292 v 2.8894 c 0,0.3551 -0.301322,0.64608 -0.668198,0.64608 h -7.316914 c -0.36688,0 -0.66819,-0.29098 -0.66819,-0.64608 v -2.8894 c 0,-0.35511 0.30131,-0.64609 0.66819,-0.64609 h 7.245104 c 0.368437,0 0.740008,0.29098 0.740008,0.64609"
           id="path2205" />
        <path
           style="fill:#ffffff;fill-opacity:1;fill-rule:evenodd;stroke:none;stroke-width:0.0865882"
           d="m -101.76287,-312.45805 v -2.67819 h 0.92399 c 0.39305,0 0.71299,0.3641 0.71299,0.81227 0,0.4496 -0.32006,0.81366 -0.71299,0.81366 h -0.56816 v 1.05226 z m 0.35595,-1.43564 h 0.54611 c 0.20834,0 0.37796,-0.19164 0.37796,-0.43028 0,-0.23729 -0.16962,-0.43027 -0.37796,-0.43027 h -0.54611 v 0.86055"
           id="path5139" />
        <path
           style="fill:#ffffff;fill-opacity:1;fill-rule:evenodd;stroke:none;stroke-width:0.0865882"
           d="m -98.447584,-312.45805 v -0.35839 l 0.935036,-1.34048 c 0.114571,-0.16554 0.09092,-0.40691 -0.05382,-0.53783 -0.146373,-0.13088 -0.357167,-0.10356 -0.471656,0.062 -0.04811,0.0677 -0.07298,0.15168 -0.07298,0.2373 h -0.336373 c 0,-0.422 0.300493,-0.76542 0.671605,-0.76542 0.37103,0 0.671605,0.3433 0.671605,0.76542 0,0.17369 -0.0526,0.3433 -0.147597,0.4785 l -0.754332,1.07571 h 0.901888 v 0.38326 h -1.34321"
           id="path5141" />
        <path
           style="fill:#ffffff;fill-opacity:1;fill-rule:evenodd;stroke:none;stroke-width:0.0865882"
           d="m -96.645112,-313.70198 v -1.43426 h 1.259096 v 0.38204 h -0.944699 v 0.60405 c 0.26339,-0.2373 0.646815,-0.18756 0.85504,0.11457 0.08562,0.1215 0.13088,0.27317 0.13088,0.42888 v 0.40691 c 0,0.422 -0.300493,0.76538 -0.671605,0.76538 -0.346159,0 -0.635725,-0.30049 -0.668832,-0.6937 h 0.339227 c 0.03262,0.20835 0.210794,0.34494 0.393047,0.30335 0.158605,-0.0326 0.273176,-0.19163 0.273176,-0.37511 v -0.33515 c 0,-0.2112 -0.150451,-0.38204 -0.336373,-0.38204 -0.128434,0 -0.245451,0.0828 -0.302125,0.21528 h -0.326995"
           id="path5143" />
      </g>
    </g>
  </g>
</svg>
