<?xml version="1.0" encoding="UTF-8" standalone="no"?>
<svg
   xmlns:dc="http://purl.org/dc/elements/1.1/"
   xmlns:cc="http://creativecommons.org/ns#"
   xmlns:rdf="http://www.w3.org/1999/02/22-rdf-syntax-ns#"
   xmlns:svg="http://www.w3.org/2000/svg"
   xmlns="http://www.w3.org/2000/svg"
   xmlns:sodipodi="http://sodipodi.sourceforge.net/DTD/sodipodi-0.dtd"
   xmlns:inkscape="http://www.inkscape.org/namespaces/inkscape"
   width="332.02078mm"
   height="159.57362mm"
   viewBox="0 0 332.02076 159.57361"
   version="1.1"
   id="svg6774"
   inkscape:version="1.0 (4035a4fb49, 2020-05-01)"
   sodipodi:docname="Latvia_road_sign_701d.svg">
  <defs
     id="defs6768" />
  <sodipodi:namedview
     id="base"
     pagecolor="#ffffff"
     bordercolor="#666666"
     borderopacity="1.0"
     inkscape:pageopacity="0.0"
     inkscape:pageshadow="2"
     inkscape:zoom="0.52049913"
     inkscape:cx="382.08046"
     inkscape:cy="711.3396"
     inkscape:document-units="mm"
     inkscape:current-layer="g4251"
     inkscape:document-rotation="0"
     showgrid="false"
     fit-margin-top="0"
     fit-margin-left="0"
     fit-margin-right="0"
     fit-margin-bottom="0"
     inkscape:window-width="1920"
     inkscape:window-height="1001"
     inkscape:window-x="-9"
     inkscape:window-y="-9"
     inkscape:window-maximized="1" />
  <metadata
     id="metadata6771">
    <rdf:RDF>
      <cc:Work
         rdf:about="">
        <dc:format>image/svg+xml</dc:format>
        <dc:type
           rdf:resource="http://purl.org/dc/dcmitype/StillImage" />
        <dc:title />
      </cc:Work>
    </rdf:RDF>
  </metadata>
  <g
     inkscape:label="Layer 1"
     inkscape:groupmode="layer"
     id="layer1"
     transform="translate(-520.3574,583.13959)">
    <g
       id="g2362"
       style="opacity:1"
       inkscape:groupmode="layer">
      <g
         transform="matrix(4.0741859,0,0,4.0741859,1019.3516,778.12493)"
         style="opacity:1;stroke-width:0.245448"
         id="g4251"
         inkscape:groupmode="layer">
        <path
           id="path2215"
           d="m -119.34227,-333.99667 h 75.222916 c 1.656404,0 3.013371,1.3141 3.013371,2.91891 v 33.08369 c 0,1.60482 -1.356967,2.91895 -3.013371,2.91895 h -75.222916 c -1.65644,0 -3.01204,-1.31413 -3.01204,-2.91895 v -33.08369 c 0,-1.60481 1.3556,-2.91891 3.01204,-2.91891 z m 0,0"
           style="fill:#ffffff;fill-opacity:1;stroke:#000000;stroke-width:0.245448;stroke-linecap:butt;stroke-linejoin:miter;stroke-miterlimit:22.926;stroke-dasharray:none;stroke-opacity:1" />
        <path
           d="m -119.14881,-332.93892 c -1.18333,0 -2.1522,0.91079 -2.1522,2.02446 v 32.75863 c 0,1.11238 0.96887,2.02394 2.1522,2.02394 h 74.8358 c 1.184701,0 2.153689,-0.91156 2.153689,-2.02394 v -32.75863 c 0,-1.11367 -0.968988,-2.02446 -2.153689,-2.02446 z"
           style="fill:#263894;fill-opacity:1;fill-rule:evenodd;stroke:none;stroke-width:0.0865883"
           id="path2213" />
        <path
           id="path2217"
           d="m -92.476403,-329.72116 h 5.31911 c 0.50226,0 0.83089,0.41811 0.83089,0.92915 v 2.89901 c 0,0.49911 -0.40154,0.92652 -0.83089,0.92652 h -5.31911 c -0.42269,0 -0.82818,-0.43008 -0.82818,-0.92652 v -2.89901 c 0,-0.52164 0.40549,-0.92915 0.82818,-0.92915"
           style="fill:#ffffff;fill-opacity:1;fill-rule:evenodd;stroke:none;stroke-width:0.0865883" />
        <path
           id="path2219"
           d="m -92.476403,-329.30568 h 5.31911 c 0.23742,0 0.42935,0.23115 0.42935,0.51367 v 2.89901 c 0,0.28256 -0.19197,0.51237 -0.42935,0.51237 h -5.31911 c -0.23702,0 -0.43064,-0.22958 -0.43064,-0.51237 v -2.89901 c 0,-0.28256 0.19354,-0.51367 0.43064,-0.51367"
           style="fill:#eb1938;fill-opacity:1;fill-rule:evenodd;stroke:none;stroke-width:0.0865883" />
        <path
           id="path2221"
           d="m -92.102683,-326.24208 0.83747,-2.29241 h 0.28639 l 0.83751,2.29241 h -0.36828 l -0.17081,-0.51237 h -0.88252 l -0.17239,0.51237 z m 0.64268,-0.81903 h 0.67448 l -0.33653,-1.00214 -0.33811,1.00214"
           style="fill:#ffffff;fill-opacity:1;fill-rule:evenodd;stroke:none;stroke-width:0.0865883" />
        <path
           id="path2223"
           d="m -88.169683,-328.53449 h 0.36827 l -0.48898,0.98228 c 0.2715,-0.11302 0.58175,0.0157 0.69306,0.28923 0.0274,0.0636 0.0411,0.13265 0.0411,0.20172 v 0.18444 c 0,0.36105 -0.29305,0.6544 -0.65333,0.6544 -0.36161,0 -0.65458,-0.29315 -0.65458,-0.6544 v -0.10203 c 0,-0.10086 0.0235,-0.20054 0.069,-0.29198 z m -0.3671,1.55572 c 0,-0.18053 0.14574,-0.32808 0.32713,-0.32808 0.18022,0 0.32596,0.14716 0.32596,0.32808 v 0.10203 c 0,0.18053 -0.14574,0.32769 -0.32596,0.32769 -0.18139,0 -0.32713,-0.14716 -0.32713,-0.32769 v -0.10203"
           style="fill:#ffffff;fill-opacity:1;fill-rule:evenodd;stroke:none;stroke-width:0.0865883" />
        <path
           id="path2225"
           d="m -90.536383,-298.15069 0.001,-22.02525 -1.1688,0.34378 1.84858,-3.48438 1.85918,3.48968 -1.21913,-0.35987 v 4.3817 c 0.85208,-0.87872 2.04469,-1.42563 3.36585,-1.42563 2.58668,0 4.68568,2.10126 4.68568,4.69099 0,2.59106 -2.099,4.69098 -4.68568,4.69098 h -2.80134 v -1.32206 h 2.80134 c 1.85786,0 3.36452,-1.50926 3.36452,-3.36892 0,-1.85967 -1.50666,-3.36889 -3.36452,-3.36889 -1.85919,0 -3.36585,1.50922 -3.36585,3.36889 v 9.9036 c 0.85208,-0.88006 2.04469,-1.42693 3.36585,-1.42693 h 1.2602 l -0.3432,-1.17077 3.47849,1.8517 -3.48378,1.86367 0.36044,-1.2212 h -1.27215 c -1.85919,0 -3.36719,1.50792 -3.36719,3.36759 v 1.2172 l -1.31982,0.004"
           style="fill:#ffffff;fill-opacity:1;fill-rule:evenodd;stroke:none;stroke-width:0.0865883" />
        <path
           id="path2227"
           d="m -91.098233,-307.84853 h -4.45379 l 0.3432,1.17073 -3.47849,-1.8517 3.48378,-1.86363 -0.36044,1.2212 4.46574,10e-4 v 1.3221"
           style="fill:#ffffff;fill-opacity:1;fill-rule:evenodd;stroke:none;stroke-width:0.0865883" />
        <path
           id="path2229"
           d="m -111.57035,-309.83166 v 2.52599 c 0,0.42878 -0.35103,0.7792 -0.77917,0.7792 h -6.21754 c -0.42802,0 -0.77788,-0.35046 -0.77788,-0.7792 v -2.52599 c 0,-0.42875 0.34986,-0.78049 0.77788,-0.78049 h 6.21754 c 0.42802,0 0.77917,0.35162 0.77917,0.78049 z m 0,0"
           style="fill:#ffffff;fill-opacity:1;fill-rule:evenodd;stroke:#ffffff;stroke-width:0.0432941;stroke-linecap:butt;stroke-linejoin:miter;stroke-miterlimit:22.926;stroke-opacity:1" />
        <path
           id="path2231"
           d="m -111.89631,-309.7945 v 2.45171 c 0,0.30139 -0.25426,0.5482 -0.56718,0.5482 h -6.05056 c -0.31264,0 -0.56851,-0.24685 -0.56851,-0.5482 v -2.45171 c 0,-0.3014 0.25583,-0.5482 0.56851,-0.5482 h 6.05056 c 0.31264,0 0.56718,0.24684 0.56718,0.5482"
           style="fill:#eb1923;fill-opacity:1;fill-rule:evenodd;stroke:none;stroke-width:0.0865883" />
        <path
           id="path2233"
           d="m -118.28482,-307.36273 0.84413,-2.31227 h 0.28874 l 0.84546,2.31227 h -0.37102 l -0.17355,-0.51634 h -0.88915 l -0.17356,0.51634 z m 0.648,-0.82562 h 0.68111 l -0.34045,-1.01148 -0.34046,1.01148"
           style="fill:#ffffff;fill-opacity:1;fill-rule:evenodd;stroke:none;stroke-width:0.0865883" />
        <path
           id="path2235"
           d="m -115.15219,-309.156 v -0.35045 l 0.32988,-0.24802 h 0.32987 v 2.31231 h -0.32987 v -1.96186 l -0.32988,0.24802"
           style="fill:#ffffff;fill-opacity:1;fill-rule:evenodd;stroke:none;stroke-width:0.0865883" />
        <path
           id="path2237"
           d="m -113.95691,-308.02109 h 0.33379 c 0.0462,0.18837 0.23468,0.30375 0.42403,0.25862 0.15632,-0.0393 0.26758,-0.17935 0.26758,-0.34103 v -0.0412 c 0,-0.19387 -0.15788,-0.35045 -0.35103,-0.35045 h -0.14457 v -0.28923 h 0.14457 c 0.18296,0 0.32988,-0.14717 0.32988,-0.33044 0,-0.1817 -0.14692,-0.33044 -0.32988,-0.33044 -0.15789,0 -0.29423,0.11303 -0.32322,0.26961 h -0.33262 c 0.0353,-0.36379 0.35495,-0.6305 0.71821,-0.596 0.3381,0.0314 0.59762,0.31709 0.59762,0.65707 0,0.18837 -0.0913,0.36497 -0.24525,0.47254 0.16572,0.11145 0.26523,0.29747 0.26523,0.49777 v 0.0412 c 0,0.37713 -0.30363,0.68092 -0.67982,0.68092 -0.34319,0 -0.63339,-0.25626 -0.67448,-0.59863"
           style="fill:#ffffff;fill-opacity:1;fill-rule:evenodd;stroke:none;stroke-width:0.0865883" />
        <path
           id="path2239"
           d="m -72.081152,-307.41716 v 2.52603 c 0,0.43008 -0.349859,0.78049 -0.777839,0.78049 h -6.217572 c -0.42802,0 -0.77918,-0.35163 -0.77918,-0.78049 v -2.52603 c 0,-0.42875 0.35104,-0.77916 0.77918,-0.77916 h 6.217572 c 0.428019,0 0.777839,0.35045 0.777839,0.77916 z m 0,0"
           style="fill:#ffffff;fill-opacity:1;fill-rule:evenodd;stroke:#ffffff;stroke-width:0.0432941;stroke-linecap:butt;stroke-linejoin:miter;stroke-miterlimit:22.926;stroke-opacity:1" />
        <path
           id="path2241"
           d="m -72.40582,-307.37866 v 2.45037 c 0,0.30139 -0.255832,0.5482 -0.56714,0.5482 h -6.051933 c -0.31146,0 -0.56714,-0.24685 -0.56714,-0.5482 v -2.45037 c 0,-0.3014 0.25583,-0.54821 0.56714,-0.54821 h 6.051933 c 0.311465,0 0.56714,0.24567 0.56714,0.54821"
           style="fill:#eb1923;fill-opacity:1;fill-rule:evenodd;stroke:none;stroke-width:0.0865883" />
        <path
           id="path2243"
           d="m -78.794333,-304.94819 0.84413,-2.31097 h 0.28874 l 0.844091,2.31097 h -0.371011 l -0.17356,-0.51637 h -0.88919 l -0.17355,0.51637 z m 0.64801,-0.82566 h 0.68114 l -0.34045,-1.01144 -0.34046,1.01144"
           style="fill:#ffffff;fill-opacity:1;fill-rule:evenodd;stroke:none;stroke-width:0.0865883" />
        <path
           id="path2245"
           d="m -75.661663,-306.74016 v -0.35163 l 0.329879,-0.24684 h 0.328702 v 2.31097 h -0.328702 v -1.96052 l -0.329879,0.24802"
           style="fill:#ffffff;fill-opacity:1;fill-rule:evenodd;stroke:none;stroke-width:0.0865883" />
        <path
           id="path2247"
           d="m -74.466422,-305.60526 h 0.333796 c 0.04505,0.18838 0.234675,0.30376 0.422729,0.25902 0.157888,-0.0392 0.267586,-0.17935 0.267586,-0.34104 v -0.0412 c 0,-0.19387 -0.15632,-0.35163 -0.349859,-0.35163 h -0.144567 v -0.28805 h 0.144567 c 0.181394,0 0.329878,-0.14874 0.329878,-0.33044 0,-0.18327 -0.148484,-0.33044 -0.329878,-0.33044 -0.159063,0 -0.294226,0.11303 -0.323218,0.26804 h -0.333796 c 0.03526,-0.36379 0.356519,-0.6292 0.719542,-0.596 0.338105,0.0314 0.596327,0.31709 0.596327,0.65836 h 0.0013 c 0,0.18837 -0.09128,0.3638 -0.245254,0.47254 0.165723,0.11028 0.264843,0.29747 0.264843,0.49777 v 0.0412 c 0,0.37557 -0.304804,0.68093 -0.679816,0.68093 -0.343198,0 -0.633389,-0.25744 -0.674487,-0.59863"
           style="fill:#ffffff;fill-opacity:1;fill-rule:evenodd;stroke:none;stroke-width:0.0865883" />
        <path
           id="path2249"
           d="m -100.44049,-309.83166 v 2.52599 c 0,0.42878 -0.34986,0.7792 -0.77917,0.7792 h -8.27814 c -0.42802,0 -0.77921,-0.35046 -0.77921,-0.7792 v -2.52599 c 0,-0.42875 0.34986,-0.78049 0.77921,-0.78049 h 8.27814 c 0.42935,0 0.77917,0.35162 0.77917,0.78049 z m 0,0"
           style="fill:#ffffff;fill-opacity:1;fill-rule:evenodd;stroke:#ffffff;stroke-width:0.0432941;stroke-linecap:butt;stroke-linejoin:miter;stroke-miterlimit:22.926;stroke-opacity:1" />
        <path
           id="path2251"
           d="m -100.71081,-309.7945 v 2.45171 c 0,0.30139 -0.25584,0.54686 -0.56714,0.54686 h -8.16817 c -0.31147,0 -0.56718,-0.24566 -0.56718,-0.54686 v -2.45171 c 0,-0.3014 0.25426,-0.5482 0.56718,-0.5482 h 8.16817 c 0.31146,0 0.56714,0.24684 0.56714,0.5482"
           style="fill:#00a64f;fill-opacity:1;fill-rule:evenodd;stroke:none;stroke-width:0.0865883" />
        <path
           id="path2253"
           d="m -109.13607,-307.37866 v -2.31227 h 1.48285 v 0.33043 h -1.13299 v 0.66111 h 0.96868 v 0.30925 h -0.96868 v 0.68092 h 1.13299 v 0.33044 h -1.48285"
           style="fill:#ffffff;fill-opacity:1;fill-rule:evenodd;stroke:none;stroke-width:0.0865883" />
        <path
           id="path2255"
           d="m -106.13194,-307.37866 v -0.31043 l 0.91829,-1.15617 c 0.11283,-0.14206 0.0889,-0.35045 -0.0529,-0.46324 -0.143,-0.1142 -0.35104,-0.0903 -0.46379,0.053 -0.0462,0.0585 -0.0717,0.13029 -0.0717,0.20446 h -0.32987 c 0,-0.36497 0.2954,-0.65973 0.65991,-0.65973 0.36435,0 0.65858,0.29472 0.65858,0.65973 0,0.14992 -0.0502,0.2959 -0.14457,0.41281 l -0.74073,0.92915 h 0.88518 v 0.33044 h -1.31849"
           style="fill:#ffffff;fill-opacity:1;fill-rule:evenodd;stroke:none;stroke-width:0.0865883" />
        <path
           id="path2257"
           d="m -103.74138,-309.69093 h 0.37101 l -0.49294,0.99021 c 0.27425,-0.11303 0.58705,0.0157 0.69968,0.29197 0.0274,0.0652 0.0411,0.13422 0.0411,0.20447 v 0.18562 c 0,0.36497 -0.2954,0.65974 -0.65991,0.65974 -0.36436,0 -0.65992,-0.29473 -0.65992,-0.65974 v -0.1036 c 0,-0.10204 0.0235,-0.20329 0.069,-0.29316 z m -0.37102,1.56894 c 0,-0.1817 0.14692,-0.33044 0.32988,-0.33044 0.18139,0 0.32988,0.14874 0.32988,0.33044 v 0.10361 c 0,0.1817 -0.14849,0.32926 -0.32988,0.32926 -0.18296,0 -0.32988,-0.14756 -0.32988,-0.32926 v -0.10361"
           style="fill:#ffffff;fill-opacity:1;fill-rule:evenodd;stroke:none;stroke-width:0.0865883" />
        <path
           id="path2259"
           d="m -102.71046,-307.37866 v -0.31043 l 0.917,-1.15617 c 0.11284,-0.14206 0.0889,-0.35045 -0.0529,-0.46324 -0.143,-0.1142 -0.34986,-0.0903 -0.46379,0.053 -0.0462,0.0585 -0.0717,0.13029 -0.0717,0.20446 h -0.3287 c 0,-0.36497 0.29422,-0.65973 0.65862,-0.65973 0.36435,0 0.65991,0.29472 0.65991,0.65973 0,0.14992 -0.0517,0.2959 -0.14457,0.41281 l -0.74207,0.92915 h 0.88652 v 0.33044 h -1.31853"
           style="fill:#ffffff;fill-opacity:1;fill-rule:evenodd;stroke:none;stroke-width:0.0865883" />
        <path
           id="path2261"
           d="m -70.017925,-302.23107 v 2.52603 c 0,0.42874 -0.351034,0.77916 -0.779171,0.77916 h -8.279467 c -0.42802,0 -0.77918,-0.35045 -0.77918,-0.77916 v -2.52603 c 0,-0.43008 0.35104,-0.78049 0.77918,-0.78049 h 8.279467 c 0.428019,0 0.779171,0.35045 0.779171,0.78049 z m 0,0"
           style="fill:#ffffff;fill-opacity:1;fill-rule:evenodd;stroke:#ffffff;stroke-width:0.0432941;stroke-linecap:butt;stroke-linejoin:miter;stroke-miterlimit:22.926;stroke-opacity:1" />
        <path
           id="path2263"
           d="m -70.289546,-302.19387 v 2.45033 c 0,0.30258 -0.255831,0.54821 -0.567179,0.54821 h -8.168168 c -0.31146,0 -0.56714,-0.24685 -0.56714,-0.54821 v -2.45033 c 0,-0.3014 0.25583,-0.54824 0.56714,-0.54824 h 8.168168 c 0.311465,0 0.567179,0.24684 0.567179,0.54824"
           style="fill:#00a64f;fill-opacity:1;fill-rule:evenodd;stroke:none;stroke-width:0.0865883" />
        <path
           id="path2265"
           d="m -78.714803,-299.77803 v -2.31231 h 1.48285 v 0.33043 h -1.13303 v 0.6597 h 0.96868 v 0.31081 h -0.96868 v 0.68097 h 1.13303 v 0.33044 h -1.48285"
           style="fill:#ffffff;fill-opacity:1;fill-rule:evenodd;stroke:none;stroke-width:0.0865883" />
        <path
           id="path2267"
           d="m -75.710713,-299.77803 v -0.31043 l 0.91833,-1.15613 c 0.112833,-0.14324 0.08893,-0.35045 -0.05289,-0.46461 -0.142999,-0.11303 -0.349859,-0.0891 -0.463788,0.053 -0.04623,0.0585 -0.0717,0.13146 -0.0717,0.20564 h -0.329878 c 0,-0.36498 0.295402,-0.66103 0.659913,-0.66103 0.364355,0 0.659913,0.2959 0.659913,0.66103 0,0.14991 -0.05172,0.2959 -0.144567,0.41281 l -0.742108,0.92918 h 0.886518 v 0.33044 h -1.319826"
           style="fill:#ffffff;fill-opacity:1;fill-rule:evenodd;stroke:none;stroke-width:0.0865883" />
        <path
           id="path2269"
           d="m -73.320154,-302.09034 h 0.371015 l -0.492976,0.99021 c 0.274245,-0.11303 0.587042,0.0157 0.699678,0.29197 0.02743,0.0636 0.04114,0.13422 0.04114,0.20447 v 0.18601 c 0,0.3638 -0.295401,0.6597 -0.659952,0.6597 -0.364355,0 -0.658581,-0.2959 -0.658581,-0.6597 v -0.1036 c 0,-0.10204 0.02351,-0.20289 0.06778,-0.29315 z m -0.371015,1.56894 c 0,-0.18327 0.148484,-0.33043 0.329878,-0.33043 0.181394,0 0.329878,0.14755 0.329878,0.33043 v 0.10361 c 0,0.1817 -0.148484,0.32926 -0.329878,0.32926 -0.181394,0 -0.329878,-0.14717 -0.329878,-0.32926 v -0.10361"
           style="fill:#ffffff;fill-opacity:1;fill-rule:evenodd;stroke:none;stroke-width:0.0865883" />
        <path
           id="path2271"
           d="m -72.289187,-299.77803 v -0.31043 l 0.916998,-1.15613 c 0.114008,-0.14324 0.09011,-0.35045 -0.05289,-0.46461 -0.142999,-0.11303 -0.349859,-0.0891 -0.463827,0.053 -0.04623,0.0585 -0.0717,0.13146 -0.0717,0.20564 h -0.328703 c 0,-0.36498 0.294227,-0.66103 0.658581,-0.66103 0.364355,0 0.659913,0.2959 0.659913,0.66103 0,0.14991 -0.05054,0.2959 -0.144566,0.41281 l -0.742069,0.92918 h 0.886518 v 0.33044 h -1.318494"
           style="fill:#ffffff;fill-opacity:1;fill-rule:evenodd;stroke:none;stroke-width:0.0865883" />
        <path
           id="path4357"
           d="m -118.56706,-301.0696 c -0.26445,0 -0.50618,-0.1091 -0.68114,-0.28256 l 0.26249,-0.26568 c 0.10852,0.10792 0.25622,0.17385 0.41877,0.17385 h 0.34437 v 0.37439 z m 1.03359,0 v -0.37439 h 0.71293 v 0.37439 z m 1.26949,0 v -0.37439 h 0.7805 v 0.37439 z m 1.16346,0 v -0.37439 h 0.93953 v 0.37439 z m 1.52128,0 v -0.37439 h 0.88652 v 0.37439 z m 1.81476,-0.35241 -0.28756,-0.23743 c 0.0854,-0.104 0.13595,-0.23429 0.13595,-0.37635 v -0.17386 h 0.37375 v 0.17386 c 0,0.23232 -0.0846,0.44703 -0.22214,0.61393 z m -7.76729,-0.8011 v -0.59467 h 0.37375 v 0.59467 z m 7.61556,-0.5442 v -0.58273 h 0.37376 v 0.58273 z m -7.61556,-0.6199 v -0.596 h 0.37375 v 0.596 z m 7.61556,-0.55884 v -0.6159 h 0.37376 v 0.6159 z m -7.61556,-0.6159 c 0,-0.39844 0.24329,-0.74328 0.58966,-0.89135 l 0.14574,0.34378 c -0.21273,0.0906 -0.36161,0.301 -0.36161,0.54753 z m 7.56059,-0.24802 c -0.0909,-0.19387 -0.28404,-0.33358 -0.50688,-0.34456 l 0.008,-0.18642 -0.0196,0.18602 c -7e-4,-8e-5 -0.008,0 -0.0196,0 v -0.37439 c 0.0117,0 0.0274,7.5e-4 0.049,0.002 2.3e-4,0 3.5e-4,-4e-5 7e-4,0 0.004,2.4e-4 0.004,2.4e-4 0.008,7.5e-4 v 0.003 c 0.36083,0.0235 0.66994,0.24253 0.81627,0.5555 z m -6.26463,-0.34496 v -0.37439 h 1.00448 v 0.37439 z m 1.69221,0 v -0.37439 h 0.70102 v 0.37439 z m 1.25891,0 v -0.37439 h 0.60557 v 0.37439 z m 1.16213,0 v -0.37439 h 0.74078 v 0.37439 z"
           style="color:#000000;font-style:normal;font-variant:normal;font-weight:normal;font-stretch:normal;font-size:medium;line-height:normal;font-family:sans-serif;font-variant-ligatures:normal;font-variant-position:normal;font-variant-caps:normal;font-variant-numeric:normal;font-variant-alternates:normal;font-variant-east-asian:normal;font-feature-settings:normal;font-variation-settings:normal;text-indent:0;text-align:start;text-decoration:none;text-decoration-line:none;text-decoration-style:solid;text-decoration-color:#000000;letter-spacing:normal;word-spacing:normal;text-transform:none;writing-mode:lr-tb;direction:ltr;text-orientation:mixed;dominant-baseline:auto;baseline-shift:baseline;text-anchor:start;white-space:normal;shape-padding:0;shape-margin:0;inline-size:0;clip-rule:nonzero;display:inline;overflow:visible;visibility:visible;opacity:1;isolation:auto;mix-blend-mode:normal;color-interpolation:sRGB;color-interpolation-filters:linearRGB;solid-color:#000000;solid-opacity:1;vector-effect:none;fill:#ffffff;fill-opacity:1;fill-rule:nonzero;stroke:none;stroke-width:0.0952476;stroke-linecap:butt;stroke-linejoin:miter;stroke-miterlimit:22.926;stroke-dasharray:none;stroke-dashoffset:0;stroke-opacity:1;color-rendering:auto;image-rendering:auto;shape-rendering:auto;text-rendering:auto;enable-background:accumulate;stop-color:#000000;stop-opacity:1" />
        <path
           id="path2275"
           d="m -111.97584,-304.52478 v 2.45037 c 0,0.3014 -0.25427,0.5482 -0.56714,0.5482 h -5.97107 c -0.31264,0 -0.56851,-0.24684 -0.56851,-0.5482 v -2.45037 c 0,-0.3014 0.25583,-0.54821 0.56851,-0.54821 h 5.91011 c 0.31264,0 0.6281,0.24685 0.6281,0.54821"
           style="fill:#2e2e91;fill-opacity:1;fill-rule:evenodd;stroke:none;stroke-width:0.0865883" />
        <path
           id="path2277"
           d="m -118.26758,-302.10231 v -2.33088 h 0.91433 c 0.38943,0 0.7063,0.3171 0.7063,0.7075 0,0.39009 -0.31655,0.70749 -0.7063,0.70749 h -0.56052 v 0.91589 z m 0.35378,-1.24907 h 0.53932 c 0.20686,0 0.37376,-0.16875 0.37376,-0.37439 0,-0.20721 -0.1669,-0.37439 -0.37376,-0.37439 h -0.53932 v 0.74862"
           style="fill:#ffffff;fill-opacity:1;fill-rule:evenodd;stroke:none;stroke-width:0.0865883" />
        <path
           id="path2279"
           d="m -115.00508,-304.43452 h 0.37102 l -0.49294,0.99025 c 0.27425,-0.11302 0.58704,0.0157 0.69968,0.29198 0.0274,0.0651 0.0411,0.13421 0.0411,0.20446 v 0.18562 c 0,0.36498 -0.29541,0.6597 -0.65992,0.6597 -0.36435,0 -0.65991,-0.29472 -0.65991,-0.6597 v -0.1036 c 0,-0.10204 0.0235,-0.20172 0.069,-0.29315 z m -0.37101,1.56898 c 0,-0.1817 0.14848,-0.33043 0.32987,-0.33043 0.1814,0 0.32988,0.14873 0.32988,0.33043 v 0.10361 c 0,0.1817 -0.14848,0.33044 -0.32988,0.33044 -0.18139,0 -0.32987,-0.14874 -0.32987,-0.33044 v -0.10361"
           style="fill:#ffffff;fill-opacity:1;fill-rule:evenodd;stroke:none;stroke-width:0.0865883" />
        <path
           id="path2281"
           d="m -114.07484,-302.46336 v -0.28805 l 0.78313,-1.67251 h 0.37102 l -0.78317,1.65128 h 0.59633 v -0.66107 h 0.32987 v 0.66107 h 0.18688 v 0.30924 h -0.18688 v 0.35163 h -0.32987 v -0.35163 h -0.96735"
           style="fill:#ffffff;fill-opacity:1;fill-rule:evenodd;stroke:none;stroke-width:0.0865883" />
        <path
           id="path2283"
           d="m -94.896103,-298.62323 v -0.6013 c 0,-0.21231 0.17238,-0.38381 0.38433,-0.38381 0.21195,0 0.38434,0.1711 0.38434,0.38381 v 0.6013 c 0,0.21231 -0.17239,0.38498 -0.38434,0.38498 -0.21195,0 -0.38433,-0.17267 -0.38433,-0.38498 z m 0.19197,0 c 0,0.10635 0.0862,0.19269 0.19197,0.19269 0.10617,0 0.19197,-0.0863 0.19197,-0.19269 v -0.6013 c 0,-0.10478 -0.0862,-0.19112 -0.19197,-0.19112 -0.10617,0 -0.19197,0.0863 -0.19197,0.19112 v 0.6013"
           style="fill:#ffffff;fill-opacity:1;fill-rule:evenodd;stroke:none;stroke-width:0.0865883" />
        <path
           id="path2285"
           d="m -93.863803,-298.62323 v -0.6013 c 0,-0.21231 0.17238,-0.38381 0.38433,-0.38381 0.21195,0 0.38277,0.1711 0.38277,0.38381 v 0.6013 c 0,0.21231 -0.17082,0.38498 -0.38277,0.38498 -0.21195,0 -0.38433,-0.17267 -0.38433,-0.38498 z m 0.19197,0 c 0,0.10635 0.0862,0.19269 0.19197,0.19269 0.10617,0 0.1908,-0.0863 0.1908,-0.19269 v -0.6013 c 0,-0.10478 -0.0846,-0.19112 -0.1908,-0.19112 -0.10617,0 -0.19197,0.0863 -0.19197,0.19112 v 0.6013"
           style="fill:#ffffff;fill-opacity:1;fill-rule:evenodd;stroke:none;stroke-width:0.0865883" />
        <path
           id="path2287"
           d="m -92.831513,-298.25022 v -0.96105 h 0.1908 v 0.10753 c 0.11283,-0.13932 0.31656,-0.16051 0.45588,-0.0479 0.0196,0.0157 0.0411,0.0353 0.0584,0.0597 0.12459,-0.15383 0.35103,-0.17659 0.50618,-0.0506 0.0834,0.0675 0.13242,0.1711 0.13242,0.27863 v 0.61327 h -0.19197 v -0.58937 c 0,-0.10635 -0.0862,-0.19229 -0.19197,-0.19229 -0.10618,0 -0.19197,0.0863 -0.19197,0.19229 v 0.58937 h -0.19198 v -0.58937 c 0,-0.10635 -0.0862,-0.19229 -0.19197,-0.19229 -0.10617,0 -0.19197,0.0863 -0.19197,0.19229 v 0.58937 h -0.1908"
           style="fill:#ffffff;fill-opacity:1;fill-rule:evenodd;stroke:none;stroke-width:0.0865883" />
        <path
           id="path2289"
           d="m -95.950893,-298.45597 v -0.16718 l 0.4545,-0.97428 h 0.21587 l -0.45583,0.96235 h 0.34868 v -0.38499 h 0.1908 v 0.38499 h 0.10852 v 0.17934 h -0.10852 v 0.20447 h -0.1908 v -0.20447 h -0.56318"
           style="fill:#ffffff;fill-opacity:1;fill-rule:evenodd;stroke:none;stroke-width:0.0865883" />
        <path
           d="m -72.304937,-331.07576 c -0.05093,0.002 -0.101862,0.004 -0.152402,0.0118 -0.3765,0.0451 -0.672998,0.33946 -0.722049,0.71377 -0.06073,0.45531 0.259358,0.87358 0.712607,0.93331 l 0.468098,0.0624 c 0.159063,0.0196 0.287566,0.13696 0.325961,0.29237 0.05446,0.20838 -0.07326,0.42062 -0.281298,0.47238 -0.389429,0.0958 -0.798877,0 -1.103681,-0.25901 l -0.284824,0.33868 c 0.413445,0.35045 0.968674,0.47933 1.494756,0.34809 0.329878,-0.0824 0.577443,-0.35987 0.621166,-0.6969 0.05837,-0.45393 -0.259358,-0.87224 -0.712608,-0.9333 l -0.472055,-0.0624 c -0.173558,-0.0236 -0.311464,-0.16169 -0.33262,-0.33711 -0.02351,-0.21506 0.125761,-0.40885 0.338105,-0.43408 0.302062,-0.0353 0.608238,0.0392 0.858702,0.21192 l 0.250347,-0.3634 c -0.298144,-0.20564 -0.65196,-0.30846 -1.008283,-0.29826 z m -12.281576,0.0275 0.9581,2.90796 h 0.36435 l 0.9581,-2.90796 h -0.46614 l -0.67331,2.23248 -0.67437,-2.23248 z m 6.32888,0 v 2.90796 h 1.864479 v -0.41517 h -1.424709 v -0.85615 h 1.217967 v -0.39009 h -1.217967 v -0.83127 h 1.424709 v -0.41513 z m 2.471228,0 v 2.90796 h 1.219452 c 0.27973,0 0.53901,-0.1456 0.684791,-0.38342 0.231933,-0.37832 0.112833,-0.87625 -0.264843,-1.10853 0.208035,-0.14599 0.331446,-0.38499 0.331446,-0.63713 0,-0.43008 -0.348684,-0.779 -0.778192,-0.779 z m -5.987998,0.001 v 2.90595 h 0.4413 v -2.90595 z m 0.93671,0 v 0.3893 h 0.80307 v 2.51771 h 0.43977 v -2.51771 h 0.80452 v -0.3893 z m 10.113507,0 v 2.90694 h 0.439773 v -0.88253 l 0.520753,-0.54706 0.800562,1.42959 h 0.520792 l -1.037588,-1.76509 0.931729,-1.14185 h -0.516796 l -1.219452,1.50423 v -1.50423 z m -4.621938,0.38773 h 0.700658 c 0.228016,0 0.414934,0.18719 0.414934,0.41564 0,0.22957 -0.186879,0.41665 -0.414934,0.41665 h -0.700658 z m 0,1.22105 h 0.726007 c 0.243686,0 0.441261,0.19779 0.441261,0.442 0,0.24293 -0.197457,0.44103 -0.441261,0.44103 h -0.726007 z m -4.440539,2.58191 c -0.5738,0 -1.03759,0.46442 -1.03759,1.03786 v 0.88303 c 0,0.50441 0.36043,0.93449 0.8547,1.02341 0.56452,0.0997 1.10368,-0.27785 1.20308,-0.8432 h -0.45172 c -0.0795,0.24685 -0.3099,0.41564 -0.56847,0.41564 -0.32988,0 -0.59782,-0.26529 -0.59782,-0.59585 v -0.88303 c 0,-0.25901 0.16846,-0.48816 0.41493,-0.56645 0.31421,-0.10204 0.64934,0.0714 0.75136,0.38459 h 0.45172 c -0.0874,-0.49511 -0.51797,-0.85615 -1.02019,-0.85615 z m 7.481726,0.0236 c -0.05093,0.002 -0.101862,0.004 -0.152402,0.0118 -0.3765,0.044 -0.672998,0.33829 -0.722049,0.71382 -0.06073,0.45397 0.259358,0.87342 0.712607,0.93181 l 0.468098,0.0636 c 0.159063,0.0196 0.287566,0.13539 0.325961,0.2908 0.05446,0.20839 -0.07326,0.42113 -0.281298,0.47289 -0.389429,0.0969 -0.798877,-2.7e-4 -1.103681,-0.25783 l -0.284824,0.3375 c 0.413445,0.35045 0.968674,0.48035 1.494756,0.34888 0.329878,-0.0836 0.577443,-0.35987 0.621166,-0.69839 0.05837,-0.45398 -0.259358,-0.87075 -0.712608,-0.93182 l -0.472055,-0.0624 c -0.173558,-0.0235 -0.311464,-0.16325 -0.33262,-0.33867 -0.02351,-0.21388 0.125761,-0.40752 0.338105,-0.43405 0.302062,-0.0353 0.608238,0.0392 0.858702,0.21271 l 0.250347,-0.3638 c -0.298144,-0.20446 -0.65196,-0.30806 -1.008283,-0.29707 z m -3.481468,0.0275 v 2.90945 h 1.219452 c 0.27973,0 0.53901,-0.14599 0.684791,-0.38459 0.231933,-0.37832 0.112833,-0.87491 -0.264843,-1.10853 0.208035,-0.14599 0.331446,-0.38381 0.331446,-0.63717 0,-0.43008 -0.348684,-0.779 -0.778192,-0.779 z m -8.800108,0.002 0.9581,2.90698 h 0.36435 l 0.9581,-2.90698 h -0.46614 l -0.67331,2.231 -0.67437,-2.231 z m 2.81211,0 v 2.90698 h 0.4413 v -2.90698 z m 3.51677,0 v 2.90698 h 1.864479 v -0.41564 h -1.424709 v -0.85615 h 1.217967 v -0.39048 h -1.217967 v -0.82978 h 1.424709 v -0.41512 z m 7.533447,0 v 2.90698 h 0.439773 v -0.88303 l 0.520753,-0.54558 0.800562,1.42861 h 0.520792 l -1.037588,-1.76411 0.931729,-1.14287 h -0.516796 l -1.219452,1.50376 v -1.50376 z m -4.621938,0.38891 h 0.700658 c 0.228016,0 0.414934,0.18602 0.414934,0.41564 0,0.2284 -0.186879,0.41516 -0.414934,0.41516 h -0.700658 z m 0,1.22003 h 0.726007 c 0.243686,0 0.441261,0.19779 0.441261,0.44204 0,0.2441 -0.197457,0.44201 -0.441261,0.44201 h -0.726007 z"
           style="fill:#ffffff;fill-opacity:1;fill-rule:evenodd;stroke:none;stroke-width:0.0865883"
           id="path2291" />
        <path
           id="path2309"
           d="m -68.020908,-328.14025 1.061408,-2.90831 h 0.36318 l 1.062779,2.90831 h -0.466452 l -0.218613,-0.65043 h -1.119744 l -0.217438,0.65043 z m 0.816272,-1.03934 h 0.854706 l -0.428019,-1.27163 -0.426687,1.27163"
           style="fill:#ffffff;fill-opacity:1;fill-rule:evenodd;stroke:none;stroke-width:0.0865883" />
        <path
           id="path2319"
           d="m -101.27929,-315.14118 c 1.379457,0 2.503197,0.746 2.503197,1.65792 0,0.91188 -1.12374,1.65654 -2.503197,1.65654 -1.37683,0 -2.50186,-0.74466 -2.50186,-1.65654 0,-0.91192 1.12503,-1.65792 2.50186,-1.65792"
           style="fill:#ffffff;fill-opacity:1;fill-rule:evenodd;stroke:none;stroke-width:0.0865883" />
        <path
           id="path2321"
           d="m -103.08809,-312.72138 v -1.52648 h 0.62677 c 0.23977,0 0.43464,0.19504 0.43464,0.43671 0,0.1872 -0.11793,0.3532 -0.29541,0.41281 l 0.34986,0.67696 h -0.2715 l -0.31264,-0.65439 h -0.29932 v 0.65439 z m 0.23193,-0.85882 h 0.38042 c 0.1285,0 0.23193,-0.1036 0.23193,-0.23115 0,-0.12872 -0.10343,-0.23232 -0.23193,-0.23232 h -0.38042 v 0.46324"
           style="fill:#211e1e;fill-opacity:1;fill-rule:evenodd;stroke:none;stroke-width:0.0865883" />
        <path
           id="path2323"
           d="m -101.77355,-314.25846 h 0.2331 v 1.00085 c 0,0.17385 0.14183,0.31474 0.31539,0.31474 0.17238,0 0.3142,-0.14089 0.3142,-0.31474 v -1.00085 h 0.23311 v 1.00085 c 0,0.30257 -0.24643,0.5482 -0.54727,0.5482 -0.30207,0 -0.54861,-0.24567 -0.54861,-0.5482 v -1.00085"
           style="fill:#211e1e;fill-opacity:1;fill-rule:evenodd;stroke:none;stroke-width:0.0865883" />
        <path
           id="path2325"
           d="m -100.47892,-312.9125 0.14966,-0.17777 c 0.1618,0.13657 0.377667,0.18719 0.583077,0.13657 0.11009,-0.0275 0.17748,-0.13932 0.14849,-0.2496 -0.0196,-0.0824 -0.0874,-0.14324 -0.17238,-0.15383 l -0.246427,-0.0314 c -0.23977,-0.0314 -0.40949,-0.25352 -0.37768,-0.49381 0.0274,-0.19779 0.18296,-0.3532 0.38159,-0.37714 0.215877,-0.0275 0.433347,0.0275 0.613567,0.15149 l -0.13242,0.19269 c -0.13242,-0.0914 -0.29423,-0.13265 -0.45317,-0.11303 -0.112827,0.0118 -0.191967,0.11695 -0.179047,0.22958 0.0118,0.093 0.0846,0.166 0.176307,0.17778 l 0.24917,0.0314 c 0.23977,0.0314 0.40811,0.25352 0.3765,0.49244 -0.0235,0.17935 -0.15358,0.32534 -0.32871,0.3689 -0.27816,0.0691 -0.571127,10e-4 -0.788447,-0.18445"
           style="fill:#211e1e;fill-opacity:1;fill-rule:evenodd;stroke:none;stroke-width:0.0865883" />
        <path
           d="m -116.22289,-324.81779 v 0.30022 h 1.39537 v -0.30022 z m -2.85685,0.79391 v 2.88956 h 0.4373 v -1.23843 h 0.56699 l 0.59233,1.23843 h 0.51534 l -0.66242,-1.28227 c 0.3338,-0.1142 0.55903,-0.4289 0.55903,-0.78198 0,-0.45661 -0.36788,-0.82531 -0.82391,-0.82531 z m 2.62774,0 v 2.88956 h 1.85355 v -0.41266 h -1.41624 v -0.85219 h 1.20954 v -0.38616 h -1.20954 v -0.82582 h 1.41624 v -0.41265 z m 2.36937,0 v 0.38617 h 1.26121 l -1.31289,2.14238 v 0.36105 h 1.85355 v -0.41266 h -1.31289 l 1.31289,-2.1414 v -0.33554 z m 2.36936,0 v 2.88956 h 1.85355 v -0.41266 h -1.41625 v -0.85219 h 1.21099 v -0.38616 h -1.21099 v -0.82582 h 1.41625 v -0.41265 z m 2.42104,0 v 2.88956 h 0.43828 v -0.87754 l 0.51429,-0.54161 0.79907,1.41915 h 0.51433 l -1.02963,-1.75461 0.92726,-1.13495 h -0.51531 l -1.21001,1.4958 v -1.4958 z m 2.67942,0 v 2.88956 h 0.4373 v -2.06425 l 1.31289,2.06425 h 0.41243 v -2.88956 h -0.43731 v 2.06378 l -1.31336,-2.06378 z m 2.83299,0 v 2.88956 h 1.85402 v -0.41266 h -1.41675 v -0.85219 h 1.21103 v -0.38616 h -1.21103 v -0.82582 h 1.41675 v -0.41265 z m -14.86262,0.38617 h 0.72205 c 0.24095,0 0.43727,0.19622 0.43727,0.43902 0,0.24175 -0.19628,0.43805 -0.43727,0.43805 h -0.72205 z m 3.07202,4.3968 c -0.0509,0.002 -0.10186,0.004 -0.15318,0.0118 -0.37493,0.044 -0.67167,0.33946 -0.72205,0.71381 -0.0611,0.45398 0.25975,0.87358 0.7141,0.93331 l 0.46809,0.0624 c 0.1575,0.0196 0.28757,0.13696 0.32596,0.29197 0.0529,0.20839 -0.074,0.42062 -0.28208,0.47239 -0.38825,0.0954 -0.79805,0 -1.10415,-0.25902 l -0.28326,0.33868 c 0.41212,0.35045 0.96735,0.47937 1.49476,0.3481 0.32988,-0.0824 0.57642,-0.35987 0.62019,-0.69686 0.0596,-0.45527 -0.25975,-0.87224 -0.71312,-0.93331 l -0.47158,-0.0624 c -0.17356,-0.0235 -0.31147,-0.16207 -0.33145,-0.33867 -0.0274,-0.21389 0.12576,-0.40736 0.33654,-0.43255 0.30206,-0.0353 0.60839,0.0392 0.86019,0.21191 l 0.25035,-0.36497 c -0.29893,-0.20446 -0.65228,-0.30728 -1.00923,-0.29668 z m -2.47322,0.002 c -0.57114,0 -1.0361,0.46457 -1.0361,1.03534 v 0.88401 c 0,0.57344 0.46496,1.03935 1.0361,1.03935 0.57114,0 1.0361,-0.46591 1.0361,-1.03935 v -0.88401 c 0,-0.57077 -0.46496,-1.03534 -1.0361,-1.03534 z m 9.95593,0 c -0.57246,0 -1.03656,0.46457 -1.03656,1.03534 v 0.88401 c 0,0.57344 0.4641,1.03935 1.03656,1.03935 0.57114,0 1.0361,-0.46591 1.0361,-1.03935 v -0.88401 c 0,-0.57077 -0.46496,-1.03534 -1.0361,-1.03534 z m -5.99641,0.0235 v 0.39009 h 0.80303 v 2.51775 h 0.43977 v -2.51775 h 0.80456 v -0.39009 z m 7.24572,0 0.95955,2.908 h 0.36318 l 0.95805,-2.908 h -0.46661 l -0.67331,2.23253 -0.67433,-2.23253 z m -4.79836,0.008 v 2.89003 h 0.43731 v -1.23844 h 0.56749 l 0.59233,1.23844 h 0.51531 l -0.66238,-1.28223 c 0.33379,-0.1142 0.55903,-0.42894 0.55903,-0.78202 0,-0.45661 -0.36984,-0.82578 -0.82442,-0.82578 z m 8.03434,0.0314 -1.06145,2.90847 h 0.46512 l 0.21783,-0.6506 h 1.11955 l 0.21861,0.6506 h 0.46661 l -1.06438,-2.90847 z m -7.59703,0.3528 h 0.72103 c 0.24251,0 0.43879,0.19662 0.43879,0.4395 0,0.24174 -0.19628,0.43804 -0.43879,0.43804 h -0.72103 z m -6.84419,0.0196 c 0.3287,0 0.59484,0.26843 0.59484,0.59483 v 0.88405 c 0,0.32926 -0.26602,0.5973 -0.59484,0.5973 -0.3287,0 -0.59484,-0.26804 -0.59484,-0.5973 v -0.88405 c 0,-0.32651 0.26602,-0.59483 0.59484,-0.59483 z m 9.95593,0 c 0.32753,0 0.59484,0.26843 0.59484,0.59483 v 0.88405 c 0,0.32926 -0.26758,0.5973 -0.59484,0.5973 -0.3287,0 -0.59628,-0.26804 -0.59628,-0.5973 v -0.88405 c 0,-0.32651 0.26758,-0.59483 0.59628,-0.59483 z m 4.66715,0.22448 0.42787,1.27183 h -0.8562 z"
           style="fill:#ffffff;fill-opacity:1;fill-rule:evenodd;stroke:none;stroke-width:0.0865883"
           id="path2327" />
        <path
           d="m -115.57042,-314.96548 c -0.0509,0.002 -0.10186,0.004 -0.15318,0.0118 -0.37493,0.044 -0.67167,0.33986 -0.72205,0.71429 -0.0611,0.45531 0.25975,0.8731 0.7141,0.93283 l 0.46809,0.0628 c 0.1575,0.0196 0.28757,0.13618 0.32596,0.29159 0.0529,0.20839 -0.074,0.42109 -0.28208,0.47285 -0.38825,0.0958 -0.79805,0 -1.10415,-0.25862 l -0.28326,0.33829 c 0.41212,0.35045 0.96735,0.47886 1.49476,0.34731 0.32988,-0.0824 0.57642,-0.35987 0.62019,-0.69686 0.0596,-0.45398 -0.25975,-0.87177 -0.71312,-0.93284 l -0.47158,-0.0628 c -0.17356,-0.0235 -0.31147,-0.16168 -0.33145,-0.3371 -0.0274,-0.21506 0.12576,-0.40885 0.33654,-0.43405 0.30206,-0.0353 0.60839,0.0392 0.86019,0.21271 l 0.25035,-0.3638 c -0.29893,-0.20564 -0.65228,-0.30846 -1.00923,-0.29825 z m -2.47322,0.002 c -0.57114,0 -1.0361,0.46477 -1.0361,1.03687 v 0.88253 c 0,0.57343 0.46496,1.03934 1.0361,1.03934 0.57114,0 1.0361,-0.46591 1.0361,-1.03934 v -0.88253 c 0,-0.5721 -0.46496,-1.03687 -1.0361,-1.03687 z m 9.95593,0 c -0.57246,0 -1.03656,0.46477 -1.03656,1.03687 v 0.88253 c 0,0.57343 0.4641,1.03934 1.03656,1.03934 0.57114,0 1.0361,-0.46591 1.0361,-1.03934 v -0.88253 c 0,-0.5721 -0.46496,-1.03687 -1.0361,-1.03687 z m -5.99641,0.0236 v 0.39009 h 0.80303 v 2.51822 h 0.43977 v -2.51822 h 0.80456 v -0.39009 z m 7.24572,0 0.95955,2.90847 h 0.36318 l 0.95805,-2.90847 h -0.46661 l -0.67331,2.23249 -0.67433,-2.23249 z m -4.79836,0.008 v 2.88955 h 0.43731 v -1.23847 h 0.56749 l 0.59233,1.23847 h 0.51531 l -0.66238,-1.28227 c 0.33379,-0.11302 0.55903,-0.4289 0.55903,-0.78198 0,-0.4566 -0.36984,-0.8253 -0.82442,-0.8253 z m 0.43731,0.38616 h 0.72103 c 0.24251,0 0.43879,0.19622 0.43879,0.43903 0,0.24174 -0.19628,0.43804 -0.43879,0.43804 h -0.72103 z m -6.84419,0.0196 c 0.3287,0 0.59484,0.26686 0.59484,0.59483 v 0.88256 c 0,0.33044 -0.26602,0.59734 -0.59484,0.59734 -0.3287,0 -0.59484,-0.26686 -0.59484,-0.59734 v -0.88256 c 0,-0.32769 0.26602,-0.59483 0.59484,-0.59483 z m 9.95593,0 c 0.32753,0 0.59484,0.26686 0.59484,0.59483 v 0.88256 c 0,0.33044 -0.26758,0.59734 -0.59484,0.59734 -0.3287,0 -0.59628,-0.26686 -0.59628,-0.59734 v -0.88256 c 0,-0.32769 0.26758,-0.59483 0.59628,-0.59483 z"
           style="fill:#ffffff;fill-opacity:1;fill-rule:evenodd;stroke:none;stroke-width:0.0865883"
           id="path2357" />
        <path
           id="path2369"
           d="m -64.939956,-327.00668 c 1.378123,0 2.503196,0.74466 2.503196,1.65658 0,0.91192 -1.125073,1.65658 -2.503196,1.65658 -1.378162,0 -2.501863,-0.74466 -2.501863,-1.65658 0,-0.91192 1.123701,-1.65658 2.501863,-1.65658"
           style="fill:#ffffff;fill-opacity:1;fill-rule:evenodd;stroke:none;stroke-width:0.0865883" />
        <path
           id="path2371"
           d="m -66.128614,-324.58154 v -1.53712 h 0.629432 c 0.226449,0 0.410781,0.18445 0.410781,0.41152 0,0.13421 -0.06503,0.26019 -0.174734,0.33711 0.2002,0.12205 0.262493,0.38498 0.140649,0.58536 -0.07679,0.12598 -0.214695,0.2029 -0.363179,0.2029 z m 0.231933,-0.22055 h 0.384336 c 0.128503,0 0.233108,-0.10361 0.233108,-0.23233 0,-0.12872 -0.104605,-0.2335 -0.233108,-0.2335 h -0.384336 z m 0,-0.67163 h 0.36984 c 0.121843,0 0.219788,-0.0981 0.219788,-0.21898 0,-0.12087 -0.09795,-0.22055 -0.219788,-0.22055 h -0.36984 v 0.43938"
           style="fill:#211e1e;fill-opacity:1;fill-rule:evenodd;stroke:none;stroke-width:0.0865883" />
        <path
           id="path2373"
           d="m -64.432445,-324.58154 v -0.63183 l -0.466452,-0.90529 h 0.246429 l 0.329878,0.68627 0.327528,-0.68627 h 0.246429 l -0.465121,0.90529 v 0.63183 h -0.218613"
           style="fill:#211e1e;fill-opacity:1;fill-rule:evenodd;stroke:none;stroke-width:0.0865883" />
        <path
           d="m -68.024904,-316.85898 v 1.89452 c 0,0.57473 0.463788,1.03785 1.037588,1.03785 0.569804,0 1.033631,-0.46312 1.033631,-1.03785 v -1.89452 h -0.439811 v 1.89452 c 0,0.33044 -0.267977,0.59581 -0.59382,0.59581 -0.329878,0 -0.597816,-0.26529 -0.597816,-0.59581 v -1.89452 z m 2.564156,0 v 2.90847 h 0.439772 v -0.88256 l 0.520792,-0.54703 0.802051,1.42959 h 0.519264 l -1.037588,-1.76559 0.932748,-1.14288 h -0.517815 l -1.219452,1.50526 v -1.50526 z m 2.589504,0 v 2.90997 h 0.439773 v -1.84374 l 0.621636,1.4281 h 0.361612 l 0.621166,-1.4281 v 1.84374 h 0.440282 v -2.90997 h -0.414934 l -0.826889,1.89699 -0.828378,-1.89699 z m 3.088906,0 v 2.90847 h 1.865457 v -0.41563 h -1.424196 v -0.85717 h 1.217454 v -0.38931 h -1.217454 v -0.83076 h 1.424196 v -0.41563 z m 2.358394,0 v 2.90997 h 0.440282 v -1.24793 h 0.572467 l 0.5948,1.24793 h 0.518324 l -0.665398,-1.29173 c 0.335363,-0.1142 0.562007,-0.42988 0.562007,-0.78696 0,-0.45795 -0.369839,-0.83128 -0.829867,-0.83128 z m 3.579374,0 c -0.569804,0 -1.035081,0.46591 -1.035081,1.03935 v 0.88402 c 0,0.57343 0.465277,1.03836 1.035081,1.03836 0.572468,0 1.037588,-0.46493 1.037588,-1.03836 v -0.5973 h -1.037588 v 0.41414 h 0.596327 v 0.18327 c 0,0.33044 -0.26641,0.59636 -0.596327,0.59636 -0.327136,0 -0.59382,-0.26569 -0.59382,-0.59636 v -0.88401 c 0,-0.26019 0.16729,-0.48832 0.412426,-0.56795 0.314207,-0.10203 0.649022,0.0718 0.748377,0.38617 h 0.454699 c -0.08893,-0.49511 -0.51946,-0.85765 -1.021682,-0.85765 z m -3.139092,0.39009 h 0.727495 c 0.242511,0 0.439772,0.19819 0.439772,0.44103 3.9e-5,0.2441 -0.197457,0.44201 -0.439772,0.44201 h -0.727495 z m 2.960206,2.74671 v 0.72076 l 0.361612,-0.28178 v -0.43902 z m -14.001448,1.55403 v 1.89448 c 0,0.57343 0.463788,1.03785 1.037588,1.03785 0.569804,0 1.033631,-0.46442 1.033631,-1.03785 v -1.89448 h -0.439811 v 1.89448 c 0,0.33043 -0.267977,0.59584 -0.59382,0.59584 -0.329878,0 -0.597816,-0.26529 -0.597816,-0.59584 v -1.89448 z m 2.564156,0 v 2.90694 h 0.439772 v -0.88103 l 0.520792,-0.54707 0.802051,1.4281 h 0.519264 l -1.037588,-1.76407 0.932748,-1.14287 h -0.517815 l -1.219452,1.50423 v -1.50423 z m 2.589504,0 v 2.90843 h 0.439773 v -1.84224 l 0.621636,1.42661 h 0.361612 l 0.621166,-1.42661 v 1.84224 h 0.440282 v -2.90843 h -0.414934 l -0.826889,1.89699 -0.828378,-1.89699 z m 3.088906,0 v 2.90694 h 1.865457 v -0.41513 h -1.424196 v -0.85615 h 1.217454 v -0.3893 h -1.217454 v -0.83076 h 1.424196 v -0.41564 z m 2.358394,0 v 2.90843 h 0.440282 v -1.2464 h 0.572467 l 0.5948,1.2464 h 0.518324 l -0.665398,-1.29019 c 0.335363,-0.1142 0.562007,-0.42992 0.562007,-0.78697 0,-0.45794 -0.369839,-0.83127 -0.829867,-0.83127 z m 3.579374,0 c -0.569804,0 -1.035081,0.46591 -1.035081,1.03935 v 0.88401 c 0,0.57344 0.465277,1.03687 1.035081,1.03687 0.572468,0 1.037588,-0.46343 1.037588,-1.03687 v -0.59734 h -1.037588 v 0.41415 h 0.596327 v 0.18327 c 0,0.32926 -0.26641,0.59632 -0.596327,0.59632 -0.327136,0 -0.59382,-0.26726 -0.59382,-0.59632 v -0.88402 c 0,-0.26019 0.16729,-0.48831 0.412426,-0.56798 0.314207,-0.10203 0.649022,0.0718 0.748377,0.38616 h 0.454699 c -0.08893,-0.4951 -0.51946,-0.85764 -1.021682,-0.85764 z m -3.139092,0.39009 h 0.727495 c 0.242511,0 0.439772,0.19661 0.439772,0.44103 3.9e-5,0.24409 -0.197457,0.442 -0.439772,0.442 h -0.727495 z m -5.704738,5.08668 v 1.89401 c 0,0.57477 0.463827,1.03836 1.037588,1.03836 0.569804,0 1.033632,-0.46359 1.033632,-1.03836 v -1.89401 h -0.440282 v 1.89401 c 0,0.33043 -0.267194,0.59733 -0.59335,0.59733 -0.329878,0 -0.597816,-0.26686 -0.597777,-0.59733 v -1.89401 z m 2.619828,0 v 2.90847 h 0.439772 v -2.07618 l 1.322334,2.07618 h 0.414933 v -2.90847 h -0.4413 v 2.07622 l -1.321315,-2.07622 z m -7.956332,0.0118 v 2.90698 h 0.439772 v -0.88303 l 0.520792,-0.54656 0.800562,1.42959 h 0.520792 l -1.037588,-1.76556 0.932709,-1.14142 h -0.517776 l -1.219491,1.50377 v -1.50377 z m 3.65342,0 -1.061448,2.90698 h 0.465121 l 0.217045,-0.65059 h 1.120097 l 0.218613,0.65059 h 0.4661 l -1.062427,-2.90698 z m 7.961269,0 -1.061409,2.90698 h 0.46661 l 0.217045,-0.65059 h 1.118569 l 0.22018,0.65059 h 0.465121 l -1.062937,-2.90698 z m -7.779875,0.59585 0.428332,1.27179 h -0.854706 z m 7.962758,0 0.428332,1.27179 h -0.856195 z m -2.908531,2.5008 v 0.72076 l 0.361612,-0.2802 v -0.44052 z m 5.510454,1.34498 c -0.05093,0.002 -0.102254,0.004 -0.153185,0.0118 -0.3765,0.044 -0.673155,0.33986 -0.723538,0.71433 -0.06073,0.45527 0.261317,0.87357 0.714605,0.9333 l 0.467589,0.0624 c 0.157887,0.0196 0.287566,0.13696 0.32596,0.29237 0.05289,0.20839 -0.07405,0.42062 -0.282081,0.47238 -0.388253,0.0954 -0.797545,0 -1.103642,-0.25901 l -0.283648,0.33868 c 0.412112,0.35045 0.967342,0.47937 1.494755,0.3481 0.329878,-0.0824 0.576621,-0.35987 0.621676,-0.69686 0.05837,-0.45398 -0.261317,-0.87229 -0.714606,-0.93331 l -0.471585,-0.0624 c -0.172383,-0.0236 -0.311464,-0.16247 -0.331445,-0.3375 -0.02351,-0.21506 0.124978,-0.40881 0.33693,-0.43404 0.303237,-0.0353 0.607885,0.0392 0.859682,0.2127 l 0.250347,-0.36379 c -0.298144,-0.20564 -0.651451,-0.30846 -1.007774,-0.29826 z m -9.062991,0.0157 v 1.89451 c 0,0.57477 0.463827,1.03786 1.037588,1.03786 0.569804,0 1.033632,-0.46309 1.033632,-1.03786 v -1.89451 h -0.440282 v 1.89451 c 0,0.33044 -0.267194,0.59585 -0.59335,0.59585 -0.329878,0 -0.597816,-0.26529 -0.597777,-0.59585 v -1.89451 z m 2.619828,0 v 2.90698 h 0.439772 v -2.07571 l 1.322334,2.07571 h 0.414933 v -2.90698 h -0.4413 v 2.07621 l -1.321315,-2.07621 z m -7.956332,0.0118 v 2.90847 h 0.439772 v -0.88256 l 0.520792,-0.54703 0.800562,1.42959 h 0.520792 l -1.037588,-1.7656 0.932709,-1.14287 h -0.517776 l -1.219491,1.50525 v -1.50525 z m 3.65342,0 -1.061448,2.90847 h 0.465121 l 0.217045,-0.65059 h 1.120097 l 0.218613,0.65059 h 0.4661 l -1.062427,-2.90847 z m 7.961269,0 -1.061409,2.90847 h 0.46661 l 0.217045,-0.65059 h 1.118569 l 0.22018,0.65059 h 0.465121 l -1.062937,-2.90847 z m -7.779875,0.5973 0.428332,1.27183 h -0.854706 z m 7.962758,0 0.428332,1.27183 h -0.856195 z"
           style="fill:#ffffff;fill-opacity:1;fill-rule:evenodd;stroke:none;stroke-width:0.0865883"
           id="path2375" />
        <path
           d="m -52.351303,-316.85898 v 2.90847 h 1.865966 v -0.41563 h -1.425684 v -0.85717 h 1.218982 v -0.38931 h -1.218982 v -0.83076 h 1.425684 v -0.41563 z m 0.933218,3.93189 c -0.132421,0 -0.24016,0.10753 -0.24016,0.24056 0,0.13422 0.107347,0.24136 0.24016,0.24136 0.132422,0 0.239377,-0.10753 0.239377,-0.24136 0,-0.13264 -0.106955,-0.24056 -0.239377,-0.24056 z m -0.933218,0.7591 v 2.90694 h 1.865966 v -0.41513 h -1.425684 v -0.85615 h 1.218982 v -0.3893 h -1.218982 v -0.83077 h 1.425684 v -0.41563 z"
           style="fill:#ffffff;fill-opacity:1;fill-rule:evenodd;stroke:none;stroke-width:0.0865883"
           id="path2379" />
        <path
           id="path2407"
           d="m -46.635791,-312.53022 c 1.379455,0 2.504488,0.74466 2.504488,1.65792 0,0.91187 -1.125033,1.65657 -2.504488,1.65657 -1.378162,0 -2.501864,-0.7447 -2.501864,-1.65657 0,-0.91326 1.123702,-1.65792 2.501864,-1.65792"
           style="fill:#ffffff;fill-opacity:1;fill-rule:evenodd;stroke:none;stroke-width:0.0865883" />
        <path
           d="m -47.710481,-311.64236 v 1.53861 h 0.985912 v -0.22055 h -0.753861 v -1.31809 z m 1.069361,0 v 0.20721 h 0.425394 v 1.33156 h 0.231934 v -1.33156 h 0.425394 v -0.20721 z"
           style="fill:#211e1e;fill-opacity:1;fill-rule:evenodd;stroke:none;stroke-width:0.0865883"
           id="path2409" />
        <path
           id="path2437"
           d="m -48.736159,-302.41156 c 1.379494,0 2.503195,0.74596 2.503195,1.65788 0,0.91191 -1.123701,1.65657 -2.503195,1.65657 -1.378123,0 -2.501864,-0.74466 -2.501864,-1.65657 0,-0.91192 1.123741,-1.65788 2.501864,-1.65788"
           style="fill:#ffffff;fill-opacity:1;fill-rule:evenodd;stroke:none;stroke-width:0.0865883" />
        <path
           d="m -49.811985,-301.52374 v 1.53861 h 0.986892 v -0.22055 h -0.753862 v -1.31809 z m 1.07038,0.002 v 0.20564 h 0.425355 v 1.33151 h 0.231933 v -1.33151 h 0.425394 v -0.20564 z"
           style="fill:#211e1e;fill-opacity:1;fill-rule:evenodd;stroke:none;stroke-width:0.0865883"
           id="path2439" />
      </g>
    </g>
  </g>
</svg>
