<?xml version="1.0" encoding="UTF-8" standalone="no"?>
<svg
   xmlns:dc="http://purl.org/dc/elements/1.1/"
   xmlns:cc="http://creativecommons.org/ns#"
   xmlns:rdf="http://www.w3.org/1999/02/22-rdf-syntax-ns#"
   xmlns:svg="http://www.w3.org/2000/svg"
   xmlns="http://www.w3.org/2000/svg"
   xmlns:sodipodi="http://sodipodi.sourceforge.net/DTD/sodipodi-0.dtd"
   xmlns:inkscape="http://www.inkscape.org/namespaces/inkscape"
   sodipodi:docname="Latvia_road_sign_723.svg"
   inkscape:version="1.0 (4035a4fb49, 2020-05-01)"
   id="svg5959"
   version="1.1"
   viewBox="0 0 29.228 52.325028"
   height="52.325027mm"
   width="29.228001mm">
  <defs
     id="defs5953" />
  <sodipodi:namedview
     inkscape:document-rotation="0"
     inkscape:window-maximized="1"
     inkscape:window-y="-9"
     inkscape:window-x="-9"
     inkscape:window-height="1001"
     inkscape:window-width="1920"
     showgrid="false"
     inkscape:current-layer="layer1"
     inkscape:document-units="mm"
     inkscape:cy="159.62466"
     inkscape:cx="-1.8316985"
     inkscape:zoom="1.6744345"
     inkscape:pageshadow="2"
     inkscape:pageopacity="0.0"
     borderopacity="1.0"
     bordercolor="#666666"
     pagecolor="#ffffff"
     id="base">
    <inkscape:grid
       originy="-153.10435"
       originx="-42.145636"
       id="grid6625"
       type="xygrid" />
  </sodipodi:namedview>
  <metadata
     id="metadata5956">
    <rdf:RDF>
      <cc:Work
         rdf:about="">
        <dc:format>image/svg+xml</dc:format>
        <dc:type
           rdf:resource="http://purl.org/dc/dcmitype/StillImage" />
        <dc:title />
      </cc:Work>
    </rdf:RDF>
  </metadata>
  <g
     transform="translate(-42.145637,-51.284977)"
     id="layer1"
     inkscape:groupmode="layer"
     inkscape:label="Layer 1">
    <path
       d="m 44.216368,51.343832 h 25.086775 c 1.10646,0 2.01164,0.905415 2.01164,2.011876 v 48.183562 c 0,1.10647 -0.90518,2.01188 -2.01164,2.01188 H 44.216368 c -1.106461,0 -2.011876,-0.90541 -2.011876,-2.01188 V 53.355708 c 0,-1.106461 0.905415,-2.011876 2.011876,-2.011876 z"
       style="fill:#ffffff;fill-opacity:1;stroke:#000000;stroke-width:0.117709;stroke-linecap:butt;stroke-linejoin:miter;stroke-miterlimit:22.926;stroke-dasharray:none;stroke-opacity:1"
       id="path2649" />
    <path
       d="m 44.508757,94.492996 c -0.973686,0.0047 -1.633091,-0.619384 -1.633091,-1.648865 V 53.646213 c 0,-0.868925 0.570888,-1.72914 1.633091,-1.648862 h 24.501761 c 0.973686,0 1.633326,0.83785 1.633326,1.648862 v 39.197918 c 0,1.033952 -0.65964,1.648865 -1.633326,1.648865 H 44.508757"
       style="fill:#283996;fill-opacity:1;fill-rule:evenodd;stroke:none;stroke-width:0.235417"
       id="path2563" />
    <path
       d="m 44.508757,102.89763 c -0.973686,0.005 -1.633091,-0.74204 -1.633091,-1.97515 V 53.972502 c 0,-1.041015 0.570888,-2.071437 1.633091,-1.975151 h 24.501761 c 0.973686,0 1.633326,1.003583 1.633326,1.975151 v 46.949978 c 0,1.23853 -0.65964,1.97515 -1.633326,1.97515 H 44.508757"
       style="fill:#283996;fill-opacity:1;fill-rule:evenodd;stroke:none;stroke-width:0.235417"
       id="path2565" />
    <path
       d="m 43.537189,94.390122 h 26.449134 v 7.120198 c 0,0.41056 -0.363013,0.66976 -0.615616,0.66976 h -25.21131 c -0.345122,0 -0.622208,-0.32747 -0.622208,-0.66976 v -7.120198"
       style="fill:#ffffff;fill-opacity:1;fill-rule:evenodd;stroke:none;stroke-width:0.235417"
       id="path2567" />
    <path
       d="M 43.535071,93.870316 H 69.984204 V 67.297356 H 43.535071 Z"
       style="fill:#ffffff;fill-opacity:1;fill-rule:nonzero;stroke:none;stroke-width:0.235417"
       id="path2569" />
    <path
       d="m 45.314354,79.317996 v -0.318754 h 1.757156 v -1.699476 h 4.523308 l -0.0045,2.01823 H 49.87745 c -0.207873,-0.650688 -1.243709,-0.739209 -1.544573,0 h -3.018521"
       style="fill:#000000;fill-opacity:1;fill-rule:evenodd;stroke:none;stroke-width:0.235417"
       id="path2571" />
    <path
       d="m 43.535071,66.841353 v -7.550539 l 26.449133,-0.0045 v 7.55501 H 43.535071"
       style="fill:#ffffff;fill-opacity:1;fill-rule:evenodd;stroke:none;stroke-width:0.235417"
       id="path2573" />
    <path
       d="m 52.121446,65.13293 v -2.598066 l 0.504499,0.0045 0.0045,0.318754 h 1.101989 l -0.0045,1.093043 0.278969,-0.128303 0.314047,-1.916296 0.296625,1.296678 0.172561,-0.163615 h 0.792415 V 62.85809 l 0.358305,-1.690767 0.340884,1.699478 v 0.172796 h 0.203636 l 0.460242,0.561941 v -0.561941 l 0.4294,-2.142297 0.491316,2.142297 -0.0045,0.283207 h 1.000053 l 0.270023,0.628329 h 0.212582 V 61.84462 l 0.548757,-0.132776 0.570886,0.145959 0.0045,1.000288 h 0.500027 v 2.270365 l -8.847218,0.0045"
       style="fill:#000000;fill-opacity:1;fill-rule:evenodd;stroke:none;stroke-width:0.235417"
       id="path2575" />
    <path
       d="m 52.121446,72.929243 v -2.593591 h 0.508972 l -0.0045,0.318755 h 1.106462 v 1.093278 l 0.274496,-0.12854 0.314047,-1.916294 0.296625,1.301147 0.177034,-0.163608 h 0.787942 v -0.185983 l 0.358305,-1.690768 0.340884,1.699717 v 0.177034 h 0.203636 l 0.460242,0.557463 V 70.84039 l 0.4294,-2.146774 0.491316,2.146774 -0.0045,0.278729 h 1.000053 l 0.270023,0.628566 h 0.212583 v -2.10675 l 0.548757,-0.132775 0.570887,0.145959 0.0045,1.000288 h 0.500027 v 2.274836 h -8.84722"
       style="fill:#000000;fill-opacity:1;fill-rule:evenodd;stroke:none;stroke-width:0.235417"
       id="path2577" />
    <path
       d="m 47.779174,84.925876 c -0.05273,-0.05365 -0.05179,-0.07086 -0.04026,-0.140545 0.0054,-0.114653 0.01483,-0.217294 0.07274,-0.309105 L 48.531329,83.8406 c 0.04732,-0.0047 0.08287,-0.0027 0.129244,0.0047 -0.196338,0.265081 -0.328643,0.541227 -0.388439,0.767937 l -0.03273,0.343239 z m 2.502251,0.161493 c -0.264139,-0.03203 -0.347476,-0.263433 -0.463773,-0.455536 0.708135,0.169267 1.191447,0.175393 1.955141,-0.08828 l 0.08522,0.169033 c -0.426812,0.233297 -1.068324,0.430812 -1.566938,0.387028 z m -1.267959,0.359481 -0.250013,-0.414335 0.49061,0.107586 z m 2.389015,1.105991 c -0.20905,-0.03463 -0.33335,-0.145958 -0.393853,-0.321344 l 0.252368,-1.8e-4 c 0.162908,0.192103 0.477661,0.08829 0.479074,-0.1888 -0.02095,-0.172563 -0.136071,-0.242245 -0.24813,-0.253076 -0.09911,-0.0094 -0.200811,0.04918 -0.242951,0.12124 h -0.246246 c 0.108763,-0.331941 0.524039,-0.451292 0.782527,-0.234712 0.130186,0.111357 0.177269,0.201753 0.189511,0.399267 0.0012,0.198456 -0.186451,0.528748 -0.5723,0.477665 z m 0.01413,0.255431 c -0.298039,-0.01742 -0.587131,-0.269559 -0.645515,-0.557236 -0.07698,-0.369137 0.08852,-0.709546 0.447999,-0.856684 0.678944,-0.244361 1.220639,0.481194 0.914832,1.023596 -0.165734,0.24719 -0.328878,0.402089 -0.717316,0.390324 z m -4.34345,-0.721084 c 0.0097,-0.234004 0.09723,-0.42917 0.255899,-0.565477 0.169971,-0.137009 0.399738,-0.216114 0.649281,-0.157489 l -0.126655,0.221291 c -0.09228,-0.01555 -0.205048,0.01248 -0.303218,0.0666 -0.267669,0.145491 -0.339235,0.58431 -0.05885,0.810546 0.249542,0.186451 0.555114,0.132304 0.730265,-0.117002 0.137954,-0.197755 0.08028,-0.499793 -0.08263,-0.632804 l -0.12124,0.201285 c 0.07863,0.109468 0.0565,0.267197 -0.02448,0.342999 -0.09487,0.08852 -0.238948,0.122187 -0.379257,0.004 -0.09017,-0.09487 -0.103348,-0.240598 -0.03343,-0.336172 0.05321,-0.10194 0.196809,-0.133251 0.265551,-0.117476 l 0.514152,-0.903057 c -0.0057,-0.204108 0.05532,-0.414335 0.148547,-0.594199 l 0.446116,0.06613 c 0.240361,0.02869 0.737092,0.11889 0.81478,0.437171 0.08428,0.148079 0.155846,0.333115 0.33547,0.369604 0.505676,0.169741 1.376955,-0.10146 1.826367,-0.378079 l 0.465891,0.52451 -0.09864,0.09511 c -0.313811,-0.276146 -0.668115,-0.267197 -0.985221,-0.214932 -0.193043,0.0299 -0.409156,0.163374 -0.514623,0.282732 -0.13254,0.153024 -0.198692,0.367015 -0.210227,0.569948 l -0.01012,0.16856 -1.227701,1.73e-4 c -0.136778,-0.01108 -0.205519,-0.139364 -0.27638,-0.258721 l -0.548286,-0.867509 -0.258018,0.395029 c 0.174679,0.153725 0.286267,0.356185 0.279676,0.589482 -0.01812,0.444231 -0.384437,0.754043 -0.808894,0.717787 -0.367958,-0.05345 -0.623856,-0.282972 -0.664112,-0.720377"
       style="fill:#000000;fill-opacity:1;fill-rule:evenodd;stroke:none;stroke-width:0.235417"
       id="path2579" />
    <path
       d="m 65.955509,60.448597 c 1.481245,0 2.689642,1.208161 2.689642,2.689877 0,1.481246 -1.208397,2.689643 -2.689642,2.689643 -1.481482,0 -2.689644,-1.208397 -2.689644,-2.689643 0,-1.481716 1.208162,-2.689877 2.689644,-2.689877 z m -0.0014,0.713549 c 1.090453,0 1.979387,0.888936 1.979387,1.979154 0,1.090217 -0.888934,1.979388 -1.979387,1.979388 -1.089983,0 -1.979154,-0.889171 -1.979154,-1.979388 0,-1.090218 0.889171,-1.979154 1.979154,-1.979154"
       style="fill:#ed1a3a;fill-opacity:1;fill-rule:evenodd;stroke:none;stroke-width:0.235417"
       id="path2581" />
    <path
       d="m 64.722157,63.806589 h 0.348888 v 0.109234 c 0,0.09628 0.07816,0.174444 0.174681,0.174444 0.09628,0 0.174444,-0.07816 0.174444,-0.174444 v -0.58925 c 0,-0.09629 -0.07816,-0.174445 -0.174444,-0.174445 -0.07981,0 -0.149725,0.05438 -0.169031,0.131834 l -0.310986,-0.0012 v -1.308666 h 1.003584 v 0.326994 h -0.698248 v 0.657756 c 0.167381,-0.156788 0.429401,-0.148548 0.586189,0.01883 0.07204,0.07651 0.112059,0.177741 0.112059,0.283678 v 0.65446 c 0,0.288622 -0.234476,0.523569 -0.523567,0.523569 -0.288857,0 -0.523569,-0.234947 -0.523569,-0.523569 v -0.109233"
       style="fill:#000000;fill-opacity:1;fill-rule:evenodd;stroke:none;stroke-width:0.235417"
       id="path2583" />
    <path
       d="m 66.118417,63.915823 v -1.440284 c 0,-0.289092 0.23424,-0.523568 0.523569,-0.523568 0.289091,0 0.523096,0.234476 0.523096,0.523568 v 1.440284 c 0,0.288621 -0.234005,0.523567 -0.523096,0.523567 -0.289329,0 -0.523569,-0.234946 -0.523569,-0.523567 z m 0.349125,0 c 0,0.09628 0.07792,0.174444 0.174444,0.174444 0.09628,0 0.174444,-0.07816 0.174444,-0.174444 v -1.440284 c 0,-0.09628 -0.07816,-0.174444 -0.174444,-0.174444 -0.09652,0 -0.174444,0.07816 -0.174444,0.174444 v 1.440284"
       style="fill:#000000;fill-opacity:1;fill-rule:evenodd;stroke:none;stroke-width:0.235417"
       id="path2585" />
    <path
       d="m 58.806827,86.054463 c -0.03296,-0.298508 0.165498,-0.524037 0.354302,-0.60479 l -3.195789,0.0027 c 0.246481,0.174212 0.338059,0.315458 0.335234,0.603609 z m 2.152419,-0.07369 0.393147,-0.529923 -1.606723,-0.0013 c 0.268376,0.139131 0.342768,0.27309 0.378317,0.611383 z m -5.977245,0.04191 c 0.02566,-0.263434 0.06074,-0.42187 0.349595,-0.572305 l -1.011117,-0.0027 -0.0012,0.235893 0.168088,0.24059 z m 6.371805,-0.714965 -0.162672,-0.371487 -1.404266,-0.0092 -0.725085,-0.890585 H 56.93008 l -0.819252,0.881403 -1.667461,0.266496 -0.08193,0.122888 z m -1.988099,-0.386321 -0.56406,-0.727204 -0.799947,-1.74e-4 v 0.728619 z m -1.515616,0.0053 0.0017,-0.732856 -0.882108,-1.73e-4 c -0.218232,0.246483 -0.451295,0.477664 -0.664583,0.733089 z m -2.21104,0.521448 c 0.314989,0 0.571593,0.25708 0.571593,0.571597 0,0.31475 -0.256604,0.571356 -0.571593,0.571356 -0.314517,0 -0.571122,-0.256606 -0.571122,-0.571356 0,-0.314517 0.256605,-0.571597 0.571122,-0.571597 z m 0.0045,0.273323 c 0.167382,0 0.30416,0.136774 0.30416,0.304393 0,0.167378 -0.136778,0.30392 -0.30416,0.30392 -0.167617,0 -0.303923,-0.136542 -0.303923,-0.30392 0,-0.167619 0.136306,-0.304393 0.303923,-0.304393 z m 3.822471,-0.266964 c 0.314518,0 0.571593,0.257074 0.571593,0.571591 0,0.314757 -0.257075,0.571356 -0.571593,0.571356 -0.314753,0 -0.571358,-0.256599 -0.571358,-0.571356 0,-0.314517 0.256605,-0.571591 0.571358,-0.571591 z m 0.0042,0.273316 c 0.167617,0 0.304395,0.136775 0.304395,0.304394 0,0.167385 -0.136778,0.303926 -0.304395,0.303926 -0.167381,0 -0.303923,-0.136541 -0.303923,-0.303926 0,-0.167619 0.136542,-0.304394 0.303923,-0.304394"
       style="fill:#000000;fill-opacity:1;fill-rule:evenodd;stroke:none;stroke-width:0.235417"
       id="path2587" />
    <path
       d="m 52.053881,90.949262 -0.62056,0.227645 -0.433874,0.0013 c 0.02284,-0.291213 -0.232357,-0.637508 -0.635627,-0.640331 -0.376668,0.0073 -0.620089,0.283439 -0.641747,0.638449 l -2.463407,1.74e-4 c -0.0017,-0.329819 -0.262726,-0.626444 -0.635862,-0.631149 -0.370076,0.01061 -0.639158,0.297567 -0.639629,0.632804 l -0.314753,0.0013 c -0.13301,0 -0.272613,-0.116295 -0.272613,-0.271909 l -0.0028,-1.07562 0.543344,-0.935549 c 0.04026,-0.06921 0.103348,-0.182213 0.258017,-0.185743 h 5.617764 c 0.0944,-0.0047 0.244598,0.09581 0.241773,0.249773 z m -0.363955,-1.116354 -1.052551,-5.27e-4 0.0014,-0.934134 1.050197,0.0013 z m -1.208397,-5.27e-4 -0.991813,-1.8e-4 v -0.935543 l 0.991813,6.68e-4 z m -1.167434,5.27e-4 -1.033247,-5.27e-4 v -0.934842 l 1.03513,6.67e-4 z m -1.211929,0 -1.031598,-5.27e-4 0.0023,-0.935783 1.029244,0.0027 z m -1.222993,-5.27e-4 -1.269135,-0.0013 0.546875,-0.933667 h 0.72226 z m -0.258017,0.846795 c 0.286503,0 0.519566,0.228592 0.519566,0.508735 0,0.281324 -0.233063,0.51015 -0.519566,0.51015 -0.285326,0 -0.517683,-0.228826 -0.517683,-0.51015 0,-0.280143 0.232357,-0.508735 0.517683,-0.508735 z m -0.0089,0.26061 c 0.138661,0 0.251897,0.110643 0.251897,0.245776 0,0.136541 -0.113236,0.247417 -0.251897,0.247417 -0.13866,0 -0.249777,-0.110876 -0.249777,-0.247417 0,-0.135133 0.111117,-0.245776 0.249777,-0.245776 z m 3.749256,-1.8e-4 c 0.136542,0 0.247895,0.108761 0.247895,0.242479 0,0.133719 -0.111353,0.24342 -0.247895,0.24342 -0.136071,0 -0.246952,-0.109701 -0.246952,-0.24342 0,-0.133718 0.110881,-0.242479 0.246952,-0.242479 z m -0.0049,-0.260136 c 0.284384,0 0.514622,0.226476 0.514622,0.504263 0,0.278502 -0.230238,0.504972 -0.514622,0.504972 -0.282501,0 -0.513445,-0.22647 -0.513445,-0.504972 0,-0.277787 0.230944,-0.504263 0.513445,-0.504263"
       style="fill:#000000;fill-opacity:1;fill-rule:evenodd;stroke:none;stroke-width:0.235417"
       id="path2589" />
    <path
       d="m 54.21666,78.870001 c 0.260136,0 0.472247,0.21235 0.472247,0.472246 0,0.260136 -0.212111,0.472245 -0.472247,0.472245 -0.259901,0 -0.472248,-0.212109 -0.472248,-0.472245 0,-0.259896 0.212347,-0.472246 0.472248,-0.472246 z m 4.991082,0 c 0.260137,0 0.472247,0.21235 0.472247,0.472246 0,0.260136 -0.21211,0.472245 -0.472247,0.472245 -0.259901,0 -0.472247,-0.212109 -0.472247,-0.472245 0,-0.259896 0.212346,-0.472246 0.472247,-0.472246 z m -1.178734,0 c 0.260136,0 0.472482,0.21235 0.472482,0.472246 0,0.260136 -0.212346,0.472245 -0.472482,0.472245 -0.259901,0 -0.472247,-0.212109 -0.472247,-0.472245 0,-0.259896 0.212346,-0.472246 0.472247,-0.472246 z m -4.445621,-0.703427 0.476956,-0.558177 h 0.664818 v 0.557236 z m 1.649099,-1.100338 c 0.0066,-0.116301 0.07557,-0.179864 0.187862,-0.185042 h 5.62671 c 0.100288,0.0027 0.164557,0.08946 0.168794,0.177741 l 8.68e-4,1.533746 -5.984308,0.0013 z m 3.062308,1.724667 h 0.656108 c -0.160084,0.08216 -0.290505,0.212576 -0.331703,0.397619 -0.04073,-0.180331 -0.194925,-0.347476 -0.324405,-0.397619 z m 1.529976,0.547814 C 59.8137,79.106121 59.704002,78.90555 59.475882,78.790903 h 1.73738 v 0.264841 z m -4.986373,0 c -0.02236,-0.312402 -0.21682,-0.609495 -0.627858,-0.61444 -0.424928,0.02069 -0.598195,0.353836 -0.604787,0.617503 L 53.41577,79.28599 c -0.08428,-0.01275 -0.196573,-0.12242 -0.196573,-0.250487 l -9.35e-4,-0.870338 0.542402,-0.625263 c 0.05933,-0.09652 0.148313,-0.137489 0.242244,-0.148787 h 0.909182 c 0.134894,0.004 0.202459,0.139605 0.193278,0.222466 l 0.0012,1.174732 2.637145,5.34e-4 c -0.200105,0.08993 -0.348889,0.366541 -0.330997,0.552525 l -2.574289,-0.0027"
       style="fill:#000000;fill-opacity:1;fill-rule:evenodd;stroke:none;stroke-width:0.235417"
       id="path2591" />
    <path
       d="m 54.209597,90.792708 c 0.259901,0 0.472248,0.212343 0.472248,0.472245 0,0.260137 -0.212347,0.472246 -0.472248,0.472246 -0.260136,0 -0.472482,-0.212109 -0.472482,-0.472246 0,-0.259902 0.212346,-0.472245 0.472482,-0.472245 z m 4.990847,0 c 0.260136,0 0.472247,0.212343 0.472247,0.472245 0,0.260137 -0.212111,0.472246 -0.472247,0.472246 -0.259901,0 -0.472247,-0.212109 -0.472247,-0.472246 0,-0.259902 0.212346,-0.472245 0.472247,-0.472245 z m -1.178499,0 c 0.259901,0 0.472247,0.212343 0.472247,0.472245 0,0.260137 -0.212346,0.472246 -0.472247,0.472246 -0.260136,0 -0.472483,-0.212109 -0.472483,-0.472246 0,-0.259902 0.212347,-0.472245 0.472483,-0.472245 z m -4.445856,-0.703427 0.476956,-0.557944 h 0.664819 v 0.557003 z m 1.649099,-1.100345 c 0.0066,-0.116528 0.07557,-0.179857 0.187862,-0.185036 h 5.626945 c 0.100052,0.0027 0.164557,0.08946 0.168558,0.177976 l 0.0014,1.549754 -5.984778,0.0013 z m 3.062308,1.724434 h 0.656108 c -0.160084,0.0824 -0.290505,0.212816 -0.331703,0.397859 -0.04049,-0.180332 -0.194925,-0.347476 -0.324405,-0.397859 z m 1.529977,0.548053 c -0.01107,-0.232589 -0.120769,-0.433167 -0.348888,-0.548053 h 1.73738 v 0.265315 z m -4.986374,0 c -0.02236,-0.312401 -0.21682,-0.609494 -0.627858,-0.614439 -0.424928,0.02069 -0.598195,0.353829 -0.604787,0.617496 l -0.189747,-0.05579 c -0.08451,-0.01268 -0.196573,-0.12242 -0.196573,-0.250487 l -0.0012,-0.870338 0.542402,-0.62527 c 0.05956,-0.09652 0.148312,-0.137482 0.242244,-0.14878 h 0.909182 c 0.134894,0.004 0.202459,0.139605 0.193277,0.222466 l 0.0012,1.174739 2.637144,5.27e-4 c -0.200105,0.08993 -0.348888,0.366541 -0.330996,0.552525 l -2.574289,-0.0027"
       style="fill:#000000;fill-opacity:1;fill-rule:evenodd;stroke:none;stroke-width:0.235417"
       id="path2593" />
    <path
       d="m 49.115402,78.94675 c 0.383731,0 0.696835,0.313336 0.696835,0.696127 0,0.383731 -0.313104,0.697067 -0.696835,0.697067 -0.382788,0 -0.696129,-0.313336 -0.696129,-0.697067 0,-0.382791 0.313341,-0.696127 0.696129,-0.696127 z m 0.0092,0.35477 c 0.191864,0 0.349594,0.157729 0.349594,0.349598 0,0.191863 -0.15773,0.34865 -0.349594,0.34865 -0.191866,0 -0.348419,-0.156787 -0.348419,-0.34865 0,-0.191869 0.156553,-0.349598 0.348419,-0.349598"
       style="fill:#000000;fill-opacity:1;fill-rule:evenodd;stroke:none;stroke-width:0.235417"
       id="path2595" />
    <path
       d="m 51.63013,74.002515 -0.309809,-0.708138 10.064326,-4.07625 0.296625,0.787706 -10.051142,3.996682"
       style="fill:#ed1a3a;fill-opacity:1;fill-rule:evenodd;stroke:none;stroke-width:0.235417"
       id="path2597" />
    <path
       d="m 57.980512,78.311591 0.359717,-0.90895 H 58.05608 v 0.151376 h -0.151373 v -0.302745 h 0.605964 v 0.141953 l -0.359717,0.918366 z"
       style="fill:#ffffff;fill-opacity:1;fill-rule:evenodd;stroke:#ffffff;stroke-width:0.0508501;stroke-linecap:butt;stroke-linejoin:miter;stroke-miterlimit:22.926;stroke-dasharray:none;stroke-opacity:1"
       id="path2599" />
    <path
       d="m 58.483363,78.509339 v -0.207164 h 0.118179 v 0.118416 z"
       style="fill:#ffffff;fill-opacity:1;fill-rule:evenodd;stroke:#ffffff;stroke-width:0.0508501;stroke-linecap:butt;stroke-linejoin:miter;stroke-miterlimit:22.926;stroke-dasharray:none;stroke-opacity:1"
       id="path2601" />
    <path
       d="m 58.839079,77.940571 v -0.398326 h 0.398797 v 0.106172 h -0.29898 v 0.167859 c 0.08334,-0.06613 0.204342,-0.05205 0.270494,0.0313 0.02684,0.03417 0.04167,0.07628 0.04167,0.119598 v 0.112998 c 0,0.117236 -0.09534,0.212343 -0.212582,0.212343 -0.109704,0 -0.201281,-0.08334 -0.21164,-0.19233 h 0.10735 c 0.01083,0.05746 0.06663,0.09534 0.124301,0.08428 0.05014,-0.0094 0.08616,-0.05345 0.08616,-0.10429 v -0.09323 c 0,-0.05839 -0.04755,-0.105938 -0.106174,-0.105938 -0.04073,0 -0.07792,0.02309 -0.09558,0.05959 z"
       style="fill:#ffffff;fill-opacity:1;fill-rule:evenodd;stroke:#ffffff;stroke-width:0.0508501;stroke-linecap:butt;stroke-linejoin:miter;stroke-miterlimit:22.926;stroke-dasharray:none;stroke-opacity:1"
       id="path2603" />
    <path
       d="m 59.909756,78.300293 h -0.0751 c -0.07463,0 -0.135129,-0.06053 -0.135129,-0.135367 V 77.79697 h -0.06003 v -0.09746 h 0.06003 v -0.180098 h 0.120063 v 0.180098 h 0.09016 v 0.09746 h -0.09016 v 0.353128 c 0,0.02049 0.01695,0.03764 0.03766,0.03764 h 0.0525 z"
       style="fill:#ffffff;fill-opacity:1;fill-rule:evenodd;stroke:#ffffff;stroke-width:0.0508501;stroke-linecap:butt;stroke-linejoin:miter;stroke-miterlimit:22.926;stroke-dasharray:none;stroke-opacity:1"
       id="path2605" />
    <path
       d="m 57.874574,90.18274 0.359718,-0.90871 h -0.283914 v 0.151136 h -0.151609 v -0.302745 h 0.6062 v 0.141953 l -0.359953,0.918366 z"
       style="fill:#ffffff;fill-opacity:1;fill-rule:evenodd;stroke:#ffffff;stroke-width:0.0508501;stroke-linecap:butt;stroke-linejoin:miter;stroke-miterlimit:22.926;stroke-dasharray:none;stroke-opacity:1"
       id="path2607" />
    <path
       d="m 58.377425,90.380495 v -0.207171 h 0.118415 v 0.118417 z"
       style="fill:#ffffff;fill-opacity:1;fill-rule:evenodd;stroke:#ffffff;stroke-width:0.0508501;stroke-linecap:butt;stroke-linejoin:miter;stroke-miterlimit:22.926;stroke-dasharray:none;stroke-opacity:1"
       id="path2609" />
    <path
       d="m 58.733376,89.811721 v -0.39856 h 0.398562 v 0.106412 h -0.29898 v 0.167611 c 0.08334,-0.06593 0.204578,-0.05205 0.270729,0.03157 0.02684,0.0339 0.04143,0.07627 0.04143,0.119591 v 0.112998 c 0,0.117236 -0.09511,0.21235 -0.212582,0.21235 -0.109469,0 -0.201282,-0.08334 -0.21164,-0.192577 h 0.10735 c 0.01106,0.05766 0.06663,0.09558 0.124536,0.08452 0.04991,-0.0094 0.08616,-0.05319 0.08616,-0.10429 v -0.09323 c 0,-0.05839 -0.04755,-0.105938 -0.106408,-0.105938 -0.04049,0 -0.07769,0.02309 -0.09534,0.05953 z"
       style="fill:#ffffff;fill-opacity:1;fill-rule:evenodd;stroke:#ffffff;stroke-width:0.0508501;stroke-linecap:butt;stroke-linejoin:miter;stroke-miterlimit:22.926;stroke-dasharray:none;stroke-opacity:1"
       id="path2611" />
    <path
       d="m 59.803818,90.171442 h -0.0751 c -0.07463,0 -0.134893,-0.06053 -0.134893,-0.135367 v -0.367956 h -0.06027 v -0.09746 h 0.06027 v -0.180097 h 0.120062 v 0.180097 h 0.08993 v 0.09746 h -0.08993 v 0.353128 c 0,0.02049 0.01672,0.03744 0.03767,0.03744 h 0.05226 z"
       style="fill:#ffffff;fill-opacity:1;fill-rule:evenodd;stroke:#ffffff;stroke-width:0.0508501;stroke-linecap:butt;stroke-linejoin:miter;stroke-miterlimit:22.926;stroke-dasharray:none;stroke-opacity:1"
       id="path2613" />
    <path
       d="m 56.75799,53.486365 c 1.954905,0 3.549857,1.054905 3.549857,2.346404 0,1.2915 -1.594952,2.345227 -3.549857,2.345227 -1.9542,0 -3.547974,-1.053727 -3.547974,-2.345227 0,-1.291499 1.593774,-2.346404 3.547974,-2.346404"
       style="fill:#ffffff;fill-opacity:1;fill-rule:evenodd;stroke:none;stroke-width:0.235417"
       id="path2615" />
    <path
       d="m 55.024848,57.203133 v -2.841486 h 0.431755 v 2.435627 h 1.394847 v 0.405859 h -1.826602"
       style="fill:#000000;fill-opacity:1;fill-rule:evenodd;stroke:none;stroke-width:0.235417"
       id="path2617" />
    <path
       d="m 57.688359,57.203133 -0.938138,-2.841486 h 0.456238 l 0.659169,2.181612 0.659639,-2.181612 h 0.456239 l -0.938138,2.841486 h -0.355009"
       style="fill:#000000;fill-opacity:1;fill-rule:evenodd;stroke:none;stroke-width:0.235417"
       id="path2619" />
    <path
       d="m 65.955509,75.936462 c 1.481245,0 2.689642,1.208165 2.689642,2.689879 0,1.481247 -1.208397,2.689645 -2.689642,2.689645 -1.481482,0 -2.689644,-1.208398 -2.689644,-2.689645 0,-1.481714 1.208162,-2.689879 2.689644,-2.689879 z m -0.0014,0.713557 c 1.090453,0 1.979387,0.88893 1.979387,1.979151 0,1.090215 -0.888934,1.979385 -1.979387,1.979385 -1.089983,0 -1.979154,-0.88917 -1.979154,-1.979385 0,-1.090221 0.889171,-1.979151 1.979154,-1.979151"
       style="fill:#ed1a3a;fill-opacity:1;fill-rule:evenodd;stroke:none;stroke-width:0.235417"
       id="path2621" />
    <path
       d="M 65.015488,78.568664 C 64.917553,78.504134 64.8587,78.394459 64.8587,78.277457 v -0.292388 c 0,-0.257314 0.209285,-0.4666 0.467538,-0.4666 0.257076,0 0.466596,0.209286 0.466596,0.4666 v 0.292388 c 0,0.117002 -0.05909,0.226703 -0.156788,0.291207 0.0977,0.06473 0.156788,0.174445 0.156788,0.291447 v 0.40845 c 0,0.258254 -0.20952,0.467541 -0.466596,0.467541 -0.258253,0 -0.467538,-0.209287 -0.467538,-0.467541 v -0.40845 c 0,-0.117002 0.05885,-0.226703 0.156788,-0.291447 z m 0.154903,0.699897 c 0,0.08593 0.06992,0.155847 0.155847,0.155847 0.08569,0 0.154904,-0.06992 0.154904,-0.155847 v -0.427749 c 0,-0.0857 -0.06921,-0.154906 -0.154904,-0.154906 -0.08593,0 -0.155847,0.06921 -0.155847,0.154906 z m 0,-0.971805 c 0,0.0857 0.06992,0.155847 0.155847,0.155847 0.08569,0 0.154904,-0.07015 0.154904,-0.155847 v -0.311687 c 0,-0.08593 -0.06921,-0.154906 -0.154904,-0.154906 -0.08593,0 -0.155847,0.06897 -0.155847,0.154906 v 0.311687"
       style="fill:#000000;fill-opacity:1;fill-rule:evenodd;stroke:none;stroke-width:0.235417"
       id="path2623" />
    <path
       d="m 66.103585,79.268561 v -1.283492 c 0,-0.257314 0.209287,-0.4666 0.467539,-0.4666 0.257076,0 0.466598,0.209286 0.466598,0.4666 v 1.283492 c 0,0.258254 -0.209522,0.467541 -0.466598,0.467541 -0.258252,0 -0.467539,-0.209287 -0.467539,-0.467541 z m 0.311694,0 c 0,0.08593 0.06921,0.155847 0.155845,0.155847 0.08569,0 0.154906,-0.06992 0.154906,-0.155847 v -1.283492 c 0,-0.08593 -0.06921,-0.154906 -0.154906,-0.154906 -0.08663,0 -0.155845,0.06897 -0.155845,0.154906 v 1.283492"
       style="fill:#000000;fill-opacity:1;fill-rule:evenodd;stroke:none;stroke-width:0.235417"
       id="path2625" />
    <path
       d="m 65.955509,85.589751 c 1.481245,0 2.689642,1.208158 2.689642,2.689639 0,1.481247 -1.208397,2.689645 -2.689642,2.689645 -1.481482,0 -2.689644,-1.208398 -2.689644,-2.689645 0,-1.481481 1.208162,-2.689639 2.689644,-2.689639 z m -0.0014,0.713317 c 1.090453,0 1.979387,0.888929 1.979387,1.979385 0,1.089981 -0.888934,1.979151 -1.979387,1.979151 -1.089983,0 -1.979154,-0.88917 -1.979154,-1.979151 0,-1.090456 0.889171,-1.979385 1.979154,-1.979385"
       style="fill:#ed1a3a;fill-opacity:1;fill-rule:evenodd;stroke:none;stroke-width:0.235417"
       id="path2627" />
    <path
       d="m 65.054332,89.259903 0.334526,-0.855744 c -0.167851,0.06453 -0.356892,-0.01975 -0.421395,-0.187391 -0.01483,-0.0379 -0.02237,-0.07745 -0.02237,-0.117002 v -0.453881 c 0,-0.23989 0.19516,-0.435289 0.435992,-0.435289 0.239891,0 0.435051,0.195399 0.435051,0.435289 v 0.380902 c 0,0.05225 -0.0094,0.104764 -0.02849,0.153965 l -0.406566,1.079151 z m 0.471069,-1.233116 v -0.380902 c 0,-0.08005 -0.0645,-0.144549 -0.144311,-0.144549 -0.08004,0 -0.145488,0.06453 -0.145488,0.144549 v 0.380902 c 0,0.08005 0.06544,0.145257 0.145488,0.145257 0.07981,0 0.144311,-0.0652 0.144311,-0.145257"
       style="fill:#000000;fill-opacity:1;fill-rule:evenodd;stroke:none;stroke-width:0.235417"
       id="path2629" />
    <path
       d="m 66.10594,88.842745 v -1.19686 c 0,-0.23989 0.195161,-0.435289 0.435993,-0.435289 0.239891,0 0.435051,0.195399 0.435051,0.435289 v 1.19686 c 0,0.240831 -0.19516,0.435997 -0.435051,0.435997 -0.240832,0 -0.435993,-0.195166 -0.435993,-0.435997 z m 0.29074,0 c 0,0.08005 0.06427,0.14525 0.145253,0.14525 0.07981,0 0.14431,-0.0652 0.14431,-0.14525 v -1.19686 c 0,-0.08005 -0.0645,-0.144549 -0.14431,-0.144549 -0.08098,0 -0.145253,0.06453 -0.145253,0.144549 v 1.19686"
       style="fill:#000000;fill-opacity:1;fill-rule:evenodd;stroke:none;stroke-width:0.235417"
       id="path2631" />
    <path
       d="m 56.448886,78.20636 v -0.11512 l 0.796888,-0.407035 -0.801125,-0.407275 0.0043,-0.124062 1.031363,0.531337 z"
       style="fill:#ffffff;fill-opacity:1;fill-rule:evenodd;stroke:#ffffff;stroke-width:0.0508501;stroke-linecap:square;stroke-linejoin:miter;stroke-miterlimit:22.926;stroke-dasharray:none;stroke-opacity:1"
       id="path2633" />
    <path
       d="m 57.315929,90.04102 0.0045,-0.119358 -0.796652,-0.398326 0.792179,-0.411746 v -0.119357 l -1.026655,0.531103 z"
       style="fill:#ffffff;fill-opacity:1;fill-rule:evenodd;stroke:#ffffff;stroke-width:0.0508501;stroke-linecap:square;stroke-linejoin:miter;stroke-miterlimit:22.926;stroke-dasharray:none;stroke-opacity:1"
       id="path2635" />
    <path
       d="M 57.198456,90.351773 56.148023,89.826322"
       style="fill:none;stroke:#ffffff;stroke-width:0.164792;stroke-linecap:butt;stroke-linejoin:miter;stroke-miterlimit:22.926;stroke-dasharray:none;stroke-opacity:1"
       id="path2637" />
    <path
       d="m 45.291048,96.341492 c 0.0023,-0.175152 0.138896,-0.311694 0.294978,-0.310045 l 8.287631,-1.74e-4 c 0.175386,0.002 0.314753,0.160085 0.313105,0.315458 l -0.0031,3.694639 c 0.0017,0.15584 -0.142192,0.30228 -0.317343,0.3044 l -8.268797,1.7e-4 c -0.174679,-0.002 -0.307455,-0.13748 -0.305807,-0.29356 z m 0.196338,-0.02402 c 7.34e-4,-0.05485 0.03885,-0.0904 0.09393,-0.08993 l 8.302463,-6.67e-4 c 0.05862,6.67e-4 0.106879,0.05252 0.106879,0.101934 l -2.29e-4,3.724061 c 0,0.0565 -0.0492,0.0991 -0.106644,0.0991 l -8.307176,-4.6e-4 c -0.05674,-6.7e-4 -0.08781,-0.0438 -0.08899,-0.0859 l -2.3e-4,-3.748069"
       style="fill:#000000;fill-opacity:1;fill-rule:evenodd;stroke:none;stroke-width:0.235417"
       id="path2639" />
    <path
       d="m 54.091653,98.468957 -2.029297,-0.0013 c 0.249307,0.176094 0.341826,0.325348 0.339001,0.616795 l 1.690296,-6.67e-4 z m -3.0237,0.582187 c 0.02613,-0.266256 0.06145,-0.426574 0.353597,-0.578657 l -1.022652,-0.0027 -0.0012,0.238475 0.170206,0.24342 z m 3.023465,-2.00858 H 53.03769 l -0.828198,0.891292 -1.686294,0.269552 -0.07133,0.166204 3.639786,-0.0013 z m -0.123123,0.900708 0.0017,-0.744154 -0.891996,0.0027 c -0.220822,0.24954 -0.456474,0.48331 -0.672117,0.741565 z m -2.235758,0.527333 c 0.318519,0 0.577949,0.259903 0.577949,0.57795 0,0.318287 -0.25943,0.577716 -0.577949,0.577716 -0.318285,0 -0.577715,-0.259429 -0.577715,-0.577716 0,-0.318047 0.25943,-0.57795 0.577715,-0.57795 z m 0.0042,0.276379 c 0.1695,0 0.307925,0.13843 0.307925,0.307697 0,0.1695 -0.138425,0.307216 -0.307925,0.307216 -0.169266,0 -0.30722,-0.137716 -0.30722,-0.307216 0,-0.169267 0.137954,-0.307697 0.30722,-0.307697"
       style="fill:#000000;fill-opacity:1;fill-rule:evenodd;stroke:none;stroke-width:0.235417"
       id="path2641" />
    <path
       d="m 46.455186,99.643221 h 7.662127"
       style="fill:none;stroke:#000000;stroke-width:0.141251;stroke-linecap:butt;stroke-linejoin:miter;stroke-miterlimit:22.926;stroke-dasharray:none;stroke-opacity:1"
       id="path2643" />
    <path
       d="m 47.22406,99.566239 h 2.205154 l 0.896469,-0.896471 -0.16338,-0.130655 -2.938243,1.027126"
       style="fill:#f2c43e;fill-opacity:1;fill-rule:evenodd;stroke:none;stroke-width:0.235417"
       id="path2645" />
    <path
       d="m 50.170778,98.548061 -2.946718,1.018178 h 2.205154 l 0.896469,-0.896471"
       style="fill:none;stroke:#000000;stroke-width:0.0508501;stroke-linecap:butt;stroke-linejoin:miter;stroke-miterlimit:22.926;stroke-dasharray:none;stroke-opacity:1"
       id="path2647" />
    <path
       d="m 55.934029,97.831922 v -0.274497 l 0.258253,-0.193751 h 0.258253 v 1.808002 h -0.258253 v -1.533505 z"
       style="fill:#000000;fill-opacity:1;fill-rule:evenodd;stroke:#231f20;stroke-width:0.0814543;stroke-linecap:butt;stroke-linejoin:miter;stroke-miterlimit:22.926;stroke-dasharray:none;stroke-opacity:1"
       id="path2651" />
    <path
       d="m 57.063797,99.171676 h -0.258324 v -0.258248 h 0.258324 z m -0.258253,0 z"
       style="fill:#000000;fill-opacity:1;fill-rule:evenodd;stroke:#231f20;stroke-width:0.0814543;stroke-linecap:butt;stroke-linejoin:miter;stroke-miterlimit:22.926;stroke-dasharray:none;stroke-opacity:1"
       id="path2653" />
    <path
       d="m 58.384488,99.171676 h -0.258253 v -0.258248 h 0.258253 z m -0.258253,0 z"
       style="fill:#000000;fill-opacity:1;fill-rule:evenodd;stroke:#231f20;stroke-width:0.0814543;stroke-linecap:butt;stroke-linejoin:miter;stroke-miterlimit:22.926;stroke-dasharray:none;stroke-opacity:1"
       id="path2655" />
    <path
       d="m 68.229875,99.171676 h -0.258254 v -0.258248 h 0.258254 z m -0.258254,0 z"
       style="fill:#000000;fill-opacity:1;fill-rule:evenodd;stroke:#231f20;stroke-width:0.0814543;stroke-linecap:butt;stroke-linejoin:miter;stroke-miterlimit:22.926;stroke-dasharray:none;stroke-opacity:1"
       id="path2657" />
    <path
       d="M 57.758043,99.171676 H 57.48364 v -1.807909 h 0.274403 z m -0.274497,0 z"
       style="fill:#000000;fill-opacity:1;fill-rule:evenodd;stroke:#231f20;stroke-width:0.0814543;stroke-linecap:butt;stroke-linejoin:miter;stroke-miterlimit:22.926;stroke-dasharray:none;stroke-opacity:1"
       id="path2659" />
    <path
       d="m 59.824064,98.590437 h -0.774828 v -0.258322 h 0.774828 z m -0.774758,0 z"
       style="fill:#000000;fill-opacity:1;fill-rule:evenodd;stroke:#231f20;stroke-width:0.0814543;stroke-linecap:butt;stroke-linejoin:miter;stroke-miterlimit:22.926;stroke-dasharray:none;stroke-opacity:1"
       id="path2661" />
    <path
       d="m 61.115565,98.719677 h 0.262019 c 0.03578,0.147139 0.184095,0.237775 0.331232,0.201986 0.123123,-0.0297 0.209992,-0.139838 0.209992,-0.266723 v -0.03223 c 0,-0.151609 -0.122888,-0.274263 -0.274497,-0.274263 H 61.53131 V 98.12245 h 0.113001 c 0.142662,0 0.258253,-0.115594 0.258253,-0.258254 0,-0.142668 -0.115591,-0.258255 -0.258253,-0.258255 -0.124064,0 -0.230474,0.08805 -0.25378,0.209754 h -0.260607 c 0.02684,-0.283914 0.278735,-0.492726 0.562883,-0.465886 0.265316,0.02496 0.46801,0.247891 0.46801,0.514387 0,0.146898 -0.07157,0.284854 -0.191631,0.369371 0.129716,0.08687 0.207875,0.233063 0.207875,0.389143 v 0.03223 c 0,0.29427 -0.238478,0.532745 -0.53275,0.532745 -0.269317,0 -0.496024,-0.200804 -0.528746,-0.468008 z"
       style="fill:#000000;fill-opacity:1;fill-rule:evenodd;stroke:#231f20;stroke-width:0.0814543;stroke-linecap:butt;stroke-linejoin:miter;stroke-miterlimit:22.926;stroke-dasharray:none;stroke-opacity:1"
       id="path2663" />
    <path
       d="m 62.499818,97.831922 v -0.274497 l 0.258252,-0.193751 h 0.258253 v 1.808002 H 62.75807 v -1.533505 z"
       style="fill:#000000;fill-opacity:1;fill-rule:evenodd;stroke:#231f20;stroke-width:0.0814543;stroke-linecap:butt;stroke-linejoin:miter;stroke-miterlimit:22.926;stroke-dasharray:none;stroke-opacity:1"
       id="path2665" />
    <path
       d="m 63.629822,99.171676 h -0.258324 v -0.258248 h 0.258324 z m -0.258254,0 z"
       style="fill:#000000;fill-opacity:1;fill-rule:evenodd;stroke:#231f20;stroke-width:0.0814543;stroke-linecap:butt;stroke-linejoin:miter;stroke-miterlimit:22.926;stroke-dasharray:none;stroke-opacity:1"
       id="path2667" />
    <path
       d="m 64.921085,99.171676 0.559822,-0.928956 -0.527335,-0.879046 h 0.322757 l 0.35501,0.629507 0.355245,-0.629507 h 0.322757 l -0.52757,0.879046 0.560058,0.928956 h -0.322994 l -0.387496,-0.678002 -0.387262,0.678002 z"
       style="fill:#000000;fill-opacity:1;fill-rule:evenodd;stroke:#231f20;stroke-width:0.0814543;stroke-linecap:butt;stroke-linejoin:miter;stroke-miterlimit:22.926;stroke-dasharray:none;stroke-opacity:1"
       id="path2669" />
    <path
       d="m 66.874343,99.171676 h -0.274404 v -1.807909 h 0.274404 z m -0.274263,0 z"
       style="fill:#000000;fill-opacity:1;fill-rule:evenodd;stroke:#231f20;stroke-width:0.0814543;stroke-linecap:butt;stroke-linejoin:miter;stroke-miterlimit:22.926;stroke-dasharray:none;stroke-opacity:1"
       id="path2671" />
    <path
       d="m 67.568589,99.171676 h -0.274475 v -1.807909 h 0.274475 z m -0.274498,0 z"
       style="fill:#000000;fill-opacity:1;fill-rule:evenodd;stroke:#231f20;stroke-width:0.0814543;stroke-linecap:butt;stroke-linejoin:miter;stroke-miterlimit:22.926;stroke-dasharray:none;stroke-opacity:1"
       id="path2673" />
  </g>
</svg>
