<?xml version="1.0" encoding="UTF-8" standalone="no"?>
<!-- Created with Inkscape (http://www.inkscape.org/) -->

<svg
   xmlns:dc="http://purl.org/dc/elements/1.1/"
   xmlns:cc="http://creativecommons.org/ns#"
   xmlns:rdf="http://www.w3.org/1999/02/22-rdf-syntax-ns#"
   xmlns:svg="http://www.w3.org/2000/svg"
   xmlns="http://www.w3.org/2000/svg"
   xmlns:sodipodi="http://sodipodi.sourceforge.net/DTD/sodipodi-0.dtd"
   xmlns:inkscape="http://www.inkscape.org/namespaces/inkscape"
   width="195mm"
   height="194.99687mm"
   viewBox="0 0 195 194.99687"
   version="1.1"
   id="svg3845"
   inkscape:version="0.92.3 (2405546, 2018-03-11)"
   sodipodi:docname="Latvia_road_sign_328.svg">
  <defs
     id="defs3839" />
  <sodipodi:namedview
     id="base"
     pagecolor="#ffffff"
     bordercolor="#666666"
     borderopacity="1.0"
     inkscape:pageopacity="0.0"
     inkscape:pageshadow="2"
     inkscape:zoom="0.7"
     inkscape:cx="491.58382"
     inkscape:cy="419.11136"
     inkscape:document-units="mm"
     inkscape:current-layer="layer1"
     showgrid="false"
     inkscape:window-width="1600"
     inkscape:window-height="838"
     inkscape:window-x="-8"
     inkscape:window-y="-8"
     inkscape:window-maximized="1" />
  <metadata
     id="metadata3842">
    <rdf:RDF>
      <cc:Work
         rdf:about="">
        <dc:format>image/svg+xml</dc:format>
        <dc:type
           rdf:resource="http://purl.org/dc/dcmitype/StillImage" />
        <dc:title />
      </cc:Work>
    </rdf:RDF>
  </metadata>
  <g
     inkscape:label="Layer 1"
     inkscape:groupmode="layer"
     id="layer1"
     transform="translate(-72.253312,450.8248)">
    <path
       d="M 87.029832,-450.0587 H 252.47678 c 7.70691,0 14.01043,6.30352 14.01043,14.01043 v 165.44694 c 0,7.70387 -6.30352,14.0073 -14.01043,14.0073 H 87.029832 c -7.7069,0 -14.01042,-6.30343 -14.01042,-14.0073 v -165.44694 c 0,-7.70691 6.30352,-14.01043 14.01042,-14.01043 z"
       style="fill:#ffffff;fill-opacity:1;stroke:#000000;stroke-width:1.53219914;stroke-linecap:butt;stroke-linejoin:miter;stroke-miterlimit:22.9260006;stroke-dasharray:none;stroke-opacity:1"
       id="path641"
       inkscape:connector-curvature="0" />
    <path
       d="m 79.430202,-272.00793 v -162.63374 c 0,-4.97657 4.06945,-9.04914 9.04611,-9.04914 H 251.03039 c 4.97345,0 9.0461,4.07257 9.0461,9.04914 v 162.63374 c 0,4.97353 -4.07265,9.0461 -9.0461,9.0461 H 88.476312 c -4.97666,0 -9.04611,-4.07257 -9.04611,-9.0461"
       style="fill:#283996;fill-opacity:1;fill-rule:evenodd;stroke:none;stroke-width:3.06439829"
       id="path639"
       inkscape:connector-curvature="0" />
    <path
       d="m 169.73185,-437.34751 2.39026,7.35763 h 7.74061 l -6.26356,4.55059 2.3933,7.36066 -6.26061,-4.54754 -6.26365,4.54754 2.3933,-7.36066 -6.26052,-4.55059 h 7.73757 l 2.3933,-7.35763"
       style="fill:#fff200;fill-opacity:1;fill-rule:evenodd;stroke:none;stroke-width:3.06439829"
       id="path643"
       inkscape:connector-curvature="0" />
    <path
       d="m 206.87847,-427.39436 2.3933,7.36067 h 7.73766 l -6.26061,4.54754 2.39026,7.36076 -6.26061,-4.54764 -6.26052,4.54764 2.39017,-7.36076 -6.26052,-4.54754 h 7.7407 l 2.39017,-7.36067"
       style="fill:#fff200;fill-opacity:1;fill-rule:evenodd;stroke:none;stroke-width:3.06439829"
       id="path645"
       inkscape:connector-curvature="0" />
    <path
       d="m 234.07194,-400.20089 2.3933,7.36067 h 7.7407 l -6.26365,4.54755 2.3933,7.36379 -6.26365,-4.55068 -6.26052,4.55068 2.3933,-7.36379 -6.26365,-4.54755 h 7.7407 l 2.39017,-7.36067"
       style="fill:#fff200;fill-opacity:1;fill-rule:evenodd;stroke:none;stroke-width:3.06439829"
       id="path647"
       inkscape:connector-curvature="0" />
    <path
       d="m 244.02822,-363.05123 2.39017,7.36075 h 7.7407 l -6.26365,4.54755 2.3933,7.36067 -6.26052,-4.54755 -6.26365,4.54755 2.3933,-7.36067 -6.26061,-4.54755 h 7.73766 l 2.3933,-7.36075"
       style="fill:#fff200;fill-opacity:1;fill-rule:evenodd;stroke:none;stroke-width:3.06439829"
       id="path649"
       inkscape:connector-curvature="0" />
    <path
       d="m 234.07194,-325.90452 2.3933,7.36066 h 7.73766 l -6.26061,4.55059 2.3933,7.36075 -6.26365,-4.55067 -6.26052,4.55067 2.3933,-7.36075 -6.26365,-4.55059 h 7.7407 l 2.39017,-7.36066"
       style="fill:#fff200;fill-opacity:1;fill-rule:evenodd;stroke:none;stroke-width:3.06439829"
       id="path651"
       inkscape:connector-curvature="0" />
    <path
       d="m 206.87847,-298.70801 2.3933,7.35763 h 7.73766 l -6.26061,4.55058 2.39026,7.36076 -6.26061,-4.54764 -6.26052,4.54764 2.39017,-7.36076 -6.26052,-4.55058 h 7.7407 l 2.39017,-7.35763"
       style="fill:#fff200;fill-opacity:1;fill-rule:evenodd;stroke:none;stroke-width:3.06439829"
       id="path653"
       inkscape:connector-curvature="0" />
    <path
       d="m 169.73185,-288.7579 2.39026,7.3637 h 7.74061 l -6.26356,4.54764 2.3933,7.36066 -6.26061,-4.54754 -6.26365,4.54754 2.3933,-7.36066 -6.26052,-4.54764 h 7.73757 l 2.3933,-7.3637"
       style="fill:#fff200;fill-opacity:1;fill-rule:evenodd;stroke:none;stroke-width:3.06439829"
       id="path655"
       inkscape:connector-curvature="0" />
    <path
       d="m 132.58219,-298.71105 2.39017,7.36067 h 7.7407 l -6.26061,4.55058 2.39026,7.36076 -6.26052,-4.54764 -6.26061,4.54764 2.39026,-7.36076 -6.26061,-4.55058 h 7.7407 l 2.39026,-7.36067"
       style="fill:#fff200;fill-opacity:1;fill-rule:evenodd;stroke:none;stroke-width:3.06439829"
       id="path657"
       inkscape:connector-curvature="0" />
    <path
       d="m 105.38872,-325.90452 2.39017,7.36066 h 7.7407 l -6.26061,4.55059 2.39026,7.36075 -6.26052,-4.55067 -6.263648,4.55067 2.393298,-7.36075 -6.260608,-4.55059 h 7.737658 l 2.3933,-7.36066"
       style="fill:#fff200;fill-opacity:1;fill-rule:evenodd;stroke:none;stroke-width:3.06439829"
       id="path659"
       inkscape:connector-curvature="0" />
    <path
       d="m 95.435482,-363.05123 2.39026,7.36075 h 7.740698 l -6.263648,4.54755 2.393298,7.36067 -6.260608,-4.54755 -6.26356,4.54755 2.3933,-7.36067 -6.26365,-4.54755 h 7.74061 l 2.3933,-7.36075"
       style="fill:#fff200;fill-opacity:1;fill-rule:evenodd;stroke:none;stroke-width:3.06439829"
       id="path661"
       inkscape:connector-curvature="0" />
    <path
       d="m 105.38872,-400.20089 2.39017,7.36067 h 7.7407 l -6.26061,4.54755 2.39026,7.36379 -6.26052,-4.55068 -6.260608,4.55068 2.390258,-7.36379 -6.260608,-4.54755 h 7.737658 l 2.3933,-7.36067"
       style="fill:#fff200;fill-opacity:1;fill-rule:evenodd;stroke:none;stroke-width:3.06439829"
       id="path663"
       inkscape:connector-curvature="0" />
    <path
       d="m 132.58219,-427.3974 2.39017,7.36371 h 7.7407 l -6.26061,4.54754 2.39026,7.36076 -6.26052,-4.54764 -6.26061,4.54764 2.39026,-7.36076 -6.26061,-4.54754 h 7.7407 l 2.39026,-7.36371"
       style="fill:#fff200;fill-opacity:1;fill-rule:evenodd;stroke:none;stroke-width:3.06439829"
       id="path665"
       inkscape:connector-curvature="0" />
    <path
       d="m 118.30509,-343.23988 v -20.5345 h 3.11653 v 17.59882 h 10.08188 v 2.93568 h -13.19841"
       style="fill:#ffffff;fill-opacity:1;fill-rule:evenodd;stroke:none;stroke-width:3.06439829"
       id="path667"
       inkscape:connector-curvature="0" />
    <path
       d="m 132.97135,-343.23988 7.51693,-20.5345 h 2.56495 l 7.51997,20.5345 h -3.30034 l -1.5475,-4.58429 h -7.90922 l -1.54445,4.58429 z m 5.77329,-7.33617 h 6.05526 l -3.02758,-8.98173 -3.02768,8.98173"
       style="fill:#ffffff;fill-opacity:1;fill-rule:evenodd;stroke:none;stroke-width:3.06439829"
       id="path669"
       inkscape:connector-curvature="0" />
    <path
       d="m 155.15454,-343.23988 v -17.78575 h -5.68452 v -2.74875 h 14.48541 v 2.74875 h -5.68444 v 17.78575 h -3.11645"
       style="fill:#ffffff;fill-opacity:1;fill-rule:evenodd;stroke:none;stroke-width:3.06439829"
       id="path671"
       inkscape:connector-curvature="0" />
    <path
       d="m 172.20481,-343.23988 -6.78146,-20.5345 h 3.30035 l 4.76514,15.76632 4.76819,-15.76632 h 3.2973 l -6.78154,20.5345 h -2.56798"
       style="fill:#ffffff;fill-opacity:1;fill-rule:evenodd;stroke:none;stroke-width:3.06439829"
       id="path673"
       inkscape:connector-curvature="0" />
    <path
       d="m 184.12231,-343.23988 h 3.1168 v -20.53389 h -3.1168 z"
       style="fill:#ffffff;fill-opacity:1;fill-rule:nonzero;stroke:none;stroke-width:3.06439829"
       id="path675"
       inkscape:connector-curvature="0" />
    <path
       d="m 198.60772,-363.77438 h 3.11645 v 14.11771 c 0,3.64355 -2.9541,6.59765 -6.60069,6.59765 -2.09917,0 -4.07257,-0.99904 -5.31673,-2.68752 l 2.5097,-1.84787 c 1.14001,1.55062 3.3218,1.88158 4.86938,0.74182 0.89479,-0.65583 1.42189,-1.69768 1.42189,-2.80391 v -14.1177"
       style="fill:#ffffff;fill-opacity:1;fill-rule:evenodd;stroke:none;stroke-width:3.06439829"
       id="path677"
       inkscape:connector-curvature="0" />
    <path
       d="m 203.55667,-343.23988 7.51702,-20.5345 h 2.5679 l 7.51702,20.5345 h -3.30034 l -1.54758,-4.58429 h -7.90922 l -1.54446,4.58429 z m 5.77339,-7.33617 h 6.05517 l -3.02759,-8.98173 -3.02758,8.98173"
       style="fill:#ffffff;fill-opacity:1;fill-rule:evenodd;stroke:none;stroke-width:3.06439829"
       id="path679"
       inkscape:connector-curvature="0" />
  </g>
</svg>
