<?xml version="1.0" encoding="UTF-8" standalone="no"?>
<svg
   xmlns:dc="http://purl.org/dc/elements/1.1/"
   xmlns:cc="http://creativecommons.org/ns#"
   xmlns:rdf="http://www.w3.org/1999/02/22-rdf-syntax-ns#"
   xmlns:svg="http://www.w3.org/2000/svg"
   xmlns="http://www.w3.org/2000/svg"
   xmlns:sodipodi="http://sodipodi.sourceforge.net/DTD/sodipodi-0.dtd"
   xmlns:inkscape="http://www.inkscape.org/namespaces/inkscape"
   sodipodi:docname="Latvia_road_sign_708.svg"
   inkscape:version="1.0 (4035a4fb49, 2020-05-01)"
   id="svg6774"
   version="1.1"
   viewBox="0 0 124.36274 47.529996"
   height="47.529999mm"
   width="124.36275mm">
  <defs
     id="defs6768" />
  <sodipodi:namedview
     inkscape:window-maximized="1"
     inkscape:window-y="-9"
     inkscape:window-x="-9"
     inkscape:window-height="1001"
     inkscape:window-width="1920"
     fit-margin-bottom="0"
     fit-margin-right="0"
     fit-margin-left="0"
     fit-margin-top="0"
     showgrid="false"
     inkscape:document-rotation="0"
     inkscape:current-layer="g9018"
     inkscape:document-units="mm"
     inkscape:cy="206.9141"
     inkscape:cx="-381.77777"
     inkscape:zoom="0.7360969"
     inkscape:pageshadow="2"
     inkscape:pageopacity="0.0"
     borderopacity="1.0"
     bordercolor="#666666"
     pagecolor="#ffffff"
     id="base" />
  <metadata
     id="metadata6771">
    <rdf:RDF>
      <cc:Work
         rdf:about="">
        <dc:format>image/svg+xml</dc:format>
        <dc:type
           rdf:resource="http://purl.org/dc/dcmitype/StillImage" />
        <dc:title></dc:title>
      </cc:Work>
    </rdf:RDF>
  </metadata>
  <g
     transform="translate(-514.37896,511.32168)"
     id="layer1"
     inkscape:groupmode="layer"
     inkscape:label="Layer 1">
    <g
       inkscape:groupmode="layer"
       style="opacity:1"
       id="g2362">
      <g
         inkscape:groupmode="layer"
         id="g4251"
         style="opacity:1;stroke-width:0.245448"
         transform="matrix(4.0741859,0,0,4.0741859,1019.3516,778.12493)">
        <g
           id="g9018"
           transform="matrix(0.32416482,0,0,-0.32416482,-217.40938,-133.68272)"
           style="opacity:1;stroke-width:0.0655623"
           inkscape:groupmode="layer" />
        <g
           id="g5464"
           transform="matrix(0.34434798,0,0,-0.34434798,-184.7891,-116.88704)"
           style="opacity:1;stroke-width:0.0617195">
          <path
             style="color:#000000;font-style:normal;font-variant:normal;font-weight:normal;font-stretch:normal;font-size:medium;line-height:normal;font-family:sans-serif;font-variant-ligatures:normal;font-variant-position:normal;font-variant-caps:normal;font-variant-numeric:normal;font-variant-alternates:normal;font-variant-east-asian:normal;font-feature-settings:normal;font-variation-settings:normal;text-indent:0;text-align:start;text-decoration:none;text-decoration-line:none;text-decoration-style:solid;text-decoration-color:#000000;letter-spacing:normal;word-spacing:normal;text-transform:none;writing-mode:lr-tb;direction:ltr;text-orientation:mixed;dominant-baseline:auto;baseline-shift:baseline;text-anchor:start;white-space:normal;shape-padding:0;shape-margin:0;inline-size:0;clip-rule:nonzero;display:inline;overflow:visible;visibility:visible;isolation:auto;mix-blend-mode:normal;color-interpolation:sRGB;color-interpolation-filters:linearRGB;solid-color:#000000;solid-opacity:1;vector-effect:none;fill:#ffffff;fill-opacity:1;fill-rule:nonzero;stroke:none;stroke-width:0.125728;stroke-linecap:butt;stroke-linejoin:miter;stroke-miterlimit:22.926;stroke-dasharray:none;stroke-dashoffset:0;stroke-opacity:1;color-rendering:auto;image-rendering:auto;shape-rendering:auto;text-rendering:auto;enable-background:accumulate;stop-color:#000000;stop-opacity:1"
             d="m 181.41016,579.41016 h 79.21875 c 2.45312,0 4.46093,-2.02735 4.46093,-4.51172 v -24.35547 c 0,-2.48047 -2.00781,-4.51172 -4.46093,-4.51172 h -79.21875 c -2.45704,0 -4.46485,2.03125 -4.46485,4.51172 v 24.35547 c 0,2.48437 2.00781,4.51172 4.46485,4.51172 z m 0,0"
             id="path5466" />
          <path
             style="color:#000000;font-style:normal;font-variant:normal;font-weight:normal;font-stretch:normal;font-size:medium;line-height:normal;font-family:sans-serif;font-variant-ligatures:normal;font-variant-position:normal;font-variant-caps:normal;font-variant-numeric:normal;font-variant-alternates:normal;font-variant-east-asian:normal;font-feature-settings:normal;font-variation-settings:normal;text-indent:0;text-align:start;text-decoration:none;text-decoration-line:none;text-decoration-style:solid;text-decoration-color:#000000;letter-spacing:normal;word-spacing:normal;text-transform:none;writing-mode:lr-tb;direction:ltr;text-orientation:mixed;dominant-baseline:auto;baseline-shift:baseline;text-anchor:start;white-space:normal;shape-padding:0;shape-margin:0;inline-size:0;clip-rule:nonzero;display:inline;overflow:visible;visibility:visible;isolation:auto;mix-blend-mode:normal;color-interpolation:sRGB;color-interpolation-filters:linearRGB;solid-color:#000000;solid-opacity:1;vector-effect:none;fill:#000000;fill-opacity:1;fill-rule:nonzero;stroke:none;stroke-width:0.125728;stroke-linecap:butt;stroke-linejoin:miter;stroke-miterlimit:22.926;stroke-dasharray:none;stroke-dashoffset:0;stroke-opacity:1;color-rendering:auto;image-rendering:auto;shape-rendering:auto;text-rendering:auto;enable-background:accumulate;stop-color:#000000;stop-opacity:1"
             d="m 181.41016,545.78125 c -2.59483,0 -4.71485,2.14634 -4.71485,4.76172 v 24.35547 c 0,2.61906 2.12029,4.76172 4.71485,4.76172 h 79.21875 c 2.59086,0 4.71093,-2.14266 4.71093,-4.76172 v -24.35547 c 0,-2.61538 -2.11981,-4.76172 -4.71093,-4.76172 z m 0,0.5 h 79.21875 c 2.31511,0 4.21093,1.91616 4.21093,4.26172 v 24.35547 c 0,2.34967 -1.89555,4.26172 -4.21093,4.26172 h -79.21875 c -2.31952,0 -4.21485,-1.91205 -4.21485,-4.26172 v -24.35547 c 0,-2.34556 1.89559,-4.26172 4.21485,-4.26172 z"
             id="path5468" />
        </g>
        <path
           style="fill:#263894;fill-opacity:1;fill-rule:evenodd;stroke:none;stroke-width:0.0865883"
           d="m -122.28726,-315.7547 h 27.211546 c 0.500405,0 0.910655,0.41561 0.910655,0.92405 v 8.34371 c 0,0.50713 -0.41025,0.92279 -0.910655,0.92279 h -27.211546 c -0.50172,0 -0.91066,-0.41566 -0.91066,-0.92279 v -8.34371 c 0,-0.50844 0.40894,-0.92405 0.91066,-0.92405"
           id="path2679" />
        <path
           style="fill:#ffffff;fill-opacity:1;fill-rule:evenodd;stroke:none;stroke-width:0.0865883"
           d="m -114.61341,-307.45943 c -0.9066,0.71288 -1.49171,0.67793 -2.36876,-0.008 -0.76399,0.76403 -1.69079,0.77883 -2.41847,0.008 v -0.28633 c 0.72768,0.59318 1.71902,0.5138 2.42523,-0.10619 0.85681,0.62818 1.48364,0.61339 2.362,-0.0278 0.71289,0.6201 1.81184,0.68469 2.48305,0.0119 0.74117,0.64969 1.55498,0.6349 2.30418,0 0.87701,0.67121 1.66255,0.6147 2.41851,-0.008 0.80574,0.65642 1.56973,0.62818 2.30418,0.008 0.79226,0.59318 1.6128,0.67121 2.37548,0.0159 0.86353,0.5636 1.38409,0.69949 2.47633,-0.008 0.870291,0.64834 1.541501,0.54884 2.41179,0.11294 v 0.2931 c -0.856848,0.64162 -1.619525,0.76402 -2.40507,-0.0199 -0.84878,0.8205 -1.72579,0.59991 -2.47633,0.0199 -0.69814,0.69944 -1.57515,0.67793 -2.37548,-0.0159 -0.83395,0.69272 -1.47692,0.69272 -2.28939,0.0644 -0.77075,0.6349 -1.56973,0.62146 -2.44002,-0.043 -0.88508,0.67121 -1.46347,0.74252 -2.31225,-0.0119 -0.71289,0.77075 -1.81184,0.6699 -2.47498,0"
           id="path2681" />
        <path
           style="fill:#ffffff;fill-opacity:1;fill-rule:evenodd;stroke:none;stroke-width:0.0865883"
           d="m -112.61593,-311.98705 v 0.85008 c 0,0.81919 -0.66178,1.48233 -1.48097,1.48233 -0.81784,0 -1.48228,-0.66314 -1.48228,-1.48233 v -1.25767 c 0,-0.81919 0.66444,-1.48097 1.48228,-1.48097 0.7183,0 1.33299,0.51384 1.45946,1.22136 h -0.64835 c -0.14237,-0.44791 -0.62146,-0.69543 -1.06937,-0.55282 -0.35393,0.11294 -0.59318,0.44119 -0.59318,0.81243 v 1.25767 c 0,0.47078 0.38058,0.85279 0.85144,0.85279 0.47082,0 0.85279,-0.38217 0.85279,-0.85279 v -0.25809 h -0.85279 v -0.59184 h 1.48097"
           id="path2683" />
        <path
           style="fill:#ffffff;fill-opacity:1;fill-rule:evenodd;stroke:none;stroke-width:0.0865883"
           d="m -109.58001,-309.69095 h -0.59184 v -0.30662 c -0.10339,0.18811 -0.30422,0.30662 -0.51921,0.30662 h -0.36985 c -0.49094,0 -0.88775,-0.39816 -0.88775,-0.88914 0,-0.49229 0.39689,-0.8891 0.88775,-0.8891 h 0.88914 v -0.29707 c 0,-0.16146 -0.11572,-0.29985 -0.27559,-0.32809 -0.20998,-0.0358 -0.42373,-0.0358 -0.63355,0 -0.10499,0.0199 -0.19367,0.0847 -0.241,0.18015 l -0.46807,-0.36984 c 0.14118,-0.20839 0.35911,-0.35116 0.60663,-0.39411 0.27718,-0.0485 0.56093,-0.0485 0.83799,0 0.44255,0.078 0.76538,0.46275 0.76538,0.91201 z m -0.59184,-1.29669 h -0.85148 c -0.20441,0 -0.37143,0.16544 -0.37143,0.36985 0,0.20441 0.16663,0.36984 0.37143,0.36984 h 0.48156 c 0.20441,0 0.36984,-0.16543 0.36984,-0.36984 v -0.36985"
           id="path2685" />
        <path
           style="fill:#ffffff;fill-opacity:1;fill-rule:evenodd;stroke:none;stroke-width:0.0865883"
           d="m -106.39481,-309.69095 h -0.59183 v -0.33644 c -0.34718,0.43041 -0.97655,0.49766 -1.40701,0.15072 -0.23423,-0.19089 -0.37104,-0.47619 -0.37104,-0.77882 v -1.99884 h 0.59188 v 1.81455 c 0,0.3269 0.26644,0.59187 0.59318,0.59187 0.3269,0 0.59319,-0.26485 0.59319,-0.59187 v -1.81455 h 0.59183 v 2.9633"
           id="path2687" />
        <path
           style="fill:#ffffff;fill-opacity:1;fill-rule:evenodd;stroke:none;stroke-width:0.0865883"
           d="m -104.83852,-313.24743 h -0.59318 v -0.59187 h 0.59318 z m -0.59318,0 z m 0,0.59318 h 0.59318 v 3.33183 c 0,0.45062 -0.36587,0.81648 -0.81513,0.81648 h -0.29588 v -0.55687 h 0.22191 c 0.16424,0 0.29588,-0.13163 0.29588,-0.29588 v -3.29552"
           id="path2689" />
        <path
           style="fill:#ffffff;fill-opacity:1;fill-rule:evenodd;stroke:none;stroke-width:0.0865883"
           d="m -101.72728,-309.69095 h -0.59319 v -0.30662 c -0.10499,0.18811 -0.30264,0.30662 -0.51786,0.30662 h -0.37104 c -0.49098,0 -0.88914,-0.39816 -0.88914,-0.88914 0,-0.49229 0.39816,-0.8891 0.88914,-0.8891 h 0.8891 v -0.29707 c 0,-0.16146 -0.11692,-0.29985 -0.27559,-0.32809 -0.20998,-0.0358 -0.4237,-0.0358 -0.63355,0 -0.10499,0.0199 -0.19367,0.0847 -0.2406,0.18015 l -0.46943,-0.36984 c 0.14118,-0.20839 0.3603,-0.35116 0.60798,-0.39411 0.27719,-0.0485 0.56089,-0.0485 0.838,0 0.44254,0.078 0.76669,0.46275 0.76669,0.91201 z m -0.59319,-1.29669 h -0.85279 c -0.20322,0 -0.36985,0.16544 -0.36985,0.36985 0,0.20441 0.16663,0.36984 0.36985,0.36984 h 0.48155 c 0.206,0 0.37144,-0.16543 0.37144,-0.36984 v -0.36985"
           id="path2691" />
      </g>
    </g>
  </g>
</svg>
