<?xml version="1.0" encoding="UTF-8" standalone="no"?>
<!-- Created with Inkscape (http://www.inkscape.org/) -->

<svg
   xmlns:dc="http://purl.org/dc/elements/1.1/"
   xmlns:cc="http://creativecommons.org/ns#"
   xmlns:rdf="http://www.w3.org/1999/02/22-rdf-syntax-ns#"
   xmlns:svg="http://www.w3.org/2000/svg"
   xmlns="http://www.w3.org/2000/svg"
   xmlns:sodipodi="http://sodipodi.sourceforge.net/DTD/sodipodi-0.dtd"
   xmlns:inkscape="http://www.inkscape.org/namespaces/inkscape"
   width="195.00002mm"
   height="101.55571mm"
   viewBox="0 0 195.00001 101.55571"
   version="1.1"
   id="svg3845"
   inkscape:version="0.92.3 (2405546, 2018-03-11)"
   sodipodi:docname="Latvia_road_sign_731.svg">
  <defs
     id="defs3839" />
  <sodipodi:namedview
     id="base"
     pagecolor="#ffffff"
     bordercolor="#666666"
     borderopacity="1.0"
     inkscape:pageopacity="0.0"
     inkscape:pageshadow="2"
     inkscape:zoom="0.35"
     inkscape:cx="-630.94735"
     inkscape:cy="-345.87132"
     inkscape:document-units="mm"
     inkscape:current-layer="layer1"
     showgrid="false"
     inkscape:window-width="1920"
     inkscape:window-height="1027"
     inkscape:window-x="-8"
     inkscape:window-y="-8"
     inkscape:window-maximized="1" />
  <metadata
     id="metadata3842">
    <rdf:RDF>
      <cc:Work
         rdf:about="">
        <dc:format>image/svg+xml</dc:format>
        <dc:type
           rdf:resource="http://purl.org/dc/dcmitype/StillImage" />
        <dc:title></dc:title>
      </cc:Work>
    </rdf:RDF>
  </metadata>
  <g
     inkscape:label="Layer 1"
     inkscape:groupmode="layer"
     id="layer1"
     transform="translate(-949.06247,580.40709)">
    <path
       d="m 966.35729,-579.68851 h 160.41041 c 9.1174,0 16.5762,7.45889 16.5762,16.57624 v 66.96607 c 0,9.11735 -7.4588,16.57624 -16.5762,16.57624 H 966.35729 c -9.11735,0 -16.57624,-7.45889 -16.57624,-16.57624 v -66.96607 c 0,-9.11735 7.45889,-16.57624 16.57624,-16.57624 z"
       style="fill:#ffdd2e;fill-opacity:1;fill-rule:evenodd;stroke:#000000;stroke-width:1.43716276;stroke-linecap:butt;stroke-linejoin:miter;stroke-miterlimit:22.9260006;stroke-dasharray:none;stroke-opacity:1"
       id="path14245"
       inkscape:connector-curvature="0" />
    <g
       id="g14247"
       transform="matrix(2.8756795,0,0,-2.8729719,408.54555,1445.2999)">
      <path
         d="m 194.893,702.24 h 53.947 c 1.977,0 3.595,-1.617 3.595,-3.594 v -22.459 c 0,-1.977 -1.618,-3.595 -3.595,-3.595 h -53.947 c -1.977,0 -3.595,1.618 -3.595,3.595 v 22.459 c 0,1.977 1.618,3.594 3.595,3.594 z"
         style="fill:#ffdd2e;fill-opacity:1;fill-rule:evenodd;stroke:#000000;stroke-width:1.47099996;stroke-linecap:butt;stroke-linejoin:miter;stroke-miterlimit:22.9260006;stroke-dasharray:none;stroke-opacity:1"
         id="path14249"
         inkscape:connector-curvature="0" />
    </g>
    <path
       d="m 1020.1819,-497.50002 v -24.58982 c -0.041,-16.36644 10.6092,-25.93795 26.6163,-27.92411 l 10.7644,-0.12059 -3.6534,-15.05571 37.1795,21.29294 -36.9408,21.68965 3.5756,-15.01547 -12.6729,0.0815 c -6.4758,0.0407 -12.1555,6.1568 -12.1555,12.55503 l -0.1206,27.09051 z"
       style="fill:#000000;fill-opacity:1;fill-rule:evenodd;stroke:#231f20;stroke-width:0.04024057;stroke-linecap:butt;stroke-linejoin:miter;stroke-miterlimit:22.9260006;stroke-dasharray:none;stroke-opacity:1"
       id="path14251"
       inkscape:connector-curvature="0" />
  </g>
</svg>
