<?xml version="1.0" encoding="UTF-8" standalone="no"?>
<svg
   xmlns:dc="http://purl.org/dc/elements/1.1/"
   xmlns:cc="http://creativecommons.org/ns#"
   xmlns:rdf="http://www.w3.org/1999/02/22-rdf-syntax-ns#"
   xmlns:svg="http://www.w3.org/2000/svg"
   xmlns="http://www.w3.org/2000/svg"
   xmlns:sodipodi="http://sodipodi.sourceforge.net/DTD/sodipodi-0.dtd"
   xmlns:inkscape="http://www.inkscape.org/namespaces/inkscape"
   sodipodi:docname="Latvia_road_sign_704B.svg"
   inkscape:version="1.0 (4035a4fb49, 2020-05-01)"
   id="svg6774"
   version="1.1"
   viewBox="0 0 167.02592 47.465898"
   height="47.4659mm"
   width="167.02594mm">
  <defs
     id="defs6768" />
  <sodipodi:namedview
     inkscape:window-maximized="1"
     inkscape:window-y="-9"
     inkscape:window-x="-9"
     inkscape:window-height="1001"
     inkscape:window-width="1920"
     fit-margin-bottom="0"
     fit-margin-right="0"
     fit-margin-left="0"
     fit-margin-top="0"
     showgrid="false"
     inkscape:document-rotation="0"
     inkscape:current-layer="g4251"
     inkscape:document-units="mm"
     inkscape:cy="-234.03951"
     inkscape:cx="836.50584"
     inkscape:zoom="0.52049913"
     inkscape:pageshadow="2"
     inkscape:pageopacity="0.0"
     borderopacity="1.0"
     bordercolor="#666666"
     pagecolor="#ffffff"
     id="base" />
  <metadata
     id="metadata6771">
    <rdf:RDF>
      <cc:Work
         rdf:about="">
        <dc:format>image/svg+xml</dc:format>
        <dc:type
           rdf:resource="http://purl.org/dc/dcmitype/StillImage" />
        <dc:title></dc:title>
      </cc:Work>
    </rdf:RDF>
  </metadata>
  <g
     transform="translate(-359.2141,438.71984)"
     id="layer1"
     inkscape:groupmode="layer"
     inkscape:label="Layer 1">
    <g
       inkscape:groupmode="layer"
       style="opacity:1"
       id="g2362">
      <g
         inkscape:groupmode="layer"
         id="g4251"
         style="opacity:1;stroke-width:0.245448"
         transform="matrix(4.0741859,0,0,4.0741859,1019.3516,778.12493)">
        <g
           style="opacity:1"
           id="g9083">
          <path
             id="path9085"
             d="m -121.10492,-297.53242 v 9.25424 c 0,0.40913 -0.61254,1.1859 -1.24476,1.1859 l -38.39213,-0.0298 c -0.63222,-0.001 -1.18872,-0.74811 -1.1907,-1.15625 l -0.0262,-9.19496 c -0.001,-0.40813 0.469,-1.12855 1.10122,-1.12756 l 38.62515,0.0593 c 0.63321,10e-4 1.12875,0.59986 1.12875,1.00899 z"
             style="color:#000000;font-style:normal;font-variant:normal;font-weight:normal;font-stretch:normal;font-size:medium;line-height:normal;font-family:sans-serif;font-variant-ligatures:normal;font-variant-position:normal;font-variant-caps:normal;font-variant-numeric:normal;font-variant-alternates:normal;font-variant-east-asian:normal;font-feature-settings:normal;font-variation-settings:normal;text-indent:0;text-align:start;text-decoration:none;text-decoration-line:none;text-decoration-style:solid;text-decoration-color:#000000;letter-spacing:normal;word-spacing:normal;text-transform:none;writing-mode:lr-tb;direction:ltr;text-orientation:mixed;dominant-baseline:auto;baseline-shift:baseline;text-anchor:start;white-space:normal;shape-padding:0;shape-margin:0;inline-size:0;clip-rule:nonzero;display:inline;overflow:visible;visibility:visible;isolation:auto;mix-blend-mode:normal;color-interpolation:sRGB;color-interpolation-filters:linearRGB;solid-color:#000000;solid-opacity:1;vector-effect:none;fill:#ffffff;fill-opacity:1;fill-rule:nonzero;stroke:none;stroke-width:0.141378;stroke-linecap:butt;stroke-linejoin:miter;stroke-miterlimit:22.926;stroke-dasharray:none;stroke-dashoffset:0;stroke-opacity:1;color-rendering:auto;image-rendering:auto;shape-rendering:auto;text-rendering:auto;enable-background:accumulate;stop-color:#000000;stop-opacity:1" />
          <path
             id="path9087"
             d="m -160.85742,-298.67188 c -0.34299,-5.3e-4 -0.63599,0.19349 -0.8418,0.43555 -0.20581,0.24206 -0.33064,0.53237 -0.33008,0.76367 l 0.0254,9.19532 c 10e-4,0.23598 0.15139,0.52948 0.37891,0.77734 0.22752,0.24786 0.53889,0.44867 0.88281,0.44922 l 38.39258,0.0293 c 0.34506,0 0.66912,-0.20623 0.91016,-0.46094 0.24103,-0.25471 0.40429,-0.55508 0.40429,-0.79492 v -9.19141 h 0.002 v -0.0645 c 0,-0.23311 -0.13384,-0.49538 -0.34766,-0.70703 -0.21381,-0.21165 -0.5127,-0.37056 -0.85156,-0.3711 z m 0,0.14258 38.625,0.0586 c 0.29435,4.6e-4 0.55969,0.13976 0.75195,0.33008 0.19103,0.18909 0.30324,0.42779 0.30469,0.60351 v 0.004 9.25586 c 0,0.16928 -0.14195,0.46131 -0.36524,0.69726 -0.22328,0.23596 -0.52143,0.41797 -0.80859,0.41797 l -38.39258,-0.0312 c -0.2883,-4.6e-4 -0.57002,-0.17436 -0.77929,-0.40234 -0.20928,-0.22799 -0.33901,-0.51144 -0.33985,-0.6836 l -0.0273,-9.19336 c -4.4e-4,-0.17682 0.10988,-0.45194 0.29687,-0.67187 0.187,-0.21994 0.44515,-0.38522 0.73438,-0.38477 z"
             style="color:#000000;font-style:normal;font-variant:normal;font-weight:normal;font-stretch:normal;font-size:medium;line-height:normal;font-family:sans-serif;font-variant-ligatures:normal;font-variant-position:normal;font-variant-caps:normal;font-variant-numeric:normal;font-variant-alternates:normal;font-variant-east-asian:normal;font-feature-settings:normal;font-variation-settings:normal;text-indent:0;text-align:start;text-decoration:none;text-decoration-line:none;text-decoration-style:solid;text-decoration-color:#000000;letter-spacing:normal;word-spacing:normal;text-transform:none;writing-mode:lr-tb;direction:ltr;text-orientation:mixed;dominant-baseline:auto;baseline-shift:baseline;text-anchor:start;white-space:normal;shape-padding:0;shape-margin:0;inline-size:0;clip-rule:nonzero;display:inline;overflow:visible;visibility:visible;isolation:auto;mix-blend-mode:normal;color-interpolation:sRGB;color-interpolation-filters:linearRGB;solid-color:#000000;solid-opacity:1;vector-effect:none;fill:#211e1e;fill-opacity:1;fill-rule:nonzero;stroke:none;stroke-width:0.141378;stroke-linecap:butt;stroke-linejoin:miter;stroke-miterlimit:22.926;stroke-dasharray:none;stroke-dashoffset:0;stroke-opacity:1;color-rendering:auto;image-rendering:auto;shape-rendering:auto;text-rendering:auto;enable-background:accumulate;stop-color:#000000;stop-opacity:1" />
        </g>
        <path
           id="path5381"
           style="fill:#000000;fill-opacity:1;fill-rule:evenodd;stroke:none;stroke-width:0.0865884"
           d="m -152.72447,-296.41129 v 0.33799 h 0.33627 v -0.33799 z m 0.84064,0 v 1.98562 c 0,0.21036 0.16918,0.38023 0.37866,0.38023 h 0.21045 v -0.31724 h -0.14738 c -0.0578,0 -0.10552,-0.0465 -0.10552,-0.10548 v -1.94298 z m 9.74491,0 -0.33627,0.25302 v 0.35985 l 0.33627,-0.2542 v 2.00712 h 0.33624 v -2.36585 z m 2.35455,0 -0.79936,1.71065 v 0.29647 h 0.98814 v 0.35873 h 0.33627 v -0.35873 h 0.18982 v -0.31724 h -0.18982 v -0.67595 h -0.33627 v 0.67595 h -0.60946 l 0.79934,-1.68988 z m -9.21175,0.13761 v 0.23725 h 0.92139 v -0.23725 z m 1.6953,0.0316 v 0.50695 h -0.16802 v 0.27494 h 0.16802 v 1.03467 c 0,0.21037 0.16889,0.38024 0.3783,0.38024 h 0.21046 v -0.31724 h -0.14738 c -0.0581,0 -0.10494,-0.0465 -0.10494,-0.10548 v -0.99205 h 0.25261 v -0.27493 h -0.25261 v -0.50695 z m -3.01343,0.47101 c -0.0788,5.6e-4 -0.15814,0.0117 -0.23633,0.0292 -0.2154,0.0514 -0.37264,0.23783 -0.38641,0.46026 -0.0174,0.27961 0.19359,0.52107 0.47196,0.53886 l 0.35801,0.0205 c 0.066,0.006 0.12267,0.0473 0.14651,0.10986 0.0326,0.0871 -0.0116,0.18495 -0.098,0.21767 -0.25872,0.0979 -0.5506,0.0345 -0.74626,-0.16128 l -0.23807,0.23929 c 0.2901,0.28954 0.72093,0.38222 1.10243,0.23783 0.18692,-0.0693 0.3145,-0.2428 0.3263,-0.4425 0.0174,-0.27961 -0.1936,-0.51995 -0.47193,-0.53772 l -0.35691,-0.0234 c -0.0738,-0.003 -0.13575,-0.0576 -0.15348,-0.12972 -0.0203,-0.0909 0.0346,-0.18174 0.12499,-0.20336 0.21133,-0.0514 0.43545,-9.3e-4 0.60652,0.13645 l 0.21046,-0.265 c -0.18953,-0.15135 -0.42295,-0.23053 -0.65963,-0.22878 z m 4.61105,0.002 c -0.0796,0 -0.1593,0.006 -0.23778,0.0205 -0.1407,0.0234 -0.26482,0.10577 -0.34438,0.22527 l 0.2654,0.21037 c 0.0262,-0.0543 0.0779,-0.0917 0.13691,-0.10256 0.11889,-0.0205 0.24098,-0.0205 0.35985,0 0.0904,0.0146 0.15639,0.0955 0.15639,0.18758 v 0.16888 h -0.50438 c -0.27819,0 -0.5044,0.22731 -0.5044,0.50695 0,0.28078 0.22615,0.50698 0.5044,0.50698 h 0.21046 c 0.1218,0 0.23488,-0.066 0.29386,-0.17385 v 0.17385 h 0.33627 v -1.18293 c 0,-0.25682 -0.18314,-0.47621 -0.4347,-0.52068 -0.0788,-0.0146 -0.15813,-0.0204 -0.23778,-0.0204 z m -11.57628,0.0117 c -0.38344,0 -0.69425,0.31204 -0.69425,0.69745 v 0.33799 c 0,0.28457 0.17296,0.54166 0.43653,0.64743 0.32054,0.12943 0.68727,0.0386 0.91145,-0.22527 l -0.25464,-0.21942 c -0.13168,0.1531 -0.34484,0.20539 -0.53167,0.13031 -0.13575,-0.0543 -0.22528,-0.18583 -0.22528,-0.33317 v -0.0424 h 1.05118 v -0.29573 c 0,-0.38541 -0.31068,-0.69745 -0.69317,-0.69745 z m 1.82878,0 c -0.41786,0 -0.7573,0.34082 -0.7573,0.76082 v 0.21154 c 0,0.22614 0.10058,0.44048 0.27354,0.58478 0.3215,0.2688 0.79812,0.22439 1.06555,-0.0996 l -0.25842,-0.21533 c -0.0805,0.097 -0.19854,0.15193 -0.32337,0.15193 -0.23196,0 -0.42106,-0.18845 -0.42106,-0.42173 v -0.21153 c 0,-0.12563 0.0561,-0.24484 0.15145,-0.32501 0.17907,-0.1493 0.44444,-0.12476 0.59289,0.0552 l 0.25842,-0.2165 c -0.1436,-0.17385 -0.35664,-0.27465 -0.58181,-0.27465 z m 6.90994,0 c -0.38345,0 -0.69428,0.31204 -0.69428,0.69745 v 0.33799 c 0,0.28457 0.17296,0.54166 0.43656,0.64743 0.32051,0.12943 0.68724,0.0386 0.91142,-0.22527 l -0.25435,-0.21942 c -0.13168,0.1531 -0.34522,0.20539 -0.53205,0.13031 -0.13575,-0.0543 -0.22528,-0.18583 -0.22528,-0.33317 v -0.0424 h 1.05116 v -0.29573 c 0,-0.38541 -0.31069,-0.69745 -0.69315,-0.69745 z m -5.16484,0.002 c -0.18168,-0.0146 -0.36784,0.057 -0.49074,0.21007 v -0.19079 h -0.33627 v 2.36691 h 0.33627 v -0.86756 c 0.10813,0.1344 0.27063,0.21242 0.4417,0.21242 0.31365,0 0.56707,-0.25595 0.56707,-0.57109 v -0.5911 c 0,-0.17296 -0.0773,-0.33585 -0.21016,-0.44358 -0.0916,-0.0745 -0.19884,-0.11599 -0.30787,-0.12534 z m -6.03386,0.0204 0.60946,1.68988 h 0.29385 l 0.60984,-1.68988 h -0.35691 l -0.39929,1.18293 -0.40004,-1.18293 z m 7.01499,0 v 1.68988 h 0.33627 v -1.68988 z m 17.35977,0.31611 c -0.0884,0.009 -0.16744,0.0511 -0.21831,0.10927 -0.0599,0.0678 -0.12122,0.17238 -0.0884,0.33983 l 0.001,0.003 7.6e-4,0.003 c 0.0291,0.0903 0.0988,0.17793 0.2061,0.22702 l 0.30418,0.1642 -0.41517,0.81011 c -0.18517,-0.0853 -0.42856,-0.15485 -0.67509,-0.12008 l -0.001,7.6e-4 h -0.002 c -0.39996,0.0736 -0.64108,0.21387 -0.84619,0.47621 l -3.8e-4,3.8e-4 c -0.22703,0.2764 -0.30578,0.58298 -0.28633,0.92202 v 0.002 l 3.8e-4,0.002 c 0.0323,0.30967 0.19011,0.63793 0.42807,0.84643 0.2215,0.19984 0.5789,0.35136 0.89151,0.31946 0.32176,-0.0146 0.66132,-0.14229 0.89817,-0.40025 l 10e-4,-10e-4 3.8e-4,-7.6e-4 c 0.17558,-0.20511 0.31174,-0.44846 0.34107,-0.72412 v -7.6e-4 l 7.5e-4,-0.001 c 0.0343,-0.43926 -0.1215,-0.84339 -0.47196,-1.13586 l 0.0331,-0.0675 1.36237,1.01507 c -0.009,0.0865 -0.0145,0.17589 0.0384,0.25916 v 7.6e-4 l 3.8e-4,7.6e-4 c 0.0887,0.13206 0.19069,0.20101 0.35653,0.21796 l 0.006,7.6e-4 0.70902,-0.073 c 0.073,0.26675 0.1657,0.43598 0.38935,0.65704 l 0.003,0.003 0.003,0.003 c 0.24214,0.1791 0.41588,0.26968 0.7175,0.30833 l 0.006,3.8e-4 0.0648,0.009 v -0.0146 c 0.34098,0.001 0.58824,-0.0652 0.87567,-0.29314 l 0.001,-3.8e-4 c 0.24912,-0.17764 0.4317,-0.53746 0.45167,-0.86273 0.0232,-0.30626 -0.0291,-0.56507 -0.21046,-0.83346 -0.13604,-0.24075 -0.44342,-0.46757 -0.78312,-0.54774 h -3.7e-4 -3.8e-4 c -0.27122,-0.0596 -0.53208,-0.0263 -0.78684,0.0801 l -0.38124,-0.65076 0.0642,-0.13236 h 0.0724 l 0.0174,-0.0117 c 0.0988,-0.0672 0.19854,-0.142 0.25958,-0.25186 0.0311,-0.0526 0.0509,-0.1046 0.0346,-0.15982 -0.009,-0.0263 -0.0291,-0.0529 -0.0523,-0.0681 -0.0233,-0.0146 -0.0515,-0.0234 -0.0799,-0.0234 h -0.003 -0.86904 c -0.0788,0 -0.14215,0.033 -0.1843,0.0777 l -0.006,0.006 -0.10436,0.2165 0.5656,0.18407 -0.034,0.0605 -2.06991,-0.0205 0.11278,-0.23111 -0.63268,-0.3417 -0.006,-0.002 c 0.003,10e-4 -0.003,-0.002 -0.006,-0.006 -0.002,-0.006 -0.003,-0.0117 -0.001,-0.0234 0.006,-0.0117 0.0145,-0.0146 0.0233,-0.0117 l 3.8e-4,3.8e-4 0.54385,0.10168 0.003,3.8e-4 c 0.0401,0.003 0.0785,-0.003 0.10988,-0.0234 0.0314,-0.0204 0.0512,-0.0494 0.0637,-0.0783 l 0.003,-0.009 0.001,-0.009 c 0.003,-0.0365 0.003,-0.0745 -0.0145,-0.11103 -0.0204,-0.0365 -0.0541,-0.0619 -0.0945,-0.0786 l -0.006,-0.003 -0.54496,-0.0996 c -0.0308,-0.006 -0.0616,-0.006 -0.091,-0.003 z m -21.91478,3.8e-4 c 0.19651,0 0.35691,0.16098 0.35691,0.35946 h -0.71492 c 0,-0.19868 0.16046,-0.35946 0.35801,-0.35946 z m 3.41941,0 c 0.18575,0 0.33624,0.15222 0.33624,0.33798 v 0.38021 c 0,0.1867 -0.15029,0.33799 -0.33624,0.33799 -0.18575,0 -0.33627,-0.15106 -0.33627,-0.33799 v -0.38021 c 0,-0.18582 0.15028,-0.33798 0.33627,-0.33798 z m 5.31931,0 c 0.19767,0 0.35691,0.16098 0.35691,0.35946 h -0.71492 c 0,-0.19868 0.16046,-0.35946 0.35801,-0.35946 z m 2.69007,0.63445 h 0.48373 v 0.21124 c 0,0.11658 -0.0933,0.21037 -0.20929,0.21037 h -0.27442 c -0.11598,0 -0.21045,-0.0938 -0.21045,-0.21037 0,-0.11657 0.0945,-0.21124 0.21045,-0.21124 z m 19.71949,0.35873 0.3676,1.21256 -2.88881,-0.003 v 0.94276 l 2.89582,0.003 -0.37461,1.15403 2.84235,-1.58799 z m -15.20949,0.0424 v 0.59218 l 0.33738,-0.25419 v -0.33796 z m 6.33476,0.23374 2.09793,0.0175 -0.57519,1.14252 c -0.0782,-0.002 -0.15116,0.0175 -0.2154,0.0552 l -1.3974,-1.0395 z m 2.38295,0.1493 0.27121,0.46435 c -0.20697,0.1718 -0.33804,0.35464 -0.41702,0.61667 l -0.36758,-0.0462 z m -3.61591,0.47545 c 0.16569,-0.009 0.33423,0.0146 0.50071,0.0947 l -0.13982,0.2799 3.8e-4,-0.002 c -0.0305,0.0573 -0.0628,0.13469 -0.10029,0.20014 -0.0375,0.0654 -0.082,0.11132 -0.10465,0.11833 l -0.002,3.8e-4 -7.6e-4,7.6e-4 c -0.009,0.003 -0.0116,0.002 -0.0334,0 -0.0232,-0.002 -0.0596,-7.6e-4 -0.0988,0.0175 l -0.002,3.8e-4 -0.002,0.001 c -0.10407,0.0535 -0.15436,0.16596 -0.12645,0.2688 v 0.002 l 7.5e-4,0.002 c 0.0233,0.0748 0.0904,0.14579 0.19622,0.16391 l 0.006,0.001 h 0.006 c 0.12499,10e-4 0.21133,-0.10723 0.21336,-0.23023 0.0776,-0.0389 0.14476,-0.10022 0.20348,-0.18174 0.0671,-0.0929 0.12733,-0.20043 0.17994,-0.29188 l 3.8e-4,-0.002 0.0808,-0.15602 c 0.0863,0.0947 0.19302,0.22351 0.21278,0.30684 l 10e-4,0.003 0.001,0.003 c 0.0706,0.19429 0.073,0.30663 0.0424,0.5014 v 3.8e-4 c -0.0456,0.25097 -0.20494,0.46832 -0.37682,0.58811 -0.13226,0.0786 -0.26336,0.13908 -0.40999,0.16011 -0.14709,0.0205 -0.31013,0.001 -0.50588,-0.0786 -0.29392,-0.13791 -0.47836,-0.38555 -0.53868,-0.71635 -0.0174,-0.30056 0.0233,-0.52183 0.23488,-0.74674 l 0.002,-0.002 0.002,-0.002 c 0.13604,-0.16917 0.34714,-0.26442 0.55821,-0.30351 z m 4.64715,0.0383 c 0.0331,-0.002 0.0669,-0.002 0.10116,7.6e-4 0.23924,0.0234 0.38903,0.11015 0.55932,0.25419 0.19447,0.194 0.26772,0.40513 0.28604,0.65891 -0.006,0.23988 -0.041,0.39175 -0.1811,0.59034 -0.24127,0.26997 -0.4501,0.38512 -0.85762,0.37208 -0.24011,-0.0403 -0.40185,-0.12709 -0.52946,-0.24425 v -3.8e-4 l -7.6e-4,-3.8e-4 c -0.0951,-0.0847 -0.17325,-0.2279 -0.23662,-0.39654 l 0.91329,-0.0742 c 0.11773,-0.006 0.20581,-0.0982 0.21394,-0.2054 0.006,-0.0932 -0.0596,-0.1832 -0.16336,-0.21913 l -0.39822,-0.66964 c 0.098,-0.0351 0.19418,-0.0605 0.29351,-0.0666 z m -0.5903,0.23987 0.24912,0.42582 -0.50144,-0.0608 c 0.0517,-0.1382 0.14419,-0.27348 0.25203,-0.36505 z m -7.73691,0.93087 c -0.37165,0 -0.67251,0.3024 -0.67251,0.67598 0,0.1867 0.0855,0.36466 0.23197,0.48027 -0.17209,0.12359 -0.27441,0.32218 -0.27441,0.53366 0,0.39727 0.32065,0.71857 0.71492,0.71857 0.39525,0 0.71492,-0.3213 0.71492,-0.71857 0,-0.21154 -0.10262,-0.41013 -0.27354,-0.53366 0.14651,-0.1157 0.2311,-0.29352 0.2311,-0.48027 0,-0.37358 -0.30087,-0.67598 -0.67254,-0.67598 z m -14.21434,0.0204 v 0.8668 c -0.10814,-0.13353 -0.26918,-0.21154 -0.44136,-0.21154 -0.31365,0 -0.56742,0.25507 -0.56742,0.57033 v 0.59183 c 0,0.17209 0.0776,0.33489 0.21133,0.4436 0.24273,0.19781 0.60085,0.16012 0.79751,-0.0847 v 0.19079 h 0.33623 v -2.36699 z m 0.88305,0 v 0.33796 h 0.33624 v -0.33787 z m 11.10321,0 -0.33627,0.2539 v 0.35873 l 0.33627,-0.25273 v 2.0071 h 0.33624 v -2.36691 z m -15.72827,0.16888 v 0.50698 h -0.16802 v 0.27465 h 0.16802 v 1.03578 c 0,0.21037 0.16976,0.38059 0.3783,0.38059 h 0.21046 v -0.31722 h -0.14738 c -0.0581,0 -0.10436,-0.0476 -0.10436,-0.10605 v -0.99316 h 0.25174 v -0.27465 h -0.25174 v -0.50698 z m 17.95635,0.14813 c 0.18575,0 0.33626,0.15135 0.33626,0.33799 0,0.1867 -0.15057,0.33796 -0.33626,0.33796 -0.18575,0 -0.33627,-0.15135 -0.33627,-0.33796 0,-0.1867 0.15057,-0.33799 0.33627,-0.33799 z m -19.1196,0.32315 c -0.0791,5.8e-4 -0.15872,0.009 -0.2372,0.0292 -0.2154,0.0523 -0.37153,0.23929 -0.38531,0.46175 -0.0174,0.27961 0.1936,0.52056 0.47196,0.53736 l 0.35801,0.0234 c 0.066,0.003 0.12267,0.0464 0.14622,0.10956 0.0326,0.0871 -0.0116,0.18466 -0.0985,0.21709 -0.25872,0.0979 -0.55037,0.0348 -0.74702,-0.16187 l -0.2372,0.24017 c 0.28895,0.28955 0.7196,0.38257 1.10206,0.23812 0.18575,-0.0701 0.31389,-0.24309 0.32668,-0.44284 0.0174,-0.27962 -0.1936,-0.52092 -0.47194,-0.53772 l -0.35801,-0.0234 c -0.0727,-0.006 -0.13546,-0.0573 -0.15232,-0.12943 -0.0204,-0.0909 0.0334,-0.18202 0.12383,-0.20394 0.2125,-0.0514 0.43656,-7.6e-4 0.60763,0.13557 l 0.20959,-0.26383 c -0.18895,-0.15193 -0.42185,-0.23111 -0.65888,-0.22936 z m 10.89008,0 c -0.0791,5.8e-4 -0.15872,0.009 -0.23721,0.0292 -0.2154,0.0523 -0.37263,0.23929 -0.38641,0.46175 -0.0174,0.27961 0.19476,0.52056 0.47304,0.53736 l 0.35691,0.0234 c 0.066,0.003 0.12383,0.0464 0.1465,0.10956 0.0334,0.0871 -0.0116,0.18466 -0.0974,0.21709 -0.25958,0.0979 -0.55132,0.0348 -0.74698,-0.16187 l -0.2372,0.24017 c 0.28894,0.28955 0.71983,0.38257 1.10133,0.23812 0.18691,-0.0701 0.3145,-0.24309 0.3263,-0.44284 0.0174,-0.27962 -0.1936,-0.52092 -0.47193,-0.53772 l -0.35691,-0.0234 c -0.0738,-0.006 -0.13575,-0.0573 -0.15349,-0.12943 -0.0203,-0.0909 0.0346,-0.18202 0.125,-0.20394 0.21249,-0.0514 0.43641,-7.6e-4 0.60652,0.13557 l 0.21046,-0.26383 c -0.18866,-0.15193 -0.42185,-0.23111 -0.65887,-0.22936 z m -8.12886,0.002 c -0.0794,0 -0.15871,0.006 -0.23749,0.0204 -0.14069,0.0234 -0.2654,0.10606 -0.34511,0.22468 l 0.2654,0.21124 c 0.0262,-0.0543 0.0779,-0.0917 0.13692,-0.10255 0.11889,-0.0204 0.24098,-0.0204 0.35984,0 0.0904,0.0146 0.15639,0.095 0.15639,0.18787 v 0.16887 h -0.50437 c -0.27819,0 -0.50441,0.22615 -0.50441,0.50696 0,0.27961 0.22616,0.50698 0.50441,0.50698 h 0.21046 c 0.12296,0 0.23487,-0.0672 0.29385,-0.17502 v 0.17502 h 0.33627 v -1.18293 c 0,-0.25682 -0.18313,-0.47656 -0.43469,-0.52103 -0.0788,-0.0146 -0.15814,-0.0205 -0.2375,-0.0205 z m 4.5196,0.0117 c -0.38245,0 -0.69317,0.31243 -0.69317,0.69783 v 0.33799 c 0,0.38441 0.31072,0.69669 0.69317,0.69669 0.38345,0 0.69391,-0.31228 0.69391,-0.69669 v -0.33799 c 0,-0.3854 -0.31046,-0.69783 -0.69391,-0.69783 z m 1.98326,0.002 c -0.18139,-0.0146 -0.36723,0.057 -0.49074,0.20949 v -0.19079 h -0.33624 v 1.69099 h 0.33624 v -1.03579 c 0,-0.18669 0.15116,-0.33798 0.33699,-0.33798 0.18488,0 0.33627,0.15105 0.33627,0.33798 v 1.03579 h 0.33627 v -1.14141 c 0,-0.17209 -0.0776,-0.33527 -0.21133,-0.44396 -0.0916,-0.0742 -0.19854,-0.11482 -0.30752,-0.12417 z m -3.47577,0.0175 v 1.69099 h 0.33624 v -1.69099 z m -1.21932,0.31722 c 0.18575,0 0.33627,0.15105 0.33627,0.33799 v 0.38058 c 0,0.1867 -0.15029,0.33799 -0.33627,0.33799 -0.18575,0 -0.33627,-0.15105 -0.33627,-0.33799 v -0.38058 c 0,-0.1867 0.15058,-0.33799 0.33627,-0.33799 z m 2.71183,0 c 0.19767,0 0.35764,0.16128 0.35764,0.35984 v 0.33799 c 0,0.1978 -0.15988,0.35873 -0.35764,0.35873 -0.19679,0 -0.3569,-0.16099 -0.3569,-0.35873 v -0.33799 c 0,-0.19868 0.16017,-0.35984 0.3569,-0.35984 z m 11.83878,0.29536 c 0.20958,0 0.37868,0.17121 0.37868,0.38061 0,0.21037 -0.16919,0.38059 -0.37868,0.38059 -0.20843,0 -0.37866,-0.17005 -0.37866,-0.38059 0,-0.20949 0.17035,-0.38061 0.37866,-0.38061 z m -16.50512,0.33909 h 0.48263 v 0.21037 c 0,0.11658 -0.0933,0.21153 -0.20929,0.21153 h -0.27325 c -0.11598,0 -0.21046,-0.095 -0.21046,-0.21153 0,-0.11658 0.0945,-0.21037 0.21046,-0.21037 z m 15.07565,0.40136 v 0.59072 l 0.33624,-0.25273 v -0.33796 z" />
        <path
           style="color:#000000;font-style:normal;font-variant:normal;font-weight:normal;font-stretch:normal;font-size:medium;line-height:normal;font-family:sans-serif;font-variant-ligatures:normal;font-variant-position:normal;font-variant-caps:normal;font-variant-numeric:normal;font-variant-alternates:normal;font-variant-east-asian:normal;font-feature-settings:normal;font-variation-settings:normal;text-indent:0;text-align:start;text-decoration:none;text-decoration-line:none;text-decoration-style:solid;text-decoration-color:#000000;letter-spacing:normal;word-spacing:normal;text-transform:none;writing-mode:lr-tb;direction:ltr;text-orientation:mixed;dominant-baseline:auto;baseline-shift:baseline;text-anchor:start;white-space:normal;shape-padding:0;shape-margin:0;inline-size:0;clip-rule:nonzero;display:inline;overflow:visible;visibility:visible;opacity:1;isolation:auto;mix-blend-mode:normal;color-interpolation:sRGB;color-interpolation-filters:linearRGB;solid-color:#000000;solid-opacity:1;vector-effect:none;fill:#000000;fill-opacity:1;fill-rule:nonzero;stroke:none;stroke-width:0.147114;stroke-linecap:butt;stroke-linejoin:miter;stroke-miterlimit:22.926;stroke-dasharray:none;stroke-dashoffset:0;stroke-opacity:1;color-rendering:auto;image-rendering:auto;shape-rendering:auto;text-rendering:auto;enable-background:accumulate;stop-color:#000000;stop-opacity:1"
           d="m -160.48979,-287.60644 c -0.31981,0 -0.57908,-0.10665 -0.74971,-0.27815 -0.17064,-0.1718 -0.24854,-0.39768 -0.24767,-0.61319 l 0.0262,-8.73703 c 5e-4,-0.20306 0.0581,-0.42386 0.21773,-0.59393 0.15959,-0.17005 0.40978,-0.2688 0.72562,-0.2688 h 37.87347 c 0.63879,0 1.02401,0.44863 1.02401,0.89089 v 8.65599 c 0,0.20919 -0.0637,0.43943 -0.22383,0.62703 -0.15987,0.18758 -0.42054,0.31725 -0.74724,0.31725 z m 0,-0.42991 h 37.89903 c 0.22296,0 0.3411,-0.0719 0.42229,-0.16712 0.0811,-0.0953 0.12092,-0.22936 0.12092,-0.34737 v -8.65598 c 0,-0.21183 -0.13778,-0.46102 -0.59632,-0.46102 h -37.87347 c -0.23285,0 -0.34662,0.0616 -0.41444,0.13381 -0.0677,0.0722 -0.10087,0.17589 -0.10116,0.29995 l -0.0262,8.737 c -2.6e-4,0.11161 0.0389,0.22381 0.12296,0.30833 0.084,0.0844 0.21714,0.15223 0.44688,0.15223 z"
           id="path9050" />
      </g>
    </g>
  </g>
</svg>
