<?xml version="1.0" encoding="UTF-8" standalone="no"?>
<!-- Created with Inkscape (http://www.inkscape.org/) -->

<svg
   xmlns:dc="http://purl.org/dc/elements/1.1/"
   xmlns:cc="http://creativecommons.org/ns#"
   xmlns:rdf="http://www.w3.org/1999/02/22-rdf-syntax-ns#"
   xmlns:svg="http://www.w3.org/2000/svg"
   xmlns="http://www.w3.org/2000/svg"
   xmlns:sodipodi="http://sodipodi.sourceforge.net/DTD/sodipodi-0.dtd"
   xmlns:inkscape="http://www.inkscape.org/namespaces/inkscape"
   width="194.99998mm"
   height="286.76077mm"
   viewBox="0 0 194.99998 286.76077"
   version="1.1"
   id="svg3845"
   inkscape:version="0.92.3 (2405546, 2018-03-11)"
   sodipodi:docname="Latvia_road_sign_734A.svg">
  <defs
     id="defs3839" />
  <sodipodi:namedview
     id="base"
     pagecolor="#ffffff"
     bordercolor="#666666"
     borderopacity="1.0"
     inkscape:pageopacity="0.0"
     inkscape:pageshadow="2"
     inkscape:zoom="0.24748737"
     inkscape:cx="-562.45345"
     inkscape:cy="175.49218"
     inkscape:document-units="mm"
     inkscape:current-layer="layer1"
     showgrid="false"
     inkscape:window-width="1600"
     inkscape:window-height="838"
     inkscape:window-x="-8"
     inkscape:window-y="-8"
     inkscape:window-maximized="1" />
  <metadata
     id="metadata3842">
    <rdf:RDF>
      <cc:Work
         rdf:about="">
        <dc:format>image/svg+xml</dc:format>
        <dc:type
           rdf:resource="http://purl.org/dc/dcmitype/StillImage" />
        <dc:title></dc:title>
      </cc:Work>
    </rdf:RDF>
  </metadata>
  <g
     inkscape:label="Layer 1"
     inkscape:groupmode="layer"
     id="layer1"
     transform="translate(-1380.2243,691.81274)">
    <path
       d="m 1393.3671,-691.38075 h 168.7144 c 6.9912,0 12.7108,5.79221 12.7108,12.87343 v 260.14996 c 0,7.08122 -5.7196,12.87339 -12.7108,12.87339 h -168.7144 c -6.9912,0 -12.7108,-5.79217 -12.7108,-12.87339 v -260.14996 c 0,-7.08122 5.7196,-12.87343 12.7108,-12.87343 z"
       style="fill:#ffdd2e;fill-opacity:1;fill-rule:evenodd;stroke:#000000;stroke-width:0.86398697;stroke-linecap:butt;stroke-linejoin:miter;stroke-miterlimit:22.9260006;stroke-dasharray:none;stroke-opacity:1"
       id="path14275"
       inkscape:connector-curvature="0" />
    <path
       d="m 1395.346,-680.81069 h 164.1899 c 2.0254,0 3.6707,1.64501 3.6707,3.67022 v 256.92381 c 0,2.03554 -1.6453,3.67883 -3.6707,3.67883 H 1395.346 c -2.0254,0 -3.6688,-1.64329 -3.6688,-3.67883 v -256.92381 c 0,-2.02521 1.6434,-3.67022 3.6688,-3.67022 z m 0.1126,-5.36539 h 164.5191 c 4.8208,0 8.7467,3.93634 8.7467,8.76777 v 257.95194 c 0,4.83144 -3.9259,8.76772 -8.7467,8.76772 h -164.5191 c -4.8105,0 -8.7364,-3.93628 -8.7364,-8.76772 v -257.95194 c 0,-4.83143 3.9259,-8.76777 8.7364,-8.76777"
       style="fill:#000000;fill-opacity:1;fill-rule:evenodd;stroke:none;stroke-width:1.72797394"
       id="path14277"
       inkscape:connector-curvature="0" />
    <path
       d="m 1536.8049,-442.09455 v -62.58893 c 0,-8.0783 -4.5465,-24.1502 -11.0264,-30.63007 l -34.4715,-34.63724 16.3227,-6.97758 -46.621,-13.97587 13.8928,46.66226 7.0607,-16.44686 32.7694,32.72606 c 6.4157,6.4592 8.9285,16.69745 8.9285,23.42444 v 62.44379 h 13.1658"
       style="fill:#000000;fill-opacity:1;fill-rule:evenodd;stroke:none;stroke-width:1.72797394"
       id="path14279"
       inkscape:connector-curvature="0" />
    <path
       d="M 1438.1547,-442.35547 V -616.8342 l 16.4795,6.60953 -23.0891,-42.85896 -23.1792,42.82957 16.6284,-6.63887 -0.196,174.53746 h 13.354"
       style="fill:#000000;fill-opacity:1;fill-rule:evenodd;stroke:none;stroke-width:1.72797394"
       id="path14281"
       inkscape:connector-curvature="0" />
  </g>
</svg>
