<?xml version="1.0" encoding="UTF-8" standalone="no"?>
<svg
   xmlns:dc="http://purl.org/dc/elements/1.1/"
   xmlns:cc="http://creativecommons.org/ns#"
   xmlns:rdf="http://www.w3.org/1999/02/22-rdf-syntax-ns#"
   xmlns:svg="http://www.w3.org/2000/svg"
   xmlns="http://www.w3.org/2000/svg"
   xmlns:sodipodi="http://sodipodi.sourceforge.net/DTD/sodipodi-0.dtd"
   xmlns:inkscape="http://www.inkscape.org/namespaces/inkscape"
   width="501.43201mm"
   height="195mm"
   viewBox="0 0 501.43202 195.00001"
   version="1.1"
   id="svg3845"
   inkscape:version="1.0 (4035a4fb49, 2020-05-01)"
   sodipodi:docname="Latvia_road_sign_742.svg">
  <defs
     id="defs3839" />
  <sodipodi:namedview
     id="base"
     pagecolor="#ffffff"
     bordercolor="#666666"
     borderopacity="1.0"
     inkscape:pageopacity="0.0"
     inkscape:pageshadow="2"
     inkscape:zoom="0.29260408"
     inkscape:cx="728.92769"
     inkscape:cy="1080.6259"
     inkscape:document-units="mm"
     inkscape:current-layer="layer1"
     showgrid="false"
     inkscape:window-width="1920"
     inkscape:window-height="1001"
     inkscape:window-x="-9"
     inkscape:window-y="-9"
     inkscape:window-maximized="1"
     inkscape:document-rotation="0"
     showguides="false" />
  <metadata
     id="metadata3842">
    <rdf:RDF>
      <cc:Work
         rdf:about="">
        <dc:format>image/svg+xml</dc:format>
        <dc:type
           rdf:resource="http://purl.org/dc/dcmitype/StillImage" />
        <dc:title></dc:title>
      </cc:Work>
    </rdf:RDF>
  </metadata>
  <g
     inkscape:label="Layer 1"
     inkscape:groupmode="layer"
     id="layer1"
     transform="translate(-1085.5681,267.05902)">
    <path
       style="fill:#ffffff;fill-opacity:1;stroke:#000000;stroke-width:2.85322;stroke-linecap:butt;stroke-linejoin:miter;stroke-miterlimit:22.926;stroke-opacity:1"
       d="m 1110.8232,-265.63241 h 450.9218 c 13.1056,0 23.8285,10.7219 23.8285,23.82892 v 144.488998 c 0,13.10695 -10.7229,23.82886 -23.8285,23.82886 h -450.9218 c -13.1072,0 -23.8285,-10.72191 -23.8285,-23.82886 V -241.80349 c 0,-13.10702 10.7213,-23.82892 23.8285,-23.82892 z m 0,0"
       id="path3042" />
    <path
       style="fill:#263894;fill-opacity:1;fill-rule:evenodd;stroke:none;stroke-width:5.70643"
       d="m 1293.1175,-253.57311 h 265.6398 c 8.4486,0 15.3589,6.91017 15.3589,15.35839 v 137.42281 c 0,8.448228 -6.9103,15.358378 -15.3589,15.358378 h -265.6398 c -8.4486,0 -15.3799,-6.91015 -15.3799,-15.358378 v -137.42281 c 0,-8.44822 6.9313,-15.35839 15.3799,-15.35839"
       id="path3016" />
    <path
       style="fill:#ffffff;fill-opacity:1;fill-rule:evenodd;stroke:none;stroke-width:5.70643"
       d="m 1304.6637,-118.84744 v -101.31174 h 39.8345 c 16.9635,0 30.7387,13.77576 30.7387,30.73903 0,17.0079 -13.7752,30.78359 -30.7387,30.78359 h -24.4303 v 39.78912 z m 15.4042,-54.27812 h 23.4937 c 9.005,0 16.2954,-7.26682 16.2954,-16.29459 0,-8.98321 -7.2904,-16.24996 -16.2954,-16.24996 h -23.4937 v 32.54455"
       id="path3018" />
    <path
       style="fill:#ffffff;fill-opacity:1;fill-rule:evenodd;stroke:none;stroke-width:5.70643"
       d="m 1419.1719,-119.44931 v -13.55281 l 40.2582,-50.68928 c 4.9708,-6.26373 3.9453,-15.38063 -2.3196,-20.35152 -6.2632,-4.94857 -15.3572,-3.92317 -20.3281,2.34055 -2.051,2.56345 -3.1429,5.72871 -3.1429,9.00546 h -14.4676 c 0,-16.00476 12.9519,-28.95576 28.9336,-28.95576 16.0043,0 28.9562,12.951 28.9562,28.95576 0,6.55351 -2.2517,12.95096 -6.3539,18.07786 l -32.5439,40.70299 h 38.8978 v 14.46675 h -57.8898"
       id="path3020" />
    <path
       style="fill:#ffffff;fill-opacity:1;fill-rule:evenodd;stroke:none;stroke-width:5.70643"
       d="m 1504.8355,-172.14474 c -6.3086,-4.97089 -9.9853,-12.54973 -9.9853,-20.57443 0,-15.9825 12.9503,-28.95576 28.9546,-28.95576 15.9832,0 28.9335,12.97326 28.9335,28.95576 0,8.0247 -3.6557,15.60354 -9.9642,20.57443 7.4004,5.28292 11.7694,13.77571 11.7694,22.84804 0,16.98558 -13.7526,30.76134 -30.7387,30.76134 -16.9846,0 -30.7615,-13.77576 -30.7615,-30.76134 0,-9.07233 4.3917,-17.56512 11.7922,-22.84804 z m 2.6754,22.84804 c 0,8.98321 7.2888,16.29458 16.2939,16.29458 8.984,0 16.2728,-7.31137 16.2728,-16.29458 0,-8.9832 -7.2888,-16.29459 -16.2728,-16.29459 -9.0051,0 -16.2939,7.31139 -16.2939,16.29459 z m 1.8279,-43.42247 c 0,8.00239 6.4638,14.46671 14.466,14.46671 8.0021,0 14.4676,-6.46432 14.4676,-14.46671 0,-8.00243 -6.4655,-14.46675 -14.4676,-14.46675 -8.0022,0 -14.466,6.46432 -14.466,14.46675"
       id="path3022" />
    <path
       style="fill:#263894;fill-opacity:1;fill-rule:evenodd;stroke:none;stroke-width:5.70643"
       d="m 1114.0115,-253.68455 h 138.314 c 8.5602,0 15.5594,6.95474 15.5594,15.44753 v 137.31136 c 0,8.492828 -6.9992,15.447568 -15.5594,15.447568 h -138.314 c -8.5602,0 -15.5595,-6.95474 -15.5595,-15.447568 v -137.31136 c 0,-8.49279 6.9993,-15.44753 15.5595,-15.44753"
       id="path3024" />
    <path
       style="fill:#ffffff;fill-opacity:1;fill-rule:evenodd;stroke:none;stroke-width:5.70643"
       d="m 1137.7057,-106.76582 v -53.38647 c 0,-27.01649 17.5653,-42.73148 43.9576,-46.00823 h 17.6995 l -6.0416,-25.09947 61.3223,35.13031 -60.9212,35.77674 5.8848,-24.76506 -20.8862,0.0663 c -10.498,0 -20.1954,9.94167 -20.1954,20.48523 l 0.1618,57.86696 -20.9088,-0.0663"
       id="path3026" />
    <path
       style="fill:none;stroke:#211e1e;stroke-width:2.85322;stroke-linecap:butt;stroke-linejoin:miter;stroke-miterlimit:22.926;stroke-opacity:1"
       d="m 1110.8232,-265.63241 h 450.9218 c 13.1056,0 23.8285,10.7219 23.8285,23.82892 v 144.488998 c 0,13.10695 -10.7229,23.82886 -23.8285,23.82886 h -450.9218 c -13.1072,0 -23.8285,-10.72191 -23.8285,-23.82886 V -241.80349 c 0,-13.10702 10.7213,-23.82892 23.8285,-23.82892 z m 0,0"
       id="path3028" />
    <path
       style="fill:#263894;fill-opacity:1;fill-rule:evenodd;stroke:none;stroke-width:5.70643"
       d="m 1293.1175,-253.57311 h 265.6398 c 8.4486,0 15.3589,6.91017 15.3589,15.35839 v 137.42281 c 0,8.448228 -6.9103,15.358378 -15.3589,15.358378 h -265.6398 c -8.4486,0 -15.3799,-6.91015 -15.3799,-15.358378 v -137.42281 c 0,-8.44822 6.9313,-15.35839 15.3799,-15.35839"
       id="path3030" />
    <path
       style="fill:#ffffff;fill-opacity:1;fill-rule:evenodd;stroke:none;stroke-width:5.70643"
       d="m 1304.6637,-118.84744 v -101.31174 h 39.8345 c 16.9635,0 30.7387,13.77576 30.7387,30.73903 0,17.0079 -13.7752,30.78359 -30.7387,30.78359 h -24.4303 v 39.78912 z m 15.4042,-54.27812 h 23.4937 c 9.005,0 16.2954,-7.26682 16.2954,-16.29459 0,-8.98321 -7.2904,-16.24996 -16.2954,-16.24996 h -23.4937 v 32.54455"
       id="path3032" />
    <path
       style="fill:#ffffff;fill-opacity:1;fill-rule:evenodd;stroke:none;stroke-width:5.70643"
       d="m 1419.1719,-119.44931 v -13.55281 l 40.2582,-50.68928 c 4.9708,-6.26373 3.9453,-15.38063 -2.3196,-20.35152 -6.2632,-4.94857 -15.3572,-3.92317 -20.3281,2.34055 -2.051,2.56345 -3.1429,5.72871 -3.1429,9.00546 h -14.4676 c 0,-16.00476 12.9519,-28.95576 28.9336,-28.95576 16.0043,0 28.9562,12.951 28.9562,28.95576 0,6.55351 -2.2517,12.95096 -6.3539,18.07786 l -32.5439,40.70299 h 38.8978 v 14.46675 h -57.8898"
       id="path3034" />
    <path
       style="fill:#ffffff;fill-opacity:1;fill-rule:evenodd;stroke:none;stroke-width:5.70643"
       d="m 1504.8355,-172.14474 c -6.3086,-4.97089 -9.9853,-12.54973 -9.9853,-20.57443 0,-15.9825 12.9503,-28.95576 28.9546,-28.95576 15.9832,0 28.9335,12.97326 28.9335,28.95576 0,8.0247 -3.6557,15.60354 -9.9642,20.57443 7.4004,5.28292 11.7694,13.77571 11.7694,22.84804 0,16.98558 -13.7526,30.76134 -30.7387,30.76134 -16.9846,0 -30.7615,-13.77576 -30.7615,-30.76134 0,-9.07233 4.3917,-17.56512 11.7922,-22.84804 z m 2.6754,22.84804 c 0,8.98321 7.2888,16.29458 16.2939,16.29458 8.984,0 16.2728,-7.31137 16.2728,-16.29458 0,-8.9832 -7.2888,-16.29459 -16.2728,-16.29459 -9.0051,0 -16.2939,7.31139 -16.2939,16.29459 z m 1.8279,-43.42247 c 0,8.00239 6.4638,14.46671 14.466,14.46671 8.0021,0 14.4676,-6.46432 14.4676,-14.46671 0,-8.00243 -6.4655,-14.46675 -14.4676,-14.46675 -8.0022,0 -14.466,6.46432 -14.466,14.46675"
       id="path3036" />
    <path
       style="fill:#263894;fill-opacity:1;fill-rule:evenodd;stroke:none;stroke-width:5.70643"
       d="m 1114.0115,-253.68455 h 138.314 c 8.5602,0 15.5594,6.95474 15.5594,15.44753 v 137.31136 c 0,8.492828 -6.9992,15.447568 -15.5594,15.447568 h -138.314 c -8.5602,0 -15.5595,-6.95474 -15.5595,-15.447568 v -137.31136 c 0,-8.49279 6.9993,-15.44753 15.5595,-15.44753"
       id="path3038" />
    <path
       style="fill:#ffffff;fill-opacity:1;fill-rule:evenodd;stroke:none;stroke-width:5.70643"
       d="m 1137.7057,-106.76582 v -53.38647 c 0,-27.01649 17.5653,-42.73148 43.9576,-46.00823 h 17.6995 l -6.0416,-25.09947 61.3223,35.13031 -60.9212,35.77674 5.8848,-24.76506 -20.8862,0.0663 c -10.498,0 -20.1954,9.94167 -20.1954,20.48523 l 0.1618,57.86696 -20.9088,-0.0663"
       id="path3040" />
  </g>
</svg>
