<?xml version="1.0" encoding="UTF-8" standalone="no"?>
<svg
   xmlns:dc="http://purl.org/dc/elements/1.1/"
   xmlns:cc="http://creativecommons.org/ns#"
   xmlns:rdf="http://www.w3.org/1999/02/22-rdf-syntax-ns#"
   xmlns:svg="http://www.w3.org/2000/svg"
   xmlns="http://www.w3.org/2000/svg"
   xmlns:sodipodi="http://sodipodi.sourceforge.net/DTD/sodipodi-0.dtd"
   xmlns:inkscape="http://www.inkscape.org/namespaces/inkscape"
   sodipodi:docname="Latvia_road_sign_701c.svg"
   inkscape:version="1.0 (4035a4fb49, 2020-05-01)"
   id="svg6774"
   version="1.1"
   viewBox="0 0 322.54081 158.74999"
   height="158.75mm"
   width="322.54083mm">
  <defs
     id="defs6768" />
  <sodipodi:namedview
     inkscape:window-maximized="1"
     inkscape:window-y="-9"
     inkscape:window-x="-9"
     inkscape:window-height="1001"
     inkscape:window-width="1920"
     fit-margin-bottom="0"
     fit-margin-right="0"
     fit-margin-left="0"
     fit-margin-top="0"
     showgrid="false"
     inkscape:document-rotation="0"
     inkscape:current-layer="g4251"
     inkscape:document-units="mm"
     inkscape:cy="-314.05519"
     inkscape:cx="-913.90453"
     inkscape:zoom="0.20491755"
     inkscape:pageshadow="2"
     inkscape:pageopacity="0.0"
     borderopacity="1.0"
     bordercolor="#666666"
     pagecolor="#ffffff"
     id="base" />
  <metadata
     id="metadata6771">
    <rdf:RDF>
      <cc:Work
         rdf:about="">
        <dc:format>image/svg+xml</dc:format>
        <dc:type
           rdf:resource="http://purl.org/dc/dcmitype/StillImage" />
        <dc:title></dc:title>
      </cc:Work>
    </rdf:RDF>
  </metadata>
  <g
     transform="translate(-173.25441,582.52181)"
     id="layer1"
     inkscape:groupmode="layer"
     inkscape:label="Layer 1">
    <g
       inkscape:groupmode="layer"
       style="opacity:1"
       id="g2362">
      <g
         inkscape:groupmode="layer"
         id="g4251"
         style="opacity:1;stroke-width:0.245448"
         transform="matrix(4.0741859,0,0,4.0741859,1019.3516,778.12493)">
        <path
           id="path4527"
           d="m -204.6614,-333.86311 h 73.14558 c 1.59853,0 2.90629,1.30775 2.90629,2.90628 v 32.942 c 0,1.59853 -1.30776,2.90766 -2.90629,2.90766 h -73.14558 c -1.59853,0 -2.90628,-1.30913 -2.90628,-2.90766 v -32.942 c 0,-1.59853 1.30775,-2.90628 2.90628,-2.90628 z"
           style="color:#000000;font-style:normal;font-variant:normal;font-weight:normal;font-stretch:normal;font-size:medium;line-height:normal;font-family:sans-serif;font-variant-ligatures:normal;font-variant-position:normal;font-variant-caps:normal;font-variant-numeric:normal;font-variant-alternates:normal;font-variant-east-asian:normal;font-feature-settings:normal;font-variation-settings:normal;text-indent:0;text-align:start;text-decoration:none;text-decoration-line:none;text-decoration-style:solid;text-decoration-color:#000000;letter-spacing:normal;word-spacing:normal;text-transform:none;writing-mode:lr-tb;direction:ltr;text-orientation:mixed;dominant-baseline:auto;baseline-shift:baseline;text-anchor:start;white-space:normal;shape-padding:0;shape-margin:0;inline-size:0;clip-rule:nonzero;display:inline;overflow:visible;visibility:visible;isolation:auto;mix-blend-mode:normal;color-interpolation:sRGB;color-interpolation-filters:linearRGB;solid-color:#000000;solid-opacity:1;vector-effect:none;fill:#ffffff;fill-opacity:1;fill-rule:nonzero;stroke:none;stroke-width:0.0511739;stroke-linecap:butt;stroke-linejoin:miter;stroke-miterlimit:22.926;stroke-dasharray:none;stroke-dashoffset:0;stroke-opacity:1;color-rendering:auto;image-rendering:auto;shape-rendering:auto;text-rendering:auto;enable-background:accumulate;stop-color:#000000;stop-opacity:1"
           sodipodi:nodetypes="sssssssss" />
        <path
           id="path4529"
           d="m -204.66098,-333.96776 c -1.65539,0 -3.01172,1.35633 -3.01172,3.01172 v 32.9414 c 0,1.65539 1.35627,3.01172 3.01172,3.01172 h 73.14546 c 1.65544,0 3.00976,-1.35633 3.00976,-3.01172 v -32.9414 c 0,-1.65539 -1.35438,-3.01172 -3.00976,-3.01172 z m 0,0.20898 h 73.14546 c 1.54167,0 2.80078,1.26106 2.80078,2.80274 v 32.9414 c 0,1.54168 -1.25917,2.80274 -2.80078,2.80274 h -73.14546 c -1.54162,0 -2.80274,-1.26106 -2.80274,-2.80274 v -32.9414 c 0,-1.54168 1.26106,-2.80274 2.80274,-2.80274 z"
           style="color:#000000;font-style:normal;font-variant:normal;font-weight:normal;font-stretch:normal;font-size:medium;line-height:normal;font-family:sans-serif;font-variant-ligatures:normal;font-variant-position:normal;font-variant-caps:normal;font-variant-numeric:normal;font-variant-alternates:normal;font-variant-east-asian:normal;font-feature-settings:normal;font-variation-settings:normal;text-indent:0;text-align:start;text-decoration:none;text-decoration-line:none;text-decoration-style:solid;text-decoration-color:#000000;letter-spacing:normal;word-spacing:normal;text-transform:none;writing-mode:lr-tb;direction:ltr;text-orientation:mixed;dominant-baseline:auto;baseline-shift:baseline;text-anchor:start;white-space:normal;shape-padding:0;shape-margin:0;inline-size:0;clip-rule:nonzero;display:inline;overflow:visible;visibility:visible;isolation:auto;mix-blend-mode:normal;color-interpolation:sRGB;color-interpolation-filters:linearRGB;solid-color:#000000;solid-opacity:1;vector-effect:none;fill:#000000;fill-opacity:1;fill-rule:nonzero;stroke:none;stroke-width:0.0511739;stroke-linecap:butt;stroke-linejoin:miter;stroke-miterlimit:22.926;stroke-dasharray:none;stroke-dashoffset:0;stroke-opacity:1;color-rendering:auto;image-rendering:auto;shape-rendering:auto;text-rendering:auto;enable-background:accumulate;stop-color:#000000;stop-opacity:1"
           sodipodi:nodetypes="ssssssssssssssssss" />
      </g>
      <path
         style="opacity:1;fill:#263894;fill-opacity:1;fill-rule:evenodd;stroke:none;stroke-width:0.076;stroke-linecap:butt;stroke-linejoin:miter;stroke-miterlimit:22.926;stroke-dasharray:none;stroke-opacity:1"
         d="m 187.12985,-577.1099 h 295.06561 c 4.47468,0 8.13525,3.66062 8.13525,8.13526 v 131.65169 c 0,4.47464 -3.66057,8.13525 -8.13525,8.13525 H 187.12985 c -4.47468,0 -8.13526,-3.66061 -8.13526,-8.13525 v -131.65169 c 0,-4.47464 3.66058,-8.13526 8.13526,-8.13526 z"
         id="path4531"
         sodipodi:nodetypes="sssssssss" />
      <path
         style="fill:#ffffff;fill-opacity:1;fill-rule:evenodd;stroke:none;stroke-width:0.352778"
         d="m 310.34217,-494.72737 c 0,2.5048 0.55974,4.8821 1.54559,7.01089 l -5.24742,2.44107 c -0.90957,-1.9503 -1.55197,-4.05357 -1.86367,-6.25246 h -6.63402 l 1.641,5.62145 -16.69005,-8.89106 16.71553,-8.94848 -1.72372,5.86369 6.68493,-0.004 c 1.39297,-9.79615 9.09555,-17.55273 18.85262,-19.01865 l 0.004,-6.88979 -5.61,1.65073 8.87299,-16.73053 8.92384,16.75607 -5.85172,-1.73364 v 6.92806 c 9.78886,1.33207 17.56781,9.03129 19.08165,18.79553 l 6.88842,0.004 -1.64737,-5.62147 16.69642,8.89113 -16.72184,8.94841 1.72371,-5.87001 h -6.90759 c -1.28482,9.8726 -9.00015,17.72478 -18.80174,19.2162 l -0.004,19.076 -6.33512,0.004 v -24.64609 h 2.9831 c 9.14646,0 16.5692,-7.43791 16.5692,-16.60306 0,-9.17149 -7.42274,-16.60308 -16.5692,-16.60308 -9.15282,0 -16.57552,7.43159 -16.57552,16.60308"
         id="path2045" />
      <path
         style="fill:#ffffff;fill-opacity:1;fill-rule:evenodd;stroke:none;stroke-width:0.352778"
         d="m 285.14807,-457.31471 c 6.62134,0 12.02142,3.57555 12.02142,7.95416 0,4.38498 -5.40008,7.95418 -12.02142,7.95418 -6.60858,0 -12.0087,-3.5692 -12.0087,-7.95418 0,-4.37861 5.40012,-7.95416 12.0087,-7.95416"
         id="path2047" />
      <path
         style="fill:#211e1e;fill-opacity:1;fill-rule:evenodd;stroke:none;stroke-width:0.352778"
         d="m 277.01928,-445.60014 v -7.37418 h 4.72591 v 1.058 h -3.60642 v 2.10324 h 3.08485 v 0.98793 h -3.08485 v 2.16698 h 3.60642 v 1.05803 h -4.72591"
         id="path2049" />
      <path
         style="fill:#211e1e;fill-opacity:1;fill-rule:evenodd;stroke:none;stroke-width:0.352778"
         d="m 282.53387,-446.61358 0.72512,-0.85403 c 0.77597,0.65649 1.81274,0.89866 2.79865,0.65011 0.52789,-0.12718 0.84594,-0.6692 0.71874,-1.19821 -0.10151,-0.38898 -0.42602,-0.68198 -0.82689,-0.73937 l -1.19577,-0.15318 c -1.14492,-0.15317 -1.95903,-1.21092 -1.80639,-2.36456 0.1269,-0.95605 0.87776,-1.70176 1.83181,-1.81646 1.03677,-0.12108 2.08627,0.13367 2.94492,0.72655 l -0.63602,0.92418 c -0.63604,-0.43985 -1.4057,-0.63099 -2.17532,-0.53535 -0.54062,0.0638 -0.9223,0.55446 -0.85869,1.09625 0.0508,0.4463 0.40064,0.80304 0.846,0.86039 l 1.19578,0.15906 c 1.15123,0.14668 1.95901,1.21099 1.80637,2.35825 -0.11451,0.86045 -0.7378,1.56151 -1.57107,1.77181 -1.33568,0.33162 -2.74773,0 -3.79724,-0.88593"
         id="path2051" />
      <path
         style="fill:#211e1e;fill-opacity:1;fill-rule:evenodd;stroke:none;stroke-width:0.352778"
         d="m 290.60539,-445.60652 v -6.37353 h -2.03537 v -0.98155 h 5.18388 v 0.98155 h -2.0354 v 6.37353 h -1.11311"
         id="path2053" />
      <path
         style="fill:#ffffff;fill-opacity:1;fill-rule:evenodd;stroke:#ffffff;stroke-width:0.176389;stroke-linecap:butt;stroke-linejoin:miter;stroke-miterlimit:22.926;stroke-opacity:1"
         d="m 272.00082,-523.3255 v 12.12883 c 0,2.05865 -1.67917,3.74764 -3.73996,3.74764 h -29.83729 c -2.05448,0 -3.74002,-1.68899 -3.74002,-3.74764 v -12.12883 c 0,-2.05866 1.68554,-3.74766 3.74002,-3.74766 h 29.83729 c 2.06079,0 3.73996,1.689 3.73996,3.74766 z m 0,0"
         id="path2057" />
      <path
         style="fill:#00a64f;fill-opacity:1;fill-rule:evenodd;stroke:none;stroke-width:0.352778"
         d="m 270.97042,-523.14701 v 11.77193 c 0,1.44683 -1.22758,2.63228 -2.72229,2.63228 H 238.4363 c -1.49473,0 -2.72235,-1.18545 -2.72235,-2.63228 v -11.77193 c 0,-1.44676 1.22762,-2.63228 2.72235,-2.63228 h 29.51924 c 1.50108,0 3.01488,1.18552 3.01488,2.63228"
         id="path2059" />
      <path
         style="fill:#ffffff;fill-opacity:1;fill-rule:evenodd;stroke:none;stroke-width:0.352778"
         d="m 239.40946,-511.52801 v -11.10271 h 7.11742 v 1.587 h -5.43825 v 3.16764 h 4.64953 v 1.4914 h -4.64953 v 3.26965 h 5.43825 v 1.58702 h -7.11742"
         id="path2061" />
      <path
         style="fill:#ffffff;fill-opacity:1;fill-rule:evenodd;stroke:none;stroke-width:0.352778"
         d="m 253.44716,-511.52801 v -1.49142 l 4.40786,-5.55134 c 0.54064,-0.68836 0.42603,-1.68265 -0.25432,-2.23077 -0.6869,-0.54175 -1.67917,-0.4269 -2.22618,0.25483 -0.22246,0.28029 -0.34339,0.63101 -0.34339,0.98793 h -1.58376 c 0,-1.75271 1.41837,-3.174 3.16752,-3.174 1.74914,0 3.16115,1.42129 3.16115,3.174 0,0.72021 -0.24185,1.42129 -0.68694,1.98217 l -3.56188,4.46149 h 4.24882 v 1.58701 h -6.32867"
         id="path2063" />
      <path
         style="fill:#ffffff;fill-opacity:1;fill-rule:evenodd;stroke:none;stroke-width:0.352778"
         d="m 261.754,-511.52801 v -1.49142 l 4.40786,-5.55134 c 0.54065,-0.68836 0.43248,-1.68265 -0.25434,-2.23077 -0.68689,-0.54175 -1.67917,-0.4269 -2.22617,0.25483 -0.21647,0.28029 -0.34341,0.63101 -0.34341,0.98793 h -1.5838 c 0,-1.75271 1.41843,-3.174 3.16757,-3.174 1.74915,0 3.16754,1.42129 3.16754,3.174 0,0.72021 -0.24786,1.42129 -0.69327,1.98217 l -3.56194,4.46149 h 4.25521 v 1.58701 h -6.33511"
         id="path2065" />
      <path
         id="path2067"
         style="fill:#ffffff;fill-opacity:1;fill-rule:evenodd;stroke:none;stroke-width:0.352778"
         d="m 435.35215,-566.72286 c -2.75407,0 -4.98029,2.23711 -4.98029,4.9905 v 4.2376 c 0,2.75336 2.22622,4.97852 4.98029,4.97852 2.74142,0 4.96838,-2.22516 4.96838,-4.97852 v -2.86094 h -4.96838 v 1.98855 h 2.8551 v 0.87239 c 0,1.587 -1.28402,2.86331 -2.8551,2.86331 -1.58372,0 -2.86937,-1.27631 -2.86937,-2.86331 v -4.2376 c 0,-1.24922 0.80858,-2.34467 1.99166,-2.72708 1.50105,-0.49076 3.10946,0.34318 3.59924,1.8475 h 2.17055 c -0.42002,-2.3773 -2.48779,-4.11092 -4.89208,-4.11092 z m -78.27273,0.13367 v 9.5914 c -4e-5,0.75203 -0.35541,1.46111 -0.96601,1.90723 -1.0495,0.77759 -2.53155,0.5474 -3.30115,-0.5043 l -1.7054,1.25483 c 0.84596,1.15357 2.18801,1.82361 3.60645,1.82361 2.48054,0 4.47699,-2.0021 4.47699,-4.48137 v -9.5914 z m 16.26941,0 v 9.09425 c 0,2.75336 2.22622,4.97852 4.98033,4.97852 2.73504,0 4.96123,-2.22516 4.96123,-4.97852 v -9.09425 h -2.11092 v 9.09425 c 0,1.587 -1.28561,2.86328 -2.85031,2.86328 -1.58377,0 -2.867,-1.27628 -2.867,-2.86328 v -9.09425 z m 30.57594,0 v 9.5914 c 0,0.75203 -0.35078,1.46111 -0.96126,1.90723 -1.05588,0.77759 -2.53149,0.5474 -3.30111,-0.5043 l -1.70304,1.25483 c 0.84596,1.15357 2.1817,1.82361 3.60644,1.82361 2.48059,0 4.477,-2.0021 4.477,-4.48137 v -9.5914 z m -38.55206,0.11479 -5.09474,13.95802 h 2.2397 l 1.04234,-3.11665 h 5.36906 l 1.05667,3.11665 h 2.23728 l -5.1067,-13.95802 z m 43.66593,0 v 13.95802 h 8.94927 v -1.98855 h -6.83835 v -4.11813 h 5.85323 v -1.86664 h -5.85323 v -3.98904 h 6.83835 v -1.99566 z m 11.36547,0 v 13.95802 h 8.95642 v -1.99572 h -6.83835 v -11.9623 z m 26.01538,0 -5.09478,13.95802 h 2.23969 l 1.04235,-3.11665 h 5.36906 l 1.0495,3.11665 h 2.23735 l -5.09959,-13.95802 z m 5.92724,0 4.59865,13.95802 h 1.74362 l 4.59867,-13.95802 h -2.23971 l -3.22482,10.71468 -3.23672,-10.71468 z m 15.17703,0 -5.0948,13.95802 h 2.2397 l 1.04235,-3.11665 h 5.36911 l 1.04946,3.11665 h 2.23734 l -5.09955,-13.95802 z m -81.38307,0.0102 v 13.95092 h 2.11807 v -9.96187 l 6.34222,9.96187 h 1.9893 v -13.95092 h -2.11808 v 9.96187 l -6.33987,-9.96187 z m -19.8902,2.85378 2.05602,6.11378 h -4.10967 z m 81.04676,0 2.04889,6.11378 h -4.10258 z m 21.10426,0 2.0489,6.11378 h -4.10258 z" />
      <path
         id="path2089"
         style="fill:#ffffff;fill-opacity:1;fill-rule:evenodd;stroke:none;stroke-width:0.352778"
         d="m 259.98025,-476.2943 -5.0948,13.95804 h 2.23729 l 1.04471,-3.11667 h 5.36675 l 1.05662,3.11667 h 2.23254 l -5.10195,-13.95804 z m -23.2605,0.0504 v 13.95085 h 2.11807 v -13.95085 z m -31.7327,0.0142 -5.09481,13.95802 h 2.23729 l 1.04475,-3.11665 h 5.36671 l 1.05662,3.11665 h 2.23258 l -5.10199,-13.95802 z m 9.12577,0.0102 v 13.95804 h 8.94927 v -1.99572 h -6.836 v -11.96232 z m 11.29628,0 v 13.95804 h 8.95644 v -1.99572 h -6.83836 v -11.96232 z m -35.73267,0.0573 v 1.86664 h 3.85449 v 12.0914 h 2.11806 v -12.0914 h 3.85443 v -1.86664 z m 52.46249,0.0101 v 13.95027 h 2.11088 v -9.96183 l 6.34708,9.96183 h 1.98445 v -13.95087 h -2.11088 v 9.96182 l -6.34227,-9.96182 z m 18.71905,2.72709 2.04652,6.10668 h -4.10256 z m -54.99317,0.0648 2.04648,6.11139 h -4.10252 z m 30.85495,16.58951 v 13.95087 h 2.11807 v -13.95146 z m -31.7327,0.0142 -5.09481,13.96525 h 2.23729 l 1.04475,-3.11671 h 5.36671 l 1.05662,3.11671 h 2.23258 l -5.10199,-13.96525 z m 9.12577,0.0102 v 13.9652 h 8.94927 v -1.99568 h -6.836 v -11.96952 z m 11.29628,0 v 13.9652 h 8.95644 v -1.99568 h -6.83836 v -11.96952 z m -35.73267,0.0573 v 1.87381 h 3.85449 v 12.09139 h 2.11806 v -12.09139 h 3.85443 v -1.87488 z m 52.46249,0.0102 v 13.95087 h 2.11088 v -9.96187 l 6.34708,9.96187 h 1.98445 v -13.95087 h -2.11088 v 9.96183 l -6.34227,-9.96183 z m 13.07567,0 v 13.95087 h 2.11809 v -9.96187 l 6.34222,9.96187 h 1.99164 v -13.95087 h -2.11807 v 9.96183 l -6.34222,-9.96183 z m -49.34979,2.79638 2.04648,6.10662 h -4.10252 z" />
      <path
         id="path2117"
         style="fill:#ffffff;fill-opacity:1;fill-rule:evenodd;stroke:none;stroke-width:0.352778"
         d="m 194.65432,-548.62759 c -0.24463,0.0102 -0.48973,0.0278 -0.73463,0.0573 -1.80002,0.21042 -3.22639,1.63005 -3.46806,3.42737 -0.29263,2.17974 1.24742,4.19382 3.42274,4.47425 l 2.25164,0.3057 c 0.75693,0.0957 1.38022,0.65728 1.5647,1.40299 0.25432,1.00062 -0.35632,2.01963 -1.35482,2.26819 -1.86363,0.4588 -3.82822,0 -5.29751,-1.24286 l -1.36195,1.6205 c 1.97813,1.68926 4.64315,2.30642 7.17465,1.67543 1.58377,-0.39499 2.76684,-1.72724 2.97678,-3.34611 0.28616,-2.17972 -1.24748,-4.1882 -3.42278,-4.48138 l -2.26356,-0.29878 c -0.82685,-0.10828 -1.49552,-0.77762 -1.59093,-1.62529 -0.1273,-1.02612 0.59948,-1.95591 1.61714,-2.07699 1.45023,-0.17857 2.91948,0.18304 4.12164,1.0182 l 1.20694,-1.75192 c -1.43594,-0.98155 -3.12853,-1.47986 -4.84199,-1.4269 z m 49.54064,0 c -0.24417,0.0102 -0.49055,0.0278 -0.73461,0.0573 -1.80643,0.21042 -3.23041,1.63005 -3.46571,3.42737 -0.2991,2.17974 1.24746,4.19382 3.42272,4.47425 l 2.2445,0.3057 c 0.75693,0.0957 1.38022,0.65728 1.56472,1.40299 0.25432,1.00062 -0.35635,2.01963 -1.35478,2.26819 -1.86367,0.4588 -3.82828,0 -5.29758,-1.24286 l -1.36192,1.6205 c 1.97811,1.68926 4.64319,2.30642 7.17469,1.67543 1.58377,-0.39499 2.76764,-1.72724 2.98387,-3.34611 0.27972,-2.17972 -1.25463,-4.1882 -3.42993,-4.48138 l -2.26356,-0.29878 c -0.82686,-0.10828 -1.49551,-0.77756 -1.59091,-1.62525 -0.12101,-1.02612 0.60583,-1.95595 1.61712,-2.07699 1.4566,-0.17857 2.91792,0.18304 4.12643,1.01816 l 1.20217,-1.75192 c -1.43035,-0.98155 -3.12688,-1.47986 -4.83722,-1.4269 z m 40.57468,0 c -0.24464,0.0102 -0.48982,0.0278 -0.73468,0.0573 -1.80637,0.21042 -3.22397,1.63005 -3.4657,3.42737 -0.29263,2.17974 1.24508,4.19382 3.42043,4.47425 l 2.24685,0.3057 c 0.76324,0.0957 1.38501,0.65728 1.56947,1.40299 0.25432,1.00062 -0.35635,2.01963 -1.35481,2.26819 -1.87002,0.4588 -3.82825,0 -5.29755,-1.24286 l -1.36195,1.6205 c 1.97814,1.68926 4.64322,2.30642 7.1747,1.67543 1.57741,-0.39499 2.76686,-1.72724 2.97674,-3.34611 0.28615,-2.17972 -1.24508,-4.1882 -3.42039,-4.48138 l -2.26595,-0.29878 c -0.83321,-0.10828 -1.49311,-0.77762 -1.58852,-1.62529 -0.1273,-1.02612 0.59708,-1.95591 1.61477,-2.07699 1.45021,-0.17857 2.9195,0.18304 4.12164,1.0182 l 1.20214,-1.75192 c -1.43033,-0.98155 -3.12381,-1.47986 -4.83719,-1.4269 z m -69.26866,0.26777 v 13.96286 h 8.95406 v -1.99332 h -6.84314 v -11.96954 z m 54.00573,0 v 13.96286 h 8.94928 v -1.99332 h -6.83596 v -11.96954 z m -63.16013,0.004 -5.09476,13.95804 h 2.23255 l 1.04469,-3.11667 h 5.37388 l 1.04946,3.11667 h 2.23974 l -5.10912,-13.95804 z m 24.61053,0 -5.0948,13.95804 h 2.23731 l 1.04475,-3.11667 h 5.3667 l 1.05661,3.11667 h 2.2397 l -5.10907,-13.95804 z m 33.11135,0.0102 v 13.95088 h 2.11327 v -13.95088 z m -12.22417,0.0102 v 13.94374 h 2.11092 v -5.48044 h 3.35359 c 2.33432,0 4.22895,-1.89297 4.22895,-4.22566 0,-2.33909 -1.89463,-4.23764 -4.22895,-4.23764 z m 2.11092,1.99337 h 3.23193 c 1.234,0 2.23969,1.00141 2.23969,2.24427 0,1.22371 -1.00569,2.23711 -2.23969,2.23711 h -3.23193 z m -46.73563,0.85563 2.05365,6.10422 h -4.10969 z m 24.61529,0 2.05364,6.10422 h -4.10968 z" />
      <path
         id="path2135"
         style="fill:#ffffff;fill-opacity:1;fill-rule:evenodd;stroke:none;stroke-width:0.352778"
         d="m 360.23499,-524.76505 c -0.24417,0.0102 -0.48814,0.0278 -0.73222,0.0573 -1.80637,0.21044 -3.23114,1.63003 -3.47285,3.42737 -0.28618,2.17976 1.24585,4.19378 3.42753,4.47421 l 2.24685,0.30572 c 0.76325,0.0957 1.38026,0.65009 1.5647,1.3958 0.25432,1.00064 -0.35632,2.02199 -1.35478,2.27054 -1.86367,0.46528 -3.83062,-10e-4 -5.29993,-1.23804 l -1.35957,1.6205 c 1.98449,1.68274 4.64319,2.30638 7.1747,1.67543 1.58376,-0.40145 2.76523,-1.72803 2.98146,-3.35328 0.27972,-2.17976 -1.24506,-4.18107 -3.42036,-4.47421 l -2.27073,-0.29878 c -0.82683,-0.10828 -1.4955,-0.78394 -1.59091,-1.62525 -0.12101,-1.02612 0.60427,-1.95674 1.62193,-2.08416 1.45019,-0.17857 2.91951,0.19198 4.12165,1.02058 l 1.20214,-1.74713 c -1.43035,-0.98153 -3.12924,-1.47988 -4.83961,-1.42688 z m 42.39459,0 c -0.24464,0.0102 -0.48978,0.0278 -0.73464,0.0573 -1.80637,0.21044 -3.23034,1.63003 -3.4657,3.42737 -0.29263,2.17976 1.24748,4.19378 3.42278,4.47421 l 2.2516,0.30572 c 0.75693,0.0957 1.38026,0.65009 1.5647,1.3958 0.25434,1.00064 -0.35632,2.02199 -1.35478,2.27054 -1.86998,0.46528 -3.83062,-10e-4 -5.29991,-1.23804 l -1.35959,1.6205 c 1.97813,1.68274 4.64321,2.30638 7.1747,1.67543 1.58378,-0.40145 2.76686,-1.72803 2.97673,-3.35328 0.28616,-2.17976 -1.24748,-4.18107 -3.42274,-4.47421 l -2.26356,-0.29878 c -0.83327,-0.10828 -1.4955,-0.78394 -1.59097,-1.62525 -0.1273,-1.02612 0.59714,-1.95674 1.61483,-2.08416 1.45021,-0.17857 2.91946,0.19198 4.1216,1.02058 l 1.20214,-1.74713 c -1.43029,-0.98153 -3.12377,-1.47988 -4.83719,-1.42688 z m -34.6665,0.26779 v 13.95803 h 2.11806 v -4.24 l 2.49254,-2.6195 3.84733,6.8595 h 2.49489 l -4.98029,-8.47041 4.47699,-5.48762 h -2.48772 l -5.84374,7.2204 v -7.2204 z m 16.98262,0 -5.09481,13.9628 h 2.23735 l 1.04469,-3.12142 h 5.36671 l 1.04952,3.12142 h 2.23968 l -5.10195,-13.9628 z m 23.73753,0 v 1.87381 h 3.85928 v 12.08899 h 2.11327 v -12.08899 h 3.85447 v -1.87381 z m 11.62548,0 v 13.95803 h 2.11327 v -4.24 l 2.49254,-2.6195 3.84733,6.8595 h 2.49969 l -4.98509,-8.47041 4.47703,-5.48762 h -2.48058 l -5.85092,7.2204 v -7.2204 z m 17.00172,0 -5.0948,13.9628 h 2.2397 l 1.04236,-3.12142 h 5.36906 l 1.0495,3.12142 h 2.23968 l -5.10195,-13.9628 z m 8.69644,0 v 13.9628 h 8.94927 v -1.99332 h -6.83835 v -11.96948 z m 24.15015,0 v 13.9628 h 8.9493 v -1.99332 h -6.83842 v -4.11092 h 5.8533 v -1.87385 h -5.8533 v -3.99138 h 6.83842 v -1.99333 z m -13.46447,0.004 v 13.95806 h 2.11092 v -9.96662 l 6.34226,9.96662 h 1.98926 v -13.95816 h -2.11092 v 9.96899 l -6.34222,-9.96899 z m -63.06469,0.0102 v 13.95086 h 2.11803 v -13.95086 z m -7.81157,2.85613 2.0537,6.10426 h -4.10258 z m 52.3719,0 2.04889,6.10426 h -4.10258 z" />
      <path
         style="fill:#ffffff;fill-opacity:1;fill-rule:evenodd;stroke:#ffffff;stroke-width:0.176389;stroke-linecap:butt;stroke-linejoin:miter;stroke-miterlimit:22.926;stroke-opacity:1"
         d="m 225.7279,-523.3255 v 12.12883 c 0,2.05865 -1.67917,3.74764 -3.73358,3.74764 h -29.84367 c -2.05443,0 -3.74002,-1.68899 -3.74002,-3.74764 v -12.12883 c 0,-2.05866 1.68559,-3.74766 3.74002,-3.74766 h 29.84367 c 2.05441,0 3.73358,1.689 3.73358,3.74766 z m 0,0"
         id="path2157" />
      <path
         style="fill:#eb1923;fill-opacity:1;fill-rule:evenodd;stroke:none;stroke-width:0.352778"
         d="m 224.16962,-523.14701 v 11.77193 c 0,1.44683 -1.22762,2.63228 -2.72232,2.63228 h -29.04856 c -1.49473,0 -2.72231,-1.18545 -2.72231,-2.63228 v -11.77193 c 0,-1.44676 1.22758,-2.63228 2.72231,-2.63228 h 29.04856 c 1.50107,0 2.72232,1.18552 2.72232,2.63228"
         id="path2159" />
      <path
         style="fill:#ffffff;fill-opacity:1;fill-rule:evenodd;stroke:none;stroke-width:0.352778"
         d="m 195.99881,-511.47066 4.05166,-11.10271 h 1.38657 l 4.05168,11.10271 h -1.77459 l -0.83325,-2.47933 h -4.26791 l -0.83958,2.47933 z m 3.11029,-3.96435 h 3.26931 l -1.63468,-4.85666 -1.63463,4.85666"
         id="path2161" />
      <path
         style="fill:#ffffff;fill-opacity:1;fill-rule:evenodd;stroke:none;stroke-width:0.352778"
         d="m 211.18138,-516.71612 v -5.93374 h 5.91532 v 1.57425 h -4.43334 v 2.50484 c 1.24031,-0.98153 3.04039,-0.77123 4.01355,0.46523 0.40062,0.50991 0.61696,1.14088 0.61696,1.78459 v 1.68264 c 0,1.75274 -1.41206,3.16765 -3.15484,3.16765 -1.62831,0 -2.98947,-1.24287 -3.14209,-2.86812 h 1.5965 c 0.16526,0.86045 0.99222,1.42129 1.84456,1.25562 0.74417,-0.14017 1.27844,-0.79672 1.27844,-1.55515 v -1.38307 c 0,-0.87955 -0.70601,-1.58062 -1.57741,-1.58062 -0.60423,0 -1.15128,0.34409 -1.41839,0.88588 h -1.53926"
         id="path2163" />
      <path
         style="fill:#ffffff;fill-opacity:1;fill-rule:evenodd;stroke:#ffffff;stroke-width:0.176389;stroke-linecap:butt;stroke-linejoin:miter;stroke-miterlimit:22.926;stroke-opacity:1"
         d="m 345.69401,-565.68402 v 12.12886 c 0,2.05862 -1.67917,3.7476 -3.73365,3.7476 h -29.84362 c -2.05446,0 -3.74,-1.68898 -3.74,-3.7476 v -12.12886 c 0,-2.05866 1.68554,-3.74128 3.74,-3.74128 h 29.84362 c 2.05448,0 3.73365,1.68262 3.73365,3.74128 z m 0,0"
         id="path2165" />
      <path
         style="fill:#2e2e91;fill-opacity:1;fill-rule:evenodd;stroke:none;stroke-width:0.352778"
         d="m 344.13566,-565.49915 v 11.76554 c 0,1.44679 -1.22758,2.63228 -2.72229,2.63228 h -29.04858 c -1.49474,0 -2.72232,-1.18549 -2.72232,-2.63228 v -11.76554 c 0,-1.44683 1.22758,-2.63866 2.72232,-2.63866 h 29.04858 c 1.49471,0 2.72229,1.18549 2.72229,2.63866"
         id="path2167" />
      <path
         style="fill:#ffffff;fill-opacity:1;fill-rule:evenodd;stroke:none;stroke-width:0.352778"
         d="m 313.87863,-553.86106 v -11.18557 h 4.38875 c 1.87633,0 3.39019,1.51689 3.39019,3.39712 0,1.87381 -1.51386,3.39068 -3.39019,3.39068 h -2.69052 v 4.39777 z m 1.69823,-5.99753 h 2.58874 c 0.9986,0 1.80005,-0.80944 1.80005,-1.79092 0,-0.99431 -0.80145,-1.79737 -1.80005,-1.79737 h -2.58874 v 3.58829"
         id="path2169" />
      <path
         style="fill:#ffffff;fill-opacity:1;fill-rule:evenodd;stroke:none;stroke-width:0.352778"
         d="m 334.42952,-559.1129 v -5.93373 h 5.91526 v 1.58066 h -4.43328 v 2.50476 c 1.23396,-0.98787 3.03398,-0.77757 4.01349,0.46527 0.39419,0.5035 0.61698,1.14088 0.61698,1.77821 v 1.68261 c 0,1.75277 -1.41202,3.16768 -3.1548,3.16768 -1.62831,0 -2.99582,-1.23648 -3.14214,-2.86174 h 1.59651 c 0.15918,0.85407 0.99226,1.42135 1.83822,1.24924 0.74418,-0.14017 1.27845,-0.79672 1.27845,-1.55518 v -1.37666 c 0,-0.88593 -0.69964,-1.587 -1.57104,-1.587 -0.60427,0 -1.15128,0.34412 -1.41843,0.88588 h -1.53922"
         id="path2171" />
      <path
         style="fill:#ffffff;fill-opacity:1;fill-rule:evenodd;stroke:none;stroke-width:0.352778"
         d="m 327.74458,-559.67372 c -0.69332,-0.5545 -1.09399,-1.3831 -1.09399,-2.25626 0,-1.75271 1.41838,-3.16763 3.16753,-3.16763 1.73641,0 3.15484,1.41492 3.15484,3.16763 0,0.87316 -0.40065,1.70176 -1.08767,2.25626 0.80777,0.56722 1.28485,1.50411 1.28485,2.49204 0,1.86107 -1.5011,3.36525 -3.35202,3.36525 -1.85729,0 -3.3584,-1.50418 -3.3584,-3.36525 0,-0.98793 0.47709,-1.92482 1.28486,-2.49204 z m 2.07354,0.70744 c 0.97954,0 1.77458,0.80305 1.77458,1.7846 0,0.98153 -0.79504,1.78459 -1.77458,1.78459 -0.98591,0 -1.78095,-0.80306 -1.78095,-1.78459 0,-0.98155 0.79504,-1.7846 1.78095,-1.7846 z m 0,-4.54432 c 0.86503,0 1.57739,0.70107 1.57739,1.58062 0,0.87316 -0.71236,1.587 -1.57739,1.587 -0.8714,0 -1.58376,-0.71384 -1.58376,-1.587 0,-0.87955 0.71236,-1.58062 1.58376,-1.58062"
         id="path2173" />
      <path
         style="fill:#ffffff;fill-opacity:1;fill-rule:evenodd;stroke:none;stroke-width:0.0762001;stroke-linecap:butt;stroke-linejoin:miter;stroke-miterlimit:22.926;stroke-opacity:1"
         d="m 321.85474,-442.45165 v -2.88725 c 0,-1.01974 0.82685,-1.84832 1.84456,-1.84832 1.01764,0 1.84454,0.82858 1.84454,1.84832 v 2.88725 c 0,1.01974 -0.8269,1.84193 -1.84454,1.84193 -1.01771,0 -1.84456,-0.82219 -1.84456,-1.84193 z m 0.92226,0 c 0,0.50349 0.41356,0.9178 0.9223,0.9178 0.50882,0 0.92224,-0.41441 0.92224,-0.9178 v -2.88725 c 0,-0.50987 -0.41356,-0.92414 -0.92224,-0.92414 -0.50888,0 -0.9223,0.41441 -0.9223,0.92414 z m 0,0"
         id="path2175" />
      <path
         style="fill:#ffffff;fill-opacity:1;fill-rule:evenodd;stroke:none;stroke-width:0.0762001;stroke-linecap:butt;stroke-linejoin:miter;stroke-miterlimit:22.926;stroke-opacity:1"
         d="m 326.80959,-442.45165 v -2.88725 c 0,-1.01974 0.82685,-1.84832 1.84456,-1.84832 1.01765,0 1.83819,0.82858 1.83819,1.84832 v 2.88725 c 0,1.01974 -0.82054,1.84193 -1.83819,1.84193 -1.01771,0 -1.84456,-0.82219 -1.84456,-1.84193 z m 0.92226,0 c 0,0.50349 0.41356,0.9178 0.9223,0.9178 0.50882,0 0.9223,-0.41441 0.9223,-0.9178 v -2.88725 c 0,-0.50987 -0.41358,-0.92414 -0.9223,-0.92414 -0.50884,0 -0.9223,0.41441 -0.9223,0.92414 z m 0,0"
         id="path2177" />
      <path
         style="fill:#ffffff;fill-opacity:1;fill-rule:evenodd;stroke:none;stroke-width:0.0762001;stroke-linecap:butt;stroke-linejoin:miter;stroke-miterlimit:22.926;stroke-opacity:1"
         d="m 331.75807,-440.66707 v -4.61444 h 0.9223 v 0.52258 c 0.54063,-0.6692 1.52017,-0.77752 2.18801,-0.23588 0.10801,0.0829 0.19714,0.18508 0.2797,0.29323 0.59787,-0.73935 1.69188,-0.85407 2.42972,-0.24835 0.40065,0.33116 0.62967,0.82216 0.62967,1.34478 v 2.93823 h -0.91589 v -2.82349 c 0,-0.50991 -0.41355,-0.92417 -0.9223,-0.92417 -0.50882,0 -0.9223,0.41441 -0.9223,0.92417 v 2.82349 h -0.92224 v -2.82349 c 0,-0.50991 -0.41355,-0.92417 -0.9223,-0.92417 -0.50882,0 -0.92226,0.41441 -0.92226,0.92417 v 2.82349 z m 0,0"
         id="path2179" />
      <path
         style="fill:#ffffff;fill-opacity:1;fill-rule:evenodd;stroke:none;stroke-width:0.0762001;stroke-linecap:butt;stroke-linejoin:miter;stroke-miterlimit:22.926;stroke-opacity:1"
         d="m 316.98256,-442.33057 h 0.92862 c 0.1273,0.51625 0.64877,0.84131 1.17672,0.71383 0.43248,-0.10178 0.7378,-0.49715 0.7378,-0.94965 v -0.10828 c 0,-0.54173 -0.43248,-0.98149 -0.97316,-0.98149 h -0.39417 v -0.8031 h 0.39417 c 0.5152,0 0.9223,-0.40793 0.9223,-0.91775 0,-0.50354 -0.4071,-0.9178 -0.9223,-0.9178 -0.43894,0 -0.81414,0.3122 -0.89682,0.74571 h -0.92867 c 0.10151,-1.01341 0.99228,-1.74636 2.00361,-1.65713 0.94137,0.0892 1.66007,0.88594 1.66007,1.82922 0,0.52262 -0.25432,1.01336 -0.68053,1.31292 0.46428,0.31219 0.7378,0.82858 0.7378,1.38942 v 0.10828 c 0,1.05163 -0.84596,1.89932 -1.89546,1.89932 -0.95405,0 -1.75551,-0.71383 -1.86998,-1.6635 z m 0,0"
         id="path2181" />
      <path
         style="fill:#ffffff;fill-opacity:1;fill-rule:evenodd;stroke:#ffffff;stroke-width:0.176389;stroke-linecap:butt;stroke-linejoin:miter;stroke-miterlimit:22.926;stroke-opacity:1"
         d="m 418.17235,-500.86517 v 12.12884 c 0,2.05868 -1.68555,3.74767 -3.74002,3.74767 h -29.84361 c -2.05447,0 -3.73364,-1.68899 -3.73364,-3.74767 v -12.12884 c 0,-2.05864 1.67917,-3.74762 3.73364,-3.74762 h 29.84361 c 2.05447,0 3.74002,1.68898 3.74002,3.74762 z m 0,0"
         id="path2183" />
      <path
         style="fill:#2e2e91;fill-opacity:1;fill-rule:evenodd;stroke:none;stroke-width:0.352778"
         d="m 416.60765,-500.68664 v 11.77193 c 0,1.44678 -1.22121,2.63227 -2.72232,2.63227 h -29.0422 c -1.50109,0 -2.72867,-1.18549 -2.72867,-2.63227 v -11.77193 c 0,-1.44679 1.22758,-2.63228 2.72867,-2.63228 h 29.0422 c 1.50111,0 2.72232,1.18549 2.72232,2.63228"
         id="path2185" />
      <path
         style="fill:#ffffff;fill-opacity:1;fill-rule:evenodd;stroke:none;stroke-width:0.352778"
         d="m 386.35692,-489.04217 v -11.19195 h 4.38242 c 1.87636,0 3.39651,1.52325 3.39651,3.40344 0,1.86747 -1.52015,3.39074 -3.39651,3.39074 h -2.6905 v 4.39777 z m 1.69192,-5.99753 h 2.5951 c 0.99222,0 1.79364,-0.80943 1.79364,-1.79098 0,-1.00062 -0.80142,-1.80368 -1.79364,-1.80368 h -2.5951 v 3.59466"
         id="path2187" />
      <path
         style="fill:#ffffff;fill-opacity:1;fill-rule:evenodd;stroke:none;stroke-width:0.352778"
         d="m 402.04837,-489.04855 h -1.77457 l 2.35974,-4.74193 c -1.31024,0.53537 -2.81135,-0.0829 -3.35203,-1.40217 -0.12689,-0.30572 -0.19714,-0.64373 -0.19714,-0.97515 v -0.89232 c 0,-1.74633 1.41839,-3.174 3.16117,-3.174 1.74913,0 3.16121,1.42767 3.16121,3.174 v 0.49077 c 0,0.49076 -0.11451,0.96881 -0.33094,1.40856 z m 1.77458,-7.5208 c 0,0.87955 -0.69964,1.58067 -1.57739,1.58067 -0.8714,0 -1.57741,-0.70112 -1.57741,-1.58067 v -0.49077 c 0,-0.87317 0.70601,-1.587 1.57741,-1.587 0.87775,0 1.57739,0.71383 1.57739,1.587 v 0.49077"
         id="path2189" />
      <path
         style="fill:#ffffff;fill-opacity:1;fill-rule:evenodd;stroke:none;stroke-width:0.352778"
         d="m 406.84421,-492.16522 v -4.94587 c 0,-1.74633 1.41206,-3.16762 3.15484,-3.16762 1.74278,0 3.16121,1.42129 3.16121,3.16762 v 4.94587 c 0,1.75273 -1.41843,3.16764 -3.16121,3.16764 -1.74278,0 -3.15484,-1.41491 -3.15484,-3.16764 z m 1.58382,-4.94587 c 0,-0.87317 0.70601,-1.587 1.57102,-1.587 0.8714,0 1.58376,0.71383 1.58376,1.587 v 4.94587 c 0,0.87319 -0.71236,1.58702 -1.58376,1.58702 -0.86501,0 -1.57102,-0.71383 -1.57102,-1.58702 v -4.94587"
         id="path2191" />
      <path
         style="fill:#ffffff;fill-opacity:1;fill-rule:evenodd;stroke:#ffffff;stroke-width:0.176389;stroke-linecap:butt;stroke-linejoin:miter;stroke-miterlimit:22.926;stroke-opacity:1"
         d="m 225.7279,-499.73065 v 12.12882 c 0,2.05866 -1.67917,3.74765 -3.73358,3.74765 h -29.84367 c -2.05443,0 -3.74002,-1.68899 -3.74002,-3.74765 v -12.12882 c 0,-2.05866 1.68559,-3.74764 3.74002,-3.74764 h 29.84367 c 2.05441,0 3.73358,1.68898 3.73358,3.74764 z m 0,0"
         id="path2193" />
      <path
         style="fill:#00a64f;fill-opacity:1;fill-rule:evenodd;stroke:none;stroke-width:0.352778"
         d="m 224.69751,-499.55216 v 11.77195 c 0,1.44676 -1.22121,2.63225 -2.7223,2.63225 h -29.80545 c -1.50111,0 -2.72232,-1.18549 -2.72232,-2.63225 v -11.77195 c 0,-1.44677 1.22121,-2.63228 2.72232,-2.63228 h 29.51286 c 1.50109,0 3.01489,1.18551 3.01489,2.63228"
         id="path2195" />
      <path
         style="fill:#ffffff;fill-opacity:1;fill-rule:evenodd;stroke:none;stroke-width:0.352778"
         d="m 193.13654,-487.93323 v -11.10268 h 7.1238 v 1.587 h -5.44463 v 3.17406 h 4.64957 v 1.48502 h -4.64957 v 3.2696 h 5.44463 v 1.587 h -7.1238"
         id="path2197" />
      <path
         style="fill:#ffffff;fill-opacity:1;fill-rule:evenodd;stroke:none;stroke-width:0.352778"
         d="m 210.40538,-499.12514 h 1.7746 l -2.35976,4.74193 c 1.31661,-0.54175 2.81135,0.0829 3.35202,1.40217 0.12731,0.30573 0.19715,0.63735 0.19715,0.97515 v 0.89866 c 0,1.74633 -1.41843,3.16767 -3.16121,3.16767 -1.74914,0 -3.16115,-1.42134 -3.16115,-3.16767 v -0.50349 c 0,-0.48441 0.11451,-0.96243 0.33092,-1.40857 z m -1.78093,7.51442 c 0,-0.87321 0.71237,-1.58066 1.58377,-1.58066 0.87138,0 1.57743,0.70745 1.57743,1.58066 v 0.50349 c 0,0.87317 -0.70605,1.58062 -1.57743,1.58062 -0.8714,0 -1.58377,-0.70745 -1.58377,-1.58062 v -0.50349"
         id="path2199" />
      <path
         style="fill:#ffffff;fill-opacity:1;fill-rule:evenodd;stroke:none;stroke-width:0.352778"
         d="m 215.77371,-487.99058 3.74634,-9.5029 h -2.95767 v 1.587 h -1.57739 v -3.16769 h 6.31601 v 1.48508 l -3.75271,9.59851 h -1.77458"
         id="path2201" />
      <path
         style="fill:#ffffff;fill-opacity:1;fill-rule:evenodd;stroke:#ffffff;stroke-width:0.176389;stroke-linecap:butt;stroke-linejoin:miter;stroke-miterlimit:22.926;stroke-opacity:1"
         d="m 272.00082,-499.73065 v 12.12882 c 0,2.05866 -1.67917,3.74765 -3.73996,3.74765 h -29.83729 c -2.05448,0 -3.74002,-1.68899 -3.74002,-3.74765 v -12.12882 c 0,-2.05866 1.68554,-3.74764 3.74002,-3.74764 h 29.83729 c 2.06079,0 3.73996,1.68898 3.73996,3.74764 z m 0,0"
         id="path2203" />
      <path
         style="fill:#00a64f;fill-opacity:1;fill-rule:evenodd;stroke:none;stroke-width:0.352778"
         d="m 270.97042,-499.55216 v 11.77195 c 0,1.44676 -1.22758,2.63225 -2.72229,2.63225 H 238.4363 c -1.49473,0 -2.72235,-1.18549 -2.72235,-2.63225 v -11.77195 c 0,-1.44677 1.22762,-2.63228 2.72235,-2.63228 h 29.51924 c 1.50108,0 3.01488,1.18551 3.01488,2.63228"
         id="path2205" />
      <path
         style="fill:#ffffff;fill-opacity:1;fill-rule:evenodd;stroke:none;stroke-width:0.352778"
         d="m 239.40946,-487.93323 v -11.10268 h 7.11742 v 1.587 h -5.43825 v 3.17406 h 4.64953 v 1.48502 h -4.64953 v 3.2696 h 5.43825 v 1.587 h -7.11742"
         id="path2207" />
      <path
         style="fill:#ffffff;fill-opacity:1;fill-rule:evenodd;stroke:none;stroke-width:0.352778"
         d="m 262.04021,-487.99058 3.75275,-9.5029 h -2.95765 v 1.587 h -1.58378 v -3.16769 h 6.31601 v 1.48508 l -3.74634,9.59851 h -1.78099"
         id="path2209" />
      <path
         style="fill:#ffffff;fill-opacity:1;fill-rule:evenodd;stroke:none;stroke-width:0.352778"
         d="m 254.29308,-487.99058 3.74638,-9.5029 h -2.95765 v 1.587 h -1.57741 v -3.16769 h 6.31601 v 1.48508 l -3.75271,9.59851 h -1.77462"
         id="path2211" />
    </g>
  </g>
</svg>
