<?xml version="1.0" encoding="UTF-8" standalone="no"?>
<svg
   xmlns:dc="http://purl.org/dc/elements/1.1/"
   xmlns:cc="http://creativecommons.org/ns#"
   xmlns:rdf="http://www.w3.org/1999/02/22-rdf-syntax-ns#"
   xmlns:svg="http://www.w3.org/2000/svg"
   xmlns="http://www.w3.org/2000/svg"
   xmlns:xlink="http://www.w3.org/1999/xlink"
   xmlns:sodipodi="http://sodipodi.sourceforge.net/DTD/sodipodi-0.dtd"
   xmlns:inkscape="http://www.inkscape.org/namespaces/inkscape"
   sodipodi:docname="Latvia_road_sign_747.svg"
   inkscape:version="1.0 (4035a4fb49, 2020-05-01)"
   id="svg3845"
   version="1.1"
   viewBox="0 0 601.6305 195"
   height="195mm"
   width="601.63049mm">
  <defs
     id="defs3839" />
  <sodipodi:namedview
     showguides="false"
     inkscape:document-rotation="0"
     inkscape:window-maximized="1"
     inkscape:window-y="-9"
     inkscape:window-x="-9"
     inkscape:window-height="1001"
     inkscape:window-width="1920"
     showgrid="false"
     inkscape:current-layer="layer1"
     inkscape:document-units="mm"
     inkscape:cy="1399.7353"
     inkscape:cx="796.17023"
     inkscape:zoom="0.14630204"
     inkscape:pageshadow="2"
     inkscape:pageopacity="0.0"
     borderopacity="1.0"
     bordercolor="#666666"
     pagecolor="#ffffff"
     id="base" />
  <metadata
     id="metadata3842">
    <rdf:RDF>
      <cc:Work
         rdf:about="">
        <dc:format>image/svg+xml</dc:format>
        <dc:type
           rdf:resource="http://purl.org/dc/dcmitype/StillImage" />
        <dc:title></dc:title>
      </cc:Work>
    </rdf:RDF>
  </metadata>
  <g
     transform="translate(-362.39593,90.720737)"
     id="layer1"
     inkscape:groupmode="layer"
     inkscape:label="Layer 1">
    <path
       sodipodi:nodetypes="sssssssss"
       d="m 396.62077,-89.746637 h 533.18074 c 18.28839,0 33.25084,12.31035 33.25084,27.35074 V 75.954426 c 0,15.04028 -14.96642,27.350744 -33.25084,27.350744 H 396.62077 c -18.28829,0 -33.25074,-12.310464 -33.25074,-27.350744 V -62.395897 c 0,-15.044254 14.96245,-27.35074 33.25074,-27.35074 z"
       style="fill:#ffffff;fill-opacity:1;stroke:#000000;stroke-width:1.9482;stroke-linecap:butt;stroke-linejoin:miter;stroke-miterlimit:22.926;stroke-dasharray:none;stroke-opacity:1"
       id="path457"
       inkscape:connector-curvature="0" />
    <path
       d="m 395.89878,-80.096227 h 533.62523 c 12.91012,0 23.47194,8.688548 23.47194,19.308658 V 74.345988 c 0,10.616245 -10.56569,19.304794 -23.47194,19.304794 H 395.89878 c -12.90626,0 -23.47183,-8.688549 -23.47183,-19.304794 V -60.787569 c 0,-10.62011 10.56171,-19.308658 23.47183,-19.308658"
       style="fill:#283996;fill-opacity:1;fill-rule:evenodd;stroke:none;stroke-width:3.89444"
       id="path455"
       inkscape:connector-curvature="0" />
    <path
       d="M 520.94178,-5.6420862 537.10764,-49.79742 h 5.52234 l 16.16199,44.1553338 h -7.09578 l -3.32187,-9.8568468 h -17.01103 l -3.32197,9.8568468 z m 12.41545,-15.7686578 h 13.02305 l -6.51147,-19.32036 -6.51158,19.32036"
       style="fill:#ffffff;fill-opacity:1;fill-rule:evenodd;stroke:none;stroke-width:3.89444"
       id="path459"
       inkscape:connector-curvature="0" />
    <path
       d="m 628.32729,63.394807 16.162,-44.159197 h 5.52234 l 16.16585,44.159197 h -7.09965 l -3.32186,-9.856846 h -17.01103 l -3.32197,9.856846 z m 12.4117,-15.772522 h 13.02294 l -6.51147,-19.316495 -6.51147,19.316495"
       style="fill:#ffffff;fill-opacity:1;fill-rule:evenodd;stroke:none;stroke-width:3.89444"
       id="path461"
       inkscape:connector-curvature="0" />
    <path
       d="m 565.10098,-5.6420862 h 6.7019 V -49.801283 h -6.7019 z"
       style="fill:#ffffff;fill-opacity:1;fill-rule:nonzero;stroke:none;stroke-width:3.89444"
       id="path463"
       inkscape:connector-curvature="0" />
    <path
       d="m 579.68953,-5.6420862 v -5.5184788 l 20.10702,-32.725043 H 580.4762 v -5.911812 h 27.6 v 5.125145 l -20.10702,32.725044 h 20.10702 v 6.3051448 h -28.38667"
       style="fill:#ffffff;fill-opacity:1;fill-rule:evenodd;stroke:none;stroke-width:3.89444"
       id="path465"
       inkscape:connector-curvature="0" />
    <path
       d="M 616.74908,-5.6420862 V -49.79742 h 6.70234 v 22.864334 l 18.52983,-22.864334 h 7.88631 l -14.19532,17.345855 15.77252,26.8094788 h -7.88621 l -12.22082,-21.6843338 -7.88631,8.27965 v 13.4046838 h -6.70234"
       style="fill:#ffffff;fill-opacity:1;fill-rule:evenodd;stroke:none;stroke-width:3.89444"
       id="path467"
       inkscape:connector-curvature="0" />
    <path
       d="M 657.75377,-5.6420862 V -49.79742 h 18.13252 c 6.97115,0 12.61802,5.646977 12.61802,12.614154 0,5.409409 -3.4465,10.215185 -8.56778,11.952011 l 10.14509,19.5891688 h -7.88632 l -9.06621,-18.9231628 h -8.67298 v 18.9231628 z m 6.70234,-24.8388378 h 11.03685 c 3.7036,0 6.70234,-2.998739 6.70234,-6.702342 0,-3.69974 -2.99874,-6.702342 -6.70234,-6.702342 h -11.03685 v 13.404684"
       style="fill:#ffffff;fill-opacity:1;fill-rule:evenodd;stroke:none;stroke-width:3.89444"
       id="path469"
       inkscape:connector-curvature="0" />
    <path
       d="M 694.02279,-5.6420862 710.18864,-49.79742 h 5.52234 l 16.16199,44.1553338 h -7.09567 l -3.32197,-9.8568468 H 704.4443 l -3.32197,9.8568468 z m 12.41555,-15.7686578 h 13.02305 l -6.51158,-19.32036 -6.51147,19.32036"
       style="fill:#ffffff;fill-opacity:1;fill-rule:evenodd;stroke:none;stroke-width:3.89444"
       id="path471"
       inkscape:connector-curvature="0" />
    <path
       d="m 735.81801,-49.79742 h 6.70234 v 28.780009 c 0,5.008238 4.05808,9.07018 9.06632,9.07018 5.00824,0 9.0662,-4.061942 9.0662,-9.07018 V -49.79742 h 6.70246 v 28.780009 c 0,8.707978 -7.06069,15.7725218 -15.76866,15.7725218 -8.71184,0 -15.76866,-7.0645438 -15.76866,-15.7725218 V -49.79742"
       style="fill:#ffffff;fill-opacity:1;fill-rule:evenodd;stroke:none;stroke-width:3.89444"
       id="path473"
       inkscape:connector-curvature="0" />
    <path
       d="M 776.81884,-5.6420862 V -49.79742 h 6.70234 v 22.864334 L 802.0509,-49.79742 h 7.88631 l -14.19532,17.345855 15.77252,26.8094788 h -7.8862 l -12.22082,-21.6843338 -7.88621,8.27965 v 13.4046838 h -6.70234"
       style="fill:#ffffff;fill-opacity:1;fill-rule:evenodd;stroke:none;stroke-width:3.89444"
       id="path475"
       inkscape:connector-curvature="0" />
    <path
       d="M 817.81956,-5.6420862 V -49.79742 h 6.7062 v 37.850189 h 21.68047 v 6.3051448 h -28.38667"
       style="fill:#ffffff;fill-opacity:1;fill-rule:evenodd;stroke:none;stroke-width:3.89444"
       id="path477"
       inkscape:connector-curvature="0" />
    <path
       d="M 852.51524,-5.6420862 V -49.79742 h 28.38668 v 6.305145 h -21.68047 v 12.618018 h 18.52983 v 5.915675 h -18.52983 v 13.011351 h 21.68047 v 6.3051448 h -28.38668"
       style="fill:#ffffff;fill-opacity:1;fill-rule:evenodd;stroke:none;stroke-width:3.89444"
       id="path479"
       inkscape:connector-curvature="0" />
    <path
       d="m 887.21092,-11.324168 4.33451,-5.113333 c 4.64603,3.937307 10.90437,5.393733 16.81618,3.917767 3.16621,-0.794835 5.09391,-4.003433 4.29951,-7.173613 -0.5884,-2.352162 -2.55484,-4.108638 -4.95767,-4.427897 l -7.16578,-0.946076 c -6.90878,-0.915165 -11.76511,-7.259279 -10.84995,-14.164083 0.7551,-5.705375 5.27694,-10.176216 10.98629,-10.869379 6.23107,-0.755094 12.51667,0.794836 17.68465,4.35007 l -3.80097,5.518478 c -3.82051,-2.628809 -8.47041,-3.773814 -13.07372,-3.216877 -3.24404,0.393002 -5.55348,3.341401 -5.16003,6.585546 0.32345,2.675505 2.4184,4.794073 5.0939,5.148438 l 7.16191,0.950491 c 6.90867,0.915165 11.76898,7.255305 10.85382,14.164083 -0.68113,5.132873 -4.42801,9.3271768 -9.44795,10.5851147 -8.00311,1.997908 -16.48136,0.022079 -22.7747,-5.3081777"
       style="fill:#ffffff;fill-opacity:1;fill-rule:evenodd;stroke:none;stroke-width:3.89444"
       id="path481"
       inkscape:connector-curvature="0" />
    <path
       d="M 560.85987,48.019483 V 34.614799 c 0,-8.711842 7.06068,-15.772522 15.76866,-15.772522 8.71184,0 15.77252,7.06068 15.77252,15.772522 v 13.404684 c 0,8.707977 -7.06068,15.768658 -15.77252,15.768658 -8.70798,0 -15.76866,-7.060681 -15.76866,-15.768658 z m 6.70234,0 c 0,5.008237 4.06194,9.066316 9.06632,9.066316 5.00824,0 9.07018,-4.058079 9.07018,-9.066316 V 34.614799 c 0,-5.008238 -4.06194,-9.07018 -9.07018,-9.07018 -5.00438,0 -9.06632,4.061942 -9.06632,9.07018 v 13.404684"
       style="fill:#ffffff;fill-opacity:1;fill-rule:evenodd;stroke:none;stroke-width:3.89444"
       id="path483"
       inkscape:connector-curvature="0" />
    <path
       d="m 707.39248,57.763396 4.33053,-5.117307 c 4.65001,3.937307 10.90845,5.397707 16.81629,3.917878 3.17007,-0.79042 5.0939,-3.99968 4.30337,-7.16975 -0.5884,-2.356136 -2.55473,-4.108638 -4.96154,-4.428008 l -7.16191,-0.950491 c -6.90878,-0.915165 -11.76898,-7.255415 -10.85381,-14.160219 0.75951,-5.705375 5.27693,-10.176216 10.99015,-10.869489 6.2272,-0.755094 12.51678,0.79042 17.68465,4.35018 l -3.80097,5.518368 c -3.8204,-2.628699 -8.47041,-3.773704 -13.07759,-3.216767 -3.24017,0.393002 -5.55347,3.341401 -5.15616,6.585546 0.32345,2.675395 2.4184,4.793963 5.0939,5.148438 l 7.16191,0.950491 c 6.90878,0.915165 11.76512,7.255305 10.84995,14.164083 -0.67782,5.129009 -4.42414,9.327177 -9.44408,10.581251 -8.00311,2.001661 -16.48136,0.02208 -22.77469,-5.304314"
       style="fill:#ffffff;fill-opacity:1;fill-rule:evenodd;stroke:none;stroke-width:3.89444"
       id="path485"
       inkscape:connector-curvature="0" />
    <path
       d="M 520.94565,63.410373 V 19.220045 h 6.31684 L 547.38895,50.77679 V 19.220045 h 6.71018 v 44.190328 h -6.31685 L 527.65583,31.853627 v 31.556746 h -6.71018"
       style="fill:#ffffff;fill-opacity:1;fill-rule:evenodd;stroke:none;stroke-width:3.89444"
       id="path557"
       inkscape:connector-curvature="0" />
    <path
       d="M 610.05844,63.425938 595.46205,19.208343 h 7.09954 l 10.27756,33.940148 10.2462,-33.940148 h 7.10352 l -14.60025,44.217595 h -5.53018"
       style="fill:#ffffff;fill-opacity:1;fill-rule:evenodd;stroke:none;stroke-width:3.89444"
       id="path559"
       inkscape:connector-curvature="0" />
    <path
       d="M 672.31119,63.410373 V 19.220045 h 15.78036 c 8.72751,0 15.80365,7.076246 15.80365,15.780359 v 12.633583 c 0,8.704114 -7.07614,15.776386 -15.80365,15.776386 z m 6.71018,-6.316847 h 9.07018 c 5.0238,0 9.09358,-4.069669 9.09358,-9.066205 v -13.42025 c 0,-4.996647 -4.06978,-9.07018 -9.09358,-9.07018 h -9.07018 v 31.556635"
       style="fill:#ffffff;fill-opacity:1;fill-rule:evenodd;stroke:none;stroke-width:3.89444"
       id="path561"
       inkscape:connector-curvature="0" />
    <g
       transform="matrix(0.35697751,0,0,0.35697751,345.95516,-163.21032)"
       id="g7257">
      <g
         id="g7243">
        <path
           sodipodi:nodetypes="czzzcc"
           inkscape:connector-curvature="0"
           id="path3776"
           d="m 137.03017,297.08746 c 0,0 0,144.90188 0,205.30337 0,60.40149 40.64539,156.67465 152.46229,156.67465 111.8169,0 152.46229,-96.27316 152.46229,-156.67465 0,-60.40149 0,-205.30337 0,-205.30337 z"
           style="color:#000000;display:inline;overflow:visible;visibility:visible;fill:#d38e00;fill-opacity:1;stroke:#000000;stroke-width:4;stroke-linecap:butt;stroke-linejoin:miter;stroke-miterlimit:4;stroke-dasharray:none;stroke-dashoffset:0;stroke-opacity:1;marker:none;enable-background:accumulate" />
        <path
           style="color:#000000;display:inline;overflow:visible;visibility:visible;fill:#c3c4c6;fill-opacity:1;stroke:#000000;stroke-width:2.5;stroke-linecap:butt;stroke-linejoin:miter;stroke-miterlimit:4;stroke-dasharray:none;stroke-dashoffset:0;stroke-opacity:1;marker:none;enable-background:accumulate"
           d="M 276.9375,276.4375 H 154.15625 32.03125 c 19.983612,39.68978 58.509174,74.375 122.4375,74.375 63.92851,0 102.48519,-34.68508 122.46875,-74.375 z"
           id="path6556"
           transform="translate(135.01918,295.07647)"
           inkscape:connector-curvature="0" />
        <path
           style="color:#000000;display:inline;overflow:visible;visibility:visible;fill:#134991;fill-opacity:1;stroke:#000000;stroke-width:2.5;stroke-linecap:butt;stroke-linejoin:miter;stroke-miterlimit:4;stroke-dasharray:none;stroke-dashoffset:0;stroke-opacity:1;marker:none;enable-background:accumulate"
           d="m 14.625,15.1875 v 190.34375 c 0,21.09647 5.329216,46.91986 17.40625,70.90625 h 122.125 122.78125 c 12.07691,-23.9863 17.375,-49.80988 17.375,-70.90625 V 15.1875 Z"
           id="path6551"
           transform="translate(135.01918,295.07647)"
           inkscape:connector-curvature="0" />
      </g>
      <g
         id="g7248">
        <path
           sodipodi:type="star"
           style="color:#000000;display:inline;overflow:visible;visibility:visible;fill:#c3c4c6;fill-opacity:1;stroke:#1a1a1a;stroke-width:2.48014;stroke-linecap:round;stroke-linejoin:miter;stroke-miterlimit:4;stroke-dasharray:none;stroke-dashoffset:0;stroke-opacity:1;marker:none;enable-background:accumulate"
           id="path6558"
           sodipodi:sides="5"
           sodipodi:cx="150.20718"
           sodipodi:cy="56.272789"
           sodipodi:r1="31.108421"
           sodipodi:r2="15.788068"
           sodipodi:arg1="-1.5707963"
           sodipodi:arg2="-0.94247777"
           inkscape:flatsided="false"
           inkscape:rounded="0"
           inkscape:randomized="0"
           d="m 150.20718,25.164368 9.28,18.335606 20.30587,3.159785 -14.57052,14.491812 3.26972,20.28846 -18.28507,-9.379174 -18.28507,9.379173 3.26973,-20.28846 -14.57052,-14.491813 20.30587,-3.159783 z"
           transform="matrix(1.0080074,0,0,1.0080074,138.07798,292.17124)"
           inkscape:transform-center-y="-2.5172492" />
        <path
           style="color:#000000;display:inline;overflow:visible;visibility:visible;fill:#d38e00;fill-opacity:1;stroke:#000000;stroke-width:2.5;stroke-linecap:butt;stroke-linejoin:miter;stroke-miterlimit:4;stroke-dasharray:none;stroke-dashoffset:0;stroke-opacity:1;marker:none;enable-background:accumulate"
           d="m 295.42081,421.96919 c 0,0 2.24721,-10.12777 5.52427,-19.74633 0,0 3.63002,-1.35994 6.75083,-1.69001 0,0 2.21595,-8.27007 6.65094,-15.24578 0,0 4.73381,-1.99721 8.17326,-1.77539 0,0 7.62283,-17.15561 10.25809,-21.74353 2.63526,-4.58792 8.267,-7.3485 15.64366,-10.5036 0,0 4.49217,5.86885 7.67855,11.38781 0,0 2.85324,-7.16629 4.97544,-9.86326 2.12221,-2.69699 6.91015,-1.41405 7.86606,0.24163 0.95591,1.65569 2.80524,8.68247 2.80524,8.68247 0,0 4.20173,-6.10518 6.24998,-7.65568 1.36812,-1.03566 14.28988,4.99525 17.69807,7.07478 3.4082,2.07951 5.48904,3.55837 6.9922,6.16192 1.50316,2.60355 1.74349,5.14504 1.84029,9.13639 0.0968,3.99134 -1.14114,18.19736 -2.72211,18.86436 -2.36689,0.9986 -9.755,1.5848 -9.755,1.5848 0,0 5.16071,5.11496 6.11662,6.77065 0.95591,1.65569 -0.32701,6.44363 -3.72377,6.93302 -3.39675,0.48939 -11.02956,-0.62277 -11.02956,-0.62277 3.18638,5.51897 6.02286,12.34372 6.02286,12.34372 -6.42074,4.81081 -11.62733,8.30781 -16.91821,8.29601 -5.29089,-0.0118 -23.9595,-1.988 -23.9595,-1.988 -1.52762,3.08956 -5.62416,6.19055 -5.62416,6.19055 -8.25863,0.35297 -16.5287,-1.863 -16.5287,-1.863 -1.84626,2.53767 -4.839,5.00139 -4.839,5.00139 -9.96845,-1.97127 -19.86297,-5.08901 -19.86297,-5.08901 l -5.93288,3.42535 v 6.8507 c 0,0 7.6473,7.01003 14.33869,14.65733 0,0 -0.63727,3.82365 -1.91182,6.69139 0,0 6.05411,6.05411 9.87776,13.38278 0,0 -0.63727,5.0982 -2.5491,7.96594 0,0 11.04578,15.17937 13.70141,19.75553 2.65562,4.57616 2.23048,10.83368 1.27455,18.79961 0,0 -7.32866,0.95591 -13.70141,0.95591 0,0 4.77957,6.05412 6.05412,9.24049 1.27455,3.18638 -2.23047,6.69139 -4.14229,6.69139 -1.91183,0 -8.92186,-1.91182 -8.92186,-1.91182 0,0 3.18638,6.69139 3.50502,9.24048 0.21285,1.70266 -11.47095,9.87777 -14.97597,11.78959 -3.50501,1.91183 -5.82616,2.97446 -8.83248,2.97446 -3.00632,0 -5.32747,-1.06263 -8.83249,-2.97446 -3.50501,-1.91182 -15.18881,-10.08693 -14.97596,-11.78959 0.31863,-2.54909 3.50502,-9.24048 3.50502,-9.24048 0,0 -7.01004,1.91182 -8.92186,1.91182 -1.91183,0 -5.41685,-3.50501 -4.14229,-6.69139 1.27455,-3.18637 6.05411,-9.24049 6.05411,-9.24049 -6.37275,0 -13.7014,-0.95591 -13.7014,-0.95591 -0.95592,-7.96593 -1.38107,-14.22345 1.27455,-18.79961 2.65563,-4.57616 13.70141,-19.75553 13.70141,-19.75553 -1.91183,-2.86774 -2.5491,-7.96594 -2.5491,-7.96594 3.82364,-7.32867 9.87776,-13.38278 9.87776,-13.38278 -1.27456,-2.86774 -1.91183,-6.69139 -1.91183,-6.69139 6.69139,-7.6473 14.33869,-14.65733 14.33869,-14.65733 v -6.8507 l -5.93288,-3.42535 c 0,0 -9.89452,3.11774 -19.86297,5.08901 0,0 -2.99274,-2.46372 -4.839,-5.00139 0,0 -8.27007,2.21597 -16.5287,1.863 0,0 -4.09654,-3.10099 -5.62416,-6.19055 0,0 -18.66861,1.97624 -23.9595,1.988 -5.29088,0.0118 -10.49747,-3.4852 -16.91821,-8.29601 0,0 2.83648,-6.82475 6.02286,-12.34372 0,0 -7.63281,1.11216 -11.02956,0.62277 -3.39676,-0.48939 -4.67968,-5.27733 -3.72377,-6.93302 0.95591,-1.65569 6.11662,-6.77065 6.11662,-6.77065 0,0 -7.38811,-0.5862 -9.755,-1.5848 -1.58097,-0.667 -2.81893,-14.87302 -2.72211,-18.86436 0.0968,-3.99135 0.33713,-6.53284 1.84029,-9.13639 1.50316,-2.60355 3.584,-4.08241 6.9922,-6.16192 3.40819,-2.07953 16.32995,-8.11044 17.69807,-7.07478 2.04825,1.5505 6.24998,7.65568 6.24998,7.65568 0,0 1.84933,-7.02678 2.80524,-8.68247 0.95591,-1.65568 5.74385,-2.93862 7.86606,-0.24163 2.1222,2.69697 4.97544,9.86326 4.97544,9.86326 3.18638,-5.51896 7.67855,-11.38781 7.67855,-11.38781 7.37666,3.1551 13.0084,5.91568 15.64366,10.5036 2.63526,4.58792 10.25809,21.74353 10.25809,21.74353 3.43945,-0.22182 8.17326,1.77539 8.17326,1.77539 4.43499,6.97571 6.65094,15.24578 6.65094,15.24578 3.12081,0.33007 6.75083,1.69001 6.75083,1.69001 3.27706,9.61856 5.52427,19.74633 5.52427,19.74633 l 5.93289,3.42535 z"
           id="path6573"
           inkscape:connector-curvature="0"
           sodipodi:nodetypes="cccccczccsscsszsscsscczccccccccccczccsscsszsscsscczccccccccczccsscsszsscsscczcccccccc" />
        <path
           sodipodi:nodetypes="cccc"
           inkscape:connector-curvature="0"
           id="path6579"
           d="m 291.74104,445.22875 h -4.50622 l 2.25311,90.57493 z"
           style="color:#000000;display:inline;overflow:visible;visibility:visible;fill:#000000;stroke:none;stroke-width:1;marker:none;enable-background:accumulate" />
        <use
           x="0"
           y="0"
           xlink:href="#path6558"
           inkscape:transform-center-y="0.77431952"
           id="use6734"
           transform="rotate(-120,289.48793,432.64997)"
           width="306.69345"
           height="366"
           inkscape:transform-center-x="-2.4278687" />
        <use
           x="0"
           y="0"
           xlink:href="#path6579"
           id="use6736"
           transform="rotate(-120,289.48793,432.64997)"
           width="306.69345"
           height="366" />
        <use
           inkscape:transform-center-x="2.4278691"
           height="366"
           width="306.69345"
           transform="matrix(0.5,-0.8660254,-0.8660254,-0.5,519.42982,899.67885)"
           id="use6740"
           inkscape:transform-center-y="0.77431952"
           xlink:href="#path6558"
           y="0"
           x="0" />
        <use
           height="366"
           width="306.69345"
           transform="matrix(0.5,-0.8660254,-0.8660254,-0.5,519.42982,899.67885)"
           id="use6744"
           xlink:href="#path6579"
           y="0"
           x="0" />
      </g>
    </g>
  </g>
</svg>
