<?xml version="1.0" encoding="UTF-8" standalone="no"?>
<svg
   xmlns:dc="http://purl.org/dc/elements/1.1/"
   xmlns:cc="http://creativecommons.org/ns#"
   xmlns:rdf="http://www.w3.org/1999/02/22-rdf-syntax-ns#"
   xmlns:svg="http://www.w3.org/2000/svg"
   xmlns="http://www.w3.org/2000/svg"
   xmlns:sodipodi="http://sodipodi.sourceforge.net/DTD/sodipodi-0.dtd"
   xmlns:inkscape="http://www.inkscape.org/namespaces/inkscape"
   width="195.00003mm"
   height="195.00052mm"
   viewBox="0 0 195.00004 195.00053"
   version="1.1"
   id="svg3845"
   inkscape:version="1.0 (4035a4fb49, 2020-05-01)"
   sodipodi:docname="Latvia_road_sign_744.svg">
  <defs
     id="defs3839" />
  <sodipodi:namedview
     id="base"
     pagecolor="#ffffff"
     bordercolor="#666666"
     borderopacity="1.0"
     inkscape:pageopacity="0.0"
     inkscape:pageshadow="2"
     inkscape:zoom="0.29260408"
     inkscape:cx="-669.46149"
     inkscape:cy="-450.16343"
     inkscape:document-units="mm"
     inkscape:current-layer="layer1"
     showgrid="false"
     inkscape:window-width="1920"
     inkscape:window-height="1001"
     inkscape:window-x="-9"
     inkscape:window-y="-9"
     inkscape:window-maximized="1"
     inkscape:document-rotation="0"
     showguides="false" />
  <metadata
     id="metadata3842">
    <rdf:RDF>
      <cc:Work
         rdf:about="">
        <dc:format>image/svg+xml</dc:format>
        <dc:type
           rdf:resource="http://purl.org/dc/dcmitype/StillImage" />
        <dc:title></dc:title>
      </cc:Work>
    </rdf:RDF>
  </metadata>
  <g
     inkscape:label="Layer 1"
     inkscape:groupmode="layer"
     id="layer1"
     transform="translate(-1455.5586,-222.28997)">
    <path
       style="fill:#ffffff;fill-opacity:1;stroke:#000000;stroke-width:1.53223;stroke-linecap:butt;stroke-linejoin:miter;stroke-miterlimit:22.926;stroke-opacity:1"
       d="m 1470.3302,223.05609 h 165.4568 c 7.6972,0 14.0055,6.29653 14.0055,14.00561 v 165.44509 c 0,7.70907 -6.3083,14.01759 -14.0055,14.01759 h -165.4568 c -7.6972,0 -14.0055,-6.30852 -14.0055,-14.01759 V 237.0617 c 0,-7.70908 6.3083,-14.00561 14.0055,-14.00561 z m 0,0"
       id="path3178" />
    <path
       style="fill:#263894;fill-opacity:1;fill-rule:evenodd;stroke:none;stroke-width:3.06446"
       d="m 1471.5629,229.46034 h 157.4493 l 14.4486,13.59855 V 401.2619 c 0,4.86002 -3.9863,8.84625 -8.8465,8.84625 h -158.0114 l -13.8744,-14.53228 V 238.2946 c 0,-4.86002 3.9751,-8.83426 8.8344,-8.83426"
       id="path3172" />
    <path
       style="fill:#ffffff;fill-opacity:1;fill-rule:evenodd;stroke:none;stroke-width:3.06446"
       d="m 1529.7279,345.04812 15.9931,5.44654 v -62.90521 l -15.921,5.50639 23.3064,-42.30391 23.5461,42.30391 -16.1598,-5.53037 v 62.92919 l 15.98,-5.44654 -23.342,42.12435 -23.3671,-42.12435"
       id="path3174" />
    <path
       style="fill:#eb1938;fill-opacity:1;fill-rule:evenodd;stroke:none;stroke-width:3.06446"
       d="m 1462.7172,395.48005 166.0909,-166.0317 c 10.6186,-0.53857 14.9159,1.90334 14.6162,13.59855 l -166.5104,167.04926 c -11.9346,0.89777 -14.8317,-3.81866 -14.1967,-14.61611"
       id="path3176" />
  </g>
</svg>
