<?xml version="1.0" encoding="UTF-8" standalone="no"?>
<svg
   xmlns:dc="http://purl.org/dc/elements/1.1/"
   xmlns:cc="http://creativecommons.org/ns#"
   xmlns:rdf="http://www.w3.org/1999/02/22-rdf-syntax-ns#"
   xmlns:svg="http://www.w3.org/2000/svg"
   xmlns="http://www.w3.org/2000/svg"
   xmlns:sodipodi="http://sodipodi.sourceforge.net/DTD/sodipodi-0.dtd"
   xmlns:inkscape="http://www.inkscape.org/namespaces/inkscape"
   sodipodi:docname="Latvia_road_sign_708.svg"
   inkscape:version="1.0 (4035a4fb49, 2020-05-01)"
   id="svg5880"
   version="1.1"
   viewBox="0 0 158.75 234.62192"
   height="234.62192mm"
   width="158.75mm">
  <defs
     id="defs5874" />
  <sodipodi:namedview
     inkscape:window-maximized="0"
     inkscape:window-y="0"
     inkscape:window-x="192"
     inkscape:window-height="1030"
     inkscape:window-width="1424"
     showgrid="false"
     inkscape:document-rotation="0"
     inkscape:current-layer="layer1"
     inkscape:document-units="mm"
     inkscape:cy="644.24046"
     inkscape:cx="-1031.1977"
     inkscape:zoom="0.12374369"
     inkscape:pageshadow="2"
     inkscape:pageopacity="0.0"
     borderopacity="1.0"
     bordercolor="#666666"
     pagecolor="#ffffff"
     id="base" />
  <metadata
     id="metadata5877">
    <rdf:RDF>
      <cc:Work
         rdf:about="">
        <dc:format>image/svg+xml</dc:format>
        <dc:type
           rdf:resource="http://purl.org/dc/dcmitype/StillImage" />
        <dc:title></dc:title>
      </cc:Work>
    </rdf:RDF>
  </metadata>
  <g
     transform="translate(-133.80357,112.01929)"
     id="layer1"
     inkscape:groupmode="layer"
     inkscape:label="Layer 1">
    <g
       id="g6105"
       transform="matrix(1.444105,0,0,-1.444105,-107.09684,678.22767)"
       style="opacity:1;stroke-width:0.244288">
      <path
         style="color:#000000;font-style:normal;font-variant:normal;font-weight:normal;font-stretch:normal;font-size:medium;line-height:normal;font-family:sans-serif;font-variant-ligatures:normal;font-variant-position:normal;font-variant-caps:normal;font-variant-numeric:normal;font-variant-alternates:normal;font-variant-east-asian:normal;font-feature-settings:normal;font-variation-settings:normal;text-indent:0;text-align:start;text-decoration:none;text-decoration-line:none;text-decoration-style:solid;text-decoration-color:#000000;letter-spacing:normal;word-spacing:normal;text-transform:none;writing-mode:lr-tb;direction:ltr;text-orientation:mixed;dominant-baseline:auto;baseline-shift:baseline;text-anchor:start;white-space:normal;shape-padding:0;shape-margin:0;inline-size:0;clip-rule:nonzero;display:inline;overflow:visible;visibility:visible;isolation:auto;mix-blend-mode:normal;color-interpolation:sRGB;color-interpolation-filters:linearRGB;solid-color:#000000;solid-opacity:1;vector-effect:none;fill:#ffffff;fill-opacity:1;fill-rule:nonzero;stroke:none;stroke-width:0.122144;stroke-linecap:butt;stroke-linejoin:miter;stroke-miterlimit:22.926;stroke-dasharray:none;stroke-dashoffset:0;stroke-opacity:1;color-rendering:auto;image-rendering:auto;shape-rendering:auto;text-rendering:auto;enable-background:accumulate;stop-color:#000000;stop-opacity:1"
         d="M 276.49609,538.64062 V 393.33203 c 0,-4.58203 -3.75,-8.32812 -8.33203,-8.32812 h -92.76562 c -4.58203,0 -8.33203,3.74609 -8.33203,8.32812 v 145.30859 c 0,4.58204 3.75,8.33204 8.33203,8.33204 h 92.76562 c 4.58203,0 8.33203,-3.75 8.33203,-8.33204 z m 0,0"
         id="path6107-0" />
      <path
         style="color:#000000;font-style:normal;font-variant:normal;font-weight:normal;font-stretch:normal;font-size:medium;line-height:normal;font-family:sans-serif;font-variant-ligatures:normal;font-variant-position:normal;font-variant-caps:normal;font-variant-numeric:normal;font-variant-alternates:normal;font-variant-east-asian:normal;font-feature-settings:normal;font-variation-settings:normal;text-indent:0;text-align:start;text-decoration:none;text-decoration-line:none;text-decoration-style:solid;text-decoration-color:#000000;letter-spacing:normal;word-spacing:normal;text-transform:none;writing-mode:lr-tb;direction:ltr;text-orientation:mixed;dominant-baseline:auto;baseline-shift:baseline;text-anchor:start;white-space:normal;shape-padding:0;shape-margin:0;inline-size:0;clip-rule:nonzero;display:inline;overflow:visible;visibility:visible;isolation:auto;mix-blend-mode:normal;color-interpolation:sRGB;color-interpolation-filters:linearRGB;solid-color:#000000;solid-opacity:1;vector-effect:none;fill:#000000;fill-opacity:1;fill-rule:nonzero;stroke:none;stroke-width:0.122144;stroke-linecap:butt;stroke-linejoin:miter;stroke-miterlimit:22.926;stroke-dasharray:none;stroke-dashoffset:0;stroke-opacity:1;color-rendering:auto;image-rendering:auto;shape-rendering:auto;text-rendering:auto;enable-background:accumulate;stop-color:#000000;stop-opacity:1"
         d="m 166.81641,538.64062 c 0,4.71845 3.8636,8.58203 8.58203,8.58203 h 92.76562 c 4.71844,0 8.58203,-3.86358 8.58203,-8.58203 V 393.33203 c 0,-4.71843 -3.86374,-8.57812 -8.58203,-8.57812 h -92.76562 c -4.71829,0 -8.58203,3.85969 -8.58203,8.57812 z m 0.5,0 V 393.33203 c 0,-4.44563 3.63626,-8.07812 8.08203,-8.07812 h 92.76562 c 4.44577,0 8.08203,3.63249 8.08203,8.07812 v 145.30859 c 0,4.44564 -3.6364,8.08203 -8.08203,8.08203 h -92.76562 c -4.44563,0 -8.08203,-3.63639 -8.08203,-8.08203 z"
         id="path6109-3" />
      <path
         id="rect5145-6"
         style="opacity:1;fill:#283996;fill-opacity:1;fill-rule:evenodd;stroke:none;stroke-width:0.52974;stroke-linecap:round;stroke-miterlimit:4;stroke-dasharray:none"
         d="m 215.18865,534.48371 v -29.84945 c 0,-8.64626 -6.96071,-15.60697 -15.60697,-15.60697 -8.64627,0 -15.60698,6.96071 -15.60698,15.60697 v 29.84945 z"
         sodipodi:nodetypes="cssscc" />
      <g
         id="g5866"
         style="opacity:1"
         inkscape:groupmode="layer">
        <path
           id="path5868"
           style="color:#000000;font-style:normal;font-variant:normal;font-weight:normal;font-stretch:normal;font-size:medium;line-height:normal;font-family:sans-serif;font-variant-ligatures:normal;font-variant-position:normal;font-variant-caps:normal;font-variant-numeric:normal;font-variant-alternates:normal;font-variant-east-asian:normal;font-feature-settings:normal;font-variation-settings:normal;text-indent:0;text-align:start;text-decoration:none;text-decoration-line:none;text-decoration-style:solid;text-decoration-color:#000000;letter-spacing:normal;word-spacing:normal;text-transform:none;writing-mode:lr-tb;direction:ltr;text-orientation:mixed;dominant-baseline:auto;baseline-shift:baseline;text-anchor:start;white-space:normal;shape-padding:0;shape-margin:0;inline-size:0;clip-rule:nonzero;display:inline;overflow:visible;visibility:visible;isolation:auto;mix-blend-mode:normal;color-interpolation:sRGB;color-interpolation-filters:linearRGB;solid-color:#000000;solid-opacity:1;vector-effect:none;fill:#000000;fill-opacity:1;fill-rule:nonzero;stroke:none;stroke-width:6.51215;stroke-linecap:butt;stroke-linejoin:miter;stroke-miterlimit:4;stroke-dasharray:none;stroke-dashoffset:0;stroke-opacity:1;color-rendering:auto;image-rendering:auto;shape-rendering:auto;text-rendering:auto;enable-background:accumulate;stop-color:#000000;stop-opacity:1"
           d="m 89.001953,253.29688 2.644531,567.10351 11.800786,-0.0527 -0.53321,-114.39454 0.11719,-0.35351 c 0.46257,-1.36189 1.0345,-3.09923 4.60547,-17.14063 3.5707,-14.04013 10.20128,-40.55744 18.58008,-64.8457 8.37884,-24.28825 18.58587,-46.61418 40.40234,-91.85937 21.81637,-45.24471 55.16794,-113.21188 74.14258,-159.50977 18.97551,-46.29991 23.46674,-70.98513 27.76953,-94.86523 l 0.58594,-3.20899 -11.61914,-2.08984 -0.58594,3.19922 c -4.30262,23.87983 -8.4075,46.93236 -27.07813,92.48828 -18.66969,45.55374 -52.00254,113.54089 -73.85351,158.85742 -21.85108,45.31686 -32.29937,68.16664 -40.91406,93.13867 -5.61397,16.27346 -8.71884,29.2778 -12.35547,43.02539 l -1.84375,-394.33203 -6.001956,-7.67578 z"
           transform="matrix(0.18321613,0,0,-0.18321613,166.81641,547.22265)" />
      </g>
      <path
         id="path5232-5"
         style="opacity:1;fill:#000000;fill-opacity:1;fill-rule:evenodd;stroke:none;stroke-width:0.244286"
         d="m 211.78521,396.87964 h 8.67362 l -0.0187,21.49992 c -0.0367,6.32248 0.3694,8.50346 4.3777,15.07672 1.51594,2.48666 22.06308,38.80353 22.06308,38.80353 3.58273,6.41758 3.80327,9.08786 3.75965,17.33379 -0.0146,2.80353 -0.008,21.45066 -0.008,21.45066 l 10.78299,-4.32504 -15.10807,28.04405 -15.16514,-28.02503 10.87928,4.34412 -0.008,-21.58166 c -0.004,-7.19349 -0.3616,-8.69939 -4.14143,-15.05322 -1.10954,-1.86525 -22.08767,-38.71504 -22.08767,-38.71504 -3.60965,-6.4691 -4.04855,-7.86753 -3.97242,-17.91157 l -0.023,-20.94123" />
    </g>
    <g
       id="g6099"
       transform="matrix(0,1.444105,1.444105,0,-459.75744,-314.98941)"
       style="opacity:1;fill:#000000;fill-opacity:1;stroke-width:0.244288">
      <path
         style="color:#000000;font-style:normal;font-variant:normal;font-weight:normal;font-stretch:normal;font-size:medium;line-height:normal;font-family:sans-serif;font-variant-ligatures:normal;font-variant-position:normal;font-variant-caps:normal;font-variant-numeric:normal;font-variant-alternates:normal;font-variant-east-asian:normal;font-feature-settings:normal;font-variation-settings:normal;text-indent:0;text-align:start;text-decoration:none;text-decoration-line:none;text-decoration-style:solid;text-decoration-color:#000000;letter-spacing:normal;word-spacing:normal;text-transform:none;writing-mode:lr-tb;direction:ltr;text-orientation:mixed;dominant-baseline:auto;baseline-shift:baseline;text-anchor:start;white-space:normal;shape-padding:0;shape-margin:0;inline-size:0;clip-rule:nonzero;display:inline;overflow:visible;visibility:visible;isolation:auto;mix-blend-mode:normal;color-interpolation:sRGB;color-interpolation-filters:linearRGB;solid-color:#000000;solid-opacity:1;vector-effect:none;fill:#000000;fill-opacity:1;fill-rule:evenodd;stroke:none;stroke-width:0.0041529;stroke-linecap:butt;stroke-linejoin:miter;stroke-miterlimit:22.926;stroke-dasharray:none;stroke-dashoffset:0;stroke-opacity:1;color-rendering:auto;image-rendering:auto;shape-rendering:auto;text-rendering:auto;enable-background:accumulate;stop-color:#000000;stop-opacity:1"
         d="m 148.93359,517.48047 h 145.69532 c 2.5,0 4.54296,-2.04297 4.54296,-4.55078 v -93.88282 c 0,-2.50781 -2.04296,-4.54687 -4.54296,-4.54687 H 148.93359 c -2.5,0 -4.53906,2.03906 -4.53906,4.54687 v 93.88282 c 0,2.50781 2.03906,4.55078 4.53906,4.55078 z m 0.69922,-2.87891 h 144.28906 c 1.33594,0 2.4336,-1.10156 2.4336,-2.44531 v -92.33594 c 0,-1.34375 -1.09766,-2.4414 -2.4336,-2.4414 H 149.63281 c -1.32422,0 -2.42578,1.09765 -2.42578,2.4414 v 92.33594 c 0,1.34375 1.10156,2.44531 2.42578,2.44531 z m 0,0"
         id="path6101" />
    </g>
  </g>
</svg>
