<?xml version="1.0" encoding="UTF-8" standalone="no"?>
<svg
   xmlns:dc="http://purl.org/dc/elements/1.1/"
   xmlns:cc="http://creativecommons.org/ns#"
   xmlns:rdf="http://www.w3.org/1999/02/22-rdf-syntax-ns#"
   xmlns:svg="http://www.w3.org/2000/svg"
   xmlns="http://www.w3.org/2000/svg"
   xmlns:sodipodi="http://sodipodi.sourceforge.net/DTD/sodipodi-0.dtd"
   xmlns:inkscape="http://www.inkscape.org/namespaces/inkscape"
   sodipodi:docname="Latvia_road_sign_706A.svg"
   inkscape:version="1.0 (4035a4fb49, 2020-05-01)"
   id="svg6774"
   version="1.1"
   viewBox="0 0 587.37496 158.73614"
   height="158.73615mm"
   width="587.375mm">
  <defs
     id="defs6768" />
  <sodipodi:namedview
     inkscape:window-maximized="1"
     inkscape:window-y="-9"
     inkscape:window-x="-9"
     inkscape:window-height="1001"
     inkscape:window-width="1920"
     fit-margin-bottom="0"
     fit-margin-right="0"
     fit-margin-left="0"
     fit-margin-top="0"
     showgrid="false"
     inkscape:document-rotation="0"
     inkscape:current-layer="g10290"
     inkscape:document-units="mm"
     inkscape:cy="79.266314"
     inkscape:cx="572.54036"
     inkscape:zoom="1.6393404"
     inkscape:pageshadow="2"
     inkscape:pageopacity="0.0"
     borderopacity="1.0"
     bordercolor="#666666"
     pagecolor="#ffffff"
     id="base" />
  <metadata
     id="metadata6771">
    <rdf:RDF>
      <cc:Work
         rdf:about="">
        <dc:format>image/svg+xml</dc:format>
        <dc:type
           rdf:resource="http://purl.org/dc/dcmitype/StillImage" />
        <dc:title></dc:title>
      </cc:Work>
    </rdf:RDF>
  </metadata>
  <g
     transform="translate(300.7726,292.1424)"
     id="layer1"
     inkscape:groupmode="layer"
     inkscape:label="Layer 1">
    <g
       inkscape:groupmode="layer"
       transform="matrix(7.0715152,0,0,7.0715152,2714.867,1607.4986)"
       style="opacity:1;stroke-width:0.141412"
       id="g3362">
      <path
         sodipodi:nodetypes="sssssssss"
         id="path3364"
         d="m -424.74631,-268.54514 h 79.65875 c 0.88746,0 1.61231,0.72623 1.61231,1.61231 v 19.04724 c 0,0.88608 -0.72485,1.61231 -1.61231,1.61231 h -79.65875 c -0.88746,0 -1.61369,-0.72623 -1.61369,-1.61231 v -19.04724 c 0,-0.88608 0.72623,-1.61231 1.61369,-1.61231 z"
         style="color:#000000;font-style:normal;font-variant:normal;font-weight:normal;font-stretch:normal;font-size:medium;line-height:normal;font-family:sans-serif;font-variant-ligatures:normal;font-variant-position:normal;font-variant-caps:normal;font-variant-numeric:normal;font-variant-alternates:normal;font-variant-east-asian:normal;font-feature-settings:normal;font-variation-settings:normal;text-indent:0;text-align:start;text-decoration:none;text-decoration-line:none;text-decoration-style:solid;text-decoration-color:#000000;letter-spacing:normal;word-spacing:normal;text-transform:none;writing-mode:lr-tb;direction:ltr;text-orientation:mixed;dominant-baseline:auto;baseline-shift:baseline;text-anchor:start;white-space:normal;shape-padding:0;shape-margin:0;inline-size:0;clip-rule:nonzero;display:inline;overflow:visible;visibility:visible;isolation:auto;mix-blend-mode:normal;color-interpolation:sRGB;color-interpolation-filters:linearRGB;solid-color:#000000;solid-opacity:1;vector-effect:none;fill:#ffffff;fill-opacity:1;fill-rule:nonzero;stroke:none;stroke-width:0.0249436;stroke-linecap:butt;stroke-linejoin:miter;stroke-miterlimit:22.926;stroke-dasharray:none;stroke-dashoffset:0;stroke-opacity:1;color-rendering:auto;image-rendering:auto;shape-rendering:auto;text-rendering:auto;enable-background:accumulate;stop-color:#000000;stop-opacity:1" />
      <path
         sodipodi:nodetypes="ssssssssssssssssss"
         id="path3366"
         d="m -424.74573,-268.63281 c -0.93558,0 -1.70313,0.76495 -1.70313,1.69922 v 19.04882 c 0,0.93427 0.76755,1.69922 1.70313,1.69922 h 79.65781 c 0.93558,0 1.70117,-0.76504 1.70117,-1.69922 v -19.04882 c 0,-0.93418 -0.76559,-1.69922 -1.70117,-1.69922 z m 0,0.17578 h 79.65781 c 0.83935,0 1.52539,0.68545 1.52539,1.52344 v 19.04882 c 0,0.83799 -0.68604,1.52344 -1.52539,1.52344 h -79.65781 c -0.83935,0 -1.52539,-0.68555 -1.52539,-1.52344 v -19.04882 c 0,-0.83789 0.68604,-1.52344 1.52539,-1.52344 z"
         style="color:#000000;font-style:normal;font-variant:normal;font-weight:normal;font-stretch:normal;font-size:medium;line-height:normal;font-family:sans-serif;font-variant-ligatures:normal;font-variant-position:normal;font-variant-caps:normal;font-variant-numeric:normal;font-variant-alternates:normal;font-variant-east-asian:normal;font-feature-settings:normal;font-variation-settings:normal;text-indent:0;text-align:start;text-decoration:none;text-decoration-line:none;text-decoration-style:solid;text-decoration-color:#000000;letter-spacing:normal;word-spacing:normal;text-transform:none;writing-mode:lr-tb;direction:ltr;text-orientation:mixed;dominant-baseline:auto;baseline-shift:baseline;text-anchor:start;white-space:normal;shape-padding:0;shape-margin:0;inline-size:0;clip-rule:nonzero;display:inline;overflow:visible;visibility:visible;isolation:auto;mix-blend-mode:normal;color-interpolation:sRGB;color-interpolation-filters:linearRGB;solid-color:#000000;solid-opacity:1;vector-effect:none;fill:#000000;fill-opacity:1;fill-rule:nonzero;stroke:none;stroke-width:0.0249436;stroke-linecap:butt;stroke-linejoin:miter;stroke-miterlimit:22.926;stroke-dasharray:none;stroke-dashoffset:0;stroke-opacity:1;color-rendering:auto;image-rendering:auto;shape-rendering:auto;text-rendering:auto;enable-background:accumulate;stop-color:#000000;stop-opacity:1" />
    </g>
    <path
       sodipodi:nodetypes="csssscccc"
       id="path1968"
       style="fill:#7f6863;fill-opacity:1;fill-rule:evenodd;stroke:none;stroke-width:0.352777"
       d="m -289.54179,-286.35722 c -2.60189,0.0566 -5.38882,1.91925 -5.38882,5.67097 v 136.04751 c 0,2.329 1.9682,5.44721 5.76864,5.44721 h 564.43893 c 3.41066,0 5.49566,-3.12765 5.48597,-5.61258 l 0.007,-135.89196 c 0.0495,-3.78918 -2.81417,-5.55267 -5.42499,-5.66115 z" />
    <g
       inkscape:groupmode="layer"
       style="opacity:1"
       id="g2362">
      <g
         transform="matrix(9.3369452,0,0,9.4005367,1873.872,3019.0354)"
         style="opacity:1;stroke-width:0.106739"
         id="g10290">
        <path
           id="path10292"
           d="m -229.15531,-348.47796 h 9.35413 v 9.38031 h -9.35413 z m 0,0"
           style="color:#000000;font-style:normal;font-variant:normal;font-weight:normal;font-stretch:normal;font-size:medium;line-height:normal;font-family:sans-serif;font-variant-ligatures:normal;font-variant-position:normal;font-variant-caps:normal;font-variant-numeric:normal;font-variant-alternates:normal;font-variant-east-asian:normal;font-feature-settings:normal;font-variation-settings:normal;text-indent:0;text-align:start;text-decoration:none;text-decoration-line:none;text-decoration-style:solid;text-decoration-color:#000000;letter-spacing:normal;word-spacing:normal;text-transform:none;writing-mode:lr-tb;direction:ltr;text-orientation:mixed;dominant-baseline:auto;baseline-shift:baseline;text-anchor:start;white-space:normal;shape-padding:0;shape-margin:0;inline-size:0;clip-rule:nonzero;display:inline;overflow:visible;visibility:visible;isolation:auto;mix-blend-mode:normal;color-interpolation:sRGB;color-interpolation-filters:linearRGB;solid-color:#000000;solid-opacity:1;vector-effect:none;fill:#ffffff;fill-opacity:1;fill-rule:evenodd;stroke:none;stroke-width:0.0427008;stroke-linecap:round;stroke-linejoin:round;stroke-miterlimit:22.926;stroke-dasharray:none;stroke-dashoffset:0;stroke-opacity:1;color-rendering:auto;image-rendering:auto;shape-rendering:auto;text-rendering:auto;enable-background:accumulate;stop-color:#000000;stop-opacity:1" />
        <path
           id="path10294"
           d="m -229.15625,-348.67773 a 0.20004501,0.20004501 0 0 0 -0.19922,0.19921 v 9.38086 a 0.20004501,0.20004501 0 0 0 0.19922,0.19922 h 9.35547 a 0.20004501,0.20004501 0 0 0 0.19922,-0.19922 v -9.38086 a 0.20004501,0.20004501 0 0 0 -0.19922,-0.19921 z m 0.20117,0.40039 h 8.95313 v 8.98046 h -8.95313 z"
           style="color:#000000;font-style:normal;font-variant:normal;font-weight:normal;font-stretch:normal;font-size:medium;line-height:normal;font-family:sans-serif;font-variant-ligatures:normal;font-variant-position:normal;font-variant-caps:normal;font-variant-numeric:normal;font-variant-alternates:normal;font-variant-east-asian:normal;font-feature-settings:normal;font-variation-settings:normal;text-indent:0;text-align:start;text-decoration:none;text-decoration-line:none;text-decoration-style:solid;text-decoration-color:#000000;letter-spacing:normal;word-spacing:normal;text-transform:none;writing-mode:lr-tb;direction:ltr;text-orientation:mixed;dominant-baseline:auto;baseline-shift:baseline;text-anchor:start;white-space:normal;shape-padding:0;shape-margin:0;inline-size:0;clip-rule:nonzero;display:inline;overflow:visible;visibility:visible;isolation:auto;mix-blend-mode:normal;color-interpolation:sRGB;color-interpolation-filters:linearRGB;solid-color:#000000;solid-opacity:1;vector-effect:none;fill:#000000;fill-opacity:1;fill-rule:evenodd;stroke:none;stroke-width:0.0427008;stroke-linecap:round;stroke-linejoin:round;stroke-miterlimit:22.926;stroke-dasharray:none;stroke-dashoffset:0;stroke-opacity:1;color-rendering:auto;image-rendering:auto;shape-rendering:auto;text-rendering:auto;enable-background:accumulate;stop-color:#000000;stop-opacity:1" />
      </g>
      <path
         id="path5445"
         style="fill:#ffffff;fill-opacity:1;fill-rule:evenodd;stroke:none;stroke-width:0.352777"
         d="m 7.3999297,-257.38343 c -0.606901,0.0188 -1.212682,0.0658 -1.819023,0.13631 -4.477626,0.53113 -8.015954,4.0693 -8.607823,8.56436 -0.720813,5.42787 3.08800698,10.45415 8.492045,11.15364 l 5.5824663,0.75298 c 1.878593,0.2463 3.424138,1.63231 3.874459,3.49766 0.643315,2.50017 -0.873005,5.03765 -3.343654,5.65941 -4.6449433,1.14 -9.5084653,0.002 -13.1626653,-3.09438 l -3.372598,4.04167 c 4.91496798,4.19781 11.528513,5.73555 17.7945373,4.1681 3.937203,-0.98461 6.86919,-4.30084 7.396728,-8.35557 0.70774,-5.42787 -3.088008,-10.4282 -8.491952,-11.15364 l -5.6212143,-0.74829 c -2.05861,-0.27167 -3.707234,-1.94309 -3.951582,-4.04176 -0.309053,-2.56493 1.494098,-4.88715 4.028892,-5.19784 3.589682,-0.44088 7.2422953,0.46815 10.2144313,2.54059 l 3.001174,-4.35263 c -3.557563,-2.45965 -7.768245,-3.69817 -12.0142213,-3.57051 z m 56.4862793,0 c -0.6069,0.0188 -1.21268,0.0658 -1.81902,0.13631 -4.47763,0.53113 -8.00307,4.0693 -8.60783,8.56436 -0.72081,5.42787 3.09772,10.45415 8.50166,11.15364 l 5.57285,0.75298 c 1.89148,0.2463 3.42097,1.63231 3.88417,3.49766 0.64332,2.50017 -0.87487,5.03765 -3.35822,5.65941 -4.63196,1.14 -9.50687,0.002 -13.1481,-3.09438 l -3.3824,4.04167 c 4.92795,4.19781 11.52534,5.73555 17.80434,4.1681 3.92432,-0.98461 6.87396,-4.30084 7.40149,-8.35557 0.70774,-5.42787 -3.10089,-10.4282 -8.49195,-11.15364 l -5.62598,-0.74829 c -2.0587,-0.27167 -3.70247,-1.94309 -3.94682,-4.04176 -0.30905,-2.56493 1.49252,-4.88715 4.01433,-5.19784 3.60266,-0.44088 7.24398,0.46815 10.229,2.54059 l 2.98194,-4.35263 c -3.55766,-2.45965 -7.76349,-3.69817 -12.00946,-3.57051 z m -176.011219,0.0846 c -6.80645,0 -12.33747,5.55741 -12.33747,12.39724 v 10.55614 c 0,6.87866 5.53102,12.45073 12.33747,12.45073 6.79365,0 12.327939,-5.57207 12.327846,-12.45073 v -10.55614 c 0,-6.83983 -5.534196,-12.39724 -12.327846,-12.39724 z m -40.19219,0.59223 v 34.8115 h 5.2496 v -10.57071 l 6.18564,-6.54353 9.54861,17.11424 h 6.19049 l -12.35194,-21.13175 11.10228,-13.67975 h -6.16154 l -14.51354,18.00814 v -18.00814 z m 57.784112,0 v 34.8115 h 5.249604 v -10.57071 l 6.185727,-6.54353 9.548613,17.11424 h 6.190488 l -12.352031,-21.13174 11.102374,-13.67975 h -6.161543 l -14.513628,18.00814 v -18.00814 z m 63.622505,0 v 34.8115 h 22.2239837 v -4.97448 H -25.660979 v -10.25984 h 14.513628 v -4.66351 h -14.513628 v -9.94887 h 16.9743797 v -4.9648 z m 56.50075,0 v 34.8115 h 22.204652 v -4.97448 h -16.96952 v -10.25984 h 14.51363 v -4.66351 h -14.51363 v -9.94887 h 16.96952 v -4.9648 z m -87.689602,0.0188 v 34.79684 h 5.249605 v -24.84788 l 15.739195,24.84788 h 4.940831 v -34.79731 h -5.249604 v 24.84797 l -15.739195,-24.84797 z m -50.025575,4.66361 c 3.89864,0 7.09271,3.21423 7.09271,7.12645 v 10.55614 c 0,3.96393 -3.19407,7.16528 -7.09271,7.16528 -3.91144,0 -7.10234,-3.20135 -7.10234,-7.16528 v -10.55614 c 0,-3.91222 3.1909,-7.12645 7.10234,-7.12645 z m 324.33167,12.74703 5.92028,15.6471 h -36.87748 l 0.14006,11.62 36.23575,0.22374 -5.74176,16.3856 37.43238,-21.06369 z m -60.00854,2.51145 c -5.44251,-0.50481 -10.25636,3.49766 -10.7838,8.97732 h 4.97939 c 0.46312,-2.34468 2.48167,-4.05144 4.84915,-4.05144 2.75346,0 4.94073,2.24109 4.94073,4.97448 0,2.74627 -2.18727,4.97439 -4.94073,4.97439 h -2.14713 v 4.35264 h 2.14713 c 2.9078,0 5.2496,2.37072 5.2496,5.28535 v 0.62232 c 0,2.4354 -1.64377,4.54694 -3.98548,5.12987 -2.83068,0.67402 -5.66295,-1.06386 -6.34492,-3.90084 h -5.00348 c 0.61717,5.15581 4.95045,9.03081 10.08428,9.03081 5.64847,0 10.19034,-4.59884 10.19034,-10.25984 v -0.62232 c 0,-3.00535 -1.46674,-5.83265 -3.97577,-7.49072 2.31603,-1.63231 3.66699,-4.28467 3.66699,-7.12166 0,-5.12987 -3.85671,-9.40815 -8.9263,-9.90036 z m -226.900377,32.21733 c -0.606901,0.0188 -1.212682,0.0658 -1.819023,0.14571 -4.477625,0.53113 -8.015954,4.06761 -8.607823,8.54979 -0.720812,5.44084 3.100893,10.45414 8.491951,11.15373 l 5.58256,0.76239 c 1.8785,0.23313 3.424138,1.63061 3.874458,3.48308 0.643316,2.50017 -0.873004,5.04245 -3.343746,5.6642 -4.631966,1.14001 -9.511639,-0.002 -13.152861,-3.09926 l -3.382402,4.04176 c 4.915061,4.19753 11.515721,5.75491 17.79463,4.18747 3.937203,-0.99749 6.86919,-4.31381 7.396728,-8.35557 0.70774,-5.44075 -3.088008,-10.44278 -8.492045,-11.16822 l -5.621121,-0.75298 c -2.05861,-0.25945 -3.707234,-1.94309 -3.951675,-4.04176 -0.309053,-2.56494 1.494191,-4.88226 4.028891,-5.19305 3.589869,-0.44088 7.229504,0.46815 10.214525,2.54069 l 3.001174,-4.35264 c -3.557656,-2.45965 -7.768245,-3.70202 -12.014221,-3.56562 z m 175.272947,0 c -0.606901,0.0188 -1.217531,0.0658 -1.823881,0.14571 -4.47762,0.53113 -8.01595,4.06761 -8.60782,8.54979 -0.72081,5.44084 3.10089,10.45414 8.49205,11.15373 l 5.587321,0.76239 c 1.89138,0.23313 3.42096,1.63061 3.88417,3.48308 0.63024,2.50017 -0.88795,5.04245 -3.35822,5.6642 -4.63197,1.14001 -9.506881,-0.002 -13.148201,-3.09926 l -3.38707,4.04176 c 4.91507,4.19753 11.5302,5.75491 17.809011,4.18747 3.92442,-0.99749 6.86919,-4.31381 7.39683,-8.35557 0.69466,-5.44075 -3.09772,-10.44278 -8.50167,-11.16822 l -5.611501,-0.75298 c -2.07159,-0.25945 -3.71695,-1.94309 -3.96129,-4.04176 -0.29598,-2.56494 1.48924,-4.88226 4.02403,-5.19305 3.602661,-0.44088 7.243891,0.46815 10.229001,2.54069 l 2.9867,-4.35264 c -3.55765,-2.45965 -7.76348,-3.70202 -12.00946,-3.56562 z m -212.70532,0.67496 v 34.80661 h 22.204656 v -4.97448 H -106.8995 v -29.83213 z m 85.884957,0 v 34.80661 h 5.249604 v -14.92335 h 6.793655 l 7.0878607,14.92335 h 6.17601598 l -7.92743998,-15.43831 c 3.98865,-1.37314 6.692256,-5.15742 6.692256,-9.41934 0,-5.47976 -4.411613,-9.94896 -9.8670967,-9.94896 z m 93.576082,0 -12.63186,34.80661 h 5.55837 l 2.58624,-7.78232 h 13.32663 l 2.61518,7.78232 h 5.54391 l -12.66081,-34.80661 z m -190.129149,0.0282 v 34.78227 h 5.2496 v -34.78227 z m 66.44506,0 v 34.78227 h 12.323087 c 6.832216,0 12.366504,-5.56879 12.366504,-12.4215 v -9.93439 c 0,-6.8528 -5.534288,-12.42638 -12.366504,-12.42638 z m -95.92096,0.0188 v 34.7677 h 5.2496 v -13.65062 h 8.32314 c 5.78994,0 10.48474,-4.74285 10.48474,-10.54636 0,-5.84244 -4.6948,-10.57072 -10.48474,-10.57072 z m 184.633419,0 v 34.7677 h 5.23999 v -13.65062 h 8.32314 c 5.79003,0 10.49921,-4.74285 10.49921,-10.54636 0,-5.84244 -4.70918,-10.57072 -10.49921,-10.57072 z M 2.9416317,-203.19 v 22.04501 c 0,6.68444 5.379855,12.08636 12.0190773,12.08636 6.600566,0 11.980421,-5.40192 11.980421,-12.08636 V -203.19 h -5.109644 v 22.04501 c 0,3.84745 -3.088008,6.94671 -6.870777,6.94671 -3.821425,0 -6.9239063,-3.09926 -6.9239063,-6.94671 V -203.19 Z m -23.9417007,3.98836 h 8.646478 c 2.8950127,0 5.2350377,2.35766 5.2350377,5.28536 0,2.91464 -2.340025,5.27079 -5.2350377,5.27079 h -8.646478 z m -30.122479,0.33466 h 7.087955 c 3.937203,0 7.1169,3.20135 7.1169,7.12655 v 10.57071 c 0,3.93808 -3.179697,7.13614 -7.1169,7.13614 h -7.087955 z m -95.906492,0.0188 h 8.01428 c 3.07512,0 5.55847,2.50017 5.55847,5.59624 0,3.04427 -2.48335,5.57198 -5.55847,5.57198 h -8.01428 z m 184.623809,0 h 8.01437 c 3.07512,0 5.55838,2.50017 5.55838,5.59624 0,3.04427 -2.48326,5.57198 -5.55838,5.57198 h -8.01437 z m 31.9077,2.12293 5.09527,15.22454 h -10.17596 z" />
      <g
         style="opacity:1"
         id="g10296">
        <path
           id="path10298"
           d="m -239.58057,-187.20203 v -51.11767 c 0,-4.58587 -3.82142,-7.92804 -7.87441,-7.92804 -4.33607,0 -7.88729,3.47171 -7.88729,7.92804 0,4.3656 3.55122,7.92803 7.88729,7.92803 h 50.77188 c 4.50331,0 7.87441,-3.80853 7.87441,-7.92803 0,-4.32679 -3.62843,-7.92804 -7.87441,-7.92804 -4.38761,0 -7.88729,3.60125 -7.88729,7.92804 v 51.11767 c 0,4.31372 3.49968,7.92804 7.88729,7.92804 4.37464,0 7.87441,-3.74386 7.87441,-7.92804 0,-4.39155 -3.62843,-7.94101 -7.87441,-7.94101 h -50.77188 c -4.07875,0 -7.88729,3.29038 -7.88729,7.94101 0,4.44326 3.55122,7.92804 7.88729,7.92804 4.56764,0 7.87441,-3.74386 7.87441,-7.92804 z m 0,0"
           style="color:#000000;font-style:normal;font-variant:normal;font-weight:normal;font-stretch:normal;font-size:medium;line-height:normal;font-family:sans-serif;font-variant-ligatures:normal;font-variant-position:normal;font-variant-caps:normal;font-variant-numeric:normal;font-variant-alternates:normal;font-variant-east-asian:normal;font-feature-settings:normal;font-variation-settings:normal;text-indent:0;text-align:start;text-decoration:none;text-decoration-line:none;text-decoration-style:solid;text-decoration-color:#000000;letter-spacing:normal;word-spacing:normal;text-transform:none;writing-mode:lr-tb;direction:ltr;text-orientation:mixed;dominant-baseline:auto;baseline-shift:baseline;text-anchor:start;white-space:normal;shape-padding:0;shape-margin:0;inline-size:0;clip-rule:nonzero;display:inline;overflow:visible;visibility:visible;isolation:auto;mix-blend-mode:normal;color-interpolation:sRGB;color-interpolation-filters:linearRGB;solid-color:#000000;solid-opacity:1;vector-effect:none;fill:#ffffff;fill-opacity:1;fill-rule:evenodd;stroke:none;stroke-width:0.705556;stroke-linecap:round;stroke-linejoin:round;stroke-miterlimit:22.926;stroke-dasharray:none;stroke-dashoffset:0;stroke-opacity:1;color-rendering:auto;image-rendering:auto;shape-rendering:auto;text-rendering:auto;enable-background:accumulate;stop-color:#000000;stop-opacity:1" />
        <path
           id="path10300"
           d="m -247.45647,-249.56049 c -6.08227,0 -11.17875,5.00635 -11.17875,11.23656 0,6.17624 5.05082,11.25488 11.17875,11.25488 h 4.57734 v 28.60555 h -4.57734 c -5.8382,0 -11.17875,4.78149 -11.17875,11.25498 0,6.22231 5.08985,11.25489 11.17875,11.25489 6.35538,0 11.17884,-5.31159 11.17884,-11.25489 v -4.62685 h 28.41205 v 4.62685 c 0,6.11956 4.99452,11.25489 11.17875,11.25489 6.24128,0 11.17884,-5.20893 11.17884,-11.25489 0,-6.23067 -5.10955,-11.25498 -11.17884,-11.25498 h -4.59546 v -28.60555 h 4.59546 c 6.34791,0 11.17884,-5.31384 11.17884,-11.25488 0,-6.19345 -5.08294,-11.23656 -11.17884,-11.23656 -6.1777,0 -11.17875,5.10929 -11.17875,11.23656 v 4.60842 h -28.41205 v -4.60842 c 0,-6.44078 -5.32728,-11.23656 -11.17884,-11.23656 z m 0,6.62804 c 2.2545,0 4.57734,1.87747 4.57734,4.60852 v 4.60842 h -4.57734 c -2.54413,0 -4.59546,-2.05355 -4.59546,-4.60842 0,-2.68254 2.00567,-4.60852 4.59546,-4.60852 z m 50.76964,0 c 2.39614,0 4.57734,2.14839 4.57734,4.60852 0,2.29796 -1.91855,4.60842 -4.57734,4.60842 h -4.59546 v -4.60842 c 0,-2.5264 1.99802,-4.60852 4.59546,-4.60852 z m -39.5908,15.8634 h 28.41205 v 28.60555 h -28.41205 z m -11.17884,35.23368 h 4.57734 v 4.62685 c 0,2.42497 -1.79736,4.62685 -4.57734,4.62685 -2.58316,0 -4.59546,-1.96264 -4.59546,-4.62685 0,-2.82777 2.27626,-4.62685 4.59546,-4.62685 z m 46.17418,0 h 4.59546 c 2.42275,0 4.57734,2.07442 4.57734,4.62685 0,2.32231 -2.06925,4.62685 -4.57734,4.62685 -2.59091,0 -4.59546,-2.11907 -4.59546,-4.62685 z"
           style="color:#000000;font-style:normal;font-variant:normal;font-weight:normal;font-stretch:normal;font-size:medium;line-height:normal;font-family:sans-serif;font-variant-ligatures:normal;font-variant-position:normal;font-variant-caps:normal;font-variant-numeric:normal;font-variant-alternates:normal;font-variant-east-asian:normal;font-feature-settings:normal;font-variation-settings:normal;text-indent:0;text-align:start;text-decoration:none;text-decoration-line:none;text-decoration-style:solid;text-decoration-color:#000000;letter-spacing:normal;word-spacing:normal;text-transform:none;writing-mode:lr-tb;direction:ltr;text-orientation:mixed;dominant-baseline:auto;baseline-shift:baseline;text-anchor:start;white-space:normal;shape-padding:0;shape-margin:0;inline-size:0;clip-rule:nonzero;display:inline;overflow:visible;visibility:visible;isolation:auto;mix-blend-mode:normal;color-interpolation:sRGB;color-interpolation-filters:linearRGB;solid-color:#000000;solid-opacity:1;vector-effect:none;fill:#000000;fill-opacity:1;fill-rule:evenodd;stroke:none;stroke-width:0.705556;stroke-linecap:round;stroke-linejoin:round;stroke-miterlimit:22.926;stroke-dasharray:none;stroke-dashoffset:0;stroke-opacity:1;color-rendering:auto;image-rendering:auto;shape-rendering:auto;text-rendering:auto;enable-background:accumulate;stop-color:#000000;stop-opacity:1" />
      </g>
    </g>
  </g>
</svg>
