<?xml version="1.0" encoding="UTF-8" standalone="no"?>
<svg
   xmlns:dc="http://purl.org/dc/elements/1.1/"
   xmlns:cc="http://creativecommons.org/ns#"
   xmlns:rdf="http://www.w3.org/1999/02/22-rdf-syntax-ns#"
   xmlns:svg="http://www.w3.org/2000/svg"
   xmlns="http://www.w3.org/2000/svg"
   xmlns:sodipodi="http://sodipodi.sourceforge.net/DTD/sodipodi-0.dtd"
   xmlns:inkscape="http://www.inkscape.org/namespaces/inkscape"
   sodipodi:docname="Latvia_road_sign_729.svg"
   inkscape:version="1.0 (4035a4fb49, 2020-05-01)"
   id="svg3845"
   version="1.1"
   viewBox="0 0 195.00003 286.75815"
   height="286.75815mm"
   width="195.00003mm">
  <defs
     id="defs3839" />
  <sodipodi:namedview
     inkscape:document-rotation="0"
     inkscape:window-maximized="1"
     inkscape:window-y="-9"
     inkscape:window-x="-9"
     inkscape:window-height="1001"
     inkscape:window-width="1920"
     showgrid="false"
     inkscape:current-layer="layer1"
     inkscape:document-units="mm"
     inkscape:cy="217.16799"
     inkscape:cx="368.50399"
     inkscape:zoom="0.73905921"
     inkscape:pageshadow="2"
     inkscape:pageopacity="0.0"
     borderopacity="1.0"
     bordercolor="#666666"
     pagecolor="#ffffff"
     id="base" />
  <metadata
     id="metadata3842">
    <rdf:RDF>
      <cc:Work
         rdf:about="">
        <dc:format>image/svg+xml</dc:format>
        <dc:type
           rdf:resource="http://purl.org/dc/dcmitype/StillImage" />
        <dc:title></dc:title>
      </cc:Work>
    </rdf:RDF>
  </metadata>
  <g
     transform="translate(-797.57655,704.38834)"
     id="layer1"
     inkscape:groupmode="layer"
     inkscape:label="Layer 1">
    <path
       d="m 810.72111,-703.95635 h 168.71218 c 6.9917,0 12.7113,5.79215 12.7113,12.87325 v 260.14768 c 0,7.0811 -5.7196,12.87325 -12.7113,12.87325 H 810.72111 c -6.99153,0 -12.71257,-5.79215 -12.71257,-12.87325 V -691.0831 c 0,-7.0811 5.72104,-12.87325 12.71257,-12.87325 z"
       style="fill:#ffdd2e;fill-opacity:1;fill-rule:evenodd;stroke:#000000;stroke-width:0.86398;stroke-linecap:butt;stroke-linejoin:miter;stroke-miterlimit:22.926;stroke-dasharray:none;stroke-opacity:1"
       id="path3536" />
    <path
       d="m 812.69945,-693.38644 h 164.18894 c 2.0179,0 3.6701,1.65191 3.6701,3.67367 v 256.92147 c 0,2.02007 -1.6522,3.67198 -3.6701,3.67198 H 812.69945 c -2.01799,0 -3.66821,-1.65191 -3.66821,-3.67198 v -256.92147 c 0,-2.02176 1.65022,-3.67367 3.66821,-3.67367"
       style="fill:#ffdd2e;fill-opacity:1;fill-rule:evenodd;stroke:none;stroke-width:1.72796"
       id="path3538" />
    <path
       d="m 812.69945,-693.38644 h 164.18894 c 2.0253,0 3.6701,1.64333 3.6701,3.66847 v 256.92329 c 0,2.03372 -1.6448,3.67874 -3.6701,3.67874 H 812.69945 c -2.02488,0 -3.66821,-1.64502 -3.66821,-3.67874 v -256.92329 c 0,-2.02514 1.64333,-3.66847 3.66821,-3.66847 z m 0.117,-5.36536 h 164.51724 c 4.8209,0 8.7468,3.93627 8.7468,8.76772 v 257.94964 c 0,4.82976 -3.9259,8.76772 -8.7468,8.76772 H 812.81645 c -4.81052,0 -8.73834,-3.93796 -8.73834,-8.76772 v -257.94964 c 0,-4.83145 3.92782,-8.76772 8.73834,-8.76772"
       style="fill:#000000;fill-opacity:1;fill-rule:evenodd;stroke:none;stroke-width:1.72796"
       id="path3540" />
    <path
       d="m 836.55599,-668.7907 h 27.4845 c 1.9029,0 3.4438,1.52061 3.4438,3.38156 v 15.59311 c 0,1.87148 -1.5409,3.37129 -3.4438,3.37129 h -27.4845 c -1.9112,0 -3.45278,-1.49981 -3.45278,-3.37129 v -15.59311 c 0,-1.86095 1.54158,-3.38156 3.45278,-3.38156"
       style="fill:#ed1a3a;fill-opacity:1;fill-rule:evenodd;stroke:none;stroke-width:1.72796"
       id="path3542" />
    <path
       d="m 836.55599,-668.7907 h 27.4831 c 1.9004,0 3.4438,1.52061 3.4438,3.38156 v 15.59311 c 0,1.87148 -1.5434,3.37129 -3.4438,3.37129 h -27.4831 c -1.9112,0 -3.45278,-1.49981 -3.45278,-3.37129 v -15.59311 c 0,-1.86095 1.54158,-3.38156 3.45278,-3.38156 z m -0.117,-1.37722 h 27.8533 c 2.7127,0 4.933,2.22053 4.933,4.93337 v 15.35638 c 0,2.71466 -2.2203,4.93506 -4.933,4.93506 h -27.8533 c -2.71256,0 -4.93335,-2.2204 -4.93335,-4.93506 v -15.35638 c 0,-2.71284 2.22079,-4.93337 4.93335,-4.93337"
       style="fill:#ffffff;fill-opacity:1;fill-rule:evenodd;stroke:none;stroke-width:1.72796"
       id="path3544" />
    <path
       d="m 837.89159,-651.55608 5.0403,-13.75972 h 1.7192 l 5.0373,13.75972 h -2.212 l -1.0335,-3.0706 h -5.3033 l -1.0374,3.0706 z m 3.8687,-4.91426 h 4.0609 l -2.0321,-6.02017 -2.0288,6.02017"
       style="fill:#ffffff;fill-opacity:1;fill-rule:evenodd;stroke:none;stroke-width:1.72796"
       id="path3546" />
    <path
       d="m 858.86009,-665.3158 h 2.2135 l -2.9373,5.89238 c 1.633,-0.6708 3.4992,0.104 4.1697,1.73836 0.1573,0.3835 0.2405,0.7995 0.2405,1.2142 v 1.1076 c 0,2.16866 -1.7608,3.93289 -3.9326,3.93289 -2.1689,0 -3.928,-1.76423 -3.928,-3.93289 v -0.6149 c 0,-0.6084 0.1417,-1.2038 0.4069,-1.74694 z m -2.21,9.3379 c 0,-1.0855 0.8814,-1.96638 1.9633,-1.96638 1.0868,0 1.966,0.8814 1.966,1.96638 v 0.6149 c 0,1.0855 -0.8788,1.96638 -1.966,1.96638 -1.0816,0 -1.9633,-0.8814 -1.9633,-1.96638 v -0.6149"
       style="fill:#ffffff;fill-opacity:1;fill-rule:evenodd;stroke:none;stroke-width:1.72796"
       id="path3548" />
    <path
       d="m 887.32669,-646.96656 v -23.5417 h 9.6749 c 3.7114,0 6.7232,3.01002 6.7232,6.72698 0,2.88392 -1.8368,5.44648 -4.5651,6.37091 l 5.4086,10.44381 h -4.2075 l -4.8316,-10.09125 h -4.6238 v 10.09125 z m 3.5787,-13.2431 h 5.8837 c 1.9749,0 3.5717,-1.60186 3.5717,-3.57162 0,-1.97509 -1.5968,-3.57695 -3.5717,-3.57695 h -5.8837 v 7.14857"
       style="fill:#000000;fill-opacity:1;fill-rule:evenodd;stroke:none;stroke-width:1.72796"
       id="path3550" />
    <path
       d="m 908.77039,-646.96656 h 3.5722 v -23.5417 h -3.5722 z"
       style="fill:#000000;fill-opacity:1;fill-rule:nonzero;stroke:none;stroke-width:1.72796"
       id="path3552" />
    <path
       d="m 933.78129,-660.00049 v 4.83821 c 0,4.63957 -3.7637,8.40827 -8.4101,8.40827 -4.6395,0 -8.4047,-3.7687 -8.4047,-8.40827 v -7.15026 c 0,-4.64477 3.7652,-8.40996 8.4047,-8.40996 4.0797,0 7.5667,2.92708 8.2823,6.94122 h -3.6741 c -0.8125,-2.54709 -3.535,-3.95018 -6.0772,-3.13456 -2.0008,0.6357 -3.3625,2.4986 -3.3625,4.6033 v 7.15026 c 0,2.66968 2.1615,4.83132 4.8315,4.83132 2.6749,0 4.8384,-2.16164 4.8384,-4.83132 v -1.47394 h -4.8384 v -3.36427 h 8.4101"
       style="fill:#000000;fill-opacity:1;fill-rule:evenodd;stroke:none;stroke-width:1.72796"
       id="path3554" />
    <path
       d="m 935.88549,-646.96656 8.6175,-23.5417 h 2.9428 l 8.6173,23.5417 h -3.7809 l -1.7727,-5.25473 h -9.0718 l -1.7658,5.25473 z m 6.6151,-8.40996 h 6.9479 l -3.4712,-10.30042 -3.4767,10.30042"
       style="fill:#000000;fill-opacity:1;fill-rule:evenodd;stroke:none;stroke-width:1.72796"
       id="path3556" />
    <path
       d="m 906.61419,-672.45917 h 7.9046 v -2.41514 h -7.9046 z"
       style="fill:#000000;fill-opacity:1;fill-rule:nonzero;stroke:none;stroke-width:1.72796"
       id="path3558" />
    <path
       d="m 871.00609,-465.20433 v -9.7526 h 1.4827 v 8.35991 h 4.7879 v 1.39269 h -6.2706"
       style="fill:#000000;fill-opacity:1;fill-rule:evenodd;stroke:none;stroke-width:1.72796"
       id="path3560" />
    <path
       d="m 878.66979,-465.20433 h 1.4798 v -9.75312 h -1.4798 z"
       style="fill:#000000;fill-opacity:1;fill-rule:nonzero;stroke:none;stroke-width:1.72796"
       id="path3562" />
    <path
       d="m 882.41249,-465.20433 v -9.7526 h 6.2691 v 1.39269 h -4.7899 v 2.7872 h 4.0934 v 1.30468 h -4.0934 v 2.87534 h 4.7899 v 1.39269 h -6.2691"
       style="fill:#000000;fill-opacity:1;fill-rule:evenodd;stroke:none;stroke-width:1.72796"
       id="path3564" />
    <path
       d="m 890.59779,-465.20433 v -9.7526 h 1.4791 v 8.35991 h 4.7881 v 1.39269 h -6.2672"
       style="fill:#000000;fill-opacity:1;fill-rule:evenodd;stroke:none;stroke-width:1.72796"
       id="path3566" />
    <path
       d="m 899.74019,-465.20433 -3.2226,-9.7526 h 1.5674 l 2.2635,7.48722 2.2655,-7.48722 h 1.5639 l -3.2196,9.7526 h -1.2181"
       style="fill:#000000;fill-opacity:1;fill-rule:evenodd;stroke:none;stroke-width:1.72796"
       id="path3568" />
    <path
       d="m 903.65769,-465.20433 3.5683,-9.7526 h 1.222 l 3.5683,9.7526 h -1.5674 l -0.7345,-2.17893 h -3.7549 l -0.7345,2.17893 z m 2.742,-3.48348 h 2.8738 l -1.4363,-4.26634 -1.4375,4.26634"
       style="fill:#000000;fill-opacity:1;fill-rule:evenodd;stroke:none;stroke-width:1.72796"
       id="path3570" />
    <path
       d="m 913.41049,-465.20433 v -9.7526 h 4.0051 c 1.5361,0 2.7836,1.248 2.7836,2.78551 0,1.1947 -0.7605,2.25667 -1.8902,2.63861 l 2.2395,4.32848 h -1.7403 l -2.0024,-4.17989 h -1.9166 v 4.17989 z m 1.4787,-5.48626 h 2.4383 c 0.8177,0 1.4807,-0.6617 1.4807,-1.48083 0,-0.8177 -0.663,-1.47914 -1.4807,-1.47914 h -2.4383 v 2.95997"
       style="fill:#000000;fill-opacity:1;fill-rule:evenodd;stroke:none;stroke-width:1.72796"
       id="path3572" />
    <path
       d="m 922.29019,-465.20433 v -9.7526 h 3.4837 c 1.9229,0 3.4815,1.5587 3.4815,3.48192 v 2.7872 c 0,1.9214 -1.5586,3.48348 -3.4815,3.48348 z m 1.4807,-1.39269 h 2.003 c 1.1037,0 2.0027,-0.8983 2.0027,-2.00447 v -2.95997 c 0,-1.1076 -0.8983,-2.00278 -2.0027,-2.00278 h -2.003 v 6.96722"
       style="fill:#000000;fill-opacity:1;fill-rule:evenodd;stroke:none;stroke-width:1.72796"
       id="path3574" />
    <path
       d="m 931.17209,-465.20433 v -9.7526 h 6.2686 v 1.39269 h -4.7898 v 2.7872 h 4.0938 v 1.30468 h -4.0938 v 2.87534 h 4.7898 v 1.39269 h -6.2686"
       style="fill:#000000;fill-opacity:1;fill-rule:evenodd;stroke:none;stroke-width:1.72796"
       id="path3576" />
    <path
       d="m 906.30659,-476.47923 h 3.4444 v -1.0478 h -3.4444 z"
       style="fill:#000000;fill-opacity:1;fill-rule:nonzero;stroke:none;stroke-width:1.72796"
       id="path3578" />
    <path
       d="m 843.67489,-445.24465 v -60.83792 c 4.5671,1.34771 8.5777,0.9659 12.1495,-0.1456 v 24.59236 l 43.0086,-43.12464 -43.0086,-43.35799 v 23.36204 c -1.932,-0.6734 -3.7169,-1.0244 -5.7956,-1.0543 -2.0494,0 -4.2752,0.1469 -6.3539,0.8775 v -57.85026 l -15.39975,4.68442 21.25605,-36.80027 20.8147,35.80499 -14.5215,-3.65989 v 27.81324 l 49.8876,50.09186 -49.8876,50.20925 v 29.42368 l -12.1495,-0.026"
       style="fill:#000000;fill-opacity:1;fill-rule:evenodd;stroke:none;stroke-width:1.72796"
       id="path3580" />
    <path
       d="m 915.29719,-520.58888 v -9.66615 h 3.9709 c 1.5238,0 2.7597,1.235 2.7597,2.76133 0,1.183 -0.754,2.23587 -1.8736,2.61599 l 2.2208,4.28883 h -1.7281 l -1.9837,-4.14193 h -1.899 v 4.14193 z m 1.467,-5.43777 h 2.4158 c 0.8125,0 1.4669,-0.6552 1.4669,-1.46705 0,-0.8112 -0.6552,-1.46536 -1.4669,-1.46536 h -2.4158 v 2.93241"
       style="fill:#000000;fill-opacity:1;fill-rule:evenodd;stroke:none;stroke-width:1.72796"
       id="path3582" />
    <path
       d="m 924.09919,-520.58888 v -9.66615 h 6.2123 v 1.3806 h -4.7468 v 2.76133 h 4.0556 v 1.2948 h -4.0556 v 2.84934 h 4.7468 v 1.3806 h -6.2123"
       style="fill:#000000;fill-opacity:1;fill-rule:evenodd;stroke:none;stroke-width:1.72796"
       id="path3584" />
    <path
       d="m 932.20859,-520.58888 v -9.66615 h 1.3807 l 2.763,6.30006 2.7611,-6.30006 h 1.3789 v 9.66615 h -1.467 v -6.12911 l -2.0714,4.74851 h -1.2064 l -2.072,-4.74851 v 6.12911 h -1.4669"
       style="fill:#000000;fill-opacity:1;fill-rule:evenodd;stroke:none;stroke-width:1.72796"
       id="path3586" />
    <path
       d="m 942.73719,-520.58888 v -9.66615 h 3.9689 c 1.4293,0 2.5887,1.1596 2.5887,2.58843 0,0.8463 -0.4121,1.63813 -1.1024,2.12199 1.2584,0.7709 1.652,2.41917 0.8814,3.67874 -0.4849,0.793 -1.351,1.2766 -2.2826,1.2766 z m 1.4655,-1.3806 h 2.4172 c 0.8086,0 1.467,-0.6578 1.467,-1.46874 0,-0.8086 -0.6578,-1.46705 -1.467,-1.46705 h -2.4172 z m 0,-4.23007 h 2.331 c 0.7618,0 1.3803,-0.6188 1.3803,-1.37891 0,-0.7644 -0.6188,-1.3806 -1.3803,-1.3806 h -2.331 v 2.75951"
       style="fill:#000000;fill-opacity:1;fill-rule:evenodd;stroke:none;stroke-width:1.72796"
       id="path3588" />
    <path
       d="m 950.33159,-520.58888 3.5371,-9.66615 h 1.2077 l 3.537,9.66615 h -1.5532 l -0.7254,-2.15813 h -3.7236 l -0.728,2.15813 z m 2.7147,-3.45241 h 2.8526 l -1.4273,-4.22838 -1.4253,4.22838"
       style="fill:#000000;fill-opacity:1;fill-rule:evenodd;stroke:none;stroke-width:1.72796"
       id="path3590" />
    <path
       d="m 960.77009,-520.58888 v -8.37018 h -2.6733 v -1.2961 h 6.8172 v 1.2961 h -2.6735 v 8.37018 h -1.4704"
       style="fill:#000000;fill-opacity:1;fill-rule:evenodd;stroke:none;stroke-width:1.72796"
       id="path3592" />
    <path
       d="m 966.29429,-520.58888 v -9.66615 h 6.2138 v 1.3806 h -4.7468 v 2.76133 h 4.0576 v 1.2948 h -4.0576 v 2.84934 h 4.7468 v 1.3806 h -6.2138"
       style="fill:#000000;fill-opacity:1;fill-rule:evenodd;stroke:none;stroke-width:1.72796"
       id="path3594" />
    <path
       d="m 871.86339,-576.12709 v -9.80109 h 1.4894 v 5.07338 l 4.1125,-5.07338 h 1.752 l -3.1534,3.84995 3.5027,5.95114 h -1.7505 l -2.7147,-4.81416 -1.7486,1.83846 v 2.9757 h -1.4894"
       style="fill:#000000;fill-opacity:1;fill-rule:evenodd;stroke:none;stroke-width:1.72796"
       id="path3596" />
    <path
       d="m 880.96599,-576.12709 v -9.80109 h 6.3 v 1.39971 h -4.8158 v 2.79929 h 4.1145 v 1.31326 h -4.1145 v 2.8873 h 4.8158 v 1.40153 h -6.3"
       style="fill:#000000;fill-opacity:1;fill-rule:evenodd;stroke:none;stroke-width:1.72796"
       id="path3598" />
    <path
       d="m 895.66589,-581.55472 v 2.01487 c 0,1.9318 -1.5675,3.50077 -3.5007,3.50077 -1.9323,0 -3.4993,-1.56897 -3.4993,-3.50077 v -2.97739 c 0,-1.93349 1.567,-3.50077 3.4993,-3.50077 1.6982,0 3.1499,1.2181 3.4468,2.89081 h -1.5292 c -0.338,-1.0608 -1.4719,-1.64489 -2.5294,-1.30624 -0.8346,0.2665 -1.3999,1.0426 -1.3999,1.9162 v 2.97739 c 0,1.1115 0.9009,2.01123 2.0117,2.01123 1.1115,0 2.0146,-0.8996 2.0146,-2.01123 v -0.6136 h -2.0146 v -1.4014 h 3.5007"
       style="fill:#000000;fill-opacity:1;fill-rule:evenodd;stroke:none;stroke-width:1.72796"
       id="path3600" />
    <path
       d="m 897.41449,-585.92818 h 1.4895 v 6.38833 c 0,1.1115 0.9009,2.01123 2.0132,2.01123 1.1115,0 2.0132,-0.8996 2.0132,-2.01123 v -6.38833 h 1.4874 v 6.38833 c 0,1.9318 -1.5674,3.50077 -3.5006,3.50077 -1.9318,0 -3.5027,-1.56897 -3.5027,-3.50077 v -6.38833"
       style="fill:#000000;fill-opacity:1;fill-rule:evenodd;stroke:none;stroke-width:1.72796"
       id="path3602" />
    <path
       d="m 906.51719,-576.12709 v -9.80109 h 1.4014 l 2.8013,6.38833 2.7992,-6.38833 h 1.3995 v 9.80109 h -1.4876 v -6.21387 l -2.1013,4.81234 h -1.2233 l -2.1008,-4.81234 v 6.21387 h -1.4881"
       style="fill:#000000;fill-opacity:1;fill-rule:evenodd;stroke:none;stroke-width:1.72796"
       id="path3604" />
    <path
       d="m 916.49469,-577.38861 0.962,-1.1349 c 1.0309,0.8723 2.4207,1.1973 3.7324,0.8697 0.7007,-0.1768 1.1297,-0.8892 0.9555,-1.59146 -0.1326,-0.5239 -0.5681,-0.9126 -1.1024,-0.9828 l -1.59,-0.2106 c -1.5341,-0.2028 -2.6126,-1.60875 -2.4103,-3.14314 0.1716,-1.2662 1.1713,-2.25849 2.4416,-2.41397 1.3804,-0.1677 2.7768,0.1781 3.9225,0.9659 l -0.8411,1.2246 c -0.8502,-0.5837 -1.8799,-0.8385 -2.9031,-0.7137 -0.7202,0.091 -1.2324,0.741 -1.1453,1.46185 0.065,0.5941 0.5395,1.0647 1.1323,1.144 l 1.5894,0.2093 c 1.5346,0.2041 2.6111,1.61044 2.4089,3.14483 -0.1521,1.1388 -0.9815,2.07012 -2.0979,2.35001 -1.776,0.442 -3.6559,0.005 -5.054,-1.1791"
       style="fill:#000000;fill-opacity:1;fill-rule:evenodd;stroke:none;stroke-width:1.72796"
       id="path3606" />
    <path
       d="m 874.52389,-572.72993 v -2.22573 h 1.2896 v 1.2597 l -1.2896,0.9659"
       style="fill:#000000;fill-opacity:1;fill-rule:evenodd;stroke:none;stroke-width:1.72796"
       id="path3608" />
    <path
       d="m 849.41159,-544.26877 c 10.3351,0 18.7174,8.38227 18.7174,18.71896 0,10.33487 -8.3823,18.71727 -18.7174,18.71727 -10.3346,0 -18.71728,-8.3824 -18.71728,-18.71727 0,-10.33669 8.38268,-18.71896 18.71728,-18.71896"
       style="fill:#ffffff;fill-opacity:1;fill-rule:evenodd;stroke:none;stroke-width:1.72796"
       id="path3610" />
    <path
       d="m 849.41159,-545.69435 c 11.0954,0 20.1432,9.0493 20.1432,20.14285 0,11.09524 -9.0478,20.14454 -20.1432,20.14454 -11.0953,0 -20.1426,-9.0493 -20.1426,-20.14454 0,-11.09355 9.0473,-20.14285 20.1426,-20.14285 z m 0,5.31518 c 8.1867,0 14.8604,6.67342 14.8604,14.86043 0,8.18363 -6.6737,14.85874 -14.8604,14.85874 -8.1839,0 -14.8592,-6.67511 -14.8592,-14.85874 0,-8.18701 6.6753,-14.86043 14.8592,-14.86043"
       style="fill:#ed1c24;fill-opacity:1;fill-rule:evenodd;stroke:none;stroke-width:1.72796"
       id="path3612" />
  </g>
</svg>
