<?xml version="1.0" encoding="UTF-8" standalone="no"?>
<svg
   xmlns:dc="http://purl.org/dc/elements/1.1/"
   xmlns:cc="http://creativecommons.org/ns#"
   xmlns:rdf="http://www.w3.org/1999/02/22-rdf-syntax-ns#"
   xmlns:svg="http://www.w3.org/2000/svg"
   xmlns="http://www.w3.org/2000/svg"
   xmlns:sodipodi="http://sodipodi.sourceforge.net/DTD/sodipodi-0.dtd"
   xmlns:inkscape="http://www.inkscape.org/namespaces/inkscape"
   width="245.53333mm"
   height="158.73615mm"
   viewBox="0 0 245.53331 158.73614"
   version="1.1"
   id="svg6774"
   inkscape:version="1.0 (4035a4fb49, 2020-05-01)"
   sodipodi:docname="Latvia_road_sign_718.svg">
  <defs
     id="defs6768" />
  <sodipodi:namedview
     id="base"
     pagecolor="#ffffff"
     bordercolor="#666666"
     borderopacity="1.0"
     inkscape:pageopacity="0.0"
     inkscape:pageshadow="2"
     inkscape:zoom="0.20491755"
     inkscape:cx="-115.82837"
     inkscape:cy="248.21489"
     inkscape:document-units="mm"
     inkscape:current-layer="layer1"
     inkscape:document-rotation="0"
     showgrid="false"
     fit-margin-top="0"
     fit-margin-left="0"
     fit-margin-right="0"
     fit-margin-bottom="0"
     inkscape:window-width="1920"
     inkscape:window-height="1001"
     inkscape:window-x="-9"
     inkscape:window-y="-9"
     inkscape:window-maximized="1" />
  <metadata
     id="metadata6771">
    <rdf:RDF>
      <cc:Work
         rdf:about="">
        <dc:format>image/svg+xml</dc:format>
        <dc:type
           rdf:resource="http://purl.org/dc/dcmitype/StillImage" />
        <dc:title></dc:title>
      </cc:Work>
    </rdf:RDF>
  </metadata>
  <g
     inkscape:label="Layer 1"
     inkscape:groupmode="layer"
     id="layer1"
     transform="translate(295.09928,100.4037)">
    <g
       id="g2362"
       style="opacity:1"
       inkscape:groupmode="layer" />
    <g
       inkscape:groupmode="layer"
       transform="matrix(7.0715152,0,0,7.0715152,2882.069,1799.2373)"
       style="opacity:1;stroke-width:0.141412"
       id="g9533">
      <path
         sodipodi:nodetypes="sssssssss"
         id="path9529"
         d="m -447.58847,-268.54514 h 31.3181 c 0.88746,0 1.61231,0.72623 1.61231,1.61231 v 19.04724 c 0,0.88608 -0.72485,1.61231 -1.61231,1.61231 h -31.3181 c -0.88746,0 -1.61369,-0.72623 -1.61369,-1.61231 v -19.04724 c 0,-0.88608 0.72623,-1.61231 1.61369,-1.61231 z"
         style="color:#000000;font-style:normal;font-variant:normal;font-weight:normal;font-stretch:normal;font-size:medium;line-height:normal;font-family:sans-serif;font-variant-ligatures:normal;font-variant-position:normal;font-variant-caps:normal;font-variant-numeric:normal;font-variant-alternates:normal;font-variant-east-asian:normal;font-feature-settings:normal;font-variation-settings:normal;text-indent:0;text-align:start;text-decoration:none;text-decoration-line:none;text-decoration-style:solid;text-decoration-color:#000000;letter-spacing:normal;word-spacing:normal;text-transform:none;writing-mode:lr-tb;direction:ltr;text-orientation:mixed;dominant-baseline:auto;baseline-shift:baseline;text-anchor:start;white-space:normal;shape-padding:0;shape-margin:0;inline-size:0;clip-rule:nonzero;display:inline;overflow:visible;visibility:visible;isolation:auto;mix-blend-mode:normal;color-interpolation:sRGB;color-interpolation-filters:linearRGB;solid-color:#000000;solid-opacity:1;vector-effect:none;fill:#ffffff;fill-opacity:1;fill-rule:nonzero;stroke:none;stroke-width:0.0249436;stroke-linecap:butt;stroke-linejoin:miter;stroke-miterlimit:22.926;stroke-dasharray:none;stroke-dashoffset:0;stroke-opacity:1;color-rendering:auto;image-rendering:auto;shape-rendering:auto;text-rendering:auto;enable-background:accumulate;stop-color:#000000;stop-opacity:1" />
      <path
         sodipodi:nodetypes="ssssssssssssssssss"
         id="path9531"
         d="m -447.58789,-268.63281 c -0.93558,0 -1.70313,0.76495 -1.70313,1.69922 v 19.04882 c 0,0.93427 0.76755,1.69922 1.70313,1.69922 h 31.31716 c 0.93558,0 1.70117,-0.76504 1.70117,-1.69922 v -19.04882 c 0,-0.93418 -0.76559,-1.69922 -1.70117,-1.69922 z m 0,0.17578 h 31.31716 c 0.83935,0 1.52539,0.68545 1.52539,1.52344 v 19.04882 c 0,0.83799 -0.68604,1.52344 -1.52539,1.52344 h -31.31716 c -0.83935,0 -1.52539,-0.68555 -1.52539,-1.52344 v -19.04882 c 0,-0.83789 0.68604,-1.52344 1.52539,-1.52344 z"
         style="color:#000000;font-style:normal;font-variant:normal;font-weight:normal;font-stretch:normal;font-size:medium;line-height:normal;font-family:sans-serif;font-variant-ligatures:normal;font-variant-position:normal;font-variant-caps:normal;font-variant-numeric:normal;font-variant-alternates:normal;font-variant-east-asian:normal;font-feature-settings:normal;font-variation-settings:normal;text-indent:0;text-align:start;text-decoration:none;text-decoration-line:none;text-decoration-style:solid;text-decoration-color:#000000;letter-spacing:normal;word-spacing:normal;text-transform:none;writing-mode:lr-tb;direction:ltr;text-orientation:mixed;dominant-baseline:auto;baseline-shift:baseline;text-anchor:start;white-space:normal;shape-padding:0;shape-margin:0;inline-size:0;clip-rule:nonzero;display:inline;overflow:visible;visibility:visible;isolation:auto;mix-blend-mode:normal;color-interpolation:sRGB;color-interpolation-filters:linearRGB;solid-color:#000000;solid-opacity:1;vector-effect:none;fill:#000000;fill-opacity:1;fill-rule:nonzero;stroke:none;stroke-width:0.0249436;stroke-linecap:butt;stroke-linejoin:miter;stroke-miterlimit:22.926;stroke-dasharray:none;stroke-dashoffset:0;stroke-opacity:1;color-rendering:auto;image-rendering:auto;shape-rendering:auto;text-rendering:auto;enable-background:accumulate;stop-color:#000000;stop-opacity:1" />
    </g>
    <path
       id="path9535"
       style="fill:#263894;fill-opacity:1;fill-rule:evenodd;stroke:none;stroke-width:0.352777"
       d="m -283.8684,-94.618517 c -2.60189,0.0566 -5.38882,1.919251 -5.38882,5.670971 V 47.099962 c 0,2.329 1.9682,5.447213 5.76864,5.447213 h 222.597263 c 3.41066,0 5.49566,-3.127648 5.48597,-5.612577 l 0.007,-135.891962 c 0.0495,-3.789176 -2.81416,-5.552672 -5.42498,-5.661153 z"
       sodipodi:nodetypes="csssscccc" />
    <path
       d="m -166.50028,-51.063976 c 0.23973,-0.14164 0.16907,0.50331 -0.0707,0.26304 z"
       style="fill:#ffffff;fill-opacity:1;fill-rule:evenodd;stroke:#231f20;stroke-width:0.0762;stroke-linecap:square;stroke-linejoin:miter;stroke-miterlimit:22.926;stroke-dasharray:none;stroke-opacity:1"
       id="path8780" />
    <path
       d="m -238.19599,-79.423956 0.0252,92.44752 -15.08254,-4.8130795 21.39616,35.5024595 20.31614,-35.4771595 -14.14382,4.7877795 -0.0227,-92.44752 h -12.48846"
       style="fill:#ffffff;fill-opacity:1;fill-rule:evenodd;stroke:none;stroke-width:0.352777"
       id="path8782" />
    <path
       d="m -167.31787,41.714874 -0.0252,-92.45006 15.08002,4.81561 -21.39616,-35.50246 -20.31614,35.47717 14.14635,-4.79032 0.0227,92.45006 h 12.48845"
       style="fill:#ffffff;fill-opacity:1;fill-rule:evenodd;stroke:none;stroke-width:0.352777"
       id="path8784" />
    <path
       d="m -107.79014,41.469544 -0.0227,-92.45006 15.079998,4.81561 -21.396148,-35.50246 -20.31614,35.47717 14.14383,-4.79032 0.0252,92.45006 h 12.48593"
       style="fill:#ffffff;fill-opacity:1;fill-rule:evenodd;stroke:none;stroke-width:0.352777"
       id="path8786" />
    <path
       d="m -173.81066,-41.938606 c 17.74981,0 32.19393,14.47971 32.19393,32.2676105 0,17.77273 -14.44412,32.2524295 -32.19393,32.2524295 -17.73214,0 -32.17626,-14.4796995 -32.17626,-32.2524295 0,-17.7879005 14.44412,-32.2676105 32.17626,-32.2676105"
       style="fill:#ffffff;fill-opacity:1;fill-rule:evenodd;stroke:none;stroke-width:0.352777"
       id="path8788" />
    <path
       d="m -182.07994,-2.4045855 c 0.0959,-1.4543 -1.42069,-3.79128 -3.20475,-4.00121 -1.27434,-0.18716 -2.4553,0 -3.68926,1.22161 -0.57029,0.66012 -1.04722,1.6971 -0.96395,2.60255 -0.91601,-0.0759 -1.68313,0.10117 -1.91529,-1.02433 l 0.0328,-6.6543405 3.84571,-5.15705 c 0.0934,-0.18463 0.32805,-0.3212 0.57282,-0.3212 l 5.76352,-0.005 c 0.39365,-0.0202 0.70908,0.38697 0.66871,0.68289 l 0.005,8.8294505 15.26928,0.0127 c -1.76136,0.67024 -2.7026,1.98543 -2.8111,3.8014 z m 21.52739,-0.0506 c 0.0757,-1.50488 -0.86554,-3.29808 -2.67484,-3.8191 l 5.77109,0.0303 -0.0151,1.94496 z m -19.05947,-4.83584 0.0177,-11.9378505 c 0.0227,-0.76888 0.55516,-0.96363 1.43331,-0.96363 l 19.44555,-0.0405 c 1.07246,0 1.19106,0.43502 1.19106,0.95351 l 0.005,11.9884305 z m -9.78334,-3.4751305 c -0.28263,-0.0202 -0.34571,-0.20233 -0.21197,-0.39202 l 2.40988,-3.38661 4.56993,-0.003 v 3.79382 z m 24.97691,6.8010405 c 0.90086,0 1.63519,0.71323 1.63519,1.59087 0,0.87763 -0.73433,1.59087 -1.63519,1.59087 -0.90339,0 -1.63771,-0.71324 -1.63771,-1.59087 0,-0.87764 0.73432,-1.59087 1.63771,-1.59087 z m -0.005,-1.66928 c 1.76892,0 3.21232,1.44418 3.21232,3.21715 0,1.7755 -1.4434,3.21968 -3.21232,3.21968 -1.76893,0 -3.21233,-1.44418 -3.21233,-3.21968 0,-1.77297 1.4434,-3.21715 3.21233,-3.21715 z m -21.60057,1.62881 c 0.90087,0 1.63518,0.71324 1.63518,1.58834 0,0.87764 -0.73431,1.59087 -1.63518,1.59087 -0.90339,0 -1.63771,-0.71323 -1.63771,-1.59087 0,-0.8751 0.73432,-1.58834 1.63771,-1.58834 z m -0.005,-1.66928 c 1.76893,0 3.2098,1.44418 3.2098,3.21715 0,1.77551 -1.44087,3.21968 -3.2098,3.21968 -1.77145,0 -3.21233,-1.44417 -3.21233,-3.21968 0,-1.77297 1.44088,-3.21715 3.21233,-3.21715"
       style="fill:#231f20;fill-opacity:1;fill-rule:evenodd;stroke:none;stroke-width:0.352777"
       id="path8790" />
    <path
       d="m -173.80561,-40.686646 c 17.04073,0 30.93978,13.93086 30.93978,31.0131205 0,17.08226 -13.89905,31.0131195 -30.93978,31.0131195 -17.04325,0 -30.94483,-13.9308595 -30.94483,-31.0131195 0,-17.0822605 13.90158,-31.0131205 30.94483,-31.0131205 z m -0.0151,8.22751 c 12.54397,0 22.76891,10.24834 22.76891,22.8210205 0,12.57015 -10.22494,22.8210195 -22.76891,22.8210195 -12.54146,0 -22.77144,-10.2508695 -22.77144,-22.8210195 0,-12.5726805 10.22998,-22.8210205 22.77144,-22.8210205"
       style="fill:#ed1a3a;fill-opacity:1;fill-rule:evenodd;stroke:none;stroke-width:0.352777"
       id="path8792" />
  </g>
</svg>
