<?xml version="1.0" encoding="UTF-8" standalone="no"?>
<svg
   xmlns:dc="http://purl.org/dc/elements/1.1/"
   xmlns:cc="http://creativecommons.org/ns#"
   xmlns:rdf="http://www.w3.org/1999/02/22-rdf-syntax-ns#"
   xmlns:svg="http://www.w3.org/2000/svg"
   xmlns="http://www.w3.org/2000/svg"
   xmlns:sodipodi="http://sodipodi.sourceforge.net/DTD/sodipodi-0.dtd"
   xmlns:inkscape="http://www.inkscape.org/namespaces/inkscape"
   sodipodi:docname="Latvia_road_sign_748.svg"
   inkscape:version="1.0 (4035a4fb49, 2020-05-01)"
   id="svg3845"
   version="1.1"
   viewBox="0 0 487.2714 195.368"
   height="195.368mm"
   width="487.27139mm">
  <defs
     id="defs3839" />
  <sodipodi:namedview
     showguides="false"
     inkscape:document-rotation="0"
     inkscape:window-maximized="1"
     inkscape:window-y="-9"
     inkscape:window-x="-9"
     inkscape:window-height="1001"
     inkscape:window-width="1920"
     showgrid="false"
     inkscape:current-layer="layer1"
     inkscape:document-units="mm"
     inkscape:cy="-418.48309"
     inkscape:cx="1284.4807"
     inkscape:zoom="0.29260408"
     inkscape:pageshadow="2"
     inkscape:pageopacity="0.0"
     borderopacity="1.0"
     bordercolor="#666666"
     pagecolor="#ffffff"
     id="base" />
  <metadata
     id="metadata3842">
    <rdf:RDF>
      <cc:Work
         rdf:about="">
        <dc:format>image/svg+xml</dc:format>
        <dc:type
           rdf:resource="http://purl.org/dc/dcmitype/StillImage" />
        <dc:title></dc:title>
      </cc:Work>
    </rdf:RDF>
  </metadata>
  <g
     transform="translate(-438.10294,-133.30669)"
     id="layer1"
     inkscape:groupmode="layer"
     inkscape:label="Layer 1">
    <path
       d="m 924.40033,146.79439 v 168.39249 c 0,6.88223 -5.64097,12.5138 -12.53591,12.5138 H 451.61598 c -6.89494,0 -12.53904,-5.63157 -12.53904,-12.5138 V 146.79439 c 0,-6.87909 5.6441,-12.5137 12.53904,-12.5137 h 460.24844 c 6.89494,0 12.53591,5.63148 12.53591,12.5137 z"
       style="fill:#ffffff;fill-opacity:1;stroke:#000000;stroke-width:1.948;stroke-linecap:butt;stroke-linejoin:miter;stroke-miterlimit:22.926;stroke-dasharray:none;stroke-opacity:1"
       id="path509"
       inkscape:connector-curvature="0" />
    <path
       d="m 916.95899,149.81704 v 163.08627 c 0,5.14193 -4.21018,9.3522 -9.35211,9.3522 H 454.66701 c -5.14193,0 -9.3522,-4.21027 -9.3522,-9.3522 V 149.81704 c 0,-5.14193 4.21027,-9.35211 9.3522,-9.35211 h 452.93987 c 5.14193,0 9.35211,4.21018 9.35211,9.35211"
       style="fill:#806b64;fill-opacity:1;fill-rule:evenodd;stroke:none;stroke-width:3.15844"
       id="path507"
       inkscape:connector-curvature="0" />
    <path
       d="M 495.27509,169.66152 H 595.70106 V 270.08749 H 495.27509 Z m 100.42597,0 z"
       style="fill:#ffffff;fill-opacity:1;fill-rule:evenodd;stroke:#000000;stroke-width:3.79013;stroke-linecap:butt;stroke-linejoin:miter;stroke-miterlimit:22.926;stroke-dasharray:none;stroke-opacity:1"
       id="path511"
       inkscape:connector-curvature="0" />
    <path
       d="M 616.84678,217.67308 V 177.5798 h 6.08639 v 20.7636 l 16.82496,-20.7636 h 7.16022 l -12.88964,15.75113 14.32043,24.34215 h -7.16021 l -11.09877,-19.68977 -7.15699,7.52031 v 12.16946 h -6.08639"
       style="fill:#ffffff;fill-opacity:1;fill-rule:evenodd;stroke:none;stroke-width:3.15844"
       id="path513"
       inkscape:connector-curvature="0" />
    <path
       d="m 651.92769,177.5798 h 6.08629 v 26.13293 c 0,4.54816 3.68589,8.23405 8.23405,8.23405 4.54816,0 8.23405,-3.68589 8.23405,-8.23405 V 177.5798 h 6.0863 v 26.13293 c 0,7.90879 -6.41156,14.32044 -14.32035,14.32044 -7.90878,0 -14.32034,-6.41165 -14.32034,-14.32044 V 177.5798"
       style="fill:#ffffff;fill-opacity:1;fill-rule:evenodd;stroke:none;stroke-width:3.15844"
       id="path515"
       inkscape:connector-curvature="0" />
    <path
       d="M 689.15939,217.67308 V 177.5798 h 16.4681 c 6.32642,0 11.45572,5.1293 11.45572,11.45563 0,4.91138 -3.13008,9.27323 -7.78246,10.84933 l 9.21325,17.78832 h -7.16022 l -8.23405,-17.18193 h -7.87404 v 17.18193 z m 6.0863,-22.55126 h 10.02179 c 3.36376,0 6.0863,-2.72577 6.0863,-6.08639 0,-3.36054 -2.72254,-6.0863 -6.0863,-6.0863 h -10.02179 v 12.17269"
       style="fill:#ffffff;fill-opacity:1;fill-rule:evenodd;stroke:none;stroke-width:3.15844"
       id="path517"
       inkscape:connector-curvature="0" />
    <path
       d="m 722.80941,217.67308 v -5.00933 l 18.25899,-29.71462 h -17.54193 v -5.36933 h 25.05901 v 4.65237 l -18.25898,29.71461 h 18.25898 v 5.7263 h -25.77607"
       style="fill:#ffffff;fill-opacity:1;fill-rule:evenodd;stroke:none;stroke-width:3.15844"
       id="path519"
       inkscape:connector-curvature="0" />
    <path
       d="M 756.45953,217.67308 V 177.5798 h 25.77607 v 5.7262 h -19.68977 v 11.45572 h 16.82819 v 5.37247 h -16.82819 v 11.81259 h 19.68977 v 5.7263 h -25.77607"
       style="fill:#ffffff;fill-opacity:1;fill-rule:evenodd;stroke:none;stroke-width:3.15844"
       id="path521"
       inkscape:connector-curvature="0" />
    <path
       d="M 790.10956,217.67308 V 177.5798 h 5.72942 l 11.45573,26.13293 11.45563,-26.13293 h 5.72629 v 40.09328 h -6.08316 V 192.2571 l -8.59414,19.68968 H 804.79 l -8.59406,-19.68968 v 25.41598 h -6.08638"
       style="fill:#ffffff;fill-opacity:1;fill-rule:evenodd;stroke:none;stroke-width:3.15844"
       id="path523"
       inkscape:connector-curvature="0" />
    <path
       d="M 833.78452,217.67308 V 177.5798 h 25.77606 v 5.7262 H 839.8709 v 11.45572 h 16.82497 v 5.37247 H 839.8709 v 11.81259 h 19.68968 v 5.7263 h -25.77606"
       style="fill:#ffffff;fill-opacity:1;fill-rule:evenodd;stroke:none;stroke-width:3.15844"
       id="path525"
       inkscape:connector-curvature="0" />
    <path
       d="m 865.29001,212.5153 3.93228,-4.64288 c 4.21967,3.57219 9.90487,4.89563 15.26794,3.55643 2.87734,-0.71983 4.62713,-3.6354 3.90703,-6.51273 -0.5336,-2.13827 -2.31831,-3.73012 -4.50402,-4.02074 L 877.39,200.0332 c -6.27575,-0.83084 -10.68495,-6.58847 -9.85429,-12.86117 0.68491,-5.1798 4.79133,-9.23841 9.97748,-9.86691 v 0 c 5.65369,-0.68491 11.36413,0.71982 16.0576,3.95116 l -3.45221,5.00934 c -3.46797,-2.38465 -7.69078,-3.42697 -11.87258,-2.91844 -2.94368,0.35723 -5.04094,3.03214 -4.68398,5.97582 0.29366,2.43192 2.19825,4.35549 4.62713,4.67762 l 6.50324,0.86218 c 6.27261,0.83085 10.68182,6.58848 9.85115,12.86118 -0.61597,4.65873 -4.01751,8.46781 -8.57516,9.60799 -7.26756,1.81613 -14.9647,0.0269 -20.67837,-4.81667 v 0"
       style="fill:#ffffff;fill-opacity:1;fill-rule:evenodd;stroke:none;stroke-width:3.15844"
       id="path527"
       inkscape:connector-curvature="0" />
    <path
       d="m 662.45157,286.56821 3.92915,-4.64611 c 4.2228,3.57541 9.90487,4.89877 15.27107,3.55966 2.87734,-0.71983 4.62713,-3.6354 3.90694,-6.51274 -0.5336,-2.13826 -2.31831,-3.73011 -4.50393,-4.02073 l -6.50324,-0.86218 c -6.27584,-0.83085 -10.68495,-6.58848 -9.85429,-12.86118 0.68491,-5.17989 4.79133,-9.2384 9.97748,-9.867 v 0 c 5.6536,-0.68491 11.36405,0.71983 16.05751,3.95126 l -3.45212,5.00924 c -3.4712,-2.38778 -7.69087,-3.42687 -11.87267,-2.91834 -2.94359,0.35723 -5.04085,3.03205 -4.68711,5.97573 0.29724,2.43201 2.20147,4.35871 4.62713,4.67771 l 6.50646,0.86218 c 6.27261,0.83084 10.68182,6.58847 9.85115,12.86118 -0.61597,4.65864 -4.0176,8.46772 -8.57516,9.60798 h -0.002 c -7.26757,1.81604 -14.96157,0.0269 -20.67515,-4.81666 v 0"
       style="fill:#ffffff;fill-opacity:1;fill-rule:evenodd;stroke:none;stroke-width:3.15844"
       id="path529"
       inkscape:connector-curvature="0" />
    <path
       d="M 707.91419,291.72598 694.6709,251.6327 h 6.44003 l 9.31111,30.78845 9.30474,-30.78845 h 6.44326 l -13.24338,40.09328 h -5.01247"
       style="fill:#ffffff;fill-opacity:1;fill-rule:evenodd;stroke:none;stroke-width:3.15844"
       id="path531"
       inkscape:connector-curvature="0" />
    <path
       d="M 731.18251,291.72598 V 251.6327 h 25.77606 v 5.72934 H 737.2688 v 11.45572 h 16.82506 v 5.3662 H 737.2688 v 11.81573 h 19.68977 v 5.72629 h -25.77606"
       style="fill:#ffffff;fill-opacity:1;fill-rule:evenodd;stroke:none;stroke-width:3.15844"
       id="path533"
       inkscape:connector-curvature="0" />
    <path
       d="m 764.83566,291.72598 h 6.08451 V 251.6327 h -6.08451 z"
       style="fill:#ffffff;fill-opacity:1;fill-rule:nonzero;stroke:none;stroke-width:3.15844"
       id="path535"
       inkscape:connector-curvature="0" />
    <path
       d="m 807.21261,280.27026 c -1.38343,7.78873 -8.81842,12.9781 -16.60401,11.59468 -6.83173,-1.21601 -11.81259,-7.15709 -11.81259,-14.0993 v -12.17268 c 0,-7.90556 6.41165,-14.32035 14.3173,-14.32035 6.94221,0 12.88642,4.98086 14.0993,11.81572 h -6.25372 c -1.38343,-4.33337 -6.02005,-6.72115 -10.35029,-5.33773 -3.41112,1.08959 -5.7262,4.2639 -5.7262,7.84236 v 12.17268 c 0,4.54816 3.68589,8.23405 8.23091,8.23405 3.58481,0 6.75268,-2.31517 7.84558,-5.72943 h 6.25372"
       style="fill:#ffffff;fill-opacity:1;fill-rule:evenodd;stroke:none;stroke-width:3.15844"
       id="path537"
       inkscape:connector-curvature="0" />
    <path
       d="M 814.37274,291.72598 V 251.6327 h 25.77607 v 5.72934 h -19.68969 v 11.45572 h 16.82497 v 5.3662 h -16.82497 v 11.81573 h 19.68969 v 5.72629 h -25.77607"
       style="fill:#ffffff;fill-opacity:1;fill-rule:evenodd;stroke:none;stroke-width:3.15844"
       id="path539"
       inkscape:connector-curvature="0" />
    <path
       d="m 671.01724,239.73479 h 4.99358 l 3.42052,3.79332 3.74283,-3.74274 4.99975,-0.0537 v 0.46467 l -6.08629,7.04329 h -5.13244 l -5.93795,-6.94221 v -0.56584"
       style="fill:#ffffff;fill-opacity:1;fill-rule:evenodd;stroke:none;stroke-width:3.15844"
       id="path541"
       inkscape:connector-curvature="0" />
    <path
       d="M 481.94961,183.65983 H 582.37558 V 284.0857 H 481.94961 Z m 100.42597,0 z"
       style="fill:#ffffff;fill-opacity:1;fill-rule:evenodd;stroke:#000000;stroke-width:3.79013;stroke-linecap:butt;stroke-linejoin:miter;stroke-miterlimit:22.926;stroke-dasharray:none;stroke-opacity:1"
       id="path543"
       inkscape:connector-curvature="0" />
    <path
       d="M 468.62413,197.65804 H 569.0501 V 298.08392 H 468.62413 Z m 100.42597,0 z"
       style="fill:#ffffff;fill-opacity:1;fill-rule:evenodd;stroke:#000000;stroke-width:3.79013;stroke-linecap:butt;stroke-linejoin:miter;stroke-miterlimit:22.926;stroke-dasharray:none;stroke-opacity:1"
       id="path545"
       inkscape:connector-curvature="0" />
    <path
       d="m 498.63258,226.57986 0.003,-5.24927 c 0,-0.0269 0,-0.11639 0,-0.15758 0,-3.00053 -2.44464,-5.44517 -5.44204,-5.44517 -3.00044,0 -5.44508,2.44464 -5.44508,5.44517 0,2.93419 2.36245,5.37883 5.3346,5.45457 z m 46.81758,4.98409 c 5.75781,0 10.42603,-4.66822 10.42603,-10.3913 0,-5.72316 -4.66822,-10.39442 -10.39129,-10.39442 -5.72307,0 -10.39443,4.67126 -10.39443,10.39442 0,0.0358 0,0.11998 0.003,0.12624 l -0.0627,5.36934 -31.47711,0.0448 0.0358,-5.25563 c 0,-0.11997 0,-0.20234 0,-0.28112 0,-5.72316 -4.66813,-10.39443 -10.39129,-10.39443 -5.72307,0 -10.39129,4.67127 -10.39129,10.39443 0,5.72307 4.66822,10.39129 10.39129,10.39129 0.0448,0 0.11997,0 0.14504,0 l 5.26199,0.0269 -0.0269,31.76755 -5.37883,0.0179 c 0.0716,0 -0.003,0 -0.003,0 -5.72307,0 -10.39129,4.73769 -10.39129,10.46076 0,5.7263 4.66822,10.39452 10.39129,10.39452 5.72307,0 10.39129,-4.66822 10.39129,-10.39452 0,-0.0358 0,-0.16115 0,-0.15488 l -0.0179,-5.31249 31.54337,0.0358 -0.0179,5.40407 c -0.003,-0.13609 -0.003,-0.009 -0.003,0.0269 0,5.72629 4.67127,10.39451 10.39443,10.39451 5.72307,0 10.39129,-4.66822 10.39129,-10.39451 0,-5.72307 -4.66822,-10.47653 -10.39129,-10.47653 0,0 -0.0806,0 -0.11729,0.003 l -5.46101,-0.0358 0.19876,-31.78966 z m -46.81444,36.78951 v 5.29359 c 0,0.0448 0,0.15131 0,0.19249 0,3.00053 -2.44464,5.44517 -5.44204,5.44517 -3.00053,0 -5.44517,-2.44464 -5.44517,-5.44517 0,-2.97528 2.42575,-5.41992 5.2115,-5.44203 z m 46.78284,0.0448 -5.38196,0.009 0.003,5.30308 c 0,-0.0448 0,0.0627 0,0.12624 0,3.00044 2.44464,5.44507 5.44517,5.44507 2.9974,0 5.44203,-2.44463 5.44203,-5.44507 0,-2.9974 -2.44463,-5.44204 -5.44203,-5.44204 z m -5.38196,-41.77359 5.34408,0.003 c 0.0179,-0.009 0.0806,-0.009 0.10386,-0.009 2.9974,0 5.44203,-2.44464 5.44203,-5.44204 0,-3.00053 -2.44463,-5.44516 -5.44203,-5.44516 -3.00053,0 -5.44517,2.44463 -5.44517,5.44516 0,0.0627 0,0.12624 0,0.0913 z m -36.39477,4.83564 -0.0358,31.86863 31.46441,-0.003 -0.003,-31.84974 -31.42339,-0.0179"
       style="fill:#000000;fill-opacity:1;fill-rule:evenodd;stroke:none;stroke-width:3.15844"
       id="path547"
       inkscape:connector-curvature="0" />
    <path
       d="m 498.63258,226.57986 0.003,-5.24927 c 0,-0.0269 0,-0.11639 0,-0.15758 0,-3.00053 -2.44464,-5.44517 -5.44204,-5.44517 -3.00044,0 -5.44508,2.44464 -5.44508,5.44517 0,2.93419 2.36245,5.37883 5.3346,5.45457 z m 46.81758,4.98409 c 5.75781,0 10.42603,-4.66822 10.42603,-10.3913 0,-5.72316 -4.66822,-10.39442 -10.39129,-10.39442 -5.72307,0 -10.39443,4.67126 -10.39443,10.39442 0,0.0358 0,0.11998 0.003,0.12624 l -0.0627,5.36934 -31.47711,0.0448 0.0358,-5.25563 c 0,-0.11997 0,-0.20234 0,-0.28112 0,-5.72316 -4.66813,-10.39443 -10.39129,-10.39443 -5.72307,0 -10.39129,4.67127 -10.39129,10.39443 0,5.72307 4.66822,10.39129 10.39129,10.39129 0.0448,0 0.11997,0 0.14504,0 l 5.26199,0.0269 -0.0269,31.76755 -5.37883,0.0179 c 0.0716,0 -0.003,0 -0.003,0 -5.72307,0 -10.39129,4.73769 -10.39129,10.46076 0,5.7263 4.66822,10.39452 10.39129,10.39452 5.72307,0 10.39129,-4.66822 10.39129,-10.39452 0,-0.0358 0,-0.16115 0,-0.15488 l -0.0179,-5.31249 31.54337,0.0358 -0.0179,5.40407 c -0.003,-0.13609 -0.003,-0.009 -0.003,0.0269 0,5.72629 4.67127,10.39451 10.39443,10.39451 5.72307,0 10.39129,-4.66822 10.39129,-10.39451 0,-5.72307 -4.66822,-10.47653 -10.39129,-10.47653 0,0 -0.0806,0 -0.11729,0.003 l -5.46101,-0.0358 0.19876,-31.78966 5.34408,0.0269 m -46.81444,36.7896 v 5.29359 c 0,0.0448 0,0.15131 0,0.19249 0,3.00044 -2.44463,5.44508 -5.44203,5.44508 -3.00054,0 -5.44517,-2.44464 -5.44517,-5.44508 0,-2.97529 2.42574,-5.41992 5.21149,-5.44204 z m 46.78284,0.0448 -5.38196,0.009 0.003,5.303 c 0,-0.0448 0,0.0627 0,0.12624 0,3.00053 2.44464,5.44516 5.44517,5.44516 2.9974,0 5.44204,-2.44463 5.44204,-5.44516 0,-2.99731 -2.44464,-5.44195 -5.44204,-5.44195 h -0.0448 m -5.40408,-41.77359 5.34409,0.003 c 0.0179,-0.009 0.0806,-0.009 0.10386,-0.009 2.9974,0 5.44203,-2.44464 5.44203,-5.44195 0,-3.00053 -2.44463,-5.44517 -5.44203,-5.44517 -3.00054,0 -5.44517,2.44464 -5.44517,5.44517 0,0.0627 0,0.12624 0,0.0913 z m -36.39477,4.83555 -0.0358,31.86872 31.4644,-0.003 -0.003,-31.84983 z"
       style="fill:none;stroke:#000000;stroke-width:1.57922;stroke-linecap:butt;stroke-linejoin:miter;stroke-miterlimit:22.926;stroke-dasharray:none;stroke-opacity:1"
       id="path549"
       inkscape:connector-curvature="0" />
  </g>
</svg>
