<?xml version="1.0" encoding="UTF-8" standalone="no"?>
<svg
   xmlns:dc="http://purl.org/dc/elements/1.1/"
   xmlns:cc="http://creativecommons.org/ns#"
   xmlns:rdf="http://www.w3.org/1999/02/22-rdf-syntax-ns#"
   xmlns:svg="http://www.w3.org/2000/svg"
   xmlns="http://www.w3.org/2000/svg"
   xmlns:sodipodi="http://sodipodi.sourceforge.net/DTD/sodipodi-0.dtd"
   xmlns:inkscape="http://www.inkscape.org/namespaces/inkscape"
   sodipodi:docname="Latvia_road_sign_722.svg"
   inkscape:version="1.0 (4035a4fb49, 2020-05-01)"
   id="svg6774"
   version="1.1"
   viewBox="0 0 158.73614 238.12499"
   height="238.125mm"
   width="158.73615mm">
  <defs
     id="defs6768" />
  <sodipodi:namedview
     inkscape:window-maximized="1"
     inkscape:window-y="-9"
     inkscape:window-x="-9"
     inkscape:window-height="1001"
     inkscape:window-width="1920"
     fit-margin-bottom="0"
     fit-margin-right="0"
     fit-margin-left="0"
     fit-margin-top="0"
     showgrid="false"
     inkscape:document-rotation="0"
     inkscape:current-layer="layer1"
     inkscape:document-units="mm"
     inkscape:cy="699.67801"
     inkscape:cx="1193.6253"
     inkscape:zoom="0.40983509"
     inkscape:pageshadow="2"
     inkscape:pageopacity="0.0"
     borderopacity="1.0"
     bordercolor="#666666"
     pagecolor="#ffffff"
     id="base" />
  <metadata
     id="metadata6771">
    <rdf:RDF>
      <cc:Work
         rdf:about="">
        <dc:format>image/svg+xml</dc:format>
        <dc:type
           rdf:resource="http://purl.org/dc/dcmitype/StillImage" />
        <dc:title></dc:title>
      </cc:Work>
    </rdf:RDF>
  </metadata>
  <g
     transform="translate(255.40488,140.09809)"
     id="layer1"
     inkscape:groupmode="layer"
     inkscape:label="Layer 1">
    <g
       inkscape:groupmode="layer"
       style="opacity:1"
       id="g2362" />
    <g
       id="g9533"
       style="opacity:1;stroke-width:0.141412"
       transform="matrix(7.0715152,0,0,7.0715152,2882.069,1799.2373)"
       inkscape:groupmode="layer">
      <path
         style="color:#000000;font-style:normal;font-variant:normal;font-weight:normal;font-stretch:normal;font-size:medium;line-height:normal;font-family:sans-serif;font-variant-ligatures:normal;font-variant-position:normal;font-variant-caps:normal;font-variant-numeric:normal;font-variant-alternates:normal;font-variant-east-asian:normal;font-feature-settings:normal;font-variation-settings:normal;text-indent:0;text-align:start;text-decoration:none;text-decoration-line:none;text-decoration-style:solid;text-decoration-color:#000000;letter-spacing:normal;word-spacing:normal;text-transform:none;writing-mode:lr-tb;direction:ltr;text-orientation:mixed;dominant-baseline:auto;baseline-shift:baseline;text-anchor:start;white-space:normal;shape-padding:0;shape-margin:0;inline-size:0;clip-rule:nonzero;display:inline;overflow:visible;visibility:visible;isolation:auto;mix-blend-mode:normal;color-interpolation:sRGB;color-interpolation-filters:linearRGB;solid-color:#000000;solid-opacity:1;vector-effect:none;fill:#ffffff;fill-opacity:1;fill-rule:nonzero;stroke:none;stroke-width:0.0249436;stroke-linecap:butt;stroke-linejoin:miter;stroke-miterlimit:22.926;stroke-dasharray:none;stroke-dashoffset:0;stroke-opacity:1;color-rendering:auto;image-rendering:auto;shape-rendering:auto;text-rendering:auto;enable-background:accumulate;stop-color:#000000;stop-opacity:1"
         d="m -421.318,-272.54375 v 30.27047 c 0,0.88746 -0.72623,1.61231 -1.61231,1.61231 h -19.04724 c -0.88608,0 -1.61231,-0.72485 -1.61231,-1.61231 v -30.27047 c 0,-0.88746 0.72623,-1.61369 1.61231,-1.61369 h 19.04724 c 0.88608,0 1.61231,0.72623 1.61231,1.61369 z"
         id="path9529"
         sodipodi:nodetypes="sssssssss" />
      <path
         style="color:#000000;font-style:normal;font-variant:normal;font-weight:normal;font-stretch:normal;font-size:medium;line-height:normal;font-family:sans-serif;font-variant-ligatures:normal;font-variant-position:normal;font-variant-caps:normal;font-variant-numeric:normal;font-variant-alternates:normal;font-variant-east-asian:normal;font-feature-settings:normal;font-variation-settings:normal;text-indent:0;text-align:start;text-decoration:none;text-decoration-line:none;text-decoration-style:solid;text-decoration-color:#000000;letter-spacing:normal;word-spacing:normal;text-transform:none;writing-mode:lr-tb;direction:ltr;text-orientation:mixed;dominant-baseline:auto;baseline-shift:baseline;text-anchor:start;white-space:normal;shape-padding:0;shape-margin:0;inline-size:0;clip-rule:nonzero;display:inline;overflow:visible;visibility:visible;isolation:auto;mix-blend-mode:normal;color-interpolation:sRGB;color-interpolation-filters:linearRGB;solid-color:#000000;solid-opacity:1;vector-effect:none;fill:#000000;fill-opacity:1;fill-rule:nonzero;stroke:none;stroke-width:0.0249436;stroke-linecap:butt;stroke-linejoin:miter;stroke-miterlimit:22.926;stroke-dasharray:none;stroke-dashoffset:0;stroke-opacity:1;color-rendering:auto;image-rendering:auto;shape-rendering:auto;text-rendering:auto;enable-background:accumulate;stop-color:#000000;stop-opacity:1"
         d="m -421.23048,-272.54296 c 0,-0.93558 -0.76495,-1.70313 -1.69922,-1.70313 h -19.04882 c -0.93427,0 -1.69922,0.76755 -1.69922,1.70313 v 30.26953 c 0,0.93558 0.76504,1.70117 1.69922,1.70117 h 19.04882 c 0.93418,0 1.69922,-0.76559 1.69922,-1.70117 z m -0.17578,0 v 30.26953 c 0,0.83935 -0.68545,1.52539 -1.52344,1.52539 h -19.04882 c -0.83799,0 -1.52344,-0.68604 -1.52344,-1.52539 v -30.26953 c 0,-0.83935 0.68555,-1.52539 1.52344,-1.52539 h 19.04882 c 0.83789,0 1.52344,0.68604 1.52344,1.52539 z"
         id="path9531"
         sodipodi:nodetypes="ssssssssssssssssss" />
    </g>
    <path
       sodipodi:nodetypes="csssscccc"
       d="m -102.44879,-128.87244 c -0.0566,-2.60189 -1.91925,-5.38882 -5.67097,-5.38882 h -136.04751 c -2.329,0 -5.44721,1.9682 -5.44721,5.76864 V 86.696313 c 0,3.41066 3.12765,5.49566 5.61258,5.48597 l 135.89196,0.007 c 3.78918,0.0495 5.55267,-2.81416 5.66115,-5.42498 z"
       style="fill:#263894;fill-opacity:1;fill-rule:evenodd;stroke:none;stroke-width:0.352777"
       id="path9535" />
    <path
       sodipodi:nodetypes="ccc"
       id="path8780"
       style="fill:#ffffff;fill-opacity:1;fill-rule:evenodd;stroke:#231f20;stroke-width:0.0762;stroke-linecap:square;stroke-linejoin:miter;stroke-miterlimit:22.926;stroke-dasharray:none;stroke-opacity:1"
       d="m -166.31314,-50.954451 c 0.14164,0.23973 -0.50331,0.16907 -0.26304,-0.0707 z" />
    <path
       style="fill:#ffffff;fill-opacity:1;fill-rule:evenodd;stroke:#211e1e;stroke-width:0.0762;stroke-linecap:square;stroke-linejoin:miter;stroke-miterlimit:22.926;stroke-opacity:1"
       d="m -190.00187,12.559937 c -0.1482,-0.23644 0.49396,-0.16755 0.25686,0.0689 z m 0,0"
       id="path1311" />
    <path
       id="path1323"
       style="fill:#ffffff;fill-opacity:1;fill-rule:evenodd;stroke:none;stroke-width:0.352777"
       d="m -157.65434,-119.93159 8.87346,12.02852 -88.04912,28.064045 3.80133,11.888044 88.0528,-28.06405 0.008,15.828542 27.29838,-31.146961 z m -0.3631,57.311013 8.86235,12.028512 -88.04171,28.052979 3.80503,11.899115 88.04913,-28.06405 0.0114,15.821141 27.29838,-31.139564 z m 1.68949,57.5106255 8.89198,11.925003 c -35.6371,12.9526455 -47.19665,35.8736055 -46.80146,75.4905525 l 12.02271,-0.0295 c -0.29641,-27.127601 8.81417,-54.671691 38.60229,-63.336346 v 15.643695 l 27.06868,-31.0693455 z" />
  </g>
</svg>
