<?xml version="1.0" encoding="UTF-8" standalone="no"?>
<svg
   xmlns:dc="http://purl.org/dc/elements/1.1/"
   xmlns:cc="http://creativecommons.org/ns#"
   xmlns:rdf="http://www.w3.org/1999/02/22-rdf-syntax-ns#"
   xmlns:svg="http://www.w3.org/2000/svg"
   xmlns="http://www.w3.org/2000/svg"
   xmlns:sodipodi="http://sodipodi.sourceforge.net/DTD/sodipodi-0.dtd"
   xmlns:inkscape="http://www.inkscape.org/namespaces/inkscape"
   width="234.62192mm"
   height="158.75mm"
   viewBox="0 0 234.6219 158.74999"
   version="1.1"
   id="svg6774"
   inkscape:version="1.0 (4035a4fb49, 2020-05-01)"
   sodipodi:docname="Latvia_road_sign_709.svg">
  <defs
     id="defs6768" />
  <sodipodi:namedview
     showguides="false"
     id="base"
     pagecolor="#ffffff"
     bordercolor="#666666"
     borderopacity="1.0"
     inkscape:pageopacity="0.0"
     inkscape:pageshadow="2"
     inkscape:zoom="0.57959434"
     inkscape:cx="1014.7344"
     inkscape:cy="153.30961"
     inkscape:document-units="mm"
     inkscape:current-layer="g6105"
     inkscape:document-rotation="0"
     showgrid="false"
     fit-margin-top="0"
     fit-margin-left="0"
     fit-margin-right="0"
     fit-margin-bottom="0"
     inkscape:window-width="1920"
     inkscape:window-height="1001"
     inkscape:window-x="-9"
     inkscape:window-y="-9"
     inkscape:window-maximized="1" />
  <metadata
     id="metadata6771">
    <rdf:RDF>
      <cc:Work
         rdf:about="">
        <dc:format>image/svg+xml</dc:format>
        <dc:type
           rdf:resource="http://purl.org/dc/dcmitype/StillImage" />
        <dc:title></dc:title>
      </cc:Work>
    </rdf:RDF>
  </metadata>
  <g
     inkscape:label="Layer 1"
     inkscape:groupmode="layer"
     id="layer1"
     transform="translate(-280.46132,269.71058)">
    <g
       id="g2362"
       style="opacity:1"
       inkscape:groupmode="layer">
      <g
         inkscape:groupmode="layer"
         id="g3941"
         style="opacity:1;stroke-width:0.245448"
         transform="matrix(4.0741859,0,0,4.0741859,823.51417,939.26853)" />
      <g
         id="g6105"
         transform="matrix(1.444105,0,0,-1.444105,77.496863,482.60043)"
         style="opacity:1;stroke-width:0.244288">
        <path
           style="color:#000000;font-style:normal;font-variant:normal;font-weight:normal;font-stretch:normal;font-size:medium;line-height:normal;font-family:sans-serif;font-variant-ligatures:normal;font-variant-position:normal;font-variant-caps:normal;font-variant-numeric:normal;font-variant-alternates:normal;font-variant-east-asian:normal;font-feature-settings:normal;font-variation-settings:normal;text-indent:0;text-align:start;text-decoration:none;text-decoration-line:none;text-decoration-style:solid;text-decoration-color:#000000;letter-spacing:normal;word-spacing:normal;text-transform:none;writing-mode:lr-tb;direction:ltr;text-orientation:mixed;dominant-baseline:auto;baseline-shift:baseline;text-anchor:start;white-space:normal;shape-padding:0;shape-margin:0;inline-size:0;clip-rule:nonzero;display:inline;overflow:visible;visibility:visible;isolation:auto;mix-blend-mode:normal;color-interpolation:sRGB;color-interpolation-filters:linearRGB;solid-color:#000000;solid-opacity:1;vector-effect:none;fill:#ffffff;fill-opacity:1;fill-rule:nonzero;stroke:none;stroke-width:0.122144;stroke-linecap:butt;stroke-linejoin:miter;stroke-miterlimit:22.926;stroke-dasharray:none;stroke-dashoffset:0;stroke-opacity:1;color-rendering:auto;image-rendering:auto;shape-rendering:auto;text-rendering:auto;enable-background:accumulate;stop-color:#000000;stop-opacity:1"
           d="M 149.12891,520.70312 H 294.4375 c 4.58203,0 8.32812,-3.75 8.32812,-8.33203 v -92.76562 c 0,-4.58203 -3.74609,-8.33203 -8.32812,-8.33203 H 149.12891 c -4.58204,0 -8.33204,3.75 -8.33204,8.33203 v 92.76562 c 0,4.58203 3.75,8.33203 8.33204,8.33203 z m 0,0"
           id="path6107" />
        <path
           style="color:#000000;font-style:normal;font-variant:normal;font-weight:normal;font-stretch:normal;font-size:medium;line-height:normal;font-family:sans-serif;font-variant-ligatures:normal;font-variant-position:normal;font-variant-caps:normal;font-variant-numeric:normal;font-variant-alternates:normal;font-variant-east-asian:normal;font-feature-settings:normal;font-variation-settings:normal;text-indent:0;text-align:start;text-decoration:none;text-decoration-line:none;text-decoration-style:solid;text-decoration-color:#000000;letter-spacing:normal;word-spacing:normal;text-transform:none;writing-mode:lr-tb;direction:ltr;text-orientation:mixed;dominant-baseline:auto;baseline-shift:baseline;text-anchor:start;white-space:normal;shape-padding:0;shape-margin:0;inline-size:0;clip-rule:nonzero;display:inline;overflow:visible;visibility:visible;isolation:auto;mix-blend-mode:normal;color-interpolation:sRGB;color-interpolation-filters:linearRGB;solid-color:#000000;solid-opacity:1;vector-effect:none;fill:#000000;fill-opacity:1;fill-rule:nonzero;stroke:none;stroke-width:0.122144;stroke-linecap:butt;stroke-linejoin:miter;stroke-miterlimit:22.926;stroke-dasharray:none;stroke-dashoffset:0;stroke-opacity:1;color-rendering:auto;image-rendering:auto;shape-rendering:auto;text-rendering:auto;enable-background:accumulate;stop-color:#000000;stop-opacity:1"
           d="m 149.12891,411.02344 c -4.71845,0 -8.58203,3.8636 -8.58203,8.58203 v 92.76562 c 0,4.71844 3.86358,8.58203 8.58203,8.58203 H 294.4375 c 4.71843,0 8.57812,-3.86374 8.57812,-8.58203 v -92.76562 c 0,-4.71829 -3.85969,-8.58203 -8.57812,-8.58203 z m 0,0.5 H 294.4375 c 4.44563,0 8.07812,3.63626 8.07812,8.08203 v 92.76562 c 0,4.44577 -3.63249,8.08203 -8.07812,8.08203 H 149.12891 c -4.44564,0 -8.08203,-3.6364 -8.08203,-8.08203 v -92.76562 c 0,-4.44563 3.63639,-8.08203 8.08203,-8.08203 z"
           id="path6109" />
      </g>
      <path
         id="path2737"
         style="fill:#000000;fill-opacity:1;fill-rule:evenodd;stroke:none;stroke-width:0.352777"
         d="m 371.90179,-225.5518 c -7.89743,0.2145 -14.44106,6.04151 -14.53693,14.80772 l 0.0246,83.7736 h 5.6248 l 0.0675,-84.25381 c 0.0733,-4.29845 3.79502,-8.95168 8.82118,-8.97981 l 51.30662,0.0287 c 4.67079,-0.0508 9.19987,3.673 9.3183,8.85712 v 37.52908 c -0.0205,3.81897 -3.76752,8.66955 -9.3183,8.64139 h -59.01092 v 5.27999 h 59.72164 c 9.08771,-0.0246 14.18726,-7.80578 14.23229,-14.25349 v -37.17585 c 0.045,-7.18663 -6.35885,-14.22533 -13.92348,-14.25345 z m -39.29543,53.6166 -14.55814,9.31408 14.43541,9.34789 -1.69865,-6.60003 25.47987,0.0287 v -5.34771 l -25.80141,0.0287 z" />
      <path
         id="path2743"
         style="fill:#263894;fill-opacity:1;fill-rule:nonzero;stroke:none;stroke-width:0.352777"
         d="m 297.59242,-252.89532 v 77.03398 h 50.41395 v -77.03398 z m 0.0246,102.58785 v 23.37084 h 50.39066 v -23.37084 z" />
      <path
         id="path2749"
         style="fill:#263894;fill-opacity:1;fill-rule:nonzero;stroke:none;stroke-width:0.352777"
         d="m 373.49258,-252.87838 v 18.6725 h 49.27582 v -18.6725 z m 73.8355,0 v 18.63234 h 51.38489 v -18.63234 z m -74.56321,42.16177 v 34.8341 H 422.779 v -34.8341 z m 74.36648,0.008 v 83.72919 h 51.50757 v -83.72919 z m -74.00477,60.39224 v 23.37715 h 49.64608 v -23.37715 z" />
      <g
         id="g6099"
         transform="matrix(1.444105,0,0,-1.444105,77.496863,482.60043)"
         style="opacity:1;fill:#000000;fill-opacity:1;stroke-width:0.244288">
        <path
           style="color:#000000;font-style:normal;font-variant:normal;font-weight:normal;font-stretch:normal;font-size:medium;line-height:normal;font-family:sans-serif;font-variant-ligatures:normal;font-variant-position:normal;font-variant-caps:normal;font-variant-numeric:normal;font-variant-alternates:normal;font-variant-east-asian:normal;font-feature-settings:normal;font-variation-settings:normal;text-indent:0;text-align:start;text-decoration:none;text-decoration-line:none;text-decoration-style:solid;text-decoration-color:#000000;letter-spacing:normal;word-spacing:normal;text-transform:none;writing-mode:lr-tb;direction:ltr;text-orientation:mixed;dominant-baseline:auto;baseline-shift:baseline;text-anchor:start;white-space:normal;shape-padding:0;shape-margin:0;inline-size:0;clip-rule:nonzero;display:inline;overflow:visible;visibility:visible;isolation:auto;mix-blend-mode:normal;color-interpolation:sRGB;color-interpolation-filters:linearRGB;solid-color:#000000;solid-opacity:1;vector-effect:none;fill:#000000;fill-opacity:1;fill-rule:evenodd;stroke:none;stroke-width:0.0041529;stroke-linecap:butt;stroke-linejoin:miter;stroke-miterlimit:22.926;stroke-dasharray:none;stroke-dashoffset:0;stroke-opacity:1;color-rendering:auto;image-rendering:auto;shape-rendering:auto;text-rendering:auto;enable-background:accumulate;stop-color:#000000;stop-opacity:1"
           d="m 148.93359,517.48047 h 145.69532 c 2.5,0 4.54296,-2.04297 4.54296,-4.55078 v -93.88282 c 0,-2.50781 -2.04296,-4.54687 -4.54296,-4.54687 H 148.93359 c -2.5,0 -4.53906,2.03906 -4.53906,4.54687 v 93.88282 c 0,2.50781 2.03906,4.55078 4.53906,4.55078 z m 0.69922,-2.87891 h 144.28906 c 1.33594,0 2.4336,-1.10156 2.4336,-2.44531 v -92.33594 c 0,-1.34375 -1.09766,-2.4414 -2.4336,-2.4414 H 149.63281 c -1.32422,0 -2.42578,1.09765 -2.42578,2.4414 v 92.33594 c 0,1.34375 1.10156,2.44531 2.42578,2.44531 z m 0,0"
           id="path6101" />
      </g>
    </g>
  </g>
</svg>
