<?xml version="1.0" encoding="UTF-8" standalone="no"?>
<svg
   xmlns:dc="http://purl.org/dc/elements/1.1/"
   xmlns:cc="http://creativecommons.org/ns#"
   xmlns:rdf="http://www.w3.org/1999/02/22-rdf-syntax-ns#"
   xmlns:svg="http://www.w3.org/2000/svg"
   xmlns="http://www.w3.org/2000/svg"
   xmlns:sodipodi="http://sodipodi.sourceforge.net/DTD/sodipodi-0.dtd"
   xmlns:inkscape="http://www.inkscape.org/namespaces/inkscape"
   sodipodi:docname="Latvia_road_sign_704A.svg"
   inkscape:version="1.0 (4035a4fb49, 2020-05-01)"
   id="svg6774"
   version="1.1"
   viewBox="0 0 183.82598 47.529996"
   height="47.529999mm"
   width="183.826mm">
  <defs
     id="defs6768" />
  <sodipodi:namedview
     inkscape:window-maximized="1"
     inkscape:window-y="-9"
     inkscape:window-x="-9"
     inkscape:window-height="1001"
     inkscape:window-width="1920"
     fit-margin-bottom="0"
     fit-margin-right="0"
     fit-margin-left="0"
     fit-margin-top="0"
     showgrid="false"
     inkscape:document-rotation="0"
     inkscape:current-layer="g4251"
     inkscape:document-units="mm"
     inkscape:cy="225.1071"
     inkscape:cx="366.68041"
     inkscape:zoom="1.4721938"
     inkscape:pageshadow="2"
     inkscape:pageopacity="0.0"
     borderopacity="1.0"
     bordercolor="#666666"
     pagecolor="#ffffff"
     id="base" />
  <metadata
     id="metadata6771">
    <rdf:RDF>
      <cc:Work
         rdf:about="">
        <dc:format>image/svg+xml</dc:format>
        <dc:type
           rdf:resource="http://purl.org/dc/dcmitype/StillImage" />
        <dc:title></dc:title>
      </cc:Work>
    </rdf:RDF>
  </metadata>
  <g
     transform="translate(-335.37765,515.23048)"
     id="layer1"
     inkscape:groupmode="layer"
     inkscape:label="Layer 1">
    <g
       inkscape:groupmode="layer"
       style="opacity:1"
       id="g2362">
      <g
         inkscape:groupmode="layer"
         id="g4251"
         style="opacity:1;stroke-width:0.245448"
         transform="matrix(4.0741859,0,0,4.0741859,1019.3516,778.12493)">
        <g
           id="g9018"
           transform="matrix(0.32416482,0,0,-0.32416482,-217.40938,-133.68272)"
           style="opacity:1;stroke-width:0.0655623">
          <path
             style="color:#000000;font-style:normal;font-variant:normal;font-weight:normal;font-stretch:normal;font-size:medium;line-height:normal;font-family:sans-serif;font-variant-ligatures:normal;font-variant-position:normal;font-variant-caps:normal;font-variant-numeric:normal;font-variant-alternates:normal;font-variant-east-asian:normal;font-feature-settings:normal;font-variation-settings:normal;text-indent:0;text-align:start;text-decoration:none;text-decoration-line:none;text-decoration-style:solid;text-decoration-color:#000000;letter-spacing:normal;word-spacing:normal;text-transform:none;writing-mode:lr-tb;direction:ltr;text-orientation:mixed;dominant-baseline:auto;baseline-shift:baseline;text-anchor:start;white-space:normal;shape-padding:0;shape-margin:0;inline-size:0;clip-rule:nonzero;display:inline;overflow:visible;visibility:visible;isolation:auto;mix-blend-mode:normal;color-interpolation:sRGB;color-interpolation-filters:linearRGB;solid-color:#000000;solid-opacity:1;vector-effect:none;fill:#ffffff;fill-opacity:1;fill-rule:nonzero;stroke:none;stroke-width:0.133556;stroke-linecap:butt;stroke-linejoin:miter;stroke-miterlimit:22.926;stroke-dasharray:none;stroke-dashoffset:0;stroke-opacity:1;color-rendering:auto;image-rendering:auto;shape-rendering:auto;text-rendering:auto;enable-background:accumulate;stop-color:#000000;stop-opacity:1"
             d="m 159.81002,566.64844 h 125.14527 c 3.72656,0 6.77344,-3.04688 6.77344,-6.77344 v -21.94141 c 0,-3.72656 -3.04688,-6.77343 -6.77344,-6.77343 H 159.81002 c -3.72266,0 -6.76954,3.04687 -6.76954,6.77343 V 559.875 c 0,3.72656 3.04688,6.77344 6.76954,6.77344 z"
             id="path9020" />
          <path
             style="color:#000000;font-style:normal;font-variant:normal;font-weight:normal;font-stretch:normal;font-size:medium;line-height:normal;font-family:sans-serif;font-variant-ligatures:normal;font-variant-position:normal;font-variant-caps:normal;font-variant-numeric:normal;font-variant-alternates:normal;font-variant-east-asian:normal;font-feature-settings:normal;font-variation-settings:normal;text-indent:0;text-align:start;text-decoration:none;text-decoration-line:none;text-decoration-style:solid;text-decoration-color:#000000;letter-spacing:normal;word-spacing:normal;text-transform:none;writing-mode:lr-tb;direction:ltr;text-orientation:mixed;dominant-baseline:auto;baseline-shift:baseline;text-anchor:start;white-space:normal;shape-padding:0;shape-margin:0;inline-size:0;clip-rule:nonzero;display:inline;overflow:visible;visibility:visible;isolation:auto;mix-blend-mode:normal;color-interpolation:sRGB;color-interpolation-filters:linearRGB;solid-color:#000000;solid-opacity:1;vector-effect:none;fill:#211e1e;fill-opacity:1;fill-rule:nonzero;stroke:none;stroke-width:0.133556;stroke-linecap:butt;stroke-linejoin:miter;stroke-miterlimit:22.926;stroke-dasharray:none;stroke-dashoffset:0;stroke-opacity:1;color-rendering:auto;image-rendering:auto;shape-rendering:auto;text-rendering:auto;enable-background:accumulate;stop-color:#000000;stop-opacity:1"
             d="m 159.81055,530.91016 c -3.85907,0 -7.01953,3.16061 -7.01953,7.02343 V 559.875 c 0,3.86283 3.16046,7.02344 7.01953,7.02344 h 125.14453 c 3.86283,0 7.02344,-3.16061 7.02344,-7.02344 v -21.94141 c 0,-3.86282 -3.16061,-7.02343 -7.02344,-7.02343 z m 0,0.5 h 125.14453 c 3.59029,0 6.52344,2.93314 6.52344,6.52343 V 559.875 c 0,3.59029 -2.93315,6.52344 -6.52344,6.52344 H 159.81055 c -3.58625,0 -6.51953,-2.93315 -6.51953,-6.52344 v -21.94141 c 0,-3.59029 2.93328,-6.52343 6.51953,-6.52343 z"
             id="path9022" />
        </g>
        <path
           id="path9014"
           style="color:#000000;font-style:normal;font-variant:normal;font-weight:normal;font-stretch:normal;font-size:medium;line-height:normal;font-family:sans-serif;font-variant-ligatures:normal;font-variant-position:normal;font-variant-caps:normal;font-variant-numeric:normal;font-variant-alternates:normal;font-variant-east-asian:normal;font-feature-settings:normal;font-variation-settings:normal;text-indent:0;text-align:start;text-decoration:none;text-decoration-line:none;text-decoration-style:solid;text-decoration-color:#000000;letter-spacing:normal;word-spacing:normal;text-transform:none;writing-mode:lr-tb;direction:ltr;text-orientation:mixed;dominant-baseline:auto;baseline-shift:baseline;text-anchor:start;white-space:normal;shape-padding:0;shape-margin:0;inline-size:0;clip-rule:nonzero;display:inline;overflow:visible;visibility:visible;opacity:1;isolation:auto;mix-blend-mode:normal;color-interpolation:sRGB;color-interpolation-filters:linearRGB;solid-color:#000000;solid-opacity:1;vector-effect:none;fill:#000000;fill-opacity:1;fill-rule:nonzero;stroke:none;stroke-width:0.14746;stroke-linecap:butt;stroke-linejoin:miter;stroke-miterlimit:22.926;stroke-dasharray:none;stroke-dashoffset:0;stroke-opacity:1;color-rendering:auto;image-rendering:auto;shape-rendering:auto;text-rendering:auto;enable-background:accumulate;stop-color:#000000;stop-opacity:1"
           d="m -165.66204,-316.64384 c -0.77844,0 -1.44022,0.59122 -1.44022,1.34097 v 7.36922 c 0,0.74979 0.66178,1.341 1.44022,1.341 h 40.68238 c 0.77945,0 1.44022,-0.59162 1.44022,-1.341 v -7.36922 c 0,-0.74934 -0.66077,-1.34097 -1.44022,-1.34097 z m 0,0.55086 h 40.68238 c 0.502,0 0.88704,0.36688 0.88704,0.79011 v 7.36922 c 0,0.42323 -0.38504,0.79015 -0.88704,0.79015 h -40.68238 c -0.50047,0 -0.88701,-0.36726 -0.88701,-0.79015 v -7.36922 c 0,-0.42278 0.38654,-0.79011 0.88701,-0.79011 z m 37.38928,2.24033 -1.32862,2.83296 v 0.48863 h 1.64253 v 0.59499 h 0.55984 v -0.59499 h 0.31522 v -0.52424 h -0.31522 v -1.11829 h -0.55984 v 1.11829 h -1.01429 l 1.32959,-2.79735 z m -31.87959,0.17857 -3.66107,2.20473 3.66107,2.03378 -0.48241,-1.47773 3.72898,-0.004 v -1.20803 l -3.72045,0.004 z m 14.69238,0.11531 v 0.83953 h -0.27891 v 0.45348 h 0.27891 v 1.71422 c 0,0.34705 0.28228,0.62966 0.6306,0.62966 h 0.34966 v -0.52423 h -0.24446 c -0.0973,0 -0.17559,-0.0786 -0.17559,-0.17484 v -1.64488 h 0.42024 v -0.45348 h -0.42024 v -0.83954 z m 5.05906,0.77926 c -0.1314,7.1e-4 -0.26355,0.015 -0.39414,0.0475 -0.35827,0.0861 -0.61902,0.39635 -0.64055,0.76358 -0.03,0.46343 0.32159,0.86248 0.78491,0.89033 l 0.59406,0.0382 c 0.11006,0.007 0.20478,0.0771 0.24409,0.18082 0.0543,0.14451 -0.0187,0.30549 -0.16323,0.35977 -0.43053,0.16099 -0.91646,0.0569 -1.24314,-0.2673 l -0.39414,0.3965 c 0.48118,0.47868 1.19822,0.63299 1.83387,0.39366 0.31035,-0.11531 0.52154,-0.40268 0.54179,-0.73314 0.03,-0.4622 -0.32159,-0.85998 -0.78491,-0.89037 l -0.59406,-0.0337 c -0.12279,-0.007 -0.22537,-0.0951 -0.25457,-0.21414 -0.0337,-0.15087 0.0573,-0.30249 0.20665,-0.33806 0.35453,-0.085 0.72685,-0.001 1.01051,0.22575 l 0.34817,-0.43686 c -0.31335,-0.25158 -0.70075,-0.38328 -1.09501,-0.38081 z m -12.73881,0.0262 c -0.69518,0 -1.25884,0.56381 -1.25884,1.26026 v 0.34817 c 0,0.37482 0.16585,0.72939 0.45442,0.96869 0.53438,0.44449 1.32865,0.371 1.77311,-0.16323 l -0.43068,-0.35865 c -0.1329,0.15949 -0.3302,0.25345 -0.53801,0.25345 -0.38625,0 -0.70042,-0.3141 -0.70042,-0.70041 v -0.34817 c 0,-0.2089 0.0936,-0.40646 0.25308,-0.53944 0.29762,-0.24559 0.73837,-0.20553 0.98531,0.0921 l 0.43068,-0.3579 c -0.23922,-0.28752 -0.59514,-0.4549 -0.96869,-0.4549 z m 2.61073,0 c -0.63696,0 -1.15345,0.51698 -1.15345,1.1539 v 0.55939 c 0,0.47231 0.28752,0.89651 0.72558,1.07123 0.53183,0.21414 1.14217,0.0636 1.51572,-0.371 l -0.42401,-0.36464 c -0.21789,0.25457 -0.57395,0.34068 -0.8842,0.21639 -0.22537,-0.0899 -0.37325,-0.30924 -0.37325,-0.55224 v -0.0693 h 1.74743 v -0.49006 c 0,-0.63692 -0.51694,-1.15389 -1.15386,-1.15389 z m 3.18435,9.8e-4 c -0.26394,0.007 -0.52222,0.12841 -0.7009,0.35004 v -0.31523 h -0.55984 v 2.79736 h 0.55984 v -1.71328 c 0,-0.30886 0.24933,-0.55984 0.55841,-0.55984 0.30886,0 0.55939,0.25083 0.55939,0.55984 v 1.71328 h 0.55984 v -1.888 c 0,-0.2864 -0.12916,-0.55606 -0.35079,-0.7346 -0.15237,-0.12317 -0.33132,-0.19093 -0.51237,-0.20665 -0.0378,-0.003 -0.0756,-0.004 -0.11343,-0.003 z m 4.89569,0 c -0.26431,0.007 -0.52342,0.12841 -0.70278,0.35004 v -0.31523 h -0.55842 v 2.79736 h 0.55842 v -1.71328 c 0,-0.13665 0.0509,-0.26955 0.14189,-0.37213 0.20515,-0.23061 0.55826,-0.25195 0.78873,-0.0457 l 0.39886,-0.49144 h -0.002 c -0.15162,-0.12317 -0.32982,-0.19093 -0.51094,-0.20666 -0.0378,-0.003 -0.0756,-0.004 -0.11344,-0.003 z m -8.08004,0.5589 c 0.32795,0 0.59402,0.26618 0.59402,0.59402 h -1.18759 c 0,-0.32795 0.26543,-0.59402 0.59357,-0.59402 z" />
      </g>
    </g>
  </g>
</svg>
