<?xml version="1.0" encoding="UTF-8" standalone="no"?>
<svg
   xmlns:dc="http://purl.org/dc/elements/1.1/"
   xmlns:cc="http://creativecommons.org/ns#"
   xmlns:rdf="http://www.w3.org/1999/02/22-rdf-syntax-ns#"
   xmlns:svg="http://www.w3.org/2000/svg"
   xmlns="http://www.w3.org/2000/svg"
   xmlns:sodipodi="http://sodipodi.sourceforge.net/DTD/sodipodi-0.dtd"
   xmlns:inkscape="http://www.inkscape.org/namespaces/inkscape"
   width="159.42596mm"
   height="47.529999mm"
   viewBox="0 0 159.42594 47.529996"
   version="1.1"
   id="svg6774"
   inkscape:version="1.0 (4035a4fb49, 2020-05-01)"
   sodipodi:docname="Latvia_road_sign_705.svg">
  <defs
     id="defs6768" />
  <sodipodi:namedview
     id="base"
     pagecolor="#ffffff"
     bordercolor="#666666"
     borderopacity="1.0"
     inkscape:pageopacity="0.0"
     inkscape:pageshadow="2"
     inkscape:zoom="1.4721938"
     inkscape:cx="421.10363"
     inkscape:cy="0.62535413"
     inkscape:document-units="mm"
     inkscape:current-layer="g4251"
     inkscape:document-rotation="0"
     showgrid="false"
     fit-margin-top="0"
     fit-margin-left="0"
     fit-margin-right="0"
     fit-margin-bottom="0"
     inkscape:window-width="1920"
     inkscape:window-height="1001"
     inkscape:window-x="-9"
     inkscape:window-y="-9"
     inkscape:window-maximized="1" />
  <metadata
     id="metadata6771">
    <rdf:RDF>
      <cc:Work
         rdf:about="">
        <dc:format>image/svg+xml</dc:format>
        <dc:type
           rdf:resource="http://purl.org/dc/dcmitype/StillImage" />
        <dc:title></dc:title>
      </cc:Work>
    </rdf:RDF>
  </metadata>
  <g
     inkscape:label="Layer 1"
     inkscape:groupmode="layer"
     id="layer1"
     transform="translate(-335.37765,515.23048)">
    <g
       id="g2362"
       style="opacity:1"
       inkscape:groupmode="layer">
      <g
         transform="matrix(4.0741859,0,0,4.0741859,1019.3516,778.12493)"
         style="opacity:1;stroke-width:0.245448"
         id="g4251"
         inkscape:groupmode="layer">
        <g
           inkscape:groupmode="layer"
           style="opacity:1;stroke-width:0.0655623"
           transform="matrix(0.32416482,0,0,-0.32416482,-217.40938,-133.68272)"
           id="g9018">
          <path
             sodipodi:nodetypes="sssssssss"
             id="path9020"
             d="m 159.81002,566.64844 h 106.67029 c 3.72656,0 6.77344,-3.04688 6.77344,-6.77344 v -21.94141 c 0,-3.72656 -3.04688,-6.77343 -6.77344,-6.77343 H 159.81002 c -3.72266,0 -6.76954,3.04687 -6.76954,6.77343 V 559.875 c 0,3.72656 3.04688,6.77344 6.76954,6.77344 z"
             style="color:#000000;font-style:normal;font-variant:normal;font-weight:normal;font-stretch:normal;font-size:medium;line-height:normal;font-family:sans-serif;font-variant-ligatures:normal;font-variant-position:normal;font-variant-caps:normal;font-variant-numeric:normal;font-variant-alternates:normal;font-variant-east-asian:normal;font-feature-settings:normal;font-variation-settings:normal;text-indent:0;text-align:start;text-decoration:none;text-decoration-line:none;text-decoration-style:solid;text-decoration-color:#000000;letter-spacing:normal;word-spacing:normal;text-transform:none;writing-mode:lr-tb;direction:ltr;text-orientation:mixed;dominant-baseline:auto;baseline-shift:baseline;text-anchor:start;white-space:normal;shape-padding:0;shape-margin:0;inline-size:0;clip-rule:nonzero;display:inline;overflow:visible;visibility:visible;isolation:auto;mix-blend-mode:normal;color-interpolation:sRGB;color-interpolation-filters:linearRGB;solid-color:#000000;solid-opacity:1;vector-effect:none;fill:#ffffff;fill-opacity:1;fill-rule:nonzero;stroke:none;stroke-width:0.133556;stroke-linecap:butt;stroke-linejoin:miter;stroke-miterlimit:22.926;stroke-dasharray:none;stroke-dashoffset:0;stroke-opacity:1;color-rendering:auto;image-rendering:auto;shape-rendering:auto;text-rendering:auto;enable-background:accumulate;stop-color:#000000;stop-opacity:1" />
          <path
             sodipodi:nodetypes="ssssssssssssssssss"
             id="path9022"
             d="m 159.81055,530.91016 c -3.85907,0 -7.01953,3.16061 -7.01953,7.02343 V 559.875 c 0,3.86283 3.16046,7.02344 7.01953,7.02344 H 266.4801 c 3.86283,0 7.02344,-3.16061 7.02344,-7.02344 v -21.94141 c 0,-3.86282 -3.16061,-7.02343 -7.02344,-7.02343 z m 0,0.5 H 266.4801 c 3.59029,0 6.52344,2.93314 6.52344,6.52343 V 559.875 c 0,3.59029 -2.93315,6.52344 -6.52344,6.52344 H 159.81055 c -3.58625,0 -6.51953,-2.93315 -6.51953,-6.52344 v -21.94141 c 0,-3.59029 2.93328,-6.52343 6.51953,-6.52343 z"
             style="color:#000000;font-style:normal;font-variant:normal;font-weight:normal;font-stretch:normal;font-size:medium;line-height:normal;font-family:sans-serif;font-variant-ligatures:normal;font-variant-position:normal;font-variant-caps:normal;font-variant-numeric:normal;font-variant-alternates:normal;font-variant-east-asian:normal;font-feature-settings:normal;font-variation-settings:normal;text-indent:0;text-align:start;text-decoration:none;text-decoration-line:none;text-decoration-style:solid;text-decoration-color:#000000;letter-spacing:normal;word-spacing:normal;text-transform:none;writing-mode:lr-tb;direction:ltr;text-orientation:mixed;dominant-baseline:auto;baseline-shift:baseline;text-anchor:start;white-space:normal;shape-padding:0;shape-margin:0;inline-size:0;clip-rule:nonzero;display:inline;overflow:visible;visibility:visible;isolation:auto;mix-blend-mode:normal;color-interpolation:sRGB;color-interpolation-filters:linearRGB;solid-color:#000000;solid-opacity:1;vector-effect:none;fill:#211e1e;fill-opacity:1;fill-rule:nonzero;stroke:none;stroke-width:0.133556;stroke-linecap:butt;stroke-linejoin:miter;stroke-miterlimit:22.926;stroke-dasharray:none;stroke-dashoffset:0;stroke-opacity:1;color-rendering:auto;image-rendering:auto;shape-rendering:auto;text-rendering:auto;enable-background:accumulate;stop-color:#000000;stop-opacity:1" />
        </g>
        <path
           sodipodi:nodetypes="sssssssss"
           d="m -165.66204,-316.64384 c -0.77844,0 -1.44022,0.59122 -1.44022,1.34097 v 7.36922 c 0,0.74979 0.66178,1.341 1.44022,1.341 h 34.69344 c 0.77945,0 1.44022,-0.59162 1.44022,-1.341 v -7.36922 c 0,-0.74934 -0.66077,-1.34097 -1.44022,-1.34097 z"
           style="color:#000000;font-style:normal;font-variant:normal;font-weight:normal;font-stretch:normal;font-size:medium;line-height:normal;font-family:sans-serif;font-variant-ligatures:normal;font-variant-position:normal;font-variant-caps:normal;font-variant-numeric:normal;font-variant-alternates:normal;font-variant-east-asian:normal;font-feature-settings:normal;font-variation-settings:normal;text-indent:0;text-align:start;text-decoration:none;text-decoration-line:none;text-decoration-style:solid;text-decoration-color:#000000;letter-spacing:normal;word-spacing:normal;text-transform:none;writing-mode:lr-tb;direction:ltr;text-orientation:mixed;dominant-baseline:auto;baseline-shift:baseline;text-anchor:start;white-space:normal;shape-padding:0;shape-margin:0;inline-size:0;clip-rule:nonzero;display:inline;overflow:visible;visibility:visible;opacity:1;isolation:auto;mix-blend-mode:normal;color-interpolation:sRGB;color-interpolation-filters:linearRGB;solid-color:#000000;solid-opacity:1;vector-effect:none;fill:#263894;fill-opacity:1;fill-rule:nonzero;stroke:none;stroke-width:0.14746;stroke-linecap:butt;stroke-linejoin:miter;stroke-miterlimit:22.926;stroke-dasharray:none;stroke-dashoffset:0;stroke-opacity:1;color-rendering:auto;image-rendering:auto;shape-rendering:auto;text-rendering:auto;enable-background:accumulate;stop-color:#000000;stop-opacity:1"
           id="path9014" />
        <path
           sodipodi:nodetypes="cccccccccccccccccccccccccccccccccccccccccccccccccccccccccccccccccccccc"
           id="path5365"
           style="fill:#ffffff;fill-opacity:1;fill-rule:evenodd;stroke:none;stroke-width:0.0865884"
           d="m -159.50851,-313.91599 -4.21844,2.3774 4.18299,2.57423 -0.66849,-1.7652 h 4.15682 l -0.0162,-1.31041 -4.08589,-0.0245 z m 5.76198,0.45062 v 4.01359 h 0.60424 v -1.2182 l 0.71115,-0.7526 1.10162,1.9708 h 0.71111 l -1.42226,-2.43645 1.27942,-1.57714 h -0.71111 l -1.66993,2.07852 v -2.07852 z m 4.93935,0 -1.45669,4.01359 h 0.63868 l 0.30017,-0.89654 h 1.53322 l 0.30017,0.89654 h 0.63868 l -1.45669,-4.01359 z m 2.52234,0 v 4.01359 h 0.60424 v -4.01359 z m 1.10316,0 1.31385,4.01359 h 0.49738 l 1.31539,-4.01359 h -0.63819 l -0.92488,3.08128 -0.92382,-3.08128 z m 3.624,0 v 4.01359 h 2.55985 v -0.57337 h -1.95407 v -1.18349 h 1.67042 v -0.53609 h -1.67042 v -1.14625 h 1.95407 v -0.57439 z m 5.40282,0 v 1.14621 h 0.5688 v -0.57182 h 1.06719 l -1.35084,3.4392 h 0.63973 l 1.34978,-3.47493 v -0.53866 z m -12.40416,0.82459 0.58784,1.75531 h -1.17462 z" />
      </g>
    </g>
  </g>
</svg>
