<?xml version="1.0" encoding="UTF-8" standalone="no"?>
<!-- Created with Inkscape (http://www.inkscape.org/) -->

<svg
   xmlns:dc="http://purl.org/dc/elements/1.1/"
   xmlns:cc="http://creativecommons.org/ns#"
   xmlns:rdf="http://www.w3.org/1999/02/22-rdf-syntax-ns#"
   xmlns:svg="http://www.w3.org/2000/svg"
   xmlns="http://www.w3.org/2000/svg"
   xmlns:sodipodi="http://sodipodi.sourceforge.net/DTD/sodipodi-0.dtd"
   xmlns:inkscape="http://www.inkscape.org/namespaces/inkscape"
   width="194.99998mm"
   height="286.76251mm"
   viewBox="0 0 194.99998 286.76251"
   version="1.1"
   id="svg3845"
   inkscape:version="0.92.3 (2405546, 2018-03-11)"
   sodipodi:docname="Latvia_road_sign_734.svg">
  <defs
     id="defs3839" />
  <sodipodi:namedview
     id="base"
     pagecolor="#ffffff"
     bordercolor="#666666"
     borderopacity="1.0"
     inkscape:pageopacity="0.0"
     inkscape:pageshadow="2"
     inkscape:zoom="0.24748737"
     inkscape:cx="578.53757"
     inkscape:cy="380.02498"
     inkscape:document-units="mm"
     inkscape:current-layer="layer1"
     showgrid="false"
     inkscape:window-width="1600"
     inkscape:window-height="838"
     inkscape:window-x="-8"
     inkscape:window-y="-8"
     inkscape:window-maximized="1" />
  <metadata
     id="metadata3842">
    <rdf:RDF>
      <cc:Work
         rdf:about="">
        <dc:format>image/svg+xml</dc:format>
        <dc:type
           rdf:resource="http://purl.org/dc/dcmitype/StillImage" />
        <dc:title></dc:title>
      </cc:Work>
    </rdf:RDF>
  </metadata>
  <g
     inkscape:label="Layer 1"
     inkscape:groupmode="layer"
     id="layer1"
     transform="translate(-1078.3371,637.69852)">
    <path
       d="m 1091.4799,-637.26653 h 168.7144 c 6.9912,0 12.7108,5.79392 12.7108,12.87515 v 260.14995 c 0,7.07951 -5.7196,12.87344 -12.7108,12.87344 h -168.7144 c -6.9912,0 -12.7108,-5.79393 -12.7108,-12.87344 v -260.14995 c 0,-7.08123 5.7196,-12.87515 12.7108,-12.87515 z"
       style="fill:#ffdd2e;fill-opacity:1;fill-rule:evenodd;stroke:#000000;stroke-width:0.86398697;stroke-linecap:butt;stroke-linejoin:miter;stroke-miterlimit:22.9260006;stroke-dasharray:none;stroke-opacity:1"
       id="path14207"
       inkscape:connector-curvature="0" />
    <path
       d="m 1094.9082,-358.31794 c -3.684,0 -6.1982,-2.71982 -6.1982,-6.75466 v -260.85667 c 0,-2.0183 1.6659,-4.4167 3.8588,-4.4167 h 165.894 c 2.2811,0 4.5029,2.7786 4.5029,5.08716 v 260.07046 c 0,4.61885 -3.3626,6.8998 -6.1982,6.87041 h -161.8593"
       style="fill:#ffdd2e;fill-opacity:1;fill-rule:evenodd;stroke:none;stroke-width:1.72797394"
       id="path14209"
       inkscape:connector-curvature="0" />
    <path
       d="m 1228.7107,-372.36464 v -64.73679 c -0.8744,-10.9554 -3.0879,-21.09339 -10.3715,-29.95099 l -40.1769,-40.46741 13.1982,-7.28342 -41.5455,-11.85735 11.0709,41.54565 7.8361,-13.75119 36.4484,36.59328 c 7.1367,7.31105 8.7399,15.2373 9.5265,25.17143 v 64.73679 h 14.0138"
       style="fill:#000000;fill-opacity:1;fill-rule:evenodd;stroke:none;stroke-width:1.72797394"
       id="path14211"
       inkscape:connector-curvature="0" />
    <path
       d="m 1163.958,-535.89492 -0.059,-82.15825 h 24.6188 v 82.15825 h -24.56"
       style="fill:#000000;fill-opacity:1;fill-rule:evenodd;stroke:none;stroke-width:1.72797394"
       id="path14213"
       inkscape:connector-curvature="0" />
    <path
       d="m 1163.9134,-372.38017 v -82.18763 h 24.6184 v 82.15824 l -24.6184,0.0294"
       style="fill:#000000;fill-opacity:1;fill-rule:evenodd;stroke:none;stroke-width:1.72797394"
       id="path14215"
       inkscape:connector-curvature="0" />
    <path
       d="m 1099.2298,-467.88183 13.7326,3.60105 0.049,-155.20487 h 14.024 v 155.11676 l 13.2051,-3.51294 -20.2325,35.60145 -20.7586,-35.60145"
       style="fill:#000000;fill-opacity:1;fill-rule:evenodd;stroke:none;stroke-width:1.72797394"
       id="path14217"
       inkscape:connector-curvature="0" />
    <path
       d="m 1189.5839,-514.52332 v -0.20376 z"
       style="fill:none;stroke:#231f20;stroke-width:0.37324238;stroke-linecap:butt;stroke-linejoin:miter;stroke-miterlimit:22.9260006;stroke-dasharray:none;stroke-opacity:1"
       id="path14219"
       inkscape:connector-curvature="0" />
    <path
       d="m 1226.0269,-578.56207 c 9.8547,0 17.8863,8.03162 17.8863,17.88454 0,9.84772 -8.0316,17.88629 -17.8863,17.88629 -9.8458,0 -17.8842,-8.03857 -17.8842,-17.88629 0,-9.85292 8.0384,-17.88454 17.8842,-17.88454"
       style="fill:#ffffff;fill-opacity:1;fill-rule:evenodd;stroke:none;stroke-width:1.72797394"
       id="path14221"
       inkscape:connector-curvature="0" />
    <path
       d="m 1226.0407,-585.00912 c 13.3833,0 24.3058,10.91563 24.3058,24.30567 0,13.38143 -10.9225,24.30568 -24.3058,24.30568 -13.3883,0 -24.3054,-10.92425 -24.3054,-24.30568 0,-13.39004 10.9171,-24.30567 24.3054,-24.30567 z m 0,6.44705 c 9.8546,0 17.8862,8.03162 17.8862,17.88454 0,9.84772 -8.0316,17.88629 -17.8862,17.88629 -9.8459,0 -17.8843,-8.03857 -17.8843,-17.88629 0,-9.85292 8.0384,-17.88454 17.8843,-17.88454"
       style="fill:#ed1a3a;fill-opacity:1;fill-rule:evenodd;stroke:none;stroke-width:1.72797394"
       id="path14223"
       inkscape:connector-curvature="0" />
    <path
       d="m 1093.4588,-626.69647 h 164.1899 c 2.0254,0 3.6702,1.64501 3.6702,3.67021 v 256.92381 c 0,2.03555 -1.6448,3.68056 -3.6702,3.68056 h -164.1899 c -2.0235,0 -3.6688,-1.64501 -3.6688,-3.68056 v -256.92381 c 0,-2.0252 1.6453,-3.67021 3.6688,-3.67021 z m 0.1126,-5.36539 h 164.5191 c 4.8208,0 8.7467,3.93805 8.7467,8.76777 v 257.95194 c 0,4.83143 -3.9259,8.76948 -8.7467,8.76948 h -164.5191 c -4.8105,0 -8.7364,-3.93805 -8.7364,-8.76948 v -257.95194 c 0,-4.82972 3.9259,-8.76777 8.7364,-8.76777"
       style="fill:#000000;fill-opacity:1;fill-rule:evenodd;stroke:none;stroke-width:1.72797394"
       id="path14225"
       inkscape:connector-curvature="0" />
  </g>
</svg>
