<?xml version="1.0" encoding="UTF-8" standalone="no"?>
<svg
   xmlns:dc="http://purl.org/dc/elements/1.1/"
   xmlns:cc="http://creativecommons.org/ns#"
   xmlns:rdf="http://www.w3.org/1999/02/22-rdf-syntax-ns#"
   xmlns:svg="http://www.w3.org/2000/svg"
   xmlns="http://www.w3.org/2000/svg"
   xmlns:sodipodi="http://sodipodi.sourceforge.net/DTD/sodipodi-0.dtd"
   xmlns:inkscape="http://www.inkscape.org/namespaces/inkscape"
   sodipodi:docname="Latvia_road_sign_702.svg"
   inkscape:version="1.0 (4035a4fb49, 2020-05-01)"
   id="svg6774"
   version="1.1"
   viewBox="0 0 192.5137 158.74999"
   height="158.75mm"
   width="192.51372mm">
  <defs
     id="defs6768" />
  <sodipodi:namedview
     inkscape:window-maximized="1"
     inkscape:window-y="-9"
     inkscape:window-x="-9"
     inkscape:window-height="1001"
     inkscape:window-width="1920"
     fit-margin-bottom="0"
     fit-margin-right="0"
     fit-margin-left="0"
     fit-margin-top="0"
     showgrid="false"
     inkscape:document-rotation="0"
     inkscape:current-layer="g4251"
     inkscape:document-units="mm"
     inkscape:cy="800.37338"
     inkscape:cx="470.19"
     inkscape:zoom="0.26024956"
     inkscape:pageshadow="2"
     inkscape:pageopacity="0.0"
     borderopacity="1.0"
     bordercolor="#666666"
     pagecolor="#ffffff"
     id="base" />
  <metadata
     id="metadata6771">
    <rdf:RDF>
      <cc:Work
         rdf:about="">
        <dc:format>image/svg+xml</dc:format>
        <dc:type
           rdf:resource="http://purl.org/dc/dcmitype/StillImage" />
        <dc:title></dc:title>
      </cc:Work>
    </rdf:RDF>
  </metadata>
  <g
     transform="translate(-232.65707,577.89518)"
     id="layer1"
     inkscape:groupmode="layer"
     inkscape:label="Layer 1">
    <g
       inkscape:groupmode="layer"
       style="opacity:1"
       id="g2362">
      <g
         inkscape:groupmode="layer"
         id="g4251"
         style="opacity:1;stroke-width:0.245448"
         transform="matrix(4.0741859,0,0,4.0741859,1019.3516,778.12493)">
        <g
           transform="matrix(3.5746247,0,0,3.5746247,359.77352,804.73631)"
           style="opacity:1;stroke-width:0.068664"
           id="g4947">
          <path
             id="path4949"
             d="m -153.52772,-318.21284 h 10.94669 c 0.61322,0 1.11482,0.53171 1.11482,1.1818 v 8.49413 c 0,0.64976 -0.5016,1.18146 -1.11482,1.18146 h -10.94669 c -0.61322,0 -1.11483,-0.5317 -1.11483,-1.18146 v -8.49413 c 0,-0.65009 0.50161,-1.1818 1.11483,-1.1818 z m 0,0"
             style="color:#000000;font-style:normal;font-variant:normal;font-weight:normal;font-stretch:normal;font-size:medium;line-height:normal;font-family:sans-serif;font-variant-ligatures:normal;font-variant-position:normal;font-variant-caps:normal;font-variant-numeric:normal;font-variant-alternates:normal;font-variant-east-asian:normal;font-feature-settings:normal;font-variation-settings:normal;text-indent:0;text-align:start;text-decoration:none;text-decoration-line:none;text-decoration-style:solid;text-decoration-color:#000000;letter-spacing:normal;word-spacing:normal;text-transform:none;writing-mode:lr-tb;direction:ltr;text-orientation:mixed;dominant-baseline:auto;baseline-shift:baseline;text-anchor:start;white-space:normal;shape-padding:0;shape-margin:0;inline-size:0;clip-rule:nonzero;display:inline;overflow:visible;visibility:visible;isolation:auto;mix-blend-mode:normal;color-interpolation:sRGB;color-interpolation-filters:linearRGB;solid-color:#000000;solid-opacity:1;vector-effect:none;fill:#ffffff;fill-opacity:1;fill-rule:nonzero;stroke:none;stroke-width:0.0121116;stroke-linecap:butt;stroke-linejoin:miter;stroke-miterlimit:22.926;stroke-dasharray:none;stroke-dashoffset:0;stroke-opacity:1;color-rendering:auto;image-rendering:auto;shape-rendering:auto;text-rendering:auto;enable-background:accumulate;stop-color:#000000;stop-opacity:1" />
          <path
             id="path4951"
             d="m -153.52734,-318.23438 c -0.62574,0 -1.13672,0.5419 -1.13672,1.20313 v 8.49414 c 0,0.6609 0.51098,1.20313 1.13672,1.20313 h 10.94726 c 0.62573,0 1.13477,-0.54223 1.13477,-1.20313 v -8.49414 c 0,-0.66123 -0.50903,-1.20313 -1.13477,-1.20313 z m 0,0.043 h 10.94726 c 0.60071,0 1.0918,0.52121 1.0918,1.16016 v 8.49414 c 0,0.63862 -0.49109,1.16016 -1.0918,1.16016 h -10.94726 c -0.60071,0 -1.09375,-0.52154 -1.09375,-1.16016 v -8.49414 c 0,-0.63895 0.49304,-1.16016 1.09375,-1.16016 z"
             style="color:#000000;font-style:normal;font-variant:normal;font-weight:normal;font-stretch:normal;font-size:medium;line-height:normal;font-family:sans-serif;font-variant-ligatures:normal;font-variant-position:normal;font-variant-caps:normal;font-variant-numeric:normal;font-variant-alternates:normal;font-variant-east-asian:normal;font-feature-settings:normal;font-variation-settings:normal;text-indent:0;text-align:start;text-decoration:none;text-decoration-line:none;text-decoration-style:solid;text-decoration-color:#000000;letter-spacing:normal;word-spacing:normal;text-transform:none;writing-mode:lr-tb;direction:ltr;text-orientation:mixed;dominant-baseline:auto;baseline-shift:baseline;text-anchor:start;white-space:normal;shape-padding:0;shape-margin:0;inline-size:0;clip-rule:nonzero;display:inline;overflow:visible;visibility:visible;isolation:auto;mix-blend-mode:normal;color-interpolation:sRGB;color-interpolation-filters:linearRGB;solid-color:#000000;solid-opacity:1;vector-effect:none;fill:#000000;fill-opacity:1;fill-rule:nonzero;stroke:none;stroke-width:0.0121116;stroke-linecap:butt;stroke-linejoin:miter;stroke-miterlimit:22.926;stroke-dasharray:none;stroke-dashoffset:0;stroke-opacity:1;color-rendering:auto;image-rendering:auto;shape-rendering:auto;text-rendering:auto;enable-background:accumulate;stop-color:#000000;stop-opacity:1" />
        </g>
        <path
           style="color:#000000;font-style:normal;font-variant:normal;font-weight:normal;font-stretch:normal;font-size:medium;line-height:normal;font-family:sans-serif;font-variant-ligatures:normal;font-variant-position:normal;font-variant-caps:normal;font-variant-numeric:normal;font-variant-alternates:normal;font-variant-east-asian:normal;font-feature-settings:normal;font-variation-settings:normal;text-indent:0;text-align:start;text-decoration:none;text-decoration-line:none;text-decoration-style:solid;text-decoration-color:#000000;letter-spacing:normal;word-spacing:normal;text-transform:none;writing-mode:lr-tb;direction:ltr;text-orientation:mixed;dominant-baseline:auto;baseline-shift:baseline;text-anchor:start;white-space:normal;shape-padding:0;shape-margin:0;inline-size:0;clip-rule:nonzero;display:inline;overflow:visible;visibility:visible;opacity:1;isolation:auto;mix-blend-mode:normal;color-interpolation:sRGB;color-interpolation-filters:linearRGB;solid-color:#000000;solid-opacity:1;vector-effect:none;fill:#263894;fill-opacity:1;fill-rule:nonzero;stroke:none;stroke-width:0.0173394;stroke-linecap:butt;stroke-linejoin:miter;stroke-miterlimit:22.926;stroke-dasharray:none;stroke-dashoffset:0;stroke-opacity:1;color-rendering:auto;image-rendering:auto;shape-rendering:auto;text-rendering:auto;enable-background:accumulate;stop-color:#000000;stop-opacity:1"
           d="m -161.36576,-303.47817 c -0.38327,0 -0.6958,-0.31385 -0.6958,-0.69702 v -3.26088 c 0,-0.38316 0.31242,-0.69701 0.6958,-0.69701 h 11.74972 c 0.38327,0 0.69702,0.31385 0.69702,0.69701 v 3.26088 c 0,0.38324 -0.31386,0.69702 -0.69702,0.69702 z m 0,-0.0618 h 11.74972 c 0.3496,0 0.63535,-0.28597 0.63535,-0.63535 v -3.26088 c 0,-0.34924 -0.28597,-0.63536 -0.63535,-0.63536 h -11.74972 c -0.34924,0 -0.63417,0.28597 -0.63417,0.63536 v 3.26088 c 0,0.34959 0.28489,0.63535 0.63417,0.63535 z m -23.2915,-14.02518 c -0.3905,0 -0.71032,-0.31993 -0.71032,-0.71153 v -9.10672 c 0,-0.39052 0.31993,-0.71035 0.71032,-0.71035 h 30.42259 c 0.39053,0 0.71031,0.31993 0.71031,0.71035 v 9.10672 c 0,0.39167 -0.31993,0.71153 -0.71031,0.71153 z m 0,-0.0615 h 30.42259 c 0.35675,0 0.64865,-0.29204 0.64865,-0.64986 v -9.10672 c 0,-0.35675 -0.29205,-0.64868 -0.64865,-0.64868 h -30.42259 c -0.35675,0 -0.64866,0.29204 -0.64866,0.64868 v 9.10672 c 0,0.35792 0.29205,0.64986 0.64866,0.64986 z"
           id="path4343" />
        <path
           style="fill:#263894;fill-opacity:1;fill-rule:evenodd;stroke:none;stroke-width:0.0865881"
           d="m -161.35246,-307.8568 h 11.72434 c 0.26237,0 0.47757,0.237 0.47757,0.52594 v 3.10731 c 0,0.29026 -0.2152,0.52715 -0.47757,0.52715 h -11.72434 c -0.26238,0 -0.47757,-0.237 -0.47757,-0.52715 v -3.10731 c 0,-0.28883 0.21519,-0.52594 0.47757,-0.52594"
           id="path2513" />
        <path
           style="color:#000000;font-style:normal;font-variant:normal;font-weight:normal;font-stretch:normal;font-size:medium;line-height:normal;font-family:sans-serif;font-variant-ligatures:normal;font-variant-position:normal;font-variant-caps:normal;font-variant-numeric:normal;font-variant-alternates:normal;font-variant-east-asian:normal;font-feature-settings:normal;font-variation-settings:normal;text-indent:0;text-align:start;text-decoration:none;text-decoration-line:none;text-decoration-style:solid;text-decoration-color:#000000;letter-spacing:normal;word-spacing:normal;text-transform:none;writing-mode:lr-tb;direction:ltr;text-orientation:mixed;dominant-baseline:auto;baseline-shift:baseline;text-anchor:start;white-space:normal;shape-padding:0;shape-margin:0;inline-size:0;clip-rule:nonzero;display:inline;overflow:visible;visibility:visible;opacity:1;isolation:auto;mix-blend-mode:normal;color-interpolation:sRGB;color-interpolation-filters:linearRGB;solid-color:#000000;solid-opacity:1;vector-effect:none;fill:#ffffff;fill-opacity:1;fill-rule:nonzero;stroke:none;stroke-width:0.0711758;stroke-linecap:butt;stroke-linejoin:miter;stroke-miterlimit:22.926;stroke-dasharray:none;stroke-dashoffset:0;stroke-opacity:1;color-rendering:auto;image-rendering:auto;shape-rendering:auto;text-rendering:auto;enable-background:accumulate;stop-color:#000000;stop-opacity:1"
           d="m -161.35246,-303.56947 c -0.33888,0 -0.60454,-0.30098 -0.60454,-0.65408 v -3.10731 c 0,-0.3521 0.26559,-0.65291 0.60454,-0.65291 h 11.72434 c 0.33887,0 0.60454,0.30063 0.60454,0.65291 v 3.10731 c 0,0.35317 -0.2656,0.65408 -0.60454,0.65408 z m 0,-0.25379 h 11.72434 c 0.18588,0 0.35067,-0.17302 0.35067,-0.40018 v -3.10732 c 0,-0.22591 -0.16479,-0.399 -0.35067,-0.399 h -11.72434 c -0.18588,0 -0.35067,0.17337 -0.35067,0.399 v 3.10732 c 0,0.22734 0.16479,0.40018 0.35067,0.40018 z"
           id="path4804" />
        <path
           style="fill:#ffffff;fill-opacity:1;fill-rule:evenodd;stroke:none;stroke-width:0.0865881"
           d="m -160.60647,-304.80993 v -1.92608 h 0.2756 l 0.55013,1.25501 0.5501,-1.25501 h 0.27561 v 1.92608 h -0.29277 v -1.22116 l -0.41229,0.9467 h -0.24057 l -0.41348,-0.9467 v 1.22116 h -0.29276"
           id="path2517" />
        <path
           style="fill:#ffffff;fill-opacity:1;fill-rule:evenodd;stroke:none;stroke-width:0.0865881"
           d="m -158.68043,-304.80993 0.70488,-1.92608 h 0.24164 l 0.70488,1.92608 h -0.30956 l -0.14513,-0.42924 h -0.74238 l -0.14405,0.42924 z m 0.54166,-0.68797 h 0.56826 l -0.28418,-0.84272 -0.28419,0.84272"
           id="path2519" />
        <path
           style="fill:#ffffff;fill-opacity:1;fill-rule:evenodd;stroke:none;stroke-width:0.0865881"
           d="m -156.75439,-304.80993 v -1.92608 h 0.68798 c 0.38084,0 0.68915,0.30849 0.68915,0.68797 v 0.55014 c 0,0.37966 -0.30814,0.68797 -0.68915,0.68797 z m 0.29384,-0.27453 h 0.39414 c 0.21876,0 0.39656,-0.17766 0.39656,-0.39661 v -0.58395 c 0,-0.21876 -0.17765,-0.39539 -0.39656,-0.39539 h -0.39414 v 1.37595"
           id="path2521" />
        <path
           style="fill:#ffffff;fill-opacity:1;fill-rule:evenodd;stroke:none;stroke-width:0.0865881"
           d="m -155.06774,-305.481 v -0.58395 c 0,-0.38087 0.30849,-0.68918 0.68798,-0.68918 0.37966,0 0.68797,0.30813 0.68797,0.68918 v 0.58395 c 0,0.37967 -0.30813,0.68798 -0.68797,0.68798 -0.37966,0 -0.68798,-0.30849 -0.68798,-0.68798 z m 0.29134,0 c 0,0.21877 0.17765,0.39661 0.39656,0.39661 0.2177,0 0.39536,-0.17766 0.39536,-0.39661 v -0.58395 c 0,-0.21876 -0.17766,-0.39539 -0.39536,-0.39539 -0.21876,0 -0.39656,0.17659 -0.39656,0.39539 v 0.58395"
           id="path2523" />
        <path
           style="fill:#ffffff;fill-opacity:1;fill-rule:evenodd;stroke:none;stroke-width:0.0865881"
           d="m -153.31338,-304.80993 v -1.92608 h 0.27453 l 0.87778,1.37594 v -1.37594 h 0.29277 v 1.92608 h -0.27561 l -0.87657,-1.37595 v 1.37595 h -0.29276"
           id="path2525" />
        <path
           style="fill:#ffffff;fill-opacity:1;fill-rule:evenodd;stroke:none;stroke-width:0.0865881"
           d="m -151.59406,-304.80993 0.70488,-1.92608 h 0.242 l 0.70488,1.92608 h -0.30956 l -0.14513,-0.42924 h -0.74238 l -0.14513,0.42924 z m 0.54166,-0.68797 h 0.56826 l -0.28418,-0.84272 -0.28418,0.84272"
           id="path2527" />
        <path
           style="fill:#ffffff;fill-opacity:1;fill-rule:evenodd;stroke:none;stroke-width:0.0865881"
           d="m -160.60647,-304.80993 v -1.92608 h 0.2756 l 0.55013,1.25501 0.5501,-1.25501 h 0.27561 v 1.92608 h -0.29277 v -1.22116 l -0.41229,0.9467 h -0.24057 l -0.41348,-0.9467 v 1.22116 h -0.29276"
           id="path2529" />
        <path
           style="fill:#ffffff;fill-opacity:1;fill-rule:evenodd;stroke:none;stroke-width:0.0865881"
           d="m -158.68043,-304.80993 0.70488,-1.92608 h 0.24164 l 0.70488,1.92608 h -0.30956 l -0.14513,-0.42924 h -0.74238 l -0.14405,0.42924 z m 0.54166,-0.68797 h 0.56826 l -0.28418,-0.84272 -0.28419,0.84272"
           id="path2531" />
        <path
           style="fill:#ffffff;fill-opacity:1;fill-rule:evenodd;stroke:none;stroke-width:0.0865881"
           d="m -156.75439,-304.80993 v -1.92608 h 0.68798 c 0.38084,0 0.68915,0.30849 0.68915,0.68797 v 0.55014 c 0,0.37966 -0.30814,0.68797 -0.68915,0.68797 z m 0.29384,-0.27453 h 0.39414 c 0.21876,0 0.39656,-0.17766 0.39656,-0.39661 v -0.58395 c 0,-0.21876 -0.17765,-0.39539 -0.39656,-0.39539 h -0.39414 v 1.37595"
           id="path2533" />
        <path
           style="fill:#ffffff;fill-opacity:1;fill-rule:evenodd;stroke:none;stroke-width:0.0865881"
           d="m -155.06774,-305.481 v -0.58395 c 0,-0.38087 0.30849,-0.68918 0.68798,-0.68918 0.37966,0 0.68797,0.30813 0.68797,0.68918 v 0.58395 c 0,0.37967 -0.30813,0.68798 -0.68797,0.68798 -0.37966,0 -0.68798,-0.30849 -0.68798,-0.68798 z m 0.29134,0 c 0,0.21877 0.17765,0.39661 0.39656,0.39661 0.2177,0 0.39536,-0.17766 0.39536,-0.39661 v -0.58395 c 0,-0.21876 -0.17766,-0.39539 -0.39536,-0.39539 -0.21876,0 -0.39656,0.17659 -0.39656,0.39539 v 0.58395"
           id="path2535" />
        <path
           style="fill:#ffffff;fill-opacity:1;fill-rule:evenodd;stroke:none;stroke-width:0.0865881"
           d="m -153.31338,-304.80993 v -1.92608 h 0.27453 l 0.87778,1.37594 v -1.37594 h 0.29277 v 1.92608 h -0.27561 l -0.87657,-1.37595 v 1.37595 h -0.29276"
           id="path2537" />
        <path
           style="fill:#ffffff;fill-opacity:1;fill-rule:evenodd;stroke:none;stroke-width:0.0865881"
           d="m -151.59406,-304.80993 0.70488,-1.92608 h 0.242 l 0.70488,1.92608 h -0.30956 l -0.14513,-0.42924 h -0.74238 l -0.14513,0.42924 z m 0.54166,-0.68797 h 0.56826 l -0.28418,-0.84272 -0.28418,0.84272"
           id="path2539" />
        <path
           style="color:#000000;font-style:normal;font-variant:normal;font-weight:normal;font-stretch:normal;font-size:medium;line-height:normal;font-family:sans-serif;font-variant-ligatures:normal;font-variant-position:normal;font-variant-caps:normal;font-variant-numeric:normal;font-variant-alternates:normal;font-variant-east-asian:normal;font-feature-settings:normal;font-variation-settings:normal;text-indent:0;text-align:start;text-decoration:none;text-decoration-line:none;text-decoration-style:solid;text-decoration-color:#000000;letter-spacing:normal;word-spacing:normal;text-transform:none;writing-mode:lr-tb;direction:ltr;text-orientation:mixed;dominant-baseline:auto;baseline-shift:baseline;text-anchor:start;white-space:normal;shape-padding:0;shape-margin:0;inline-size:0;clip-rule:nonzero;display:inline;overflow:visible;visibility:visible;opacity:1;isolation:auto;mix-blend-mode:normal;color-interpolation:sRGB;color-interpolation-filters:linearRGB;solid-color:#000000;solid-opacity:1;vector-effect:none;fill:#000000;fill-opacity:1;fill-rule:nonzero;stroke:none;stroke-width:0.324101;stroke-linecap:butt;stroke-linejoin:miter;stroke-miterlimit:22.926;stroke-dasharray:none;stroke-dashoffset:0;stroke-opacity:1;color-rendering:auto;image-rendering:auto;shape-rendering:auto;text-rendering:auto;enable-background:accumulate;stop-color:#000000;stop-opacity:1"
           d="m -188.86735,-294.63087 c -1.89469,0 -3.4918,-1.63446 -3.4918,-3.68904 v -30.05967 c 0,-2.05458 1.59736,-3.68772 3.4918,-3.68772 h 38.84287 c 1.89445,0 3.4918,1.63314 3.4918,3.68772 v 30.05967 c 0,2.05458 -1.5971,3.68904 -3.4918,3.68904 z m 0,-1.23335 h 38.84287 c 1.34803,0 2.4034,-1.13212 2.4034,-2.45569 v -30.05967 c 0,-1.32357 -1.05516,-2.45441 -2.4034,-2.45441 h -38.84287 c -1.34824,0 -2.40343,1.13084 -2.40343,2.45441 v 30.05967 c 0,1.32357 1.0554,2.45569 2.40343,2.45569 z"
           id="path4351" />
        <path
           style="fill:#000000;fill-opacity:1;fill-rule:evenodd;stroke:none;stroke-width:0.0865881"
           d="m -166.4789,-303.61779 0.47878,-1.45452 c -1.23567,0.0436 -2.59103,0.41955 -2.80383,1.52461 v 2.97917 h -1.28039 v -2.9574 c -0.43528,-1.1595 -1.57302,-1.58388 -2.91264,-1.52461 l 0.47996,1.4158 -3.57158,-2.10134 3.57158,-2.07478 -0.45219,1.49201 c 1.3989,0.0322 1.77009,-0.098 2.88487,0.89348 v -7.01381 l -1.46903,0.40869 2.11829,-3.65259 2.04693,3.65259 -1.4158,-0.40265 v 7.00777 c 0.46306,-0.58882 1.6552,-0.89348 2.83647,-0.89348 l -0.51142,-1.4533 c 1.203,0.642 2.42781,1.38799 3.65258,1.97559 l -3.65258,2.17877"
           id="path2547" />
        <path
           id="path2549"
           style="fill:#000000;fill-opacity:1;fill-rule:evenodd;stroke:none;stroke-width:0.0865881"
           d="m -182.9186,-307.29716 v 0.57809 h -0.19232 v 0.31207 h 0.19232 v 1.1802 c 0,0.20947 0.14906,0.38362 0.34674,0.42391 0.0286,0.007 0.0572,0.007 0.0869,0.007 h 0.24057 v -0.36 h -0.16908 c -0.0665,0 -0.11975,-0.0547 -0.11975,-0.12118 v -1.13169 h 0.28883 v -0.31207 h -0.28883 v -0.57808 z m 3.48118,0.53684 c -0.0904,4.7e-4 -0.18123,0.0107 -0.27131,0.0322 -0.24665,0.0593 -0.42542,0.27203 -0.44115,0.52594 -0.0214,0.31814 0.22234,0.59274 0.54045,0.61212 l 0.40851,0.025 c 0.0761,0.007 0.14155,0.054 0.16836,0.1244 0.0375,0.10044 -0.0107,0.21054 -0.1126,0.24807 -0.0372,0.0143 -0.0751,0.025 -0.11296,0.0322 -0.0379,0.007 -0.0761,0.0143 -0.11438,0.0179 -0.22985,0.0179 -0.4602,-0.0658 -0.62796,-0.23342 l -0.2706,0.27274 c 0.24772,0.24772 0.58699,0.3689 0.92587,0.34459 0.0565,-0.004 0.11295,-0.0107 0.16908,-0.025 0.0561,-0.0107 0.11117,-0.0286 0.16586,-0.049 0.21269,-0.0797 0.35911,-0.27668 0.37362,-0.50417 0.0179,-0.31814 -0.22234,-0.59274 -0.54045,-0.61208 l -0.40851,-0.025 c -0.0847,-0.007 -0.15621,-0.0651 -0.17551,-0.14728 -0.025,-0.10402 0.0386,-0.20804 0.14155,-0.23199 0.18303,-0.0443 0.37345,-0.0214 0.53909,0.0568 0.0554,0.025 0.10796,0.059 0.15657,0.0979 l 0.24022,-0.30098 c -0.21591,-0.1723 -0.48261,-0.26274 -0.75403,-0.26131 z m -8.76466,0.0179 c -0.47882,0 -0.86691,0.3881 -0.86691,0.86689 v 0.2395 c 0,0.2588 0.11438,0.50177 0.31278,0.66742 0.36754,0.30455 0.91406,0.25379 1.21873,-0.11368 l -0.29455,-0.24522 c -0.0919,0.10867 -0.22735,0.17409 -0.36998,0.17409 -0.26595,0 -0.48243,-0.21627 -0.48243,-0.48243 v -0.2395 c 0,-0.0361 0.004,-0.0718 0.0107,-0.10617 0.0214,-0.10295 0.0797,-0.19625 0.16229,-0.26524 0.17873,-0.14799 0.43335,-0.14513 0.60843,-0.007 0.025,0.0215 0.0486,0.0429 0.0697,0.0686 l 0.29455,-0.24594 c -0.16444,-0.19839 -0.40837,-0.31278 -0.66467,-0.31278 z m 1.79636,0 c -0.43889,0 -0.79435,0.35532 -0.79435,0.79436 v 0.38448 c 0,0.3253 0.19839,0.61631 0.49966,0.73724 0.36633,0.1462 0.78574,0.0436 1.04325,-0.25631 l -0.2924,-0.25022 c -0.14978,0.17516 -0.39446,0.2345 -0.60848,0.14871 -0.15478,-0.0618 -0.25737,-0.21269 -0.25737,-0.37949 v -0.0472 h 1.20333 v -0.33745 c 0,-0.43889 -0.35568,-0.79435 -0.79346,-0.79435 z m 2.26928,0.003 c -0.20769,-0.0179 -0.42045,0.0643 -0.56179,0.23879 v -0.2177 h -0.38445 v 1.92469 h 0.38445 v -1.17884 c 0,-0.21269 0.17265,-0.38538 0.38542,-0.38538 0.21269,0 0.38448,0.17265 0.38448,0.38538 v 1.17884 h 0.38449 v -1.29945 c 0,-0.19589 -0.0879,-0.38206 -0.24021,-0.50417 -0.10474,-0.0847 -0.22771,-0.13154 -0.35211,-0.14227 z m 3.36787,0 c -0.20733,-0.0179 -0.42002,0.0643 -0.56133,0.23879 v -0.2177 h -0.38448 v 1.92469 h 0.38448 v -1.17884 c 0,-0.0944 0.0322,-0.18481 0.0979,-0.2563 0.14012,-0.15836 0.38313,-0.17266 0.5427,-0.0322 l 0.27346,-0.33745 h -0.001 c -0.10438,-0.0847 -0.22699,-0.13155 -0.35138,-0.14227 z m -5.63715,0.38177 c 0.22484,0 0.40897,0.18374 0.40897,0.40987 h -0.81884 c 0,-0.0286 0.003,-0.0558 0.007,-0.0826 0.0383,-0.18659 0.2034,-0.32743 0.40125,-0.32743 z m 15.81235,7.71143 c -0.31206,0 -0.56586,0.25273 -0.56586,0.56583 v 0.88368 c 0,0.31207 0.2538,0.56587 0.56586,0.56587 0.31207,0 0.56583,-0.2538 0.56583,-0.56587 v -0.88368 c 0,-0.31314 -0.2538,-0.56583 -0.56583,-0.56583 z m 1.51979,0 c -0.31207,0 -0.56447,0.25273 -0.56447,0.56583 v 0.88368 c 0,0.31207 0.25237,0.56587 0.56447,0.56587 0.31314,0 0.56722,-0.2538 0.56722,-0.56587 v -0.88368 c 0,-0.31314 -0.25415,-0.56583 -0.56722,-0.56583 z m -2.9693,0.002 c -0.31206,-0.0286 -0.58763,0.19803 -0.61662,0.51006 h 0.28525 c 0.025,-0.13298 0.14263,-0.22949 0.27775,-0.22949 0.15586,0 0.28311,0.12582 0.28311,0.28311 0,0.15585 -0.1269,0.28311 -0.28311,0.28311 h -0.12332 v 0.24736 h 0.12332 c 0.16551,0 0.30027,0.13441 0.30027,0.30027 v 0.0358 c 0,0.13905 -0.0944,0.25987 -0.22842,0.2924 -0.16193,0.0386 -0.32422,-0.0604 -0.36407,-0.22127 h -0.28669 c 0.0357,0.29276 0.28383,0.51278 0.57898,0.51278 0.32279,0 0.58399,-0.2613 0.58399,-0.58398 v -0.0357 c 0,-0.17051 -0.0858,-0.33173 -0.22842,-0.42713 0.13191,-0.0919 0.21055,-0.24272 0.21055,-0.40351 0,-0.2924 -0.22234,-0.53576 -0.51232,-0.56357 z m 1.44951,0.2806 c 0.15586,0 0.28275,0.12583 0.28275,0.28311 v 0.88369 c 0,0.15585 -0.12689,0.28275 -0.28275,0.28275 -0.15585,0 -0.28275,-0.1269 -0.28275,-0.28275 v -0.88369 c 0,-0.15728 0.1269,-0.28311 0.28275,-0.28311 z m 1.51979,0 c 0.15728,0 0.28418,0.12583 0.28418,0.28311 v 0.88369 c 0,0.15585 -0.12725,0.28275 -0.28418,0.28275 -0.15585,0 -0.28275,-0.1269 -0.28275,-0.28275 v -0.88369 c 0,-0.15728 0.1269,-0.28311 0.28275,-0.28311 z m 2.67736,0.28383 c -0.15264,-0.0143 -0.30921,0.0479 -0.41262,0.17551 v -0.15835 h -0.28275 v 1.41462 h 0.28275 v -0.86692 c 0,-0.15728 0.12583,-0.28275 0.28275,-0.28275 0.15586,0 0.28275,0.12583 0.28275,0.28275 v 0.86692 h 0.28168 v -0.86692 c 0,-0.15728 0.12726,-0.28275 0.28419,-0.28275 0.15585,0 0.28275,0.12583 0.28275,0.28275 v 0.86692 h 0.28275 v -0.90227 c 0,-0.15943 -0.0715,-0.31028 -0.19589,-0.4108 -0.22591,-0.18516 -0.56128,-0.15263 -0.74627,0.0747 -0.025,-0.0322 -0.0518,-0.0629 -0.0844,-0.0894 -0.0765,-0.0622 -0.16694,-0.0965 -0.25845,-0.10438 z" />
        <path
           style="fill:#263894;fill-opacity:1;fill-rule:evenodd;stroke:none;stroke-width:0.0865881"
           d="m -184.63185,-327.86326 h 30.3718 c 0.27811,0 0.50417,0.22735 0.50417,0.5042 v 9.07161 c 0,0.27704 -0.22592,0.50299 -0.50417,0.50299 h -30.3718 c -0.2781,0 -0.5042,-0.22627 -0.5042,-0.50299 v -9.07161 c 0,-0.27703 0.22592,-0.5042 0.5042,-0.5042"
           id="path2581" />
        <path
           style="color:#000000;font-style:normal;font-variant:normal;font-weight:normal;font-stretch:normal;font-size:medium;line-height:normal;font-family:sans-serif;font-variant-ligatures:normal;font-variant-position:normal;font-variant-caps:normal;font-variant-numeric:normal;font-variant-alternates:normal;font-variant-east-asian:normal;font-feature-settings:normal;font-variation-settings:normal;text-indent:0;text-align:start;text-decoration:none;text-decoration-line:none;text-decoration-style:solid;text-decoration-color:#000000;letter-spacing:normal;word-spacing:normal;text-transform:none;writing-mode:lr-tb;direction:ltr;text-orientation:mixed;dominant-baseline:auto;baseline-shift:baseline;text-anchor:start;white-space:normal;shape-padding:0;shape-margin:0;inline-size:0;clip-rule:nonzero;display:inline;overflow:visible;visibility:visible;opacity:1;isolation:auto;mix-blend-mode:normal;color-interpolation:sRGB;color-interpolation-filters:linearRGB;solid-color:#000000;solid-opacity:1;vector-effect:none;fill:#ffffff;fill-opacity:1;fill-rule:nonzero;stroke:none;stroke-width:0.0711758;stroke-linecap:butt;stroke-linejoin:miter;stroke-miterlimit:22.926;stroke-dasharray:none;stroke-dashoffset:0;stroke-opacity:1;color-rendering:auto;image-rendering:auto;shape-rendering:auto;text-rendering:auto;enable-background:accumulate;stop-color:#000000;stop-opacity:1"
           d="m -184.63185,-317.65753 c -0.34709,0 -0.63113,-0.28382 -0.63113,-0.62992 v -9.07164 c 0,-0.34603 0.28382,-0.63114 0.63113,-0.63114 h 30.3718 c 0.34745,0 0.63114,0.2849 0.63114,0.63114 v 9.07164 c 0,0.34603 -0.28419,0.62992 -0.63114,0.62992 z m 0,-0.25379 h 30.3718 c 0.20912,0 0.37719,-0.16837 0.37719,-0.37602 v -9.07165 c 0,-0.20768 -0.16836,-0.37723 -0.37719,-0.37723 h -30.3718 c -0.20876,0 -0.37723,0.1698 -0.37723,0.37723 v 9.07165 c 0,0.20769 0.16801,0.37602 0.37723,0.37602 z"
           id="path4347" />
        <path
           style="fill:#ffffff;fill-opacity:1;fill-rule:evenodd;stroke:none;stroke-width:0.0865881"
           d="m -175.10319,-319.1628 v -2.39879 h -0.76654 v -0.37119 h 1.95386 v 0.37119 h -0.76658 v 2.39879 h -0.42074"
           id="path2585" />
        <path
           style="fill:#ffffff;fill-opacity:1;fill-rule:evenodd;stroke:none;stroke-width:0.0865881"
           d="m -174.06461,-319.1628 1.01319,-2.76998 h 0.34566 l 1.01319,2.76998 h -0.44493 l -0.20804,-0.61905 h -1.06638 l -0.20805,0.61905 z m 0.77866,-0.98903 h 0.81612 l -0.40869,-1.21147 -0.40743,1.21147"
           id="path2587" />
        <path
           style="fill:#ffffff;fill-opacity:1;fill-rule:evenodd;stroke:none;stroke-width:0.0865881"
           d="m -171.29707,-319.1628 v -2.76998 h 0.42077 v 2.37341 h 1.36022 v 0.39657 h -1.78099"
           id="path2589" />
        <path
           style="fill:#ffffff;fill-opacity:1;fill-rule:evenodd;stroke:none;stroke-width:0.0865881"
           d="m -169.12073,-319.1628 v -2.76998 h 0.42077 v 2.37341 h 1.35896 v 0.39657 h -1.77973"
           id="path2591" />
        <path
           style="fill:#ffffff;fill-opacity:1;fill-rule:nonzero;stroke:none;stroke-width:0.0865881"
           d="m -166.94561,-319.1628 h 0.42074 v -2.76998 h -0.42074 z m 0,0"
           id="path2593" />
        <path
           style="fill:#ffffff;fill-opacity:1;fill-rule:evenodd;stroke:none;stroke-width:0.0865881"
           d="m -165.88283,-319.1628 v -2.76998 h 0.39656 l 1.26106,1.97806 v -1.97806 h 0.41955 v 2.76998 h -0.39535 l -1.26109,-1.97802 v 1.97802 h -0.42073"
           id="path2595" />
        <path
           style="fill:#ffffff;fill-opacity:1;fill-rule:evenodd;stroke:none;stroke-width:0.0865881"
           d="m -163.30875,-319.1628 v -2.76998 h 0.39539 l 1.26106,1.97806 v -1.97806 h 0.42073 v 2.76998 h -0.39535 l -1.26106,-1.97802 v 1.97802 h -0.42077"
           id="path2597" />
        <path
           style="fill:#ffffff;fill-opacity:1;fill-rule:evenodd;stroke:none;stroke-width:0.0865881"
           d="m -175.10319,-323.30021 v -2.39883 h -0.76654 v -0.37115 h 1.95386 v 0.37115 h -0.76658 v 2.39883 h -0.42074"
           id="path2599" />
        <path
           style="fill:#ffffff;fill-opacity:1;fill-rule:evenodd;stroke:none;stroke-width:0.0865881"
           d="m -174.06461,-323.30021 1.01319,-2.76998 h 0.34566 l 1.01319,2.76998 h -0.44493 l -0.20804,-0.61906 h -1.06638 l -0.20805,0.61906 z m 0.77866,-0.98903 h 0.81612 l -0.40869,-1.21148 -0.40743,1.21148"
           id="path2601" />
        <path
           style="fill:#ffffff;fill-opacity:1;fill-rule:evenodd;stroke:none;stroke-width:0.0865881"
           d="m -171.29707,-323.30021 v -2.76998 h 0.42077 v 2.37459 h 1.36022 v 0.39539 h -1.78099"
           id="path2603" />
        <path
           style="fill:#ffffff;fill-opacity:1;fill-rule:evenodd;stroke:none;stroke-width:0.0865881"
           d="m -169.12073,-323.30021 v -2.76998 h 0.42077 v 2.37459 h 1.35896 v 0.39539 h -1.77973"
           id="path2605" />
        <path
           style="fill:#ffffff;fill-opacity:1;fill-rule:nonzero;stroke:none;stroke-width:0.0865881"
           d="m -166.94561,-323.30021 h 0.42074 v -2.7688 h -0.42074 z m 0,0"
           id="path2607" />
        <path
           style="fill:#ffffff;fill-opacity:1;fill-rule:evenodd;stroke:none;stroke-width:0.0865881"
           d="m -165.88283,-323.30021 v -2.76998 h 0.39656 l 1.26106,1.97802 v -1.97802 h 0.41955 v 2.76998 h -0.39535 l -1.26109,-1.97806 v 1.97806 h -0.42073"
           id="path2609" />
        <path
           style="fill:#ffffff;fill-opacity:1;fill-rule:evenodd;stroke:none;stroke-width:0.0865881"
           d="m -163.4103,-323.30021 1.0144,-2.76998 h 0.3446 l 1.01441,2.76998 h -0.44494 l -0.20804,-0.61906 h -1.0676 l -0.20804,0.61906 z m 0.77866,-0.98903 h 0.81612 l -0.40747,-1.21148 -0.40865,1.21148"
           id="path2611" />
        <path
           style="fill:#ffffff;fill-opacity:1;fill-rule:evenodd;stroke:none;stroke-width:0.0865881"
           d="m -157.37101,-322.2822 c 1.44604,0 2.6261,0.77984 2.6261,1.73502 0,0.95517 -1.18006,1.7338 -2.6261,1.7338 -1.44483,0 -2.62367,-0.77863 -2.62367,-1.7338 0,-0.95518 1.17884,-1.73502 2.62367,-1.73502"
           id="path2621" />
        <path
           style="fill:#000000;fill-opacity:1;fill-rule:evenodd;stroke:none;stroke-width:0.0865881"
           d="m -159.14713,-319.72863 v -1.60686 h 1.03378 v 0.22985 h -0.78953 v 0.45944 h 0.67464 v 0.21519 h -0.67464 v 0.47275 h 0.78953 v 0.22985 h -1.03378"
           id="path2623" />
        <path
           style="fill:#000000;fill-opacity:1;fill-rule:evenodd;stroke:none;stroke-width:0.0865881"
           d="m -157.9417,-319.9499 0.15728,-0.1848 c 0.16908,0.14262 0.39779,0.19588 0.61298,0.14155 0.11475,-0.0286 0.18517,-0.14513 0.15585,-0.2613 -0.0214,-0.0847 -0.0929,-0.14871 -0.18016,-0.16086 l -0.2613,-0.0322 c -0.2513,-0.0322 -0.42803,-0.26488 -0.39418,-0.51629 0.025,-0.20661 0.19089,-0.36997 0.399,-0.39417 0.22592,-0.0286 0.45584,0.0286 0.64322,0.15728 l -0.13798,0.20054 c -0.13905,-0.0954 -0.30813,-0.13655 -0.47635,-0.11618 -0.11725,0.0143 -0.2009,0.12083 -0.18731,0.2395 0.0107,0.0979 0.0883,0.17409 0.18624,0.18731 l 0.25987,0.0322 c 0.25165,0.0322 0.42803,0.26488 0.39535,0.51629 -0.025,0.18624 -0.16193,0.33851 -0.34459,0.38448 -0.29026,0.0726 -0.5985,10e-4 -0.82824,-0.19338"
           id="path2625" />
        <path
           style="fill:#000000;fill-opacity:1;fill-rule:evenodd;stroke:none;stroke-width:0.0865881"
           d="m -156.17887,-319.72863 v -1.39046 h -0.44372 v -0.21412 h 1.13169 v 0.21412 h -0.44372 v 1.39046 h -0.24415"
           id="path2627" />
        <path
           id="path4359"
           d="m -183.21362,-325.00263 h 4.8532 c 0.45823,0 0.75811,0.38088 0.75811,0.84636 v 2.64062 c 0,0.45462 -0.36637,0.84393 -0.75811,0.84393 h -4.8532 c -0.3857,0 -0.75567,-0.39174 -0.75567,-0.84393 v -2.64062 c 0,-0.47517 0.36997,-0.84636 0.75567,-0.84636"
           style="fill:#ffffff;fill-opacity:1;fill-rule:evenodd;stroke:none;stroke-width:0.0865881" />
        <path
           id="path4361"
           d="m -183.21362,-324.62418 h 4.8532 c 0.21662,0 0.39174,0.21054 0.39174,0.46791 v 2.64062 c 0,0.25737 -0.17515,0.4667 -0.39174,0.4667 h -4.8532 c -0.21626,0 -0.39295,-0.20912 -0.39295,-0.4667 v -2.64062 c 0,-0.25737 0.17658,-0.46791 0.39295,-0.46791"
           style="fill:#eb1938;fill-opacity:1;fill-rule:evenodd;stroke:none;stroke-width:0.0865881" />
        <path
           id="path4363"
           d="m -182.6173,-321.81042 0.76415,-2.08808 h 0.26131 l 0.76411,2.08808 h -0.33602 l -0.15585,-0.4667 h -0.80526 l -0.15728,0.4667 z m 0.58642,-0.74602 h 0.61541 l -0.30706,-0.91282 -0.30814,0.91282"
           style="fill:#ffffff;fill-opacity:1;fill-rule:evenodd;stroke:none;stroke-width:0.0865881" />
        <path
           style="fill:#ffffff;fill-opacity:1;fill-rule:evenodd;stroke:none;stroke-width:0.0865881"
           d="m -179.66237,-323.32184 v -0.33852 l 0.31671,-0.23807 h 0.31814 v 2.22467 h -0.31814 v -1.88737 l -0.31671,0.2395"
           id="path2619" />
      </g>
    </g>
  </g>
</svg>
