<?xml version="1.0" encoding="UTF-8" standalone="no"?>
<svg
   xmlns:dc="http://purl.org/dc/elements/1.1/"
   xmlns:cc="http://creativecommons.org/ns#"
   xmlns:rdf="http://www.w3.org/1999/02/22-rdf-syntax-ns#"
   xmlns:svg="http://www.w3.org/2000/svg"
   xmlns="http://www.w3.org/2000/svg"
   xmlns:sodipodi="http://sodipodi.sourceforge.net/DTD/sodipodi-0.dtd"
   xmlns:inkscape="http://www.inkscape.org/namespaces/inkscape"
   sodipodi:docname="Latvia_road_sign_701B.svg"
   inkscape:version="1.0 (4035a4fb49, 2020-05-01)"
   id="svg2584"
   version="1.1"
   viewBox="0 0 228.87831 158.85278"
   height="158.85278mm"
   width="228.87831mm">
  <defs
     id="defs2578" />
  <sodipodi:namedview
     inkscape:window-maximized="0"
     inkscape:window-y="0"
     inkscape:window-x="224"
     inkscape:window-height="1030"
     inkscape:window-width="1424"
     showgrid="false"
     inkscape:document-rotation="0"
     inkscape:current-layer="layer1"
     inkscape:document-units="mm"
     inkscape:cy="483.49651"
     inkscape:cx="355.50172"
     inkscape:zoom="0.98994949"
     inkscape:pageshadow="2"
     inkscape:pageopacity="0.0"
     borderopacity="1.0"
     bordercolor="#666666"
     pagecolor="#ffffff"
     id="base" />
  <metadata
     id="metadata2581">
    <rdf:RDF>
      <cc:Work
         rdf:about="">
        <dc:format>image/svg+xml</dc:format>
        <dc:type
           rdf:resource="http://purl.org/dc/dcmitype/StillImage" />
        <dc:title></dc:title>
      </cc:Work>
    </rdf:RDF>
  </metadata>
  <g
     transform="translate(81.933203,-27.162891)"
     id="layer1"
     inkscape:groupmode="layer"
     inkscape:label="Layer 1">
    <path
       id="path4527"
       d="M -69.664607,27.162891 H 134.68157 c 6.51271,0 11.84076,5.328016 11.84076,11.840725 V 173.21545 c 0,6.51271 -5.32805,11.84634 -11.84076,11.84634 H -69.664607 c -6.512708,0 -11.840725,-5.33363 -11.840725,-11.84634 V 39.003616 c 0,-6.512709 5.328017,-11.840725 11.840725,-11.840725 z"
       style="color:#000000;font-style:normal;font-variant:normal;font-weight:normal;font-stretch:normal;font-size:medium;line-height:normal;font-family:sans-serif;font-variant-ligatures:normal;font-variant-position:normal;font-variant-caps:normal;font-variant-numeric:normal;font-variant-alternates:normal;font-variant-east-asian:normal;font-feature-settings:normal;font-variation-settings:normal;text-indent:0;text-align:start;text-decoration:none;text-decoration-line:none;text-decoration-style:solid;text-decoration-color:#000000;letter-spacing:normal;word-spacing:normal;text-transform:none;writing-mode:lr-tb;direction:ltr;text-orientation:mixed;dominant-baseline:auto;baseline-shift:baseline;text-anchor:start;white-space:normal;shape-padding:0;shape-margin:0;inline-size:0;clip-rule:nonzero;display:inline;overflow:visible;visibility:visible;opacity:1;isolation:auto;mix-blend-mode:normal;color-interpolation:sRGB;color-interpolation-filters:linearRGB;solid-color:#000000;solid-opacity:1;vector-effect:none;fill:#ffffff;fill-opacity:1;fill-rule:nonzero;stroke:none;stroke-width:0.208492;stroke-linecap:butt;stroke-linejoin:miter;stroke-miterlimit:22.926;stroke-dasharray:none;stroke-dashoffset:0;stroke-opacity:1;color-rendering:auto;image-rendering:auto;shape-rendering:auto;text-rendering:auto;enable-background:accumulate;stop-color:#000000;stop-opacity:1"
       sodipodi:nodetypes="sssssssss" />
    <path
       id="path4529"
       d="m -69.662896,27.265682 c -6.744366,0 -12.270307,5.525941 -12.270307,12.270308 v 134.20939 c 0,6.74436 5.525697,12.2703 12.270307,12.2703 H 134.68279 c 6.74457,0 12.26232,-5.52594 12.26232,-12.2703 V 39.53599 c 0,-6.744367 -5.51799,-12.270308 -12.26232,-12.270308 z m 0,0.851424 H 134.68279 c 6.28105,0 11.4109,5.137793 11.4109,11.418884 v 134.20939 c 0,6.28109 -5.13009,11.41888 -11.4109,11.41888 H -69.662896 c -6.280846,0 -11.418883,-5.13779 -11.418883,-11.41888 V 39.53599 c 0,-6.281091 5.137793,-11.418884 11.418883,-11.418884 z"
       style="color:#000000;font-style:normal;font-variant:normal;font-weight:normal;font-stretch:normal;font-size:medium;line-height:normal;font-family:sans-serif;font-variant-ligatures:normal;font-variant-position:normal;font-variant-caps:normal;font-variant-numeric:normal;font-variant-alternates:normal;font-variant-east-asian:normal;font-feature-settings:normal;font-variation-settings:normal;text-indent:0;text-align:start;text-decoration:none;text-decoration-line:none;text-decoration-style:solid;text-decoration-color:#000000;letter-spacing:normal;word-spacing:normal;text-transform:none;writing-mode:lr-tb;direction:ltr;text-orientation:mixed;dominant-baseline:auto;baseline-shift:baseline;text-anchor:start;white-space:normal;shape-padding:0;shape-margin:0;inline-size:0;clip-rule:nonzero;display:inline;overflow:visible;visibility:visible;opacity:1;isolation:auto;mix-blend-mode:normal;color-interpolation:sRGB;color-interpolation-filters:linearRGB;solid-color:#000000;solid-opacity:1;vector-effect:none;fill:#000000;fill-opacity:1;fill-rule:nonzero;stroke:none;stroke-width:0.208492;stroke-linecap:butt;stroke-linejoin:miter;stroke-miterlimit:22.926;stroke-dasharray:none;stroke-dashoffset:0;stroke-opacity:1;color-rendering:auto;image-rendering:auto;shape-rendering:auto;text-rendering:auto;enable-background:accumulate;stop-color:#000000;stop-opacity:1"
       sodipodi:nodetypes="ssssssssssssssssss" />
    <path
       style="opacity:1;fill:#263894;fill-opacity:1;fill-rule:evenodd;stroke:none;stroke-width:0.076;stroke-linecap:butt;stroke-linejoin:miter;stroke-miterlimit:22.926;stroke-dasharray:none;stroke-opacity:1"
       d="M -68.057747,32.677573 H 133.34537 c 4.47468,0 8.13525,3.66062 8.13525,8.13526 V 172.46452 c 0,4.47464 -3.66057,8.13525 -8.13525,8.13525 H -68.057747 c -4.47468,0 -8.13526,-3.66061 -8.13526,-8.13525 V 40.812833 c 0,-4.47464 3.66058,-8.13526 8.13526,-8.13526 z"
       id="path4531"
       sodipodi:nodetypes="sssssssss" />
    <path
       d="m -59.460645,78.37439 v 1.209503 h 5.649877 V 78.37439 Z m -11.56307,3.207078 v 11.689164 h 1.771905 v -5.011044 h 2.294907 l 2.397618,5.011044 h 2.083661 l -2.681141,-5.188191 c 1.354219,-0.458713 2.264759,-1.730756 2.264759,-3.162953 0,-1.844384 -1.492212,-3.33802 -3.33468,-3.33802 z m 10.633829,0 v 11.689164 h 7.506279 v -1.671108 h -5.732297 v -3.444685 h 4.897743 v -1.563467 h -4.897743 v -3.3401 h 5.732297 V 81.58224 Z m 9.592183,0 v 1.565055 h 5.108784 l -5.318117,8.661109 v 1.463447 h 7.506443 v -1.671068 h -5.316037 l 5.316037,-8.661107 v -1.357111 z m 9.592019,0 v 11.689164 h 7.504202 v -1.671108 h -5.734214 v -3.444685 h 4.901531 v -1.563467 h -4.901531 v -3.3401 h 5.734214 V 81.58224 Z m 9.799272,0 v 11.689164 h 1.771904 V 89.72116 l 2.08574,-2.192523 3.232213,5.741995 h 2.083824 l -4.169563,-7.096866 3.753141,-4.592298 h -2.08574 l -4.899615,6.051957 v -6.051957 z m 10.841083,0 v 11.689164 h 1.773981 v -8.351144 l 5.315876,8.351144 h 1.667401 V 81.581468 h -1.771904 v 8.349064 l -5.316037,-8.349064 z m 11.4685894,0 v 11.689164 h 7.50628 v -1.671108 h -5.734214 v -3.444685 h 4.899617 v -1.563467 h -4.899617 v -3.3401 h 5.734214 V 81.58224 Z M -69.25181,83.146523 h 2.920458 c 0.978415,0 1.772067,0.793612 1.772067,1.773616 0,0.979352 -0.792878,1.775653 -1.772067,1.775653 h -2.920458 z"
       style="opacity:1;fill:#ffffff;fill-opacity:1;fill-rule:evenodd;stroke:none;stroke-width:0.352777"
       id="path899"
       sodipodi:nodetypes="cccccccccccccssccccccccccccccccccccccccccccccccccccccccccccccccccccccccccccccccccccccccccccssscc" />
    <path
       id="path2162"
       d="m 49.970807,120.46725 c -1.07196,0 -2.05306,-0.43965 -2.75949,-1.14599 l 1.0672,-1.07143 c 0.43606,0.43651 1.03231,0.70634 1.69213,0.70634 h 0.59308 v 1.51108 z m 2.89638,0 v -1.51108 h 3.85112 v 1.51108 z m 6.58922,0 v -1.51108 h 3.47549 v 1.51108 z m 5.99113,0 v -1.51108 h 3.96358 v 1.51108 z m 5.99631,0 v -1.51108 h 4.23189 v 1.51108 z m 7.0263,-1.42535 -1.16396,-0.96347 c 0.34427,-0.41748 0.54709,-0.94285 0.54709,-1.5222 v -0.69998 h 1.51282 v 0.69998 c 0,0.93967 -0.33938,1.81106 -0.89595,2.48567 z m -32.40392,-2.59314 v -3.05202 h 1.50965 v 3.05202 z m 31.78721,-2.85075 v -2.35692 h 1.51278 v 2.35692 z m -31.78721,-2.50726 v -2.40788 h 1.50965 v 2.40788 z m 31.78721,-2.25486 v -2.30855 -0.18741 h 1.51278 v 0.18741 2.30855 z m -31.78721,-2.49645 c 0,-1.61061 0.98477,-3.00553 2.3867,-3.60232 l 0.5899,1.39362 c -0.85786,0.36505 -1.46679,1.21745 -1.46679,2.20915 z m 31.5646,-1.00637 c -0.36464,-0.78253 -1.14493,-1.34122 -2.05164,-1.38726 0.1267,0.008 -0.008,2.7e-4 -0.0795,0 -0.0636,-2.6e-4 -0.15848,-0.003 -0.25708,-0.003 -0.20941,-5.3e-4 -0.48206,2.7e-4 -0.75641,0 -0.54863,-7.9e-4 -1.10525,-0.003 -1.12586,-0.003 v -1.51111 c 0.0326,0 0.57878,10e-4 1.12903,0.003 0.2742,2.6e-4 0.54867,-5.3e-4 0.75959,0 0.11082,2.6e-4 0.1919,-2.7e-4 0.25709,0 0.0635,2.6e-4 0.0122,-0.004 0.14259,0.003 1.47791,0.0794 2.74763,0.98094 3.34418,2.26011 z m -26.31639,-1.39361 v -1.51108 h 3.74108 v 1.51108 z m 6.04482,0 v -1.51108 h 5.24821 v 1.51108 z m 8.14455,0 v -1.51108 h 4.97197 v 1.51108 z"
       style="color:#000000;font-style:normal;font-variant:normal;font-weight:normal;font-stretch:normal;font-size:medium;line-height:normal;font-family:sans-serif;font-variant-ligatures:normal;font-variant-position:normal;font-variant-caps:normal;font-variant-numeric:normal;font-variant-alternates:normal;font-variant-east-asian:normal;font-feature-settings:normal;font-variation-settings:normal;text-indent:0;text-align:start;text-decoration:none;text-decoration-line:none;text-decoration-style:solid;text-decoration-color:#000000;letter-spacing:normal;word-spacing:normal;text-transform:none;writing-mode:lr-tb;direction:ltr;text-orientation:mixed;dominant-baseline:auto;baseline-shift:baseline;text-anchor:start;white-space:normal;shape-padding:0;shape-margin:0;inline-size:0;clip-rule:nonzero;display:inline;overflow:visible;visibility:visible;opacity:1;isolation:auto;mix-blend-mode:normal;color-interpolation:sRGB;color-interpolation-filters:linearRGB;solid-color:#000000;solid-opacity:1;vector-effect:none;fill:#ffffff;fill-opacity:1;fill-rule:nonzero;stroke:none;stroke-width:0.388056;stroke-linecap:butt;stroke-linejoin:miter;stroke-miterlimit:22.926;stroke-dasharray:none;stroke-dashoffset:0;stroke-opacity:1;color-rendering:auto;image-rendering:auto;shape-rendering:auto;text-rendering:auto;enable-background:accumulate;stop-color:#000000;stop-opacity:1"
       sodipodi:nodetypes="sccsccsccccccccccccccccccccccsccsccccccccccccccccccccccccccccccccccccsscccccccccccccccccc" />
    <path
       id="path915"
       style="opacity:1;fill:#00a650;fill-opacity:1;fill-rule:evenodd;stroke:none;stroke-width:0.352777"
       d="m 77.615417,106.49149 v 9.91363 c 0,1.219 -1.0339,2.21677 -2.2971,2.21677 h -25.13692 c -1.26226,0 -2.29584,-0.99838 -2.29584,-2.21677 v -9.91363 c 0,-1.21904 1.03232,-2.21681 2.29584,-2.21681 h 24.89112 c 1.26385,0 2.5429,0.99842 2.5429,2.21681"
       sodipodi:nodetypes="csssssssc" />
    <path
       id="path917"
       style="opacity:1;fill:#ffffff;fill-opacity:1;fill-rule:evenodd;stroke:#ffffff;stroke-width:0.17639;stroke-linecap:butt;stroke-linejoin:miter;stroke-miterlimit:22.926;stroke-dasharray:none;stroke-opacity:1"
       d="M 83.032177,81.957189 V 92.17317 c 0,1.735846 -1.41766,3.155497 -3.15265,3.155497 h -33.50977 c -1.73275,0 -3.15118,-1.420587 -3.15118,-3.155497 V 81.957189 c 0,-1.734423 1.41765,-3.1555 3.15118,-3.1555 h 33.50977 c 1.73418,0 3.15265,1.419 3.15265,3.1555 z"
       sodipodi:nodetypes="sssssssss" />
    <path
       id="path919"
       style="opacity:1;fill:#00a650;fill-opacity:1;fill-rule:evenodd;stroke:none;stroke-width:0.352777"
       d="m 81.937847,82.108422 v 9.913472 c 0,1.219036 -1.03549,2.216968 -2.29711,2.216968 h -33.06088 c -1.26226,0 -2.29584,-0.998419 -2.29584,-2.216968 v -9.913472 c 0,-1.218996 1.03232,-2.216928 2.29584,-2.216928 h 33.06088 c 1.26382,0 2.29711,0.998379 2.29711,2.216928"
       sodipodi:nodetypes="csssssssc" />
    <path
       id="path921"
       style="opacity:1;fill:#ffffff;fill-opacity:1;fill-rule:evenodd;stroke:none;stroke-width:0.352777"
       d="m 47.833407,91.879054 v -9.350135 h 6.00441 v 1.334866 h -4.58598 v 2.671852 h 3.92014 V 87.788 h -3.92014 v 2.755699 h 4.58598 v 1.336455 h -6.00441"
       sodipodi:nodetypes="ccccccccccccc" />
    <path
       id="path923"
       style="opacity:1;fill:#ffffff;fill-opacity:1;fill-rule:evenodd;stroke:none;stroke-width:0.352777"
       d="m 59.996037,91.879054 v -1.253953 l 3.71288,-4.678471 c 0.45827,-0.57776 0.36301,-1.419038 -0.21389,-1.875999 -0.57719,-0.458711 -1.41765,-0.363416 -1.87559,0.214301 -0.18701,0.236713 -0.29008,0.528585 -0.29008,0.831747 h -1.33361 c 0,-1.47616 1.19407,-2.671852 2.66802,-2.671852 1.47474,0 2.66912,1.195202 2.66912,2.671852 0,0.606319 -0.20615,1.193612 -0.58513,1.667116 l -3.00166,3.758965 h 3.58647 v 1.336497 h -5.33714"
       sodipodi:nodetypes="cccccccssccccc" />
    <path
       id="path925"
       style="opacity:1;fill:#ffffff;fill-opacity:1;fill-rule:evenodd;stroke:none;stroke-width:0.352777"
       d="m 69.669417,82.528919 h 1.5017 l -1.99374,4.003702 c 1.10842,-0.457123 2.37399,0.07945 2.83131,1.180944 0.11123,0.260339 0.16338,0.542845 0.16338,0.825389 v 0.752379 c 0,1.474571 -1.19406,2.671853 -2.66929,2.671853 -1.47314,0 -2.66785,-1.196835 -2.66785,-2.671853 v -0.41748 c 0,-0.412676 0.0953,-0.819034 0.27745,-1.18726 z m -1.50012,6.344322 c 0,-0.738079 0.59781,-1.336497 1.33519,-1.336497 0.73739,0 1.3352,0.598418 1.3352,1.336497 v 0.417441 c 0,0.736489 -0.59781,1.334908 -1.3352,1.334908 -0.73738,0 -1.33519,-0.598419 -1.33519,-1.334908 v -0.417441"
       sodipodi:nodetypes="ccccssssscccsssssc" />
    <path
       id="path927"
       style="opacity:1;fill:#ffffff;fill-opacity:1;fill-rule:evenodd;stroke:none;stroke-width:0.352777"
       d="m 73.840897,91.879054 v -1.253953 l 3.71268,-4.678471 c 0.45826,-0.57776 0.36301,-1.419038 -0.2139,-1.875999 -0.57723,-0.458711 -1.4161,-0.363416 -1.87563,0.214301 -0.187,0.236713 -0.28845,0.528585 -0.28845,0.831747 h -1.33519 c 0,-1.47616 1.19406,-2.671852 2.66785,-2.671852 1.47474,0 2.66929,1.195202 2.66929,2.671852 0,0.606319 -0.20616,1.193612 -0.58355,1.667116 l -3.00292,3.758965 h 3.58647 v 1.336497 h -5.33714"
       sodipodi:nodetypes="cccccccssccccc" />
    <path
       id="path929"
       style="opacity:1;fill:#ffffff;fill-opacity:1;fill-rule:evenodd;stroke:none;stroke-width:0.352777"
       d="m 50.999827,116.27589 v -9.34997 h 6.00441 v 1.33649 h -4.58741 v 2.67043 h 3.92014 v 1.25236 h -3.92014 v 2.75566 h 4.58741 v 1.33645 h -6.00441"
       sodipodi:nodetypes="ccccccccccccc" />
    <path
       id="path931"
       style="opacity:1;fill:#ffffff;fill-opacity:1;fill-rule:evenodd;stroke:none;stroke-width:0.352777"
       d="m 62.839777,116.27589 v -1.25391 l 3.71285,-4.67851 c 0.4583,-0.57776 0.363,-1.419 -0.2139,-1.876 -0.57723,-0.45872 -1.41765,-0.36342 -1.87563,0.2143 -0.18701,0.23671 -0.28845,0.52854 -0.28845,0.8317 h -1.3352 c 0,-1.47616 1.19406,-2.67185 2.66929,-2.67185 1.47318,0 2.66786,1.19525 2.66786,2.67185 0,0.60637 -0.20616,1.19525 -0.58355,1.66712 l -3.00292,3.75901 h 3.58647 v 1.33645 h -5.33715"
       sodipodi:nodetypes="cccccccssccccc" />
    <path
       id="path933"
       style="opacity:1;fill:#ffffff;fill-opacity:1;fill-rule:evenodd;stroke:none;stroke-width:0.352777"
       d="m 69.845097,116.27589 v -1.25391 l 3.71431,-4.67851 c 0.45827,-0.57776 0.36301,-1.419 -0.21553,-1.876 -0.57723,-0.45872 -1.4161,-0.36342 -1.8742,0.2143 -0.18864,0.23671 -0.29008,0.52854 -0.29008,0.8317 h -1.3352 c 0,-1.47616 1.19407,-2.67185 2.66929,-2.67185 1.47314,0 2.66786,1.19525 2.66786,2.67185 0,0.60637 -0.20616,1.19525 -0.58355,1.66712 l -3.00149,3.75901 h 3.58504 v 1.33645 h -5.33715"
       sodipodi:nodetypes="cccccccssccccc" />
    <path
       d="m 42.411567,40.504587 v 1.6168 h 5.03235 v -1.6168 z m 12.49646,3.203125 c -0.20615,0.0081 -0.41231,0.0163 -0.61683,0.04767 -1.51124,0.184153 -2.70595,1.368234 -2.90636,2.876905 -0.24119,1.82935 1.0434,3.506937 2.87018,3.748821 l 1.89466,0.2526 c 0.63586,0.07945 1.15601,0.5492 1.3114,1.174588 0.20941,0.83806 -0.29823,1.686142 -1.13698,1.896451 -1.56197,0.390308 -3.22016,0.0082 -4.44914,-1.034883 l -1.14488,1.352344 c 1.66406,1.409507 3.906,1.932347 6.02185,1.403149 1.32887,-0.333267 2.31821,-1.442832 2.49821,-2.800595 0.24119,-1.827883 -1.04344,-3.506733 -2.87023,-3.748658 l -1.89274,-0.252192 c -0.70724,-0.09534 -1.26223,-0.655537 -1.34945,-1.363467 -0.0949,-0.858716 0.50903,-1.640471 1.36534,-1.743629 1.21781,-0.143005 2.44679,0.158893 3.45739,0.85236 l 1.00535,-1.461859 c -1.19565,-0.8238 -2.61901,-1.239693 -4.05887,-1.198422 z m -35.45377,0.127115 V 55.52175 h 1.7719 v -3.547393 l 2.08574,-2.190445 3.23222,5.737838 h 2.08386 l -4.16956,-7.094786 3.75314,-4.592137 h -2.08574 l -4.89966,6.051795 v -6.051795 z m 10.843,0 V 55.52175 h 1.77211 v -5.006888 h 2.29295 l 2.39941,5.006888 h 2.08382 l -2.68309,-5.184197 c 1.3558,-0.458713 2.26667,-1.730592 2.26667,-3.16279 0,-1.843162 -1.49376,-3.339936 -3.33672,-3.339936 z m 13.86625,0 -4.27611,11.686923 h 1.87657 l 0.87848,-2.609148 h 4.49941 l 0.87693,2.609148 h 1.87657 l -4.27219,-11.686923 z m 17.20088,0 V 55.52175 h 7.50645 v -1.669031 h -5.73438 V 43.834827 Z m 12.61523,0 -4.27423,11.686923 h 1.8747 l 0.87847,-2.609148 h 4.49925 l 0.87852,2.609148 h 1.87657 l -4.27407,-11.686923 z m 5.10675,0 3.8578,11.686923 h 1.46048 l 3.85776,-11.686923 h -1.87657 l -2.71129,8.975064 -2.70925,-8.975064 z m 12.82423,0 -4.27406,11.686923 h 1.87657 l 0.87692,-2.609148 h 4.49937 l 0.87852,2.609148 h 1.87657 l -4.27407,-11.686923 z m -59.84123,1.566605 h 2.91838 c 0.97841,0 1.77398,0.793652 1.77398,1.773616 0,0.979353 -0.79447,1.773778 -1.77398,1.773778 h -2.91838 z m 12.82232,0.833334 1.72162,5.11563 h -3.44342 z m 29.81595,0 1.7237,5.11563 h -3.44533 z m 17.93318,0 1.72167,5.11563 h -3.44346 z"
       style="opacity:1;fill:#ffffff;fill-opacity:1;fill-rule:evenodd;stroke:none;stroke-width:0.352777"
       id="path945"
       sodipodi:nodetypes="cccccccccccccccccccccccccccccccccccccccccccccssccccccccccccccccccccccccccccccccccccccccccccssscccccccccccccc" />
    <path
       sodipodi:nodetypes="sssssssss"
       style="opacity:1;fill:#ffffff;fill-opacity:1;fill-rule:evenodd;stroke:#ffffff;stroke-width:0.176388;stroke-linecap:butt;stroke-linejoin:miter;stroke-miterlimit:22.926;stroke-opacity:1"
       d="m 43.879894,129.58936 v 36.36606 c 0,2.04087 -1.6702,3.70894 -3.70725,3.70894 H -64.402739 c -2.03648,0 -3.70727,-1.66821 -3.70727,-3.70894 v -36.36606 c 0,-2.04725 1.67022,-3.71528 3.70727,-3.71528 H 40.172644 c 2.03648,0 3.70725,1.66821 3.70725,3.71528 z"
       id="path3955" />
    <path
       sodipodi:nodetypes="csssssssc"
       style="opacity:1;fill:#806b64;fill-opacity:1;fill-rule:evenodd;stroke:none;stroke-width:0.352777"
       d="m 42.587534,129.76644 v 36.00571 c 0,1.44034 -1.21723,2.60958 -2.69859,2.60958 H -64.156889 c -1.48191,0 -2.69842,-1.17505 -2.69842,-2.60958 v -36.00571 c 0,-1.43472 1.21723,-2.60972 2.69842,-2.60972 H 39.888944 c 1.48192,0 2.69859,1.175 2.69859,2.60972"
       id="path3957" />
    <path
       id="path995"
       style="opacity:1;fill:#ffffff;fill-opacity:1;fill-rule:evenodd;stroke:none;stroke-width:0.352777"
       d="m 124.33415,163.88361 0.0326,-84.181811 5.33983,1.341263 -7.9982,-16.051599 -8.01877,16.051599 5.33857,-1.341263 -0.008,22.735301 c -6.18282,-6.411626 -14.23317,-5.617201 -13.0112,-5.62543 l -3.97502,-0.0081 1.33837,-5.345128 -16.053923,8.027939 16.053923,8.007159 -1.33837,-5.345 3.629,0.008 c 7.39257,0.008 13.37515,5.98958 13.36419,13.37975 l -0.0794,48.2496 5.38233,0.0953"
       sodipodi:nodetypes="ccccccccccccccccc" />
    <path
       id="path1011"
       style="opacity:1;fill:#ffffff;fill-opacity:1;fill-rule:evenodd;stroke:#ffffff;stroke-width:0.17639;stroke-linecap:butt;stroke-linejoin:miter;stroke-miterlimit:22.926;stroke-dasharray:none;stroke-opacity:1"
       d="m 36.456167,82.06715 v 10.215859 c 0,1.735846 -1.41925,3.155661 -3.15265,3.155661 H 8.1393484 c -1.732915,0 -3.151343,-1.42063 -3.151343,-3.155661 V 82.06715 c 0,-1.734545 1.417653,-3.155662 3.151343,-3.155662 H 33.303517 c 1.73418,0 3.15265,1.41904 3.15265,3.155662 z"
       sodipodi:nodetypes="sssssssss" />
    <path
       id="path1013"
       style="opacity:1;fill:#ed1c24;fill-opacity:1;fill-rule:evenodd;stroke:none;stroke-width:0.352777"
       d="m 35.140767,82.218261 v 9.913636 c 0,1.219036 -1.0339,2.216807 -2.2971,2.216807 H 8.3492904 c -1.262224,0 -2.295681,-0.998422 -2.295681,-2.216807 v -9.913636 c 0,-1.218996 1.032317,-2.216763 2.295681,-2.216763 H 32.843667 c 1.26385,0 2.2971,0.996788 2.2971,2.216763"
       sodipodi:nodetypes="csssssssc" />
    <path
       id="path1015"
       style="opacity:1;fill:#ffffff;fill-opacity:1;fill-rule:evenodd;stroke:none;stroke-width:0.352777"
       d="m 9.2788564,92.052205 3.4204426,-9.350134 h 1.167133 l 3.420279,9.350134 H 15.785005 L 15.082534,89.96447 h -3.59885 l -0.702471,2.087735 z m 2.6267906,-3.339772 h 2.754273 l -1.376423,-4.090239 -1.376424,4.090239"
       sodipodi:nodetypes="ccccccccccccc" />
    <path
       id="path1017"
       style="opacity:1;fill:#ffffff;fill-opacity:1;fill-rule:evenodd;stroke:none;stroke-width:0.352777"
       d="m 21.959267,84.800767 v -1.41904 l 1.3352,-1.001556 h 1.33519 v 9.350012 h -1.33519 v -7.931626 l -1.3352,1.001556"
       sodipodi:nodetypes="cccccccc" />
    <path
       id="path1019"
       style="opacity:1;fill:#ffffff;fill-opacity:1;fill-rule:evenodd;stroke:none;stroke-width:0.352777"
       d="m 26.796597,89.39274 h 1.3558 c 0.18375,0.761913 0.94986,1.230159 1.71088,1.046007 0.63586,-0.158893 1.08463,-0.723779 1.08463,-1.379316 v -0.166634 c 0,-0.784117 -0.6359,-1.41904 -1.41766,-1.41904 h -0.58354 v -1.169821 h 0.58354 c 0.73739,0 1.3352,-0.598374 1.3352,-1.334865 0,-0.738079 -0.59781,-1.336495 -1.3352,-1.336495 -0.63903,0 -1.19088,0.455533 -1.3114,1.084098 h -1.34631 c 0.1426,-1.468212 1.43986,-2.546773 2.90685,-2.409309 1.37165,0.127114 2.41937,1.282512 2.41937,2.660891 v 0 c 0,0.760325 -0.36952,1.47298 -0.99112,1.910466 0.67077,0.449181 1.07513,1.204738 1.07513,2.013424 v 0.166634 c 0,1.520608 -1.2337,2.754231 -2.75301,2.754231 -1.39068,0 -2.56352,-1.039651 -2.73239,-2.420271"
       sodipodi:nodetypes="cccsssccssscccsscsssc" />
    <path
       id="path2166"
       d="m 8.3201204,120.40821 c -1.07355,0 -2.053553,-0.43968 -2.759528,-1.14603 l 1.067231,-1.07138 c 0.436063,0.43651 1.029142,0.70634 1.692133,0.70634 h 1.393862 v 1.51107 z m 4.1808076,0 v -1.51107 h 2.885744 v 1.51107 z m 5.14101,0 v -1.51107 h 3.156559 v 1.51107 z m 4.706619,0 v -1.51107 h 3.80281 v 1.51107 z m 6.15732,0 v -1.51107 h 3.58822 v 1.51107 z m 7.34547,-1.42535 -1.16395,-0.96033 c 0.34427,-0.41585 0.55026,-0.94443 0.55026,-1.52219 v -0.70317 h 1.50965 v 0.70317 c 0,0.93967 -0.33775,1.80792 -0.89596,2.48297 z M 4.4101634,115.74543 v -2.40772 h 1.512787 v 2.40772 z m 30.8270436,-2.20646 v -2.35422 h 1.50961 v 2.35422 z M 4.4101634,111.03172 v -2.4052 h 1.512787 v 2.4052 z m 30.8270436,-2.2549 v -2.30851 -0.18742 h 1.50961 v 0.18742 2.30851 z M 4.4101634,106.28036 c 0,-1.61061 0.986321,-3.00422 2.389388,-3.59962 l 0.589902,1.39048 c -0.857901,0.36341 -1.466829,1.21745 -1.466829,2.20914 z m 30.6043836,-1.00314 c -0.36463,-0.78412 -1.14651,-1.3444 -2.05147,-1.39044 -0.0477,-0.003 -0.0953,-0.004 -0.12671,-0.004 v -1.51108 c 0.0794,0 0.1426,0.004 0.20127,0.008 1.47791,0.0794 2.7451,0.97932 3.34148,2.26028 z M 9.6610154,103.88201 v -1.51107 h 4.0628586 v 1.51107 z m 6.8493186,0 v -1.51107 h 2.837223 v 1.51107 z m 5.089923,0 v -1.51107 h 2.45396 v 1.51107 z m 4.70919,0 v -1.51107 h 2.99831 v 1.51107 z"
       style="color:#000000;font-style:normal;font-variant:normal;font-weight:normal;font-stretch:normal;font-size:medium;line-height:normal;font-family:sans-serif;font-variant-ligatures:normal;font-variant-position:normal;font-variant-caps:normal;font-variant-numeric:normal;font-variant-alternates:normal;font-variant-east-asian:normal;font-feature-settings:normal;font-variation-settings:normal;text-indent:0;text-align:start;text-decoration:none;text-decoration-line:none;text-decoration-style:solid;text-decoration-color:#000000;letter-spacing:normal;word-spacing:normal;text-transform:none;writing-mode:lr-tb;direction:ltr;text-orientation:mixed;dominant-baseline:auto;baseline-shift:baseline;text-anchor:start;white-space:normal;shape-padding:0;shape-margin:0;inline-size:0;clip-rule:nonzero;display:inline;overflow:visible;visibility:visible;opacity:1;isolation:auto;mix-blend-mode:normal;color-interpolation:sRGB;color-interpolation-filters:linearRGB;solid-color:#000000;solid-opacity:1;vector-effect:none;fill:#ffffff;fill-opacity:1;fill-rule:nonzero;stroke:none;stroke-width:0.388056;stroke-linecap:butt;stroke-linejoin:miter;stroke-miterlimit:22.926;stroke-dasharray:none;stroke-dashoffset:0;stroke-opacity:1;color-rendering:auto;image-rendering:auto;shape-rendering:auto;text-rendering:auto;enable-background:accumulate;stop-color:#000000;stop-opacity:1"
       sodipodi:nodetypes="sccsccsccccccccccccccccccccccsccscccccccccccccccccccccccccccccccccccccccccccccccccccccccc" />
    <path
       id="path1023"
       style="opacity:1;fill:#ed1c24;fill-opacity:1;fill-rule:evenodd;stroke:none;stroke-width:0.352777"
       d="m 34.997887,106.43388 v 9.91204 c 0,1.22059 -1.0339,2.21836 -2.29568,2.21836 H 8.5292894 c -1.263854,0 -2.297272,-0.99838 -2.297272,-2.21836 v -9.91204 c 0,-1.21904 1.033907,-2.2184 2.297272,-2.2184 H 32.454987 c 1.26385,0 2.5429,0.99842 2.5429,2.2184"
       sodipodi:nodetypes="csssssssc" />
    <path
       id="path1025"
       style="opacity:1;fill:#ffffff;fill-opacity:1;fill-rule:evenodd;stroke:none;stroke-width:0.352777"
       d="m 8.8051914,116.12608 3.4203206,-9.35144 h 1.167091 l 3.419017,9.35144 h -1.500116 l -0.702471,-2.08773 h -3.598688 l -0.702472,2.08773 z m 2.6266296,-3.33981 h 2.754434 l -1.378014,-4.09024 -1.37642,4.09024"
       sodipodi:nodetypes="ccccccccccccc" />
    <path
       id="path1027"
       style="opacity:1;fill:#ffffff;fill-opacity:1;fill-rule:evenodd;stroke:none;stroke-width:0.352777"
       d="m 21.806897,109.19634 v -1.419 l 1.33519,-1.00314 h 1.33519 v 9.35139 h -1.33519 v -7.93158 l -1.33519,1.00155"
       sodipodi:nodetypes="cccccccc" />
    <path
       id="path1029"
       style="opacity:1;fill:#ffffff;fill-opacity:1;fill-rule:evenodd;stroke:none;stroke-width:0.352777"
       d="m 26.644177,116.12608 v -1.25395 l 3.71415,-4.67851 c 0.45827,-0.57935 0.36301,-1.419 -0.21389,-1.87743 -0.57882,-0.45712 -1.4177,-0.36341 -1.87564,0.21593 -0.187,0.23631 -0.29008,0.52855 -0.29008,0.83016 h -1.33519 c 0,-1.47461 1.19565,-2.67043 2.66928,-2.67043 1.47474,0 2.66929,1.19521 2.66929,2.67043 0,0.60632 -0.20616,1.1952 -0.58514,1.66854 l -3.00149,3.75897 h 3.58646 v 1.33649 h -5.33856"
       sodipodi:nodetypes="cccccccssccccc" />
    <path
       transform="scale(0.26458333)"
       d="m 448.01953,641.38672 c -3.24246,0 -5.875,2.62735 -5.875,5.8789 v 9.18555 c 0,3.24556 2.63254,5.87305 5.875,5.87305 3.24231,0 5.87305,-2.62749 5.87305,-5.87305 v -9.18555 c 0,-3.25155 -2.63074,-5.8789 -5.87305,-5.8789 z m 15.7793,0 c -3.24246,0 -5.87305,2.62735 -5.87305,5.8789 v 9.18555 c 0,3.24556 2.63059,5.87305 5.87305,5.87305 3.2423,0 5.875,-2.62749 5.875,-5.87305 v -9.18555 c 0,-3.25155 -2.6327,-5.8789 -5.875,-5.8789 z m -30.82813,0.18164 -5.63476,11.35352 c -0.37712,0.80998 -0.61719,1.69779 -0.61719,2.60937 v 0.91797 c 0,3.24552 2.63059,5.87305 5.87305,5.87305 3.2423,0 5.87304,-2.62753 5.87304,-5.87305 v -1.65625 c 0,-0.61811 -0.11742,-1.21588 -0.35742,-1.81641 -1.00154,-2.41742 -3.78906,-3.60205 -6.22851,-2.59961 l 4.39257,-8.80859 z m 15.04883,2.75781 c 1.61855,0 2.93555,1.31366 2.93555,2.93945 v 9.18555 c 0,1.61995 -1.31734,2.93945 -2.93555,2.93945 -1.62486,0 -2.9375,-1.31966 -2.9375,-2.93945 v -9.18555 c 0,-1.62609 1.31325,-2.93945 2.9375,-2.93945 z m 15.7793,0 c 1.6247,0 2.9375,1.31366 2.9375,2.93945 v 9.18555 c 0,1.61995 -1.31344,2.93945 -2.9375,2.93945 -1.6187,0 -2.93555,-1.31966 -2.93555,-2.93945 v -9.18555 c 0,-1.62609 1.31731,-2.93945 2.93555,-2.93945 z m 24.93555,2.93555 c -1.58687,0.008 -3.15805,0.69867 -4.24024,2.02148 -0.251,-0.31721 -0.52218,-0.67759 -0.88086,-0.91797 -2.12761,-1.72199 -5.24286,-1.39133 -6.96289,0.73829 v -1.65625 h -2.9375 v 14.69531 l 0.004,-0.002 h 2.9375 v -9.00195 c 0,-1.62005 1.31129,-2.93945 2.93554,-2.93945 1.61885,0 2.93164,1.3197 2.93164,2.93945 v 9.00195 h 2.9375 v -9.00195 c 0,-1.62005 1.31134,-2.93945 2.93555,-2.93945 1.6187,0 2.9375,1.3197 2.9375,2.93945 v 9.00195 h 2.9375 v -9.37109 c 0,-1.6498 -0.75081,-3.2216 -2.02734,-4.26562 -1.02993,-0.84278 -2.2736,-1.24866 -3.50781,-1.24219 z m -56.13672,5.33008 c 1.62421,0 2.9375,1.31338 2.9375,2.93945 v 0.91797 c 0,1.61979 -1.31265,2.93945 -2.9375,2.93945 -1.61825,0 -2.92969,-1.31951 -2.92969,-2.93945 v -0.91797 c 0,-1.62561 1.31084,-2.93945 2.92969,-2.93945 z"
       style="opacity:1;fill:#ffffff;fill-opacity:1;fill-rule:evenodd;stroke:none;stroke-width:1.33333"
       id="path935" />
    <path
       id="path2382"
       d="M 134.10556,42.472364 V 54.49675 c 0,2.040877 -1.6702,3.708947 -3.70725,3.708947 h -20.96705 c -2.03648,0 -3.70727,-1.668211 -3.70727,-3.708947 V 42.472364 c 0,-2.047256 1.67022,-3.715279 3.70727,-3.715279 h 20.96705 c 2.03648,0 3.70725,1.66821 3.70725,3.715279 z"
       style="opacity:1;fill:#ffffff;fill-opacity:1;fill-rule:evenodd;stroke:#ffffff;stroke-width:0.176388;stroke-linecap:butt;stroke-linejoin:miter;stroke-miterlimit:22.926;stroke-opacity:1"
       sodipodi:nodetypes="sssssssss" />
    <path
       id="path2384"
       d="m 132.8132,42.649443 v 11.664036 c 0,1.440341 -1.21723,2.609584 -2.69859,2.609584 h -20.4375 c -1.48191,0 -2.69842,-1.17505 -2.69842,-2.609584 V 42.649443 c 0,-1.434721 1.21723,-2.609724 2.69842,-2.609724 h 20.4375 c 1.48192,0 2.69859,1.175003 2.69859,2.609724"
       style="opacity:1;fill:#eb1938;fill-opacity:1;fill-rule:evenodd;stroke:none;stroke-width:0.352777"
       sodipodi:nodetypes="csssssssc" />
    <path
       sodipodi:nodetypes="ccccssssscccsssssc"
       id="path4388"
       d="m 126.07026,42.362066 h 1.82358 l -2.42131,4.828294 c 1.34439,-0.555538 2.88068,0.07731 3.43185,1.421678 0.13566,0.312619 0.20351,0.652015 0.20351,0.991547 v 0.906589 c 0,1.774698 -1.45111,3.216631 -3.2351,3.216631 -1.79062,0 -3.24131,-1.44093 -3.24131,-3.216631 v -0.501518 c 0,-0.495767 0.11631,-0.985728 0.34167,-1.435203 z m -1.81779,7.646977 c 0,-0.887372 0.72166,-1.612639 1.61987,-1.612639 0.89239,0 1.61405,0.723356 1.61405,1.612639 v 0.50153 c 0,0.88736 -0.72166,1.610727 -1.61405,1.610727 -0.89821,0 -1.61987,-0.723367 -1.61987,-1.610727 v -0.50153"
       style="opacity:1;fill:#ffffff;fill-opacity:1;fill-rule:evenodd;stroke:none;stroke-width:0.352777" />
    <path
       id="path4390"
       d="m 110.22687,53.744134 4.01632,-11.006783 h 1.3738 l 4.02263,11.006783 h -1.76529 l -0.82573,-2.457856 h -4.2305 l -0.82579,2.457856 z m 3.08315,-3.930088 h 3.24066 l -1.61983,-4.814811 -1.61989,4.814811"
       style="opacity:1;fill:#ffffff;fill-opacity:1;fill-rule:evenodd;stroke:none;stroke-width:0.352777" />
    <g
       style="opacity:1;stroke-width:0.0630315"
       id="g2154"
       transform="matrix(1.373073,0,0,-1.374396,-319.28914,974.52021)">
      <path
         id="path2156"
         d="m 192.868,611.591 h 16.955 v -16.955 h -16.955 z m 16.955,0 z"
         style="color:#000000;font-style:normal;font-variant:normal;font-weight:normal;font-stretch:normal;font-size:medium;line-height:normal;font-family:sans-serif;font-variant-ligatures:normal;font-variant-position:normal;font-variant-caps:normal;font-variant-numeric:normal;font-variant-alternates:normal;font-variant-east-asian:normal;font-feature-settings:normal;font-variation-settings:normal;text-indent:0;text-align:start;text-decoration:none;text-decoration-line:none;text-decoration-style:solid;text-decoration-color:#000000;letter-spacing:normal;word-spacing:normal;text-transform:none;writing-mode:lr-tb;direction:ltr;text-orientation:mixed;dominant-baseline:auto;baseline-shift:baseline;text-anchor:start;white-space:normal;shape-padding:0;shape-margin:0;inline-size:0;clip-rule:nonzero;display:inline;overflow:visible;visibility:visible;isolation:auto;mix-blend-mode:normal;color-interpolation:sRGB;color-interpolation-filters:linearRGB;solid-color:#000000;solid-opacity:1;vector-effect:none;fill:#ffffff;fill-opacity:1;fill-rule:evenodd;stroke:none;stroke-width:0.128401;stroke-linecap:butt;stroke-linejoin:miter;stroke-miterlimit:22.926;stroke-dasharray:none;stroke-dashoffset:0;stroke-opacity:1;color-rendering:auto;image-rendering:auto;shape-rendering:auto;text-rendering:auto;enable-background:accumulate;stop-color:#000000;stop-opacity:1" />
      <path
         id="path2158"
         d="m 192.61719,594.38672 v 17.45508 h 0.25 17.20508 v -17.45508 z m 0.5,0.5 h 16.45508 v 16.45508 h -16.45508 z"
         style="color:#000000;font-style:normal;font-variant:normal;font-weight:normal;font-stretch:normal;font-size:medium;line-height:normal;font-family:sans-serif;font-variant-ligatures:normal;font-variant-position:normal;font-variant-caps:normal;font-variant-numeric:normal;font-variant-alternates:normal;font-variant-east-asian:normal;font-feature-settings:normal;font-variation-settings:normal;text-indent:0;text-align:start;text-decoration:none;text-decoration-line:none;text-decoration-style:solid;text-decoration-color:#000000;letter-spacing:normal;word-spacing:normal;text-transform:none;writing-mode:lr-tb;direction:ltr;text-orientation:mixed;dominant-baseline:auto;baseline-shift:baseline;text-anchor:start;white-space:normal;shape-padding:0;shape-margin:0;inline-size:0;clip-rule:nonzero;display:inline;overflow:visible;visibility:visible;isolation:auto;mix-blend-mode:normal;color-interpolation:sRGB;color-interpolation-filters:linearRGB;solid-color:#000000;solid-opacity:1;vector-effect:none;fill:#000000;fill-opacity:1;fill-rule:evenodd;stroke:none;stroke-width:0.128401;stroke-linecap:butt;stroke-linejoin:miter;stroke-miterlimit:22.926;stroke-dasharray:none;stroke-dashoffset:0;stroke-opacity:1;color-rendering:auto;image-rendering:auto;shape-rendering:auto;text-rendering:auto;enable-background:accumulate;stop-color:#000000;stop-opacity:1" />
    </g>
    <g
       style="opacity:1;stroke-width:0.0630315"
       id="g2148"
       transform="matrix(1.373073,0,0,-1.374396,-319.28914,974.52021)">
      <path
         id="path2150"
         d="m 190.744,609.205 h 16.955 V 592.25 h -16.955 z m 16.955,0 z"
         style="color:#000000;font-style:normal;font-variant:normal;font-weight:normal;font-stretch:normal;font-size:medium;line-height:normal;font-family:sans-serif;font-variant-ligatures:normal;font-variant-position:normal;font-variant-caps:normal;font-variant-numeric:normal;font-variant-alternates:normal;font-variant-east-asian:normal;font-feature-settings:normal;font-variation-settings:normal;text-indent:0;text-align:start;text-decoration:none;text-decoration-line:none;text-decoration-style:solid;text-decoration-color:#000000;letter-spacing:normal;word-spacing:normal;text-transform:none;writing-mode:lr-tb;direction:ltr;text-orientation:mixed;dominant-baseline:auto;baseline-shift:baseline;text-anchor:start;white-space:normal;shape-padding:0;shape-margin:0;inline-size:0;clip-rule:nonzero;display:inline;overflow:visible;visibility:visible;isolation:auto;mix-blend-mode:normal;color-interpolation:sRGB;color-interpolation-filters:linearRGB;solid-color:#000000;solid-opacity:1;vector-effect:none;fill:#ffffff;fill-opacity:1;fill-rule:evenodd;stroke:none;stroke-width:0.128401;stroke-linecap:butt;stroke-linejoin:miter;stroke-miterlimit:22.926;stroke-dasharray:none;stroke-dashoffset:0;stroke-opacity:1;color-rendering:auto;image-rendering:auto;shape-rendering:auto;text-rendering:auto;enable-background:accumulate;stop-color:#000000;stop-opacity:1" />
      <path
         id="path2152"
         d="m 190.49414,592 v 17.45508 h 0.25 17.20508 V 592 Z m 0.5,0.5 h 16.45508 v 16.45508 h -16.45508 z"
         style="color:#000000;font-style:normal;font-variant:normal;font-weight:normal;font-stretch:normal;font-size:medium;line-height:normal;font-family:sans-serif;font-variant-ligatures:normal;font-variant-position:normal;font-variant-caps:normal;font-variant-numeric:normal;font-variant-alternates:normal;font-variant-east-asian:normal;font-feature-settings:normal;font-variation-settings:normal;text-indent:0;text-align:start;text-decoration:none;text-decoration-line:none;text-decoration-style:solid;text-decoration-color:#000000;letter-spacing:normal;word-spacing:normal;text-transform:none;writing-mode:lr-tb;direction:ltr;text-orientation:mixed;dominant-baseline:auto;baseline-shift:baseline;text-anchor:start;white-space:normal;shape-padding:0;shape-margin:0;inline-size:0;clip-rule:nonzero;display:inline;overflow:visible;visibility:visible;isolation:auto;mix-blend-mode:normal;color-interpolation:sRGB;color-interpolation-filters:linearRGB;solid-color:#000000;solid-opacity:1;vector-effect:none;fill:#000000;fill-opacity:1;fill-rule:evenodd;stroke:none;stroke-width:0.128401;stroke-linecap:butt;stroke-linejoin:miter;stroke-miterlimit:22.926;stroke-dasharray:none;stroke-dashoffset:0;stroke-opacity:1;color-rendering:auto;image-rendering:auto;shape-rendering:auto;text-rendering:auto;enable-background:accumulate;stop-color:#000000;stop-opacity:1" />
    </g>
    <path
       id="path971"
       style="opacity:1;fill:#ffffff;fill-opacity:1;fill-rule:evenodd;stroke:none;stroke-width:0.352777"
       d="m 31.688307,136.92462 c -0.16047,0.005 -0.32107,0.0173 -0.48163,0.0372 -1.17898,0.14285 -2.10856,1.06714 -2.26704,2.24328 -0.18954,1.42633 0.81251,2.73533 2.2381,2.92437 l 1.47795,0.19689 c 0.49477,0.0666 0.89597,0.42847 1.02268,0.91415 0.16333,0.65554 -0.23292,1.31767 -0.88625,1.48105 -1.21929,0.30475 -2.51077,0.005 -3.46853,-0.8077 l -0.89348,1.0542 c 1.29895,1.09894 3.04665,1.50871 4.69687,1.0945 1.035,-0.25985 1.8056,-1.12509 1.9482,-2.18539 0.18949,-1.42491 -0.81255,-2.7343 -2.23811,-2.92334 l -1.47794,-0.19689 c -0.55181,-0.073 -0.98599,-0.51112 -1.04955,-1.0635 -0.0809,-0.66825 0.39483,-1.27913 1.06402,-1.35857 0.95018,-0.11428 1.90836,0.12068 2.69647,0.66352 l 0.78342,-1.13946 c -0.93226,-0.64176 -2.04187,-0.96905 -3.16518,-0.93431 z m -3.2582,8.04344 -5.3e-4,-5.3e-4 -5.3e-4,0.002 z M 1.9180284,136.94425 c -1.79553402,0 -3.253031,1.45805 -3.253031,3.25562 v 2.76831 c 0,1.79728 1.45721198,3.25561 3.253031,3.25561 1.797124,0 3.252515,-1.45788 3.252515,-3.25561 v -1.87224 h -3.251999 v 1.30173 h 1.870171 v 0.56947 c 0,1.03395 -0.837854,1.87224 -1.870171,1.87224 -1.03280602,0 -1.87017002,-0.8389 -1.87017002,-1.87224 v -2.76779 c 0,-0.81426 0.52637,-1.53512 1.30017802,-1.78283 0.985102,-0.31429 2.038194,0.22868 2.352313,1.21439 h 1.419034 c -0.276066,-1.55519 -1.62561,-2.68666 -3.201871,-2.68666 z m -27.3244314,0.0811 v 9.11727 h 3.253031 c 1.795537,0 3.253034,-1.45804 3.253034,-3.25562 v -2.606 c 0,-1.79712 -1.45701,-3.25561 -3.253034,-3.25561 z m 10.65258,0 -3.334162,9.11727 h 1.464508 l 0.685231,-2.03502 h 3.509346 l 0.685229,2.03502 h 1.463476 l -3.333646,-9.11727 z m 5.2859844,0 v 5.94279 c 0,1.79728 1.457047,3.25561 3.253031,3.25561 1.797121,0 3.253031,-1.45788 3.253031,-3.25561 v -5.94279 h -1.382861 v 5.94279 c 0,1.03394 -0.836266,1.87172 -1.87017,1.87172 -1.032767,0 -1.87017,-0.83843 -1.87017,-1.87172 v -5.94279 z m 18.786448,0 -3.335197,9.11727 h 1.466062 l 0.683162,-2.03502 H 11.6425 l 0.684713,2.03502 h 1.463992 l -3.333646,-9.11727 z m 3.9847706,0 3.008601,9.11727 h 1.137915 l 3.010151,-9.11727 h -1.46399 l -2.1146,7.00112 -2.114085,-7.00112 z m 10.003007,0 -3.3352,9.11727 h 1.464 l 0.68678,-2.03502 h 3.50779 l 0.68523,2.03502 h 1.46348 l -3.33365,-9.11727 z m -47.329929,1.30224 h 1.87017 c 1.032807,0 1.870171,0.83843 1.870171,1.87172 v 2.76831 c 0,1.03395 -0.837854,1.87224 -1.870171,1.87224 h -1.87017 z m 9.839193,0.57103 1.343072,3.98838 h -2.685624 -5.29e-4 z m 24.0708844,0 1.3451356,3.98838 h -2.6871736 -0.0011 z m 13.9877716,0 1.34308,3.98838 h -2.68563 -5.3e-4 z M 2.0549714,151.75317 c -1.80315302,0 -3.264918,1.46379 -3.264918,3.26853 v 2.77761 c 0,1.80646 1.46208998,3.26802 3.264918,3.26802 1.804742,0 3.265432,-1.46205 3.265432,-3.26802 v -2.77761 c 0,-1.8049 -1.46118,-3.26853 -3.265432,-3.26853 z m -9.957532,0.0822 v 9.15087 l -5.3e-4,0.001 h 5.876645 v -1.30793 h -4.488617 v -7.84397 z m 15.019239,0 v 9.15087 h 1.386994 v -2.77761 l 1.6329756,-1.71669 2.530078,4.4943 h 1.631424 l -3.263882,-5.55677 2.938323,-3.5941 H 12.34013 l -3.8364576,4.73925 v -4.73925 z m 8.4894016,0 v 9.15087 h 1.387513 v -9.15087 z m -13.5516266,1.30742 c 1.03786,0 1.878438,0.84085 1.878438,1.87895 v 2.77761 c 0,1.03884 -0.839806,1.87999 -1.878438,1.87999 -1.036471,0 -1.87688802,-0.84034 -1.87688802,-1.87999 v -2.77761 c 0,-1.03761 0.83980602,-1.87895 1.87688802,-1.87895 z" />
    <g
       style="opacity:1;stroke-width:0.0630315"
       id="g2142"
       transform="matrix(1.373073,0,0,-1.374396,-319.28914,974.52021)">
      <path
         id="path2144"
         d="m 188.197,606.92 h 16.955 v -16.955 h -16.955 z m 16.955,0 z"
         style="color:#000000;font-style:normal;font-variant:normal;font-weight:normal;font-stretch:normal;font-size:medium;line-height:normal;font-family:sans-serif;font-variant-ligatures:normal;font-variant-position:normal;font-variant-caps:normal;font-variant-numeric:normal;font-variant-alternates:normal;font-variant-east-asian:normal;font-feature-settings:normal;font-variation-settings:normal;text-indent:0;text-align:start;text-decoration:none;text-decoration-line:none;text-decoration-style:solid;text-decoration-color:#000000;letter-spacing:normal;word-spacing:normal;text-transform:none;writing-mode:lr-tb;direction:ltr;text-orientation:mixed;dominant-baseline:auto;baseline-shift:baseline;text-anchor:start;white-space:normal;shape-padding:0;shape-margin:0;inline-size:0;clip-rule:nonzero;display:inline;overflow:visible;visibility:visible;isolation:auto;mix-blend-mode:normal;color-interpolation:sRGB;color-interpolation-filters:linearRGB;solid-color:#000000;solid-opacity:1;vector-effect:none;fill:#ffffff;fill-opacity:1;fill-rule:evenodd;stroke:none;stroke-width:0.128401;stroke-linecap:butt;stroke-linejoin:miter;stroke-miterlimit:22.926;stroke-dasharray:none;stroke-dashoffset:0;stroke-opacity:1;color-rendering:auto;image-rendering:auto;shape-rendering:auto;text-rendering:auto;enable-background:accumulate;stop-color:#000000;stop-opacity:1" />
      <path
         id="path2146"
         d="m 187.94727,589.71484 v 17.45508 h 0.25 17.20507 v -17.45508 z m 0.5,0.5 h 16.45507 v 16.45508 h -16.45507 z"
         style="color:#000000;font-style:normal;font-variant:normal;font-weight:normal;font-stretch:normal;font-size:medium;line-height:normal;font-family:sans-serif;font-variant-ligatures:normal;font-variant-position:normal;font-variant-caps:normal;font-variant-numeric:normal;font-variant-alternates:normal;font-variant-east-asian:normal;font-feature-settings:normal;font-variation-settings:normal;text-indent:0;text-align:start;text-decoration:none;text-decoration-line:none;text-decoration-style:solid;text-decoration-color:#000000;letter-spacing:normal;word-spacing:normal;text-transform:none;writing-mode:lr-tb;direction:ltr;text-orientation:mixed;dominant-baseline:auto;baseline-shift:baseline;text-anchor:start;white-space:normal;shape-padding:0;shape-margin:0;inline-size:0;clip-rule:nonzero;display:inline;overflow:visible;visibility:visible;isolation:auto;mix-blend-mode:normal;color-interpolation:sRGB;color-interpolation-filters:linearRGB;solid-color:#000000;solid-opacity:1;vector-effect:none;fill:#000000;fill-opacity:1;fill-rule:evenodd;stroke:none;stroke-width:0.128401;stroke-linecap:butt;stroke-linejoin:miter;stroke-miterlimit:22.926;stroke-dasharray:none;stroke-dashoffset:0;stroke-opacity:1;color-rendering:auto;image-rendering:auto;shape-rendering:auto;text-rendering:auto;enable-background:accumulate;stop-color:#000000;stop-opacity:1" />
    </g>
    <path
       id="path1007"
       style="opacity:1;fill:#000000;fill-opacity:1;fill-rule:evenodd;stroke:none;stroke-width:0.352777"
       d="m -53.923705,147.08297 v -1.21745 -0.0326 c 0,-0.69522 -0.567695,-1.26349 -1.262224,-1.26349 -0.694566,0 -1.262263,0.56827 -1.262263,1.26349 0,0.68091 0.547081,1.24759 1.235294,1.26503 z m 10.852857,1.15552 c 1.333605,0 2.416685,-1.08251 2.416685,-2.41074 0,-1.32696 -1.08308,-2.41061 -2.40988,-2.41061 -1.325658,0 -2.408251,1.08255 -2.408251,2.41061 v 0.0326 l -0.01222,1.24601 -7.297886,0.008 0.0082,-1.21903 v -0.0636 c 0,-1.32696 -1.083083,-2.41057 -2.40972,-2.41057 -1.327246,0 -2.408413,1.08251 -2.408413,2.41057 0,1.32855 1.081493,2.41074 2.408413,2.41074 h 0.03259 l 1.219447,0.008 -0.0041,7.37224 -1.246375,0.004 h -0.0013 c -1.3257,0 -2.408292,1.09999 -2.408292,2.42728 0,1.32696 1.081493,2.41074 2.408292,2.41074 1.327248,0 2.409841,-1.08251 2.409841,-2.41074 v -0.0326 l -0.0041,-1.23171 7.311533,0.008 -0.0041,1.25391 v 0.008 c 0,1.32697 1.081493,2.41074 2.408455,2.41074 1.325657,0 2.409677,-1.08251 2.409677,-2.41074 0,-1.32696 -1.083041,-2.43123 -2.409677,-2.43123 h -0.03259 l -1.266992,-0.008 0.04767,-7.37635 z m -10.852857,8.53778 v 1.22698 0.0477 c 0,0.69526 -0.567695,1.26349 -1.262224,1.26349 -0.694566,0 -1.262263,-0.56823 -1.262263,-1.26349 0,-0.69045 0.561341,-1.25709 1.206775,-1.26345 z m 10.844628,0.008 -1.246415,0.003 v 1.23012 0.0326 c 0,0.69522 0.567695,1.26344 1.262264,1.26344 0.694568,0 1.262263,-0.56822 1.262263,-1.26344 0,-0.69526 -0.567695,-1.26349 -1.262263,-1.26349 z m -1.246415,-9.69188 h 1.23847 c 0.0041,-0.003 0.0163,-0.003 0.0163,-0.003 0.694566,0 1.262263,-0.56826 1.262263,-1.26348 0,-0.69522 -0.567697,-1.26345 -1.262263,-1.26345 -0.694568,0 -1.262266,0.56823 -1.262266,1.26345 v 0.0163 z m -8.4376,1.1222 -0.0081,7.39432 7.292343,-0.001 v -7.39021 l -7.284114,-0.003"
       sodipodi:nodetypes="ccssscccsssccccssssccccssssccccssssccccccssscccccssscccccsssccccccc" />
    <path
       id="path2140"
       d="m -55.184503,160.80255 c -1.512826,0 -2.751582,-1.23966 -2.751582,-2.75407 0,-1.51426 1.235293,-2.77029 2.751582,-2.77029 l 0.903859,-0.003 0.0041,-6.68937 -0.876887,-0.003 h -0.0326 c -1.512785,0 -2.751582,-1.23969 -2.751582,-2.75428 0,-1.51425 1.238471,-2.75423 2.751582,-2.75406 1.512827,0 2.751582,1.23965 2.751582,2.75406 v 0.0636 l -0.0041,0.87298 6.61334,-0.008 0.01222,-0.90475 v -0.0326 c 0,-1.51425 1.23847,-2.75423 2.751582,-2.75407 1.512787,0 2.751421,1.23966 2.751421,2.75407 0,1.51426 -1.24006,2.75423 -2.759527,2.75423 v -0.34426 l -0.0029,0.34426 -0.895956,-0.004 -0.04767,6.68941 0.922885,0.008 h 0.03259 c 1.515962,0 2.751582,1.25872 2.751582,2.77297 0,1.51425 -1.23847,2.75423 -2.751582,2.75423 -1.512827,0 -2.751421,-1.23965 -2.751421,-2.75423 v -0.004 l 0.0027,-0.90952 -6.623973,-0.008 0.0027,0.88569 v 0.0326 c 0,1.51425 -1.23847,2.75406 -2.751421,2.75406 z m 0,-0.68728 c 1.140161,0 2.064962,-0.92696 2.064962,-2.06696 v -0.0326 l -0.0041,-1.57618 7.999785,0.008 -0.0029,1.59728 v 0.004 c 0,1.14126 0.924475,2.06695 2.064961,2.06695 1.140119,0 2.06496,-0.92696 2.06496,-2.06695 0,-1.13963 -0.929281,-2.08566 -2.06496,-2.08566 h -0.03259 l -1.611749,-0.0122 0.04767,-8.06384 1.582576,0.008 h 0.0029 c 1.146476,-10e-4 2.070338,-0.92696 2.070338,-2.06695 0,-1.14122 -0.924473,-2.06692 -2.064962,-2.06692 -1.140161,0 -2.064959,0.92696 -2.064959,2.06692 v 0.0326 l -0.0163,1.58918 -7.98357,0.008 0.01222,-1.56188 v -0.0636 c 0,-1.14126 -0.924472,-2.06696 -2.064959,-2.06696 -1.140161,0 -2.064961,0.92537 -2.064961,2.06696 0,1.14122 0.924515,2.06696 2.064961,2.06696 h 0.03259 l 1.560372,0.008 -0.0041,8.05572 -1.590318,0.004 c -1.136983,0 -2.06496,0.94285 -2.06496,2.08297 0,1.14126 0.924473,2.06696 2.06496,2.06696 z m 0,-0.45871 c -0.881693,0 -1.606369,-0.72541 -1.606369,-1.60792 0,-0.87778 0.702471,-1.59806 1.547701,-1.60523 l 1.662636,-0.0122 v 0.34589 1.22695 0.0477 c 0,0.88251 -0.721498,1.60792 -1.603642,1.60792 z m 12.1216,0 c -0.881695,0 -1.60637,-0.72541 -1.60637,-1.60792 v -0.0326 -1.57301 l 1.590318,-0.003 v 0.68727 l -0.903857,0.003 v 0.88572 0.0326 c 0,0.50792 0.412306,0.9206 0.919748,0.9206 0.507439,0 0.916527,-0.41268 0.916527,-0.9206 0,-0.50793 -0.409088,-0.91747 -0.916527,-0.91747 h -0.01222 v -0.68727 h 0.01222 c 0.881652,0 1.603801,0.72219 1.603801,1.60519 0,0.88255 -0.721498,1.60791 -1.603801,1.60791 z m -12.1216,-0.68732 c 0.507442,0 0.91657,-0.41267 0.91657,-0.9206 v -0.0477 -0.88092 l -0.97051,0.008 c -0.447143,0.004 -0.865806,0.41271 -0.865806,0.91746 0,0.50793 0.412307,0.92061 0.919746,0.92061 z m 2.070338,-3.01453 0.0082,-8.08269 h 0.342638 l 7.626919,0.003 v 8.07715 z m 0.686623,-0.68731 6.605276,-0.003 v -6.70289 l -6.597166,-0.003 z m -2.791714,-7.8303 c -0.87216,-0.0163 -1.571453,-0.74285 -1.571453,-1.60792 0,-0.88251 0.724675,-1.60792 1.60637,-1.60792 0.881653,0 1.60364,0.72541 1.60364,1.60792 v 0.0326 1.56029 l -0.341008,0.003 -1.292373,0.0122 z m 10.550147,0 v -0.34305 -1.24601 -0.0163 c 0,-0.88251 0.724675,-1.60792 1.606328,-1.60792 0.881695,0 1.603846,0.72541 1.603846,1.60792 0,0.88251 -0.721498,1.60519 -1.603846,1.60519 -0.0027,0 -5.29e-4,7.9e-4 0.01222,0 0.0041,-5.3e-4 0.01222,-10e-4 0.03259,-0.004 0.0082,-0.001 0.0163,-0.003 0.04767,-0.008 0.0081,-0.003 0.03259,-0.0122 0.03259,-0.0122 -2.65e-4,1.6e-4 0.04767,-0.0326 0.04767,-0.0326 l -0.07945,0.0636 z m -10.53397,-0.68732 0.935596,-0.008 v -0.87778 -0.0326 c 0,-0.50793 -0.409131,-0.92061 -0.91657,-0.92061 -0.5074,0 -0.919707,0.41268 -0.919707,0.92061 0,0.49521 0.394788,0.90793 0.900681,0.9206 z m 11.220593,0 h 0.881652 c 0.0081,-5.3e-4 0.0081,1.6e-4 0.01222,0 0.0081,-2.6e-4 0.0163,-0.003 0.03259,-0.003 0.507397,0 0.916527,-0.4095 0.916527,-0.91743 0,-0.50793 -0.40913,-0.9206 -0.916527,-0.9206 -0.507442,0 -0.91975,0.41267 -0.91975,0.9206 v 0.0163 z"
       style="color:#000000;font-style:normal;font-variant:normal;font-weight:normal;font-stretch:normal;font-size:medium;line-height:normal;font-family:sans-serif;font-variant-ligatures:normal;font-variant-position:normal;font-variant-caps:normal;font-variant-numeric:normal;font-variant-alternates:normal;font-variant-east-asian:normal;font-feature-settings:normal;font-variation-settings:normal;text-indent:0;text-align:start;text-decoration:none;text-decoration-line:none;text-decoration-style:solid;text-decoration-color:#000000;letter-spacing:normal;word-spacing:normal;text-transform:none;writing-mode:lr-tb;direction:ltr;text-orientation:mixed;dominant-baseline:auto;baseline-shift:baseline;text-anchor:start;white-space:normal;shape-padding:0;shape-margin:0;inline-size:0;clip-rule:nonzero;display:inline;overflow:visible;visibility:visible;opacity:1;isolation:auto;mix-blend-mode:normal;color-interpolation:sRGB;color-interpolation-filters:linearRGB;solid-color:#000000;solid-opacity:1;vector-effect:none;fill:#000000;fill-opacity:1;fill-rule:nonzero;stroke:none;stroke-width:0.17639;stroke-linecap:butt;stroke-linejoin:miter;stroke-miterlimit:22.926;stroke-dasharray:none;stroke-dashoffset:0;stroke-opacity:1;color-rendering:auto;image-rendering:auto;shape-rendering:auto;text-rendering:auto;enable-background:accumulate;stop-color:#000000;stop-opacity:1"
       sodipodi:nodetypes="csccccsscsccccscsccccccssssccccscccsccccssssccccssssccccssssccccscccsccccscccsccccccssssccsscccscccsccccccccccccccsssccccccccssssccccccccccssscccccsssscc" />
  </g>
</svg>
