<?xml version="1.0" encoding="UTF-8" standalone="no"?>
<svg
   xmlns:dc="http://purl.org/dc/elements/1.1/"
   xmlns:cc="http://creativecommons.org/ns#"
   xmlns:rdf="http://www.w3.org/1999/02/22-rdf-syntax-ns#"
   xmlns:svg="http://www.w3.org/2000/svg"
   xmlns="http://www.w3.org/2000/svg"
   xmlns:sodipodi="http://sodipodi.sourceforge.net/DTD/sodipodi-0.dtd"
   xmlns:inkscape="http://www.inkscape.org/namespaces/inkscape"
   sodipodi:docname="Latvia_road_sign_706B.svg"
   inkscape:version="1.0 (4035a4fb49, 2020-05-01)"
   id="svg6774"
   version="1.1"
   viewBox="0 0 333.47489 158.73614"
   height="158.73615mm"
   width="333.47491mm">
  <defs
     id="defs6768" />
  <sodipodi:namedview
     inkscape:window-maximized="1"
     inkscape:window-y="-9"
     inkscape:window-x="-9"
     inkscape:window-height="1001"
     inkscape:window-width="1920"
     fit-margin-bottom="0"
     fit-margin-right="0"
     fit-margin-left="0"
     fit-margin-top="0"
     showgrid="false"
     inkscape:document-rotation="0"
     inkscape:current-layer="g10290"
     inkscape:document-units="mm"
     inkscape:cy="933.09248"
     inkscape:cx="704.85423"
     inkscape:zoom="0.20491755"
     inkscape:pageshadow="2"
     inkscape:pageopacity="0.0"
     borderopacity="1.0"
     bordercolor="#666666"
     pagecolor="#ffffff"
     id="base" />
  <metadata
     id="metadata6771">
    <rdf:RDF>
      <cc:Work
         rdf:about="">
        <dc:format>image/svg+xml</dc:format>
        <dc:type
           rdf:resource="http://purl.org/dc/dcmitype/StillImage" />
        <dc:title></dc:title>
      </cc:Work>
    </rdf:RDF>
  </metadata>
  <g
     transform="translate(300.7726,292.1424)"
     id="layer1"
     inkscape:groupmode="layer"
     inkscape:label="Layer 1">
    <g
       inkscape:groupmode="layer"
       transform="matrix(7.0715152,0,0,7.0715152,2714.867,1607.4986)"
       style="opacity:1;stroke-width:0.141412"
       id="g3362">
      <path
         sodipodi:nodetypes="sssssssss"
         id="path3364"
         d="m -424.74631,-268.54514 h 43.75413 c 0.88746,0 1.61231,0.72623 1.61231,1.61231 v 19.04724 c 0,0.88608 -0.72485,1.61231 -1.61231,1.61231 h -43.75413 c -0.88746,0 -1.61369,-0.72623 -1.61369,-1.61231 v -19.04724 c 0,-0.88608 0.72623,-1.61231 1.61369,-1.61231 z"
         style="color:#000000;font-style:normal;font-variant:normal;font-weight:normal;font-stretch:normal;font-size:medium;line-height:normal;font-family:sans-serif;font-variant-ligatures:normal;font-variant-position:normal;font-variant-caps:normal;font-variant-numeric:normal;font-variant-alternates:normal;font-variant-east-asian:normal;font-feature-settings:normal;font-variation-settings:normal;text-indent:0;text-align:start;text-decoration:none;text-decoration-line:none;text-decoration-style:solid;text-decoration-color:#000000;letter-spacing:normal;word-spacing:normal;text-transform:none;writing-mode:lr-tb;direction:ltr;text-orientation:mixed;dominant-baseline:auto;baseline-shift:baseline;text-anchor:start;white-space:normal;shape-padding:0;shape-margin:0;inline-size:0;clip-rule:nonzero;display:inline;overflow:visible;visibility:visible;isolation:auto;mix-blend-mode:normal;color-interpolation:sRGB;color-interpolation-filters:linearRGB;solid-color:#000000;solid-opacity:1;vector-effect:none;fill:#ffffff;fill-opacity:1;fill-rule:nonzero;stroke:none;stroke-width:0.0249436;stroke-linecap:butt;stroke-linejoin:miter;stroke-miterlimit:22.926;stroke-dasharray:none;stroke-dashoffset:0;stroke-opacity:1;color-rendering:auto;image-rendering:auto;shape-rendering:auto;text-rendering:auto;enable-background:accumulate;stop-color:#000000;stop-opacity:1" />
      <path
         sodipodi:nodetypes="ssssssssssssssssss"
         id="path3366"
         d="m -424.74573,-268.63281 c -0.93558,0 -1.70313,0.76495 -1.70313,1.69922 v 19.04882 c 0,0.93427 0.76755,1.69922 1.70313,1.69922 h 43.75319 c 0.93558,0 1.70117,-0.76504 1.70117,-1.69922 v -19.04882 c 0,-0.93418 -0.76559,-1.69922 -1.70117,-1.69922 z m 0,0.17578 h 43.75319 c 0.83935,0 1.52539,0.68545 1.52539,1.52344 v 19.04882 c 0,0.83799 -0.68604,1.52344 -1.52539,1.52344 h -43.75319 c -0.83935,0 -1.52539,-0.68555 -1.52539,-1.52344 v -19.04882 c 0,-0.83789 0.68604,-1.52344 1.52539,-1.52344 z"
         style="color:#000000;font-style:normal;font-variant:normal;font-weight:normal;font-stretch:normal;font-size:medium;line-height:normal;font-family:sans-serif;font-variant-ligatures:normal;font-variant-position:normal;font-variant-caps:normal;font-variant-numeric:normal;font-variant-alternates:normal;font-variant-east-asian:normal;font-feature-settings:normal;font-variation-settings:normal;text-indent:0;text-align:start;text-decoration:none;text-decoration-line:none;text-decoration-style:solid;text-decoration-color:#000000;letter-spacing:normal;word-spacing:normal;text-transform:none;writing-mode:lr-tb;direction:ltr;text-orientation:mixed;dominant-baseline:auto;baseline-shift:baseline;text-anchor:start;white-space:normal;shape-padding:0;shape-margin:0;inline-size:0;clip-rule:nonzero;display:inline;overflow:visible;visibility:visible;isolation:auto;mix-blend-mode:normal;color-interpolation:sRGB;color-interpolation-filters:linearRGB;solid-color:#000000;solid-opacity:1;vector-effect:none;fill:#000000;fill-opacity:1;fill-rule:nonzero;stroke:none;stroke-width:0.0249436;stroke-linecap:butt;stroke-linejoin:miter;stroke-miterlimit:22.926;stroke-dasharray:none;stroke-dashoffset:0;stroke-opacity:1;color-rendering:auto;image-rendering:auto;shape-rendering:auto;text-rendering:auto;enable-background:accumulate;stop-color:#000000;stop-opacity:1" />
    </g>
    <path
       sodipodi:nodetypes="csssscccc"
       id="path1968"
       style="fill:#a6a8ab;fill-opacity:1;fill-rule:evenodd;stroke:none;stroke-width:0.352777"
       d="m -289.54179,-286.35722 c -2.60189,0.0566 -5.38882,1.91925 -5.38882,5.67097 v 136.04751 c 0,2.329 1.9682,5.44721 5.76864,5.44721 H 21.376907 c 3.41066,0 5.49566,-3.12765 5.48597,-5.61258 l 0.007,-135.89196 c 0.0495,-3.78918 -2.81417,-5.55267 -5.42499,-5.66115 z" />
    <g
       inkscape:groupmode="layer"
       style="opacity:1"
       id="g2362">
      <g
         transform="matrix(9.3369452,0,0,9.4005367,1873.872,3019.0354)"
         style="opacity:1;stroke-width:0.106739"
         id="g10290">
        <path
           id="path5491"
           style="opacity:1;fill:#ffffff;fill-opacity:1;fill-rule:evenodd;stroke:none;stroke-width:0.0376549"
           d="m -207.03077,-349.48807 c -0.0468,10e-4 -0.0973,0.005 -0.14499,0.009 -0.3564,0.0376 -0.63797,0.3215 -0.68474,0.67496 -0.0561,0.42867 0.24696,0.82537 0.67632,0.88083 l 0.44527,0.0564 c 0.14873,0.0188 0.27221,0.12972 0.30869,0.27543 0.0468,0.19741 -0.0748,0.39858 -0.26754,0.44653 -0.36856,0.094 -0.75676,0 -1.04628,-0.24348 l -0.2694,0.31962 c 0.39101,0.3309 0.91672,0.45311 1.41755,0.32902 0.31244,-0.0752 0.5463,-0.3403 0.58839,-0.65992 0.0561,-0.42866 -0.24508,-0.82254 -0.67632,-0.88083 l -0.44713,-0.0564 c -0.16464,-0.0188 -0.2956,-0.15323 -0.31431,-0.31962 -0.0281,-0.20211 0.1188,-0.38448 0.31992,-0.40892 0.28718,-0.0376 0.57716,0.0376 0.81476,0.20117 l 0.2376,-0.345 c -0.2825,-0.19271 -0.61739,-0.29142 -0.95629,-0.28108 z m -10.53568,0.0564 v 2.74655 h 0.41814 v -1.17713 h 0.54068 l 0.565,1.17713 h 0.4911 l -0.63048,-1.21953 c 0.31711,-0.10717 0.5332,-0.40704 0.5332,-0.74264 0,-0.43243 -0.35172,-0.78401 -0.7867,-0.78401 z m 7.89271,0 -1.00643,2.74655 h 0.44246 l 0.20579,-0.61291 h 1.06181 l 0.20767,0.61291 h 0.44246 l -1.00952,-2.74655 z m -10.39592,0.002 v 2.74505 h 0.98155 c 0.54442,0 0.98472,-0.43994 0.98472,-0.97981 v -0.78589 c 0,-0.54053 -0.44058,-0.97972 -0.98472,-0.97972 z m 7.32686,0.0188 0.90269,2.72596 h 0.34144 l 0.90175,-2.72596 h -0.43871 l -0.63236,2.0934 -0.63516,-2.0934 z m -2.33708,0.0282 v 1.74041 c 0,0.52737 0.42843,0.95397 0.95676,0.95397 0.52478,0 0.95367,-0.42585 0.95367,-0.95397 v -1.74041 h -0.40691 v 1.74041 c 0,0.30458 -0.24602,0.54899 -0.54723,0.54899 -0.30495,0 -0.55097,-0.24441 -0.55097,-0.54899 v -1.74041 z m -2.06824,0.31586 h 0.68941 c 0.23105,0 0.4172,0.18613 0.4172,0.41644 0,0.23031 -0.18615,0.41738 -0.4172,0.41738 h -0.68941 z m -2.50425,0.0282 h 0.56407 c 0.31337,0 0.56687,0.25193 0.56687,0.56215 v 0.83477 c 0,0.31021 -0.25257,0.56215 -0.56687,0.56215 h -0.56407 z m 10.15159,0.16827 0.40598,1.20308 h -0.81102 z m -16.42796,2.26289 -4.016,2.24071 3.98129,2.42675 -0.63609,-1.66502 h 3.95697 l -0.009,-1.23457 -3.88916,-0.0282 z m 12.61074,1.36637 c -0.0964,-0.006 -0.19269,-0.003 -0.28904,0.009 -0.35734,0.0376 -0.6389,0.3215 -0.68568,0.67496 -0.0561,0.42867 0.24696,0.82537 0.67632,0.88083 l 0.44527,0.0564 c 0.1506,0.0188 0.27127,0.12973 0.30869,0.27638 0.0468,0.19741 -0.0748,0.39858 -0.26753,0.44653 -0.36856,0.094 -0.75677,0 -1.04628,-0.24348 l -0.26941,0.31962 c 0.39101,0.3309 0.91766,0.45405 1.41755,0.32996 0.3115,-0.0752 0.5463,-0.3403 0.58839,-0.66086 0.0561,-0.42866 -0.24508,-0.82255 -0.67632,-0.88083 l -0.44713,-0.0564 c -0.16464,-0.0188 -0.2956,-0.15323 -0.31431,-0.31962 -0.0281,-0.20211 0.11787,-0.38448 0.31992,-0.40892 0.28718,-0.0376 0.57716,0.0376 0.81476,0.20117 l 0.2376,-0.34406 c -0.24228,-0.16639 -0.52384,-0.26134 -0.81102,-0.2792 z m -3.25446,0.0564 v 2.74609 h 1.76853 v -0.39294 h -1.3502 v -2.35333 z m 4.74087,0 v 2.74609 h 0.41813 v -0.83383 l 0.49298,-0.51703 0.75957,1.35039 h 0.49297 l -0.98314,-1.66709 0.88398,-1.079 h -0.4911 l -1.15451,1.42052 v -1.42052 z m 3.49982,0 -1.00755,2.74609 h 0.44339 l 0.2058,-0.61292 h 1.06031 l 0.2086,0.61292 h 0.4434 l -1.00952,-2.74609 z m 1.79079,0 v 2.74609 h 1.76853 v -0.39294 h -1.35179 v -2.35333 z m -11.05035,0.001 v 2.74505 h 0.41627 v -2.74505 z m 13.29782,0 v 2.74505 h 0.4172 v -1.96058 l 1.25339,1.96058 h 0.39382 v -2.74505 h -0.41814 v 1.96114 l -1.25236,-1.96114 z m 2.81537,0 v 2.74505 h 0.41814 v -2.74505 z m -18.59003,0.002 v 2.74345 h 0.41721 v -1.0774 h 0.66228 c 0.46117,0 0.83534,-0.37414 0.83534,-0.83288 0,-0.46063 -0.37417,-0.83383 -0.83534,-0.83383 z m 0.41721,0.39294 h 0.63796 c 0.24415,0 0.4434,0.19647 0.4434,0.44088 0,0.2416 -0.19925,0.43995 -0.4434,0.43995 h -0.63796 z m 11.49243,0.16639 0.40598,1.20308 h -0.81195 z m -10.71228,3.60905 v 1.87278 c 0,0.14758 -0.0655,0.28483 -0.18896,0.37226 -0.2058,0.15323 -0.49578,0.10716 -0.64638,-0.0978 l -0.33489,0.24535 c 0.16557,0.22468 0.42843,0.35723 0.70719,0.35723 0.48642,0 0.8765,-0.39107 0.8765,-0.87613 v -1.87278 z m 17.37237,0 v 1.87278 c 0,0.14758 -0.0748,0.28483 -0.18989,0.37226 -0.20673,0.15323 -0.49578,0.10716 -0.64732,-0.0978 l -0.33488,0.24535 c 0.16744,0.22468 0.42842,0.35723 0.70718,0.35723 0.48643,0 0.87837,-0.39107 0.87837,-0.87613 v -1.87278 z m -15.63013,0.001 -1.00756,2.74815 h 0.4434 l 0.20579,-0.61479 h 1.06191 l 0.20673,0.61479 h 0.44152 l -1.00802,-2.74815 z m 9.25432,0 v 2.74815 h 1.76853 v -0.39294 h -1.35179 v -0.80939 h 1.15554 v -0.36756 h -1.15554 v -0.78588 h 1.35179 v -0.39295 z m -4.97173,0.002 v 2.74655 h 0.41814 v -1.96114 l 1.25236,1.96114 h 0.39382 v -2.74674 h -0.41721 v 1.96114 l -1.25394,-1.96114 z m 12.47511,0 v 2.74655 h 0.41721 v -2.74674 z m -5.13168,0.0188 v 2.72596 h 0.41533 v -1.7281 l 0.58371,1.33798 h 0.33956 l 0.58371,-1.33807 v 1.72801 h 0.41533 v -2.72588 h -0.39101 l -0.77828,1.77765 -0.77828,-1.77765 z m -4.68128,0.002 v 0.3638 h 1.19286 l -1.2415,2.02158 v 0.33936 h 1.75346 v -0.39012 h -1.24094 l 1.24094,-2.01895 v -0.31492 z m -5.17724,0.0282 v 1.74154 c 0,0.52737 0.42936,0.95387 0.95779,0.95387 0.52477,0 0.95255,-0.42584 0.95255,-0.95387 v -1.74154 h -0.40598 v 1.74154 c 0,0.30364 -0.24602,0.54899 -0.54629,0.54899 -0.30495,0 -0.55097,-0.24535 -0.55097,-0.54899 v -1.74154 z m -1.59463,0.51139 0.40597,1.20148 h -0.81195 z" />
      </g>
    </g>
  </g>
</svg>
