<?xml version="1.0" encoding="UTF-8" standalone="no"?>
<!-- Created with Inkscape (http://www.inkscape.org/) -->

<svg
   xmlns:dc="http://purl.org/dc/elements/1.1/"
   xmlns:cc="http://creativecommons.org/ns#"
   xmlns:rdf="http://www.w3.org/1999/02/22-rdf-syntax-ns#"
   xmlns:svg="http://www.w3.org/2000/svg"
   xmlns="http://www.w3.org/2000/svg"
   xmlns:sodipodi="http://sodipodi.sourceforge.net/DTD/sodipodi-0.dtd"
   xmlns:inkscape="http://www.inkscape.org/namespaces/inkscape"
   width="194.99997mm"
   height="101.55597mm"
   viewBox="0 0 194.99996 101.55597"
   version="1.1"
   id="svg3845"
   inkscape:version="0.92.3 (2405546, 2018-03-11)"
   sodipodi:docname="Latvia_road_sign_733.svg">
  <defs
     id="defs3839" />
  <sodipodi:namedview
     id="base"
     pagecolor="#ffffff"
     bordercolor="#666666"
     borderopacity="1.0"
     inkscape:pageopacity="0.0"
     inkscape:pageshadow="2"
     inkscape:zoom="0.175"
     inkscape:cx="-285.26663"
     inkscape:cy="609.81016"
     inkscape:document-units="mm"
     inkscape:current-layer="layer1"
     showgrid="false"
     inkscape:window-width="1600"
     inkscape:window-height="838"
     inkscape:window-x="-8"
     inkscape:window-y="-8"
     inkscape:window-maximized="1" />
  <metadata
     id="metadata3842">
    <rdf:RDF>
      <cc:Work
         rdf:about="">
        <dc:format>image/svg+xml</dc:format>
        <dc:type
           rdf:resource="http://purl.org/dc/dcmitype/StillImage" />
        <dc:title></dc:title>
      </cc:Work>
    </rdf:RDF>
  </metadata>
  <g
     inkscape:label="Layer 1"
     inkscape:groupmode="layer"
     id="layer1"
     transform="translate(-1306.8853,327.54995)">
    <path
       d="m 1324.1796,-326.83137 h 160.4114 c 9.1173,0 16.5757,7.45891 16.5757,16.57628 v 66.96624 c 0,9.11737 -7.4584,16.57628 -16.5757,16.57628 h -160.4114 c -9.1173,0 -16.5757,-7.45891 -16.5757,-16.57628 v -66.96624 c 0,-9.11737 7.4584,-16.57628 16.5757,-16.57628 z"
       style="fill:#ffdd2e;fill-opacity:1;fill-rule:evenodd;stroke:#000000;stroke-width:1.43716633;stroke-linecap:butt;stroke-linejoin:miter;stroke-miterlimit:22.9260006;stroke-dasharray:none;stroke-opacity:1"
       id="path14227"
       inkscape:connector-curvature="0" />
    <path
       d="m 1326.8015,-319.36098 h 155.1358 c 5.6855,0 10.3362,4.64787 10.3362,10.32748 v 64.52306 c 0,5.67969 -4.6507,10.32747 -10.3362,10.32747 h -155.1358 c -5.6854,0 -10.3362,-4.64778 -10.3362,-10.32747 v -64.52306 c 0,-5.67961 4.6508,-10.32748 10.3362,-10.32748"
       style="fill:#ffdd2e;fill-opacity:1;fill-rule:evenodd;stroke:none;stroke-width:2.87433267"
       id="path14229"
       inkscape:connector-curvature="0" />
    <path
       d="m 1324.4387,-234.76072 167.7778,-67.31977 c 0.9508,-7.3956 -0.66,-16.27155 -7.8699,-16.82633 l -167.9847,66.65002 c -0.1711,9.21515 -0.1385,15.89505 8.0768,17.49608"
       style="fill:#ed1a3a;fill-opacity:1;fill-rule:evenodd;stroke:none;stroke-width:2.87433267"
       id="path14231"
       inkscape:connector-curvature="0" />
    <g
       id="g14233"
       transform="matrix(2.8756867,0,0,-2.8729791,766.36663,1221.52)">
      <path
         d="m 194.888,536.335 h 53.947 c 1.977,0 3.595,-1.617 3.595,-3.594 v -22.459 c 0,-1.977 -1.618,-3.594 -3.595,-3.594 h -53.947 c -1.977,0 -3.595,1.617 -3.595,3.594 v 22.459 c 0,1.977 1.618,3.594 3.595,3.594 z"
         style="fill:none;stroke:#000000;stroke-width:1.41100001;stroke-linecap:butt;stroke-linejoin:miter;stroke-miterlimit:22.9260006;stroke-dasharray:none;stroke-opacity:1"
         id="path14235"
         inkscape:connector-curvature="0" />
    </g>
  </g>
</svg>
