<?xml version="1.0" encoding="UTF-8" standalone="no"?>
<svg
   xmlns:dc="http://purl.org/dc/elements/1.1/"
   xmlns:cc="http://creativecommons.org/ns#"
   xmlns:rdf="http://www.w3.org/1999/02/22-rdf-syntax-ns#"
   xmlns:svg="http://www.w3.org/2000/svg"
   xmlns="http://www.w3.org/2000/svg"
   xmlns:sodipodi="http://sodipodi.sourceforge.net/DTD/sodipodi-0.dtd"
   xmlns:inkscape="http://www.inkscape.org/namespaces/inkscape"
   sodipodi:docname="Latvia_road_sign_734B.svg"
   inkscape:version="1.0 (4035a4fb49, 2020-05-01)"
   id="svg3845"
   version="1.1"
   viewBox="0 0 194.99998 286.76254"
   height="286.76254mm"
   width="194.99998mm">
  <defs
     id="defs3839" />
  <sodipodi:namedview
     inkscape:document-rotation="0"
     inkscape:window-maximized="1"
     inkscape:window-y="-9"
     inkscape:window-x="-9"
     inkscape:window-height="1001"
     inkscape:window-width="1920"
     showgrid="false"
     inkscape:current-layer="layer1"
     inkscape:document-units="mm"
     inkscape:cy="541.91347"
     inkscape:cx="368.50391"
     inkscape:zoom="0.73904788"
     inkscape:pageshadow="2"
     inkscape:pageopacity="0.0"
     borderopacity="1.0"
     bordercolor="#666666"
     pagecolor="#ffffff"
     id="base" />
  <metadata
     id="metadata3842">
    <rdf:RDF>
      <cc:Work
         rdf:about="">
        <dc:format>image/svg+xml</dc:format>
        <dc:type
           rdf:resource="http://purl.org/dc/dcmitype/StillImage" />
        <dc:title></dc:title>
      </cc:Work>
    </rdf:RDF>
  </metadata>
  <g
     transform="translate(-1129.3981,653.73309)"
     id="layer1"
     inkscape:groupmode="layer"
     inkscape:label="Layer 1">
    <path
       id="path899"
       style="fill:#ffdd2e;fill-opacity:1;fill-rule:evenodd;stroke:#000000;stroke-width:0.863988;stroke-linecap:butt;stroke-linejoin:miter;stroke-miterlimit:22.926;stroke-dasharray:none;stroke-opacity:1"
       d="m 1142.5409,-653.3011 h 168.7144 c 6.9912,0 12.7108,5.79393 12.7108,12.87343 v 260.14996 c 0,7.08122 -5.7196,12.87515 -12.7108,12.87515 h -168.7144 c -6.9912,0 -12.7108,-5.79393 -12.7108,-12.87515 v -260.14996 c 0,-7.0795 5.7196,-12.87343 12.7108,-12.87343 z" />
    <path
       id="path901"
       style="fill:#000000;fill-opacity:1;fill-rule:nonzero;stroke:none;stroke-width:1.72797"
       d="m 1300.0012,-385.33034 h 2.9874 v -225.41765 h -2.9874 z" />
    <path
       id="path907"
       style="fill:none;stroke:#000000;stroke-width:4.89883;stroke-linecap:butt;stroke-linejoin:miter;stroke-miterlimit:22.926;stroke-dasharray:none;stroke-opacity:1"
       d="m 1142.992,-645.41462 h 167.8107 c 2.5069,0 4.5563,2.13753 4.5563,4.75022 v 260.62513 c 0,2.6127 -2.0494,4.74846 -4.5563,4.74846 H 1142.992 c -2.5054,0 -4.5568,-2.13576 -4.5568,-4.74846 V -640.6644 c 0,-2.61269 2.0514,-4.75022 4.5568,-4.75022 z" />
    <path
       id="path909"
       style="fill:none;stroke:#000000;stroke-width:0.863988;stroke-linecap:butt;stroke-linejoin:miter;stroke-miterlimit:22.926;stroke-dasharray:none;stroke-opacity:1"
       d="m 1246.9885,-454.48731 -0.5824,4.14367 m 0.6843,-94.30072 -0.5824,4.14368 m 0.48,131.09106 -0.5823,4.14367 m 0.5823,-4.14367 -0.5823,4.14367 m 36.7158,-49.22479 0.6138,4.1523 m -0.5119,-94.30935 0.6138,4.1523 m -0.7157,131.0841 0.6138,4.15235 m -0.6138,-4.15235 0.6138,4.15235 m -56.8421,-205.48895 -76.0876,0.003 v 150.26984 10e-4 -10e-4 10e-4 -10e-4 l 76.0875,-75.13404 v -75.13923 75.13923 l -76.0875,75.13404 v -150.26984 z"
       sodipodi:nodetypes="ccccccccccccccccccccccccccccc" />
    <path
       id="path2147"
       d="m 1175.3348,-392.38796 c -0.049,-10e-4 -0.9448,-0.005 -1.9931,-0.01 -1.0482,-0.004 -2.0939,-0.01 -2.3242,-0.01 l -0.4163,-0.004 -0.4212,-0.53439 -0.4213,-0.53439 v -4.31463 c 0,-2.37303 0,-4.3158 0,-4.31722 0,-0.004 30.9199,0.01 34.9868,0.0196 l 3.1653,0.004 v 2.43499 c 0,1.33927 0,3.28542 0,4.32477 v 1.88972 l -0.575,0.52695 -0.5751,0.52695 -0.6162,-0.005 c -0.3379,-0.001 -1.2025,-0.005 -1.9196,-0.01 -0.7166,-0.004 -1.4606,-0.01 -1.6536,-0.01 l -0.3527,-0.004 -0.4849,-0.55948 -0.4849,-0.55947 v -1.48689 -1.48685 l -6.4406,10e-5 c -3.5424,1e-4 -9.1538,0.001 -12.4698,0.005 l -6.0292,0.005 v 0.80865 c 0,0.44475 0,1.12374 0,1.50884 v 0.70029 l -0.4261,0.5488 c -0.4164,0.53449 -0.4262,0.54879 -0.4507,0.54913 0,0 -0.064,0 -0.1126,-0.001 z m 15.6488,-10.5677 c -8.5106,-10e-4 -16.7695,-0.005 -18.3541,-0.005 l -2.8801,-7.9e-4 v -1.41988 c 0,-0.8179 0,-1.47803 0,-1.55709 0,-0.0754 0,-0.21307 0,-0.30565 0.054,-1.26584 0.2204,-2.29901 0.5432,-3.34316 0.049,-0.0906 0.073,-0.24001 0.1029,-0.3321 0.338,-1.13011 0.7935,-2.36891 1.2715,-3.45876 1.1619,-2.64816 2.6,-4.93043 4.1846,-6.63926 0.1175,-0.12588 0.65,-0.6592 0.7293,-0.72988 l 0.054,-0.0441 0.1273,-0.01 c 3.3529,-0.33014 6.4426,-0.52474 9.506,-0.59827 1.5743,-0.0392 3.6041,-0.0392 5.0064,-0.004 0.7068,0.0196 1.0845,0.0294 1.5625,0.049 2.6304,0.0989 5.3719,0.30613 7.9709,0.60228 l 0.2302,0.0245 0.1273,0.12099 c 0.3282,0.31544 0.6025,0.61193 0.9268,1.00094 1.7178,2.05989 3.632,5.38988 4.6395,8.07012 0.245,0.65601 0.436,1.26437 0.5521,1.78441 0,0.0759 0.049,0.20328 0.073,0.28263 0.2841,0.95152 0.436,1.87454 0.5021,3.05701 0.049,0.43349 0.049,0.63113 0.049,2.04872 v 1.41905 l -0.7264,-0.001 c -0.4016,-6.9e-4 -7.6897,-0.004 -16.1998,-0.005 z m 16.0528,-2.97419 c 0,-0.0441 0,-0.15331 0,-0.24393 0,-0.29438 -0.049,-0.78959 -0.054,-0.7985 0,-0.004 -6.5317,0.01 -6.5361,0.0147 0,0.001 0,0.24981 0,0.55105 v 0.54821 l 1.1937,10e-4 c 0.6564,7.8e-4 2.1444,0.001 3.3068,0.004 l 2.1131,10e-4 z m -29.806,-0.47953 v -0.55188 l -3.271,-0.001 c -1.7986,-7.9e-4 -3.2735,1.4e-4 -3.2764,0.001 0,0.01 -0.054,0.59983 -0.064,0.94148 v 0.16164 h 3.3073 3.3072 z m 27.8913,-1.42018 c 0.9542,-10e-4 1.7374,-0.005 1.7399,-0.01 0,-0.01 -0.054,-0.34483 -0.1078,-0.6039 -0.049,-0.19005 -0.1176,-0.49716 -0.1665,-0.6566 v -0.049 l -3.0683,0.005 c -1.6874,0.001 -3.0697,0.005 -3.0711,0.01 0,10e-4 0,0.2983 0,0.65979 v 0.65704 l 1.4808,-0.005 c 0.8145,-0.001 2.2614,-0.005 3.2156,-0.01 z m -27.8903,-0.005 c 0,-0.005 0,-1.30498 0,-1.31081 0,-10e-4 -1.3852,-10e-4 -3.0722,3.9e-4 l -3.0677,0.005 v 0.0343 c -0.059,0.20328 -0.1469,0.55423 -0.2008,0.83578 -0.049,0.1734 -0.078,0.41488 -0.078,0.43643 0,0.01 0.3429,0.01 3.2206,0.005 1.7712,-0.001 3.222,-0.005 3.2245,-0.01 z m 26.8602,-3.78861 c -0.6255,-1.54567 -1.4778,-3.12279 -2.5867,-4.78401 -0.4506,-0.67517 -0.868,-1.26281 -1.4357,-2.02085 l -0.2939,-0.3948 -0.049,-0.004 c 0,-0.001 -0.2009,-0.0196 -0.3968,-0.0392 -4.5568,-0.42223 -9.1537,-0.56721 -13.7634,-0.43447 -2.4628,0.071 -4.9516,0.22581 -7.409,0.46141 -0.1176,0.01 -0.2303,0.0245 -0.2499,0.0245 l -0.049,0.004 -0.1029,0.11217 c -0.5966,0.64196 -1.3357,1.61459 -2.0607,2.7112 -0.961,1.45437 -1.7281,2.86769 -2.2203,4.09048 -0.049,0.0759 -0.064,0.16164 -0.073,0.19103 v 0.0529 l 0.049,-0.004 c 0.142,-0.01 1.6046,-0.0931 2.3722,-0.13127 1.1584,-0.0583 1.9362,-0.0916 3.2725,-0.14156 0.2792,-0.01 0.7318,-0.0245 1.0977,-0.0343 0.1812,-0.005 0.3771,-0.01 0.4359,-0.0147 0.1029,-0.004 0.2988,-0.01 0.8484,-0.0245 0.8905,-0.0245 1.8358,-0.0441 3.148,-0.0612 0.7592,-0.01 3.8961,-0.0147 4.811,-0.005 4.5255,0.0441 8.7536,0.21013 12.9484,0.50922 0.5055,0.0343 1.6678,0.12392 1.7545,0.13274 0,7.8e-4 0,-10e-4 0,-0.005 0,-0.004 -0.049,-0.0887 -0.073,-0.18858 z"
       style="fill:#ed1a3a;fill-opacity:1;stroke-width:0.0067335" />
    <path
       id="path915"
       style="fill:none;stroke:#000000;stroke-width:0.863988;stroke-linecap:butt;stroke-linejoin:bevel;stroke-miterlimit:22.926;stroke-dasharray:none;stroke-opacity:1"
       d="m 1165.4316,-610.74451 -14.6255,14.44066 z m 13.7561,-0.004 -28.3816,28.026 z m 13.7547,0 -42.1348,41.60967 z m 13.7565,0 -55.8913,55.19325 z m 13.7547,0 -69.646,68.77687 z m 6.4401,7.22121 z m 0,0 -76.0861,75.13928 z m 0,13.58363 z m 0,0 -76.0861,75.13923 z m 0,13.58186 z m 0,0 -76.0895,75.13928 z m 0,13.58357 z m 0,0 -76.0895,75.13928 z m 0,13.58534 z m 0,0 -76.0895,75.13757 z" />
    <path
       id="path917"
       style="fill:#000000;fill-opacity:1;fill-rule:evenodd;stroke:#000000;stroke-width:0.863988;stroke-linecap:butt;stroke-linejoin:miter;stroke-miterlimit:22.926;stroke-dasharray:none;stroke-opacity:1"
       d="m 1247.1076,-527.91409 -0.629,-0.79488 v -8.05062 l 37.2861,0.0147 v 8.03338 l -0.8866,0.81212 -4.1747,-0.0245 -0.7431,-0.8588 v -3.23996 l -25.8002,0.01 v 3.29869 l -0.6343,0.81736 z m -0.629,-10.54929 v -2.0373 h 7.4805 v -1.96295 l -7.4477,-0.005 7.4595,-0.01 v -2.17377 l -6.8879,0.01 c 1.2858,-4.38903 3.563,-8.44287 6.0772,-10.80674 8.4964,-0.83808 16.022,-0.84842 24.0208,0.0588 2.2409,2.10813 5.3547,7.59102 6.0355,10.74458 l -6.8947,0.01 v 2.17724 l 7.5119,-0.0196 -7.5085,0.0196 v 1.95781 l 7.4791,0.01 v 2.03725 z m 7.5148,-15.82998 c 7.5393,-0.75339 15.0943,-0.71881 22.2981,-0.01 1.9612,2.56083 3.7153,5.22883 4.809,8.28907 -10.3195,-0.87261 -21.2904,-0.92272 -32.0126,-0.24197 0.9385,-2.99456 3.7359,-6.91708 4.9055,-8.03681 z" />
    <path
       style="fill:none;stroke:#ed1a3a;stroke-width:0.864419;stroke-linecap:butt;stroke-linejoin:miter;stroke-miterlimit:4;stroke-dasharray:none;stroke-opacity:1"
       d="m 1246.8847,-589.72371 c -0.4506,1.38119 -0.5682,2.76243 -0.5824,4.14367"
       id="path975"
       sodipodi:nodetypes="cc" />
    <path
       id="path919"
       style="fill:#ed1a3a;fill-opacity:1;fill-rule:evenodd;stroke:#ed1a3a;stroke-width:0.864419;stroke-linecap:butt;stroke-linejoin:miter;stroke-miterlimit:22.926;stroke-dasharray:none;stroke-opacity:1"
       d="m 1246.9347,-572.99349 -0.629,-0.79488 v -8.05062 l 37.288,0.0196 v 8.03162 l -0.8865,0.81217 -4.1748,-0.0245 -0.743,-0.8588 v -3.23996 l -25.8003,0.01 v 3.29869 l -0.6343,0.81736 z m -0.629,-10.54929 v -2.03726 h 7.4805 v -1.96123 l -7.4458,-0.005 7.458,-0.01 v -2.17553 l -6.8859,0.01 c 1.2858,-4.38907 3.563,-8.44292 6.0772,-10.80678 8.4964,-0.83804 16.022,-0.84842 24.0208,0.0588 2.2414,2.10814 5.3532,7.59098 6.036,10.74454 l -6.8966,0.01 v 2.17725 l 7.5119,-0.0196 -7.508,0.0196 v 1.95781 l 7.4791,0.01 v 2.03731 z m 7.5153,-15.82994 c 7.5388,-0.75344 15.0938,-0.71714 22.2961,-0.01 1.9627,2.55916 3.7168,5.22715 4.8105,8.2874 -10.3195,-0.8709 -21.2905,-0.92277 -32.0141,-0.24197 0.94,-2.99461 3.7359,-6.91708 4.9075,-8.03681 z" />
    <path
       id="path921"
       style="fill:#000000;fill-opacity:1;fill-rule:evenodd;stroke:#000000;stroke-width:0.863988;stroke-linecap:butt;stroke-linejoin:miter;stroke-miterlimit:22.926;stroke-dasharray:none;stroke-opacity:1"
       d="m 1247.0385,-437.75704 -0.6289,-0.79488 v -8.05062 l 37.2865,0.0147 v 8.03338 l -0.888,0.81212 -4.1748,-0.0245 -0.743,-0.8588 v -3.23996 l -25.8008,0.01 v 3.29869 l -0.6343,0.81736 z m -0.6289,-10.54929 v -2.03731 h 7.4786 v -1.96295 l -7.4477,-0.005 7.4594,-0.01 v -2.17377 l -6.8863,0.01 c 1.2843,-4.38902 3.5614,-8.44287 6.0757,-10.80673 8.4983,-0.83809 16.022,-0.84842 24.0207,0.0588 2.2409,2.10809 5.3547,7.59098 6.0356,10.74454 l -6.8947,0.01 v 2.17725 l 7.5114,-0.0196 -7.5079,0.0196 v 1.95781 l 7.479,0.01 v 2.03726 z m 7.5148,-15.82998 c 7.5393,-0.7534 15.0938,-0.7171 22.298,-0.01 1.9613,2.55916 3.7148,5.22711 4.8091,8.28735 -10.3195,-0.87261 -21.289,-0.92272 -32.0127,-0.24197 0.9385,-2.99456 3.7359,-6.91703 4.9056,-8.03676 z" />
    <path
       id="path927"
       style="fill:#000000;fill-opacity:1;fill-rule:evenodd;stroke:#000000;stroke-width:0.863988;stroke-linecap:butt;stroke-linejoin:miter;stroke-miterlimit:22.926;stroke-dasharray:none;stroke-opacity:1"
       d="m 1247.0385,-392.67768 -0.6289,-0.79483 v -8.05063 l 37.2865,0.0147 v 8.03333 l -0.888,0.81217 -4.1748,-0.0294 -0.743,-0.85709 v -3.23991 l -25.8008,0.01 v 3.29874 l -0.6343,0.81731 z m -0.6289,-10.54925 v -2.03902 l 7.4786,10e-4 v -1.96251 l -7.4477,-0.005 7.4594,-0.01 v -2.17382 l -6.8863,0.01 c 1.2843,-4.38736 3.5614,-8.44121 6.0757,-10.80507 8.4983,-0.83804 16.022,-0.84842 24.0207,0.0588 2.2409,2.10814 5.3547,7.58927 6.0356,10.74454 l -6.8947,0.005 v 2.17724 l 7.5114,-0.0196 -7.5079,0.0196 v 1.95781 l 7.479,0.01 v 2.0373 z m 7.5148,-15.82998 c 7.5393,-0.75339 15.0938,-0.71886 22.298,-0.01 1.9613,2.55916 3.7148,5.22887 4.8091,8.28912 -10.3195,-0.87266 -21.289,-0.92272 -32.0127,-0.24197 0.9385,-2.99632 3.7359,-6.9188 4.9056,-8.03681 z" />
    <path
       id="path931"
       style="fill:#000000;fill-opacity:1;fill-rule:nonzero;stroke:none;stroke-width:1.72797"
       d="m 1225.4424,-455.21131 h 2.9448 v -6.23487 h -2.9448 z" />
    <path
       id="path933"
       style="fill:#000000;fill-opacity:1;fill-rule:nonzero;stroke:none;stroke-width:1.72797"
       d="m 1225.4766,-445.24266 h 2.9115 v -6.23501 h -2.9115 z" />
    <path
       id="path935"
       style="fill:#000000;fill-opacity:1;fill-rule:nonzero;stroke:none;stroke-width:1.72797"
       d="m 1225.51,-465.14544 h 2.9119 v -6.23486 h -2.9119 z" />
    <path
       id="path937"
       style="fill:#000000;fill-opacity:1;fill-rule:nonzero;stroke:none;stroke-width:1.72797"
       d="m 1225.4424,-435.30853 h 2.9114 v -6.23452 h -2.9114 z" />
    <path
       id="path939"
       style="fill:#000000;fill-opacity:1;fill-rule:nonzero;stroke:none;stroke-width:1.72797"
       d="m 1225.4095,-425.27242 h 2.9115 v -6.23452 h -2.9115 z" />
    <path
       id="path941"
       style="fill:#000000;fill-opacity:1;fill-rule:nonzero;stroke:none;stroke-width:1.72797"
       d="m 1225.5442,-415.30377 h 2.9115 v -6.23437 h -2.9115 z" />
    <path
       id="path943"
       style="fill:#000000;fill-opacity:1;fill-rule:nonzero;stroke:none;stroke-width:1.72797"
       d="m 1225.3748,-405.33682 h 2.9115 v -6.23487 h -2.9115 z" />
    <path
       id="path945"
       style="fill:#000000;fill-opacity:1;fill-rule:nonzero;stroke:none;stroke-width:1.72797"
       d="m 1225.4424,-395.36812 h 2.9114 v -6.23486 h -2.9114 z" />
    <path
       id="path947"
       style="fill:#000000;fill-opacity:1;fill-rule:nonzero;stroke:none;stroke-width:1.72797"
       d="m 1225.4424,-385.33206 h 2.9114 v -6.23452 h -2.9114 z" />
    <path
       id="path949"
       style="fill:#000000;fill-opacity:1;fill-rule:evenodd;stroke:none;stroke-width:1.72797"
       d="m 1150.379,-459.66603 v 74.33569 h 2.8581 v -77.12981 l -2.8601,2.79412" />
    <path
       id="path951"
       style="fill:#ed1a3a;fill-opacity:1;fill-rule:evenodd;stroke:#ed1a3a;stroke-width:0.863988;stroke-linecap:butt;stroke-linejoin:miter;stroke-miterlimit:22.926;stroke-dasharray:none;stroke-opacity:1"
       d="m 1207.3832,-453.47123 8.5606,-8.21653 -2.2689,6.30535 6.5886,0.76035 -6.2187,2.90473 2.0645,4.42184 z" />
    <g
       aria-label="Ievēro principu!"
       transform="matrix(1.7279741,0,0,1.7279741,869.42101,558.11414)"
       id="text973"
       style="font-size:13.6175px;line-height:1.15;font-family:IrisUPC;-inkscape-font-specification:'IrisUPC, Normal';fill:#000000;fill-opacity:1;stroke-width:0.340435">
      <path
         d="m 162.7856,-681.09858 q -0.0798,0 -0.0798,-0.0798 v -9.52826 q 0,-0.0798 0.0798,-0.0798 h 1.44287 q 0.0798,0 0.0798,0.0798 v 9.52826 q 0,0.0798 -0.0798,0.0798 z"
         style="font-style:normal;font-variant:normal;font-weight:normal;font-stretch:normal;font-family:'Alte DIN 1451 Mittelschrift gepraegt';-inkscape-font-specification:'Alte DIN 1451 Mittelschrift gepraegt';fill:#000000;fill-opacity:1;stroke-width:0.340435"
         id="path940" />
      <path
         d="m 171.46276,-684.03751 q 0,0.0798 -0.0798,0.0798 h -4.11583 q 0.0199,0.73141 0.41889,1.11041 0.43885,0.39895 1.11042,0.39895 0.7979,0 1.42292,-0.62502 0.0133,-0.0199 0.0465,-0.0199 0.0333,-0.007 0.0598,0.0133 l 0.98408,0.8378 q 0.0266,0.0199 0.0266,0.0532 0,0.0332 -0.0199,0.0598 -0.51863,0.59843 -1.1636,0.85775 -0.63832,0.25266 -1.33649,0.25266 -1.07051,0 -2.05459,-0.68486 -1.01067,-0.69151 -1.01067,-2.81925 0,-2.00805 0.92423,-2.77935 0.94418,-0.7713 1.93491,-0.7713 1.14366,0 1.99475,0.79125 0.85774,0.7979 0.85774,2.12773 z m -1.51601,-1.1902 q -0.0465,-0.69151 -0.41225,-1.05057 -0.3657,-0.35905 -0.92423,-0.35905 -0.57848,0 -0.95083,0.37235 -0.17288,0.17288 -0.27262,0.43884 -0.0997,0.26597 -0.11968,0.59843 z"
         style="font-style:normal;font-variant:normal;font-weight:normal;font-stretch:normal;font-family:'Alte DIN 1451 Mittelschrift gepraegt';-inkscape-font-specification:'Alte DIN 1451 Mittelschrift gepraegt';fill:#000000;fill-opacity:1;stroke-width:0.340435"
         id="path942" />
      <path
         d="m 174.48814,-681.09858 q -0.0199,0 -0.0465,-0.0133 -0.0199,-0.0199 -0.0266,-0.0399 l -2.46684,-6.74226 q -0.0133,-0.0399 0.007,-0.0731 0.0199,-0.0332 0.0598,-0.0332 h 1.43622 q 0.0598,0 0.0731,0.0532 l 1.52266,4.54803 q 0.379,-1.14366 0.758,-2.27401 0.38565,-1.13036 0.76466,-2.27402 0.0133,-0.0532 0.0731,-0.0532 h 1.43622 q 0.0465,0 0.0665,0.0332 0.0199,0.0333 0.007,0.0731 l -2.47349,6.74226 q -0.007,0.02 -0.0332,0.0399 -0.02,0.0133 -0.0399,0.0133 z"
         style="font-style:normal;font-variant:normal;font-weight:normal;font-stretch:normal;font-family:'Alte DIN 1451 Mittelschrift gepraegt';-inkscape-font-specification:'Alte DIN 1451 Mittelschrift gepraegt';fill:#000000;fill-opacity:1;stroke-width:0.340435"
         id="path944" />
      <path
         d="m 184.20257,-690.76647 v 1.34978 h -4.85389 v -1.34978 z"
         style="font-style:normal;font-variant:normal;font-weight:normal;font-stretch:normal;font-family:Bahnschrift;-inkscape-font-specification:Bahnschrift;fill:#000000;fill-opacity:1"
         id="path946"
         sodipodi:nodetypes="ccccc" />
      <path
         d="m 186.32366,-681.09858 q -0.0731,0 -0.0731,-0.0798 v -6.74225 q 0,-0.0798 0.0731,-0.0798 h 1.36308 q 0.0731,0 0.0731,0.0798 v 0.54523 q 0.63832,-0.69816 1.70219,-0.69816 0.76465,0 1.45616,0.53193 0.0266,0.0199 0.0266,0.0532 0.007,0.0332 -0.0133,0.0598 l -0.97742,1.17026 q -0.0465,0.0598 -0.10639,0.0133 -0.4322,-0.31916 -0.8511,-0.31916 -0.47209,0 -0.85774,0.31916 -0.379,0.31916 -0.379,1.01732 v 4.04934 q 0,0.0798 -0.0731,0.0798 z"
         style="font-style:normal;font-variant:normal;font-weight:normal;font-stretch:normal;font-family:'Alte DIN 1451 Mittelschrift gepraegt';-inkscape-font-specification:'Alte DIN 1451 Mittelschrift gepraegt';fill:#000000;fill-opacity:1;stroke-width:0.340435"
         id="path948" />
      <path
         d="m 191.2108,-684.55614 q 0,-1.08382 0.17952,-1.64235 0.17288,-0.55853 0.57183,-0.99073 0.27927,-0.29921 0.78461,-0.59177 0.50533,-0.29256 1.32318,-0.29256 0.8112,0 1.30989,0.29256 0.25931,0.14628 0.45214,0.29256 0.19948,0.14628 0.34576,0.29921 0.3923,0.4322 0.57183,0.99073 0.17287,0.57183 0.17287,1.64235 0,1.10376 -0.17287,1.66229 -0.17953,0.54523 -0.57183,0.99072 -0.29922,0.31917 -0.7979,0.60508 -0.49869,0.27926 -1.30989,0.27926 -0.81785,0 -1.32318,-0.27926 -0.22608,-0.13298 -0.4322,-0.29256 -0.19948,-0.15958 -0.35241,-0.31252 -0.4056,-0.44549 -0.57183,-0.99072 -0.17952,-0.54523 -0.17952,-1.66229 z m 4.20227,0.0133 q 0,-0.69816 -0.0731,-1.01067 -0.0665,-0.28591 -0.24602,-0.54523 -0.17288,-0.22607 -0.43219,-0.34576 -0.25267,-0.11968 -0.59178,-0.11968 -0.70481,0 -1.02397,0.46544 -0.0931,0.13298 -0.15958,0.26597 -0.0598,0.12633 -0.0931,0.27926 -0.0665,0.28591 -0.0665,0.99738 0,0.35905 0.0133,0.61837 0.0199,0.25932 0.0532,0.41225 0.0598,0.28591 0.25267,0.53858 0.31251,0.45879 1.02397,0.45879 0.67822,0 1.02397,-0.45879 0.17288,-0.25932 0.24602,-0.53858 0.0731,-0.32581 0.0731,-1.01733 z"
         style="font-style:normal;font-variant:normal;font-weight:normal;font-stretch:normal;font-family:'Alte DIN 1451 Mittelschrift gepraegt';-inkscape-font-specification:'Alte DIN 1451 Mittelschrift gepraegt';fill:#000000;fill-opacity:1;stroke-width:0.340435"
         id="path950" />
      <path
         d="m 201.70319,-678.37242 q -0.0798,0 -0.0798,-0.0731 v -9.47506 q 0,-0.0798 0.0798,-0.0798 h 1.35643 q 0.0798,0 0.0798,0.0798 v 0.51198 q 0.69151,-0.66491 1.66229,-0.66491 0.30586,0 0.57848,0.0731 0.27262,0.0731 0.50534,0.19947 0.23937,0.11969 0.43219,0.28592 0.19948,0.15958 0.35241,0.34575 0.14628,0.18618 0.24602,0.41225 0.0997,0.22607 0.14628,0.47209 v -0.007 q 0.10639,0.46544 0.10639,1.74873 0,0.63168 -0.0266,1.07052 -0.0266,0.4322 -0.0798,0.67822 v -0.007 q -0.0864,0.49204 -0.3923,0.87769 h 0.007 q -0.30586,0.39895 -0.77131,0.65162 -0.45879,0.25266 -1.10376,0.25266 -0.49869,0 -0.90429,-0.18617 -0.39895,-0.18618 -0.758,-0.50534 v 3.26474 q 0,0.0731 -0.0798,0.0731 z m 2.69291,-4.15573 q 0.89099,0 1.06387,-0.59842 0.19283,-0.65827 0.19283,-1.41628 0,-0.73805 -0.19283,-1.41627 -0.17288,-0.60507 -1.06387,-0.60507 -0.89764,0 -1.07051,0.62502 -0.0931,0.33911 -0.13964,0.69151 -0.0465,0.34576 -0.0465,0.70481 0,0.34576 0.0465,0.70482 0.0532,0.35905 0.13964,0.69151 0.0931,0.29921 0.35905,0.45879 0.26597,0.15958 0.71146,0.15958 z"
         style="font-style:normal;font-variant:normal;font-weight:normal;font-stretch:normal;font-family:'Alte DIN 1451 Mittelschrift gepraegt';-inkscape-font-specification:'Alte DIN 1451 Mittelschrift gepraegt';fill:#000000;fill-opacity:1;stroke-width:0.340435"
         id="path952" />
      <path
         d="m 208.77126,-681.09858 q -0.0731,0 -0.0731,-0.0798 v -6.74225 q 0,-0.0798 0.0731,-0.0798 h 1.36308 q 0.0731,0 0.0731,0.0798 v 0.54523 q 0.63832,-0.69816 1.70219,-0.69816 0.76465,0 1.45616,0.53193 0.0266,0.0199 0.0266,0.0532 0.007,0.0332 -0.0133,0.0598 l -0.97743,1.17026 q -0.0465,0.0598 -0.10638,0.0133 -0.4322,-0.31916 -0.8511,-0.31916 -0.47209,0 -0.85774,0.31916 -0.379,0.31916 -0.379,1.01732 v 4.04934 q 0,0.0798 -0.0731,0.0798 z"
         style="font-style:normal;font-variant:normal;font-weight:normal;font-stretch:normal;font-family:'Alte DIN 1451 Mittelschrift gepraegt';-inkscape-font-specification:'Alte DIN 1451 Mittelschrift gepraegt';fill:#000000;fill-opacity:1;stroke-width:0.340435"
         id="path954" />
      <path
         d="m 214.09059,-681.09858 q -0.0798,0 -0.0798,-0.0798 v -6.74225 q 0,-0.0798 0.0798,-0.0798 h 1.35643 q 0.0731,0 0.0731,0.0798 v 6.74225 q 0,0.0798 -0.0731,0.0798 z m 0,-8.10533 q -0.0798,0 -0.0798,-0.0798 v -1.35643 q 0,-0.0798 0.0798,-0.0798 h 1.35643 q 0.0731,0 0.0731,0.0798 v 1.35643 q 0,0.0798 -0.0731,0.0798 z"
         style="font-style:normal;font-variant:normal;font-weight:normal;font-stretch:normal;font-family:'Alte DIN 1451 Mittelschrift gepraegt';-inkscape-font-specification:'Alte DIN 1451 Mittelschrift gepraegt';fill:#000000;fill-opacity:1;stroke-width:0.340435"
         id="path956" />
      <path
         d="m 217.34204,-681.09858 q -0.0798,0 -0.0798,-0.0798 v -6.74225 q 0,-0.0798 0.0798,-0.0798 h 1.35643 q 0.0798,0 0.0798,0.0798 v 0.54523 q 0.63832,-0.69816 1.70218,-0.69816 0.41225,0 0.7979,0.15293 0.38566,0.15293 0.77131,0.45879 0.758,0.61837 0.758,1.80192 v 4.48154 q 0,0.0798 -0.0798,0.0798 h -1.35643 q -0.0798,0 -0.0798,-0.0798 v -4.01609 q 0,-0.65827 -0.3524,-1.01068 -0.37236,-0.35905 -0.89099,-0.35905 -0.55853,0 -0.91759,0.35905 -0.3524,0.35241 -0.3524,1.01068 v 4.01609 q 0,0.0798 -0.0798,0.0798 z"
         style="font-style:normal;font-variant:normal;font-weight:normal;font-stretch:normal;font-family:'Alte DIN 1451 Mittelschrift gepraegt';-inkscape-font-specification:'Alte DIN 1451 Mittelschrift gepraegt';fill:#000000;fill-opacity:1;stroke-width:0.340435"
         id="path958" />
      <path
         d="m 229.6696,-682.32202 q 0.0266,0.0199 0.0266,0.0532 0,0.0332 -0.0199,0.0598 -0.22608,0.25932 -0.49869,0.47874 -0.26597,0.21278 -0.57848,0.37236 -0.31251,0.15958 -0.66492,0.25267 -0.3524,0.0864 -0.7447,0.0864 -1.18356,0 -2.16763,-0.81119 -0.97078,-0.8245 -0.97078,-2.71287 0,-1.89501 0.97078,-2.70621 0.96413,-0.82449 2.16763,-0.82449 0.3923,0 0.7447,0.0931 0.35241,0.0864 0.66492,0.24602 0.31251,0.15958 0.57848,0.37901 0.27261,0.21277 0.49869,0.47209 0.0199,0.0266 0.0199,0.0598 0,0.0332 -0.0266,0.0532 l -1.00403,0.89099 q -0.0266,0.0266 -0.0598,0.0266 -0.0332,-0.007 -0.0465,-0.0333 -0.55853,-0.67821 -1.31654,-0.67821 -1.67559,0 -1.67559,2.02134 0,2.0147 1.67559,2.0147 0.7846,0 1.31654,-0.67821 0.0133,-0.0199 0.0465,-0.0266 0.0333,-0.007 0.0598,0.0133 z"
         style="font-style:normal;font-variant:normal;font-weight:normal;font-stretch:normal;font-family:'Alte DIN 1451 Mittelschrift gepraegt';-inkscape-font-specification:'Alte DIN 1451 Mittelschrift gepraegt';fill:#000000;fill-opacity:1;stroke-width:0.340435"
         id="path960" />
      <path
         d="m 230.71352,-681.09858 q -0.0798,0 -0.0798,-0.0798 v -6.74225 q 0,-0.0798 0.0798,-0.0798 h 1.35643 q 0.0731,0 0.0731,0.0798 v 6.74225 q 0,0.0798 -0.0731,0.0798 z m 0,-8.10533 q -0.0798,0 -0.0798,-0.0798 v -1.35643 q 0,-0.0798 0.0798,-0.0798 h 1.35643 q 0.0731,0 0.0731,0.0798 v 1.35643 q 0,0.0798 -0.0731,0.0798 z"
         style="font-style:normal;font-variant:normal;font-weight:normal;font-stretch:normal;font-family:'Alte DIN 1451 Mittelschrift gepraegt';-inkscape-font-specification:'Alte DIN 1451 Mittelschrift gepraegt';fill:#000000;fill-opacity:1;stroke-width:0.340435"
         id="path962" />
      <path
         d="m 233.96496,-678.37242 q -0.0798,0 -0.0798,-0.0731 v -9.47506 q 0,-0.0798 0.0798,-0.0798 h 1.35644 q 0.0798,0 0.0798,0.0798 v 0.51198 q 0.69151,-0.66491 1.66229,-0.66491 0.30586,0 0.57848,0.0731 0.27261,0.0731 0.50533,0.19947 0.23937,0.11969 0.4322,0.28592 0.19947,0.15958 0.3524,0.34575 0.14629,0.18618 0.24602,0.41225 0.0997,0.22607 0.14629,0.47209 v -0.007 q 0.10638,0.46544 0.10638,1.74873 0,0.63168 -0.0266,1.07052 -0.0266,0.4322 -0.0798,0.67822 v -0.007 q -0.0864,0.49204 -0.39231,0.87769 h 0.007 q -0.30586,0.39895 -0.7713,0.65162 -0.45879,0.25266 -1.10376,0.25266 -0.49869,0 -0.90429,-0.18617 -0.39895,-0.18618 -0.758,-0.50534 v 3.26474 q 0,0.0731 -0.0798,0.0731 z m 2.69292,-4.15573 q 0.89099,0 1.06387,-0.59842 0.19282,-0.65827 0.19282,-1.41628 0,-0.73805 -0.19282,-1.41627 -0.17288,-0.60507 -1.06387,-0.60507 -0.89764,0 -1.07052,0.62502 -0.0931,0.33911 -0.13963,0.69151 -0.0465,0.34576 -0.0465,0.70481 0,0.34576 0.0465,0.70482 0.0532,0.35905 0.13963,0.69151 0.0931,0.29921 0.35906,0.45879 0.26596,0.15958 0.71146,0.15958 z"
         style="font-style:normal;font-variant:normal;font-weight:normal;font-stretch:normal;font-family:'Alte DIN 1451 Mittelschrift gepraegt';-inkscape-font-specification:'Alte DIN 1451 Mittelschrift gepraegt';fill:#000000;fill-opacity:1;stroke-width:0.340435"
         id="path964" />
      <path
         d="m 240.95989,-687.92062 q 0,-0.0798 0.0798,-0.0798 h 1.35643 q 0.0798,0 0.0798,0.0798 v 4.02274 q 0,0.66492 0.35241,1.01733 0.3524,0.3524 0.91758,0.3524 0.52529,0 0.89099,-0.3524 0.35241,-0.35241 0.35241,-1.01733 v -4.02274 q 0,-0.0798 0.0798,-0.0798 h 1.35643 q 0.0798,0 0.0798,0.0798 v 6.74225 q 0,0.0798 -0.0798,0.0798 h -1.35643 q -0.0798,0 -0.0798,-0.0798 v -0.53193 q -0.63168,0.69151 -1.68889,0.69151 -0.81785,0 -1.58251,-0.61172 -0.758,-0.61837 -0.758,-1.80857 z"
         style="font-style:normal;font-variant:normal;font-weight:normal;font-stretch:normal;font-family:'Alte DIN 1451 Mittelschrift gepraegt';-inkscape-font-specification:'Alte DIN 1451 Mittelschrift gepraegt';fill:#000000;fill-opacity:1;stroke-width:0.340435"
         id="path966" />
      <path
         d="m 248.82586,-683.43908 q -0.0333,0 -0.0599,-0.0199 -0.0199,-0.0199 -0.0199,-0.0532 l -0.50534,-7.12127 q -0.007,-0.0332 0.0199,-0.0598 0.0266,-0.0266 0.0598,-0.0266 h 1.70219 q 0.0332,0 0.0598,0.0266 0.0266,0.0266 0.0199,0.0598 l -0.51864,7.12127 q 0,0.0332 -0.0266,0.0532 -0.0199,0.0199 -0.0532,0.0199 z m -0.33911,2.3405 q -0.0731,0 -0.0731,-0.0798 v -1.34978 q 0,-0.0798 0.0731,-0.0798 h 1.36308 q 0.0731,0 0.0731,0.0798 v 1.34978 q 0,0.0798 -0.0731,0.0798 z"
         style="font-style:normal;font-variant:normal;font-weight:normal;font-stretch:normal;font-family:'Alte DIN 1451 Mittelschrift gepraegt';-inkscape-font-specification:'Alte DIN 1451 Mittelschrift gepraegt';fill:#000000;fill-opacity:1;stroke-width:0.340435"
         id="path968" />
      <path
         id="path973"
         style="font-style:normal;font-variant:normal;font-weight:normal;font-stretch:normal;font-family:'Alte DIN 1451 Mittelschrift gepraegt';-inkscape-font-specification:'Alte DIN 1451 Mittelschrift gepraegt';fill:#000000;fill-opacity:1;stroke-width:0.340435"
         d="m 184.58742,-684.03751 q 0,0.0798 -0.0798,0.0798 h -4.11583 q 0.0199,0.73141 0.41889,1.11041 0.43885,0.39895 1.11042,0.39895 0.7979,0 1.42292,-0.62502 0.0133,-0.0199 0.0465,-0.0199 0.0333,-0.007 0.0598,0.0133 l 0.98408,0.8378 q 0.0266,0.0199 0.0266,0.0532 0,0.0332 -0.0199,0.0598 -0.51863,0.59843 -1.1636,0.85775 -0.63832,0.25266 -1.33649,0.25266 -1.07051,0 -2.05459,-0.68486 -1.01067,-0.69151 -1.01067,-2.81925 0,-2.00805 0.92423,-2.77935 0.94418,-0.7713 1.93491,-0.7713 1.14366,0 1.99475,0.79125 0.85774,0.7979 0.85774,2.12773 z m -1.51601,-1.1902 q -0.0465,-0.69151 -0.41225,-1.05057 -0.3657,-0.35905 -0.92423,-0.35905 -0.57848,0 -0.95083,0.37235 -0.17288,0.17288 -0.27262,0.43884 -0.0997,0.26597 -0.11968,0.59843 z" />
    </g>
    <path
       sodipodi:nodetypes="cc"
       id="path977"
       d="m 1283.0099,-589.71852 c 0.4506,1.38119 0.5682,2.76243 0.5824,4.14367"
       style="fill:none;stroke:#ed1a3a;stroke-width:0.864419;stroke-linecap:butt;stroke-linejoin:miter;stroke-miterlimit:4;stroke-dasharray:none;stroke-opacity:1" />
    <path
       style="fill:#ed1a3a;fill-opacity:1;stroke-width:0.0067335"
       d="m 1175.3833,-437.25747 c -0.049,-10e-4 -0.9449,-0.005 -1.9931,-0.01 -1.0477,-0.004 -2.0939,-0.01 -2.3242,-0.01 l -0.4163,-0.004 -0.4213,-0.5344 -0.4212,-0.53439 v -4.31462 c 0,-2.37303 0,-4.3158 0,-4.31722 0,-0.004 30.9194,0.01 34.9863,0.0196 l 3.1652,0.004 v 2.43504 c 0,1.33926 0,3.28536 0,4.32471 v 1.88973 l -0.575,0.52694 -0.5746,0.52695 -0.6167,-0.005 c -0.3379,-10e-4 -1.2025,-0.005 -1.9191,-0.01 -0.7166,-0.004 -1.4611,-0.01 -1.6541,-0.01 l -0.3527,-0.004 -0.4849,-0.55947 -0.4849,-0.55947 v -1.4869 -1.48685 l -6.4406,1e-4 c -3.5424,5e-5 -9.1538,10e-4 -12.4698,0.005 l -6.0292,0.005 v 0.80864 c 0,0.44476 0,1.1237 0,1.50889 v 0.70025 l -0.4261,0.54879 c -0.4164,0.53454 -0.4262,0.54879 -0.4507,0.54914 0,0 -0.064,0 -0.1126,-10e-4 z m 15.6488,-10.56776 c -8.5102,-0.001 -16.7695,-0.005 -18.3536,-0.005 l -2.8806,-7.8e-4 v -1.41984 c 0,-0.81795 0,-1.47808 0,-1.55714 0,-0.0754 0,-0.21307 0,-0.30564 0.054,-1.26584 0.2204,-2.29907 0.5427,-3.34322 0.049,-0.0906 0.073,-0.24001 0.1029,-0.3321 0.338,-1.13016 0.794,-2.36891 1.272,-3.45876 1.1614,-2.64821 2.6,-4.93042 4.1846,-6.63925 0.1175,-0.12589 0.6495,-0.6592 0.7293,-0.72988 l 0.054,-0.0441 0.1273,-0.01 c 3.3529,-0.33013 6.4421,-0.52479 9.506,-0.59826 1.5738,-0.0392 3.6036,-0.0392 5.0059,-0.004 0.7068,0.0196 1.085,0.0294 1.5625,0.049 2.6304,0.099 5.3719,0.30614 7.9709,0.60228 l 0.2302,0.0245 0.1273,0.12098 c 0.3282,0.31544 0.6025,0.61193 0.9273,1.00095 1.7173,2.05993 3.6315,5.38987 4.6391,8.07016 0.2449,0.65597 0.4359,1.26433 0.552,1.78437 0,0.0759 0.049,0.20327 0.073,0.28262 0.284,0.95153 0.4359,1.87454 0.5015,3.05706 0.049,0.43349 0.049,0.63114 0.049,2.04867 v 1.41911 l -0.7269,-0.001 c -0.4016,-6.9e-4 -7.6892,-0.004 -16.1998,-0.005 z m 16.0533,-2.97413 c 0,-0.0441 0,-0.15332 0,-0.24393 0,-0.29439 -0.049,-0.78959 -0.054,-0.79846 0,-0.004 -6.5317,0.01 -6.5366,0.0147 0,10e-4 0,0.2498 0,0.55109 v 0.54821 l 1.1937,0.001 c 0.6568,7.8e-4 2.1444,10e-4 3.3068,0.004 l 2.1131,0.001 z m -29.8065,-0.47954 v -0.55188 l -3.2705,-10e-4 c -1.7991,-7.8e-4 -3.274,1.5e-4 -3.2769,10e-4 0,0.01 -0.054,0.59984 -0.064,0.94144 v 0.16164 h 3.3073 3.3072 z m 27.8913,-1.42023 c 0.9547,-10e-4 1.7374,-0.005 1.7398,-0.01 0,-0.01 -0.054,-0.34483 -0.1077,-0.60384 -0.049,-0.19005 -0.1176,-0.49717 -0.1666,-0.65661 v -0.049 l -3.0682,0.005 c -1.6874,10e-4 -3.0692,0.005 -3.0707,0.01 0,10e-4 0,0.29831 0,0.65974 v 0.6571 l 1.4807,-0.005 c 0.8146,-0.001 2.2615,-0.005 3.2157,-0.01 z m -27.8903,-0.005 c 0,-0.005 0,-1.30493 0,-1.31075 0,-10e-4 -1.3852,-10e-4 -3.0722,3.4e-4 l -3.0672,0.005 v 0.0343 c -0.059,0.20328 -0.147,0.55428 -0.2008,0.83578 -0.049,0.1734 -0.078,0.41488 -0.078,0.43643 0,0.01 0.3429,0.01 3.2206,0.005 1.7711,-10e-4 3.222,-0.005 3.2244,-0.01 z m 26.8602,-3.7886 c -0.6255,-1.54568 -1.4778,-3.12275 -2.5862,-4.78402 -0.4507,-0.67512 -0.868,-1.2628 -1.4362,-2.02085 l -0.2939,-0.39479 -0.049,-0.004 c 0,-10e-4 -0.2008,-0.0196 -0.3967,-0.0392 -4.5568,-0.42222 -9.1538,-0.56721 -13.7634,-0.43447 -2.4629,0.071 -4.9516,0.22581 -7.4091,0.46141 -0.1175,0.01 -0.2302,0.0245 -0.2498,0.0245 l -0.049,0.004 -0.1029,0.11217 c -0.5966,0.64196 -1.3357,1.61454 -2.0602,2.71115 -0.9615,1.45437 -1.7286,2.8677 -2.2203,4.09053 -0.049,0.0759 -0.064,0.16164 -0.073,0.19054 v 0.0529 l 0.049,-0.004 c 0.142,-0.01 1.6041,-0.0931 2.3717,-0.13127 1.1589,-0.0578 1.9367,-0.0916 3.2725,-0.14156 0.2792,-0.01 0.7322,-0.0245 1.0976,-0.0343 0.1813,-0.005 0.3772,-0.01 0.436,-0.0147 0.1028,-0.004 0.2988,-0.01 0.8484,-0.0245 0.8904,-0.0245 1.8358,-0.0441 3.148,-0.0612 0.7592,-0.01 3.896,-0.0147 4.811,-0.005 4.5255,0.0441 8.7536,0.21014 12.9489,0.50927 0.5055,0.0343 1.6673,0.12392 1.754,0.13274 0,7.8e-4 0,-0.001 0,-0.005 0,-0.004 -0.049,-0.0887 -0.073,-0.18858 z"
       id="path2175" />
    <path
       id="path2186"
       d="m 1213.3526,-482.3574 c -0.049,-0.001 -0.9453,-0.005 -1.9935,-0.01 -1.0477,-0.004 -2.094,-0.01 -2.3242,-0.01 l -0.4164,-0.004 -0.4212,-0.5344 -0.4213,-0.53439 v -4.31462 c 0,-2.37303 0,-4.3158 0,-4.31722 0,-0.004 30.9194,0.01 34.9864,0.0196 l 3.1657,0.004 v 2.43504 c 0,1.33926 0,3.28537 0,4.32471 v 1.88973 l -0.575,0.52694 -0.5746,0.52695 -0.6166,-0.005 c -0.338,-0.001 -1.2025,-0.005 -1.9192,-0.01 -0.7166,-0.004 -1.4611,-0.01 -1.6541,-0.01 l -0.3526,-0.004 -0.485,-0.55947 -0.4849,-0.55952 v -1.48685 -1.48689 l -6.4407,9e-5 c -3.5423,10e-5 -9.1537,10e-4 -12.4698,0.005 l -6.0292,0.005 v 0.80859 c 0,0.44476 0,1.12375 0,1.50889 v 0.7003 l -0.4262,0.54874 c -0.4163,0.53454 -0.4261,0.5488 -0.4506,0.54919 0,0 -0.064,0 -0.1127,-10e-4 z m 15.6488,-10.56776 c -8.5106,-10e-4 -16.77,-0.005 -18.354,-0.005 l -2.8807,-7.8e-4 v -1.41984 c 0,-0.81795 0,-1.47808 0,-1.55714 0,-0.0754 0,-0.21307 0,-0.30564 0.054,-1.26584 0.2205,-2.29907 0.5428,-3.34322 0.049,-0.0906 0.073,-0.24001 0.1028,-0.33209 0.338,-1.13016 0.794,-2.36897 1.2721,-3.45877 1.1613,-2.6482 2.5999,-4.93042 4.1845,-6.63925 0.1176,-0.12589 0.6495,-0.6592 0.7293,-0.72993 l 0.054,-0.0441 0.1274,-0.01 c 3.3528,-0.33014 6.4421,-0.52479 9.5059,-0.59827 1.5738,-0.0392 3.6036,-0.0392 5.0065,-0.004 0.7068,0.0196 1.0844,0.0294 1.562,0.049 2.6303,0.0994 5.3723,0.30614 7.9713,0.60234 l 0.2302,0.0245 0.1274,0.12098 c 0.3282,0.31545 0.6029,0.61188 0.9272,1.00095 1.7173,2.05988 3.632,5.38982 4.6391,8.07012 0.2449,0.65601 0.4359,1.26437 0.552,1.78436 0,0.0759 0.049,0.20327 0.073,0.28263 0.2841,0.95152 0.4359,1.87453 0.5016,3.05701 0.049,0.43349 0.049,0.63113 0.049,2.04872 v 1.41905 l -0.7264,-0.001 c -0.4017,-6.9e-4 -7.6897,-0.004 -16.2003,-0.005 z m 16.0528,-2.97418 c 0,-0.0441 0,-0.15331 0,-0.24393 0,-0.29438 -0.049,-0.78959 -0.054,-0.79846 0,-0.004 -6.5318,0.01 -6.5367,0.0147 0,10e-4 0,0.24981 0,0.55109 v 0.54821 l 1.1936,10e-4 c 0.6569,8.4e-4 2.145,10e-4 3.3068,0.004 l 2.1131,10e-4 z m -29.8064,-0.47953 v -0.55188 l -3.2706,-0.001 c -1.7991,-7.8e-4 -3.2734,1.5e-4 -3.2769,0.001 0,0.01 -0.054,0.59983 -0.064,0.94143 v 0.16164 h 3.3072 3.3073 z m 27.8912,-1.42024 c 0.9547,-0.001 1.7374,-0.005 1.7399,-0.01 0,-0.01 -0.054,-0.34484 -0.1078,-0.60385 -0.049,-0.19005 -0.1175,-0.49722 -0.1665,-0.65665 v -0.0441 l -3.0682,0.005 c -1.6875,10e-4 -3.0692,0.005 -3.0707,0.01 0,10e-4 0,0.2983 0,0.65973 v 0.65705 l 1.4802,-0.005 c 0.8146,-0.001 2.2615,-0.005 3.2157,-0.01 z m -27.8903,-0.005 c 0,-0.005 0,-1.30498 0,-1.31076 0,-10e-4 -1.3852,-10e-4 -3.0721,2.9e-4 l -3.0673,0.005 v 0.0343 c -0.064,0.20327 -0.1469,0.55423 -0.2008,0.83573 -0.049,0.17339 -0.078,0.41488 -0.078,0.43643 0,0.01 0.3429,0.01 3.2201,0.005 1.7712,-0.001 3.222,-0.005 3.2245,-0.01 z m 26.8603,-3.78861 c -0.6255,-1.54567 -1.4778,-3.12275 -2.5863,-4.78407 -0.4506,-0.67507 -0.8679,-1.26275 -1.4356,-2.02084 l -0.2939,-0.3948 -0.049,-0.004 c 0,-0.001 -0.196,-0.0196 -0.3968,-0.0392 -4.5563,-0.42223 -9.1532,-0.56726 -13.7629,-0.43447 -2.4633,0.071 -4.9521,0.2258 -7.409,0.46141 -0.1176,0.01 -0.2302,0.0245 -0.2498,0.0245 l -0.049,0.004 -0.1029,0.11217 c -0.5961,0.64195 -1.3357,1.61459 -2.0602,2.7112 -0.961,1.45437 -1.7285,2.86769 -2.2203,4.09048 -0.049,0.0759 -0.064,0.16164 -0.073,0.19103 v 0.0529 l 0.049,-0.004 c 0.142,-0.01 1.6042,-0.0931 2.3717,-0.13127 1.1589,-0.0583 1.9367,-0.0916 3.2725,-0.14156 0.2792,-0.01 0.7323,-0.0245 1.0977,-0.0343 0.1812,-0.005 0.3771,-0.01 0.4359,-0.0147 0.1029,-0.004 0.2988,-0.01 0.8489,-0.0245 0.89,-0.0245 1.8358,-0.0441 3.1475,-0.0612 0.7593,-0.01 3.8961,-0.0147 4.8111,-0.005 4.5259,0.0441 8.7535,0.21013 12.9488,0.50922 0.5055,0.0343 1.6674,0.12392 1.7541,0.13274 0,7.8e-4 0,-0.001 0,-0.005 0,-0.004 -0.049,-0.0887 -0.073,-0.18858 z"
       style="fill:#ed1a3a;fill-opacity:1;stroke-width:0.0067335" />
    <path
       id="path953"
       style="fill:#ed1a3a;fill-opacity:1;fill-rule:evenodd;stroke:#ed1a3a;stroke-width:0.863988;stroke-linecap:butt;stroke-linejoin:miter;stroke-miterlimit:22.926;stroke-dasharray:none;stroke-opacity:1"
       d="m 1245.4265,-498.55064 8.562,-8.21652 -2.2688,6.3054 6.5871,0.76029 -6.2173,2.90644 2.0646,4.42018 z" />
  </g>
</svg>
