<?xml version="1.0" encoding="UTF-8" standalone="no"?>
<svg
   xmlns:dc="http://purl.org/dc/elements/1.1/"
   xmlns:cc="http://creativecommons.org/ns#"
   xmlns:rdf="http://www.w3.org/1999/02/22-rdf-syntax-ns#"
   xmlns:svg="http://www.w3.org/2000/svg"
   xmlns="http://www.w3.org/2000/svg"
   xmlns:sodipodi="http://sodipodi.sourceforge.net/DTD/sodipodi-0.dtd"
   xmlns:inkscape="http://www.inkscape.org/namespaces/inkscape"
   sodipodi:docname="Latvia_road_sign_723.svg"
   inkscape:version="1.0 (4035a4fb49, 2020-05-01)"
   id="svg6774"
   version="1.1"
   viewBox="0 0 173.76668 79.374997"
   height="79.375mm"
   width="173.76669mm">
  <defs
     id="defs6768" />
  <sodipodi:namedview
     inkscape:window-maximized="1"
     inkscape:window-y="-9"
     inkscape:window-x="-9"
     inkscape:window-height="1001"
     inkscape:window-width="1920"
     fit-margin-bottom="0"
     fit-margin-right="0"
     fit-margin-left="0"
     fit-margin-top="0"
     showgrid="false"
     inkscape:document-rotation="0"
     inkscape:current-layer="layer1"
     inkscape:document-units="mm"
     inkscape:cy="172.75405"
     inkscape:cx="-115.84421"
     inkscape:zoom="0.81967018"
     inkscape:pageshadow="2"
     inkscape:pageopacity="0.0"
     borderopacity="1.0"
     bordercolor="#666666"
     pagecolor="#ffffff"
     id="base" />
  <metadata
     id="metadata6771">
    <rdf:RDF>
      <cc:Work
         rdf:about="">
        <dc:format>image/svg+xml</dc:format>
        <dc:type
           rdf:resource="http://purl.org/dc/dcmitype/StillImage" />
        <dc:title></dc:title>
      </cc:Work>
    </rdf:RDF>
  </metadata>
  <g
     transform="translate(301.28003,231.11866)"
     id="layer1"
     inkscape:groupmode="layer"
     inkscape:label="Layer 1">
    <g
       inkscape:groupmode="layer"
       style="opacity:1"
       id="g2362" />
    <g
       id="g5026"
       transform="matrix(2.322817,0,0,-2.322817,-694.97029,923.0764)"
       style="opacity:1;stroke-width:0.151875">
      <path
         style="color:#000000;font-style:normal;font-variant:normal;font-weight:normal;font-stretch:normal;font-size:medium;line-height:normal;font-family:sans-serif;font-variant-ligatures:normal;font-variant-position:normal;font-variant-caps:normal;font-variant-numeric:normal;font-variant-alternates:normal;font-variant-east-asian:normal;font-feature-settings:normal;font-variation-settings:normal;text-indent:0;text-align:start;text-decoration:none;text-decoration-line:none;text-decoration-style:solid;text-decoration-color:#000000;letter-spacing:normal;word-spacing:normal;text-transform:none;writing-mode:lr-tb;direction:ltr;text-orientation:mixed;dominant-baseline:auto;baseline-shift:baseline;text-anchor:start;white-space:normal;shape-padding:0;shape-margin:0;inline-size:0;clip-rule:nonzero;display:inline;overflow:visible;visibility:visible;isolation:auto;mix-blend-mode:normal;color-interpolation:sRGB;color-interpolation-filters:linearRGB;solid-color:#000000;solid-opacity:1;vector-effect:none;fill:#ffffff;fill-opacity:1;fill-rule:nonzero;stroke:none;stroke-width:0.0759375;stroke-linecap:butt;stroke-linejoin:miter;stroke-miterlimit:22.926;stroke-dasharray:none;stroke-dashoffset:0;stroke-opacity:1;color-rendering:auto;image-rendering:auto;shape-rendering:auto;text-rendering:auto;enable-background:accumulate;stop-color:#000000;stop-opacity:1"
         d="m 175.33203,496.64453 h 63.11719 c 3.07812,0 5.59765,-2.51562 5.59765,-5.59375 v -22.48047 c 0,-3.07812 -2.51953,-5.59765 -5.59765,-5.59765 h -63.11719 c -3.07812,0 -5.59375,2.51953 -5.59375,5.59765 v 22.48047 c 0,3.07813 2.51563,5.59375 5.59375,5.59375 z m 0,0"
         id="path5028" />
      <path
         style="color:#000000;font-style:normal;font-variant:normal;font-weight:normal;font-stretch:normal;font-size:medium;line-height:normal;font-family:sans-serif;font-variant-ligatures:normal;font-variant-position:normal;font-variant-caps:normal;font-variant-numeric:normal;font-variant-alternates:normal;font-variant-east-asian:normal;font-feature-settings:normal;font-variation-settings:normal;text-indent:0;text-align:start;text-decoration:none;text-decoration-line:none;text-decoration-style:solid;text-decoration-color:#000000;letter-spacing:normal;word-spacing:normal;text-transform:none;writing-mode:lr-tb;direction:ltr;text-orientation:mixed;dominant-baseline:auto;baseline-shift:baseline;text-anchor:start;white-space:normal;shape-padding:0;shape-margin:0;inline-size:0;clip-rule:nonzero;display:inline;overflow:visible;visibility:visible;isolation:auto;mix-blend-mode:normal;color-interpolation:sRGB;color-interpolation-filters:linearRGB;solid-color:#000000;solid-opacity:1;vector-effect:none;fill:#000000;fill-opacity:1;fill-rule:nonzero;stroke:none;stroke-width:0.0759375;stroke-linecap:butt;stroke-linejoin:miter;stroke-miterlimit:22.926;stroke-dasharray:none;stroke-dashoffset:0;stroke-opacity:1;color-rendering:auto;image-rendering:auto;shape-rendering:auto;text-rendering:auto;enable-background:accumulate;stop-color:#000000;stop-opacity:1"
         d="m 175.33203,462.72266 c -3.21454,0 -5.84375,2.63332 -5.84375,5.84765 v 22.48047 c 0,3.21434 2.62942,5.84375 5.84375,5.84375 h 63.11719 c 3.21433,0 5.84766,-2.6292 5.84766,-5.84375 v -22.48047 c 0,-3.21454 -2.63312,-5.84765 -5.84766,-5.84765 z m 0,0.5 h 63.11719 c 2.9417,0 5.34765,2.40595 5.34766,5.34765 v 22.48047 c 0,2.94171 -2.40575,5.34375 -5.34766,5.34375 h -63.11719 c -2.94191,0 -5.34375,-2.40183 -5.34375,-5.34375 v -22.48047 c 0,-2.94191 2.40205,-5.34765 5.34375,-5.34765 z"
         id="path5030" />
    </g>
    <path
       style="fill:#263894;fill-opacity:1;fill-rule:evenodd;stroke:none;stroke-width:0.352777"
       d="m -287.47922,-225.88326 h 146.15599 c 4.58212,0 8.32948,3.75643 8.32948,8.34762 v 52.20896 c 0,4.5821 -3.74736,8.33854 -8.32948,8.33854 h -146.15599 c -4.58213,0 -8.32948,-3.75644 -8.32948,-8.33854 v -52.20896 c 0,-4.59119 3.74735,-8.34762 8.32948,-8.34762"
       id="path4114" />
    <path
       id="path4116"
       style="fill:#ffffff;fill-opacity:1;fill-rule:evenodd;stroke:none;stroke-width:0.352777"
       d="m -193.0955,-217.61728 c -1.65138,0 -2.85907,0.93346 -2.86835,2.54854 l 0.0104,26.50597 h 49.77609 v -26.56041 c 0,-1.16142 -0.87899,-2.55772 -2.76629,-2.4941 z m -7.41419,10.02736 -12.98417,0.007 c -0.54443,0 -1.08099,0.31076 -1.28957,0.72815 l -8.05727,10.75209 c -0.4356,0.54442 -0.61679,1.73194 -0.62608,2.33076 v 13.5184 c 0.39924,1.73303 1.39053,2.58595 2.60636,2.58595 h 1.72171 c -0.19055,-2.03247 0.81773,-4.70804 2.10618,-6.19609 2.77649,-2.74016 5.44522,-3.15644 8.31245,-2.73905 4.01958,0.47184 7.43109,5.72312 7.21345,8.98958 l 30.57544,-0.0272 c 0.24499,-4.0831 2.333,-7.01156 6.29815,-8.52683 h -34.33528 l 0.0204,-19.94583 c 0.0908,-0.66235 -0.67256,-1.52201 -1.56179,-1.47672 z m -2.23206,2.68463 v 8.50301 h -15.06316 c -0.63516,-0.0453 -0.76899,-0.66237 -0.46956,-1.08882 l 5.24334,-7.40398 z m 56.57441,18.7175 -12.87529,0.0204 c 4.07398,1.17049 6.19488,5.06304 6.02253,8.43836 l 6.81534,-4.08304 z m -64.2336,1.21812 c -3.99234,0 -7.24065,3.24831 -7.24065,7.24066 0,3.98329 3.24831,7.23044 7.24065,7.23044 3.98326,0 7.23385,-3.24715 7.23385,-7.23044 0,-3.99235 -3.25059,-7.24066 -7.23385,-7.24066 z m 48.66347,0.0986 c -3.98325,0 -7.23385,3.23809 -7.23385,7.23045 0,3.98325 3.2506,7.23384 7.23385,7.23384 3.98327,0 7.23046,-3.25059 7.23046,-7.23384 -1e-5,-3.99236 -3.24719,-7.23045 -7.23046,-7.23045 z m -48.65326,3.65776 c 2.03247,0 3.68497,1.60373 3.68497,3.57269 0,1.96893 -1.6525,3.56589 -3.68497,3.56589 -2.03247,0 -3.68496,-1.59696 -3.68496,-3.56589 0,-1.96896 1.65249,-3.57269 3.68496,-3.57269 z m 48.66007,0.0885 c 2.03247,0 3.68497,1.60715 3.68497,3.57609 0,1.96894 -1.6525,3.5761 -3.68497,3.5761 -2.03247,0 -3.68157,-1.60716 -3.68157,-3.5761 0,-1.96894 1.6491,-3.57609 3.68157,-3.57609 z" />
    <path
       style="fill:#ffffff;fill-opacity:1;fill-rule:evenodd;stroke:none;stroke-width:0.352777"
       d="m -284.91142,-197.23819 21.82178,12.46697 -2.468,-9.04628 h 7.32231 c 7.05918,2.02341 7.28603,7.68528 7.34047,14.03672 v 8.9011 l 7.3314,-0.0186 -0.0453,-13.20194 c -0.20859,-9.4183 -5.79798,-15.86958 -14.41782,-16.84042 l -7.42211,0.0272 2.27745,-9.10978 -21.74011,12.78457"
       id="path4118" />
  </g>
</svg>
