<?xml version="1.0" encoding="UTF-8" standalone="no"?>
<svg
   xmlns:dc="http://purl.org/dc/elements/1.1/"
   xmlns:cc="http://creativecommons.org/ns#"
   xmlns:rdf="http://www.w3.org/1999/02/22-rdf-syntax-ns#"
   xmlns:svg="http://www.w3.org/2000/svg"
   xmlns="http://www.w3.org/2000/svg"
   xmlns:sodipodi="http://sodipodi.sourceforge.net/DTD/sodipodi-0.dtd"
   xmlns:inkscape="http://www.inkscape.org/namespaces/inkscape"
   width="198.56136mm"
   height="158.75mm"
   viewBox="0 0 198.56134 158.74999"
   version="1.1"
   id="svg6774"
   inkscape:version="1.0 (4035a4fb49, 2020-05-01)"
   sodipodi:docname="Latvia_road_sign_707A.svg">
  <defs
     id="defs6768" />
  <sodipodi:namedview
     id="base"
     pagecolor="#ffffff"
     bordercolor="#666666"
     borderopacity="1.0"
     inkscape:pageopacity="0.0"
     inkscape:pageshadow="2"
     inkscape:zoom="0.81967018"
     inkscape:cx="461.16304"
     inkscape:cy="354.46539"
     inkscape:document-units="mm"
     inkscape:current-layer="g2362"
     inkscape:document-rotation="0"
     showgrid="false"
     fit-margin-top="0"
     fit-margin-left="0"
     fit-margin-right="0"
     fit-margin-bottom="0"
     inkscape:window-width="1920"
     inkscape:window-height="1001"
     inkscape:window-x="-9"
     inkscape:window-y="-9"
     inkscape:window-maximized="1" />
  <metadata
     id="metadata6771">
    <rdf:RDF>
      <cc:Work
         rdf:about="">
        <dc:format>image/svg+xml</dc:format>
        <dc:type
           rdf:resource="http://purl.org/dc/dcmitype/StillImage" />
        <dc:title></dc:title>
      </cc:Work>
    </rdf:RDF>
  </metadata>
  <g
     inkscape:label="Layer 1"
     inkscape:groupmode="layer"
     id="layer1"
     transform="translate(-2.4661788,296.15672)">
    <g
       id="g2362"
       style="opacity:1"
       inkscape:groupmode="layer">
      <g
         inkscape:groupmode="layer"
         id="g3941"
         style="opacity:1;stroke-width:0.245448"
         transform="matrix(4.0741859,0,0,4.0741859,823.51417,939.26853)">
        <path
           sodipodi:nodetypes="sssssssss"
           style="color:#000000;font-style:normal;font-variant:normal;font-weight:normal;font-stretch:normal;font-size:medium;line-height:normal;font-family:sans-serif;font-variant-ligatures:normal;font-variant-position:normal;font-variant-caps:normal;font-variant-numeric:normal;font-variant-alternates:normal;font-variant-east-asian:normal;font-feature-settings:normal;font-variation-settings:normal;text-indent:0;text-align:start;text-decoration:none;text-decoration-line:none;text-decoration-style:solid;text-decoration-color:#000000;letter-spacing:normal;word-spacing:normal;text-transform:none;writing-mode:lr-tb;direction:ltr;text-orientation:mixed;dominant-baseline:auto;baseline-shift:baseline;text-anchor:start;white-space:normal;shape-padding:0;shape-margin:0;inline-size:0;clip-rule:nonzero;display:inline;overflow:visible;visibility:visible;isolation:auto;mix-blend-mode:normal;color-interpolation:sRGB;color-interpolation-filters:linearRGB;solid-color:#000000;solid-opacity:1;vector-effect:none;fill:#ffffff;fill-opacity:1;fill-rule:nonzero;stroke:none;stroke-width:0.0511739;stroke-linecap:butt;stroke-linejoin:miter;stroke-miterlimit:22.926;stroke-dasharray:none;stroke-dashoffset:0;stroke-opacity:1;color-rendering:auto;image-rendering:auto;shape-rendering:auto;text-rendering:auto;enable-background:accumulate;stop-color:#000000;stop-opacity:1"
           d="m -198.51313,-303.12777 h 42.71509 c 1.59853,0 2.90629,1.30775 2.90629,2.90628 v 32.942 c 0,1.59853 -1.30776,2.90766 -2.90629,2.90766 h -42.71509 c -1.59853,0 -2.90628,-1.30913 -2.90628,-2.90766 v -32.942 c 0,-1.59853 1.30775,-2.90628 2.90628,-2.90628 z"
           id="path3943" />
        <path
           sodipodi:nodetypes="ssssssssssssssssss"
           style="color:#000000;font-style:normal;font-variant:normal;font-weight:normal;font-stretch:normal;font-size:medium;line-height:normal;font-family:sans-serif;font-variant-ligatures:normal;font-variant-position:normal;font-variant-caps:normal;font-variant-numeric:normal;font-variant-alternates:normal;font-variant-east-asian:normal;font-feature-settings:normal;font-variation-settings:normal;text-indent:0;text-align:start;text-decoration:none;text-decoration-line:none;text-decoration-style:solid;text-decoration-color:#000000;letter-spacing:normal;word-spacing:normal;text-transform:none;writing-mode:lr-tb;direction:ltr;text-orientation:mixed;dominant-baseline:auto;baseline-shift:baseline;text-anchor:start;white-space:normal;shape-padding:0;shape-margin:0;inline-size:0;clip-rule:nonzero;display:inline;overflow:visible;visibility:visible;isolation:auto;mix-blend-mode:normal;color-interpolation:sRGB;color-interpolation-filters:linearRGB;solid-color:#000000;solid-opacity:1;vector-effect:none;fill:#000000;fill-opacity:1;fill-rule:nonzero;stroke:none;stroke-width:0.0511739;stroke-linecap:butt;stroke-linejoin:miter;stroke-miterlimit:22.926;stroke-dasharray:none;stroke-dashoffset:0;stroke-opacity:1;color-rendering:auto;image-rendering:auto;shape-rendering:auto;text-rendering:auto;enable-background:accumulate;stop-color:#000000;stop-opacity:1"
           d="m -198.51271,-303.23242 c -1.65539,0 -3.01172,1.35633 -3.01172,3.01172 v 32.9414 c 0,1.65539 1.35627,3.01172 3.01172,3.01172 h 42.71497 c 1.65544,0 3.00976,-1.35633 3.00976,-3.01172 v -32.9414 c 0,-1.65539 -1.35438,-3.01172 -3.00976,-3.01172 z m 0,0.20898 h 42.71497 c 1.54167,0 2.80078,1.26106 2.80078,2.80274 v 32.9414 c 0,1.54168 -1.25917,2.80274 -2.80078,2.80274 h -42.71497 c -1.54162,0 -2.80274,-1.26106 -2.80274,-2.80274 v -32.9414 c 0,-1.54168 1.26106,-2.80274 2.80274,-2.80274 z"
           id="path3945" />
      </g>
      <path
         sodipodi:nodetypes="sssssssss"
         id="path1330"
         d="M 16.341619,-290.74482 H 187.42776 c 4.47468,0 8.13526,3.66062 8.13526,8.13526 v 131.65169 c 0,4.47464 -3.66058,8.13525 -8.13526,8.13525 H 16.341619 c -4.47468,0 -8.1352601,-3.66061 -8.1352601,-8.13525 v -131.65169 c 0,-4.47464 3.6605801,-8.13526 8.1352601,-8.13526 z"
         style="fill:#263894;fill-opacity:1;fill-rule:evenodd;stroke:none;stroke-width:0.0761999;stroke-linecap:butt;stroke-linejoin:miter;stroke-miterlimit:22.926;stroke-opacity:1" />
      <path
         sodipodi:nodetypes="sssssssss"
         style="opacity:1;fill:#ffffff;fill-opacity:1;fill-rule:evenodd;stroke:#ffffff;stroke-width:0.176388;stroke-linecap:butt;stroke-linejoin:miter;stroke-miterlimit:22.926;stroke-opacity:1"
         d="m 122.63025,-267.17875 v 18.3177 c 0,3.10903 -2.54187,5.65013 -5.64204,5.65013 H 85.078473 c -3.09932,0 -5.6421,-2.54132 -5.6421,-5.65013 v -18.3177 c 0,-3.11875 2.5419,-5.65978 5.6421,-5.65978 h 31.909737 c 3.09932,0 5.64204,2.54132 5.64204,5.65978 z"
         id="path2382" />
      <path
         id="path5589"
         style="fill:#ffffff;fill-opacity:1;fill-rule:evenodd;stroke:none;stroke-width:0.352777"
         d="m 32.936532,-223.68554 c -0.376488,0.0123 -0.753098,0.041 -1.129627,0.087 -2.757956,0.3394 -4.938754,2.49334 -5.300477,5.25324 -0.446454,3.34234 1.898227,6.40835 5.232685,6.84379 l 3.465078,0.46235 c 1.164241,0.15267 2.112267,1.00101 2.394879,2.13778 0.38428,1.52697 -0.547506,3.08292 -2.079089,3.46751 -2.854045,0.71257 -5.877592,0.0123 -8.121302,-1.89388 l -2.096027,2.47709 c 3.046186,2.5735 7.136531,3.52899 11.007871,2.56193 2.418871,-0.6108 4.227365,-2.63617 4.56079,-5.11326 0.440835,-3.34238 -1.908808,-6.40765 -5.243225,-6.85441 l -3.458762,-0.45173 c -1.294207,-0.17524 -2.30654,-1.19332 -2.464805,-2.49408 -0.186603,-1.56654 0.932525,-2.99243 2.492364,-3.17908 2.226689,-0.27128 4.47532,0.27661 6.317731,1.55455 l 1.837489,-2.66797 c -2.180839,-1.50436 -4.781556,-2.26955 -7.415573,-2.19079 z m 92.170058,0 c -0.37567,0.0123 -0.75166,0.041 -1.1275,0.087 -2.76361,0.3394 -4.94511,2.49334 -5.30683,5.25324 -0.44645,3.34234 1.90458,6.40835 5.239,6.84379 l 3.46303,0.46235 c 1.15854,0.15267 2.108,1.00101 2.39057,2.13778 0.38428,1.52697 -0.54111,3.08292 -2.07269,3.46751 -2.8597,0.71257 -5.88399,0.0123 -8.12766,-1.89388 l -2.0918,2.47709 c 3.04057,2.5735 7.13226,3.52899 11.00361,2.56193 2.42453,-0.6108 4.23302,-2.63617 4.56083,-5.11326 0.44083,-3.34238 -1.90319,-6.40765 -5.24327,-6.85441 l -3.45876,-0.45173 c -1.28855,-0.17524 -2.30019,-1.19332 -2.45841,-2.49408 -0.19234,-1.56654 0.92687,-2.99243 2.49232,-3.17908 2.22108,-0.27128 4.46901,0.27661 6.31142,1.55455 l 1.8438,-2.66797 c -2.18571,-1.50436 -4.78733,-2.26955 -7.41766,-2.19079 z m 29.31046,0.041 c -3.36834,0 -6.09098,2.73232 -6.09098,6.09731 h 3.04549 c 0,-0.6843 0.23746,-1.35095 0.66123,-1.89387 1.04551,-1.31775 2.96638,-1.53264 4.28318,-0.49203 1.31115,1.04628 1.53864,2.96843 0.48743,4.28614 l -8.47733,10.68246 v 2.85671 h 12.1904 v -3.04759 h -8.18909 l 6.84969,-8.58072 c 0.87035,-1.08021 1.3394,-2.4255 1.3394,-3.8111 0,-3.36499 -2.73109,-6.09731 -6.09942,-6.09731 z m 16.00101,0 c -3.36272,0 -6.09947,2.73232 -6.09947,6.09731 0,1.69098 0.77426,3.29075 2.10238,4.33703 -1.55418,1.10849 -2.47538,2.90267 -2.47538,4.81423 0,3.57992 2.89501,6.48116 6.47247,6.48116 3.57741,0 6.47669,-2.90124 6.47669,-6.48116 0,-1.91156 -0.9276,-3.70574 -2.48174,-4.81423 1.32246,-1.04628 2.09602,-2.64605 2.09602,-4.33703 0,-3.36499 -2.7283,-6.09731 -6.09097,-6.09731 z m -120.170772,0.19289 -7.799157,21.34371 h 3.420583 l 1.604337,-4.76117 h 8.216697 l 1.606429,4.76117 h 3.424888 l -7.805554,-21.34371 z m 13.519266,0 v 21.34371 h 13.716369 v -3.04759 H 67.004881 v -18.29612 z m 16.761858,0 v 21.34371 h 7.619033 c 4.204727,0 7.612636,-3.41092 7.612636,-7.62425 v -6.09521 c 0,-4.20767 -3.407909,-7.62425 -7.612636,-7.62425 z m 19.046497,0 v 13.91243 c 0,4.20767 3.408611,7.62429 7.619031,7.62429 4.20477,0 7.61264,-3.41662 7.61264,-7.62429 v -13.91243 h -3.2341 v 13.91243 c 0,2.42054 -1.95971,4.38369 -4.37854,4.38369 -2.42453,0 -4.3807,-1.96315 -4.3807,-4.38369 v -13.91243 z m 70.843151,2.85671 c 1.67848,0 3.04548,1.36791 3.04548,3.04759 0,1.68531 -1.367,3.05395 -3.04548,3.05395 -1.68419,0 -3.05185,-1.36864 -3.05185,-3.05395 0,-1.67968 1.36766,-3.04759 3.05185,-3.04759 z m -86.651322,0.19084 h 4.380707 c 2.41883,0 4.380667,1.96315 4.380667,4.38369 v 6.48115 c 0,2.42054 -1.961837,4.38369 -4.380667,4.38369 h -4.380707 z m -32.184272,1.3361 3.147198,9.33577 h -6.296529 z m 118.835594,7.2383 c 1.89326,0 3.42484,1.539 3.42484,3.43357 0,1.89457 -1.53158,3.43144 -3.42484,3.43144 -1.89331,0 -3.42485,-1.53687 -3.42485,-3.43144 0,-1.89457 1.53154,-3.43357 3.42485,-3.43357 z m -127.223926,24.17075 v 2.17171 h 6.862409 v -2.17171 z m 16.390948,4.66152 c -4.18217,0 -7.574495,3.39893 -7.574495,7.58394 v 6.44726 c 0,4.18501 3.392325,7.58399 7.574495,7.58399 4.18217,0 7.572403,-3.39898 7.572403,-7.58399 v -4.36037 h -7.572403 v 3.03064 h 4.357372 v 1.32973 c 0,2.40921 -1.949779,4.35402 -4.357372,4.35402 -2.407552,0 -4.357372,-1.94481 -4.357372,-4.35402 v -6.44726 c 0,-1.89452 1.226414,-3.57565 3.034908,-4.1525 2.288864,-0.73523 4.740954,0.53302 5.47002,2.82913 h 3.312516 c -0.644253,-3.61948 -3.786571,-6.26057 -7.460072,-6.26057 z m 110.871118,0 c -3.3514,0 -6.06342,2.71389 -6.06342,6.0676 0,1.67968 0.7686,3.26957 2.0854,4.3158 -1.54286,1.10283 -2.46476,2.88429 -2.46476,4.78457 0,3.55726 2.8823,6.44722 6.44278,6.44722 3.55485,0 6.43855,-2.88996 6.43855,-6.44722 0,-1.90028 -0.9219,-3.68174 -2.46481,-4.78457 1.31685,-1.04623 2.08545,-2.63612 2.08545,-4.3158 0,-3.35371 -2.71912,-6.0676 -6.05919,-6.0676 z m -145.153548,0.19084 v 21.23129 h 3.225653 v -9.10032 h 4.166627 l 4.350972,9.10032 h 3.791533 l -4.870264,-9.41633 c 2.458447,-0.83701 4.113639,-3.14375 4.113639,-5.74527 0,-3.348 -2.719118,-6.06969 -6.059194,-6.06969 z m 51.519039,0 -7.765281,21.23129 h 3.407909 l 1.593756,-4.73999 h 8.178516 l 1.593756,4.73999 h 3.407869 l -7.765241,-21.23129 z m 62.569239,0 -3.03064,2.27349 v 3.22361 l 3.03064,-2.27349 v 18.00768 h 3.02851 v -21.23129 z m 14.7718,0 -7.19304,15.35457 v 2.65312 h 8.90122 v 3.2236 h 3.02851 v -3.2236 h 1.70187 v -2.84399 h -1.70187 v -6.06973 h -3.02851 v 6.06973 h -5.49335 l 7.19304,-15.1637 z m -109.538066,0.008 v 21.22497 h 3.221388 v -21.22497 z m -16.096359,2.83976 h 5.302568 c 1.780236,0 3.215031,1.44214 3.215031,3.22361 0,1.77584 -1.434795,3.2236 -3.215031,3.2236 h -5.302568 z m 141.927895,0 c 1.6672,0 3.03064,1.35662 3.03064,3.03064 0,1.67402 -1.36344,3.03059 -3.03064,3.03059 -1.67853,0 -3.02856,-1.35657 -3.02856,-3.03059 0,-1.67402 1.35003,-3.03064 3.02856,-3.03064 z m -92.305688,1.51425 3.123903,9.28698 h -6.256296 z m 92.305688,7.20014 c 1.88198,-4e-5 3.40791,1.53329 3.40791,3.41657 0,1.88329 -1.52593,3.41026 -3.40791,3.41026 -1.88765,0 -3.41214,-1.52697 -3.41214,-3.41026 0,-1.88328 1.52449,-3.41657 3.41214,-3.41657 z" />
      <path
         sodipodi:nodetypes="csssssssc"
         style="opacity:1;fill:#eb1938;fill-opacity:1;fill-rule:evenodd;stroke:none;stroke-width:0.352777"
         d="m 120.66343,-266.90899 v 17.76875 c 0,2.19418 -1.8525,3.97538 -4.107,3.97538 H 85.452623 c -2.25531,0 -4.10671,-1.79004 -4.10671,-3.97538 v -17.76875 c 0,-2.18563 1.85249,-3.9756 4.10671,-3.9756 h 31.103807 c 2.25535,0 4.107,1.78997 4.107,3.9756"
         id="path2384" />
      <path
         style="opacity:1;fill:#ffffff;fill-opacity:1;fill-rule:evenodd;stroke:none;stroke-width:0.352777"
         d="m 86.773063,-251.44528 5.22076,-14.19971 h 1.78536 l 5.221,14.19971 h -2.29585 l -1.06482,-3.17373 h -5.5016 l -1.07467,3.17373 z m 4.00645,-5.07325 h 4.20468 l -2.09791,-6.20749 -2.10776,6.20749"
         id="path2221"
         sodipodi:nodetypes="ccccccccccccc" />
      <path
         style="opacity:1;fill:#ffffff;fill-opacity:1;fill-rule:evenodd;stroke:none;stroke-width:0.352777"
         d="m 110.78623,-251.3235 h -2.29579 l 3.0483,-6.08448 c -1.69251,0.70008 -3.62661,-0.0974 -4.32051,-1.79154 -0.1708,-0.39396 -0.25622,-0.82166 -0.25622,-1.24951 v -1.14246 c 0,-2.23642 1.82688,-4.0535 4.07283,-4.0535 2.25428,0 4.08062,1.81582 4.08062,4.0535 v 0.63199 c 0,0.62475 -0.14645,1.24219 -0.43014,1.80861 z m 2.28849,-9.6365 c 0,1.11826 -0.90852,2.03222 -2.03932,2.03222 -1.12347,0 -2.03201,-0.91155 -2.03201,-2.03222 v -0.63198 c 0,-1.11825 0.90854,-2.0298 2.03201,-2.0298 1.1308,0 2.03932,0.91155 2.03932,2.0298 v 0.63198"
         id="path2223"
         sodipodi:nodetypes="ccccssssscccsssssc" />
    </g>
  </g>
</svg>
