<?xml version="1.0" encoding="UTF-8" standalone="no"?>
<svg
   xmlns:dc="http://purl.org/dc/elements/1.1/"
   xmlns:cc="http://creativecommons.org/ns#"
   xmlns:rdf="http://www.w3.org/1999/02/22-rdf-syntax-ns#"
   xmlns:svg="http://www.w3.org/2000/svg"
   xmlns="http://www.w3.org/2000/svg"
   xmlns:sodipodi="http://sodipodi.sourceforge.net/DTD/sodipodi-0.dtd"
   xmlns:inkscape="http://www.inkscape.org/namespaces/inkscape"
   sodipodi:docname="Latvia_road_sign_707B.svg"
   inkscape:version="1.0 (4035a4fb49, 2020-05-01)"
   id="svg6774"
   version="1.1"
   viewBox="0 0 219.50123 158.74999"
   height="158.75mm"
   width="219.50125mm">
  <defs
     id="defs6768" />
  <sodipodi:namedview
     inkscape:window-maximized="1"
     inkscape:window-y="-9"
     inkscape:window-x="-9"
     inkscape:window-height="1001"
     inkscape:window-width="1920"
     fit-margin-bottom="0"
     fit-margin-right="0"
     fit-margin-left="0"
     fit-margin-top="0"
     showgrid="false"
     inkscape:document-rotation="0"
     inkscape:current-layer="g4251"
     inkscape:document-units="mm"
     inkscape:cy="298.36957"
     inkscape:cx="614.36309"
     inkscape:zoom="0.73609691"
     inkscape:pageshadow="2"
     inkscape:pageopacity="0.0"
     borderopacity="1.0"
     bordercolor="#666666"
     pagecolor="#ffffff"
     id="base" />
  <metadata
     id="metadata6771">
    <rdf:RDF>
      <cc:Work
         rdf:about="">
        <dc:format>image/svg+xml</dc:format>
        <dc:type
           rdf:resource="http://purl.org/dc/dcmitype/StillImage" />
        <dc:title></dc:title>
      </cc:Work>
    </rdf:RDF>
  </metadata>
  <g
     transform="translate(-232.65707,577.89518)"
     id="layer1"
     inkscape:groupmode="layer"
     inkscape:label="Layer 1">
    <g
       inkscape:groupmode="layer"
       style="opacity:1"
       id="g2362">
      <g
         inkscape:groupmode="layer"
         id="g4251"
         style="opacity:1;stroke-width:0.245448"
         transform="matrix(4.0741859,0,0,4.0741859,1019.3516,778.12493)">
        <g
           transform="matrix(3.5746247,0,0,3.5746247,359.77352,804.73631)"
           style="opacity:1;stroke-width:0.068664"
           id="g4947"
           inkscape:groupmode="layer">
          <path
             id="path4949"
             d="m -153.52772,-318.21284 h 12.79976 c 0.61322,0 1.11482,0.53171 1.11482,1.1818 v 8.49413 c 0,0.64976 -0.5016,1.18146 -1.11482,1.18146 h -12.79976 c -0.61322,0 -1.11483,-0.5317 -1.11483,-1.18146 v -8.49413 c 0,-0.65009 0.50161,-1.1818 1.11483,-1.1818 z"
             style="color:#000000;font-style:normal;font-variant:normal;font-weight:normal;font-stretch:normal;font-size:medium;line-height:normal;font-family:sans-serif;font-variant-ligatures:normal;font-variant-position:normal;font-variant-caps:normal;font-variant-numeric:normal;font-variant-alternates:normal;font-variant-east-asian:normal;font-feature-settings:normal;font-variation-settings:normal;text-indent:0;text-align:start;text-decoration:none;text-decoration-line:none;text-decoration-style:solid;text-decoration-color:#000000;letter-spacing:normal;word-spacing:normal;text-transform:none;writing-mode:lr-tb;direction:ltr;text-orientation:mixed;dominant-baseline:auto;baseline-shift:baseline;text-anchor:start;white-space:normal;shape-padding:0;shape-margin:0;inline-size:0;clip-rule:nonzero;display:inline;overflow:visible;visibility:visible;isolation:auto;mix-blend-mode:normal;color-interpolation:sRGB;color-interpolation-filters:linearRGB;solid-color:#000000;solid-opacity:1;vector-effect:none;fill:#ffffff;fill-opacity:1;fill-rule:nonzero;stroke:none;stroke-width:0.0121116;stroke-linecap:butt;stroke-linejoin:miter;stroke-miterlimit:22.926;stroke-dasharray:none;stroke-dashoffset:0;stroke-opacity:1;color-rendering:auto;image-rendering:auto;shape-rendering:auto;text-rendering:auto;enable-background:accumulate;stop-color:#000000;stop-opacity:1"
             sodipodi:nodetypes="sssssssss" />
          <path
             id="path4951"
             d="m -153.52734,-318.23438 c -0.62574,0 -1.13672,0.5419 -1.13672,1.20313 v 8.49414 c 0,0.6609 0.51098,1.20313 1.13672,1.20313 h 12.80033 c 0.62573,0 1.13477,-0.54223 1.13477,-1.20313 v -8.49414 c 0,-0.66123 -0.50903,-1.20313 -1.13477,-1.20313 z m 0,0.043 h 12.80033 c 0.60071,0 1.0918,0.52121 1.0918,1.16016 v 8.49414 c 0,0.63862 -0.49109,1.16016 -1.0918,1.16016 h -12.80033 c -0.60071,0 -1.09375,-0.52154 -1.09375,-1.16016 v -8.49414 c 0,-0.63895 0.49304,-1.16016 1.09375,-1.16016 z"
             style="color:#000000;font-style:normal;font-variant:normal;font-weight:normal;font-stretch:normal;font-size:medium;line-height:normal;font-family:sans-serif;font-variant-ligatures:normal;font-variant-position:normal;font-variant-caps:normal;font-variant-numeric:normal;font-variant-alternates:normal;font-variant-east-asian:normal;font-feature-settings:normal;font-variation-settings:normal;text-indent:0;text-align:start;text-decoration:none;text-decoration-line:none;text-decoration-style:solid;text-decoration-color:#000000;letter-spacing:normal;word-spacing:normal;text-transform:none;writing-mode:lr-tb;direction:ltr;text-orientation:mixed;dominant-baseline:auto;baseline-shift:baseline;text-anchor:start;white-space:normal;shape-padding:0;shape-margin:0;inline-size:0;clip-rule:nonzero;display:inline;overflow:visible;visibility:visible;isolation:auto;mix-blend-mode:normal;color-interpolation:sRGB;color-interpolation-filters:linearRGB;solid-color:#000000;solid-opacity:1;vector-effect:none;fill:#000000;fill-opacity:1;fill-rule:nonzero;stroke:none;stroke-width:0.0121116;stroke-linecap:butt;stroke-linejoin:miter;stroke-miterlimit:22.926;stroke-dasharray:none;stroke-dashoffset:0;stroke-opacity:1;color-rendering:auto;image-rendering:auto;shape-rendering:auto;text-rendering:auto;enable-background:accumulate;stop-color:#000000;stop-opacity:1"
             sodipodi:nodetypes="ssssssssssssssssss" />
        </g>
        <path
           style="color:#000000;font-style:normal;font-variant:normal;font-weight:normal;font-stretch:normal;font-size:medium;line-height:normal;font-family:sans-serif;font-variant-ligatures:normal;font-variant-position:normal;font-variant-caps:normal;font-variant-numeric:normal;font-variant-alternates:normal;font-variant-east-asian:normal;font-feature-settings:normal;font-variation-settings:normal;text-indent:0;text-align:start;text-decoration:none;text-decoration-line:none;text-decoration-style:solid;text-decoration-color:#000000;letter-spacing:normal;word-spacing:normal;text-transform:none;writing-mode:lr-tb;direction:ltr;text-orientation:mixed;dominant-baseline:auto;baseline-shift:baseline;text-anchor:start;white-space:normal;shape-padding:0;shape-margin:0;inline-size:0;clip-rule:nonzero;display:inline;overflow:visible;visibility:visible;opacity:1;isolation:auto;mix-blend-mode:normal;color-interpolation:sRGB;color-interpolation-filters:linearRGB;solid-color:#000000;solid-opacity:1;vector-effect:none;fill:#000000;fill-opacity:1;fill-rule:nonzero;stroke:none;stroke-width:0.324101;stroke-linecap:butt;stroke-linejoin:miter;stroke-miterlimit:22.926;stroke-dasharray:none;stroke-dashoffset:0;stroke-opacity:1;color-rendering:auto;image-rendering:auto;shape-rendering:auto;text-rendering:auto;enable-background:accumulate;stop-color:#000000;stop-opacity:1"
           d="m -188.86735,-294.63087 c -1.89469,0 -3.4918,-1.63446 -3.4918,-3.68904 v -30.05967 c 0,-2.05458 1.59736,-3.68772 3.4918,-3.68772 h 45.46689 c 1.89445,0 3.4918,1.63314 3.4918,3.68772 v 30.05967 c 0,2.05458 -1.5971,3.68904 -3.4918,3.68904 z m 0,-1.23335 h 45.46689 c 1.34803,0 2.4034,-1.13212 2.4034,-2.45569 v -30.05967 c 0,-1.32357 -1.05516,-2.45441 -2.4034,-2.45441 h -45.46689 c -1.34824,0 -2.40343,1.13084 -2.40343,2.45441 v 30.05967 c 0,1.32357 1.0554,2.45569 2.40343,2.45569 z"
           id="path4351"
           sodipodi:nodetypes="ssssssssssssssssss" />
        <path
           id="path3005"
           d="m -180.68545,-310.11827 h 28.76102 c 0.77838,0 1.41578,0.72102 1.41578,1.6012 v 8.65507 c 0,0.88018 -0.6374,1.6012 -1.41578,1.6012 h -28.76102 c -0.77977,0 -1.41578,-0.72102 -1.41578,-1.6012 v -8.65507 c 0,-0.88018 0.63601,-1.6012 1.41578,-1.6012"
           style="fill:#2e2e91;fill-opacity:1;fill-rule:evenodd;stroke:none;stroke-width:0.0865884"
           sodipodi:nodetypes="csssssssc" />
        <path
           style="color:#000000;font-style:normal;font-variant:normal;font-weight:normal;font-stretch:normal;font-size:medium;line-height:normal;font-family:sans-serif;font-variant-ligatures:normal;font-variant-position:normal;font-variant-caps:normal;font-variant-numeric:normal;font-variant-alternates:normal;font-variant-east-asian:normal;font-feature-settings:normal;font-variation-settings:normal;text-indent:0;text-align:start;text-decoration:none;text-decoration-line:none;text-decoration-style:solid;text-decoration-color:#000000;letter-spacing:normal;word-spacing:normal;text-transform:none;writing-mode:lr-tb;direction:ltr;text-orientation:mixed;dominant-baseline:auto;baseline-shift:baseline;text-anchor:start;white-space:normal;shape-padding:0;shape-margin:0;inline-size:0;clip-rule:nonzero;display:inline;overflow:visible;visibility:visible;opacity:1;isolation:auto;mix-blend-mode:normal;color-interpolation:sRGB;color-interpolation-filters:linearRGB;solid-color:#000000;solid-opacity:1;vector-effect:none;fill:#ffffff;fill-opacity:1;fill-rule:nonzero;stroke:none;stroke-width:0.085896;stroke-linecap:butt;stroke-linejoin:miter;stroke-miterlimit:22.926;stroke-dasharray:none;stroke-dashoffset:0;stroke-opacity:1;color-rendering:auto;image-rendering:auto;shape-rendering:auto;text-rendering:auto;enable-background:accumulate;stop-color:#000000;stop-opacity:1"
           d="m -180.4191,-309.30024 c -0.50344,0 -0.91814,0.40875 -0.91814,0.911 v 8.39897 c 0,0.50253 0.41462,0.91099 0.91814,0.91099 h 28.23065 c 0.50348,0 0.91814,-0.40875 0.91814,-0.91099 v -8.39897 c 0,-0.50253 -0.41462,-0.911 -0.91814,-0.911 z m 0,0.35147 h 28.23065 c 0.3123,0 0.56684,0.24795 0.56684,0.5594 v 8.39898 c 0,0.31096 -0.25466,0.55936 -0.56684,0.5594 h -28.23065 c -0.3123,0 -0.56684,-0.24795 -0.56684,-0.5594 v -8.39898 c 0,-0.31096 0.25466,-0.5594 0.56684,-0.5594 z"
           id="path5358"
           sodipodi:nodetypes="ssssssssssssscssss" />
        <path
           id="path3009"
           d="m -162.6507,-304.66283 v -0.54389 l 0.51157,-0.38461 h 0.51154 v 3.58575 h -0.51154 v -3.04186 l -0.51157,0.38461"
           style="fill:#ffffff;fill-opacity:1;fill-rule:evenodd;stroke:none;stroke-width:0.0865884"
           sodipodi:nodetypes="cccccccc" />
        <path
           id="path3011"
           d="m -161.02339,-301.9891 v -0.48162 l 1.42133,-1.79355 c 0.17822,-0.22012 0.1398,-0.54389 -0.0817,-0.71962 -0.22114,-0.17431 -0.54199,-0.1383 -0.71616,0.0831 -0.0732,0.09 -0.11201,0.20213 -0.11201,0.31833 h -0.51157 c 0,-0.56464 0.45905,-1.02408 1.02176,-1.02408 0.56549,0 1.02311,0.45944 1.02311,1.02408 0,0.2324 -0.0801,0.45949 -0.22523,0.63939 l -1.14893,1.44065 h 1.37428 v 0.51346 h -2.04487"
           style="fill:#ffffff;fill-opacity:1;fill-rule:evenodd;stroke:none;stroke-width:0.0865884"
           sodipodi:nodetypes="cccccccssccccc" />
        <path
           id="path3013"
           d="m -158.53468,-302.99796 v -1.6012 c 0,-0.56464 0.45627,-1.02413 1.02037,-1.02413 0.5641,0 1.02311,0.45949 1.02311,1.02413 v 1.6012 c 0,0.56599 -0.45901,1.02409 -1.02311,1.02409 -0.5641,0 -1.02037,-0.4581 -1.02037,-1.02409 z m 0.51158,-1.6012 c 0,-0.28232 0.22931,-0.51206 0.50879,-0.51206 0.28205,0 0.51153,0.22953 0.51153,0.51206 v 1.6012 c 0,0.28232 -0.22931,0.51202 -0.51153,0.51202 -0.27919,0 -0.50879,-0.22954 -0.50879,-0.51202 v -1.6012"
           style="fill:#ffffff;fill-opacity:1;fill-rule:evenodd;stroke:none;stroke-width:0.0865884"
           sodipodi:nodetypes="ssssssscsssssc" />
        <path
           id="path3015"
           d="m -176.12007,-302.00571 v -3.58022 h 1.46969 c 0.5641,0 1.02176,0.4567 1.02176,1.02273 0,0.4387 -0.27919,0.82896 -0.69405,0.96877 l 0.82265,1.58872 h -0.63878 l -0.73415,-1.53475 h -0.70374 v 1.53475 z m 0.54338,-2.01498 h 0.89451 c 0.30003,0 0.54338,-0.24223 0.54338,-0.54251 0,-0.30032 -0.24322,-0.54389 -0.54338,-0.54389 h -0.89451 v 1.0864"
           style="fill:#ffffff;fill-opacity:1;fill-rule:evenodd;stroke:none;stroke-width:0.0865884"
           sodipodi:nodetypes="ccssccccccccssscc" />
        <path
           id="path3017"
           d="m -172.86128,-302.00571 h 0.54199 v -3.58157 h -0.54199 z"
           style="fill:#ffffff;fill-opacity:1;fill-rule:nonzero;stroke:none;stroke-width:0.0865884"
           sodipodi:nodetypes="ccccc" />
        <path
           id="path3019"
           d="m -169.06185,-303.98747 v 0.73485 c 0,0.7058 -0.5724,1.27875 -1.27757,1.27875 -0.70512,0 -1.27752,-0.57295 -1.27752,-1.27875 v -1.08775 c 0,-0.7058 0.5724,-1.27874 1.27752,-1.27874 0.61941,0 1.14897,0.44561 1.2582,1.05591 h -0.55859 c -0.12304,-0.38747 -0.53642,-0.6006 -0.92357,-0.47744 -0.3029,0.097 -0.51019,0.38051 -0.51019,0.70027 v 1.08775 c 0,0.40548 0.32906,0.73485 0.73415,0.73485 0.40632,0 0.7342,-0.32937 0.7342,-0.73485 v -0.22422 h -0.7342 v -0.51067 h 1.27757"
           style="fill:#ffffff;fill-opacity:1;fill-rule:evenodd;stroke:none;stroke-width:0.0865884"
           sodipodi:nodetypes="cssssscccsssscccc" />
        <path
           id="path3021"
           d="m -168.74247,-302.00571 1.30932,-3.58022 h 0.44798 l 1.30933,3.58022 h -0.57518 l -0.26979,-0.7999 h -1.37846 l -0.26815,0.7999 z m 1.00516,-1.28013 h 1.05491 l -0.52678,-1.5652 -0.52813,1.5652"
           style="fill:#ffffff;fill-opacity:1;fill-rule:evenodd;stroke:none;stroke-width:0.0865884"
           sodipodi:nodetypes="ccccccccccccc" />
        <path
           id="path3023"
           d="m -173.10323,-306.03846 h 1.15723 v -0.36661 h -1.15723 z"
           style="fill:#ffffff;fill-opacity:1;fill-rule:nonzero;stroke:none;stroke-width:0.0865884"
           sodipodi:nodetypes="ccccc" />
        <path
           id="path3025"
           d="m -158.93418,-314.72949 h 0.64982 c 0.0883,0.36415 0.45488,0.58952 0.82265,0.50097 0.30412,-0.0749 0.51848,-0.34737 0.51848,-0.66153 v -0.079 c 0,-0.37643 -0.30535,-0.68088 -0.68162,-0.68088 h -0.27919 v -0.5619 h 0.27919 c 0.35685,0 0.64152,-0.28764 0.64152,-0.64075 0,-0.3531 -0.28491,-0.64074 -0.64152,-0.64074 -0.30699,0 -0.56824,0.21849 -0.6291,0.52033 h -0.64565 c 0.0691,-0.7058 0.69131,-1.222 1.39779,-1.15555 0.65677,0.0622 1.15865,0.61444 1.15865,1.27596 0,0.36416 -0.17699,0.70719 -0.47564,0.91754 0.32497,0.21318 0.51574,0.57847 0.51574,0.96599 v 0.079 c 0,0.73072 -0.59038,1.32302 -1.32179,1.32302 -0.66503,0 -1.22913,-0.49958 -1.30933,-1.16246"
           style="fill:#211e1e;fill-opacity:1;fill-rule:evenodd;stroke:none;stroke-width:0.0865884"
           sodipodi:nodetypes="cccsssccssscccscsssc" />
        <path
           id="path3027"
           d="m -174.32121,-314.08183 c -0.44658,0.61447 -1.24712,0.69888 -1.78632,0.18821 -0.29023,-0.27536 -0.45905,-0.68366 -0.45905,-1.11406 v -0.40138 c 0,-0.79852 0.56966,-1.44757 1.27062,-1.44757 0.37606,0 0.73415,0.19231 0.97475,0.52311 l -0.43277,0.41104 c -0.24894,-0.34205 -0.69405,-0.3887 -0.99269,-0.10515 -0.16188,0.15221 -0.25589,0.37929 -0.25589,0.61861 v 0.40138 c 0,0.44423 0.31679,0.80543 0.70651,0.80543 0.20889,0 0.40796,-0.10802 0.54199,-0.29214 l 0.43277,0.41239"
           style="fill:#211e1e;fill-opacity:1;fill-rule:evenodd;stroke:none;stroke-width:0.0865884"
           sodipodi:nodetypes="ccssscccssscc" />
        <path
           id="path3029"
           d="m -171.5007,-314.96615 h -1.76282 v 0.079 c 0,0.27945 0.1492,0.53141 0.37729,0.63522 0.3123,0.14239 0.67055,0.043 0.89038,-0.24918 l 0.4286,0.41935 c -0.37729,0.49958 -0.9927,0.67257 -1.52913,0.42765 -0.44106,-0.20212 -0.73141,-0.68923 -0.73141,-1.23308 v -0.64218 c 0,-0.73206 0.52123,-1.32715 1.16414,-1.32715 0.64152,0 1.16278,0.59509 1.16278,1.32715 z m -1.76282,-0.56329 h 1.19872 c 0,-0.37765 -0.26816,-0.68362 -0.59869,-0.68362 -0.33028,0 -0.60003,0.30564 -0.60003,0.68362"
           style="fill:#211e1e;fill-opacity:1;fill-rule:evenodd;stroke:none;stroke-width:0.0865884"
           sodipodi:nodetypes="ccsccccsssccccsc" />
        <path
           id="path3031"
           d="m -170.72506,-313.60021 v -3.21489 h 0.5641 v 0.36252 c 0.33029,-0.4664 0.92913,-0.53833 1.33835,-0.16203 0.22278,0.20499 0.354,0.5162 0.354,0.84279 v 2.1714 h -0.56411 v -1.96932 c 0,-0.35556 -0.25302,-0.64353 -0.5641,-0.64353 -0.3123,0 -0.5641,0.28764 -0.5641,0.64353 v 1.96932 h -0.5641"
           style="fill:#211e1e;fill-opacity:1;fill-rule:evenodd;stroke:none;stroke-width:0.0865884"
           sodipodi:nodetypes="cccccsccssscc" />
        <path
           id="path3033"
           d="m -166.56616,-313.60021 h -0.35277 c -0.35113,0 -0.63465,-0.32365 -0.63465,-0.72241 v -1.97072 h -0.28205 v -0.52176 h 0.28205 v -0.96459 h 0.56414 v 0.96459 h 0.42308 v 0.52176 h -0.42308 v 1.88905 c 0,0.11211 0.0789,0.20212 0.177,0.20212 h 0.24608 v 0.60204"
           style="fill:#211e1e;fill-opacity:1;fill-rule:evenodd;stroke:none;stroke-width:0.0865884"
           sodipodi:nodetypes="cssccccccccccsscc" />
        <path
           id="path3035"
           d="m -165.79052,-313.60021 v -3.21489 h 0.5641 v 0.36252 c 0.33029,-0.4664 0.93049,-0.53833 1.33836,-0.16203 h 0.001 l -0.40101,0.56464 c -0.23218,-0.23649 -0.58899,-0.21317 -0.7964,0.0528 -0.0928,0.11784 -0.14225,0.27005 -0.14225,0.42765 v 1.96933 h -0.56411"
           style="fill:#211e1e;fill-opacity:1;fill-rule:evenodd;stroke:none;stroke-width:0.0865884"
           sodipodi:nodetypes="ccccccccscc" />
        <path
           id="path3037"
           d="m -163.67514,-314.11506 0.39692,-0.4567 c 0.32906,0.37356 0.81991,0.49271 1.25263,0.30728 0.14675,-0.0622 0.21992,-0.24632 0.16596,-0.41239 -0.0409,-0.11907 -0.1353,-0.2009 -0.2473,-0.20908 l -0.59869,-0.043 c -0.46591,-0.0327 -0.82125,-0.49131 -0.79084,-1.02273 0.0204,-0.42209 0.28491,-0.77916 0.64569,-0.8774 0.52678,-0.14402 1.07981,-0.004 1.50149,0.38052 l -0.35113,0.50236 c -0.28614,-0.26022 -0.66225,-0.35556 -1.01759,-0.25736 -0.15206,0.0409 -0.24485,0.2144 -0.20888,0.38748 0.0286,0.13706 0.13285,0.23649 0.25711,0.24631 l 0.59865,0.0413 c 0.46595,0.0327 0.8213,0.49132 0.79084,1.02274 -0.0204,0.38052 -0.23381,0.70993 -0.5475,0.84283 -0.64014,0.27413 -1.36186,0.0982 -1.84715,-0.45258"
           style="fill:#211e1e;fill-opacity:1;fill-rule:evenodd;stroke:none;stroke-width:0.0865884"
           sodipodi:nodetypes="ccccccccccccccccc" />
        <g
           id="g5390"
           style="opacity:1;stroke-width:0.137087"
           transform="matrix(1.790449,0,0,1.790449,68.485775,269.71533)">
          <path
             style="color:#000000;font-style:normal;font-variant:normal;font-weight:normal;font-stretch:normal;font-size:medium;line-height:normal;font-family:sans-serif;font-variant-ligatures:normal;font-variant-position:normal;font-variant-caps:normal;font-variant-numeric:normal;font-variant-alternates:normal;font-variant-east-asian:normal;font-feature-settings:normal;font-variation-settings:normal;text-indent:0;text-align:start;text-decoration:none;text-decoration-line:none;text-decoration-style:solid;text-decoration-color:#000000;letter-spacing:normal;word-spacing:normal;text-transform:none;writing-mode:lr-tb;direction:ltr;text-orientation:mixed;dominant-baseline:auto;baseline-shift:baseline;text-anchor:start;white-space:normal;shape-padding:0;shape-margin:0;inline-size:0;clip-rule:nonzero;display:inline;overflow:visible;visibility:visible;isolation:auto;mix-blend-mode:normal;color-interpolation:sRGB;color-interpolation-filters:linearRGB;solid-color:#000000;solid-opacity:1;vector-effect:none;fill:#ffffff;fill-opacity:1;fill-rule:evenodd;stroke:none;stroke-width:0.0241805;stroke-linecap:butt;stroke-linejoin:miter;stroke-miterlimit:22.926;stroke-dasharray:none;stroke-dashoffset:0;stroke-opacity:1;color-rendering:auto;image-rendering:auto;shape-rendering:auto;text-rendering:auto;enable-background:accumulate;stop-color:#000000;stop-opacity:1"
             d="m -128.22518,-333.40829 v 2.52603 c 0,0.42874 -0.35104,0.77916 -0.77918,0.77916 h -4.40676 c -0.42802,0 -0.77918,-0.35045 -0.77918,-0.77916 v -2.52603 c 0,-0.43008 0.35104,-0.78049 0.77918,-0.78049 h 4.40676 c 0.42802,0 0.77918,0.35045 0.77918,0.78049 z"
             id="path5392" />
          <path
             style="color:#000000;font-style:normal;font-variant:normal;font-weight:normal;font-stretch:normal;font-size:medium;line-height:normal;font-family:sans-serif;font-variant-ligatures:normal;font-variant-position:normal;font-variant-caps:normal;font-variant-numeric:normal;font-variant-alternates:normal;font-variant-east-asian:normal;font-feature-settings:normal;font-variation-settings:normal;text-indent:0;text-align:start;text-decoration:none;text-decoration-line:none;text-decoration-style:solid;text-decoration-color:#000000;letter-spacing:normal;word-spacing:normal;text-transform:none;writing-mode:lr-tb;direction:ltr;text-orientation:mixed;dominant-baseline:auto;baseline-shift:baseline;text-anchor:start;white-space:normal;shape-padding:0;shape-margin:0;inline-size:0;clip-rule:nonzero;display:inline;overflow:visible;visibility:visible;isolation:auto;mix-blend-mode:normal;color-interpolation:sRGB;color-interpolation-filters:linearRGB;solid-color:#000000;solid-opacity:1;vector-effect:none;fill:#000000;fill-opacity:1;fill-rule:evenodd;stroke:none;stroke-width:0.0241805;stroke-linecap:butt;stroke-linejoin:miter;stroke-miterlimit:22.926;stroke-dasharray:none;stroke-dashoffset:0;stroke-opacity:1;color-rendering:auto;image-rendering:auto;shape-rendering:auto;text-rendering:auto;enable-background:accumulate;stop-color:#000000;stop-opacity:1"
             d="m -133.41016,-334.21094 c -0.43995,0 -0.80273,0.36088 -0.80273,0.80274 v 2.52539 c 0,0.44053 0.3629,0.80078 0.80273,0.80078 h 4.40625 c 0.43996,0 0.80079,-0.36023 0.80079,-0.80078 v -2.52539 c 0,-0.44183 -0.36095,-0.80274 -0.80079,-0.80274 z m 0,0.043 h 4.40625 c 0.41621,0 0.75782,0.34151 0.75782,0.75977 v 2.52539 c 0,0.41692 -0.34149,0.75781 -0.75782,0.75781 h -4.40625 c -0.4162,0 -0.75781,-0.34092 -0.75781,-0.75781 v -2.52539 c 0,-0.4183 0.34149,-0.75977 0.75781,-0.75977 z"
             id="path5394" />
        </g>
        <path
           id="path2384"
           d="m -161.58119,-327.1686 v 4.38719 c 0,0.54175 -0.45807,0.98154 -1.0155,0.98154 h -7.69082 c -0.55766,0 -1.01544,-0.44197 -1.01544,-0.98154 v -4.38719 c 0,-0.53965 0.45805,-0.9816 1.01544,-0.9816 h 7.69082 c 0.55765,0 1.0155,0.44195 1.0155,0.9816"
           style="opacity:1;fill:#eb1938;fill-opacity:1;fill-rule:evenodd;stroke:none;stroke-width:0.0865883"
           sodipodi:nodetypes="csssssssc" />
        <path
           sodipodi:nodetypes="ccccssssscccsssssc"
           id="path4388"
           d="m -164.26951,-323.00207 h -0.68623 l 0.91116,-1.81607 c -0.50591,0.20896 -1.08402,-0.029 -1.29143,-0.53473 -0.051,-0.11764 -0.0766,-0.24524 -0.0766,-0.37296 v -0.34099 c 0,-0.66751 0.54607,-1.20987 1.2174,-1.20987 0.67383,0 1.21974,0.54198 1.21974,1.20987 v 0.18865 c 0,0.18645 -0.0439,0.37074 -0.12855,0.53982 z m 0.68404,-2.87627 c 0,0.33378 -0.27156,0.60657 -0.60956,0.60657 -0.33581,0 -0.60739,-0.27207 -0.60739,-0.60657 v -0.18862 c 0,-0.33377 0.27158,-0.60585 0.60739,-0.60585 0.338,0 0.60956,0.27208 0.60956,0.60585 v 0.18862"
           style="opacity:1;fill:#ffffff;fill-opacity:1;fill-rule:evenodd;stroke:none;stroke-width:0.0865883" />
        <path
           id="path4390"
           d="m -170.08063,-322.99555 1.51137,-4.13999 h 0.51698 l 1.51375,4.13999 h -0.66429 l -0.31073,-0.92448 h -1.59198 l -0.31075,0.92448 z m 1.16021,-1.47823 h 1.2195 l -0.60956,-1.81099 -0.60958,1.81099"
           style="opacity:1;fill:#ffffff;fill-opacity:1;fill-rule:evenodd;stroke:none;stroke-width:0.0865883" />
      </g>
    </g>
  </g>
</svg>
